<svg xmlns="http://www.w3.org/2000/svg" viewBox="0 0 750 500"><g id="freepik--background-simple--inject-32"><path d="M710.63,143.09S624.7,49.57,497.48,26,297,40.3,243.88,111.92,160.48,256,102.34,292.21,30.73,384.89,34.1,408.48s18.53,41.28,28.64,43.81h602.4s48.86-2.53,62.34-42.13-4.21-71.61-16-118.79S757.81,225.65,710.63,143.09Z" style="fill:#92E3A9"></path><path d="M710.63,143.09S624.7,49.57,497.48,26,297,40.3,243.88,111.92,160.48,256,102.34,292.21,30.73,384.89,34.1,408.48s18.53,41.28,28.64,43.81h602.4s48.86-2.53,62.34-42.13-4.21-71.61-16-118.79S757.81,225.65,710.63,143.09Z" style="fill:#fff;opacity:0.7000000000000001"></path></g><g id="freepik--Clouds--inject-32"><path d="M129.64,41.8s-3.55-9.48-11.85-11.26S106.23,33.8,104.46,38s-7.11.89-11.56.29-6.81,3.85-7.7,7.11-6.52-1.48-11.56,1.49-5.92,6.81-7.11,7.7-4.44-.59-6.22,1.78l-1.78,2.37h92.74s3-6.82-2.67-11.85S133.2,49.5,129.64,41.8Z" style="fill:none;stroke:#263238;stroke-linecap:round;stroke-miterlimit:10"></path><path d="M73.84,78.77S71.39,72.23,65.68,71s-8,2.24-9.19,5.1-4.91.61-8,.21-4.7,2.65-5.31,4.9-4.49-1-8,1-4.09,4.7-4.9,5.31-3.07-.41-4.29,1.22l-1.23,1.64H88.75a7.36,7.36,0,0,0-1.84-8.17C83,78.77,76.29,84.08,73.84,78.77Z" style="fill:none;stroke:#263238;stroke-linecap:round;stroke-miterlimit:10"></path></g><g id="freepik--Buildings--inject-32"><polyline points="21.46 268.18 56.85 268.18 56.85 165.39 88.02 165.39 88.02 117.37 147 117.37 147 212.57 162.16 212.57 162.16 27.92 227.03 27.92 227.03 108.94 267.47 108.94 267.47 39.01 336.56 39.01 336.56 196.56 430.92 196.56 430.92 102.42 492.56 102.42 492.56 197.41 530.34 197.41 530.34 208.36 553.93 208.36 553.93 134.9 569.93 134.9 569.93 208.36 580.89 208.36 580.89 130.85 598.58 130.85 598.58 204.99 620.49 204.99 620.49 80.3 660.08 80.3 660.08 162.02 682.83 162.02 682.83 39.86 738.44 39.86 738.44 286.71" style="fill:none;stroke:#263238;stroke-linecap:round;stroke-miterlimit:10"></polyline><rect x="66.11" y="182.24" width="6.74" height="8.43" style="fill:none;stroke:#263238;stroke-linecap:round;stroke-miterlimit:10"></rect><rect x="77.07" y="182.24" width="6.74" height="8.43" style="fill:none;stroke:#263238;stroke-linecap:round;stroke-miterlimit:10"></rect><rect x="88.02" y="182.24" width="6.74" height="8.43" style="fill:none;stroke:#263238;stroke-linecap:round;stroke-miterlimit:10"></rect><rect x="98.97" y="182.24" width="6.74" height="8.43" style="fill:none;stroke:#263238;stroke-linecap:round;stroke-miterlimit:10"></rect><rect x="109.93" y="182.24" width="6.74" height="8.43" style="fill:none;stroke:#263238;stroke-linecap:round;stroke-miterlimit:10"></rect><rect x="120.88" y="182.24" width="6.74" height="8.43" style="fill:none;stroke:#263238;stroke-linecap:round;stroke-miterlimit:10"></rect><rect x="172.27" y="119.9" width="6.74" height="8.43" style="fill:none;stroke:#263238;stroke-linecap:round;stroke-miterlimit:10"></rect><rect x="183.22" y="119.9" width="6.74" height="8.43" style="fill:none;stroke:#263238;stroke-linecap:round;stroke-miterlimit:10"></rect><rect x="194.18" y="119.9" width="6.74" height="8.43" style="fill:none;stroke:#263238;stroke-linecap:round;stroke-miterlimit:10"></rect><rect x="205.13" y="119.9" width="6.74" height="8.43" style="fill:none;stroke:#263238;stroke-linecap:round;stroke-miterlimit:10"></rect><rect x="172.27" y="104.73" width="6.74" height="8.43" style="fill:none;stroke:#263238;stroke-linecap:round;stroke-miterlimit:10"></rect><rect x="183.22" y="104.73" width="6.74" height="8.43" style="fill:none;stroke:#263238;stroke-linecap:round;stroke-miterlimit:10"></rect><rect x="194.18" y="104.73" width="6.74" height="8.43" style="fill:none;stroke:#263238;stroke-linecap:round;stroke-miterlimit:10"></rect><rect x="205.13" y="104.73" width="6.74" height="8.43" style="fill:none;stroke:#263238;stroke-linecap:round;stroke-miterlimit:10"></rect><rect x="172.27" y="89.56" width="6.74" height="8.43" style="fill:none;stroke:#263238;stroke-linecap:round;stroke-miterlimit:10"></rect><rect x="183.22" y="89.56" width="6.74" height="8.43" style="fill:none;stroke:#263238;stroke-linecap:round;stroke-miterlimit:10"></rect><rect x="194.18" y="89.56" width="6.74" height="8.43" style="fill:none;stroke:#263238;stroke-linecap:round;stroke-miterlimit:10"></rect><rect x="205.13" y="89.56" width="6.74" height="8.43" style="fill:none;stroke:#263238;stroke-linecap:round;stroke-miterlimit:10"></rect><rect x="172.27" y="74.4" width="6.74" height="8.43" style="fill:none;stroke:#263238;stroke-linecap:round;stroke-miterlimit:10"></rect><rect x="183.22" y="74.4" width="6.74" height="8.43" style="fill:none;stroke:#263238;stroke-linecap:round;stroke-miterlimit:10"></rect><rect x="194.18" y="74.4" width="6.74" height="8.43" style="fill:none;stroke:#263238;stroke-linecap:round;stroke-miterlimit:10"></rect><rect x="205.13" y="74.4" width="6.74" height="8.43" style="fill:none;stroke:#263238;stroke-linecap:round;stroke-miterlimit:10"></rect><rect x="172.27" y="59.23" width="6.74" height="8.43" style="fill:none;stroke:#263238;stroke-linecap:round;stroke-miterlimit:10"></rect><rect x="183.22" y="59.23" width="6.74" height="8.43" style="fill:none;stroke:#263238;stroke-linecap:round;stroke-miterlimit:10"></rect><rect x="194.18" y="59.23" width="6.74" height="8.43" style="fill:none;stroke:#263238;stroke-linecap:round;stroke-miterlimit:10"></rect><rect x="205.13" y="59.23" width="6.74" height="8.43" style="fill:none;stroke:#263238;stroke-linecap:round;stroke-miterlimit:10"></rect><rect x="216.08" y="119.9" width="6.74" height="8.43" style="fill:none;stroke:#263238;stroke-linecap:round;stroke-miterlimit:10"></rect><rect x="227.03" y="119.9" width="6.74" height="8.43" style="fill:none;stroke:#263238;stroke-linecap:round;stroke-miterlimit:10"></rect><rect x="172.27" y="136.75" width="6.74" height="8.43" style="fill:none;stroke:#263238;stroke-linecap:round;stroke-miterlimit:10"></rect><rect x="183.22" y="136.75" width="6.74" height="8.43" style="fill:none;stroke:#263238;stroke-linecap:round;stroke-miterlimit:10"></rect><rect x="194.18" y="136.75" width="6.74" height="8.43" style="fill:none;stroke:#263238;stroke-linecap:round;stroke-miterlimit:10"></rect><rect x="205.13" y="136.75" width="6.74" height="8.43" style="fill:none;stroke:#263238;stroke-linecap:round;stroke-miterlimit:10"></rect><rect x="216.08" y="136.75" width="6.74" height="8.43" style="fill:none;stroke:#263238;stroke-linecap:round;stroke-miterlimit:10"></rect><rect x="227.03" y="136.75" width="6.74" height="8.43" style="fill:none;stroke:#263238;stroke-linecap:round;stroke-miterlimit:10"></rect><rect x="66.11" y="199.93" width="6.74" height="8.43" style="fill:none;stroke:#263238;stroke-linecap:round;stroke-miterlimit:10"></rect><rect x="77.07" y="199.93" width="6.74" height="8.43" style="fill:none;stroke:#263238;stroke-linecap:round;stroke-miterlimit:10"></rect><rect x="88.02" y="199.93" width="6.74" height="8.43" style="fill:none;stroke:#263238;stroke-linecap:round;stroke-miterlimit:10"></rect><rect x="98.97" y="199.93" width="6.74" height="8.43" style="fill:none;stroke:#263238;stroke-linecap:round;stroke-miterlimit:10"></rect><rect x="109.93" y="199.93" width="6.74" height="8.43" style="fill:none;stroke:#263238;stroke-linecap:round;stroke-miterlimit:10"></rect><rect x="120.88" y="199.93" width="6.74" height="8.43" style="fill:none;stroke:#263238;stroke-linecap:round;stroke-miterlimit:10"></rect><rect x="66.11" y="217.63" width="6.74" height="8.43" style="fill:none;stroke:#263238;stroke-linecap:round;stroke-miterlimit:10"></rect><rect x="77.07" y="217.63" width="6.74" height="8.43" style="fill:none;stroke:#263238;stroke-linecap:round;stroke-miterlimit:10"></rect><rect x="88.02" y="217.63" width="6.74" height="8.43" style="fill:none;stroke:#263238;stroke-linecap:round;stroke-miterlimit:10"></rect><rect x="98.97" y="217.63" width="6.74" height="8.43" style="fill:none;stroke:#263238;stroke-linecap:round;stroke-miterlimit:10"></rect><rect x="109.93" y="217.63" width="6.74" height="8.43" style="fill:none;stroke:#263238;stroke-linecap:round;stroke-miterlimit:10"></rect><rect x="120.88" y="217.63" width="6.74" height="8.43" style="fill:none;stroke:#263238;stroke-linecap:round;stroke-miterlimit:10"></rect><rect x="66.11" y="235.32" width="6.74" height="8.43" style="fill:none;stroke:#263238;stroke-linecap:round;stroke-miterlimit:10"></rect><rect x="77.07" y="235.32" width="6.74" height="8.43" style="fill:none;stroke:#263238;stroke-linecap:round;stroke-miterlimit:10"></rect><rect x="88.02" y="235.32" width="6.74" height="8.43" style="fill:none;stroke:#263238;stroke-linecap:round;stroke-miterlimit:10"></rect><rect x="98.97" y="235.32" width="6.74" height="8.43" style="fill:none;stroke:#263238;stroke-linecap:round;stroke-miterlimit:10"></rect><rect x="109.93" y="235.32" width="6.74" height="8.43" style="fill:none;stroke:#263238;stroke-linecap:round;stroke-miterlimit:10"></rect><rect x="120.88" y="235.32" width="6.74" height="8.43" style="fill:none;stroke:#263238;stroke-linecap:round;stroke-miterlimit:10"></rect><rect x="66.11" y="253.01" width="6.74" height="8.43" style="fill:none;stroke:#263238;stroke-linecap:round;stroke-miterlimit:10"></rect><rect x="77.07" y="253.01" width="6.74" height="8.43" style="fill:none;stroke:#263238;stroke-linecap:round;stroke-miterlimit:10"></rect><rect x="88.02" y="253.01" width="6.74" height="8.43" style="fill:none;stroke:#263238;stroke-linecap:round;stroke-miterlimit:10"></rect><rect x="98.97" y="253.01" width="6.74" height="8.43" style="fill:none;stroke:#263238;stroke-linecap:round;stroke-miterlimit:10"></rect><rect x="109.93" y="253.01" width="6.74" height="8.43" style="fill:none;stroke:#263238;stroke-linecap:round;stroke-miterlimit:10"></rect><rect x="120.88" y="253.01" width="6.74" height="8.43" style="fill:none;stroke:#263238;stroke-linecap:round;stroke-miterlimit:10"></rect><rect x="703.89" y="57.55" width="6.74" height="8.43" style="fill:none;stroke:#263238;stroke-linecap:round;stroke-miterlimit:10"></rect><rect x="714.85" y="57.55" width="6.74" height="8.43" style="fill:none;stroke:#263238;stroke-linecap:round;stroke-miterlimit:10"></rect><rect x="725.8" y="57.55" width="6.74" height="8.43" style="fill:none;stroke:#263238;stroke-linecap:round;stroke-miterlimit:10"></rect><rect x="703.89" y="78.61" width="6.74" height="8.43" style="fill:none;stroke:#263238;stroke-linecap:round;stroke-miterlimit:10"></rect><rect x="714.85" y="78.61" width="6.74" height="8.43" style="fill:none;stroke:#263238;stroke-linecap:round;stroke-miterlimit:10"></rect><rect x="725.8" y="78.61" width="6.74" height="8.43" style="fill:none;stroke:#263238;stroke-linecap:round;stroke-miterlimit:10"></rect><rect x="703.89" y="99.68" width="6.74" height="8.43" style="fill:none;stroke:#263238;stroke-linecap:round;stroke-miterlimit:10"></rect><rect x="714.85" y="99.68" width="6.74" height="8.43" style="fill:none;stroke:#263238;stroke-linecap:round;stroke-miterlimit:10"></rect><rect x="725.8" y="99.68" width="6.74" height="8.43" style="fill:none;stroke:#263238;stroke-linecap:round;stroke-miterlimit:10"></rect><rect x="703.89" y="120.74" width="6.74" height="8.43" style="fill:none;stroke:#263238;stroke-linecap:round;stroke-miterlimit:10"></rect><rect x="714.85" y="120.74" width="6.74" height="8.43" style="fill:none;stroke:#263238;stroke-linecap:round;stroke-miterlimit:10"></rect><rect x="725.8" y="120.74" width="6.74" height="8.43" style="fill:none;stroke:#263238;stroke-linecap:round;stroke-miterlimit:10"></rect><rect x="703.89" y="141.8" width="6.74" height="8.43" style="fill:none;stroke:#263238;stroke-linecap:round;stroke-miterlimit:10"></rect><rect x="714.85" y="141.8" width="6.74" height="8.43" style="fill:none;stroke:#263238;stroke-linecap:round;stroke-miterlimit:10"></rect><rect x="725.8" y="141.8" width="6.74" height="8.43" style="fill:none;stroke:#263238;stroke-linecap:round;stroke-miterlimit:10"></rect><rect x="703.89" y="162.86" width="6.74" height="8.43" style="fill:none;stroke:#263238;stroke-linecap:round;stroke-miterlimit:10"></rect><rect x="714.85" y="162.86" width="6.74" height="8.43" style="fill:none;stroke:#263238;stroke-linecap:round;stroke-miterlimit:10"></rect><rect x="725.8" y="162.86" width="6.74" height="8.43" style="fill:none;stroke:#263238;stroke-linecap:round;stroke-miterlimit:10"></rect><rect x="703.89" y="183.93" width="6.74" height="8.43" style="fill:none;stroke:#263238;stroke-linecap:round;stroke-miterlimit:10"></rect><rect x="714.85" y="183.93" width="6.74" height="8.43" style="fill:none;stroke:#263238;stroke-linecap:round;stroke-miterlimit:10"></rect><rect x="725.8" y="183.93" width="6.74" height="8.43" style="fill:none;stroke:#263238;stroke-linecap:round;stroke-miterlimit:10"></rect><rect x="703.89" y="204.99" width="6.74" height="8.43" style="fill:none;stroke:#263238;stroke-linecap:round;stroke-miterlimit:10"></rect><rect x="714.85" y="204.99" width="6.74" height="8.43" style="fill:none;stroke:#263238;stroke-linecap:round;stroke-miterlimit:10"></rect><rect x="725.8" y="204.99" width="6.74" height="8.43" style="fill:none;stroke:#263238;stroke-linecap:round;stroke-miterlimit:10"></rect><rect x="703.89" y="226.05" width="6.74" height="8.43" style="fill:none;stroke:#263238;stroke-linecap:round;stroke-miterlimit:10"></rect><rect x="714.85" y="226.05" width="6.74" height="8.43" style="fill:none;stroke:#263238;stroke-linecap:round;stroke-miterlimit:10"></rect><rect x="632.19" y="99.68" width="6.74" height="8.43" style="fill:none;stroke:#263238;stroke-linecap:round;stroke-miterlimit:10"></rect><rect x="643.14" y="99.68" width="6.74" height="8.43" style="fill:none;stroke:#263238;stroke-linecap:round;stroke-miterlimit:10"></rect><rect x="632.19" y="120.74" width="6.74" height="8.43" style="fill:none;stroke:#263238;stroke-linecap:round;stroke-miterlimit:10"></rect><rect x="643.14" y="120.74" width="6.74" height="8.43" style="fill:none;stroke:#263238;stroke-linecap:round;stroke-miterlimit:10"></rect><rect x="632.19" y="141.8" width="6.74" height="8.43" style="fill:none;stroke:#263238;stroke-linecap:round;stroke-miterlimit:10"></rect><rect x="643.14" y="141.8" width="6.74" height="8.43" style="fill:none;stroke:#263238;stroke-linecap:round;stroke-miterlimit:10"></rect><rect x="632.19" y="162.86" width="6.74" height="8.43" style="fill:none;stroke:#263238;stroke-linecap:round;stroke-miterlimit:10"></rect><rect x="643.14" y="162.86" width="6.74" height="8.43" style="fill:none;stroke:#263238;stroke-linecap:round;stroke-miterlimit:10"></rect><rect x="632.19" y="183.93" width="6.74" height="8.43" style="fill:none;stroke:#263238;stroke-linecap:round;stroke-miterlimit:10"></rect><rect x="643.14" y="183.93" width="6.74" height="8.43" style="fill:none;stroke:#263238;stroke-linecap:round;stroke-miterlimit:10"></rect><rect x="632.19" y="204.99" width="6.74" height="8.43" style="fill:none;stroke:#263238;stroke-linecap:round;stroke-miterlimit:10"></rect><rect x="643.14" y="204.99" width="6.74" height="8.43" style="fill:none;stroke:#263238;stroke-linecap:round;stroke-miterlimit:10"></rect><rect x="632.19" y="226.05" width="6.74" height="8.43" style="fill:none;stroke:#263238;stroke-linecap:round;stroke-miterlimit:10"></rect><rect x="643.14" y="226.05" width="6.74" height="8.43" style="fill:none;stroke:#263238;stroke-linecap:round;stroke-miterlimit:10"></rect><rect x="439.15" y="120.74" width="6.74" height="8.43" style="fill:none;stroke:#263238;stroke-linecap:round;stroke-miterlimit:10"></rect><rect x="450.11" y="120.74" width="6.74" height="8.43" style="fill:none;stroke:#263238;stroke-linecap:round;stroke-miterlimit:10"></rect><rect x="439.15" y="141.8" width="6.74" height="8.43" style="fill:none;stroke:#263238;stroke-linecap:round;stroke-miterlimit:10"></rect><rect x="450.11" y="141.8" width="6.74" height="8.43" style="fill:none;stroke:#263238;stroke-linecap:round;stroke-miterlimit:10"></rect><rect x="439.15" y="162.86" width="6.74" height="8.43" style="fill:none;stroke:#263238;stroke-linecap:round;stroke-miterlimit:10"></rect><rect x="450.11" y="162.86" width="6.74" height="8.43" style="fill:none;stroke:#263238;stroke-linecap:round;stroke-miterlimit:10"></rect><rect x="439.15" y="183.93" width="6.74" height="8.43" style="fill:none;stroke:#263238;stroke-linecap:round;stroke-miterlimit:10"></rect><rect x="450.11" y="183.93" width="6.74" height="8.43" style="fill:none;stroke:#263238;stroke-linecap:round;stroke-miterlimit:10"></rect><rect x="439.15" y="204.99" width="6.74" height="8.43" style="fill:none;stroke:#263238;stroke-linecap:round;stroke-miterlimit:10"></rect><rect x="450.11" y="204.99" width="6.74" height="8.43" style="fill:none;stroke:#263238;stroke-linecap:round;stroke-miterlimit:10"></rect><rect x="439.15" y="226.05" width="6.74" height="8.43" style="fill:none;stroke:#263238;stroke-linecap:round;stroke-miterlimit:10"></rect><rect x="450.11" y="226.05" width="6.74" height="8.43" style="fill:none;stroke:#263238;stroke-linecap:round;stroke-miterlimit:10"></rect><rect x="463.96" y="120.74" width="6.74" height="8.43" style="fill:none;stroke:#263238;stroke-linecap:round;stroke-miterlimit:10"></rect><rect x="474.91" y="120.74" width="6.74" height="8.43" style="fill:none;stroke:#263238;stroke-linecap:round;stroke-miterlimit:10"></rect><rect x="463.96" y="141.8" width="6.74" height="8.43" style="fill:none;stroke:#263238;stroke-linecap:round;stroke-miterlimit:10"></rect><rect x="474.91" y="141.8" width="6.74" height="8.43" style="fill:none;stroke:#263238;stroke-linecap:round;stroke-miterlimit:10"></rect><rect x="463.96" y="162.86" width="6.74" height="8.43" style="fill:none;stroke:#263238;stroke-linecap:round;stroke-miterlimit:10"></rect><rect x="474.91" y="162.86" width="6.74" height="8.43" style="fill:none;stroke:#263238;stroke-linecap:round;stroke-miterlimit:10"></rect><rect x="463.96" y="183.93" width="6.74" height="8.43" style="fill:none;stroke:#263238;stroke-linecap:round;stroke-miterlimit:10"></rect><rect x="474.91" y="183.93" width="6.74" height="8.43" style="fill:none;stroke:#263238;stroke-linecap:round;stroke-miterlimit:10"></rect><rect x="463.96" y="204.99" width="6.74" height="8.43" style="fill:none;stroke:#263238;stroke-linecap:round;stroke-miterlimit:10"></rect><rect x="474.91" y="204.99" width="6.74" height="8.43" style="fill:none;stroke:#263238;stroke-linecap:round;stroke-miterlimit:10"></rect><rect x="463.96" y="226.05" width="6.74" height="8.43" style="fill:none;stroke:#263238;stroke-linecap:round;stroke-miterlimit:10"></rect><rect x="474.91" y="226.05" width="6.74" height="8.43" style="fill:none;stroke:#263238;stroke-linecap:round;stroke-miterlimit:10"></rect><rect x="291.79" y="57.55" width="6.74" height="8.43" style="fill:none;stroke:#263238;stroke-linecap:round;stroke-miterlimit:10"></rect><rect x="302.74" y="57.55" width="6.74" height="8.43" style="fill:none;stroke:#263238;stroke-linecap:round;stroke-miterlimit:10"></rect><rect x="291.79" y="78.61" width="6.74" height="8.43" style="fill:none;stroke:#263238;stroke-linecap:round;stroke-miterlimit:10"></rect><rect x="302.74" y="78.61" width="6.74" height="8.43" style="fill:none;stroke:#263238;stroke-linecap:round;stroke-miterlimit:10"></rect><rect x="291.79" y="99.68" width="6.74" height="8.43" style="fill:none;stroke:#263238;stroke-linecap:round;stroke-miterlimit:10"></rect><rect x="302.74" y="99.68" width="6.74" height="8.43" style="fill:none;stroke:#263238;stroke-linecap:round;stroke-miterlimit:10"></rect><rect x="291.79" y="120.74" width="6.74" height="8.43" style="fill:none;stroke:#263238;stroke-linecap:round;stroke-miterlimit:10"></rect><rect x="302.74" y="120.74" width="6.74" height="8.43" style="fill:none;stroke:#263238;stroke-linecap:round;stroke-miterlimit:10"></rect><rect x="291.79" y="141.8" width="6.74" height="8.43" style="fill:none;stroke:#263238;stroke-linecap:round;stroke-miterlimit:10"></rect><rect x="302.74" y="141.8" width="6.74" height="8.43" style="fill:none;stroke:#263238;stroke-linecap:round;stroke-miterlimit:10"></rect><rect x="291.79" y="162.86" width="6.74" height="8.43" style="fill:none;stroke:#263238;stroke-linecap:round;stroke-miterlimit:10"></rect><rect x="302.74" y="162.86" width="6.74" height="8.43" style="fill:none;stroke:#263238;stroke-linecap:round;stroke-miterlimit:10"></rect><rect x="291.79" y="183.93" width="6.74" height="8.43" style="fill:none;stroke:#263238;stroke-linecap:round;stroke-miterlimit:10"></rect><rect x="302.74" y="183.93" width="6.74" height="8.43" style="fill:none;stroke:#263238;stroke-linecap:round;stroke-miterlimit:10"></rect><rect x="291.79" y="204.99" width="6.74" height="8.43" style="fill:none;stroke:#263238;stroke-linecap:round;stroke-miterlimit:10"></rect><rect x="302.74" y="204.99" width="6.74" height="8.43" style="fill:none;stroke:#263238;stroke-linecap:round;stroke-miterlimit:10"></rect><rect x="291.79" y="226.05" width="6.74" height="8.43" style="fill:none;stroke:#263238;stroke-linecap:round;stroke-miterlimit:10"></rect><rect x="302.74" y="226.05" width="6.74" height="8.43" style="fill:none;stroke:#263238;stroke-linecap:round;stroke-miterlimit:10"></rect><rect x="725.8" y="226.05" width="6.74" height="8.43" style="fill:none;stroke:#263238;stroke-linecap:round;stroke-miterlimit:10"></rect></g><g id="freepik--Floor--inject-32"><line x1="732.28" y1="452.29" x2="8.26" y2="452.29" style="fill:none;stroke:#263238;stroke-linecap:round;stroke-miterlimit:10"></line></g><g id="freepik--car-wash--inject-32"><rect x="297.14" y="107.7" width="380.64" height="344.59" style="fill:#263238;stroke:#263238;stroke-linecap:round;stroke-miterlimit:10"></rect><rect x="322.88" y="108.42" width="17.43" height="343.01" style="fill:#c9c9c9;stroke:#263238;stroke-linecap:round;stroke-miterlimit:10"></rect><rect x="339.48" y="108.42" width="17.43" height="343.01" style="fill:#bababa;stroke:#263238;stroke-linecap:round;stroke-miterlimit:10"></rect><rect x="356.07" y="108.42" width="17.43" height="343.01" style="fill:#c9c9c9;stroke:#263238;stroke-linecap:round;stroke-miterlimit:10"></rect><rect x="372.67" y="108.42" width="17.43" height="343.01" style="fill:#bababa;stroke:#263238;stroke-linecap:round;stroke-miterlimit:10"></rect><rect x="389.26" y="108.42" width="17.43" height="343.01" style="fill:#c9c9c9;stroke:#263238;stroke-linecap:round;stroke-miterlimit:10"></rect><rect x="405.86" y="108.42" width="17.43" height="343.01" style="fill:#bababa;stroke:#263238;stroke-linecap:round;stroke-miterlimit:10"></rect><rect x="422.46" y="108.42" width="17.43" height="343.01" style="fill:#c9c9c9;stroke:#263238;stroke-linecap:round;stroke-miterlimit:10"></rect><rect x="439.05" y="108.42" width="17.43" height="343.01" style="fill:#bababa;stroke:#263238;stroke-linecap:round;stroke-miterlimit:10"></rect><rect x="455.65" y="108.42" width="17.43" height="343.01" style="fill:#c9c9c9;stroke:#263238;stroke-linecap:round;stroke-miterlimit:10"></rect><rect x="472.25" y="108.42" width="17.43" height="343.01" style="fill:#bababa;stroke:#263238;stroke-linecap:round;stroke-miterlimit:10"></rect><rect x="488.84" y="108.42" width="17.43" height="343.01" style="fill:#c9c9c9;stroke:#263238;stroke-linecap:round;stroke-miterlimit:10"></rect><rect x="505.44" y="108.42" width="17.43" height="343.01" style="fill:#bababa;stroke:#263238;stroke-linecap:round;stroke-miterlimit:10"></rect><rect x="522.03" y="108.42" width="17.43" height="343.01" style="fill:#c9c9c9;stroke:#263238;stroke-linecap:round;stroke-miterlimit:10"></rect><rect x="538.63" y="108.42" width="17.43" height="343.01" style="fill:#bababa;stroke:#263238;stroke-linecap:round;stroke-miterlimit:10"></rect><rect x="555.23" y="108.42" width="17.43" height="343.01" style="fill:#c9c9c9;stroke:#263238;stroke-linecap:round;stroke-miterlimit:10"></rect><rect x="571.82" y="108.42" width="17.43" height="343.01" style="fill:#bababa;stroke:#263238;stroke-linecap:round;stroke-miterlimit:10"></rect><rect x="588.42" y="108.42" width="17.43" height="343.01" style="fill:#c9c9c9;stroke:#263238;stroke-linecap:round;stroke-miterlimit:10"></rect><rect x="605.01" y="108.42" width="17.43" height="343.01" style="fill:#bababa;stroke:#263238;stroke-linecap:round;stroke-miterlimit:10"></rect><rect x="621.61" y="108.42" width="17.43" height="343.01" style="fill:#c9c9c9;stroke:#263238;stroke-linecap:round;stroke-miterlimit:10"></rect><path d="M339.63,137.9s2.83,52.13.32,88.29Z" style="fill:#263238"></path><path d="M372.65,149s6,53.76-.31,83.08Z" style="fill:#263238"></path><path d="M356.71,256.36V348S363.41,305.86,356.71,256.36Z" style="fill:#263238"></path><path d="M405.83,124.52v84.2S412.52,155.52,405.83,124.52Z" style="fill:#263238"></path><path d="M389.31,215.65V311S394.66,239.71,389.31,215.65Z" style="fill:#263238"></path><path d="M422.35,130.3V263.77S431.28,205.7,422.35,130.3Z" style="fill:#263238"></path><path d="M423.24,439.79V299.39S429.05,387.45,423.24,439.79Z" style="fill:#263238"></path><path d="M488.88,363V222.59S494.69,310.66,488.88,363Z" style="fill:#263238"></path><path d="M471.91,321.82V181.42S477.72,269.49,471.91,321.82Z" style="fill:#263238"></path><path d="M505.85,272.33V131.92S511.66,220,505.85,272.33Z" style="fill:#263238"></path><path d="M522.37,416.2V275.79S528.18,363.86,522.37,416.2Z" style="fill:#263238"></path><path d="M539.34,351.43V211S545.15,299.09,539.34,351.43Z" style="fill:#263238"></path><path d="M571.49,397.69V257.29S577.3,345.35,571.49,397.69Z" style="fill:#263238"></path><path d="M555.42,258V117.58S561.22,205.64,555.42,258Z" style="fill:#263238"></path><path d="M588.46,302.39V162S594.26,250.06,588.46,302.39Z" style="fill:#263238"></path><path d="M621.5,420.36V280S627.31,368,621.5,420.36Z" style="fill:#263238"></path><path d="M605,439.33V298.93S610.79,387,605,439.33Z" style="fill:#263238"></path><path d="M605,248.73V108.33S610.79,196.39,605,248.73Z" style="fill:#263238"></path><path d="M622,291.29V150.89S627.75,239,622,291.29Z" style="fill:#263238"></path><path d="M456.29,447.66V307.25S462.09,395.32,456.29,447.66Z" style="fill:#263238"></path><path d="M339.29,392.6V252.2S345.1,340.26,339.29,392.6Z" style="fill:#263238"></path><path d="M373.23,442.1V301.7S379,389.76,373.23,442.1Z" style="fill:#263238"></path><path d="M455.84,121.28V296.61S462.09,192.76,455.84,121.28Z" style="fill:#263238"></path><rect x="259.89" y="107.7" width="45.5" height="344.59" style="fill:#fff;stroke:#263238;stroke-linecap:round;stroke-miterlimit:10"></rect><rect x="655.03" y="107.7" width="45.5" height="344.59" style="fill:#fff;stroke:#263238;stroke-linecap:round;stroke-miterlimit:10"></rect><rect x="251.44" y="58.25" width="456.7" height="53.22" style="fill:#263238;stroke:#263238;stroke-linecap:round;stroke-miterlimit:10"></rect></g><g id="freepik--Sign--inject-32"><ellipse cx="480.96" cy="87.44" rx="91.07" ry="57.08" style="fill:#263238;stroke:#263238;stroke-linecap:round;stroke-miterlimit:10"></ellipse><ellipse cx="480.96" cy="87.44" rx="82.59" ry="51.76" style="fill:#92E3A9;stroke:#263238;stroke-linecap:round;stroke-miterlimit:10"></ellipse><ellipse cx="480.96" cy="87.44" rx="74.89" ry="46.94" style="fill:#fff;stroke:#263238;stroke-linecap:round;stroke-miterlimit:10"></ellipse><path d="M446.73,81.79c-3.8,0-6.8-.72-9-2.15a11.38,11.38,0,0,1-4.66-6,27.26,27.26,0,0,1-1.33-8.89V46.33a28.14,28.14,0,0,1,1.33-9.15,11.06,11.06,0,0,1,4.66-5.92c2.22-1.39,5.22-2.09,9-2.09s6.56.61,8.65,1.84a10.06,10.06,0,0,1,4.43,5.19,21.63,21.63,0,0,1,1.3,7.79v4.3H451V43.48a28.71,28.71,0,0,0-.19-3.32,4.66,4.66,0,0,0-1.05-2.54,3.75,3.75,0,0,0-2.94-1,4,4,0,0,0-3,1,4.84,4.84,0,0,0-1.21,2.63,23.12,23.12,0,0,0-.25,3.58v23.3a18.19,18.19,0,0,0,.35,3.77A4.33,4.33,0,0,0,444,73.4a4.15,4.15,0,0,0,2.82.86,3.63,3.63,0,0,0,2.88-1,4.89,4.89,0,0,0,1.07-2.62,25.78,25.78,0,0,0,.23-3.49v-5h10.13V66.4a23.1,23.1,0,0,1-1.27,7.95,10.68,10.68,0,0,1-4.37,5.45Q452.36,81.79,446.73,81.79Z" style="fill:#263238;stroke:#263238;stroke-linecap:round;stroke-miterlimit:10"></path><path d="M465,81.09l9.94-51.29H486.5l9.88,51.29h-9.69l-1.84-11.27h-8.1l-2,11.27ZM477.7,63.43h6.14l-3.1-20.71Z" style="fill:#263238;stroke:#263238;stroke-linecap:round;stroke-miterlimit:10"></path><path d="M501.19,81.09V29.8h13.3A29.66,29.66,0,0,1,523.38,31a10.45,10.45,0,0,1,5.7,4.15q2,3,2,8.23a26.11,26.11,0,0,1-.54,5.61,10.8,10.8,0,0,1-1.9,4.24,9.38,9.38,0,0,1-3.83,2.88l7.09,25H521.2l-5.89-23.24h-3.67V81.09Zm10.45-29.44h3a8.12,8.12,0,0,0,4-.82,4.51,4.51,0,0,0,2.05-2.51,12.1,12.1,0,0,0,.61-4.14,9.51,9.51,0,0,0-1.3-5.42c-.87-1.24-2.48-1.87-4.85-1.87h-3.54Z" style="fill:#263238;stroke:#263238;stroke-linecap:round;stroke-miterlimit:10"></path><path d="M416.84,137.05l-6.65-51.29h8.87l3.55,31.34,4.49-31.28h7L438.82,117l3.54-31.28h8.74l-6.58,51.29h-8.87l-5-32.48-4.75,32.48Z" style="fill:#263238;stroke:#263238;stroke-linecap:round;stroke-miterlimit:10"></path><path d="M452.81,137.05l9.94-51.29h11.59l9.88,51.29h-9.69l-1.84-11.27h-8.1l-2,11.27Zm12.73-17.67h6.14l-3.1-20.7Z" style="fill:#263238;stroke:#263238;stroke-linecap:round;stroke-miterlimit:10"></path><path d="M502.33,137.75a16.28,16.28,0,0,1-7.92-1.74,11.11,11.11,0,0,1-4.78-5.26,24.24,24.24,0,0,1-1.86-9l9-1.52a25.93,25.93,0,0,0,.66,5.29,6.39,6.39,0,0,0,1.65,3.16,3.84,3.84,0,0,0,2.75,1.05,2.91,2.91,0,0,0,2.76-1.27,5.77,5.77,0,0,0,.73-2.91,9.06,9.06,0,0,0-1.56-5.41,25.55,25.55,0,0,0-4.08-4.41l-5.32-4.62a21.35,21.35,0,0,1-4.65-5.44,14.37,14.37,0,0,1-1.81-7.48q0-6.33,3.71-9.72t10.16-3.38a13.9,13.9,0,0,1,6.33,1.26,9.75,9.75,0,0,1,3.83,3.39,13.89,13.89,0,0,1,1.9,4.62,31.85,31.85,0,0,1,.67,5l-8.93,1.33a41.28,41.28,0,0,0-.41-4.11A5.67,5.67,0,0,0,504,93.8a3.19,3.19,0,0,0-2.57-1,3,3,0,0,0-2.72,1.36,5.42,5.42,0,0,0-.89,3,7.49,7.49,0,0,0,1.24,4.46,21.34,21.34,0,0,0,3.39,3.64l5.19,4.56a29.55,29.55,0,0,1,5.54,6.37A15.94,15.94,0,0,1,515.5,125a13,13,0,0,1-1.65,6.52,11.7,11.7,0,0,1-4.59,4.56A13.93,13.93,0,0,1,502.33,137.75Z" style="fill:#263238;stroke:#263238;stroke-linecap:round;stroke-miterlimit:10"></path><path d="M520.31,137.05V85.76h10.45v21.09h9.06V85.76h10.45v51.29H539.82V114.32h-9.06v22.73Z" style="fill:#263238;stroke:#263238;stroke-linecap:round;stroke-miterlimit:10"></path><path d="M449.6,79.64c-3.8,0-6.81-.71-9-2.15a11.33,11.33,0,0,1-4.65-6,27.06,27.06,0,0,1-1.33-8.9V44.18A28,28,0,0,1,435.92,35a11.08,11.08,0,0,1,4.65-5.92q3.33-2.09,9-2.09c3.67,0,6.55.62,8.64,1.84a10,10,0,0,1,4.43,5.19,21.45,21.45,0,0,1,1.3,7.79v4.31H453.84V41.33a28.71,28.71,0,0,0-.19-3.32,4.62,4.62,0,0,0-1-2.53,3.72,3.72,0,0,0-2.94-1,4,4,0,0,0-3,1,4.76,4.76,0,0,0-1.2,2.63,22.92,22.92,0,0,0-.26,3.57V65a18.09,18.09,0,0,0,.35,3.76,4.39,4.39,0,0,0,1.33,2.47,4.15,4.15,0,0,0,2.82.86,3.67,3.67,0,0,0,2.88-1,4.93,4.93,0,0,0,1.08-2.63,27.53,27.53,0,0,0,.22-3.48V60H464v4.25a22.85,22.85,0,0,1-1.27,7.94,10.68,10.68,0,0,1-4.37,5.45Q455.23,79.65,449.6,79.64Z" style="fill:#92E3A9;stroke:#263238;stroke-linecap:round;stroke-miterlimit:10"></path><path d="M467.83,79l9.94-51.29h11.59L499.24,79h-9.69l-1.83-11.27h-8.11l-2,11.27Zm12.73-17.67h6.14l-3.1-20.71Z" style="fill:#92E3A9;stroke:#263238;stroke-linecap:round;stroke-miterlimit:10"></path><path d="M504.05,79V27.66h13.3a29.78,29.78,0,0,1,8.9,1.17A10.38,10.38,0,0,1,532,33c1.33,2,2,4.73,2,8.24a26,26,0,0,1-.54,5.6,10.74,10.74,0,0,1-1.9,4.24,9.21,9.21,0,0,1-3.83,2.88l7.09,25h-10.7l-5.89-23.24H514.5V79ZM514.5,49.5h3a8.12,8.12,0,0,0,4-.82,4.51,4.51,0,0,0,2.06-2.5,12.43,12.43,0,0,0,.6-4.15,9.4,9.4,0,0,0-1.3-5.41q-1.3-1.87-4.84-1.87H514.5Z" style="fill:#92E3A9;stroke:#263238;stroke-linecap:round;stroke-miterlimit:10"></path><path d="M419.71,134.9l-6.65-51.29h8.86L425.47,115,430,83.68h7l4.69,31.21,3.55-31.28H454l-6.58,51.29h-8.87l-5-32.48-4.75,32.48Z" style="fill:#92E3A9;stroke:#263238;stroke-linecap:round;stroke-miterlimit:10"></path><path d="M455.67,134.9l9.95-51.29H477.2l9.88,51.29h-9.69l-1.83-11.27h-8.11l-2,11.27Zm12.73-17.66h6.14l-3.1-20.71Z" style="fill:#92E3A9;stroke:#263238;stroke-linecap:round;stroke-miterlimit:10"></path><path d="M505.19,135.6a16.27,16.27,0,0,1-7.91-1.74,11,11,0,0,1-4.78-5.26,24.22,24.22,0,0,1-1.87-9l9-1.52a26.55,26.55,0,0,0,.66,5.29,6.47,6.47,0,0,0,1.65,3.17,3.9,3.9,0,0,0,2.76,1,2.89,2.89,0,0,0,2.75-1.27,5.77,5.77,0,0,0,.73-2.91,9.12,9.12,0,0,0-1.55-5.41,26,26,0,0,0-4.09-4.4L497.21,109a21.19,21.19,0,0,1-4.65-5.44,14.45,14.45,0,0,1-1.81-7.47q0-6.33,3.71-9.72T504.62,83A13.87,13.87,0,0,1,511,84.24a9.78,9.78,0,0,1,3.84,3.39,13.92,13.92,0,0,1,1.89,4.63,30.41,30.41,0,0,1,.67,5l-8.93,1.33a38.44,38.44,0,0,0-.41-4.12,5.67,5.67,0,0,0-1.14-2.79,3.17,3.17,0,0,0-2.56-1A3,3,0,0,0,501.58,92a5.41,5.41,0,0,0-.88,3,7.54,7.54,0,0,0,1.23,4.46,21.37,21.37,0,0,0,3.39,3.65l5.19,4.55a29.55,29.55,0,0,1,5.54,6.37,15.94,15.94,0,0,1,2.31,8.83,13.07,13.07,0,0,1-1.64,6.52,11.7,11.7,0,0,1-4.59,4.56A14,14,0,0,1,505.19,135.6Z" style="fill:#92E3A9;stroke:#263238;stroke-linecap:round;stroke-miterlimit:10"></path><path d="M523.18,134.9V83.61h10.44V104.7h9.06V83.61h10.45V134.9H542.68V112.17h-9.06V134.9Z" style="fill:#92E3A9;stroke:#263238;stroke-linecap:round;stroke-miterlimit:10"></path></g><g id="freepik--Plant--inject-32"><path d="M36.16,356.72c1.78.78,6.13.68,6.13.68s-.94-2.84-1-3c-1-2-4-5.29-6.42-5a2.93,2.93,0,0,0-2.35,3.67C32.91,354.8,34.65,356.06,36.16,356.72Z" style="fill:#263238"></path><path d="M37.66,369.31c1.85.27,5.72-.85,6-.95A51.93,51.93,0,0,0,46,374.87q.81,1.86,1.71,3.69c-.36-.52-.68-1-.73-1-1.45-1.67-5.22-4-7.5-3.08a2.93,2.93,0,0,0-1.3,4.16c.84,1.53,2.86,2.29,4.49,2.52s5-.65,5.86-.89l.69,1.4c1.13,2.23,2.26,4.46,3.3,6.68.37.78.7,1.56,1,2.35-.32-.47-.59-.85-.63-.9-1.45-1.68-5.23-4.06-7.51-3.09a2.93,2.93,0,0,0-1.3,4.16c.85,1.54,2.86,2.29,4.5,2.53s4.65-.56,5.7-.85c.32.81.64,1.62.91,2.42.18.55.39,1.07.53,1.63s.31,1.11.46,1.65c.25,1.06.52,2.15.74,3.19.16.72.3,1.41.44,2.1-.35-.78-1.08-2.3-1.16-2.42-1.18-1.87-4.55-4.79-7-4.18a2.92,2.92,0,0,0-1.91,3.91c.6,1.65,2.47,2.7,4,3.18,1.74.53,5.59.05,6.07,0,.23,1.14.45,2.27.63,3.33.41,2.34.72,4.44,1,6.21h1.62c-.28-1.84-.65-4-1.14-6.48-.23-1.17-.5-2.42-.78-3.69a33.05,33.05,0,0,0,3.38-1.59,21.42,21.42,0,0,0,4.94,3.18c-.45,1.09-.89,2.14-1.32,3.13-.9,2.06-1.75,3.89-2.5,5.45h1.75c.65-1.43,1.36-3.07,2.1-4.88.46-1.11.92-2.29,1.38-3.51.47.09,4.28.87,6,.47s3.57-1.28,4.29-2.87a2.94,2.94,0,0,0-1.62-4.05c-2.35-.79-5.93,1.88-7.24,3.66-.08.1-.79,1.33-1.23,2.12l.56-1.5c.38-1,.72-2,1.09-3.16.16-.54.33-1.09.49-1.64s.29-1.14.44-1.71c.32-1.34.58-2.72.81-4.11.9.33,4.09,1.44,5.74,1.32s3.72-.72,4.67-2.18a2.94,2.94,0,0,0-1-4.25c-2.2-1.13-6.15,1-7.72,2.52-.09.09-1.09,1.34-1.63,2,.13-.83.27-1.67.37-2.52.31-2.45.54-4.94.78-7.43l.24-2.28c.32.12,4.09,1.52,5.94,1.39,1.65-.11,3.71-.72,4.67-2.19a2.92,2.92,0,0,0-1-4.24c-2.2-1.14-6.14.95-7.71,2.51-.12.12-1.55,1.92-1.89,2.39.17-1.67.36-3.34.62-5a51.5,51.5,0,0,1,1.43-6.54c.14.06,4.07,1.54,6,1.41,1.64-.12,3.71-.73,4.66-2.19a2.92,2.92,0,0,0-1-4.25c-2.2-1.13-6.14,1-7.71,2.52-.12.12-1.67,2.05-1.92,2.42,0-.12.06-.25.1-.38a37.08,37.08,0,0,1,2.59-6.18c.56-1.11,1.16-2.13,1.77-3.11.7.35,3.93,1.92,5.65,2s3.77-.31,4.88-1.66a2.93,2.93,0,0,0-.51-4.33c-2.07-1.37-6.22.28-7.94,1.65-.1.08-1,.95-1.59,1.59.28-.44.56-.9.83-1.31,1-1.56,2.08-2.93,3-4.13.54-.68,1-1.28,1.51-1.84.87,0,4.37-.12,5.9-.84s3.2-2,3.57-3.72a2.94,2.94,0,0,0-2.45-3.61c-2.47-.26-5.39,3.11-6.29,5.13-.08.18-1,3-.93,3h0c-.47.53-1,1.11-1.49,1.74-1,1.18-2,2.53-3.11,4.07a52.71,52.71,0,0,0-3.23,5.15,38.62,38.62,0,0,0-2.76,6.2.19.19,0,0,1,0,.08c0-.72,0-2.75,0-2.91-.28-2.19-2.12-6.26-4.55-6.71a2.93,2.93,0,0,0-3.38,2.76c-.15,1.74,1.12,3.48,2.35,4.58,1.39,1.24,5.24,2.44,5.55,2.54a51.5,51.5,0,0,0-1.63,6.72c-.24,1.33-.43,2.67-.61,4,0-.63,0-1.19,0-1.27-.28-2.19-2.12-6.26-4.55-6.71A2.92,2.92,0,0,0,65,373.11c-.14,1.75,1.12,3.49,2.35,4.59s4.52,2.21,5.39,2.48c-.07.52-.14,1-.2,1.55-.3,2.49-.58,5-.94,7.39-.12.86-.28,1.7-.43,2.53,0-.55,0-1,0-1.09-.28-2.2-2.12-6.27-4.55-6.72a2.93,2.93,0,0,0-3.38,2.76c-.14,1.74,1.12,3.48,2.35,4.58s4.2,2.1,5.23,2.44c-.18.85-.36,1.71-.58,2.52-.15.56-.27,1.11-.46,1.66s-.35,1.09-.52,1.62c-.38,1-.75,2.08-1.14,3.07-.26.69-.53,1.34-.79,2,.13-.85.36-2.52.36-2.66a11.39,11.39,0,0,0-1.53-5.53,2.81,2.81,0,0,0,0-.65,2.93,2.93,0,0,0-3.58-2.49c-2.39.64-3.91,4.84-4,7,0,.13.08,1.55.15,2.44-.13-.52-.24-1-.37-1.56-.25-1-.53-2.1-.83-3.23-.16-.54-.33-1.09-.49-1.64s-.39-1.11-.58-1.67c-.47-1.3-1-2.58-1.59-3.87.92-.22,4.2-1.06,5.52-2.07S63,386,63,384.22a2.92,2.92,0,0,0-3.16-3c-2.46.26-4.6,4.18-5,6.35,0,.13-.18,1.72-.24,2.6-.35-.77-.7-1.54-1.08-2.31-1.1-2.21-2.28-4.42-3.45-6.63l-1.06-2c.33-.08,4.24-1,5.72-2.12,1.31-1,2.7-2.65,2.68-4.39a2.92,2.92,0,0,0-3.16-3c-2.46.26-4.6,4.18-5,6.35,0,.16-.24,2.45-.27,3-.77-1.49-1.53-3-2.22-4.49a52.75,52.75,0,0,1-2.42-6.24c.16,0,4.25-1,5.76-2.12,1.31-1,2.7-2.65,2.69-4.4a2.94,2.94,0,0,0-3.17-3c-2.46.27-4.6,4.19-5,6.36,0,.17-.26,2.63-.27,3.08,0-.13-.09-.25-.12-.37a38.53,38.53,0,0,1-1.26-6.59c-.13-1.23-.2-2.42-.23-3.57.78-.09,4.34-.57,5.81-1.46s3-2.34,3.15-4.07a2.92,2.92,0,0,0-2.81-3.33c-2.48,0-5,3.65-5.71,5.76,0,.11-.29,1.32-.46,2.2,0-.52,0-1.06,0-1.56,0-1.87.12-3.59.24-5.1.07-.87.15-1.64.24-2.37.72-.49,3.58-2.52,4.46-4s1.56-3.44.92-5.07a2.93,2.93,0,0,0-4-1.66c-2.2,1.14-2.78,5.57-2.41,7.75,0,.19.86,3.08.9,3.05l0,0c-.1.7-.19,1.45-.28,2.27-.15,1.52-.31,3.23-.35,5.11a52.56,52.56,0,0,0,.14,6.07,37.24,37.24,0,0,0,1.13,6.7.19.19,0,0,0,0,.08c-.39-.61-1.53-2.28-1.64-2.4-1.44-1.68-5.22-4.06-7.5-3.09a2.93,2.93,0,0,0-1.3,4.16C34,368.32,36,369.07,37.66,369.31Z" style="fill:#263238"></path><path d="M80.12,357.68s.79-2.89.81-3.08c.31-2.19-.39-6.6-2.62-7.67a2.93,2.93,0,0,0-4,1.76c-.59,1.64.16,3.66,1.06,5.05C76.43,355.36,80.11,357.68,80.12,357.68Z" style="fill:#263238"></path><polygon points="75.29 410.43 48.62 410.43 51.28 453.09 72.63 453.09 75.29 410.43" style="fill:#263238"></polygon></g><g id="freepik--Character--inject-32"><path d="M164.44,425.55s-6.87,5-5.33,7.22,10.81,7.72,13.68,11,9,6.61,15,7.71,13.23,2,12.79-2.2-7.72-5.51-9.7-7.94-4.92-8.82-4.92-8.82l-18.24-10.81Z" style="fill:#fff;stroke:#263238;stroke-linecap:round;stroke-miterlimit:10"></path><path d="M240.74,304s-3.69,59.73-5.3,67.8S186,432.55,186,432.55s-9.68.53-12.91-1.08a67.65,67.65,0,0,1-8.61-5.92s7-9.68,9.15-11.29,7.53-4.3,9.14-5.38,12.37-22.59,12.37-22.59l5.69-78.69Z" style="fill:#263238;stroke:#263238;stroke-linecap:round;stroke-miterlimit:10"></path><path d="M222.89,433.75l4.85,8.16c.66,1.1,13.45,7.27,13.45,8.6s-1.76,3.31-2.86,3.75-17,.66-21.84,0-8.38-2.43-11.91-3.31-6,.22-6.18-3.75,1.68-11.7,1.68-11.7,1.85.23,8-1.75S222.89,433.75,222.89,433.75Z" style="fill:#fff;stroke:#263238;stroke-linecap:round;stroke-miterlimit:10"></path><path d="M187.8,308.28s5.28,64.29,8,69.14,5.92,50,5.92,50-5.12,5-2.43,7.67.21,3.43.21,3.43,8.14-1.95,10.83-3,13.4-.8,13.4-.8,3.27-6.19,3.81-10.49-2.69-18.29-2.69-19.9S227,328.47,227,328.47l13.16-16Z" style="fill:#263238;stroke:#263238;stroke-linecap:round;stroke-miterlimit:10"></path><path d="M217.8,191.19l-.64,5.74A79.15,79.15,0,0,1,199,198.52c-9.89-.32-11.19,4-11.19,4s-28.69,40.83-27.41,44,11.8,6.22,11.8,6.22l17.55-15.31-1.92,70.83s5.43,6.7,21.38,7.34,29-1.91,30.95-3.19,5.11-61.9,5.11-61.9l11.26-.12s-2-27.32-3.29-34.66-5.74-10.84-13.08-13.4-9.89-5.42-9.89-5.42l-6.06-8A9.53,9.53,0,0,0,217.8,191.19Z" style="fill:#fff;stroke:#263238;stroke-linecap:round;stroke-miterlimit:10"></path><path d="M209.18,315.62c16,.64,29-1.91,30.95-3.19s5.11-61.9,5.11-61.9l14.36.76s-5.11-28.2-6.39-35.54-5.74-10.84-13.08-13.4-9.89-5.42-9.89-5.42l-6.06-8a9.53,9.53,0,0,0-6.38,2.24l-.64,5.74A79.15,79.15,0,0,1,199,198.52c-9.89-.32-11.19,4-11.19,4S173.38,216.8,167,228.88l16.47,14.06,6.29-5.49-1.92,70.83S193.23,315,209.18,315.62Z" style="fill:#a3a3a3;stroke:#263238;stroke-linecap:round;stroke-miterlimit:10"></path><path d="M248.39,292.6c8.23-8.22,9.49-21.09,9.49-21.09l-1.4-20.28-11.24-.7-.72,18.24a26.23,26.23,0,0,0-2.06,11.3,29.4,29.4,0,0,1-.5,8l-.08,0s-3.09,6.1-3.38,7.16,5.41,3.48,7,3.87,3.78.39,3.87-1,1.59-1.68.29-3A3.58,3.58,0,0,1,248.39,292.6Z" style="fill:#fff;stroke:#263238;stroke-linecap:round;stroke-miterlimit:10"></path><path d="M245.86,267.88s5.86-2.54,9.82.79" style="fill:none;stroke:#263238;stroke-linecap:round;stroke-miterlimit:10"></path><path d="M248.39,292.6a3.71,3.71,0,0,0-3.6-.81" style="fill:none;stroke:#263238;stroke-linecap:round;stroke-miterlimit:10"></path><path d="M241.82,286.13c2.64-1.5,7.17-.75,9.08,1.13a7.79,7.79,0,0,1,0,10.5c-2,2.12-4.88,2.88-7.51,1.25s-4.37-2-4.5-4.63a14.12,14.12,0,0,1,1.3-6.59A3.83,3.83,0,0,1,241.82,286.13Z" style="fill:#92E3A9;stroke:#263238;stroke-linecap:round;stroke-miterlimit:10"></path><polyline points="200.43 225.72 189.72 237.45 200.43 232.31" style="fill:none;stroke:#263238;stroke-linecap:round;stroke-miterlimit:10"></polyline><line x1="244.86" y1="247.18" x2="245.24" y2="227.82" style="fill:#a3a3a3;stroke:#263238;stroke-linecap:round;stroke-miterlimit:10"></line><path d="M244.89,230.75c0,2.29-2.5,4.14-5.59,4.14s-5.58-1.85-5.58-4.14,2.5-4.14,5.58-4.14S244.89,228.47,244.89,230.75Z" style="fill:#92E3A9;stroke:#263238;stroke-linecap:round;stroke-miterlimit:10"></path><path d="M242.17,230.75c0,1.17-1.29,2.12-2.87,2.12s-2.86-1-2.86-2.12,1.28-2.12,2.86-2.12S242.17,229.58,242.17,230.75Z" style="fill:#fff;stroke:#263238;stroke-linecap:round;stroke-miterlimit:10"></path><polygon points="286.96 336.76 346.78 342.27 345.76 438.4 285.09 340.03 286.96 336.76" style="fill:#fff;stroke:#263238;stroke-linecap:round;stroke-miterlimit:10"></polygon><line x1="314.1" y1="373.4" x2="316.29" y2="376.26" style="fill:none;stroke:#263238;stroke-linecap:round;stroke-miterlimit:10"></line><line x1="291.06" y1="343.42" x2="311.49" y2="370.01" style="fill:none;stroke:#263238;stroke-linecap:round;stroke-miterlimit:10"></line><line x1="296.24" y1="342.04" x2="309.38" y2="344.46" style="fill:none;stroke:#263238;stroke-linecap:round;stroke-miterlimit:10"></line><line x1="321.89" y1="361.29" x2="325.28" y2="363.47" style="fill:none;stroke:#263238;stroke-linecap:round;stroke-miterlimit:10"></line><line x1="301.08" y1="347.92" x2="320.12" y2="360.16" style="fill:none;stroke:#263238;stroke-linecap:round;stroke-miterlimit:10"></line><line x1="281.65" y1="333.25" x2="287.11" y2="338.58" style="fill:none;stroke:#263238;stroke-linecap:round;stroke-miterlimit:10;stroke-width:5px"></line><line x1="222.75" y1="275.67" x2="281.65" y2="333.25" style="fill:none;stroke:#263238;stroke-linecap:round;stroke-miterlimit:10;stroke-width:3px"></line><path d="M193.46,272.79s-14.41-.48-15.85,16.81,17.22,136-18.94,163.46c-32.75,24.85-64.87,20.79-85.54,11.21-16.85-7.82,35.27-12.93,59.19-6.69,17.32,4.52-17.53,14.9-52.11,15-39.74.09-60.53-14-70.61-15" style="fill:none;stroke:#263238;stroke-linecap:round;stroke-miterlimit:10;stroke-width:3px"></path><path d="M202.48,275.1l9.23-2.79,8.13,6.91a2.09,2.09,0,0,0,2.84-.12l4.38-4.38a2.09,2.09,0,0,0,0-3c-2.87-2.88-9.53-9-15.36-10.5-7.69-1.92-14.89,3.36-14.89,3.36Z" style="fill:#263238;stroke:#263238;stroke-linecap:round;stroke-miterlimit:10"></path><path d="M170.26,241l25.52,19.78s4.79,1.28,6.38,2.87,8,6.7,6.06,8.62.32,1.27-1.91,1.91-3.83,1-3.83,1-5.42,2.23-8.61,1.91-8.3-7.65-8.3-9.25-26.16-16.27-27.12-18.19,8-14.35,8-14.35" style="fill:#fff;stroke:#263238;stroke-linecap:round;stroke-miterlimit:10"></path><path d="M187,250.7l-11.08,12.5,9.65,4.56s2,5.1,4.28,7.66,2.27,3.41,4.54,3.41,10-2.56,10-2.56.58.55,4-1.7,1.71-3.7.29-6-8.53-7.39-10.51-8.81-2.85-2.27-3.7-2.84S187,250.7,187,250.7Z" style="fill:#92E3A9;stroke:#263238;stroke-linecap:round;stroke-miterlimit:10"></path><path d="M240.13,202.35c-7.34-2.55-9.89-5.42-9.89-5.42l-6.06-8a9.53,9.53,0,0,0-6.38,2.24l-.64,5.74s-.68.15-1.84.36c1.49,3.19,7.13,16,15.56,16.23,6,.19,9.76-5.6,11.8-10.19C241.87,203,241,202.66,240.13,202.35Z" style="fill:#fff;stroke:#263238;stroke-linecap:round;stroke-miterlimit:10"></path><path d="M247.47,189.27l-2.87,8.62-3.51-1s-1,7.66-2.87,8.61-3.83,1.28-7.66-1.59-7.66-6.38-7.66-9.57,1.92-15,3.83-17.55S247.47,189.27,247.47,189.27Z" style="fill:#fff;stroke:#263238;stroke-linecap:round;stroke-miterlimit:10"></path><path d="M240.92,190.4c-.16.94-.71,1.64-1.24,1.55s-.83-.93-.67-1.87.71-1.65,1.24-1.56S241.08,189.45,240.92,190.4Z" style="fill:#263238"></path><path d="M234.07,180.34s-1.28,3.83-4.79,4.15-5.74-4.47-5.74-4.47l-.64,14.36-5.1-3.19s.95-12.13,2.23-15.64,6.38-5.1,6.38-5.1S231.84,176.51,234.07,180.34Z" style="fill:#263238;stroke:#263238;stroke-linecap:round;stroke-miterlimit:10"></path><path d="M224.18,189c-5.43-1-4.15-8-.64-8.93s2.23,4.78,2.23,4.78" style="fill:#fff;stroke:#263238;stroke-linecap:round;stroke-miterlimit:10"></path><path d="M220,175.55l16.27,8.62a23.42,23.42,0,0,0,8.62,1.91,21.81,21.81,0,0,0,7-1l2.22-9.6a6.34,6.34,0,0,0-1-5.07,38.13,38.13,0,0,0-8.22-8.68c-6.06-4.46-15.27-1.33-20.37,1.54S220,175.55,220,175.55Z" style="fill:#92E3A9;stroke:#263238;stroke-linecap:round;stroke-miterlimit:10"></path><path d="M251.84,176.82c-.41,2.25-3.2,3.62-6.23,3.07s-5.16-2.83-4.75-5.08,3.2-3.62,6.23-3.07S252.25,174.57,251.84,176.82Z" style="fill:#92E3A9;stroke:#263238;stroke-linecap:round;stroke-miterlimit:10"></path><path d="M249.16,176.33c-.21,1.15-1.64,1.86-3.19,1.57s-2.65-1.44-2.44-2.6,1.64-1.86,3.2-1.57S249.38,175.18,249.16,176.33Z" style="fill:#fff;stroke:#263238;stroke-linecap:round;stroke-miterlimit:10"></path><path d="M233.75,183.21a48.11,48.11,0,0,1,11.49-1c5.74.32,10.83,5.42,10.83,5.42s5,5.06,4.66,6-7.52-.58-12.3-.9S233.75,183.21,233.75,183.21Z" style="fill:#92E3A9;stroke:#263238;stroke-linecap:round;stroke-miterlimit:10"></path><path d="M234.87,195.49a5.6,5.6,0,0,0,4.47,3.89" style="fill:none;stroke:#263238;stroke-linecap:round;stroke-miterlimit:10"></path><polygon points="233.43 205.99 232.73 211.56 238.22 205.54 233.43 205.99" style="fill:#263238"></polygon><path d="M239.52,293.56s-3,4.59-1.27,6.18c1.18,1.08,5,3,7.34,4.06a2.72,2.72,0,0,0,3.24-.71,10.39,10.39,0,0,0,1.94-2.88c.32-1.27-2.7-4.12-2.7-4.12l-1.26.48s-4.76-4.92-5.71-4.76S239.52,293.56,239.52,293.56Z" style="fill:#92E3A9;stroke:#263238;stroke-linecap:round;stroke-miterlimit:10"></path><path d="M248.32,293.76s-2.12,2.52-1.27,3.19,3.57,3.45,4.08,2.94,2.3-1.4,1.28-2.68S249.73,293.64,248.32,293.76Z" style="fill:#92E3A9;stroke:#263238;stroke-linecap:round;stroke-miterlimit:10"></path></g><g id="freepik--Car--inject-32"><path d="M593.09,359V416H370.55V359H328.71v83.2A11.68,11.68,0,0,0,340.4,453.9h18.46a11.69,11.69,0,0,0,11.69-11.68v-3.84h20.27l9.49-6H562.47l12.08,6.9h18.54v3a11.69,11.69,0,0,0,11.69,11.68h18.46a11.68,11.68,0,0,0,11.69-11.68V359Z" style="fill:#263238;stroke:#263238;stroke-linecap:round;stroke-miterlimit:10"></path><path d="M626.3,318.05c-1.72-3.46-15.52-17.69-15.52-17.69s-26.25-50.06-30.62-58.22c-8.3-15.48-22-12.94-22-12.94l-76.77-3.88-.43.12-.43-.12-76.77,3.88s-14.06-1.44-22,12.94c-4.48,8.1-30.62,58.22-30.62,58.22s-13.8,14.23-15.53,17.69S327,334.43,327,337c0,2.31,1.71,41.53,9.39,70.81a20.55,20.55,0,0,0,13.06,14.06,25.63,25.63,0,0,0,4.72,1.39h56.07l14.23-24.58a30,30,0,0,1,19.41-6.9h74.18a30,30,0,0,1,19.41,6.9l14.23,24.58h56.07a25.39,25.39,0,0,0,4.71-1.39,20.54,20.54,0,0,0,13.07-14.06c7.68-29.28,9.39-68.5,9.39-70.81C634.93,334.43,628,321.5,626.3,318.05Z" style="fill:#92E3A9;stroke:#263238;stroke-linecap:round;stroke-miterlimit:10"></path><path d="M410.23,423.28l-3,6.9H553.85l-2.16-6.9L537.46,398.7s-5.61-6.47-19.41-6.9-74.18,0-74.18,0a28.68,28.68,0,0,0-19.41,6.9Z" style="fill:#787878;stroke:#263238;stroke-linecap:round;stroke-miterlimit:10"></path><path d="M422.73,341.34s11.65,20.7,15.1,24.15,7.33,3.45,12.08,3.88,69.86,0,69.86,0,5.18-.86,7.77-4.74,11.21-23.29,11.21-23.29Z" style="fill:#263238;stroke:#263238;stroke-linecap:round;stroke-miterlimit:10"></path><path d="M434.29,344.15s9.32,16.57,12.09,19.34,5.87,2.76,9.67,3.11,55.95,0,55.95,0,4.15-.69,6.22-3.8,9-18.65,9-18.65Z" style="fill:#787878;stroke:#263238;stroke-linecap:round;stroke-miterlimit:10"></path><path d="M529.4,416l-2.58-7.13a11.22,11.22,0,0,0-10.75-7.38l-70.05.71a11.2,11.2,0,0,0-10.56,8.19L433.72,416Z" style="fill:#263238;stroke:#263238;stroke-linecap:round;stroke-miterlimit:10"></path><polygon points="432.64 419.4 430.5 426.3 533.14 426.3 530.65 419.4 432.64 419.4" style="fill:#263238;stroke:#263238;stroke-linecap:round;stroke-miterlimit:10"></polygon><path d="M610.78,300.36s2.15-16.82,6-16.82,21.13,4.75,21.56,8.2-3.45,7.33-6.9,8.19-10.78,1.73-10.78,1.73L619,308.13Z" style="fill:#92E3A9;stroke:#263238;stroke-linecap:round;stroke-miterlimit:10"></path><path d="M351.14,300.36s-2.16-16.82-6-16.82-21.13,4.75-21.56,8.2,3.45,7.33,6.9,8.19,10.78,1.73,10.78,1.73l1.72,6.47Z" style="fill:#92E3A9;stroke:#263238;stroke-linecap:round;stroke-miterlimit:10"></path><path d="M362.78,290.44s168.21-6.47,235.06,0L568.51,237s-75.91-9.49-174.67.43C393.84,237.39,373.57,269.31,362.78,290.44Z" style="fill:#fff;stroke:#263238;stroke-linecap:round;stroke-miterlimit:10"></path><path d="M401.17,339.18s7.76,8.19,10.35,23.29c0,0-36.66-1.73-50.89-7.33s-16-6-16.39-8.63.86-21.13,6.47-24.15,11.64-2.16,17.25,2.15,12.51,10.79,16.39,12.08S401.17,339.18,401.17,339.18Z" style="fill:#fff;stroke:#263238;stroke-linecap:round;stroke-miterlimit:10"></path><circle cx="365.94" cy="340.43" r="10.11" transform="translate(-133.54 358.47) rotate(-45)" style="fill:#fff;stroke:#263238;stroke-linecap:round;stroke-miterlimit:10"></circle><path d="M394.1,353.07a4.7,4.7,0,1,1-4.69-4.7A4.69,4.69,0,0,1,394.1,353.07Z" style="fill:#fff;stroke:#263238;stroke-linecap:round;stroke-miterlimit:10"></path><path d="M562,339.18s-7.77,8.19-10.36,23.29c0,0,36.66-1.73,50.9-7.33s16-6,16.39-8.63-.87-21.13-6.47-24.15-11.65-2.16-17.26,2.15-12.5,10.79-16.38,12.08S562,339.18,562,339.18Z" style="fill:#fff;stroke:#263238;stroke-linecap:round;stroke-miterlimit:10"></path><circle cx="599.52" cy="340.43" r="10.11" transform="translate(-62.38 147.53) rotate(-13.34)" style="fill:#fff;stroke:#263238;stroke-linecap:round;stroke-miterlimit:10"></circle><path d="M571.36,353.07a4.7,4.7,0,1,0,4.69-4.7A4.69,4.69,0,0,0,571.36,353.07Z" style="fill:#fff;stroke:#263238;stroke-linecap:round;stroke-miterlimit:10"></path><path d="M608.19,377.56s-40.11,7.77-41.84,9.06-5.17,8.63-5.17,8.63l8.19-2.16s19,.86,25.45-2.16S608.19,377.56,608.19,377.56Z" style="fill:#263238;stroke:#263238;stroke-linecap:round;stroke-miterlimit:10"></path><path d="M356.75,377.56s40.11,7.77,41.83,9.06,5.18,8.63,5.18,8.63l-8.2-2.16s-19,.86-25.44-2.16S356.75,377.56,356.75,377.56Z" style="fill:#263238;stroke:#263238;stroke-linecap:round;stroke-miterlimit:10"></path><polyline points="557.92 345.82 547.21 342.25 538.75 342.25" style="fill:none;stroke:#263238;stroke-linecap:round;stroke-miterlimit:10"></polyline><polyline points="405.92 345.31 413.06 341.23 422.73 341.33" style="fill:none;stroke:#263238;stroke-linecap:round;stroke-miterlimit:10"></polyline><path d="M588.28,297.58c1.09-.62,2.19-1.21,3.3-1.75" style="fill:none;stroke:#263238;stroke-linecap:round;stroke-miterlimit:10"></path><path d="M540.8,358.81c6.75-14.84,22.18-44.34,43.74-58.9" style="fill:none;stroke:#263238;stroke-linecap:round;stroke-miterlimit:10"></path><path d="M537,367.75s.53-1.41,1.56-3.86" style="fill:none;stroke:#263238;stroke-linecap:round;stroke-miterlimit:10"></path><path d="M377.31,299.91q-2.69-1.64-5.56-3.06" style="fill:none;stroke:#263238;stroke-linecap:round;stroke-miterlimit:10"></path><path d="M420.51,359.13c-4.42-13.2-15.93-40.51-39.4-56.76" style="fill:none;stroke:#263238;stroke-linecap:round;stroke-miterlimit:10"></path><path d="M422.75,366.73s-.31-1.37-1-3.75" style="fill:none;stroke:#263238;stroke-linecap:round;stroke-miterlimit:10"></path><path d="M359.51,320.82s-4.59-11.22-4.59-17.85" style="fill:#fff;stroke:#263238;stroke-linecap:round;stroke-miterlimit:10"></path><path d="M604.84,320.31A89.11,89.11,0,0,0,607.39,306" style="fill:#fff;stroke:#263238;stroke-linecap:round;stroke-miterlimit:10"></path><path d="M620.66,368.26,617.6,408,561,410.59s-9.69-11.73-10.2-16.83,6.63-12.75,8.67-13.26,37.74-7.65,37.74-7.65" style="fill:none;stroke:#263238;stroke-linecap:round;stroke-miterlimit:10"></path><path d="M343.67,368.26,346.73,408l56.62,2.55s9.69-11.73,10.2-16.83-6.63-12.75-8.67-13.26-37.75-7.65-37.75-7.65" style="fill:none;stroke:#263238;stroke-linecap:round;stroke-miterlimit:10"></path><path d="M438.32,351l41.62,3.33a33.62,33.62,0,0,0,5.31,0l38.36-3" style="fill:none;stroke:#263238;stroke-linecap:round;stroke-miterlimit:10"></path><path d="M441.06,355.3l38.88,3.11a32.47,32.47,0,0,0,5.31,0l37-2.87" style="fill:none;stroke:#263238;stroke-linecap:round;stroke-miterlimit:10"></path><path d="M443.85,359.66l36.09,2.89a34.86,34.86,0,0,0,5.31,0l35.15-2.73" style="fill:none;stroke:#263238;stroke-linecap:round;stroke-miterlimit:10"></path><path d="M467.7,264.14c-19.29,11.34-72,21.44-99.25,26.1,29.86-1.06,169.84-5.56,229.39.2l-26.26-47.89C533.4,240,487.49,252.5,467.7,264.14Z" style="fill:#787878"></path><path d="M362.78,290.44s168.21-6.47,235.06,0L568.51,237s-75.91-9.49-174.67.43C393.84,237.39,373.57,269.31,362.78,290.44Z" style="fill:none;stroke:#263238;stroke-linecap:round;stroke-miterlimit:10"></path><path d="M415.26,297.08s1,2.95,8.86,10.34,14.28-2.95,22.66-7.39-1.48-8.37,28.56,13.3,43.33,26.1,55.15,13.29,28.56-32,36.44-27.57,12.81,12.8,19.7,12.8,15.76-13.79,15.76-13.79" style="fill:none;stroke:#fff;stroke-linecap:round;stroke-miterlimit:10"></path><path d="M415.26,299.54s1,3,8.86,10.34,14.28-2.95,22.66-7.38-1.48-8.38,28.56,13.29,43.33,26.1,55.15,13.3,28.56-32,36.44-27.58,12.81,12.8,19.7,12.8,15.76-13.78,15.76-13.78" style="fill:none;stroke:#263238;stroke-linecap:round;stroke-miterlimit:10"></path><path d="M349.74,310.61s-15.59,14.85-15.22,26.73,11.14,13.74,13,22.28,20.42,14.11,38.61,9.28,26,0,31.56,10S432.53,389.69,440,386" style="fill:none;stroke:#263238;stroke-linecap:round;stroke-miterlimit:10"></path><path d="M351.6,308.75s-15.6,14.86-15.22,26.74,11.13,13.73,13,22.27S369.79,371.87,388,367s26,0,31.56,10,14.85,10.76,22.27,7.05" style="fill:none;stroke:#fff;stroke-linecap:round;stroke-miterlimit:10"></path><path d="M623.36,328.8s-3.34,26-13.36,30.82-51.24,8.54-60.89,15.22-10,21.16-10,21.16" style="fill:none;stroke:#fff;stroke-linecap:round;stroke-miterlimit:10"></path><path d="M623.36,331S620,357,610,361.85s-51.24,8.53-60.89,15.22-10,21.16-10,21.16" style="fill:none;stroke:#263238;stroke-linecap:round;stroke-miterlimit:10"></path><path d="M489.72,234.44s5.9-1,9.37,8.32,9.71,31.92,20.12,32.26,12.14-20.12,18-28.44,17-6.59,23.58-1" style="fill:none;stroke:#fff;stroke-linecap:round;stroke-miterlimit:10"></path><path d="M489.37,236.52s5.9-1,9.37,8.32,9.71,31.92,20.12,32.26S531,257,536.9,248.66s17-6.59,23.59-1" style="fill:none;stroke:#263238;stroke-linecap:round;stroke-miterlimit:10"></path><path d="M361.71,307.89s4.54,3.18,10.45,10.45,8.17,3.63,10.9-1.82,9.08,6.36,14.53,14.54,6.82,9.54,7.73,5" style="fill:none;stroke:#fff;stroke-linecap:round;stroke-miterlimit:10"></path><path d="M361.53,309.68s4.54,3.18,10.45,10.44,8.17,3.64,10.9-1.81,9.08,6.36,14.54,14.53,6.81,9.54,7.72,5" style="fill:none;stroke:#263238;stroke-linecap:round;stroke-miterlimit:10"></path></g></svg>