<svg xmlns="http://www.w3.org/2000/svg" viewBox="0 0 500 500"><g id="freepik--background-simple--inject-47"><path d="M471.36,285.21c-13,39.47-41.08,82.73-82.36,96.81-62.38,21.28-68,72.44-181.17,72.09a228,228,0,0,1-49.16-5.28,189.75,189.75,0,0,1-23.27-6.75c-67.07-24.2-103.79-81.73-109-143.21-6.91-80.87,48.12-121.66,84-145.69S187.1,39.83,298.4,39.3a221.36,221.36,0,0,1,50.53,5.4c37.79,8.68,76.68,29.6,100,61.47q2.63,3.6,5,7.36C485.52,162.55,489.12,231.4,471.36,285.21Z" style="fill:#92E3A9"></path><path d="M471.36,285.21c-13,39.47-41.08,82.73-82.36,96.81-62.38,21.28-68,72.44-181.17,72.09a228,228,0,0,1-49.16-5.28,189.75,189.75,0,0,1-23.27-6.75c-67.07-24.2-103.79-81.73-109-143.21-6.91-80.87,48.12-121.66,84-145.69S187.1,39.83,298.4,39.3a221.36,221.36,0,0,1,50.53,5.4c37.79,8.68,76.68,29.6,100,61.47q2.63,3.6,5,7.36C485.52,162.55,489.12,231.4,471.36,285.21Z" style="fill:#fff;opacity:0.8"></path></g><g id="freepik--Mountains--inject-47"><path d="M473.62,351.3c-3.8-3.49-93.08-85.62-99.15-88.32-2-.9-11,2.47-22.27,7.51-12,5-31.13,13.91-59.38,29.39-6-4.85-83.32-67.06-91.49-69.24h-.2c-9.52-1.14-155,88.51-161.21,92.35a.5.5,0,0,0,.53.85l8.84-5.44a.53.53,0,0,0,.45.11l28.56-7.62L50.61,339.2a.5.5,0,0,0-.06.64.52.52,0,0,0,.41.21.5.5,0,0,0,.21-.05L187.9,276a.5.5,0,0,0-.28-.94l-37.51,5.82,51.19-49.22c9.16,3.13,90.15,68.39,91.15,69.2l22.21,19.52a.54.54,0,0,0,.33.12.53.53,0,0,0,.3-.09l41.43-30.91-2.48,14.25a.5.5,0,0,0,.94.31l19.31-39.94c8.86,5.5,97.54,87.07,98.45,87.91a.51.51,0,0,0,.71,0A.51.51,0,0,0,473.62,351.3Z" style="opacity:0.30000000000000004"></path></g><g id="freepik--Clouds--inject-47"><g style="opacity:0.30000000000000004"><path d="M119.9,240.67c-2.47-11.1-15.26-19.37-26.4-17.78a13.89,13.89,0,0,0-7.57,3.35c-2.85,2.62-2.17,5.6-3.58,8.84A3.07,3.07,0,0,1,80.22,237c-2.77.47-5-2.29-7.81-2.31a7.53,7.53,0,0,0-6,3c-1.09,1.68-.34,4.63-2.3,5.75-2.19,1.25-4.86-1.13-7.23-.27-3,1.07-1.61,3.22-2.68,4.56s-3.22.8-6.17.53-5.36,3.22-5.36,3.22h93s.8-1.34-2.68-6.7-8.31-1.61-10.46-1.61S119.9,240.67,119.9,240.67Z" style="fill:none;stroke:#000;stroke-miterlimit:10"></path><path d="M300.29,62.16c-3.88-17.46-24-30.47-41.55-28a22,22,0,0,0-11.91,5.28c-4.48,4.12-3.42,8.8-5.64,13.91a4.76,4.76,0,0,1-3.34,2.94c-4.36.74-7.87-3.6-12.29-3.64-3.3,0-7.53,1.8-9.37,4.66-1.71,2.65-.52,7.29-3.61,9-3.45,2-7.65-1.78-11.38-.42-4.64,1.68-2.53,5.06-4.22,7.17s-5.06,1.26-9.7.84S178.85,79,178.85,79H325.17s1.27-2.11-4.22-10.54S307.88,66,304.51,66,300.29,62.17,300.29,62.16Z" style="fill:none;stroke:#000;stroke-miterlimit:10"></path><path d="M445,191.48c-2.47-11.09-15.26-19.36-26.41-17.78a14,14,0,0,0-7.57,3.36c-2.84,2.62-2.17,5.59-3.58,8.84a3,3,0,0,1-2.12,1.86c-2.77.48-5-2.29-7.82-2.31a7.6,7.6,0,0,0-5.95,3c-1.09,1.69-.33,4.63-2.29,5.75-2.2,1.26-4.86-1.13-7.24-.26-2.95,1.07-1.61,3.21-2.68,4.55s-3.21.81-6.16.54-5.36,3.21-5.36,3.21h93s.8-1.34-2.68-6.7-8.31-1.6-10.45-1.6S445,191.49,445,191.48Z" style="fill:none;stroke:#000;stroke-miterlimit:10"></path></g></g><g id="freepik--Trees--inject-47"><path d="M140.34,52.75c-55.57,0-100.63,44.75-100.63,99.94A99.17,99.17,0,0,0,65.33,219.3a77,77,0,0,1,35.25,3.21,96.63,96.63,0,0,1,34.23,20h9a96.63,96.63,0,0,1,34.23-20,76.81,76.81,0,0,1,37-2.92A99.19,99.19,0,0,0,241,152.69C241,97.5,195.92,52.75,140.34,52.75Z" style="fill:#92E3A9"></path><path d="M140.34,52.75c-55.57,0-100.63,44.75-100.63,99.94A99.17,99.17,0,0,0,65.33,219.3a77,77,0,0,1,35.25,3.21,96.63,96.63,0,0,1,34.23,20h9a96.63,96.63,0,0,1,34.23-20,76.81,76.81,0,0,1,37-2.92A99.19,99.19,0,0,0,241,152.69C241,97.5,195.92,52.75,140.34,52.75Z" style="fill:#fff;opacity:0.5"></path><path d="M187.18,192.78q-4.63,2.25-9.19,4.66a91.34,91.34,0,0,0-8.79,5.43c-1,.72-2.08,1.48-3.11,2.23l16.48-30.71L160,209.81q-3.44,2.77-6.75,5.65c-3.65,3.18-7.2,6.42-10.68,9.76l-1.15-33.32,23.66-36-23.84,31-1-29.81-1.7,33.36h0l-1.71,33.44c-3-2.86-6.09-5.66-9.25-8.4-2.48-2.16-5-4.28-7.59-6.33l-21.4-36.55,15.72,32.24c-.91-.66-1.8-1.32-2.72-1.95a90.28,90.28,0,0,0-8.8-5.43q-4.53-2.41-9.19-4.66a191.24,191.24,0,0,0-19-8.06,185.67,185.67,0,0,1,18.35,9.16q4.44,2.51,8.77,5.16a87.47,87.47,0,0,1,8.15,5.79,176,176,0,0,1,14.77,13.28c4.1,4.07,8.09,8.28,11.89,12.55l-2.17,188.65h9.92l-1.41-186.93c4.25-4.86,8.77-9.65,13.42-14.27A179.21,179.21,0,0,1,171,204.83,88.81,88.81,0,0,1,179.1,199q4.32-2.65,8.77-5.16a186.77,186.77,0,0,1,18.35-9.16A192.25,192.25,0,0,0,187.18,192.78Z" style="fill:#7d7d7d;stroke:#7d7d7d;stroke-miterlimit:10"></path><path d="M342.88,100.42c-48.35,0-87.54,38.92-87.54,86.94a86.3,86.3,0,0,0,22.28,57.95,66.81,66.81,0,0,1,30.67,2.8,83.84,83.84,0,0,1,29.77,17.39h7.85a83.84,83.84,0,0,1,29.77-17.39,66.74,66.74,0,0,1,32.23-2.55,86.28,86.28,0,0,0,22.51-58.2C430.42,139.34,391.23,100.42,342.88,100.42Z" style="fill:#92E3A9"></path><path d="M342.88,100.42c-48.35,0-87.54,38.92-87.54,86.94a86.3,86.3,0,0,0,22.28,57.95,66.81,66.81,0,0,1,30.67,2.8,83.84,83.84,0,0,1,29.77,17.39h7.85a83.84,83.84,0,0,1,29.77-17.39,66.74,66.74,0,0,1,32.23-2.55,86.28,86.28,0,0,0,22.51-58.2C430.42,139.34,391.23,100.42,342.88,100.42Z" style="fill:#fff;opacity:0.5"></path><path d="M383.63,222.24q-4,1.95-8,4A79.27,79.27,0,0,0,368,231q-1.37,1-2.7,2l14.34-26.72-19.68,30.82q-3,2.4-5.87,4.91c-3.18,2.76-6.27,5.58-9.3,8.49l-1-29,20.59-31.34-20.74,27-.89-25.94-1.48,29h0l-1.49,29.09c-2.63-2.49-5.3-4.92-8-7.3q-3.24-2.82-6.61-5.51l-18.62-31.79,13.68,28c-.79-.57-1.57-1.14-2.37-1.7a78.06,78.06,0,0,0-7.65-4.72q-3.94-2.1-8-4a165.5,165.5,0,0,0-16.57-7,161.59,161.59,0,0,1,16,8q3.85,2.17,7.63,4.5a76.91,76.91,0,0,1,7.09,5,155,155,0,0,1,12.85,11.56c3.56,3.53,7,7.2,10.33,10.91l-1.88,164.12h8.63L345,256.69c3.69-4.23,7.62-8.4,11.67-12.41a153.42,153.42,0,0,1,12.85-11.56,74.29,74.29,0,0,1,7.09-5q3.75-2.33,7.63-4.5a161.42,161.42,0,0,1,16-8A165.33,165.33,0,0,0,383.63,222.24Z" style="fill:#7d7d7d;stroke:#7d7d7d;stroke-miterlimit:10"></path></g><g id="freepik--Fence--inject-47"><rect x="29.6" y="343.2" width="451.57" height="12.8" style="fill:#ababab"></rect><rect x="29.6" y="378.9" width="451.57" height="12.8" style="fill:#ababab"></rect><rect x="66.08" y="329.05" width="15.81" height="90.26" style="fill:#ababab"></rect><rect x="187.01" y="329.05" width="15.81" height="90.26" style="fill:#ababab"></rect><rect x="307.95" y="329.05" width="15.81" height="90.26" style="fill:#ababab"></rect><rect x="428.88" y="329.05" width="15.81" height="90.26" style="fill:#ababab"></rect></g><g id="freepik--Plants--inject-47"><path d="M439.21,387a12.68,12.68,0,0,0,3.74.42s-.57-1.74-.62-1.85c-.58-1.22-2.42-3.23-3.92-3A1.8,1.8,0,0,0,437,384.8,3.71,3.71,0,0,0,439.21,387Z" style="fill:#263238"></path><path d="M440.13,394.7a12.51,12.51,0,0,0,3.68-.57,31.65,31.65,0,0,0,1.44,4c.32.76.68,1.51,1,2.25-.22-.31-.41-.59-.45-.63-.88-1-3.19-2.48-4.58-1.88a1.78,1.78,0,0,0-.79,2.54,3.69,3.69,0,0,0,2.74,1.54,11.51,11.51,0,0,0,3.58-.55c.14.29.28.58.43.86.68,1.37,1.37,2.73,2,4.08q.33.72.63,1.44c-.19-.28-.35-.52-.38-.55-.89-1-3.19-2.48-4.59-1.89a1.8,1.8,0,0,0-.79,2.55,3.74,3.74,0,0,0,2.74,1.54,11.39,11.39,0,0,0,3.49-.52c.19.49.39,1,.56,1.48.11.34.23.65.32,1s.19.67.28,1c.16.65.32,1.32.46,1.95.09.44.18.86.26,1.29-.21-.48-.66-1.41-.71-1.48-.72-1.14-2.78-2.93-4.24-2.56a1.79,1.79,0,0,0-1.17,2.4,3.74,3.74,0,0,0,2.48,1.94,12.37,12.37,0,0,0,3.7,0c.15.7.28,1.39.39,2,.08.48.16.94.23,1.39h.94c-.09-.5-.18-1-.29-1.55-.14-.71-.3-1.48-.48-2.25a19.12,19.12,0,0,0,2.07-1,13.35,13.35,0,0,0,3,2c-.27.66-.54,1.3-.8,1.91-.14.32-.27.62-.41.92h1l.24-.57c.27-.68.56-1.4.84-2.15a12.42,12.42,0,0,0,3.7.29,3.78,3.78,0,0,0,2.62-1.75,1.8,1.8,0,0,0-1-2.48c-1.44-.48-3.63,1.15-4.43,2.24-.05.06-.48.81-.75,1.29.12-.3.23-.6.34-.91.23-.63.44-1.26.67-1.93l.3-1c.11-.33.18-.69.27-1,.2-.82.35-1.66.49-2.51a11.79,11.79,0,0,0,3.51.81,3.75,3.75,0,0,0,2.86-1.34,1.8,1.8,0,0,0-.61-2.6c-1.34-.69-3.75.59-4.71,1.54-.06.06-.67.82-1,1.25.08-.51.17-1,.23-1.54.19-1.5.33-3,.48-4.55,0-.46.09-.93.14-1.39a12.61,12.61,0,0,0,3.63.85,3.71,3.71,0,0,0,2.85-1.34,1.78,1.78,0,0,0-.6-2.59c-1.34-.69-3.75.58-4.71,1.54-.07.07-.95,1.17-1.16,1.46.11-1,.23-2,.38-3a33.31,33.31,0,0,1,.87-4,12.48,12.48,0,0,0,3.65.86,3.75,3.75,0,0,0,2.86-1.34,1.79,1.79,0,0,0-.61-2.59c-1.34-.69-3.75.58-4.71,1.54-.07.07-1,1.25-1.17,1.48a1.55,1.55,0,0,1,.06-.23,23.15,23.15,0,0,1,1.58-3.79c.34-.67.71-1.29,1.08-1.89a12.19,12.19,0,0,0,3.46,1.21,3.76,3.76,0,0,0,3-1,1.8,1.8,0,0,0-.31-2.65c-1.26-.83-3.8.17-4.86,1,0,.05-.59.58-1,1,.17-.27.34-.55.51-.8.64-.95,1.27-1.79,1.85-2.52.32-.42.63-.78.92-1.13a12,12,0,0,0,3.61-.51,3.74,3.74,0,0,0,2.17-2.27A1.79,1.79,0,0,0,474,378c-1.51-.16-3.29,1.9-3.84,3.14-.05.1-.6,1.86-.58,1.86h0c-.29.32-.59.67-.91,1.06-.59.72-1.25,1.54-1.9,2.49a32.17,32.17,0,0,0-2,3.14,23,23,0,0,0-1.68,3.79l0,.05c0-.44,0-1.68,0-1.78-.17-1.34-1.3-3.82-2.78-4.1a1.79,1.79,0,0,0-2.07,1.68,3.76,3.76,0,0,0,1.44,2.81,12.77,12.77,0,0,0,3.39,1.55,32.89,32.89,0,0,0-1,4.11c-.14.81-.26,1.63-.37,2.45,0-.38,0-.73,0-.77-.17-1.34-1.3-3.83-2.78-4.11a1.8,1.8,0,0,0-2.07,1.69,3.74,3.74,0,0,0,1.44,2.8,11.92,11.92,0,0,0,3.29,1.52l-.12.95c-.18,1.51-.36,3-.57,4.51-.08.52-.17,1-.27,1.55,0-.34,0-.63,0-.67-.18-1.34-1.3-3.83-2.79-4.11a1.79,1.79,0,0,0-2.06,1.69,3.73,3.73,0,0,0,1.43,2.8,11.67,11.67,0,0,0,3.2,1.49c-.11.52-.22,1-.35,1.54-.1.34-.17.68-.28,1l-.33,1c-.22.62-.45,1.27-.69,1.87-.16.42-.32.82-.49,1.22.09-.52.22-1.54.23-1.62a6.88,6.88,0,0,0-.94-3.38,1.76,1.76,0,0,0,0-.4,1.8,1.8,0,0,0-2.19-1.52c-1.46.39-2.39,3-2.46,4.31,0,.08.05.94.09,1.49-.07-.32-.14-.63-.22-.95-.15-.65-.33-1.29-.51-2l-.3-1c-.09-.34-.24-.68-.35-1-.29-.79-.62-1.58-1-2.37A11.55,11.55,0,0,0,454,406.5a3.73,3.73,0,0,0,1.64-2.69,1.79,1.79,0,0,0-1.93-1.83c-1.51.16-2.81,2.56-3.09,3.88,0,.08-.1,1.06-.14,1.59-.22-.47-.43-.94-.66-1.41-.67-1.35-1.4-2.7-2.11-4.05l-.65-1.24a12.71,12.71,0,0,0,3.5-1.3,3.73,3.73,0,0,0,1.64-2.68,1.8,1.8,0,0,0-1.94-1.84c-1.5.17-2.8,2.56-3.08,3.89,0,.1-.14,1.49-.16,1.85-.47-.91-.94-1.83-1.36-2.74a31.52,31.52,0,0,1-1.47-3.82,12.55,12.55,0,0,0,3.51-1.3,3.75,3.75,0,0,0,1.65-2.68,1.8,1.8,0,0,0-1.94-1.84c-1.5.17-2.81,2.56-3.08,3.89,0,.1-.16,1.61-.16,1.88a2.09,2.09,0,0,1-.08-.23,24.07,24.07,0,0,1-.77-4c-.08-.76-.12-1.48-.14-2.18a12,12,0,0,0,3.55-.9,3.7,3.7,0,0,0,1.93-2.49,1.78,1.78,0,0,0-1.72-2c-1.51,0-3.07,2.23-3.49,3.52,0,.07-.18.81-.28,1.34,0-.31,0-.64,0-.95,0-1.14.07-2.19.14-3.12q.08-.78.15-1.44a12,12,0,0,0,2.73-2.42,3.77,3.77,0,0,0,.56-3.1,1.79,1.79,0,0,0-2.46-1c-1.35.69-1.7,3.4-1.48,4.73,0,.11.53,1.88.55,1.87l0,0q-.09.63-.18,1.38c-.09.93-.18,2-.21,3.13a31.47,31.47,0,0,0,.09,3.71,23.47,23.47,0,0,0,.69,4.09s0,0,0,.05c-.24-.37-.94-1.4-1-1.47-.88-1-3.19-2.48-4.58-1.88a1.78,1.78,0,0,0-.8,2.54A3.73,3.73,0,0,0,440.13,394.7Z" style="fill:#263238"></path><path d="M466.07,387.6s.48-1.77.5-1.88c.19-1.34-.24-4-1.6-4.7a1.8,1.8,0,0,0-2.44,1.08,3.74,3.74,0,0,0,.65,3.08A13,13,0,0,0,466.07,387.6Z" style="fill:#263238"></path><path d="M23.81,387a12.65,12.65,0,0,0,3.74.42s-.57-1.74-.62-1.85c-.58-1.22-2.42-3.23-3.92-3a1.8,1.8,0,0,0-1.44,2.25A3.71,3.71,0,0,0,23.81,387Z" style="fill:#263238"></path><path d="M24.72,394.7a12.53,12.53,0,0,0,3.69-.57,31.65,31.65,0,0,0,1.44,4c.32.76.67,1.51,1,2.25-.22-.31-.41-.59-.45-.63-.88-1-3.19-2.48-4.58-1.88a1.78,1.78,0,0,0-.79,2.54,3.69,3.69,0,0,0,2.74,1.54,11.51,11.51,0,0,0,3.58-.55l.42.86c.69,1.37,1.38,2.73,2,4.08q.33.72.63,1.44c-.19-.28-.35-.52-.38-.55-.89-1-3.2-2.48-4.59-1.89a1.79,1.79,0,0,0-.79,2.55,3.72,3.72,0,0,0,2.74,1.54,11.39,11.39,0,0,0,3.49-.52c.19.49.39,1,.56,1.48.1.34.23.65.32,1s.19.67.28,1c.15.65.32,1.32.45,1.95.1.44.19.86.27,1.29-.21-.48-.66-1.41-.71-1.48-.72-1.14-2.78-2.93-4.24-2.56a1.79,1.79,0,0,0-1.17,2.4,3.74,3.74,0,0,0,2.48,1.94,12.37,12.37,0,0,0,3.7,0c.14.7.28,1.39.39,2,.08.48.16.94.23,1.39h.94c-.09-.5-.18-1-.29-1.55-.14-.71-.31-1.48-.48-2.25a19.12,19.12,0,0,0,2.07-1,13.35,13.35,0,0,0,3,2c-.27.66-.54,1.3-.8,1.91-.14.32-.27.62-.41.92h1l.24-.57c.27-.68.56-1.4.84-2.15a12.42,12.42,0,0,0,3.7.29,3.74,3.74,0,0,0,2.61-1.75,1.79,1.79,0,0,0-1-2.48c-1.44-.48-3.63,1.15-4.43,2.24,0,.06-.48.81-.75,1.29.11-.3.23-.6.34-.91.23-.63.44-1.26.67-1.93l.3-1c.11-.33.18-.69.27-1,.19-.82.35-1.66.49-2.51a11.79,11.79,0,0,0,3.51.81,3.71,3.71,0,0,0,2.85-1.34,1.79,1.79,0,0,0-.6-2.6c-1.34-.69-3.75.59-4.71,1.54-.06.06-.67.82-1,1.25.08-.51.17-1,.23-1.54.19-1.5.33-3,.48-4.55,0-.46.09-.93.14-1.39a12.52,12.52,0,0,0,3.63.85,3.71,3.71,0,0,0,2.85-1.34,1.78,1.78,0,0,0-.6-2.59c-1.34-.69-3.76.58-4.71,1.54-.07.07-.95,1.17-1.16,1.46.11-1,.22-2,.38-3a31.48,31.48,0,0,1,.87-4,12.48,12.48,0,0,0,3.65.86,3.71,3.71,0,0,0,2.85-1.34,1.78,1.78,0,0,0-.6-2.59c-1.34-.69-3.75.58-4.71,1.54-.08.07-1,1.25-1.17,1.48a1.55,1.55,0,0,1,.06-.23,23.15,23.15,0,0,1,1.58-3.79c.34-.67.71-1.29,1.08-1.89a12.08,12.08,0,0,0,3.46,1.21,3.77,3.77,0,0,0,3-1,1.8,1.8,0,0,0-.31-2.65c-1.27-.83-3.8.17-4.86,1-.06.05-.59.58-1,1,.17-.27.34-.55.51-.8.63-.95,1.27-1.79,1.84-2.52.33-.42.64-.78.93-1.13a11.89,11.89,0,0,0,3.6-.51,3.73,3.73,0,0,0,2.18-2.27A1.79,1.79,0,0,0,58.6,378c-1.51-.16-3.3,1.9-3.85,3.14,0,.1-.59,1.86-.57,1.86h0c-.29.32-.59.67-.91,1.06-.59.72-1.25,1.54-1.9,2.49a32.17,32.17,0,0,0-2,3.14,23,23,0,0,0-1.68,3.79l0,.05c0-.44,0-1.68,0-1.78-.17-1.34-1.3-3.82-2.79-4.1a1.79,1.79,0,0,0-2.06,1.68,3.73,3.73,0,0,0,1.44,2.81,12.77,12.77,0,0,0,3.39,1.55,32.89,32.89,0,0,0-1,4.11c-.14.81-.26,1.63-.37,2.45,0-.38,0-.73,0-.77-.17-1.34-1.3-3.83-2.79-4.11A1.79,1.79,0,0,0,41.45,397a3.71,3.71,0,0,0,1.44,2.8,11.92,11.92,0,0,0,3.29,1.52l-.12.95c-.18,1.51-.36,3-.57,4.51-.08.52-.18,1-.27,1.55,0-.34,0-.63,0-.67-.17-1.34-1.29-3.83-2.78-4.11a1.81,1.81,0,0,0-2.07,1.69,3.78,3.78,0,0,0,1.44,2.8,11.67,11.67,0,0,0,3.2,1.49c-.11.52-.22,1-.35,1.54-.1.34-.17.68-.29,1s-.21.67-.32,1c-.22.62-.46,1.27-.69,1.87-.16.42-.33.82-.49,1.22.08-.52.22-1.54.23-1.62a6.88,6.88,0,0,0-.94-3.38,1.76,1.76,0,0,0,0-.4,1.8,1.8,0,0,0-2.19-1.52c-1.46.39-2.39,3-2.46,4.31,0,.08.05.94.09,1.49-.07-.32-.14-.63-.22-.95-.15-.65-.33-1.29-.51-2l-.3-1c-.1-.34-.24-.68-.35-1-.29-.79-.63-1.58-1-2.37a11.55,11.55,0,0,0,3.38-1.26,3.73,3.73,0,0,0,1.64-2.69A1.79,1.79,0,0,0,38.28,402c-1.5.16-2.81,2.56-3.08,3.88,0,.08-.1,1.06-.14,1.59-.22-.47-.43-.94-.66-1.41-.68-1.35-1.4-2.7-2.11-4.05l-.65-1.24a12.82,12.82,0,0,0,3.5-1.3,3.76,3.76,0,0,0,1.64-2.68,1.8,1.8,0,0,0-1.94-1.84c-1.5.17-2.81,2.56-3.08,3.89,0,.1-.15,1.49-.16,1.85-.47-.91-.94-1.83-1.36-2.74a33.36,33.36,0,0,1-1.48-3.82,12.47,12.47,0,0,0,3.52-1.3,3.71,3.71,0,0,0,1.64-2.68A1.79,1.79,0,0,0,32,388.29c-1.5.17-2.81,2.56-3.08,3.89,0,.1-.16,1.61-.16,1.88a2.09,2.09,0,0,1-.08-.23,24.07,24.07,0,0,1-.77-4c-.08-.76-.12-1.48-.14-2.18a12,12,0,0,0,3.55-.9,3.73,3.73,0,0,0,1.93-2.49,1.78,1.78,0,0,0-1.72-2c-1.52,0-3.08,2.23-3.49,3.52,0,.07-.18.81-.28,1.34,0-.31,0-.64,0-.95,0-1.14.07-2.19.14-3.12q.07-.78.15-1.44a12,12,0,0,0,2.73-2.42,3.77,3.77,0,0,0,.56-3.1,1.8,1.8,0,0,0-2.47-1c-1.34.69-1.69,3.4-1.47,4.73,0,.11.53,1.88.55,1.87l0,0c-.05.42-.11.88-.17,1.38-.09.93-.18,2-.21,3.13a31.47,31.47,0,0,0,.09,3.71,22.56,22.56,0,0,0,.69,4.09s0,0,0,.05c-.24-.37-.94-1.4-1-1.47-.88-1-3.19-2.48-4.59-1.88a1.79,1.79,0,0,0-.79,2.54A3.72,3.72,0,0,0,24.72,394.7Z" style="fill:#263238"></path><path d="M50.67,387.6s.48-1.77.5-1.88c.18-1.34-.24-4-1.6-4.7a1.8,1.8,0,0,0-2.44,1.08,3.71,3.71,0,0,0,.65,3.08A13,13,0,0,0,50.67,387.6Z" style="fill:#263238"></path><path d="M470.71,405.16a5.51,5.51,0,0,0,1.64.18s-.25-.76-.28-.8c-.25-.54-1.06-1.42-1.71-1.33a.78.78,0,0,0-.63,1A1.57,1.57,0,0,0,470.71,405.16Z" style="fill:#263238"></path><path d="M471.11,408.53a5.67,5.67,0,0,0,1.61-.25,15.19,15.19,0,0,0,.63,1.74c.14.33.3.66.46,1a3.36,3.36,0,0,0-.2-.28c-.38-.45-1.4-1.09-2-.83a.79.79,0,0,0-.34,1.12,1.6,1.6,0,0,0,1.2.67,5,5,0,0,0,1.57-.24l.18.38c.3.6.61,1.19.89,1.79l.27.62-.17-.24c-.38-.44-1.39-1.08-2-.82a.78.78,0,0,0-.35,1.11,1.61,1.61,0,0,0,1.2.68,5,5,0,0,0,1.53-.23c.08.22.17.43.24.65s.1.29.14.44.08.29.13.44.14.57.19.85.08.38.12.56c-.09-.21-.29-.61-.31-.64-.31-.51-1.22-1.29-1.86-1.12a.77.77,0,0,0-.51,1,1.6,1.6,0,0,0,1.08.85,5.12,5.12,0,0,0,1.63,0c.06.31.12.61.17.89s.07.41.1.61h.41c0-.22-.08-.44-.13-.68s-.13-.65-.21-1a9.28,9.28,0,0,0,.91-.42,6.27,6.27,0,0,0,1.32.85l-.35.83-.18.41h.44a2.6,2.6,0,0,1,.1-.25c.12-.3.25-.61.37-.94a5.51,5.51,0,0,0,1.62.12,1.65,1.65,0,0,0,1.15-.76.8.8,0,0,0-.44-1.09c-.63-.21-1.58.51-1.94,1,0,0-.21.36-.32.57l.15-.4c.1-.28.19-.55.29-.85l.13-.44c.05-.14.08-.3.12-.46.08-.35.15-.72.21-1.09a5.48,5.48,0,0,0,1.54.35,1.63,1.63,0,0,0,1.25-.59.78.78,0,0,0-.26-1.13c-.59-.31-1.65.25-2.07.67l-.44.55c0-.23.08-.45.1-.68.09-.65.15-1.32.21-2,0-.2,0-.41.07-.61a5.29,5.29,0,0,0,1.59.37,1.61,1.61,0,0,0,1.24-.58.78.78,0,0,0-.26-1.14c-.59-.3-1.64.26-2.06.68l-.51.63c.05-.44.1-.89.17-1.33a13.91,13.91,0,0,1,.38-1.75,5.21,5.21,0,0,0,1.6.38,1.63,1.63,0,0,0,1.25-.59.78.78,0,0,0-.27-1.13c-.59-.31-1.64.25-2.06.67,0,0-.45.55-.51.65a.36.36,0,0,1,0-.1,10,10,0,0,1,.69-1.66c.16-.29.32-.57.48-.83a4.88,4.88,0,0,0,1.51.53,1.65,1.65,0,0,0,1.31-.44.78.78,0,0,0-.14-1.16c-.55-.37-1.66.07-2.13.44l-.42.43.22-.35c.28-.42.56-.79.81-1.11l.4-.49a4.89,4.89,0,0,0,1.58-.23,1.62,1.62,0,0,0,1-1,.79.79,0,0,0-.66-1c-.66-.07-1.44.84-1.68,1.38,0,0-.26.81-.25.81h0c-.12.14-.25.29-.39.47s-.55.67-.84,1.09a14.14,14.14,0,0,0-.86,1.37,10.05,10.05,0,0,0-.74,1.66v0c0-.19,0-.73,0-.77-.07-.59-.56-1.68-1.21-1.8a.79.79,0,0,0-.91.74,1.62,1.62,0,0,0,.63,1.22,5,5,0,0,0,1.49.68,13.14,13.14,0,0,0-.44,1.8c-.06.36-.12.72-.16,1.08,0-.17,0-.32,0-.34-.08-.59-.57-1.68-1.22-1.8a.79.79,0,0,0-.91.74,1.67,1.67,0,0,0,.63,1.23,5.11,5.11,0,0,0,1.44.66c0,.14,0,.28-.05.42-.08.66-.15,1.33-.25,2,0,.23-.07.46-.11.68,0-.15,0-.27,0-.29-.08-.59-.57-1.68-1.22-1.8a.79.79,0,0,0-.91.74,1.67,1.67,0,0,0,.63,1.23,5.26,5.26,0,0,0,1.4.65c-.05.23-.09.45-.15.67s-.07.3-.12.45l-.15.43c-.09.28-.2.56-.3.82l-.21.54c0-.23.09-.68.1-.71a3.26,3.26,0,0,0-.41-1.49,1,1,0,0,0,0-.17.78.78,0,0,0-1-.66c-.64.17-1,1.29-1.08,1.88,0,0,0,.42,0,.66,0-.14-.06-.28-.1-.42s-.14-.57-.22-.87c0-.14-.09-.29-.13-.44s-.11-.29-.16-.44c-.12-.35-.27-.69-.42-1a5.08,5.08,0,0,0,1.47-.55,1.59,1.59,0,0,0,.72-1.18.78.78,0,0,0-.84-.8c-.66.07-1.23,1.12-1.35,1.7,0,0-.05.46-.07.69-.09-.2-.18-.41-.29-.61-.29-.6-.61-1.19-.92-1.78-.1-.18-.19-.36-.28-.54a5.73,5.73,0,0,0,1.53-.57,1.66,1.66,0,0,0,.72-1.18.8.8,0,0,0-.85-.8c-.66.07-1.23,1.12-1.35,1.7,0,.05-.06.66-.07.81q-.31-.58-.6-1.2a13.63,13.63,0,0,1-.64-1.67,5.66,5.66,0,0,0,1.54-.57,1.62,1.62,0,0,0,.72-1.17.8.8,0,0,0-.85-.81c-.66.08-1.23,1.13-1.35,1.7,0,.05-.07.71-.07.83l0-.1a9.73,9.73,0,0,1-.34-1.76c0-.33-.05-.65-.06-1A5,5,0,0,0,474,405a1.64,1.64,0,0,0,.85-1.09.79.79,0,0,0-.76-.89c-.66,0-1.34,1-1.53,1.54,0,0-.07.35-.12.59v-.42c0-.5,0-1,.06-1.36,0-.23,0-.44.07-.64a5.24,5.24,0,0,0,1.19-1.06,1.63,1.63,0,0,0,.25-1.35.79.79,0,0,0-1.08-.45c-.59.31-.75,1.49-.65,2.08,0,.05.23.82.24.81h0c0,.18,0,.38-.07.6,0,.41-.08.87-.1,1.37a15.26,15.26,0,0,0,0,1.63,10.79,10.79,0,0,0,.3,1.79v0c-.1-.16-.41-.61-.44-.64-.39-.45-1.4-1.09-2-.83a.79.79,0,0,0-.34,1.12A1.6,1.6,0,0,0,471.11,408.53Z" style="fill:#263238"></path><path d="M482.47,405.42s.21-.77.22-.83c.08-.58-.11-1.76-.7-2a.79.79,0,0,0-1.07.47,1.64,1.64,0,0,0,.28,1.35A5.72,5.72,0,0,0,482.47,405.42Z" style="fill:#263238"></path><path d="M281.76,405.16a5.51,5.51,0,0,0,1.64.18s-.25-.76-.27-.8c-.26-.54-1.07-1.42-1.72-1.33a.78.78,0,0,0-.63,1A1.6,1.6,0,0,0,281.76,405.16Z" style="fill:#263238"></path><path d="M282.16,408.53a5.67,5.67,0,0,0,1.61-.25,15.19,15.19,0,0,0,.63,1.74c.15.33.3.66.46,1a3.36,3.36,0,0,0-.2-.28c-.38-.45-1.39-1.09-2-.83a.79.79,0,0,0-.35,1.12,1.6,1.6,0,0,0,1.2.67,4.89,4.89,0,0,0,1.57-.24l.19.38c.3.6.6,1.19.88,1.79.1.21.18.42.27.62l-.16-.24c-.39-.44-1.4-1.08-2-.82a.78.78,0,0,0-.35,1.11,1.65,1.65,0,0,0,1.2.68,5,5,0,0,0,1.53-.23c.08.22.17.43.24.65a3.73,3.73,0,0,1,.14.44c.05.14.09.29.13.44s.14.57.2.85.08.38.11.56c-.09-.21-.29-.61-.31-.64-.31-.51-1.21-1.29-1.86-1.12a.77.77,0,0,0-.51,1,1.6,1.6,0,0,0,1.09.85,5.06,5.06,0,0,0,1.62,0c.06.31.12.61.17.89s.07.41.1.61h.41c0-.22-.08-.44-.12-.68s-.14-.65-.22-1a9.28,9.28,0,0,0,.91-.42,6.27,6.27,0,0,0,1.32.85c-.12.29-.23.57-.35.83l-.18.41H290l.1-.25c.12-.3.25-.61.37-.94a5.58,5.58,0,0,0,1.62.12,1.65,1.65,0,0,0,1.15-.76.79.79,0,0,0-.44-1.09c-.62-.21-1.58.51-1.93,1,0,0-.22.36-.33.57l.15-.4c.1-.28.19-.55.29-.85l.13-.44c.05-.14.08-.3.12-.46.08-.35.15-.72.21-1.09a5.48,5.48,0,0,0,1.54.35,1.61,1.61,0,0,0,1.25-.59.78.78,0,0,0-.26-1.13c-.59-.31-1.65.25-2.07.67,0,0-.29.36-.43.55,0-.23.07-.45.1-.68.08-.65.14-1.32.21-2,0-.2,0-.41.06-.61a5.29,5.29,0,0,0,1.59.37,1.65,1.65,0,0,0,1.25-.58.79.79,0,0,0-.27-1.14c-.59-.3-1.64.26-2.06.68l-.51.63c.05-.44.1-.89.17-1.33a13.91,13.91,0,0,1,.38-1.75,5.21,5.21,0,0,0,1.6.38,1.63,1.63,0,0,0,1.25-.59.78.78,0,0,0-.26-1.13c-.59-.31-1.65.25-2.07.67,0,0-.44.55-.51.65s0-.07,0-.1a10.89,10.89,0,0,1,.7-1.66c.15-.29.31-.57.47-.83a4.88,4.88,0,0,0,1.51.53,1.64,1.64,0,0,0,1.31-.44.78.78,0,0,0-.14-1.16c-.55-.37-1.66.07-2.12.44,0,0-.26.26-.43.43.08-.12.15-.24.23-.35.27-.42.55-.79.8-1.11l.41-.49a4.93,4.93,0,0,0,1.58-.23,1.61,1.61,0,0,0,.95-1,.78.78,0,0,0-.65-1c-.66-.07-1.45.84-1.69,1.38,0,0-.26.81-.25.81h0c-.13.14-.26.29-.4.47a12.31,12.31,0,0,0-.83,1.09,14.14,14.14,0,0,0-.87,1.37,11,11,0,0,0-.74,1.66v0c0-.19,0-.73,0-.77-.08-.59-.57-1.68-1.22-1.8a.79.79,0,0,0-.91.74,1.62,1.62,0,0,0,.63,1.22,5.1,5.1,0,0,0,1.49.68,13.14,13.14,0,0,0-.44,1.8c-.06.36-.11.72-.16,1.08,0-.17,0-.32,0-.34-.08-.59-.57-1.68-1.22-1.8a.78.78,0,0,0-.9.74,1.66,1.66,0,0,0,.62,1.23,5,5,0,0,0,1.45.66l-.06.42c-.08.66-.15,1.33-.25,2,0,.23-.07.46-.11.68,0-.15,0-.27,0-.29-.08-.59-.57-1.68-1.22-1.8a.77.77,0,0,0-.9.74,1.64,1.64,0,0,0,.63,1.23A5.07,5.07,0,0,0,291,415c0,.23-.09.45-.15.67s-.07.3-.12.45-.1.29-.14.43-.2.56-.31.82l-.21.54c0-.23.1-.68.1-.71a3,3,0,0,0-.41-1.49,1,1,0,0,0,0-.17.78.78,0,0,0-1-.66c-.64.17-1.05,1.29-1.08,1.88,0,0,0,.42,0,.66,0-.14-.06-.28-.1-.42s-.14-.57-.22-.87c0-.14-.09-.29-.13-.44s-.1-.29-.15-.44c-.13-.35-.28-.69-.43-1a5.24,5.24,0,0,0,1.48-.55,1.66,1.66,0,0,0,.72-1.18.79.79,0,0,0-.85-.8c-.66.07-1.23,1.12-1.35,1.7,0,0-.05.46-.06.69-.1-.2-.19-.41-.29-.61-.3-.6-.61-1.19-.93-1.78l-.28-.54a5.5,5.5,0,0,0,1.53-.57,1.66,1.66,0,0,0,.72-1.18.79.79,0,0,0-.85-.8c-.66.07-1.23,1.12-1.35,1.7,0,.05-.06.66-.07.81-.21-.39-.41-.79-.59-1.2a12.25,12.25,0,0,1-.65-1.67,5.55,5.55,0,0,0,1.54-.57,1.62,1.62,0,0,0,.72-1.17.79.79,0,0,0-.85-.81c-.66.08-1.23,1.13-1.35,1.7,0,.05-.07.71-.07.83l0-.1a9.73,9.73,0,0,1-.34-1.76q0-.5-.06-1A5,5,0,0,0,285,405a1.64,1.64,0,0,0,.85-1.09.78.78,0,0,0-.75-.89c-.67,0-1.35,1-1.53,1.54,0,0-.08.35-.12.59,0-.14,0-.28,0-.42,0-.5,0-1,.06-1.36,0-.23,0-.44.07-.64a5,5,0,0,0,1.19-1.06,1.63,1.63,0,0,0,.25-1.35.79.79,0,0,0-1.08-.45c-.59.31-.74,1.49-.65,2.08,0,.05.23.82.24.81h0c0,.18-.05.38-.07.6,0,.41-.08.87-.09,1.37a12.93,12.93,0,0,0,0,1.63,10.84,10.84,0,0,0,.31,1.79v0c-.1-.16-.41-.61-.44-.64-.38-.45-1.39-1.09-2-.83a.79.79,0,0,0-.35,1.12A1.6,1.6,0,0,0,282.16,408.53Z" style="fill:#263238"></path><path d="M293.52,405.42s.22-.77.22-.83c.08-.58-.1-1.76-.7-2A.79.79,0,0,0,292,403a1.64,1.64,0,0,0,.29,1.35A5.51,5.51,0,0,0,293.52,405.42Z" style="fill:#263238"></path></g><g id="freepik--Truck--inject-47"><polygon points="214.04 331.07 221.63 331.07 220.57 396.61 210.67 396.61 214.04 331.07" style="fill:#263238"></polygon><polygon points="85.3 385.46 149.93 385.46 157.11 394.43 332.52 394.43 417.92 394.43 417.92 358.53 90.69 358.53 85.3 385.46" style="fill:#263238"></polygon><path d="M199.42,401.87s4.62-.26,6.67-1.28a13.07,13.07,0,0,1,3.55-.89,7.57,7.57,0,0,0,5.9-4.51l.3-.7H198.4Z" style="fill:#263238"></path><path d="M181.93,403.73l17.49-1.86s1.54-.77.77-3.33-4.61-3.34-4.61-3.34l-13.85.51Z" style="fill:#263238"></path><path d="M200.39,399.79a4.82,4.82,0,0,0-.15-1.05l-14.67.95-2.29,2.1" style="fill:#fff;stroke:#263238;stroke-miterlimit:10"></path><path d="M56.84,328.52l.25,49.76s.77,4.36,4.62,5.13,14.62.51,14.62.51l11.79-22.06a14.44,14.44,0,0,1,13.6-9.74c10.77-.26,59,2.31,59,2.31s6.15,1.79,8.21,9.49,1.28,30.26,1.28,30.26l44.36,1.28,1.54-63.86Z" style="fill:#92E3A9;stroke:#263238;stroke-miterlimit:10"></path><circle cx="375.09" cy="392.38" r="26.93" transform="translate(-79.32 95.45) rotate(-13.13)" style="fill:#263238"></circle><circle cx="375.09" cy="392.38" r="21.54" transform="translate(-79.48 95.69) rotate(-13.16)" style="fill:#fff;stroke:#263238;stroke-miterlimit:10"></circle><circle cx="375.09" cy="392.38" r="13.85" transform="translate(-79.7 96.04) rotate(-13.2)" style="fill:#b5b5b5"></circle><path d="M382.27,392.38a7.18,7.18,0,1,0-7.18,7.18A7.18,7.18,0,0,0,382.27,392.38Z" style="fill:#d6d6d6"></path><circle cx="129.41" cy="392.38" r="26.93" transform="translate(-282.62 361.78) rotate(-67.5)" style="fill:#263238"></circle><circle cx="129.41" cy="392.38" r="21.54" transform="translate(-239.55 206.43) rotate(-45)" style="fill:#fff;stroke:#263238;stroke-miterlimit:10"></circle><circle cx="129.41" cy="392.38" r="13.85" transform="translate(-239.55 206.43) rotate(-45)" style="fill:#b5b5b5"></circle><path d="M136.59,392.38a7.18,7.18,0,1,0-7.18,7.18A7.18,7.18,0,0,0,136.59,392.38Z" style="fill:#d6d6d6"></path><path d="M234.74,286.6s-11.19.55-11,2a20.35,20.35,0,0,0,1.65,4.4l-7.15,36.88a90.17,90.17,0,0,0-1.29,11c0,3.67-1.1,53.58-1.1,53.58s.73,2.57,4.22,2.93,111.56,2,111.56,2,2.57-.91,5.69-4.58,18-22.57,35.41-27.89,29.91,1.83,34.13,5.68,4.77,17.8,5.32,20.55,5.51,2.94,6.61,2.94,7.7-.73,9.17-2.75,2.2-8.26,2.2-9.36a7.52,7.52,0,0,0-.92-2.75l5-20.92s1.1-4-.18-4.95-4.59-1.29-5.14-3.31,2.2-5.87.18-8.8-9.54-5.88-15-7.16-37.62-3.67-37.62-3.67l-50.82-2.75-12.85-19.45-11-17.25a2.38,2.38,0,0,0-.73-3.49c-2.2-1.46-8.44-2-20.74-2.93S234.74,286.6,234.74,286.6Z" style="fill:#92E3A9;stroke:#263238;stroke-miterlimit:10"></path><path d="M217.19,337.17l211.66,5.88c-2.26-2.85-9.5-5.66-14.84-6.91-5.51-1.28-37.62-3.67-37.62-3.67l-41.55-2.25-116.22-2.36-.39,2S217.57,333.68,217.19,337.17Z" style="fill:#92E3A9;stroke:#263238;stroke-miterlimit:10"></path><path d="M301,289.53c-2.2-1.46-8.44-2-20.74-2.93s-45.5,0-45.5,0-11.19.55-11,2a10.15,10.15,0,0,0,.6,2H302A2.78,2.78,0,0,0,301,289.53Z" style="fill:#fff;stroke:#263238;stroke-miterlimit:10"></path><path d="M286.48,295.41,251.62,295s-4.77-.37-6.42,5.32-3.85,25.32-3.85,25.32,0,2.75,3.85,2.94,54.86,1.1,54.86,1.1,3.67,0,3.67-3.49-11.93-28.62-11.93-28.62S291.07,294.31,286.48,295.41Z" style="fill:#fff;stroke:#263238;stroke-miterlimit:10"></path><path d="M245.2,328.62c3.85.18,54.86,1.1,54.86,1.1s3.67,0,3.67-3.49c0-2-4.05-11.42-7.43-18.9l-54.63,19.48C242.08,327.6,243,328.51,245.2,328.62Z" style="fill:#263238"></path><path d="M300.06,329.67l-17.18-.3L288,295.16l1,.11a4.3,4.3,0,0,1,3.8,2.86c1.39,2.77,12,23.92,12,27.29C304.76,328.54,302,329.67,300.06,329.67Zm-14.83-2.19,14.85.26c.42,0,2.62-.14,2.62-2.32s-7.25-17.46-11.82-26.53l-.08-.2a2.07,2.07,0,0,0-1.1-1.23Z" style="fill:#263238"></path><path d="M287.55,295.23l-5.15,34.16,2.47.05L290,295.53A4.65,4.65,0,0,0,287.55,295.23Z" style="fill:#fff;stroke:#263238;stroke-miterlimit:10"></path><path d="M312.72,310.27l-11-17.25s-3.48-.18-2,4.4,12.11,28.81,12.11,28.81a10.24,10.24,0,0,0,5.69,2.94,75.45,75.45,0,0,0,9.36.91l0-.29-1.26-.07Z" style="fill:#fff;stroke:#263238;stroke-miterlimit:10"></path><polygon points="56.87 334.7 215.93 338.38 216.09 331.6 56.84 328.52 56.87 334.7" style="fill:#263238"></polygon><path d="M216.69,332.88h0L53.47,329a1.54,1.54,0,0,1-1.5-1.58,1.57,1.57,0,0,1,1.57-1.5l163.18,3.85a1.54,1.54,0,0,1,0,3.07Z" style="fill:#92E3A9;stroke:#263238;stroke-miterlimit:10"></path><path d="M65.81,393.41l19.24,3.84L94,369s1.28-5.38,13.08-6.66,34.11-1.29,42.83,1.28,9.74,9.74,11,17.44.51,19,2.56,20.26,14.36.25,16.67-.26,4.87-32.06,4.1-39.75-9.74-16.67-22.31-17.18-50-1.54-66.68.77-22.56,9.49-25.13,19.74S65.81,393.41,65.81,393.41Z" style="fill:#92E3A9;stroke:#263238;stroke-miterlimit:10"></path><path d="M187.63,399.69c0,2.2-2.64,4-5.9,4s-5.9-1.77-5.9-4,2.64-4,5.9-4S187.63,397.49,187.63,399.69Z" style="fill:#263238"></path><path d="M428,393.39c1.47-2,2.2-8.26,2.2-9.36a7.52,7.52,0,0,0-.92-2.75l5-20.92s1.1-4-.18-4.95a19.55,19.55,0,0,0-2.85-1.24c-17.73-1.19-59.21-3.43-76.33,4.62-18.57,8.72-37.92,34-42.55,40.35l19.34.3s2.57-.91,5.69-4.58,18-22.57,35.41-27.89,29.91,1.83,34.13,5.68,4.77,17.8,5.32,20.55,5.51,2.94,6.61,2.94S426.48,395.41,428,393.39Z" style="fill:#92E3A9;stroke:#263238;stroke-miterlimit:10"></path><path d="M299.44,345.19l-3.59,2.06-79-2.28c0,1.11,0,2.4-.07,3.84l76,2.8,6.41-2.83,129.73,1.69c.19-.94.55-2,.75-3.15Z" style="fill:#263238"></path><path d="M310.17,398.28l-85.1-2.08,1.29-55.27c-.23-.6-1-3.22,1.9-7.06a44,44,0,0,1,6.09-6.63l4.59-29.05a8.31,8.31,0,0,1,7.87-7.6c7.14-.77,45.63.7,47.26.76l.32,0,16.28,38.5a39.91,39.91,0,0,1,2.09,14.06c-.25,7.61-2.54,53.4-2.56,53.86Zm-84.08-3,83.13,2c.25-5,2.3-46.18,2.54-53.35a39.83,39.83,0,0,0-2-13.66l-16-37.9c-3.8-.14-40.07-1.48-46.8-.76s-7,6.46-7,6.7l-4.65,29.48-.15.12a43.47,43.47,0,0,0-6.07,6.59c-2.83,3.76-1.79,6-1.75,6.15l.05.1v.13Z" style="fill:#263238"></path><path d="M429.24,381.28c2.19,0,6.13-.85,7.51,1.16a7,7,0,0,1,1,5.69l-1.52,5.56c-.86,3.1-3.72,3.87-6.55,3.4l-3.84-.64a1.75,1.75,0,0,1-.67-.21c-1.32-.89-1.12-5.35-1-6.65a11.39,11.39,0,0,1,1.38-4.33C426.08,384.34,428,381.28,429.24,381.28Z" style="fill:#fff;stroke:#263238;stroke-miterlimit:10"></path><rect x="336.91" y="330.49" width="1" height="15.34" transform="translate(-3.04 3.07) rotate(-0.52)" style="fill:#263238"></rect><path d="M129.41,399.56a7.18,7.18,0,0,0,6.45-10.33L123,395.64A7.16,7.16,0,0,0,129.41,399.56Z" style="fill:#8c8c8c"></path><path d="M375.09,399.56a7.17,7.17,0,0,0,6.39-10.44l-12.83,6.41A7.15,7.15,0,0,0,375.09,399.56Z" style="fill:#8c8c8c"></path><path d="M340.84,332.44l60.64,3.74a13.7,13.7,0,0,1,4.1.91l1.69.65-66.22-4.28Z" style="fill:#263238"></path><path d="M355.13,360.24a66.22,66.22,0,0,1,16.78-4.8c10.45-1.71,25-1.2,25-1.2S381,354.93,370,357,355.13,360.24,355.13,360.24Z" style="fill:#fff"></path><path d="M169.91,348.57c0,.38-2.31.54-5.1.35s-5-.64-5-1,2.31-.54,5.09-.35S169.93,348.19,169.91,348.57Z" style="fill:#fff"></path><path d="M229,330.86c0,.38-2.31.54-5.1.35s-5-.64-5-1,2.31-.54,5.09-.35S229.06,330.48,229,330.86Z" style="fill:#fff"></path><path d="M97.21,349.45c0,.38-2.18.92-4.95,1.22s-5.07.23-5.11-.15,2.18-.92,5-1.22S97.17,349.07,97.21,349.45Z" style="fill:#fff"></path><path d="M238.86,334.42a15.14,15.14,0,0,0,6.33,1.54,5.6,5.6,0,0,0,4.79-2.22l1.53-.34a8.93,8.93,0,0,1-3.24,3.07,14.38,14.38,0,0,1-8,.35,20.36,20.36,0,0,1-3.42-1.88Z" style="fill:#263238"></path><path d="M239.72,333.23s.51,2-.69,2.56-3.59-.17-4.61-1.37-.17-2.73,2.56-2.73S239.72,333.23,239.72,333.23Z" style="fill:#263238"></path><path d="M233.9,332.71s9.75-2,18.47.35a5.64,5.64,0,0,1-2.39.68C248.78,333.74,231.34,333.74,233.9,332.71Z" style="fill:#263238"></path></g><g id="freepik--Floor--inject-47"><line x1="15.14" y1="419.31" x2="494.5" y2="419.31" style="fill:none;stroke:#263238;stroke-miterlimit:10"></line></g></svg>
