<svg width="585" height="555" viewBox="0 0 585 555" fill="none" xmlns="http://www.w3.org/2000/svg">
<path d="M144.207 56.2522C141.488 59.2116 139.574 62.8185 138.646 66.7285C136.636 64.0128 133.701 62.1269 130.395 61.4267C127.089 60.7264 123.642 61.2603 120.702 62.9275C120.153 56.4395 117.287 50.3659 112.628 45.8165C107.97 41.2672 101.83 38.5459 95.3311 38.1498C88.8319 37.7538 82.4072 39.7095 77.2309 43.6596C72.0547 47.6097 68.4726 53.2904 67.1391 59.6637C63.9583 56.5281 59.7061 54.7163 55.2413 54.5942C50.7764 54.472 46.4315 56.0486 43.084 59.0056" stroke="#263238" stroke-miterlimit="10"/>
<path d="M218.105 27.657C209.083 26.2435 199.863 28.3326 192.332 33.4965C184.801 38.6603 179.529 46.5081 177.597 55.4325C173.923 51.8132 169.151 49.5178 164.03 48.9075C158.91 48.2973 153.732 49.4067 149.311 52.0613" stroke="#263238" stroke-miterlimit="10"/>
<path d="M238.21 38.0925C235.705 35.4884 232.821 33.2785 229.654 31.5381" stroke="#263238" stroke-miterlimit="10"/>
<path d="M225.33 72.8931H291.438C290.595 71.4959 289.466 70.2927 288.125 69.362C286.784 68.4313 285.262 67.7943 283.658 67.4925C282.054 67.1907 280.405 67.2311 278.818 67.6109C277.23 67.9907 275.741 68.7014 274.448 69.6965C273.573 67.1624 272.152 64.8517 270.285 62.9281C268.418 61.0044 266.151 59.515 263.644 58.5653C261.137 57.6156 258.452 57.2289 255.779 57.4326C253.106 57.6363 250.51 58.4254 248.176 59.744C247.603 53.2582 245.256 47.0552 241.394 41.8135" stroke="#263238" stroke-miterlimit="10"/>
<path d="M40.3565 62.1484C38.2665 65.1218 37.1455 68.6679 37.1465 72.3024C37.1465 72.5307 37.1465 72.7456 37.1465 72.9605H212.315" stroke="#263238" stroke-miterlimit="10"/>
<path d="M274.863 84.6585C272.771 82.8715 270.25 81.6587 267.548 81.1388C264.845 80.6188 262.054 80.8096 259.448 81.6923C256.842 82.5751 254.509 84.1196 252.679 86.1746C250.849 88.2297 249.584 90.7247 249.008 93.4155C247.7 92.1269 246.072 91.2099 244.292 90.7589C242.511 90.3079 240.643 90.339 238.879 90.8491C237.115 91.3592 235.518 92.3299 234.253 93.6615C232.988 94.993 232.101 96.6373 231.682 98.4254C231.11 97.6532 230.365 97.0261 229.507 96.5946C228.648 96.163 227.7 95.939 226.74 95.9406C225.677 95.9434 224.632 96.216 223.704 96.733C223.404 93.8889 222.106 91.2432 220.039 89.2661C217.973 87.289 215.273 86.1086 212.418 85.9346C209.563 85.7606 206.74 86.6043 204.448 88.3159C202.157 90.0274 200.547 92.4958 199.904 95.2825C198.8 94.1977 197.4 93.4632 195.88 93.171C194.36 92.8789 192.788 93.0423 191.36 93.6405C189.933 94.2388 188.714 95.2453 187.856 96.5338C186.999 97.8224 186.541 99.3355 186.54 100.883C186.533 100.977 186.533 101.071 186.54 101.165H299.63C299.248 100.55 298.741 100.021 298.141 99.6146C297.541 99.208 296.863 98.9324 296.149 98.8057C295.436 98.6789 294.704 98.704 294.001 98.8791C293.297 99.0543 292.639 99.3756 292.069 99.8222C291.526 98.2172 290.492 96.8239 289.113 95.8401C287.734 94.8564 286.08 94.3323 284.386 94.3423C282.975 94.3405 281.588 94.7013 280.357 95.3899C280.252 94.2028 280.013 93.0313 279.645 91.8978" stroke="#263238" stroke-miterlimit="10"/>
<path d="M481.743 289.134C479.703 291.334 478.273 294.028 477.593 296.951C476.628 295.653 475.372 294.598 473.926 293.873C472.48 293.148 470.884 292.771 469.266 292.774C467.481 292.769 465.726 293.232 464.176 294.117C463.729 289.296 461.572 284.793 458.095 281.423C454.618 278.054 450.051 276.039 445.218 275.744C440.385 275.449 435.606 276.892 431.744 279.813C427.883 282.735 425.194 286.941 424.164 291.672C421.787 289.332 418.611 287.98 415.277 287.888C411.942 287.796 408.696 288.97 406.193 291.175" stroke="#263238" stroke-miterlimit="10"/>
<path d="M536.973 267.766C535.599 267.556 534.212 267.448 532.823 267.443C526.712 267.445 520.787 269.539 516.033 273.379C511.28 277.218 507.985 282.57 506.699 288.544C503.951 285.837 500.382 284.122 496.552 283.667C492.722 283.212 488.85 284.044 485.545 286.032" stroke="#263238" stroke-miterlimit="10"/>
<path d="M552.002 275.568C550.114 273.617 547.94 271.964 545.555 270.666" stroke="#263238" stroke-miterlimit="10"/>
<path d="M542.371 301.572H591.757C591.126 300.53 590.281 299.633 589.28 298.939C588.278 298.245 587.142 297.77 585.945 297.544C584.747 297.319 583.516 297.348 582.33 297.63C581.145 297.912 580.032 298.44 579.065 299.181C578.403 297.293 577.335 295.574 575.936 294.144C574.537 292.715 572.841 291.61 570.968 290.908C569.095 290.206 567.091 289.924 565.097 290.082C563.103 290.239 561.168 290.833 559.429 291.821C559.001 286.963 557.244 282.316 554.352 278.39" stroke="#263238" stroke-miterlimit="10"/>
<path d="M404.125 293.499C402.567 295.723 401.732 298.372 401.734 301.088C401.734 301.249 401.734 301.41 401.734 301.571H532.621" stroke="#263238" stroke-miterlimit="10"/>
<path d="M579.388 310.369C577.246 308.532 574.515 307.526 571.692 307.535C568.971 307.536 566.332 308.47 564.215 310.18C562.099 311.891 560.632 314.276 560.061 316.937C559.083 315.976 557.867 315.292 556.538 314.956C555.209 314.621 553.814 314.645 552.497 315.026C551.181 315.408 549.989 316.133 549.045 317.127C548.101 318.122 547.439 319.349 547.127 320.684C546.696 320.108 546.136 319.64 545.493 319.319C544.849 318.997 544.139 318.83 543.42 318.831C542.629 318.828 541.851 319.032 541.163 319.422C540.975 317.269 540.02 315.256 538.472 313.749C536.923 312.242 534.885 311.342 532.729 311.211C530.572 311.081 528.44 311.73 526.722 313.04C525.004 314.35 523.813 316.233 523.367 318.347C522.545 317.532 521.5 316.979 520.363 316.757C519.227 316.536 518.051 316.657 516.983 317.104C515.915 317.551 515.003 318.304 514.363 319.269C513.724 320.234 513.384 321.367 513.388 322.524C513.381 322.596 513.381 322.668 513.388 322.739H597.883C597.605 322.273 597.231 321.871 596.786 321.56C596.341 321.249 595.835 321.036 595.302 320.936C594.768 320.836 594.22 320.85 593.692 320.978C593.165 321.106 592.67 321.345 592.242 321.678C591.814 320.497 591.033 319.477 590.004 318.756C588.975 318.035 587.75 317.648 586.493 317.649C585.448 317.649 584.42 317.922 583.512 318.441C583.431 317.551 583.251 316.672 582.974 315.822" stroke="#263238" stroke-miterlimit="10"/>
<path d="M279.74 159.591H96.4316V430.255H279.74V159.591Z" fill="#263238" stroke="#263238" stroke-linecap="round" stroke-linejoin="round"/>
<path d="M267.948 172.713H108.225V417.428H267.948V172.713Z" fill="white" stroke="#263238" stroke-linecap="round" stroke-linejoin="round"/>
<path d="M156.63 151.224H219.541C221.903 151.224 224.168 152.162 225.838 153.832C227.508 155.502 228.446 157.767 228.446 160.128V179.08H147.725V160.196C147.716 159.021 147.94 157.855 148.383 156.767C148.827 155.679 149.481 154.69 150.309 153.855C151.137 153.021 152.122 152.36 153.206 151.908C154.291 151.456 155.455 151.224 156.63 151.224Z" fill="#7D7D7D" stroke="#263238" stroke-linecap="round" stroke-linejoin="round"/>
<path d="M182.646 139.834H193.391C194.66 139.819 195.92 140.058 197.096 140.535C198.272 141.013 199.341 141.72 200.242 142.615C201.142 143.51 201.855 144.576 202.339 145.749C202.823 146.923 203.068 148.181 203.061 149.45V151.196H173.123V149.45C173.116 148.193 173.357 146.947 173.832 145.784C174.307 144.62 175.006 143.561 175.891 142.668C176.775 141.775 177.827 141.065 178.986 140.578C180.145 140.092 181.389 139.839 182.646 139.834Z" fill="#7D7D7D" stroke="#263238" stroke-linecap="round" stroke-linejoin="round"/>
<path d="M228.433 237.303C242.705 237.303 254.275 225.733 254.275 211.462C254.275 197.19 242.705 185.62 228.433 185.62C214.161 185.62 202.592 197.19 202.592 211.462C202.592 225.733 214.161 237.303 228.433 237.303Z" fill="#263238" stroke="#263238" stroke-linecap="round" stroke-linejoin="round"/>
<path d="M246.295 205.002H235.268V193.988H222.348V205.002H211.334V217.923H222.348V228.95H235.268V217.923H246.295V205.002Z" fill="#00FEBE" stroke="#263238" stroke-linecap="round" stroke-linejoin="round"/>
<path d="M122.031 210.71H184.352" stroke="#263238" stroke-linecap="round" stroke-linejoin="round"/>
<path d="M122.031 223.631H184.352" stroke="#263238" stroke-linecap="round" stroke-linejoin="round"/>
<path d="M122.031 266.193H253.509" stroke="#263238" stroke-linecap="round" stroke-linejoin="round"/>
<path d="M138.001 278.349H122.797V294.305H138.001V278.349Z" stroke="#263238" stroke-linecap="round" stroke-linejoin="round"/>
<path d="M208.675 278.349H193.471V294.305H208.675V278.349Z" stroke="#263238" stroke-linecap="round" stroke-linejoin="round"/>
<path d="M144.072 294.305H181.317" stroke="#263238" stroke-linecap="round" stroke-linejoin="round"/>
<path d="M214.746 294.305H251.991" stroke="#263238" stroke-linecap="round" stroke-linejoin="round"/>
<path d="M138.001 309.509H122.797V325.465H138.001V309.509Z" stroke="#263238" stroke-linecap="round" stroke-linejoin="round"/>
<path d="M208.675 309.509H193.471V325.465H208.675V309.509Z" stroke="#263238" stroke-linecap="round" stroke-linejoin="round"/>
<path d="M144.072 325.465H181.317" stroke="#263238" stroke-linecap="round" stroke-linejoin="round"/>
<path d="M214.746 325.465H251.991" stroke="#263238" stroke-linecap="round" stroke-linejoin="round"/>
<path d="M138.001 340.669H122.797V356.625H138.001V340.669Z" stroke="#263238" stroke-linecap="round" stroke-linejoin="round"/>
<path d="M208.675 340.669H193.471V356.625H208.675V340.669Z" stroke="#263238" stroke-linecap="round" stroke-linejoin="round"/>
<path d="M144.072 356.625H181.317" stroke="#263238" stroke-linecap="round" stroke-linejoin="round"/>
<path d="M214.746 356.625H251.991" stroke="#263238" stroke-linecap="round" stroke-linejoin="round"/>
<path d="M138.001 371.829H122.797V387.785H138.001V371.829Z" stroke="#263238" stroke-linecap="round" stroke-linejoin="round"/>
<path d="M208.675 371.829H193.471V387.785H208.675V371.829Z" stroke="#263238" stroke-linecap="round" stroke-linejoin="round"/>
<path d="M144.072 387.786H181.317" stroke="#263238" stroke-linecap="round" stroke-linejoin="round"/>
<path d="M214.746 387.786H251.991" stroke="#263238" stroke-linecap="round" stroke-linejoin="round"/>
<path d="M444.338 84.6182H303.996V348.217H444.338V84.6182Z" fill="#00FEBE" stroke="#263238" stroke-linecap="round" stroke-linejoin="round"/>
<path d="M429.953 116.114C426.373 116.114 422.94 114.692 420.408 112.161C417.877 109.63 416.455 106.196 416.455 102.616H330.992C330.992 106.196 329.57 109.63 327.039 112.161C324.507 114.692 321.074 116.114 317.494 116.114V315.835C321.074 315.835 324.507 317.258 327.039 319.789C329.57 322.32 330.992 325.754 330.992 329.334C330.992 329.643 330.992 329.938 330.992 330.234H416.562C416.562 329.938 416.562 329.643 416.562 329.334C416.562 325.754 417.984 322.32 420.516 319.789C423.047 317.258 426.48 315.835 430.06 315.835C430.369 315.835 430.665 315.835 430.96 315.835V116.061C430.557 116.088 430.262 116.114 429.953 116.114ZM374.174 257.356C366.077 257.356 358.162 254.955 351.43 250.457C344.697 245.959 339.45 239.565 336.352 232.084C333.253 224.604 332.442 216.373 334.022 208.432C335.602 200.49 339.501 193.196 345.226 187.471C350.951 181.745 358.246 177.846 366.187 176.267C374.128 174.687 382.359 175.498 389.84 178.596C397.32 181.695 403.714 186.942 408.212 193.674C412.711 200.406 415.112 208.321 415.112 216.418C415.112 227.276 410.798 237.688 403.121 245.366C395.444 253.043 385.031 257.356 374.174 257.356Z" fill="white" stroke="#263238" stroke-linecap="round" stroke-linejoin="round"/>
<path d="M482.943 109.159L344.279 87.5195L303.634 347.966L442.298 369.606L482.943 109.159Z" fill="#00FEBE" stroke="#263238" stroke-linecap="round" stroke-linejoin="round"/>
<path d="M463.852 138.074C462.1 137.808 460.417 137.197 458.902 136.277C457.386 135.356 456.068 134.145 455.023 132.713C453.978 131.281 453.226 129.656 452.812 127.932C452.398 126.208 452.33 124.419 452.611 122.669L368.169 109.479C367.614 113.015 365.678 116.186 362.788 118.296C359.897 120.406 356.287 121.283 352.75 120.735L321.926 318.065C325.458 318.617 328.626 320.548 330.736 323.434C332.846 326.319 333.725 329.924 333.181 333.457C333.181 333.752 333.06 334.048 332.993 334.33L417.529 347.533C417.529 347.237 417.529 346.942 417.623 346.646C417.888 344.891 418.498 343.206 419.418 341.688C420.338 340.17 421.551 338.849 422.984 337.803C424.418 336.756 426.045 336.004 427.771 335.59C429.498 335.176 431.289 335.108 433.041 335.391C433.337 335.391 433.632 335.512 433.928 335.566L464.82 138.128C464.457 138.142 464.148 138.128 463.852 138.074ZM386.946 268.988C378.946 267.738 371.497 264.144 365.54 258.66C359.583 253.176 355.385 246.049 353.479 238.18C351.572 230.311 352.042 222.054 354.828 214.451C357.615 206.849 362.593 200.244 369.133 195.471C375.674 190.698 383.483 187.972 391.572 187.637C399.662 187.302 407.67 189.374 414.582 193.59C421.495 197.806 427.002 203.977 430.407 211.323C433.812 218.669 434.963 226.859 433.713 234.859C432.885 240.172 431.018 245.269 428.219 249.859C425.42 254.45 421.744 258.444 417.401 261.614C413.058 264.783 408.133 267.066 402.907 268.331C397.681 269.596 392.258 269.819 386.946 268.988Z" fill="white" stroke="#263238" stroke-linecap="round" stroke-linejoin="round"/>
<path d="M530.744 154.165L400.275 102.456L303.152 347.511L433.621 399.219L530.744 154.165Z" fill="#00FEBE" stroke="#263238" stroke-linecap="round" stroke-linejoin="round"/>
<path d="M505.731 178.18C502.418 176.86 499.762 174.283 498.343 171.012C496.924 167.74 496.856 164.04 498.156 160.719L418.698 129.21C418.052 130.856 417.087 132.358 415.859 133.631C414.631 134.903 413.163 135.92 411.541 136.624C409.919 137.328 408.173 137.704 406.405 137.732C404.637 137.76 402.881 137.438 401.237 136.785L327.635 322.457C329.281 323.103 330.783 324.068 332.056 325.296C333.328 326.524 334.345 327.992 335.049 329.614C335.753 331.236 336.129 332.982 336.157 334.75C336.184 336.518 335.863 338.274 335.21 339.918C335.089 340.2 334.968 340.468 334.834 340.737L414.373 372.273C414.467 371.991 414.548 371.696 414.655 371.414C415.98 368.089 418.569 365.425 421.855 364.008C425.141 362.59 428.855 362.534 432.183 363.852C432.465 363.959 432.733 364.094 433.002 364.214L506.631 178.462C506.318 178.381 506.018 178.287 505.731 178.18ZM401.828 288.933C394.3 285.95 387.826 280.802 383.224 274.14C378.622 267.477 376.099 259.6 375.974 251.503C375.85 243.407 378.129 235.455 382.524 228.654C386.918 221.853 393.231 216.508 400.664 213.295C408.097 210.083 416.316 209.146 424.281 210.605C432.246 212.063 439.599 215.851 445.411 221.489C451.223 227.127 455.233 234.362 456.933 242.278C458.633 250.195 457.947 258.439 454.962 265.966C450.957 276.054 443.111 284.139 433.148 288.446C423.185 292.752 411.92 292.928 401.828 288.933Z" fill="white" stroke="#263238" stroke-linecap="round" stroke-linejoin="round"/>
<path d="M569.822 213.419L455.439 132.102L302.704 346.942L417.086 428.259L569.822 213.419Z" fill="#00FEBE" stroke="#263238" stroke-linecap="round" stroke-linejoin="round"/>
<path d="M539.832 230.749C538.383 229.727 537.151 228.428 536.207 226.928C535.263 225.428 534.625 223.755 534.331 222.007C534.036 220.259 534.09 218.47 534.491 216.743C534.891 215.016 535.629 213.386 536.662 211.945L466.995 162.425C464.921 165.338 461.777 167.309 458.251 167.905C454.726 168.502 451.108 167.676 448.191 165.608L332.455 328.366C333.903 329.388 335.135 330.687 336.079 332.187C337.023 333.688 337.661 335.36 337.956 337.108C338.251 338.856 338.196 340.645 337.796 342.372C337.396 344.099 336.658 345.73 335.625 347.17C335.45 347.425 335.262 347.64 335.074 347.882L404.795 397.456C404.956 397.201 405.104 396.946 405.292 396.691C406.314 395.242 407.613 394.01 409.113 393.066C410.613 392.122 412.286 391.484 414.034 391.19C415.782 390.895 417.571 390.949 419.298 391.349C421.025 391.749 422.655 392.487 424.096 393.521C424.337 393.695 424.566 393.883 424.794 394.071L540.584 231.219C540.342 231.085 540.091 230.928 539.832 230.749ZM412.531 313.552C405.932 308.861 400.872 302.318 397.991 294.75C395.11 287.183 394.538 278.932 396.347 271.039C398.156 263.147 402.264 255.968 408.153 250.411C414.042 244.854 421.447 241.168 429.431 239.819C437.415 238.47 445.619 239.519 453.007 242.833C460.394 246.148 466.633 251.578 470.935 258.438C475.236 265.298 477.406 273.28 477.171 281.374C476.936 289.467 474.306 297.309 469.614 303.908C463.322 312.756 453.774 318.743 443.07 320.551C432.365 322.36 421.38 319.842 412.531 313.552Z" fill="white" stroke="#263238" stroke-linecap="round" stroke-linejoin="round"/>
<path d="M336.861 363.475C385.062 363.475 424.137 324.4 424.137 276.199C424.137 227.998 385.062 188.924 336.861 188.924C288.661 188.924 249.586 227.998 249.586 276.199C249.586 324.4 288.661 363.475 336.861 363.475Z" fill="white" stroke="#263238" stroke-linecap="round" stroke-linejoin="round"/>
<path d="M267.221 224.449H276.609" stroke="#263238" stroke-linecap="round" stroke-linejoin="round"/>
<path d="M271.627 218.741H280.411" stroke="#263238" stroke-linecap="round" stroke-linejoin="round"/>
<path d="M275.816 214.31H284.533" stroke="#263238" stroke-linecap="round" stroke-linejoin="round"/>
<path d="M281.217 209.608H288.899" stroke="#263238" stroke-linecap="round" stroke-linejoin="round"/>
<path d="M261.5 233.005H270.271" stroke="#263238" stroke-linecap="round" stroke-linejoin="round"/>
<path d="M255.119 246.624H263.93" stroke="#263238" stroke-linecap="round" stroke-linejoin="round"/>
<path d="M250.74 263.104H260.129" stroke="#263238" stroke-linecap="round" stroke-linejoin="round"/>
<path d="M250.109 281.491H259.498" stroke="#263238" stroke-linecap="round" stroke-linejoin="round"/>
<path d="M345.107 363.475C393.308 363.475 432.383 324.4 432.383 276.199C432.383 227.998 393.308 188.924 345.107 188.924C296.907 188.924 257.832 227.998 257.832 276.199C257.832 324.4 296.907 363.475 345.107 363.475Z" fill="white" stroke="#263238" stroke-linecap="round" stroke-linejoin="round"/>
<path d="M412.844 291.818C421.473 254.413 398.145 217.095 360.74 208.467C323.335 199.838 286.018 223.166 277.389 260.57C268.761 297.975 292.088 335.293 329.493 343.921C366.898 352.55 404.215 329.223 412.844 291.818Z" fill="white" stroke="#263238" stroke-linecap="round" stroke-linejoin="round"/>
<path d="M345.161 206.693H343.818C362.076 206.947 379.5 214.378 392.322 227.379C405.143 240.38 412.332 257.906 412.332 276.166C412.332 294.425 405.143 311.951 392.322 324.952C379.5 337.953 362.076 345.384 343.818 345.638H345.161C354.37 345.766 363.511 344.063 372.056 340.628C380.6 337.193 388.376 332.094 394.933 325.628C401.49 319.161 406.696 311.456 410.25 302.961C413.804 294.465 415.634 285.348 415.634 276.139C415.634 266.93 413.804 257.813 410.25 249.317C406.696 240.821 401.49 233.117 394.933 226.65C388.376 220.184 380.6 215.085 372.056 211.65C363.511 208.215 354.37 206.512 345.161 206.64V206.693Z" fill="white" stroke="#263238" stroke-linecap="round" stroke-linejoin="round"/>
<path d="M348.359 319.542C348.156 319.584 347.973 319.692 347.839 319.851C347.705 320.009 347.628 320.208 347.62 320.415L347.741 326.042C347.787 326.332 347.764 326.628 347.674 326.906C347.584 327.185 347.428 327.438 347.221 327.645C347.014 327.852 346.761 328.007 346.483 328.097C346.204 328.188 345.908 328.211 345.619 328.164H338.245C337.956 328.211 337.66 328.188 337.382 328.097C337.103 328.007 336.85 327.852 336.643 327.645C336.436 327.438 336.281 327.185 336.191 326.906C336.1 326.628 336.077 326.332 336.123 326.042L336.365 320.294C336.362 320.083 336.284 319.881 336.147 319.721C336.01 319.562 335.821 319.455 335.613 319.421C321.376 317.675 313.116 309.052 313.116 297.058V291.686C313.083 291.398 313.116 291.107 313.213 290.833C313.309 290.56 313.465 290.312 313.671 290.108C313.876 289.904 314.125 289.749 314.399 289.655C314.672 289.56 314.964 289.529 315.251 289.563H328.239C329.582 289.563 330.375 290.195 330.375 291.189V292.935C330.375 299.314 334.498 304.808 342.987 304.808C351.045 304.808 354.363 299.932 354.363 294.936C354.363 286.071 338.111 284.688 326.157 276.938C318.408 272.197 313.035 266.072 313.035 255.448C313.035 242.326 321.161 233.072 335.532 230.95C335.739 230.913 335.926 230.806 336.063 230.647C336.2 230.488 336.278 230.287 336.284 230.077L336.029 223.361C335.984 223.072 336.007 222.776 336.098 222.497C336.188 222.218 336.343 221.964 336.549 221.756C336.756 221.548 337.009 221.392 337.287 221.3C337.565 221.208 337.861 221.182 338.151 221.226H345.283C345.571 221.193 345.862 221.227 346.135 221.323C346.409 221.419 346.657 221.575 346.861 221.781C347.065 221.986 347.22 222.235 347.314 222.509C347.408 222.782 347.44 223.074 347.405 223.361L347.285 229.983C347.288 230.193 347.365 230.396 347.503 230.556C347.64 230.715 347.829 230.821 348.037 230.856C363.026 232.481 371.528 241.601 371.528 254.481V258.605C371.562 258.892 371.531 259.183 371.437 259.456C371.343 259.729 371.187 259.978 370.983 260.182C370.778 260.386 370.53 260.542 370.257 260.636C369.984 260.73 369.693 260.761 369.406 260.727H356.283C354.94 260.727 354.148 260.23 354.148 259.478V258.242C354.148 251.62 350.401 245.617 341.657 245.617C334.659 245.617 330.415 249.243 330.415 254.857C330.415 262.983 341.778 264.259 353.53 269.363C366.397 275.112 372.025 283.103 372.025 294.103C372.025 307.803 363.617 317.54 348.359 319.542Z" fill="white" stroke="#263238" stroke-linecap="round" stroke-linejoin="round"/>
<path d="M351.031 319.542C350.826 319.583 350.642 319.691 350.505 319.849C350.369 320.008 350.289 320.206 350.279 320.415L350.4 326.042C350.446 326.332 350.423 326.628 350.332 326.906C350.242 327.185 350.087 327.438 349.88 327.645C349.673 327.852 349.42 328.007 349.141 328.097C348.863 328.188 348.567 328.211 348.278 328.164H340.904C340.615 328.211 340.319 328.188 340.04 328.097C339.762 328.007 339.509 327.852 339.301 327.645C339.094 327.438 338.939 327.185 338.849 326.906C338.759 326.628 338.736 326.332 338.782 326.042L339.037 320.294C339.031 320.084 338.953 319.883 338.816 319.724C338.679 319.565 338.491 319.458 338.285 319.421C324.034 317.675 315.788 309.052 315.788 297.058V291.686C315.753 291.399 315.784 291.107 315.878 290.834C315.973 290.561 316.128 290.313 316.332 290.108C316.537 289.904 316.785 289.749 317.058 289.654C317.332 289.56 317.623 289.529 317.91 289.563H330.911C332.254 289.563 333.033 290.195 333.033 291.189V292.935C333.033 299.314 337.157 304.808 345.658 304.808C353.65 304.808 357.035 299.932 357.035 294.936C357.035 286.071 340.783 284.688 328.829 276.938C321.079 272.197 315.707 266.072 315.707 255.448C315.707 242.326 323.766 233.072 338.191 230.95C338.398 230.915 338.587 230.809 338.725 230.65C338.862 230.49 338.939 230.287 338.943 230.077L338.701 223.361C338.656 223.072 338.679 222.776 338.769 222.497C338.86 222.218 339.015 221.964 339.221 221.756C339.428 221.548 339.681 221.392 339.959 221.3C340.237 221.208 340.533 221.182 340.823 221.226H347.848C348.136 221.191 348.428 221.222 348.703 221.317C348.977 221.412 349.226 221.569 349.431 221.775C349.636 221.981 349.791 222.231 349.884 222.506C349.977 222.781 350.007 223.073 349.97 223.361L349.849 229.983C349.855 230.193 349.933 230.394 350.07 230.553C350.207 230.712 350.394 230.819 350.601 230.856C365.59 232.481 374.092 241.601 374.092 254.481V258.605C374.127 258.892 374.096 259.183 374.001 259.456C373.907 259.729 373.752 259.978 373.547 260.182C373.343 260.386 373.095 260.542 372.821 260.636C372.548 260.73 372.257 260.761 371.97 260.727H358.848C357.505 260.727 356.726 260.23 356.726 259.478V258.242C356.726 251.62 352.978 245.617 344.221 245.617C337.224 245.617 332.979 249.243 332.979 254.857C332.979 262.983 344.356 264.259 356.094 269.363C368.975 275.112 374.603 283.103 374.603 294.103C374.71 307.803 366.275 317.54 351.031 319.542Z" fill="#263238"/>
<path d="M126.341 547.993H43.7266V458.286L82.5425 418.127L126.341 458.286V547.993Z" fill="#999999" stroke="#263238" stroke-linecap="round" stroke-linejoin="round"/>
<path d="M397.287 547.992H199.312V356.209L313.571 308.502L397.287 356.209V547.992Z" fill="#999999" stroke="#263238" stroke-linecap="round" stroke-linejoin="round"/>
<path d="M225.733 441.376H122.676V548.113H225.733V441.376Z" fill="white" stroke="#263238" stroke-linecap="round" stroke-linejoin="round"/>
<path d="M344.692 458.285H288.08V548.113H344.692V458.285Z" fill="#C2C2C2" stroke="#263238" stroke-linecap="round" stroke-linejoin="round"/>
<path d="M326.734 470.965H300.758V548.113H326.734V470.965Z" fill="white" stroke="#263238" stroke-linecap="round" stroke-linejoin="round"/>
<path d="M322.638 470.965H304.855V548.113H322.638V470.965Z" fill="#263238" stroke="#263238" stroke-linecap="round" stroke-linejoin="round"/>
<path d="M322.637 539.92H273.963V544.876H322.637V539.92Z" fill="white" stroke="#263238" stroke-linecap="round" stroke-linejoin="round"/>
<path d="M326.734 470.965H300.758V477.304H326.734V470.965Z" fill="white" stroke="#263238" stroke-linecap="round" stroke-linejoin="round"/>
<path d="M106.827 470.965H65.1641V548.113H106.827V470.965Z" fill="white" stroke="#263238" stroke-linecap="round" stroke-linejoin="round"/>
<path d="M100.245 470.965H71.7168V548.113H100.245V470.965Z" fill="#263238" stroke="#263238" stroke-linecap="round" stroke-linejoin="round"/>
<path d="M106.827 470.965H65.1641V477.304H106.827V470.965Z" fill="white" stroke="#263238" stroke-linecap="round" stroke-linejoin="round"/>
<path d="M254.61 456.473H221.502V516.402H254.61V456.473Z" fill="#C2C2C2" stroke="#263238" stroke-linecap="round" stroke-linejoin="round"/>
<path d="M501.541 547.992H359.238V356.209L429.55 308.502L501.541 356.209V547.992Z" fill="white" stroke="#263238" stroke-linecap="round" stroke-linejoin="round"/>
<path d="M503.327 356.841L429.415 308.892L358.646 357.257V361.931L429.925 313.566L503.327 361.515V356.841Z" fill="white" stroke="#263238" stroke-linecap="round" stroke-linejoin="round"/>
<path d="M411.378 320.831L350.979 417.415L359.239 418.476L422.11 315.419L501.541 432.605L505.772 432.431L426.529 310.557L411.378 320.831Z" fill="#263238" stroke="#263238" stroke-linecap="round" stroke-linejoin="round"/>
<path d="M359.238 356.209H190.852L257.416 308.502L429.415 309.469L359.238 356.209Z" fill="#263238" stroke="#263238" stroke-linecap="round" stroke-linejoin="round"/>
<path d="M463.973 438.958H384.139V547.992H463.973V438.958Z" fill="#BABABA" stroke="#263238" stroke-linecap="round" stroke-linejoin="round"/>
<path d="M470.313 438.958H390.479V547.992H470.313V438.958Z" fill="white" stroke="#263238" stroke-linecap="round" stroke-linejoin="round"/>
<path d="M458.185 455.505H402.594V512.936H458.185V455.505Z" fill="white" stroke="#263238" stroke-width="2" stroke-linecap="round" stroke-linejoin="round"/>
<path d="M442.081 455.505H418.711V512.936H442.081V455.505Z" fill="white" stroke="#263238" stroke-width="2" stroke-linecap="round" stroke-linejoin="round"/>
<path d="M472.732 434.083H375.383V443.821H472.732V434.083Z" fill="#BABABA" stroke="#263238" stroke-linecap="round" stroke-linejoin="round"/>
<path d="M479.07 434.083H381.721V443.821H479.07V434.083Z" fill="white" stroke="#263238" stroke-linecap="round" stroke-linejoin="round"/>
<path d="M329.3 456.473H324.357V509.042H329.3V456.473Z" fill="white" stroke="#263238" stroke-linecap="round" stroke-linejoin="round"/>
<path d="M343.068 456.473H338.125V509.042H343.068V456.473Z" fill="white" stroke="#263238" stroke-linecap="round" stroke-linejoin="round"/>
<path d="M330.818 508.316H322.639V514.213H330.818V508.316Z" fill="white" stroke="#263238" stroke-linecap="round" stroke-linejoin="round"/>
<path d="M344.678 508.316H336.498V514.213H344.678V508.316Z" fill="white" stroke="#263238" stroke-linecap="round" stroke-linejoin="round"/>
<path d="M330.818 461.724H322.639V465.041H330.818V461.724Z" fill="white" stroke="#263238" stroke-linecap="round" stroke-linejoin="round"/>
<path d="M344.678 461.724H336.498V465.041H344.678V461.724Z" fill="white" stroke="#263238" stroke-linecap="round" stroke-linejoin="round"/>
<path d="M347.634 513.716H318.717V547.992H347.634V513.716Z" fill="white" stroke="#263238" stroke-linecap="round" stroke-linejoin="round"/>
<path d="M259.552 456.473H254.609V509.042H259.552V456.473Z" fill="white" stroke="#263238" stroke-linecap="round" stroke-linejoin="round"/>
<path d="M273.32 456.473H268.377V509.042H273.32V456.473Z" fill="white" stroke="#263238" stroke-linecap="round" stroke-linejoin="round"/>
<path d="M261.07 508.316H252.891V514.213H261.07V508.316Z" fill="white" stroke="#263238" stroke-linecap="round" stroke-linejoin="round"/>
<path d="M274.932 508.316H266.752V514.213H274.932V508.316Z" fill="white" stroke="#263238" stroke-linecap="round" stroke-linejoin="round"/>
<path d="M261.07 461.724H252.891V465.041H261.07V461.724Z" fill="white" stroke="#263238" stroke-linecap="round" stroke-linejoin="round"/>
<path d="M274.932 461.724H266.752V465.041H274.932V461.724Z" fill="white" stroke="#263238" stroke-linecap="round" stroke-linejoin="round"/>
<path d="M277.9 513.716H248.982V547.992H277.9V513.716Z" fill="white" stroke="#263238" stroke-linecap="round" stroke-linejoin="round"/>
<path d="M249.694 513.716H214.438V547.992H249.694V513.716Z" fill="#999999" stroke="#263238" stroke-linecap="round" stroke-linejoin="round"/>
<path d="M347.647 461.348H238.613L257.108 451.61H347.647V461.348Z" fill="white" stroke="#263238" stroke-linecap="round" stroke-linejoin="round"/>
<path d="M403.131 470.105H457.648" stroke="#263238" stroke-linecap="round" stroke-linejoin="round"/>
<path d="M403.131 483.737H457.648" stroke="#263238" stroke-linecap="round" stroke-linejoin="round"/>
<path d="M403.131 497.37H457.648" stroke="#263238" stroke-linecap="round" stroke-linejoin="round"/>
<path d="M77.7214 416.273L38.207 459.132H41.5111L80.3136 418.127L77.7214 416.273Z" fill="#263238" stroke="#263238" stroke-linecap="round" stroke-linejoin="round"/>
<path d="M119.505 457.225H227.84L309.005 416.273H77.7207L119.505 457.225Z" fill="#263238" stroke="#263238" stroke-linecap="round" stroke-linejoin="round"/>
<path d="M365.402 416.273H302.666L190.852 457.225H246.859L365.402 416.273Z" fill="#263238" stroke="#263238" stroke-linecap="round" stroke-linejoin="round"/>
<path d="M505.772 420.826L432.075 307.749C431.786 307.295 431.385 306.923 430.911 306.668C430.437 306.412 429.905 306.282 429.366 306.29C428.828 306.298 428.301 306.444 427.834 306.714C427.368 306.983 426.978 307.368 426.703 307.83L360.393 417.347L232.072 458.635V465.256L363.402 423.069C364.141 422.853 364.776 422.376 365.188 421.726L429.51 315.459L505.772 432.471V420.826Z" fill="white" stroke="#263238" stroke-linecap="round" stroke-linejoin="round"/>
<path d="M339.534 363.341H317.145V400.33H339.534V363.341Z" stroke="#263238" stroke-width="2" stroke-linecap="round" stroke-linejoin="round"/>
<path d="M328.332 364.321V399.363" stroke="#263238" stroke-linecap="round" stroke-linejoin="round"/>
<path d="M339.038 381.836H317.629" stroke="#263238" stroke-linecap="round" stroke-linejoin="round"/>
<path d="M181.974 471.488H159.584V508.478H181.974V471.488Z" stroke="#263238" stroke-width="2" stroke-linecap="round" stroke-linejoin="round"/>
<path d="M170.771 472.455V507.51" stroke="#263238" stroke-linecap="round" stroke-linejoin="round"/>
<path d="M181.491 489.983H160.068" stroke="#263238" stroke-linecap="round" stroke-linejoin="round"/>
<path d="M439.825 362.643H417.436V399.632H439.825V362.643Z" stroke="#263238" stroke-width="2" stroke-linecap="round" stroke-linejoin="round"/>
<path d="M428.623 363.609V398.665" stroke="#263238" stroke-linecap="round" stroke-linejoin="round"/>
<path d="M439.327 381.137H417.918" stroke="#263238" stroke-linecap="round" stroke-linejoin="round"/>
<path d="M291.665 363.341H269.275V400.33H291.665V363.341Z" stroke="#263238" stroke-width="2" stroke-linecap="round" stroke-linejoin="round"/>
<path d="M280.465 364.321V399.363" stroke="#263238" stroke-linecap="round" stroke-linejoin="round"/>
<path d="M291.182 381.836H269.76" stroke="#263238" stroke-linecap="round" stroke-linejoin="round"/>
<path d="M243.798 363.341H221.408V400.33H243.798V363.341Z" stroke="#263238" stroke-width="2" stroke-linecap="round" stroke-linejoin="round"/>
<path d="M232.609 364.321V399.363" stroke="#263238" stroke-linecap="round" stroke-linejoin="round"/>
<path d="M243.313 381.836H221.891" stroke="#263238" stroke-linecap="round" stroke-linejoin="round"/>
<path d="M144.353 442.437H131.674L116.887 427.636H129.566L144.353 442.437Z" fill="#6E6E6E"/>
<path d="M183.451 442.437H170.772L155.984 427.636H168.663L183.451 442.437Z" fill="#6E6E6E"/>
<path d="M77.7614 482.582H73.168V497.383H77.7614V482.582Z" fill="#B5B5B5" stroke="#263238" stroke-linecap="round" stroke-linejoin="round"/>
<path d="M82.8649 482.582H78.2715V497.383H82.8649V482.582Z" fill="#B5B5B5" stroke="#263238" stroke-linecap="round" stroke-linejoin="round"/>
<path d="M87.9819 482.582H83.375V497.383H87.9819V482.582Z" fill="#B5B5B5" stroke="#263238" stroke-linecap="round" stroke-linejoin="round"/>
<path d="M93.101 482.582H88.4941V497.383H93.101V482.582Z" fill="#B5B5B5" stroke="#263238" stroke-linecap="round" stroke-linejoin="round"/>
<path d="M98.1911 482.582H93.5977V497.383H98.1911V482.582Z" fill="#B5B5B5" stroke="#263238" stroke-linecap="round" stroke-linejoin="round"/>
<path d="M232.073 457.802H118.445V465.256H232.073V457.802Z" fill="white" stroke="#263238" stroke-linecap="round" stroke-linejoin="round"/>
<path d="M232.072 457.802H189.428V465.256H232.072V457.802Z" fill="#BABABA" stroke="#263238" stroke-linecap="round" stroke-linejoin="round"/>
<path d="M118.445 457.802L77.7214 416.273L38.207 459.132H43.7272L77.8691 422.734L118.445 465.257V457.802Z" fill="#BABABA" stroke="#263238" stroke-linecap="round" stroke-linejoin="round"/>
<path d="M322.637 543.479H273.963V548.113H322.637V543.479Z" fill="white" stroke="#263238" stroke-linecap="round" stroke-linejoin="round"/>
<path d="M358.647 357.257H190.207V361.917H358.647V357.257Z" fill="#BABABA" stroke="#263238" stroke-linecap="round" stroke-linejoin="round"/>
<path d="M171.646 501.87H166.058C164.308 501.87 162.889 503.289 162.889 505.04V506.155C162.889 507.905 164.308 509.324 166.058 509.324H171.646C173.396 509.324 174.816 507.905 174.816 506.155V505.04C174.816 503.289 173.396 501.87 171.646 501.87Z" fill="#263238" stroke="#263238" stroke-linecap="round" stroke-linejoin="round"/>
<path d="M204.041 483.47H252.876L277.737 501.87L320.489 509.325V531.701H129.082L114.67 525.241V516.779L174.331 504.355L199.783 484.907C201.007 483.975 202.502 483.471 204.041 483.47Z" fill="#00FEBE" stroke="#263238" stroke-linecap="round" stroke-linejoin="round"/>
<path d="M212.61 504.355H173.834L199.286 484.907C200.51 483.975 202.005 483.471 203.544 483.47H239.955L212.61 504.355Z" fill="white" stroke="#263238" stroke-linecap="round" stroke-linejoin="round"/>
<path d="M198.435 543.877C204.063 538.249 204.063 529.124 198.435 523.496C192.807 517.868 183.682 517.868 178.054 523.496C172.426 529.124 172.426 538.249 178.054 543.877C183.682 549.505 192.807 549.505 198.435 543.877Z" fill="white" stroke="#263238" stroke-linecap="round" stroke-linejoin="round"/>
<path d="M198.229 546.979C205.59 543.953 209.104 535.532 206.078 528.17C203.051 520.809 194.63 517.295 187.268 520.322C179.907 523.348 176.393 531.769 179.42 539.131C182.446 546.492 190.867 550.006 198.229 546.979Z" fill="#263238" stroke="#263238" stroke-linecap="round" stroke-linejoin="round"/>
<path d="M200.172 533.689C200.172 535.163 199.735 536.604 198.916 537.83C198.097 539.056 196.933 540.011 195.571 540.576C194.208 541.14 192.71 541.287 191.264 541C189.818 540.712 188.489 540.002 187.447 538.96C186.404 537.917 185.695 536.589 185.407 535.143C185.119 533.697 185.267 532.198 185.831 530.836C186.395 529.474 187.351 528.31 188.577 527.491C189.802 526.672 191.244 526.234 192.718 526.234C193.697 526.233 194.667 526.424 195.573 526.798C196.478 527.172 197.3 527.721 197.993 528.414C198.685 529.106 199.234 529.929 199.608 530.834C199.982 531.739 200.174 532.709 200.172 533.689Z" fill="white" stroke="#263238" stroke-linecap="round" stroke-linejoin="round"/>
<path d="M155.433 519.277C154.682 519.279 153.932 519.342 153.19 519.465C152.454 519.341 151.708 519.278 150.961 519.277C149.03 519.218 147.108 519.548 145.307 520.246C143.506 520.944 141.864 521.996 140.478 523.341C139.091 524.686 137.989 526.295 137.236 528.074C136.484 529.852 136.096 531.764 136.096 533.696C136.096 535.627 136.484 537.539 137.236 539.317C137.989 541.096 139.091 542.705 140.478 544.05C141.864 545.395 143.506 546.447 145.307 547.145C147.108 547.843 149.03 548.173 150.961 548.114C151.708 548.109 152.454 548.041 153.19 547.912C153.931 548.041 154.682 548.108 155.433 548.114C159.181 547.999 162.737 546.43 165.348 543.739C167.958 541.047 169.418 537.445 169.418 533.696C169.418 529.946 167.958 526.344 165.348 523.652C162.737 520.961 159.181 519.392 155.433 519.277Z" fill="#263238" stroke="#263238" stroke-linecap="round" stroke-linejoin="round"/>
<path d="M265.315 519.277C264.563 519.278 263.813 519.341 263.072 519.465C262.33 519.341 261.58 519.278 260.829 519.277C257.081 519.392 253.525 520.961 250.914 523.652C248.304 526.344 246.844 529.946 246.844 533.696C246.844 537.445 248.304 541.047 250.914 543.739C253.525 546.43 257.081 548 260.829 548.114C261.581 548.109 262.331 548.041 263.072 547.913C263.813 548.041 264.563 548.109 265.315 548.114C269.062 548 272.618 546.43 275.229 543.739C277.84 541.047 279.3 537.445 279.3 533.696C279.3 529.946 277.84 526.344 275.229 523.652C272.618 520.961 269.062 519.392 265.315 519.277Z" fill="#263238" stroke="#263238" stroke-linecap="round" stroke-linejoin="round"/>
<path d="M309.669 537.071C311.507 529.326 306.718 521.559 298.974 519.721C291.23 517.883 283.462 522.671 281.625 530.415C279.787 538.16 284.575 545.927 292.319 547.765C300.063 549.603 307.831 544.815 309.669 537.071Z" fill="white" stroke="#263238" stroke-linecap="round" stroke-linejoin="round"/>
<path d="M305.627 546.972C312.989 543.945 316.503 535.524 313.476 528.162C310.449 520.801 302.028 517.287 294.667 520.314C287.305 523.34 283.791 531.762 286.818 539.123C289.845 546.484 298.266 549.998 305.627 546.972Z" fill="#263238" stroke="#263238" stroke-linecap="round" stroke-linejoin="round"/>
<path d="M307.555 533.689C307.557 535.167 307.121 536.612 306.302 537.843C305.482 539.073 304.316 540.032 302.951 540.599C301.586 541.166 300.083 541.315 298.633 541.027C297.183 540.739 295.852 540.028 294.806 538.983C293.761 537.937 293.05 536.606 292.762 535.156C292.474 533.706 292.623 532.203 293.19 530.838C293.757 529.473 294.716 528.307 295.946 527.487C297.176 526.668 298.622 526.232 300.1 526.234C301.079 526.234 302.049 526.427 302.953 526.802C303.857 527.176 304.679 527.725 305.371 528.418C306.063 529.11 306.613 529.932 306.987 530.836C307.362 531.74 307.555 532.71 307.555 533.689Z" fill="white" stroke="#263238" stroke-linecap="round" stroke-linejoin="round"/>
<path d="M316.017 501.87L294.016 485.578C292.162 484.206 289.916 483.467 287.61 483.47H239.956L212.61 504.355L152.949 516.779V525.241L167.361 531.701H177.045C176.893 530.963 176.816 530.211 176.816 529.458V528.961C176.834 526.123 177.974 523.407 179.987 521.407C182 519.406 184.723 518.283 187.561 518.283H198.508C201.346 518.283 204.069 519.406 206.082 521.407C208.095 523.407 209.235 526.123 209.253 528.961V529.458C209.253 530.237 209.158 530.976 209.011 537.167H284.185C284.037 530.976 283.956 530.237 283.956 529.458V528.961C283.974 526.134 285.105 523.429 287.103 521.43C289.102 519.431 291.808 518.301 294.634 518.283H305.581C308.419 518.283 311.142 519.406 313.155 521.407C315.168 523.407 316.308 526.123 316.325 528.961V529.458C316.321 530.212 316.24 530.963 316.084 531.701H331.986V515.1C331.986 513.375 331.495 511.686 330.569 510.23C329.644 508.775 328.323 507.612 326.761 506.88L316.017 501.87Z" fill="#00FEBE" stroke="#263238" stroke-linecap="round" stroke-linejoin="round"/>
<path d="M263.313 486.962H241.111L218.318 504.355H263.313V486.962Z" fill="white" stroke="#263238" stroke-linecap="round" stroke-linejoin="round"/>
<path d="M267.047 486.962H285.125C287.484 486.96 289.778 487.734 291.653 489.165L311.584 504.355H267.047V486.962Z" fill="white" stroke="#263238" stroke-linecap="round" stroke-linejoin="round"/>
<path d="M152.949 516.779H114.67V525.227H152.949V516.779Z" fill="white" stroke="#263238" stroke-linecap="round" stroke-linejoin="round"/>
<path d="M334.9 526.731H322.477V533.689H334.9V526.731Z" fill="#263238" stroke="#263238" stroke-linecap="round" stroke-linejoin="round"/>
<path d="M166.38 525.24H113.18V533.688H166.38V525.24Z" fill="#263238" stroke="#263238" stroke-linecap="round" stroke-linejoin="round"/>
<path d="M228.325 501.87H222.738C220.988 501.87 219.568 503.289 219.568 505.04V506.155C219.568 507.905 220.988 509.324 222.738 509.324H228.325C230.076 509.324 231.495 507.905 231.495 506.155V505.04C231.495 503.289 230.076 501.87 228.325 501.87Z" fill="#263238" stroke="#263238" stroke-linecap="round" stroke-linejoin="round"/>
<path d="M150.947 517.289H142.002V524.246H150.947V517.289Z" fill="white" stroke="#263238" stroke-linecap="round" stroke-linejoin="round"/>
<path d="M125.107 517.289H116.162V524.246H125.107V517.289Z" fill="white" stroke="#263238" stroke-linecap="round" stroke-linejoin="round"/>
<path d="M125.107 519.774H141.507" stroke="#263238" stroke-linecap="round" stroke-linejoin="round"/>
<path d="M125.107 522.312H141.507" stroke="#263238" stroke-linecap="round" stroke-linejoin="round"/>
<path d="M214.961 528.706H280.182" stroke="#263238" stroke-width="2" stroke-linecap="round" stroke-linejoin="round"/>
<path d="M264.816 485.148V533.366H213.778V527.631C213.778 524.228 212.784 520.9 210.917 518.055L209.346 515.664L218.197 507.74" stroke="#263238" stroke-linecap="round" stroke-linejoin="round"/>
<path d="M312.095 505.376V516.322H292.781C290.221 516.325 287.767 517.345 285.958 519.156L284.857 520.258C283.05 522.069 282.036 524.523 282.036 527.081V532.856H267.611" stroke="#263238" stroke-linecap="round" stroke-linejoin="round"/>
<path d="M263.233 509.606H257.176V513.072H263.233V509.606Z" fill="#263238" stroke="#263238" stroke-linecap="round" stroke-linejoin="round"/>
<path d="M310.241 509.606H304.184V513.072H310.241V509.606Z" fill="#263238" stroke="#263238" stroke-linecap="round" stroke-linejoin="round"/>
<path d="M514.1 547.845C514.1 547.845 502.522 536.267 505.773 527.456C509.023 518.646 517.861 531.634 517.861 531.634C517.861 531.634 518.788 511.245 525.275 511.245C531.762 511.245 530.379 528.383 530.379 528.383C530.379 528.383 534.072 523.75 538.249 526.53C542.426 529.31 538.706 543.668 538.706 543.668C538.706 543.668 541.486 531.164 547.517 531.164C553.547 531.164 547.973 547.375 547.973 547.375" fill="#00FEBE"/>
<path d="M511.333 547.375C511.333 547.375 503.919 537.194 506.229 535.287C508.539 533.38 511.79 538.994 511.79 538.994C511.79 538.994 509.48 525.563 516.88 525.093C524.281 524.623 521.514 541.304 521.514 541.304C521.514 541.304 525.221 531.11 528.928 533.89C532.635 536.67 531.251 545.011 531.251 545.011C531.251 545.011 531.708 538.067 536.342 538.067C540.976 538.067 543.756 543.614 543.756 543.614C543.756 543.614 547.92 536.67 551.17 538.994C554.42 541.318 551.17 547.791 551.17 547.791" stroke="#263238" stroke-linecap="round" stroke-linejoin="round"/>
<path d="M367.35 547.845C367.35 547.845 359.144 539.638 361.441 533.406C363.737 527.174 369.97 536.361 369.97 536.361C369.97 536.361 370.628 521.909 375.221 521.909C379.815 521.909 378.834 534.064 378.834 534.064C378.834 534.064 381.52 530.774 384.421 532.721C387.323 534.669 384.744 544.809 384.744 544.809C384.744 544.809 386.718 535.945 390.976 535.945C395.233 535.945 391.312 547.428 391.312 547.428" fill="#00FEBE"/>
<path d="M365.376 547.509C365.376 547.509 360.125 540.297 361.777 538.981C363.429 537.664 365.712 541.667 365.712 541.667C365.712 541.667 364.073 532.144 369.325 531.822C374.576 531.5 372.602 543.306 372.602 543.306C372.602 543.306 375.221 536.08 377.854 538.054C380.486 540.028 379.492 545.925 379.492 545.925C379.492 545.925 379.828 541.009 383.105 541.009C386.382 541.009 388.357 544.944 388.357 544.944C388.357 544.944 391.312 540.015 393.608 541.667C395.905 543.319 393.608 547.899 393.608 547.899" stroke="#263238" stroke-linecap="round" stroke-linejoin="round"/>
<path d="M13.0243 547.845C13.0243 547.845 4.42838 539.249 6.83255 532.708C9.23672 526.167 15.7777 535.797 15.7777 535.797C15.7777 535.797 16.4761 520.674 21.2844 520.674C26.0928 520.674 25.072 533.393 25.072 533.393C25.072 533.393 27.7582 529.955 30.9146 532.05C34.0709 534.145 31.2638 544.769 31.2638 544.769C31.2638 544.769 33.3187 535.488 37.7913 535.488C42.2639 535.488 38.1405 547.576 38.1405 547.576" fill="#00FEBE"/>
<path d="M10.9697 547.495C10.9697 547.495 5.46294 539.934 7.18213 538.55C8.90131 537.167 11.3055 541.304 11.3055 541.304C11.3055 541.304 9.5863 531.338 15.0931 530.989C20.5998 530.639 18.5314 543.077 18.5314 543.077C18.5314 543.077 21.2177 535.515 24.0382 537.57C26.8587 539.625 25.7574 545.83 25.7574 545.83C25.7574 545.83 26.1066 540.672 29.545 540.672C32.9833 540.672 35.0517 544.796 35.0517 544.796C35.0517 544.796 38.1409 539.638 40.545 541.357C42.9492 543.077 40.545 547.898 40.545 547.898" stroke="#263238" stroke-linecap="round" stroke-linejoin="round"/>
<path d="M4.01172 548.113H556.031" stroke="#263238" stroke-linecap="round" stroke-linejoin="round"/>
</svg>
