<svg width="35" height="35" viewBox="0 0 35 35" fill="none" xmlns="http://www.w3.org/2000/svg">
<circle cx="17.5" cy="17.5" r="17.5" transform="rotate(-90 17.5 17.5)" fill="#777777"/>
<circle cx="17.4211" cy="17.4207" r="15.8371" transform="rotate(-90 17.4211 17.4207)" fill="black"/>
<g clip-path="url(#clip0_76_6159)">
<path d="M24.6455 17.4951C24.6455 17.6218 24.6255 17.7406 24.5856 17.8514C24.5463 17.9623 24.4792 18.0652 24.3842 18.1602L18.1127 24.4317C17.9226 24.6218 17.6968 24.7168 17.4352 24.7168C17.1742 24.7168 16.9486 24.6218 16.7586 24.4317C16.5686 24.2417 16.4735 24.02 16.4735 23.7666C16.4735 23.5132 16.5686 23.2915 16.7586 23.1014L21.4147 18.4453H10.7722C10.5029 18.4453 10.2812 18.3541 10.107 18.1716C9.93281 17.9898 9.8457 17.7643 9.8457 17.4951C9.8457 17.2258 9.93661 17 10.1184 16.8176C10.3009 16.6358 10.5267 16.5448 10.7959 16.5448H21.4147L16.7586 11.8887C16.5686 11.6987 16.4735 11.477 16.4735 11.2236C16.4735 10.9702 16.5686 10.7485 16.7586 10.5584C16.9486 10.3684 17.1742 10.2734 17.4352 10.2734C17.6968 10.2734 17.9226 10.3684 18.1127 10.5584L24.3842 16.8299C24.4792 16.9249 24.5463 17.0279 24.5856 17.1387C24.6255 17.2496 24.6455 17.3684 24.6455 17.4951Z" fill="#00FEBE"/>
</g>
<defs>
<clipPath id="clip0_76_6159">
<rect width="23.577" height="23.577" fill="white" transform="translate(8.38672 31.3574) rotate(-102)"/>
</clipPath>
</defs>
</svg>
