<svg width="397" height="367" viewBox="0 0 397 367" fill="none" xmlns="http://www.w3.org/2000/svg">
<path d="M242.854 71.8154C236.996 81.6737 231.138 92.2182 224.686 101.106" stroke="#263238" stroke-width="0.562611" stroke-linecap="round" stroke-linejoin="round"/>
<path d="M272.462 24.0059L245.766 67.0458" stroke="#263238" stroke-width="0.562611" stroke-linecap="round" stroke-linejoin="round"/>
<path d="M278.981 13.4863C277.826 15.3525 276.663 17.2187 275.508 19.0933" stroke="#263238" stroke-width="0.562611" stroke-linecap="round" stroke-linejoin="round"/>
<path d="M263.566 110.788L255.197 116.353" stroke="#263238" stroke-width="0.562611" stroke-linecap="round" stroke-linejoin="round"/>
<path d="M304.489 83.373C292.153 91.9676 279.801 100.52 267.29 108.303" stroke="#263238" stroke-width="0.562611" stroke-linecap="round" stroke-linejoin="round"/>
<path d="M350.6 52.8184C336.474 61.187 322.573 70.7858 308.698 80.4349" stroke="#263238" stroke-width="0.562611" stroke-linecap="round" stroke-linejoin="round"/>
<path d="M156.422 75.4141C159.133 80.1926 161.828 84.9962 164.632 89.6408" stroke="#263238" stroke-width="0.562611" stroke-linecap="round" stroke-linejoin="round"/>
<path d="M118.019 13.4863C129.877 31.8973 141.593 51.5218 153.351 70.4601" stroke="#263238" stroke-width="0.562611" stroke-linecap="round" stroke-linejoin="round"/>
<path d="M139.324 114.747L141.785 116.421" stroke="#263238" stroke-width="0.562611" stroke-linecap="round" stroke-linejoin="round"/>
<path d="M76.1582 72.9033C95.8915 86.3852 115.616 99.9006 135.576 112.236" stroke="#263238" stroke-width="0.562611" stroke-linecap="round" stroke-linejoin="round"/>
<path d="M53.9902 57.8398C60.1272 61.9628 66.2642 66.122 72.4013 70.3175" stroke="#263238" stroke-width="0.562611" stroke-linecap="round" stroke-linejoin="round"/>
<path d="M46.3994 52.8184L50.7427 55.7139" stroke="#263238" stroke-width="0.562611" stroke-linecap="round" stroke-linejoin="round"/>
<path d="M198.499 12.8418V57.84" stroke="#263238" stroke-width="0.562611" stroke-linecap="round" stroke-linejoin="round"/>
<path d="M198.499 1V7.92087" stroke="#263238" stroke-width="0.562611" stroke-linecap="round" stroke-linejoin="round"/>
<path d="M154.146 288.229C160.004 278.37 165.862 267.826 172.314 258.938" stroke="#263238" stroke-width="0.562611" stroke-linecap="round" stroke-linejoin="round"/>
<path d="M124.538 336.039L151.234 292.999" stroke="#263238" stroke-width="0.562611" stroke-linecap="round" stroke-linejoin="round"/>
<path d="M118.019 346.558C119.173 344.692 120.337 342.826 121.492 340.951" stroke="#263238" stroke-width="0.562611" stroke-linecap="round" stroke-linejoin="round"/>
<path d="M133.434 249.256L141.802 243.69" stroke="#263238" stroke-width="0.562611" stroke-linecap="round" stroke-linejoin="round"/>
<path d="M92.5107 276.671C104.846 268.077 117.198 259.524 129.709 251.741" stroke="#263238" stroke-width="0.562611" stroke-linecap="round" stroke-linejoin="round"/>
<path d="M46.3994 307.268C60.5257 298.857 74.426 289.258 88.3012 279.609" stroke="#263238" stroke-width="0.562611" stroke-linecap="round" stroke-linejoin="round"/>
<path d="M232.284 270.152C228.778 264.077 225.255 258.001 223.849 255.691" stroke="#263238" stroke-width="0.562611" stroke-linecap="round" stroke-linejoin="round"/>
<path d="M278.981 346.558C271.374 334.724 263.825 322.423 256.285 310.112" stroke="#263238" stroke-width="0.562611" stroke-linecap="round" stroke-linejoin="round"/>
<path d="M257.674 245.298L255.214 243.624" stroke="#263238" stroke-width="0.562611" stroke-linecap="round" stroke-linejoin="round"/>
<path d="M320.841 287.14C301.108 273.658 281.383 260.143 261.424 247.808" stroke="#263238" stroke-width="0.562611" stroke-linecap="round" stroke-linejoin="round"/>
<path d="M343.01 302.204C336.873 298.081 330.736 293.922 324.599 289.727" stroke="#263238" stroke-width="0.562611" stroke-linecap="round" stroke-linejoin="round"/>
<path d="M350.6 307.268L346.257 304.372" stroke="#263238" stroke-width="0.562611" stroke-linecap="round" stroke-linejoin="round"/>
<path d="M198.499 296.22V270.805" stroke="#263238" stroke-width="0.562611" stroke-linecap="round" stroke-linejoin="round"/>
<path d="M198.499 347.202V302.204" stroke="#263238" stroke-width="0.562611" stroke-linecap="round" stroke-linejoin="round"/>
<path d="M198.499 359.044V352.123" stroke="#263238" stroke-width="0.562611" stroke-linecap="round" stroke-linejoin="round"/>
<path d="M285.994 42.3994V34.4492C285.993 33.8495 286.11 33.2555 286.339 32.7012C286.568 32.1469 286.903 31.6431 287.327 31.2187C287.751 30.7943 288.254 30.4576 288.808 30.2279C289.362 29.9981 289.955 29.8799 290.555 29.8799H302.271" stroke="#263238" stroke-width="0.562611" stroke-linecap="round" stroke-linejoin="round"/>
<path d="M285.994 48.5168V46.2656" stroke="#263238" stroke-width="0.562611" stroke-linecap="round" stroke-linejoin="round"/>
<path d="M301.434 59.4047H290.555C289.954 59.4047 289.359 59.2862 288.804 59.0561C288.249 58.8259 287.745 58.4886 287.321 58.0634C286.896 57.6382 286.56 57.1335 286.331 56.5782C286.102 56.0229 285.984 55.4278 285.985 54.827V51.2285" stroke="#263238" stroke-width="0.562611" stroke-linecap="round" stroke-linejoin="round"/>
<path d="M314.271 43.0693V54.8273C314.271 56.0414 313.789 57.2057 312.93 58.0642C312.072 58.9226 310.908 59.4049 309.694 59.4049H304.003" stroke="#263238" stroke-width="0.562611" stroke-linecap="round" stroke-linejoin="round"/>
<path d="M309.693 29.8799C310.294 29.8788 310.889 29.9962 311.445 30.2253C312 30.4544 312.505 30.7908 312.93 31.2152C313.355 31.6396 313.692 32.1437 313.922 32.6987C314.153 33.2536 314.271 33.8484 314.271 34.4492V41.1441" stroke="#263238" stroke-width="0.562611" stroke-linecap="round" stroke-linejoin="round"/>
<path d="M304.003 29.8799H307.317" stroke="#263238" stroke-width="0.562611" stroke-linecap="round" stroke-linejoin="round"/>
<path d="M300.128 59.832V67.9915" stroke="#263238" stroke-width="0.562611" stroke-linecap="round" stroke-linejoin="round"/>
<path d="M300.128 51.9229V56.3582" stroke="#263238" stroke-width="0.562611" stroke-linecap="round" stroke-linejoin="round"/>
<path d="M300.128 47.1113V49.1533" stroke="#263238" stroke-width="0.562611" stroke-linecap="round" stroke-linejoin="round"/>
<path d="M296.848 66.7939L300.128 70.0159L303.409 66.7939" stroke="#263238" stroke-width="0.562611" stroke-linecap="round" stroke-linejoin="round"/>
<path d="M60.6591 106.186V114.144C60.6591 114.745 60.5407 115.34 60.3105 115.895C60.0804 116.45 59.743 116.954 59.3179 117.378C58.8927 117.802 58.388 118.139 57.8326 118.368C57.2773 118.597 56.6822 118.715 56.0815 118.713H44.4072" stroke="#263238" stroke-width="0.562611" stroke-linecap="round" stroke-linejoin="round"/>
<path d="M60.6592 100.076V102.327" stroke="#263238" stroke-width="0.562611" stroke-linecap="round" stroke-linejoin="round"/>
<path d="M45.2441 89.1885H56.0815C57.2956 89.1885 58.4599 89.6708 59.3184 90.5292C60.1769 91.3877 60.6592 92.552 60.6592 93.7661V97.3563" stroke="#263238" stroke-width="0.562611" stroke-linecap="round" stroke-linejoin="round"/>
<path d="M32.3823 105.541V93.8248C32.3734 93.2163 32.4861 92.6122 32.7138 92.0479C32.9416 91.4835 33.2797 90.9704 33.7085 90.5385C34.1372 90.1066 34.6479 89.7648 35.2106 89.533C35.7732 89.3011 36.3765 89.1841 36.9851 89.1886H42.6758" stroke="#263238" stroke-width="0.562611" stroke-linecap="round" stroke-linejoin="round"/>
<path d="M36.9843 118.714C36.384 118.715 35.7893 118.597 35.2344 118.368C34.6796 118.139 34.1754 117.802 33.7509 117.378C33.3264 116.953 32.9899 116.449 32.7606 115.894C32.5314 115.34 32.4139 114.745 32.415 114.145V107.399" stroke="#263238" stroke-width="0.562611" stroke-linecap="round" stroke-linejoin="round"/>
<path d="M42.6421 118.713H39.3281" stroke="#263238" stroke-width="0.562611" stroke-linecap="round" stroke-linejoin="round"/>
<path d="M46.5166 88.762V80.6025" stroke="#263238" stroke-width="0.562611" stroke-linecap="round" stroke-linejoin="round"/>
<path d="M46.5166 96.6707V92.2354" stroke="#263238" stroke-width="0.562611" stroke-linecap="round" stroke-linejoin="round"/>
<path d="M46.5166 101.482V99.4404" stroke="#263238" stroke-width="0.562611" stroke-linecap="round" stroke-linejoin="round"/>
<path d="M49.7973 81.7991L46.5168 78.5771L43.2363 81.7991" stroke="#263238" stroke-width="0.562611" stroke-linecap="round" stroke-linejoin="round"/>
<path d="M229.74 302.949H217.597C216.385 302.949 215.223 302.467 214.366 301.61C213.509 300.753 213.027 299.591 213.027 298.379V286.705" stroke="#263238" stroke-width="0.562611" stroke-linecap="round" stroke-linejoin="round"/>
<path d="M235.849 302.949H233.598" stroke="#263238" stroke-width="0.562611" stroke-linecap="round" stroke-linejoin="round"/>
<path d="M250.92 287.542V298.379C250.92 299.591 250.439 300.753 249.582 301.61C248.725 302.467 247.563 302.949 246.351 302.949H238.568" stroke="#263238" stroke-width="0.562611" stroke-linecap="round" stroke-linejoin="round"/>
<path d="M230.4 274.68H246.351C247.563 274.68 248.725 275.161 249.582 276.018C250.439 276.875 250.92 278.037 250.92 279.249V284.94" stroke="#263238" stroke-width="0.562611" stroke-linecap="round" stroke-linejoin="round"/>
<path d="M213.027 279.249C213.027 278.037 213.509 276.875 214.366 276.018C215.223 275.161 216.385 274.68 217.597 274.68H228.526" stroke="#263238" stroke-width="0.562611" stroke-linecap="round" stroke-linejoin="round"/>
<path d="M213.027 284.94V281.626" stroke="#263238" stroke-width="0.562611" stroke-linecap="round" stroke-linejoin="round"/>
<path d="M225.246 294.313L238.703 288.815L225.246 283.316V291.459" stroke="#263238" stroke-width="0.562611" stroke-linecap="round" stroke-linejoin="round"/>
<path d="M301.359 202.969C300.949 198.651 307.585 187.805 307.585 187.805C307.585 187.805 307.585 180.022 308.179 170.967L289.718 160.774L293.166 135.284L305.468 141.075L303.552 131.953C303.552 131.953 271.115 125.526 267.391 118.136C274.213 116.732 280.766 114.24 286.798 110.755C291.743 107.943 297.995 113.533 317.435 116.32C323.159 117.157 330.172 144.774 333.093 150.632C336.013 156.49 344.123 159.502 348.156 163.419C350.717 165.93 361.94 197.337 367.27 208.852C376.124 228 375.982 252.06 381.028 270.136L333.938 267.466C333.938 267.466 303.008 220.426 301.359 202.969Z" fill="white"/>
<path opacity="0.4" d="M314.598 192.818C316.079 202.024 310.631 212.267 303.192 210.635C302.299 208.155 301.684 205.584 301.359 202.969C300.949 198.651 307.594 187.805 307.594 187.805C307.594 187.805 307.594 180.022 308.188 170.967L289.718 160.774L293.166 135.284L305.468 141.075L303.56 131.953C303.56 131.953 271.115 125.526 267.391 118.136C274.214 116.733 280.767 114.241 286.798 110.755C289.45 109.249 292.48 110.161 297.727 111.751C298.564 115.098 300.305 118.739 309.05 119.894C309.05 119.894 311.485 147.201 317.117 154.49C317.142 154.523 312.724 181.119 314.598 192.818Z" fill="#00FEBE"/>
<path opacity="0.4" d="M348.156 163.435C348.49 163.827 348.771 164.26 348.993 164.724C345.955 160.749 342.934 162.632 342.44 164.415C341.946 166.197 349.721 206.166 347.553 203.128C345.386 200.09 339.695 175.319 338.348 165.084C337 154.849 332.138 156.289 331.485 154.356C331.067 153.109 328.582 139.108 325.15 128.58C328.448 137.041 331.41 147.334 333.067 150.648C336.046 156.506 344.156 159.519 348.156 163.435Z" fill="#00FEBE"/>
<path opacity="0.4" d="M380.576 268.437C377.924 264.713 376.308 260.068 374.576 256.328C371.597 249.867 372.258 240.268 372.258 240.268C372.258 240.268 366.961 221.732 363.153 213.781C359.663 206.509 353.27 174.809 349.889 166.432C354.014 175.068 362.76 199.111 367.27 208.869C375.848 227.422 375.982 250.578 380.576 268.437Z" fill="#00FEBE"/>
<path d="M301.359 202.969C300.949 198.651 307.585 187.805 307.585 187.805C307.585 187.805 307.585 180.022 308.179 170.967L289.718 160.774L293.166 135.284L305.468 141.075L303.552 131.953C303.552 131.953 271.115 125.526 267.391 118.136C274.213 116.732 280.766 114.24 286.798 110.755C291.743 107.943 297.995 113.533 317.435 116.32C323.159 117.157 330.172 144.774 333.093 150.632C336.013 156.49 344.123 159.502 348.156 163.419C350.717 165.93 361.94 197.337 367.27 208.852C376.124 228 375.982 252.06 381.028 270.136L333.938 267.466C333.938 267.466 303.008 220.426 301.359 202.969Z" stroke="black" stroke-width="0.562611" stroke-linecap="round" stroke-linejoin="round"/>
<path d="M309.067 164.415C309.36 156.724 303.577 131.987 303.577 131.987C303.577 131.987 304.414 123.401 309.075 122.781" stroke="black" stroke-width="0.562611" stroke-linecap="round" stroke-linejoin="round"/>
<path d="M303.535 195.479C303.535 195.479 306.883 186.332 312.833 182.349" stroke="black" stroke-width="0.562611" stroke-linecap="round" stroke-linejoin="round"/>
<path d="M311.528 156.934C309.67 159.009 307.586 167.813 307.586 187.806" stroke="black" stroke-width="0.562611" stroke-linecap="round" stroke-linejoin="round"/>
<path d="M322.599 156.875C322.599 156.875 332.348 155.084 335.478 157.26C340.424 160.699 335.813 163.436 342.792 188.425C346.19 200.584 349.027 206.643 349.027 206.643" stroke="black" stroke-width="0.562611" stroke-linecap="round" stroke-linejoin="round"/>
<path d="M340.424 159.754C340.424 159.754 346.55 160.7 348.156 163.436" stroke="black" stroke-width="0.562611" stroke-linecap="round" stroke-linejoin="round"/>
<path d="M353.228 174.164C355.587 180.022 360.759 204.182 363.153 211.463" stroke="black" stroke-width="0.562611" stroke-linecap="round" stroke-linejoin="round"/>
<path d="M95.6412 202.969C96.0512 198.651 89.4149 187.805 89.4149 187.805C89.4149 187.805 89.4149 180.022 88.8207 170.967L107.282 160.774L103.834 135.284L91.5322 141.075L93.4486 131.953C93.4486 131.953 125.885 125.526 129.609 118.136C122.787 116.732 116.234 114.24 110.203 110.755C105.257 107.943 99.0054 113.533 79.565 116.32C73.8409 117.157 66.8279 144.774 63.9073 150.632C60.9866 156.49 52.8774 159.502 48.8437 163.419C46.2829 165.93 35.0606 197.337 29.7297 208.852C20.8757 228 21.0263 252.06 15.9717 270.136L63.062 267.466C63.062 267.466 93.9925 220.426 95.6412 202.969Z" fill="white"/>
<path opacity="0.4" d="M82.4019 192.818C80.9206 202.024 86.3686 212.267 93.8083 210.635C94.7015 208.155 95.3162 205.584 95.6411 202.969C96.0511 198.651 89.4064 187.805 89.4064 187.805C89.4064 187.805 89.4064 180.022 88.8123 170.967L107.282 160.774L103.834 135.284L91.5321 141.075L93.4401 131.953C93.4401 131.953 125.885 125.526 129.609 118.136C122.786 116.733 116.233 114.241 110.203 110.755C107.55 109.249 104.52 110.161 99.2731 111.751C98.4362 115.098 96.6955 118.739 87.9503 119.894C87.9503 119.894 85.515 147.201 79.8829 154.49C79.8578 154.523 84.2765 181.119 82.4019 192.818Z" fill="#00FEBE"/>
<path opacity="0.4" d="M48.8437 163.435C48.51 163.827 48.2287 164.26 48.0068 164.724C51.0447 160.749 54.0657 162.632 54.5595 164.415C55.0532 166.197 47.2788 206.166 49.4462 203.128C51.6137 200.09 57.3044 175.319 58.6518 165.084C59.9991 154.849 64.8613 156.289 65.514 154.356C65.9325 153.109 68.418 139.108 71.8491 128.58C68.5519 137.041 65.5894 147.334 63.9324 150.648C60.9531 156.506 52.8858 159.519 48.8437 163.435Z" fill="#00FEBE"/>
<path opacity="0.4" d="M16.4238 268.437C19.0767 264.713 20.6918 260.068 22.4241 256.328C25.4034 249.867 24.7423 240.268 24.7423 240.268C24.7423 240.268 30.0396 221.732 33.8473 213.781C37.3371 206.509 43.7307 174.809 47.1116 166.432C42.9859 175.068 34.2407 199.111 29.73 208.869C21.1521 227.422 21.0182 250.578 16.4238 268.437Z" fill="#00FEBE"/>
<path d="M95.6412 202.969C96.0512 198.651 89.4149 187.805 89.4149 187.805C89.4149 187.805 89.4149 180.022 88.8207 170.967L107.282 160.774L103.834 135.284L91.5322 141.075L93.4486 131.953C93.4486 131.953 125.885 125.526 129.609 118.136C122.787 116.732 116.234 114.24 110.203 110.755C105.257 107.943 99.0054 113.533 79.565 116.32C73.8409 117.157 66.8279 144.774 63.9073 150.632C60.9866 156.49 52.8774 159.502 48.8437 163.419C46.2829 165.93 35.0606 197.337 29.7297 208.852C20.8757 228 21.0263 252.06 15.9717 270.136L63.062 267.466C63.062 267.466 93.9925 220.426 95.6412 202.969Z" stroke="black" stroke-width="0.562611" stroke-linecap="round" stroke-linejoin="round"/>
<path d="M87.9336 164.415C87.6407 156.724 93.4234 131.987 93.4234 131.987C93.4234 131.987 92.5866 123.401 87.9253 122.781" stroke="black" stroke-width="0.562611" stroke-linecap="round" stroke-linejoin="round"/>
<path d="M93.4655 195.479C93.4655 195.479 90.1181 186.332 84.168 182.349" stroke="black" stroke-width="0.562611" stroke-linecap="round" stroke-linejoin="round"/>
<path d="M85.4736 156.934C87.3315 159.009 89.4153 167.813 89.4153 187.806" stroke="black" stroke-width="0.562611" stroke-linecap="round" stroke-linejoin="round"/>
<path d="M74.4008 156.875C74.4008 156.875 64.6514 155.084 61.5215 157.26C56.5756 160.699 61.1867 163.436 54.2073 188.425C50.8096 200.584 47.9727 206.643 47.9727 206.643" stroke="black" stroke-width="0.562611" stroke-linecap="round" stroke-linejoin="round"/>
<path d="M56.5764 159.754C56.5764 159.754 50.4505 160.7 48.8438 163.436" stroke="black" stroke-width="0.562611" stroke-linecap="round" stroke-linejoin="round"/>
<path d="M43.7719 174.164C41.4119 180.022 36.2401 204.182 33.8467 211.463" stroke="black" stroke-width="0.562611" stroke-linecap="round" stroke-linejoin="round"/>
<path d="M127.132 116.697H141.359C141.422 116.697 141.485 116.71 141.544 116.734C141.603 116.759 141.657 116.794 141.702 116.839C141.747 116.885 141.783 116.938 141.807 116.997C141.831 117.056 141.844 117.119 141.844 117.183V119.928H126.646V117.183C126.646 117.119 126.659 117.056 126.683 116.997C126.708 116.938 126.744 116.885 126.789 116.839C126.834 116.794 126.887 116.759 126.946 116.734C127.005 116.71 127.068 116.697 127.132 116.697Z" fill="#757575" stroke="#263238" stroke-width="0.562611" stroke-linecap="round" stroke-linejoin="round"/>
<path d="M110.396 116.697H124.622C124.686 116.697 124.749 116.71 124.808 116.734C124.867 116.759 124.92 116.794 124.965 116.839C125.011 116.885 125.046 116.938 125.071 116.997C125.095 117.056 125.108 117.119 125.108 117.183V119.928H109.91V117.183C109.91 117.119 109.923 117.056 109.947 116.997C109.971 116.938 110.007 116.885 110.052 116.839C110.097 116.794 110.151 116.759 110.21 116.734C110.269 116.71 110.332 116.697 110.396 116.697Z" fill="#757575" stroke="#263238" stroke-width="0.562611" stroke-linecap="round" stroke-linejoin="round"/>
<path d="M296.807 118.17H100.194C95.5952 118.17 91.8672 121.898 91.8672 126.497V221.832C91.8672 226.431 95.5952 230.159 100.194 230.159H296.807C301.406 230.159 305.134 226.431 305.134 221.832V126.497C305.134 121.898 301.406 118.17 296.807 118.17Z" fill="#999999" stroke="#263238" stroke-width="0.562611" stroke-linecap="round" stroke-linejoin="round"/>
<path d="M297.987 121.609H99.0137V226.72H297.987V121.609Z" fill="#263238"/>
<mask id="mask0_76_3267" style="mask-type:luminance" maskUnits="userSpaceOnUse" x="99" y="121" width="199" height="106">
<path d="M297.987 121.609H99.0137V226.72H297.987V121.609Z" fill="white"/>
</mask>
<g mask="url(#mask0_76_3267)">
<path opacity="0.1" d="M269.065 121.609C252.059 149.059 211.58 200.844 139.3 219.573C139.3 219.573 204.576 188.952 231.69 133.669C230.745 134.69 171.595 198.576 99.0137 202.718V121.609H269.065Z" fill="#00FEBE"/>
</g>
<path d="M297.987 121.609H99.0137V226.72H297.987V121.609Z" stroke="#263238" stroke-width="0.562611" stroke-linecap="round" stroke-linejoin="round"/>
<path d="M96.779 172.089C96.779 172.323 96.7099 172.552 96.5804 172.747C96.4509 172.941 96.2668 173.094 96.0511 173.184C95.8354 173.275 95.5977 173.3 95.3679 173.256C95.1381 173.212 94.9264 173.101 94.7592 172.938C94.5921 172.774 94.477 172.565 94.4283 172.336C94.3797 172.107 94.3997 171.869 94.4858 171.651C94.5719 171.434 94.7203 171.247 94.9124 171.113C95.1044 170.979 95.3317 170.906 95.5656 170.901C95.7237 170.897 95.881 170.926 96.0281 170.984C96.1751 171.042 96.3091 171.129 96.4222 171.24C96.5352 171.35 96.625 171.483 96.6862 171.628C96.7475 171.774 96.7791 171.931 96.779 172.089Z" fill="#757575" stroke="#263238" stroke-width="0.562611" stroke-linecap="round" stroke-linejoin="round"/>
<path d="M97.4908 165.946C97.4924 166.322 97.3824 166.69 97.1747 167.004C96.9669 167.317 96.6708 167.562 96.3239 167.707C95.9769 167.852 95.5947 167.891 95.2256 167.819C94.8566 167.746 94.5173 167.566 94.2508 167.301C93.9843 167.035 93.8025 166.697 93.7285 166.328C93.6545 165.959 93.6917 165.577 93.8352 165.229C93.9787 164.882 94.2222 164.585 94.5348 164.375C94.8474 164.166 95.215 164.055 95.5911 164.055C96.0935 164.055 96.5754 164.254 96.9314 164.608C97.2874 164.963 97.4885 165.444 97.4908 165.946Z" fill="#757575" stroke="#263238" stroke-width="0.562611" stroke-linecap="round" stroke-linejoin="round"/>
<path d="M316.012 194.634C316.012 194.634 311.551 194.634 308.74 196.308C308.74 196.308 301.76 195.865 297.442 191.864C294.54 189.159 291.82 186.266 289.299 183.203C289.299 183.203 283.558 149.402 271.005 148.532C260.963 147.837 265.248 155.745 267.39 168.851C268.009 172.65 267.783 187.262 269.524 190.885C276.621 205.756 280.027 219.23 286.822 233.013C289.433 238.302 310.371 259.207 312.438 260.998C327.067 273.618 340.306 291.619 342.264 355.614L395.999 301.008C388.995 289.719 389.815 279.25 387.07 274.906C383.723 269.643 375.421 255.659 373.806 246.227" fill="white"/>
<path opacity="0.4" d="M341.713 343.211C338.508 289.208 326.072 272.772 312.423 261.006C310.356 259.215 289.417 238.31 286.806 233.021C280.011 219.238 276.605 205.765 269.508 190.893C267.768 187.253 267.993 172.658 267.374 168.859C265.474 157.226 261.901 149.695 268.127 148.632C265.466 150.046 271.935 169.629 271.433 175.411C270.931 181.194 278.555 175.361 280.873 182.257C280.873 182.257 272.923 184.098 272.923 189.521C272.923 194.944 285.174 221.598 288.321 229.373C291.468 237.147 303.384 246.11 311.661 249.24C319.938 252.37 334.943 271.751 335.796 278.706C336.65 285.66 337.169 292.162 341.604 302.205C345.705 311.41 347.462 335.135 341.713 343.211Z" fill="#00FEBE"/>
<path opacity="0.4" d="M315.485 202.525C314.824 201.036 310.682 198.55 308.188 198.458C305.694 198.366 302.079 198.717 299.426 196.274C296.773 193.83 289.894 184.014 289.342 183.219C291.853 186.261 294.559 189.137 297.443 191.83C301.769 195.83 308.74 196.274 308.74 196.274C310.396 195.429 312.202 194.918 314.054 194.767C316.942 195.939 314.59 197.722 314.59 197.722C314.59 197.722 316.147 204.015 315.485 202.525Z" fill="#00FEBE"/>
<path d="M396 301.008C388.996 289.718 389.816 279.249 387.071 274.906C383.723 269.642 375.422 255.658 373.807 246.227" stroke="black" stroke-width="0.562611" stroke-linecap="round" stroke-linejoin="round"/>
<path d="M316.012 194.634C316.012 194.634 311.551 194.634 308.74 196.308C308.74 196.308 301.76 195.865 297.442 191.864C294.54 189.159 291.82 186.266 289.299 183.203C289.299 183.203 283.558 149.402 271.005 148.532C260.963 147.837 265.248 155.745 267.39 168.851C268.009 172.65 267.783 187.262 269.524 190.885C276.621 205.756 280.027 219.23 286.822 233.013C289.433 238.302 310.371 259.207 312.438 260.998C327.067 273.618 340.306 291.619 342.264 355.614" stroke="black" stroke-width="0.562611" stroke-linecap="round" stroke-linejoin="round"/>
<path d="M308.74 196.274C311.145 197.002 313.218 198.551 314.598 200.651" stroke="black" stroke-width="0.562611" stroke-linecap="round" stroke-linejoin="round"/>
<path d="M282.187 182.348C282.187 182.348 272.253 180.909 270.044 187.805" stroke="black" stroke-width="0.562611" stroke-linecap="round" stroke-linejoin="round"/>
<path d="M80.9875 194.634C80.9875 194.634 85.448 194.634 88.2598 196.308C88.2598 196.308 95.2393 195.865 99.5575 191.864C102.459 189.159 105.179 186.266 107.7 183.203C107.7 183.203 113.441 149.402 125.994 148.532C136.036 147.837 131.752 155.745 129.609 168.851C128.99 172.65 129.216 187.262 127.475 190.885C120.379 205.756 116.973 219.23 110.177 233.013C107.566 238.302 86.628 259.207 84.5609 260.998C69.9325 273.618 56.6933 291.619 54.7351 355.614L1 301.008C8.00455 289.719 7.18443 279.25 9.92934 274.906C13.2768 269.643 21.5785 255.659 23.1936 246.227" fill="white"/>
<path opacity="0.4" d="M55.2872 343.211C58.4924 289.208 70.9282 272.772 84.5774 261.006C86.6445 259.215 107.583 238.31 110.194 233.021C116.989 219.238 120.395 205.765 127.492 190.893C129.232 187.253 129.007 172.658 129.626 168.859C131.526 157.226 135.099 149.695 128.873 148.632C131.534 150.046 125.065 169.629 125.567 175.411C126.069 181.194 118.445 175.361 116.127 182.257C116.127 182.257 124.077 184.098 124.077 189.521C124.077 194.944 111.826 221.598 108.679 229.373C105.532 237.147 93.6156 246.11 85.339 249.24C77.0624 252.37 62.0574 271.751 61.2038 278.706C60.3502 285.66 59.8313 292.162 55.396 302.205C51.2953 311.41 49.5379 335.135 55.2872 343.211Z" fill="#00FEBE"/>
<path opacity="0.4" d="M81.5147 202.525C82.1758 201.036 86.3183 198.55 88.8122 198.458C91.306 198.366 94.9213 198.717 97.5741 196.274C100.227 193.83 107.106 184.014 107.616 183.219C105.105 186.261 102.399 189.137 99.5156 191.83C95.1891 195.83 88.218 196.274 88.218 196.274C86.562 195.429 84.7567 194.918 82.9039 194.767C80.0167 195.939 82.3683 197.722 82.3683 197.722C82.3683 197.722 80.8536 204.015 81.5147 202.525Z" fill="#00FEBE"/>
<path d="M1 301.008C8.00455 289.718 7.18443 279.249 9.92934 274.906C13.2768 269.642 21.5785 255.658 23.1936 246.227" stroke="black" stroke-width="0.562611" stroke-linecap="round" stroke-linejoin="round"/>
<path d="M80.9878 194.634C80.9878 194.634 85.4483 194.634 88.2601 196.308C88.2601 196.308 95.2396 195.865 99.5578 191.864C102.459 189.159 105.179 186.266 107.7 183.203C107.7 183.203 113.441 149.402 125.994 148.532C136.037 147.837 131.752 155.745 129.61 168.851C128.99 172.65 129.216 187.262 127.476 190.885C120.379 205.756 116.973 219.23 110.178 233.013C107.567 238.302 86.6283 259.207 84.5612 260.998C69.9328 273.618 56.6936 291.619 54.7354 355.614" stroke="black" stroke-width="0.562611" stroke-linecap="round" stroke-linejoin="round"/>
<path d="M88.2604 196.274C85.8554 197.002 83.7822 198.551 82.4023 200.651" stroke="black" stroke-width="0.562611" stroke-linecap="round" stroke-linejoin="round"/>
<path d="M114.813 182.348C114.813 182.348 124.747 180.909 126.956 187.805" stroke="black" stroke-width="0.562611" stroke-linecap="round" stroke-linejoin="round"/>
<path d="M224.535 136.957L220.351 144.221C226.615 147.823 231.906 152.899 235.766 159.008L242.846 154.548C238.26 147.285 231.976 141.248 224.535 136.957Z" fill="white"/>
<path d="M172.029 137.107L176.214 144.346C182.46 140.72 189.5 138.683 196.717 138.413L196.407 130.044C187.825 130.366 179.454 132.792 172.029 137.107Z" fill="white"/>
<path d="M152.865 156.364L160.121 160.548C163.732 154.29 168.813 149.005 174.925 145.15L170.464 138.062C163.201 142.645 157.161 148.926 152.865 156.364Z" fill="white"/>
<path d="M145.929 184.466C146.243 193.053 148.66 201.433 152.967 208.869L160.206 204.684C156.585 198.434 154.554 191.391 154.289 184.173L145.929 184.466Z" fill="white"/>
<path d="M154.263 182.533C154.262 175.337 156.017 168.25 159.376 161.887L151.979 157.971C147.977 165.557 145.888 174.006 145.895 182.583L154.263 182.625V182.533Z" fill="white"/>
<path d="M198.375 130.011H198.274V138.379H198.417C205.596 138.382 212.667 140.131 219.02 143.476L222.928 136.078C215.358 132.091 206.931 130.008 198.375 130.011Z" fill="white"/>
<path d="M250.929 182.349H242.561V182.533C242.56 189.753 240.793 196.864 237.414 203.245L244.795 207.178C248.831 199.573 250.938 191.093 250.929 182.483V182.349Z" fill="white"/>
<path d="M250.896 180.499C250.564 171.91 248.13 163.534 243.808 156.104L236.577 160.289C240.218 166.553 242.262 173.618 242.527 180.859L250.896 180.499Z" fill="white"/>
<path opacity="0.8" d="M224.535 136.957L220.351 144.221C226.615 147.823 231.906 152.899 235.766 159.008L242.846 154.548C238.26 147.285 231.976 141.248 224.535 136.957Z" fill="#00FEBE"/>
<path opacity="0.6" d="M172.029 137.107L176.214 144.346C182.46 140.72 189.5 138.683 196.717 138.413L196.407 130.044C187.825 130.366 179.454 132.792 172.029 137.107Z" fill="#00FEBE"/>
<path opacity="0.5" d="M152.865 156.364L160.121 160.548C163.732 154.29 168.813 149.005 174.925 145.15L170.464 138.062C163.201 142.645 157.161 148.926 152.865 156.364Z" fill="#00FEBE"/>
<path opacity="0.3" d="M145.929 184.466C146.243 193.053 148.66 201.433 152.967 208.869L160.206 204.684C156.585 198.434 154.554 191.391 154.289 184.173L145.929 184.466Z" fill="#00FEBE"/>
<path opacity="0.4" d="M154.263 182.533C154.262 175.337 156.017 168.25 159.376 161.887L151.979 157.971C147.977 165.557 145.888 174.006 145.895 182.583L154.263 182.625V182.533Z" fill="#00FEBE"/>
<path opacity="0.7" d="M198.375 130.011H198.274V138.379H198.417C205.596 138.382 212.667 140.131 219.02 143.476L222.928 136.078C215.358 132.091 206.931 130.008 198.375 130.011Z" fill="#00FEBE"/>
<path d="M250.929 182.349H242.561V182.533C242.56 189.753 240.793 196.864 237.414 203.245L244.795 207.178C248.831 199.573 250.938 191.093 250.929 182.483V182.349Z" fill="#00FEBE"/>
<path opacity="0.9" d="M250.896 180.499C250.564 171.91 248.13 163.534 243.808 156.104L236.577 160.289C240.218 166.553 242.262 173.618 242.527 180.859L250.896 180.499Z" fill="#00FEBE"/>
<path d="M224.535 136.957L220.351 144.221C226.615 147.823 231.906 152.899 235.766 159.008L242.846 154.548C238.26 147.285 231.976 141.248 224.535 136.957Z" stroke="#263238" stroke-width="0.562611" stroke-linecap="round" stroke-linejoin="round"/>
<path d="M172.029 137.107L176.214 144.346C182.46 140.72 189.5 138.683 196.717 138.413L196.407 130.044C187.825 130.366 179.454 132.792 172.029 137.107Z" stroke="#263238" stroke-width="0.562611" stroke-linecap="round" stroke-linejoin="round"/>
<path d="M152.865 156.364L160.121 160.548C163.732 154.29 168.813 149.005 174.925 145.15L170.464 138.062C163.201 142.645 157.161 148.926 152.865 156.364Z" stroke="#263238" stroke-width="0.562611" stroke-linecap="round" stroke-linejoin="round"/>
<path d="M145.929 184.466C146.243 193.053 148.66 201.433 152.967 208.869L160.206 204.684C156.585 198.434 154.554 191.391 154.289 184.173L145.929 184.466Z" stroke="#263238" stroke-width="0.562611" stroke-linecap="round" stroke-linejoin="round"/>
<path d="M154.263 182.533C154.262 175.337 156.017 168.25 159.376 161.887L151.979 157.971C147.977 165.557 145.888 174.006 145.895 182.583L154.263 182.625V182.533Z" stroke="#263238" stroke-width="0.562611" stroke-linecap="round" stroke-linejoin="round"/>
<path d="M198.375 130.011H198.274V138.379H198.417C205.596 138.382 212.667 140.131 219.02 143.476L222.928 136.078C215.358 132.091 206.931 130.008 198.375 130.011Z" stroke="#263238" stroke-width="0.562611" stroke-linecap="round" stroke-linejoin="round"/>
<path d="M250.929 182.349H242.561V182.533C242.56 189.753 240.793 196.864 237.414 203.245L244.795 207.178C248.831 199.573 250.938 191.093 250.929 182.483V182.349Z" stroke="#263238" stroke-width="0.562611" stroke-linecap="round" stroke-linejoin="round"/>
<path d="M250.896 180.499C250.564 171.91 248.13 163.534 243.808 156.104L236.577 160.289C240.218 166.553 242.262 173.618 242.527 180.859L250.896 180.499Z" stroke="#263238" stroke-width="0.562611" stroke-linecap="round" stroke-linejoin="round"/>
<path d="M199.11 179.26L237.414 190.892L197.713 185.804L199.11 179.26Z" fill="#00FEBE" stroke="#263238" stroke-width="0.562611" stroke-linecap="round" stroke-linejoin="round"/>
<path d="M203.68 182.532C203.68 183.575 203.371 184.595 202.791 185.462C202.211 186.329 201.388 187.005 200.424 187.404C199.46 187.803 198.399 187.906 197.376 187.702C196.353 187.498 195.414 186.995 194.677 186.257C193.94 185.519 193.439 184.579 193.236 183.555C193.034 182.532 193.139 181.472 193.539 180.509C193.94 179.545 194.617 178.723 195.485 178.144C196.353 177.566 197.373 177.258 198.416 177.26C199.813 177.262 201.152 177.818 202.139 178.807C203.126 179.795 203.68 181.135 203.68 182.532Z" fill="#757575" stroke="#263238" stroke-width="0.562611" stroke-linecap="round" stroke-linejoin="round"/>
<path d="M198.416 186.131C197.704 186.132 197.008 185.923 196.415 185.528C195.822 185.134 195.36 184.572 195.086 183.915C194.812 183.258 194.74 182.534 194.878 181.835C195.016 181.137 195.358 180.495 195.861 179.991C196.364 179.486 197.005 179.143 197.703 179.003C198.401 178.864 199.125 178.935 199.783 179.207C200.441 179.479 201.004 179.94 201.4 180.532C201.795 181.124 202.007 181.82 202.007 182.532C202.004 183.484 201.626 184.397 200.953 185.071C200.281 185.745 199.369 186.126 198.416 186.131Z" fill="#999999" stroke="#263238" stroke-width="0.562611" stroke-linecap="round" stroke-linejoin="round"/>
<path d="M210.551 147.719H186.273C184.781 147.719 183.57 148.929 183.57 150.422V169.076C183.57 170.568 184.781 171.779 186.273 171.779H210.551C212.044 171.779 213.254 170.568 213.254 169.076V150.422C213.254 148.929 212.044 147.719 210.551 147.719Z" fill="#00FEBE" stroke="#263238" stroke-width="0.562611" stroke-linecap="round" stroke-linejoin="round"/>
<path d="M193.119 153.184C193.037 153.093 192.936 153.021 192.823 152.973C192.71 152.925 192.588 152.903 192.466 152.907C191.88 152.907 191.629 153.267 191.629 153.97V155.125H190.039V154.079C189.987 153.354 190.218 152.637 190.684 152.079C191.201 151.625 191.866 151.375 192.554 151.375C193.242 151.375 193.907 151.625 194.424 152.079C194.89 152.637 195.121 153.354 195.069 154.079C195.074 154.65 194.975 155.217 194.776 155.753C194.596 156.221 194.354 156.663 194.056 157.067C193.78 157.435 193.42 157.862 192.985 158.339C192.638 158.718 192.313 159.117 192.014 159.535C191.822 159.817 191.717 160.149 191.713 160.489C191.708 160.567 191.708 160.646 191.713 160.724H194.91V162.255H190.031V160.933C190.023 160.477 190.1 160.023 190.257 159.594C190.395 159.222 190.587 158.873 190.826 158.556C191.052 158.255 191.345 157.912 191.713 157.51C192.081 157.108 192.391 156.74 192.608 156.456C192.839 156.15 193.022 155.812 193.152 155.451C193.309 155.034 193.385 154.591 193.378 154.146C193.404 153.805 193.313 153.465 193.119 153.184Z" fill="#263238"/>
<path d="M197.596 159.778C197.596 160.473 197.888 160.816 198.432 160.816C198.976 160.816 199.269 160.473 199.269 159.778V157.427C199.269 156.724 198.976 156.364 198.432 156.364C197.888 156.364 197.596 156.724 197.596 157.427V157.753H195.989L196.298 151.519H200.75V153.05H197.813L197.679 155.619C197.828 155.364 198.044 155.156 198.304 155.017C198.564 154.878 198.858 154.814 199.152 154.833C199.418 154.818 199.684 154.868 199.927 154.977C200.17 155.086 200.383 155.252 200.55 155.46C200.903 156.003 201.07 156.646 201.027 157.293V159.686C201.075 160.411 200.844 161.126 200.382 161.686C199.863 162.139 199.197 162.389 198.508 162.389C197.819 162.389 197.153 162.139 196.633 161.686C196.171 161.126 195.94 160.411 195.989 159.686V158.791H197.587L197.596 159.778Z" fill="#263238"/>
<path d="M204.625 151.375C204.97 151.353 205.315 151.403 205.639 151.525C205.962 151.646 206.256 151.835 206.5 152.078C206.962 152.638 207.193 153.354 207.144 154.079V154.355H205.546V153.97C205.546 153.267 205.253 152.907 204.709 152.907C204.576 152.895 204.442 152.916 204.318 152.967C204.194 153.018 204.084 153.098 203.998 153.2C203.819 153.512 203.741 153.871 203.772 154.229V156.196C203.9 155.893 204.12 155.638 204.401 155.467C204.682 155.296 205.009 155.217 205.337 155.242C205.604 155.229 205.87 155.279 206.113 155.39C206.356 155.501 206.569 155.668 206.734 155.878C207.087 156.418 207.254 157.058 207.211 157.702V159.669C207.255 160.393 207.019 161.106 206.55 161.661C206.3 161.906 206 162.096 205.672 162.218C205.343 162.341 204.992 162.393 204.642 162.372C204.293 162.396 203.943 162.345 203.615 162.223C203.287 162.1 202.99 161.908 202.743 161.661C202.27 161.109 202.033 160.394 202.081 159.669V154.171C202.059 152.307 202.907 151.375 204.625 151.375ZM203.738 157.836V159.778C203.738 160.472 204.023 160.815 204.575 160.815C205.128 160.815 205.454 160.472 205.454 159.778V157.836C205.454 157.133 205.161 156.782 204.575 156.782C204.023 156.782 203.738 157.133 203.738 157.836Z" fill="#263238"/>
<path d="M195.395 163.494H196.341V167.846H195.696V164.724L195.228 167.846H194.575L194.073 164.766V167.846H193.479V163.494H194.433L194.935 166.582L195.395 163.494Z" fill="#263238"/>
<path d="M198.634 163.745C198.724 163.847 198.791 163.967 198.833 164.097C198.875 164.226 198.89 164.363 198.876 164.498V164.649C198.885 164.839 198.848 165.029 198.768 165.201C198.702 165.346 198.586 165.462 198.441 165.528C198.614 165.608 198.755 165.742 198.846 165.909C198.936 166.076 198.97 166.268 198.943 166.457V166.808C198.961 166.948 198.946 167.09 198.901 167.223C198.855 167.356 198.78 167.477 198.681 167.577C198.582 167.677 198.461 167.753 198.329 167.8C198.196 167.846 198.054 167.862 197.914 167.846H196.826V163.494H197.856C197.996 163.48 198.137 163.496 198.271 163.539C198.405 163.582 198.528 163.652 198.634 163.745ZM197.521 165.268H197.789C197.844 165.273 197.899 165.266 197.951 165.247C198.003 165.229 198.051 165.199 198.09 165.159C198.132 165.112 198.163 165.056 198.182 164.995C198.2 164.935 198.206 164.871 198.199 164.808V164.565C198.206 164.445 198.176 164.326 198.115 164.222C198.08 164.187 198.038 164.16 197.992 164.143C197.946 164.125 197.896 164.118 197.847 164.122H197.521V165.268ZM197.521 167.218H197.914C197.962 167.224 198.01 167.218 198.055 167.202C198.1 167.187 198.14 167.16 198.174 167.126C198.243 167.029 198.276 166.91 198.266 166.791V166.415C198.281 166.27 198.246 166.125 198.165 166.005C198.119 165.963 198.065 165.931 198.006 165.911C197.947 165.891 197.884 165.883 197.822 165.887H197.521V167.218Z" fill="#263238"/>
<path d="M201.127 163.769C201.317 164.005 201.407 164.305 201.378 164.606V165.167C201.407 165.468 201.317 165.769 201.127 166.004C201.025 166.101 200.904 166.176 200.771 166.224C200.639 166.272 200.497 166.291 200.357 166.28H200.039V167.912H199.336V163.56H200.34C200.479 163.538 200.62 163.546 200.756 163.582C200.891 163.618 201.018 163.682 201.127 163.769ZM200.039 165.585H200.357C200.403 165.591 200.45 165.586 200.494 165.57C200.537 165.554 200.576 165.528 200.608 165.493C200.675 165.402 200.705 165.288 200.692 165.175V164.531C200.705 164.418 200.675 164.305 200.608 164.213C200.576 164.179 200.537 164.153 200.494 164.137C200.45 164.121 200.403 164.115 200.357 164.121H200.039V165.585Z" fill="#263238"/>
<path d="M201.847 163.728C202.056 163.55 202.321 163.452 202.596 163.452C202.87 163.452 203.136 163.55 203.345 163.728C203.538 163.962 203.631 164.263 203.604 164.565V164.699H202.96V164.523C202.969 164.407 202.936 164.291 202.868 164.197C202.836 164.162 202.797 164.136 202.753 164.118C202.71 164.101 202.663 164.093 202.617 164.096C202.569 164.093 202.521 164.1 202.476 164.117C202.431 164.135 202.391 164.162 202.357 164.197C202.292 164.292 202.262 164.408 202.274 164.523C202.272 164.693 202.321 164.859 202.416 165C202.549 165.169 202.698 165.326 202.859 165.469C202.998 165.589 203.127 165.721 203.244 165.862C203.35 165.985 203.438 166.123 203.504 166.272C203.574 166.448 203.608 166.635 203.604 166.824C203.631 167.127 203.538 167.427 203.345 167.661C203.246 167.758 203.128 167.832 202.998 167.88C202.868 167.928 202.73 167.947 202.592 167.937C202.452 167.947 202.313 167.928 202.182 167.88C202.05 167.833 201.931 167.758 201.83 167.661C201.641 167.425 201.548 167.126 201.571 166.824V166.557H202.215V166.866C202.215 167.151 202.332 167.293 202.575 167.293C202.818 167.293 202.926 167.151 202.926 166.866C202.931 166.695 202.878 166.527 202.776 166.389C202.648 166.218 202.502 166.061 202.341 165.921C202.201 165.798 202.07 165.667 201.947 165.527C201.844 165.404 201.759 165.266 201.696 165.117C201.623 164.942 201.586 164.754 201.587 164.565C201.565 164.263 201.658 163.964 201.847 163.728Z" fill="#263238"/>
<path d="M187.077 213.739C187.077 214.702 186.791 215.644 186.256 216.445C185.721 217.246 184.96 217.87 184.07 218.239C183.18 218.607 182.201 218.704 181.256 218.516C180.312 218.328 179.444 217.864 178.762 217.183C178.081 216.502 177.617 215.634 177.43 214.689C177.242 213.744 177.338 212.765 177.707 211.875C178.075 210.985 178.7 210.224 179.501 209.689C180.302 209.154 181.243 208.868 182.206 208.868C183.498 208.868 184.737 209.381 185.65 210.295C186.564 211.208 187.077 212.447 187.077 213.739Z" fill="#00FEBE"/>
<path d="M219.488 213.739C219.488 214.702 219.203 215.644 218.667 216.445C218.132 217.246 217.371 217.87 216.482 218.239C215.592 218.607 214.612 218.704 213.667 218.516C212.723 218.328 211.855 217.864 211.174 217.183C210.492 216.502 210.029 215.634 209.841 214.689C209.653 213.744 209.749 212.765 210.118 211.875C210.486 210.985 211.111 210.224 211.912 209.689C212.713 209.154 213.654 208.868 214.618 208.868C215.258 208.867 215.891 208.992 216.483 209.237C217.074 209.481 217.612 209.84 218.064 210.292C218.517 210.745 218.875 211.282 219.12 211.874C219.364 212.465 219.489 213.099 219.488 213.739Z" fill="#92E3A9" fill-opacity="0.7"/>
<path opacity="0.5" d="M187.077 213.739C187.077 214.702 186.791 215.644 186.256 216.445C185.721 217.246 184.96 217.87 184.07 218.239C183.18 218.607 182.201 218.704 181.256 218.516C180.312 218.328 179.444 217.864 178.762 217.183C178.081 216.502 177.617 215.634 177.43 214.689C177.242 213.744 177.338 212.765 177.707 211.875C178.075 210.985 178.7 210.224 179.501 209.689C180.302 209.154 181.243 208.868 182.206 208.868C183.498 208.868 184.737 209.381 185.65 210.295C186.564 211.208 187.077 212.447 187.077 213.739Z" fill="white"/>
<path d="M203.287 213.739C203.289 214.704 203.004 215.649 202.468 216.452C201.933 217.256 201.171 217.883 200.279 218.253C199.387 218.623 198.406 218.721 197.458 218.533C196.511 218.345 195.641 217.88 194.958 217.197C194.275 216.514 193.811 215.644 193.623 214.697C193.435 213.75 193.532 212.768 193.902 211.876C194.273 210.984 194.899 210.222 195.703 209.687C196.506 209.151 197.451 208.867 198.417 208.868C199.708 208.868 200.947 209.381 201.861 210.295C202.774 211.208 203.287 212.447 203.287 213.739Z" fill="#00FEBE"/>
<path opacity="0.5" d="M219.488 213.739C219.488 214.702 219.203 215.644 218.667 216.445C218.132 217.246 217.371 217.87 216.482 218.239C215.592 218.607 214.612 218.704 213.667 218.516C212.723 218.328 211.855 217.864 211.174 217.183C210.492 216.502 210.029 215.634 209.841 214.689C209.653 213.744 209.749 212.765 210.118 211.875C210.486 210.985 211.111 210.224 211.912 209.689C212.713 209.154 213.654 208.868 214.618 208.868C215.258 208.867 215.891 208.992 216.483 209.237C217.074 209.481 217.612 209.84 218.064 210.292C218.517 210.745 218.875 211.282 219.12 211.874C219.364 212.465 219.489 213.099 219.488 213.739Z" fill="black" fill-opacity="0.7"/>
<path d="M187.077 213.739C187.077 214.702 186.791 215.644 186.256 216.445C185.721 217.246 184.96 217.87 184.07 218.239C183.18 218.607 182.201 218.704 181.256 218.516C180.312 218.328 179.444 217.864 178.762 217.183C178.081 216.502 177.617 215.634 177.43 214.689C177.242 213.744 177.338 212.765 177.707 211.875C178.075 210.985 178.7 210.224 179.501 209.689C180.302 209.154 181.243 208.868 182.206 208.868C183.498 208.868 184.737 209.381 185.65 210.295C186.564 211.208 187.077 212.447 187.077 213.739Z" stroke="#263238" stroke-width="0.562611" stroke-linecap="round" stroke-linejoin="round"/>
<path d="M203.287 213.739C203.289 214.704 203.004 215.649 202.468 216.452C201.933 217.256 201.171 217.883 200.279 218.253C199.387 218.623 198.406 218.721 197.458 218.533C196.511 218.345 195.641 217.88 194.958 217.197C194.275 216.514 193.811 215.644 193.623 214.697C193.435 213.75 193.532 212.768 193.902 211.876C194.273 210.984 194.899 210.222 195.703 209.687C196.506 209.151 197.451 208.867 198.417 208.868C199.708 208.868 200.947 209.381 201.861 210.295C202.774 211.208 203.287 212.447 203.287 213.739Z" stroke="#263238" stroke-width="0.562611" stroke-linecap="round" stroke-linejoin="round"/>
<path d="M219.488 213.739C219.488 214.702 219.203 215.644 218.667 216.445C218.132 217.246 217.371 217.87 216.482 218.239C215.592 218.607 214.612 218.704 213.667 218.516C212.723 218.328 211.855 217.864 211.174 217.183C210.492 216.502 210.029 215.634 209.841 214.689C209.653 213.744 209.749 212.765 210.118 211.875C210.486 210.985 211.111 210.224 211.912 209.689C212.713 209.154 213.654 208.868 214.618 208.868C215.258 208.867 215.891 208.992 216.483 209.237C217.074 209.481 217.612 209.84 218.064 210.292C218.517 210.745 218.875 211.282 219.12 211.874C219.364 212.465 219.489 213.099 219.488 213.739Z" stroke="#263238" stroke-width="0.562611" stroke-linecap="round" stroke-linejoin="round"/>
<path d="M176.34 81.8911C182.195 76.0392 190.134 72.752 198.412 72.752C206.69 72.752 214.629 76.0392 220.484 81.8911" stroke="#263238" stroke-width="1.68783" stroke-linecap="round" stroke-linejoin="round"/>
<path d="M183.671 89.2217C187.583 85.3159 192.884 83.1221 198.412 83.1221C203.94 83.1221 209.242 85.3159 213.154 89.2217" stroke="#263238" stroke-width="1.68783" stroke-linecap="round" stroke-linejoin="round"/>
<path d="M190.584 96.1428C191.612 95.1137 192.832 94.2973 194.175 93.7402C195.519 93.1832 196.959 92.8965 198.413 92.8965C199.867 92.8965 201.307 93.1832 202.65 93.7402C203.994 94.2973 205.214 95.1137 206.242 96.1428" stroke="#263238" stroke-width="1.68783" stroke-linecap="round" stroke-linejoin="round"/>
<path d="M198.417 107.098C200.146 107.098 201.547 105.696 201.547 103.968C201.547 102.239 200.146 100.838 198.417 100.838C196.688 100.838 195.287 102.239 195.287 103.968C195.287 105.696 196.688 107.098 198.417 107.098Z" fill="#263238"/>
</svg>
