<svg xmlns="http://www.w3.org/2000/svg" viewBox="0 0 500 500"><g id="freepik--background-simple--inject-39"><path d="M437,428a58.28,58.28,0,0,0,13.79-11.5c29.3-33.9,29-81.73,27-122.94-2.38-48.65-11.38-97.32-37.41-140.23C415.3,112,377.5,76.83,330.19,58A215.65,215.65,0,0,0,289.58,46.4a170.44,170.44,0,0,0-77.5,3.47,239.53,239.53,0,0,0-28,10.08C121.82,86.49,113.17,141.2,89,195.9c-17.13,38.72-57.43,64-74.52,102.8C-4.69,342.13,26,389.58,65.12,412.89a158.86,158.86,0,0,0,28.5,13.23c93,32.72,197.91,42.75,294.73,18.94C404.64,441.05,422.69,436.8,437,428Z" style="fill:#92E3A9"></path><path d="M437,428a58.28,58.28,0,0,0,13.79-11.5c29.3-33.9,29-81.73,27-122.94-2.38-48.65-11.38-97.32-37.41-140.23C415.3,112,377.5,76.83,330.19,58A215.65,215.65,0,0,0,289.58,46.4a170.44,170.44,0,0,0-77.5,3.47,239.53,239.53,0,0,0-28,10.08C121.82,86.49,113.17,141.2,89,195.9c-17.13,38.72-57.43,64-74.52,102.8C-4.69,342.13,26,389.58,65.12,412.89a158.86,158.86,0,0,0,28.5,13.23c93,32.72,197.91,42.75,294.73,18.94C404.64,441.05,422.69,436.8,437,428Z" style="fill:#fff;opacity:0.7000000000000001"></path></g><g id="freepik--Plant--inject-39"><line x1="37.27" y1="280.29" x2="51.19" y2="413.72" style="fill:none;stroke:#263238;stroke-miterlimit:10;stroke-width:2px"></line><line x1="48.95" y1="388.18" x2="42.63" y2="381.52" style="fill:none;stroke:#263238;stroke-miterlimit:10;stroke-width:2px"></line><path d="M44.55,383.51A7.15,7.15,0,0,0,42,378.16c-1.62-1.45-10.15-5-11-2C30.2,379.4,38.93,385.81,44.55,383.51Z" style="fill:#92E3A9;stroke:#263238;stroke-miterlimit:10"></path><line x1="44.55" y1="383.51" x2="36.43" y2="378.46" style="fill:none;stroke:#263238;stroke-miterlimit:10;stroke-width:0.5px"></line><line x1="50.53" y1="403.36" x2="44.22" y2="396.69" style="fill:none;stroke:#263238;stroke-miterlimit:10;stroke-width:2px"></line><path d="M46.13,398.69a7.12,7.12,0,0,0-2.51-5.36c-1.62-1.44-10.15-5-10.95-2C31.79,394.57,40.51,401,46.13,398.69Z" style="fill:#92E3A9;stroke:#263238;stroke-miterlimit:10"></path><line x1="46.13" y1="398.69" x2="38.02" y2="393.63" style="fill:none;stroke:#263238;stroke-miterlimit:10;stroke-width:0.5px"></line><line x1="45.08" y1="351.16" x2="38.77" y2="344.49" style="fill:none;stroke:#263238;stroke-miterlimit:10;stroke-width:2px"></line><path d="M40.69,346.49a7.16,7.16,0,0,0-2.52-5.36c-1.62-1.44-10.14-5-11-2C26.34,342.37,35.07,348.78,40.69,346.49Z" style="fill:#92E3A9;stroke:#263238;stroke-miterlimit:10"></path><line x1="40.69" y1="346.49" x2="32.57" y2="341.43" style="fill:none;stroke:#263238;stroke-miterlimit:10;stroke-width:0.5px"></line><line x1="46.67" y1="366.33" x2="40.35" y2="359.66" style="fill:none;stroke:#263238;stroke-miterlimit:10;stroke-width:2px"></line><path d="M42.27,361.66a7.14,7.14,0,0,0-2.51-5.35c-1.62-1.45-10.15-5-11-2C27.92,357.54,36.65,364,42.27,361.66Z" style="fill:#92E3A9;stroke:#263238;stroke-miterlimit:10"></path><line x1="42.27" y1="361.66" x2="34.15" y2="356.6" style="fill:none;stroke:#263238;stroke-miterlimit:10;stroke-width:0.5px"></line><line x1="42.51" y1="326.51" x2="36.2" y2="319.84" style="fill:none;stroke:#263238;stroke-miterlimit:10;stroke-width:2px"></line><path d="M38.11,321.84a7.12,7.12,0,0,0-2.51-5.36c-1.62-1.44-10.15-5-11-2C23.77,317.72,32.49,324.13,38.11,321.84Z" style="fill:#92E3A9;stroke:#263238;stroke-miterlimit:10"></path><line x1="38.11" y1="321.84" x2="30" y2="316.78" style="fill:none;stroke:#263238;stroke-miterlimit:10;stroke-width:0.5px"></line><line x1="39.93" y1="301.75" x2="33.61" y2="295.08" style="fill:none;stroke:#263238;stroke-miterlimit:10;stroke-width:2px"></line><path d="M35.53,297.08A7.14,7.14,0,0,0,33,291.73c-1.62-1.45-10.15-5-11-2C21.18,293,29.91,299.38,35.53,297.08Z" style="fill:#92E3A9;stroke:#263238;stroke-miterlimit:10"></path><line x1="35.53" y1="297.08" x2="27.41" y2="292.02" style="fill:none;stroke:#263238;stroke-miterlimit:10;stroke-width:0.5px"></line><line x1="47.88" y1="379.21" x2="52.68" y2="371.38" style="fill:none;stroke:#263238;stroke-miterlimit:10;stroke-width:2px"></line><path d="M51.22,373.73A7.14,7.14,0,0,1,52.57,368c1.29-1.75,8.89-7,10.3-4.25C64.41,366.74,57.19,374.82,51.22,373.73Z" style="fill:#92E3A9;stroke:#263238;stroke-miterlimit:10"></path><line x1="51.22" y1="373.73" x2="58.53" y2="366.74" style="fill:none;stroke:#263238;stroke-miterlimit:10;stroke-width:0.5px"></line><line x1="43.72" y1="339.28" x2="48.52" y2="331.45" style="fill:none;stroke:#263238;stroke-miterlimit:10;stroke-width:2px"></line><path d="M47.05,333.8A7.17,7.17,0,0,1,48.41,328c1.28-1.75,8.89-7,10.3-4.25C60.24,326.81,53,334.88,47.05,333.8Z" style="fill:#92E3A9;stroke:#263238;stroke-miterlimit:10"></path><line x1="47.05" y1="333.8" x2="54.36" y2="326.81" style="fill:none;stroke:#263238;stroke-miterlimit:10;stroke-width:0.5px"></line><line x1="41.89" y1="321.73" x2="46.69" y2="313.9" style="fill:none;stroke:#263238;stroke-miterlimit:10;stroke-width:2px"></line><path d="M45.22,316.25a7.18,7.18,0,0,1,1.35-5.76c1.29-1.75,8.89-7,10.31-4.25C58.41,309.26,51.2,317.34,45.22,316.25Z" style="fill:#92E3A9;stroke:#263238;stroke-miterlimit:10"></path><line x1="45.22" y1="316.25" x2="52.53" y2="309.26" style="fill:none;stroke:#263238;stroke-miterlimit:10;stroke-width:0.5px"></line><line x1="39.2" y1="296" x2="44" y2="288.17" style="fill:none;stroke:#263238;stroke-miterlimit:10;stroke-width:2px"></line><path d="M42.54,290.53a7.14,7.14,0,0,1,1.35-5.76c1.29-1.75,8.89-7,10.3-4.25C55.73,283.53,48.51,291.61,42.54,290.53Z" style="fill:#92E3A9;stroke:#263238;stroke-miterlimit:10"></path><line x1="42.54" y1="290.53" x2="49.85" y2="283.54" style="fill:none;stroke:#263238;stroke-miterlimit:10;stroke-width:0.5px"></line><path d="M37.15,279.55a7.12,7.12,0,0,1,1.35-5.75c1.29-1.75,8.89-7,10.3-4.25C50.34,272.56,43.12,280.64,37.15,279.55Z" style="fill:#92E3A9;stroke:#263238;stroke-miterlimit:10"></path><line x1="37.15" y1="279.55" x2="44.46" y2="272.57" style="fill:none;stroke:#263238;stroke-miterlimit:10;stroke-width:0.5px"></line><path d="M37.57,279.86A7.15,7.15,0,0,1,32,277.91c-1.61-1.47-6-9.58-3.15-10.69C32,266,39.28,274,37.57,279.86Z" style="fill:#92E3A9;stroke:#263238;stroke-miterlimit:10"></path><line x1="37.57" y1="279.86" x2="31.39" y2="271.85" style="fill:none;stroke:#263238;stroke-miterlimit:10;stroke-width:0.5px"></line><line x1="73.99" y1="298.67" x2="60.15" y2="432.1" style="fill:none;stroke:#263238;stroke-miterlimit:10;stroke-width:2px"></line><line x1="63.21" y1="406.65" x2="58.4" y2="398.83" style="fill:none;stroke:#263238;stroke-miterlimit:10;stroke-width:2px"></line><path d="M59.87,401.18a7.17,7.17,0,0,0-1.36-5.76c-1.29-1.75-8.89-7-10.3-4.24C46.67,394.19,53.89,402.27,59.87,401.18Z" style="fill:#92E3A9;stroke:#263238;stroke-miterlimit:10"></path><line x1="59.87" y1="401.18" x2="52.97" y2="394.56" style="fill:none;stroke:#263238;stroke-miterlimit:10;stroke-width:0.5px"></line><line x1="67.05" y1="369.62" x2="62.24" y2="361.8" style="fill:none;stroke:#263238;stroke-miterlimit:10;stroke-width:2px"></line><path d="M63.71,364.15a7.17,7.17,0,0,0-1.36-5.76c-1.28-1.75-8.89-7-10.3-4.24C50.52,357.16,57.74,365.24,63.71,364.15Z" style="fill:#92E3A9;stroke:#263238;stroke-miterlimit:10"></path><line x1="63.71" y1="364.15" x2="56.81" y2="357.53" style="fill:none;stroke:#263238;stroke-miterlimit:10;stroke-width:0.5px"></line><line x1="65.47" y1="384.8" x2="60.67" y2="376.97" style="fill:none;stroke:#263238;stroke-miterlimit:10;stroke-width:2px"></line><path d="M62.14,379.32a7.14,7.14,0,0,0-1.36-5.75c-1.29-1.75-8.89-7-10.3-4.25C48.94,372.34,56.16,380.41,62.14,379.32Z" style="fill:#92E3A9;stroke:#263238;stroke-miterlimit:10"></path><line x1="62.14" y1="379.32" x2="55.23" y2="372.7" style="fill:none;stroke:#263238;stroke-miterlimit:10;stroke-width:0.5px"></line><line x1="69.61" y1="344.97" x2="64.8" y2="337.15" style="fill:none;stroke:#263238;stroke-miterlimit:10;stroke-width:2px"></line><path d="M66.27,339.5a7.17,7.17,0,0,0-1.36-5.76c-1.29-1.75-8.89-7-10.3-4.24C53.07,332.51,60.29,340.59,66.27,339.5Z" style="fill:#92E3A9;stroke:#263238;stroke-miterlimit:10"></path><line x1="66.27" y1="339.5" x2="59.37" y2="332.88" style="fill:none;stroke:#263238;stroke-miterlimit:10;stroke-width:0.5px"></line><line x1="72.18" y1="320.21" x2="67.37" y2="312.39" style="fill:none;stroke:#263238;stroke-miterlimit:10;stroke-width:2px"></line><path d="M68.84,314.74A7.17,7.17,0,0,0,67.48,309c-1.29-1.75-8.89-7-10.3-4.24C55.64,307.75,62.86,315.83,68.84,314.74Z" style="fill:#92E3A9;stroke:#263238;stroke-miterlimit:10"></path><line x1="68.84" y1="314.74" x2="61.94" y2="308.12" style="fill:none;stroke:#263238;stroke-miterlimit:10;stroke-width:0.5px"></line><line x1="64.02" y1="397.65" x2="70.33" y2="390.98" style="fill:none;stroke:#263238;stroke-miterlimit:10;stroke-width:2px"></line><path d="M68.41,393a7.17,7.17,0,0,1,2.51-5.36c1.62-1.45,10.14-5,11-2C82.76,388.85,74,395.27,68.41,393Z" style="fill:#92E3A9;stroke:#263238;stroke-miterlimit:10"></path><line x1="68.41" y1="392.98" x2="77" y2="387.64" style="fill:none;stroke:#263238;stroke-miterlimit:10;stroke-width:0.5px"></line><line x1="68.16" y1="357.71" x2="74.47" y2="351.04" style="fill:none;stroke:#263238;stroke-miterlimit:10;stroke-width:2px"></line><path d="M72.55,353a7.14,7.14,0,0,1,2.51-5.35c1.62-1.45,10.15-5,11-2C86.9,348.91,78.18,355.33,72.55,353Z" style="fill:#92E3A9;stroke:#263238;stroke-miterlimit:10"></path><line x1="72.55" y1="353.04" x2="81.14" y2="347.71" style="fill:none;stroke:#263238;stroke-miterlimit:10;stroke-width:0.5px"></line><line x1="69.98" y1="340.17" x2="76.29" y2="333.49" style="fill:none;stroke:#263238;stroke-miterlimit:10;stroke-width:2px"></line><path d="M74.37,335.49a7.14,7.14,0,0,1,2.51-5.35c1.62-1.45,10.15-5,11-2C88.72,331.37,80,337.79,74.37,335.49Z" style="fill:#92E3A9;stroke:#263238;stroke-miterlimit:10"></path><line x1="74.37" y1="335.49" x2="82.97" y2="330.16" style="fill:none;stroke:#263238;stroke-miterlimit:10;stroke-width:0.5px"></line><line x1="72.65" y1="314.44" x2="78.96" y2="307.77" style="fill:none;stroke:#263238;stroke-miterlimit:10;stroke-width:2px"></line><path d="M77,309.77a7.17,7.17,0,0,1,2.51-5.36c1.62-1.45,10.15-5,11-2C91.39,305.64,82.67,312.06,77,309.77Z" style="fill:#92E3A9;stroke:#263238;stroke-miterlimit:10"></path><line x1="77.04" y1="309.77" x2="85.64" y2="304.43" style="fill:none;stroke:#263238;stroke-miterlimit:10;stroke-width:0.5px"></line><path d="M74,297.92a7.17,7.17,0,0,1,2.51-5.36c1.62-1.44,10.14-5,10.95-2C88.38,293.79,79.65,300.21,74,297.92Z" style="fill:#92E3A9;stroke:#263238;stroke-miterlimit:10"></path><line x1="74.03" y1="297.92" x2="82.62" y2="292.59" style="fill:none;stroke:#263238;stroke-miterlimit:10;stroke-width:0.5px"></line><path d="M74.38,298.3a7.16,7.16,0,0,1-5.06-3.05c-1.27-1.77-3.95-10.62-.88-11.11C71.78,283.6,77.25,293,74.38,298.3Z" style="fill:#92E3A9;stroke:#263238;stroke-miterlimit:10"></path><line x1="74.38" y1="298.3" x2="69.98" y2="289.2" style="fill:none;stroke:#263238;stroke-miterlimit:10;stroke-width:0.5px"></line><line x1="58.12" y1="244.34" x2="58.12" y2="413.07" style="fill:none;stroke:#263238;stroke-miterlimit:10;stroke-width:2px"></line><line x1="58.26" y1="387.7" x2="52.67" y2="380.41" style="fill:none;stroke:#263238;stroke-miterlimit:10;stroke-width:2px"></line><path d="M54.37,382.6A7.14,7.14,0,0,0,52.43,377C51,375.4,42.86,371,41.74,373.85,40.53,377,48.54,384.3,54.37,382.6Z" style="fill:#92E3A9;stroke:#263238;stroke-miterlimit:10"></path><line x1="54.37" y1="382.6" x2="46.82" y2="376.72" style="fill:none;stroke:#263238;stroke-miterlimit:10;stroke-width:0.5px"></line><line x1="58.26" y1="355.99" x2="52.67" y2="348.7" style="fill:none;stroke:#263238;stroke-miterlimit:10;stroke-width:2px"></line><path d="M54.37,350.89a7.14,7.14,0,0,0-1.94-5.59c-1.46-1.61-9.57-6.06-10.69-3.16C40.53,345.3,48.54,352.59,54.37,350.89Z" style="fill:#92E3A9;stroke:#263238;stroke-miterlimit:10"></path><line x1="54.37" y1="350.89" x2="46.82" y2="345.01" style="fill:none;stroke:#263238;stroke-miterlimit:10;stroke-width:0.5px"></line><line x1="58.26" y1="318.76" x2="52.67" y2="311.47" style="fill:none;stroke:#263238;stroke-miterlimit:10;stroke-width:2px"></line><path d="M54.37,313.66a7.14,7.14,0,0,0-1.94-5.59c-1.46-1.6-9.57-6.06-10.69-3.15C40.53,308.07,48.54,315.36,54.37,313.66Z" style="fill:#92E3A9;stroke:#263238;stroke-miterlimit:10"></path><line x1="54.37" y1="313.66" x2="46.82" y2="307.79" style="fill:none;stroke:#263238;stroke-miterlimit:10;stroke-width:0.5px"></line><line x1="58.26" y1="293.98" x2="52.67" y2="286.69" style="fill:none;stroke:#263238;stroke-miterlimit:10;stroke-width:2px"></line><path d="M54.37,288.88a7.14,7.14,0,0,0-1.94-5.59c-1.46-1.61-9.57-6.06-10.69-3.16C40.53,283.29,48.54,290.58,54.37,288.88Z" style="fill:#92E3A9;stroke:#263238;stroke-miterlimit:10"></path><line x1="54.37" y1="288.88" x2="46.82" y2="283" style="fill:none;stroke:#263238;stroke-miterlimit:10;stroke-width:0.5px"></line><line x1="58.26" y1="269.09" x2="52.67" y2="261.8" style="fill:none;stroke:#263238;stroke-miterlimit:10;stroke-width:2px"></line><path d="M54.37,264a7.14,7.14,0,0,0-1.94-5.59c-1.46-1.61-9.57-6.06-10.69-3.16C40.53,258.4,48.54,265.69,54.37,264Z" style="fill:#92E3A9;stroke:#263238;stroke-miterlimit:10"></path><line x1="54.37" y1="263.99" x2="46.82" y2="258.11" style="fill:none;stroke:#263238;stroke-miterlimit:10;stroke-width:0.5px"></line><line x1="58.14" y1="397.38" x2="63.72" y2="390.09" style="fill:none;stroke:#263238;stroke-miterlimit:10;stroke-width:2px"></line><path d="M62,392.28A7.18,7.18,0,0,1,64,386.69c1.46-1.6,9.57-6.06,10.68-3.15C75.87,386.69,67.85,394,62,392.28Z" style="fill:#92E3A9;stroke:#263238;stroke-miterlimit:10"></path><line x1="62.02" y1="392.28" x2="70.02" y2="386.09" style="fill:none;stroke:#263238;stroke-miterlimit:10;stroke-width:0.5px"></line><line x1="58.14" y1="346.95" x2="63.72" y2="339.66" style="fill:none;stroke:#263238;stroke-miterlimit:10;stroke-width:2px"></line><path d="M62,341.85A7.17,7.17,0,0,1,64,336.26c1.46-1.61,9.57-6.06,10.68-3.16C75.87,336.26,67.85,343.55,62,341.85Z" style="fill:#92E3A9;stroke:#263238;stroke-miterlimit:10"></path><line x1="62.02" y1="341.85" x2="70.02" y2="335.66" style="fill:none;stroke:#263238;stroke-miterlimit:10;stroke-width:0.5px"></line><line x1="58.14" y1="322.06" x2="63.72" y2="314.77" style="fill:none;stroke:#263238;stroke-miterlimit:10;stroke-width:2px"></line><path d="M62,317A7.17,7.17,0,0,1,64,311.37c1.46-1.61,9.57-6.06,10.68-3.16C75.87,311.37,67.85,318.66,62,317Z" style="fill:#92E3A9;stroke:#263238;stroke-miterlimit:10"></path><line x1="62.02" y1="316.96" x2="70.02" y2="310.77" style="fill:none;stroke:#263238;stroke-miterlimit:10;stroke-width:0.5px"></line><line x1="58.14" y1="289.16" x2="63.72" y2="281.87" style="fill:none;stroke:#263238;stroke-miterlimit:10;stroke-width:2px"></line><path d="M62,284.06A7.17,7.17,0,0,1,64,278.47c1.46-1.61,9.57-6.06,10.68-3.16C75.87,278.47,67.85,285.76,62,284.06Z" style="fill:#92E3A9;stroke:#263238;stroke-miterlimit:10"></path><line x1="62.02" y1="284.06" x2="70.02" y2="277.87" style="fill:none;stroke:#263238;stroke-miterlimit:10;stroke-width:0.5px"></line><line x1="58.14" y1="263.29" x2="63.72" y2="256.01" style="fill:none;stroke:#263238;stroke-miterlimit:10;stroke-width:2px"></line><path d="M62,258.19A7.15,7.15,0,0,1,64,252.61c1.46-1.61,9.57-6.06,10.68-3.16C75.87,252.61,67.85,259.89,62,258.19Z" style="fill:#92E3A9;stroke:#263238;stroke-miterlimit:10"></path><line x1="62.02" y1="258.19" x2="70.02" y2="252" style="fill:none;stroke:#263238;stroke-miterlimit:10;stroke-width:0.5px"></line><path d="M57.8,246.72a7.19,7.19,0,0,1,1.94-5.59c1.47-1.6,9.57-6.06,10.69-3.15C71.65,241.13,63.63,248.42,57.8,246.72Z" style="fill:#92E3A9;stroke:#263238;stroke-miterlimit:10"></path><line x1="57.8" y1="246.72" x2="65.8" y2="240.53" style="fill:none;stroke:#263238;stroke-miterlimit:10;stroke-width:0.5px"></line><path d="M58.19,247.06a7.14,7.14,0,0,1-5.35-2.51c-1.45-1.63-5-10.16-2-11C54.09,232.71,60.49,241.45,58.19,247.06Z" style="fill:#92E3A9;stroke:#263238;stroke-miterlimit:10"></path><line x1="58.19" y1="247.06" x2="52.87" y2="238.46" style="fill:none;stroke:#263238;stroke-miterlimit:10;stroke-width:0.5px"></line><polygon points="65.07 456.83 47.2 456.83 44.96 411.7 67.3 411.7 65.07 456.83" style="fill:#263238;stroke:#263238;stroke-miterlimit:10"></polygon></g><g id="freepik--Pictures--inject-39"><g style="opacity:0.30000000000000004"><rect x="119.86" y="85.46" width="82.62" height="119.14" style="fill:none;stroke:#000;stroke-miterlimit:10"></rect><path d="M202.49,106.23v98.38H119.86V202a82.6,82.6,0,0,0,26.3-14.18c17.15-13.92,13.4-23.57,24.11-51.42C178.64,114.6,193.55,107.88,202.49,106.23Z" style="fill:none;stroke:#000;stroke-miterlimit:10"></path><path d="M154.58,85.46c-.31,13.13-5,39.7-34.72,59.49V85.46Z" style="fill:none;stroke:#000;stroke-miterlimit:10"></path><path d="M194.06,85.46C189.37,95.48,181,108,168.13,108c-13.3,0-9.67-12.79-5-22.51Z" style="fill:none;stroke:#000;stroke-miterlimit:10"></path><circle cx="135.45" cy="160.47" r="11.79" transform="translate(-52.88 253.36) rotate(-76.09)" style="fill:none;stroke:#000;stroke-miterlimit:10"></circle><path d="M193.31,148.15a5.36,5.36,0,1,1-5.36-5.36A5.36,5.36,0,0,1,193.31,148.15Z" style="fill:none;stroke:#000;stroke-miterlimit:10"></path><circle cx="179.65" cy="186.45" r="5.09" style="fill:none;stroke:#000;stroke-miterlimit:10"></circle><rect x="224.86" y="85.46" width="82.63" height="119.14" style="fill:none;stroke:#000;stroke-miterlimit:10"></rect><path d="M307.5,85.46v97.66c-18.17-9.4-47.87-38.58-59.55-65.51-7.44-17.18-15.35-26.86-21.09-32.15Z" style="fill:none;stroke:#000;stroke-miterlimit:10"></path><path d="M307.5,195.73v8.88H224.86v-3.4c15.75-10.47,40.08-23.9,56.31-19.85C291.62,184,300.56,189.77,307.5,195.73Z" style="fill:none;stroke:#000;stroke-miterlimit:10"></path><path d="M246.89,158.33c-2.77,10.71-14.24,17.64-22,21.2V117.42C235.15,128.85,249.7,147.41,246.89,158.33Z" style="fill:none;stroke:#000;stroke-miterlimit:10"></path><path d="M272.21,85.46H307.5V113C289.47,109.21,277.35,93.51,272.21,85.46Z" style="fill:none;stroke:#000;stroke-miterlimit:10"></path><ellipse cx="277.42" cy="126.99" rx="12.32" ry="15.27" transform="translate(-24.4 171.63) rotate(-33.01)" style="fill:none;stroke:#000;stroke-miterlimit:10"></ellipse><rect x="329.87" y="85.46" width="82.62" height="119.14" style="fill:none;stroke:#000;stroke-miterlimit:10"></rect><path d="M412.49,145.35v59.26H329.87V197.8c4.65-6.47,14.68-14.08,35.95-19.65C384.13,173.35,400.06,159.78,412.49,145.35Z" style="fill:none;stroke:#000;stroke-miterlimit:10"></path><path d="M368,152.44c-16.53,11.22-29.65,21.46-38.09,28.39V117.34c14.2-11.22,38.81-32.71,53.63-26C401.17,99.4,398,132.07,368,152.44Z" style="fill:none;stroke:#000;stroke-miterlimit:10"></path><path d="M412.49,85.46v18.73c-6.37-3.6-10.92-11.44-14-18.73Z" style="fill:none;stroke:#000;stroke-miterlimit:10"></path><circle cx="372.25" cy="112.26" r="7.5" style="fill:none;stroke:#000;stroke-miterlimit:10"></circle><circle cx="402.25" cy="186.72" r="7.5" style="fill:none;stroke:#000;stroke-miterlimit:10"></circle><path d="M391.53,154.58a5.36,5.36,0,1,1-5.36-5.36A5.36,5.36,0,0,1,391.53,154.58Z" style="fill:none;stroke:#000;stroke-miterlimit:10"></path><circle cx="344.65" cy="149.49" r="4.02" style="fill:none;stroke:#000;stroke-miterlimit:10"></circle></g></g><g id="freepik--Sofa--inject-39"><rect x="210.96" y="291.08" width="106.77" height="101.15" rx="11.67" style="fill:#fff;stroke:#263238;stroke-miterlimit:10"></rect><rect x="104.2" y="291.08" width="106.77" height="101.15" rx="11.67" style="fill:#fff;stroke:#263238;stroke-miterlimit:10"></rect><path d="M164.8,335.37s-39.16,10.8-45.91,14.18-12.15,6.07-9.45,8.1,17.56,17.55,29.71,23,32.41,0,52,1.35,29.7-1.35,29.7-3.38-8.1-18.23-20.93-27.68a177.49,177.49,0,0,0-27.68-16.21S166.15,330,164.8,335.37Z" style="fill:#a8a8a8;stroke:#263238;stroke-miterlimit:10"></path><polygon points="107.38 334.69 113.32 379.64 105.37 379.64 107.38 334.69" style="fill:#263238;stroke:#263238;stroke-miterlimit:10"></polygon><rect x="317.73" y="291.08" width="106.77" height="101.15" rx="11.67" style="fill:#fff;stroke:#263238;stroke-miterlimit:10"></rect><path d="M422.55,331S405,328,396,326s-26.06-3-26.06-3-3.51,1-3,3a34.2,34.2,0,0,1,.5,6s-4.51,16-9,26.07-8,17-8,17-6.51,2.5-2.5,4.51,14.53,2,14.53,2h63.15l1-43.6Z" style="fill:#a8a8a8;stroke:#263238;stroke-miterlimit:10"></path><polygon points="101.79 455.81 427.59 455.81 427.59 389.04 104.76 389.04 101.79 455.81" style="fill:#fff;stroke:#263238;stroke-miterlimit:10"></polygon><path d="M99.75,400.93s82.84-.95,112.91-.95,85.8,1.27,99.6,1.27,110,.61,110,.61l.16-5.63-324.6-2.29Z" style="fill:#263238;stroke:#263238;stroke-miterlimit:10"></path><path d="M98.66,397.81s232.32,2,246.53,2,76.62-1.07,76.62-1.07V380s-161.27,1.86-167.45,1.86-135.31-4-140.25-4.38-15.45,0-15.45,0Z" style="fill:#fff;stroke:#263238;stroke-miterlimit:10"></path><rect x="420.82" y="330.51" width="29.87" height="126.49" rx="7" style="fill:#fff;stroke:#263238;stroke-miterlimit:10"></rect><rect x="77.51" y="330.51" width="29.87" height="126.49" rx="7" style="fill:#fff;stroke:#263238;stroke-miterlimit:10"></rect></g><g id="freepik--Floor--inject-39"><line x1="14" y1="456.83" x2="488.21" y2="456.83" style="fill:none;stroke:#263238;stroke-linecap:round;stroke-linejoin:round"></line></g><g id="freepik--musical-notes--inject-39"><path d="M69.78,231.55S92.52,251,152.29,249.74,262.73,216,333.54,231.55,418,258.18,455,247.14" style="fill:none;stroke:#263238;stroke-miterlimit:10"></path><path d="M69.78,243.24s22.74,19.49,82.51,18.19,110.44-33.78,181.25-18.19S418,269.88,455,258.83" style="fill:none;stroke:#263238;stroke-miterlimit:10"></path><path d="M69.78,254.93s22.74,19.49,82.51,18.19,110.44-33.78,181.25-18.19S418,281.57,455,270.52" style="fill:none;stroke:#263238;stroke-miterlimit:10"></path><path d="M352.8,228.36c1.77,4.27,3.46,8.36,5.16,12.44,1.37,3.3,2.61,6.66,4.16,9.87s-1.32,7.22-4.17,7.93a2.54,2.54,0,0,1-3.39-2.6c-.12-2.87,2.12-5.33,5.82-6.23-1.65-4-3.28-7.9-5-12.05-5.1,3.27-10,6.4-14.9,9.63-.33.22-.35,1.32-.14,1.86,1.58,4,3.27,8,4.9,12a5.76,5.76,0,0,1-3.43,7.86,3.57,3.57,0,0,1-3-.22,3.8,3.8,0,0,1-.89-3c.57-2.91,2.53-4.66,5.65-5.28l-8.52-20.41Zm-14.06,16.92L354.25,235l-.94-2.16-15.64,10C338.05,243.73,338.36,244.44,338.74,245.28Z" style="fill:#263238"></path><path d="M205.93,235.19v0l-21.24.74c-1.15,7.34-2.27,14.55-3.41,21.86-3-1.11-5.57-.65-7.57,1.54a3.81,3.81,0,0,0-.84,3.06,3.59,3.59,0,0,0,2.43,1.75,5.76,5.76,0,0,0,7-4.92c.7-4.25,1.34-8.52,2.08-12.76.11-.57.7-1.5,1.09-1.51,5.8-.22,11.61-.31,17.62-.43q-1,6.3-2,12.62c-3-1.11-5.57-.65-7.57,1.54a3.6,3.6,0,0,0-.59,1h0a2.55,2.55,0,0,0,1.54,4c2.8.88,7.33-.92,7.69-4.58.08-.79.18-1.58.29-2.36.59-3.64,1.15-7.29,1.79-10.92.1-.57.69-1.5,1.08-1.51,5.84-.22,11.69-.31,17.74-.43-.7,4.44-1.37,8.65-2,12.89-3.62-1.17-6.82-.24-8.21,2.26a2.55,2.55,0,0,0,1.53,4c2.8.88,7.33-.92,7.7-4.58s1.06-7.06,1.61-10.59l2.1-13.31Zm-20.82,7,.34-2.6,18.5-.38c-.13.78-.25,1.56-.37,2.33Zm38.47-1.3-18.6.65c.11-.78.2-1.48.3-2.24,0-.12,0-.24.05-.36l18.57-.38C223.79,239.42,223.69,240.12,223.58,240.93Z" style="fill:#263238"></path><path d="M415.12,244.45c.17.62.61,1.3.48,1.85-.53,2.39.35,4.34,1.57,6.28a41,41,0,0,1,3,5.25c1.57,3.53.82,6.79-1.88,9.78,3.7-6.22.75-10.36-4.22-14a9.13,9.13,0,0,0-.41,1.15c-1.4,6.38-2.78,12.77-4.18,19.15a6.78,6.78,0,0,1-8.63,5.08c-2.88-.84-3.59-3.54-1.38-5.58,2.52-2.32,5.48-2.66,8.83-1.34q3-13.77,6-27.41Z" style="fill:#263238"></path><path d="M120.18,227.56c.18.62.61,1.29.49,1.84-.54,2.4.35,4.35,1.57,6.29a43.36,43.36,0,0,1,3,5.24c1.56,3.54.82,6.8-1.88,9.79,3.7-6.22.75-10.36-4.22-14a9.13,9.13,0,0,0-.41,1.15c-1.4,6.38-2.78,12.77-4.19,19.15a6.79,6.79,0,0,1-8.63,5.08c-2.87-.85-3.59-3.54-1.37-5.58,2.52-2.32,5.47-2.66,8.83-1.34q3-13.77,6-27.41Z" style="fill:#263238"></path><path d="M383.34,251.11l1.39-6.42a5.56,5.56,0,0,1,.14-1c.12-.55-.31-1.23-.49-1.84l-.8.23c-2,9.11-4,18.22-6,27.41-3.36-1.33-6.31-1-8.83,1.33-2.22,2.05-1.5,4.74,1.37,5.59a6.79,6.79,0,0,0,8.63-5.08c1.41-6.39,2.79-12.78,4.19-19.16A7.52,7.52,0,0,1,383.34,251.11Z" style="fill:#263238"></path><path d="M160.67,251.78l1.39-6.42a8.55,8.55,0,0,1,.14-1c.13-.55-.31-1.23-.48-1.85l-.81.23c-2,9.12-4,18.23-6,27.41-3.35-1.32-6.31-1-8.83,1.34-2.21,2-1.5,4.74,1.38,5.58A6.78,6.78,0,0,0,156.1,272c1.4-6.38,2.78-12.77,4.18-19.15A8.35,8.35,0,0,1,160.67,251.78Z" style="fill:#263238"></path></g><g id="freepik--Character--inject-39"><path d="M269.7,143.67a26.77,26.77,0,0,0-17.82,1.68c-9.34,4.35-12.82,12-23.25,17.17s-27.81,13.68-36.5,10.21-10-5.65-9.12-2.61,3.26,7.17,7.17,8.69a27.82,27.82,0,0,0,5.65,1.74s1.95,1.52-5,2.61a40.15,40.15,0,0,1-13-.22s1.31,14.55,20.43,19.12,24.11,2.39,24.11,2.39-9.12,6.73-12,8.69,4.35,5.64,17.82,6.08,26.07-11.08,33.45-11.08,16.3,5.65,24.77,3.48,11.95-13.47,11.3-16.08a51.22,51.22,0,0,0-2.39-6.52s2.82,0,4.78,5,2.6,7.38,3.26,5,3.69-6.09-2.83-17.82-6.73-10.86-9.34-20.64-8.26-13.68-13.69-13.68Z" style="fill:#263238;stroke:#263238;stroke-linecap:round;stroke-linejoin:round"></path><ellipse cx="252.71" cy="176.4" rx="7.05" ry="8.34" transform="translate(-35.4 66.97) rotate(-14.12)" style="fill:#fff;stroke:#263238;stroke-linecap:round;stroke-linejoin:round"></ellipse><path d="M237.59,258.31s-8,11.38-12,38.14,2.46,56.9,5.53,65.2,15.69,48.29,18.46,57.51S253,443.77,253,443.77s-6.15,12.61-8,16-4.61,5.54-2.15,6.15,12-2.15,14.45-4.92,2.47-5.53,4.62-8,6.76-4.62,6.76-6.77-2.76-4.92-4-5.84a17,17,0,0,1-2.46-2.46s4.3-30.45,1.84-40.3-8-20.91-8-23.06-.61-21.53-.61-29.22A170.35,170.35,0,0,1,257,326.59s5.53-16.61,12-24,16.92-10.15,17.53-17.23a133.18,133.18,0,0,0,0-16.6Z" style="fill:#92E3A9;stroke:#263238;stroke-linecap:round;stroke-linejoin:round"></path><path d="M246.71,296.31A19.43,19.43,0,0,0,248.5,299" style="fill:none;stroke:#263238;stroke-linecap:round;stroke-linejoin:round"></path><path d="M241.22,282a72.77,72.77,0,0,0,4.38,12.24" style="fill:none;stroke:#263238;stroke-linecap:round;stroke-linejoin:round"></path><path d="M262.2,291.83s-25.53,20-36.91,32-23.68,28.29-17.23,33.52S277,379.8,282.8,383.49s9.84,9.84,12.61,14.76,4.62,8,5.23,10.76,4.61-.61,4.61-6.76-.92-17.23-.92-21.22-3.38-4-5.53-3.69a56.12,56.12,0,0,0-6.77,1.84A69.46,69.46,0,0,1,269,367.49c-11.69-8.92-10-8.83-16.61-13.53-9.53-6.77-16.6-7.07-16.6-7.07s32-19.69,41.52-29.22,11.07-24.61,11.07-29.84a38.68,38.68,0,0,0-1.54-10.15" style="fill:#92E3A9;stroke:#263238;stroke-linecap:round;stroke-linejoin:round"></path><path d="M223.94,347.13a19,19,0,0,0-2.37.71" style="fill:none;stroke:#263238;stroke-linecap:round;stroke-linejoin:round"></path><path d="M235.75,346.89a37.2,37.2,0,0,0-7.7-.33" style="fill:none;stroke:#263238;stroke-linecap:round;stroke-linejoin:round"></path><path d="M298.8,377.34a56.12,56.12,0,0,0-6.77,1.84A69.46,69.46,0,0,1,269,367.49c-1.73-1.32-3.16-2.44-4.38-3.41-.54,2.76-2.14,6.61-6.42,10.85,12.23,3.86,22.44,7.17,24.64,8.56,5.85,3.69,9.84,9.84,12.61,14.76s4.62,8,5.23,10.76,4.61-.61,4.61-6.76-.92-17.23-.92-21.22S301,377,298.8,377.34Z" style="fill:#fff;stroke:#263238;stroke-linecap:round;stroke-linejoin:round"></path><path d="M298.8,377.34a22.76,22.76,0,0,0-2.91.67c1.25,2.7,3.6,8.47,3.83,14.09.2,5-1.67,7.38-3,8.45,2,3.62,3.42,6.16,3.93,8.46.62,2.77,4.61-.61,4.61-6.76s-.92-17.23-.92-21.22S301,377,298.8,377.34Z" style="fill:#263238;stroke:#263238;stroke-linecap:round;stroke-linejoin:round"></path><path d="M264.66,440.39a17,17,0,0,1-2.46-2.46s2.52-17.9,2.6-30.69a36.38,36.38,0,0,1-16.88,6.5c.71,2.28,1.28,4.15,1.67,5.42,2.76,9.23,3.38,24.61,3.38,24.61s-6.15,12.61-8,16-4.61,5.54-2.15,6.15,12-2.15,14.45-4.92,2.47-5.53,4.62-8,6.76-4.62,6.76-6.77S265.89,441.31,264.66,440.39Z" style="fill:#fff;stroke:#263238;stroke-linecap:round;stroke-linejoin:round"></path><path d="M264.66,440.39l-.2-.16c-.31.53-.65,1.09-1,1.69-3.39,5.23-6.46,12-10.15,14.77a7.34,7.34,0,0,1-7.22,1c-.43.85-.81,1.57-1.09,2.08-1.84,3.39-4.61,5.54-2.15,6.15s12-2.15,14.45-4.92,2.47-5.53,4.62-8,6.76-4.62,6.76-6.77S265.89,441.31,264.66,440.39Z" style="fill:#263238;stroke:#263238;stroke-linecap:round;stroke-linejoin:round"></path><path d="M255.57,186.63S241.67,181,241,180.55s-15.42-14.34-15.42-14.34l25-33.89s8.26-.44,11.3-1.52,5.87-1.52,6.3-2.39,3.26-5.22,4.56-7-1.3-2.83-2-2-1.09,1.52-1.09,1.52-4.13-5-5.43-5-4.13,4.12-4.13,4.12-9.77,1.74-10.86,3.7-39.1,40.62-39.76,44.32,16.08,20.2,25,26.72,17.38,14.34,17.38,14.34-3.7,10.21-3.7,14.77.66,10.21.22,11.95-13.25,23.46-13.25,23.46,9.34,8,28.68,11.51,25.41.87,25.41.87.87-14.55,1.52-18.25,9.78-23.68,9.78-23.68l2.39,25.86s5.43,3.26,8.26,5.21,9.12,5.87,9.12,5.87-3.91-35-5.43-44.32-1.3-11.73-5.65-15.43-20.2-7.38-20.2-7.38Z" style="fill:#fff;stroke:#263238;stroke-linecap:round;stroke-linejoin:round"></path><path d="M250.56,128.32a8.08,8.08,0,0,1,4.88-3c3.05-.46,11.44.61,11.44.61a31.66,31.66,0,0,1,2.81-4.86" style="fill:none;stroke:#263238;stroke-linecap:round;stroke-linejoin:round"></path><path d="M265.2,116.73s-3.05,3-3.2,4.57" style="fill:none;stroke:#263238;stroke-linecap:round;stroke-linejoin:round"></path><path d="M267,118.25a15.62,15.62,0,0,0-3.51,4.73" style="fill:none;stroke:#263238;stroke-linecap:round;stroke-linejoin:round"></path><path d="M269.17,120.39s-4.58,2.9-4.43,4.27l-4.61-4.51" style="fill:none;stroke:#263238;stroke-linecap:round;stroke-linejoin:round"></path><path d="M309.23,207.05c-4.34-3.69-20.2-7.38-20.2-7.38l-33.46-13s-3.24-1.31-6.66-2.72l1.1,23.63,1.87,1.69s-3.7,10.21-3.7,14.77.66,10.21.22,11.95-13.25,23.46-13.25,23.46,9.34,8,28.68,11.51,25.41.87,25.41.87.87-14.55,1.52-18.25,9.78-23.68,9.78-23.68l.41,4.39,13.66-13.5C313.37,212.82,313.3,210.51,309.23,207.05Z" style="fill:#fff;stroke:#263238;stroke-linecap:round;stroke-linejoin:round"></path><line x1="251.88" y1="209.23" x2="255.6" y2="196.65" style="fill:none;stroke:#263238;stroke-linecap:round;stroke-linejoin:round"></line><line x1="252.6" y1="207.21" x2="252.6" y2="195.77" style="fill:none;stroke:#263238;stroke-linecap:round;stroke-linejoin:round"></line><polyline points="297.85 222.7 300.54 229.87 296.79 225.16" style="fill:#fff;stroke:#263238;stroke-linecap:round;stroke-linejoin:round"></polyline><line x1="275.48" y1="245.02" x2="277.6" y2="246.29" style="fill:none;stroke:#263238;stroke-linecap:round;stroke-linejoin:round"></line><line x1="256.65" y1="233.79" x2="274.01" y2="244.15" style="fill:none;stroke:#263238;stroke-linecap:round;stroke-linejoin:round"></line><line x1="256.83" y1="236.61" x2="267.04" y2="242.59" style="fill:none;stroke:#263238;stroke-linecap:round;stroke-linejoin:round"></line><path d="M264.7,153.3s-4.83.85-11.09,7.11-6.82,8.81-5.68,10.23,2.56,9.67,6.25,15.64S265.56,196,265.56,196a15.13,15.13,0,0,0,11.09,8.82,14,14,0,0,0,12.79-4s-4.55-7.4-5.68-13.94-1.71-18.2-1.71-18.2L280.63,161S269.25,161.26,264.7,153.3Z" style="fill:#fff;stroke:#263238;stroke-linecap:round;stroke-linejoin:round"></path><path d="M269.38,201.22c5.22-5.52,9-18.08,9-18.08C273.44,193.29,265.56,196,265.56,196A15.5,15.5,0,0,0,269.38,201.22Z" style="fill:#263238;stroke:#263238;stroke-linecap:round;stroke-linejoin:round"></path><polyline points="257.03 167.8 259.3 179.46 262.43 178.6" style="fill:none;stroke:#263238;stroke-linecap:round;stroke-linejoin:round"></polyline><path d="M261.58,184.29s8.25,0,8.25-7.73" style="fill:none;stroke:#263238;stroke-linecap:round;stroke-linejoin:round"></path><line x1="268.53" y1="176.25" x2="271.69" y2="176.25" style="fill:none;stroke:#263238;stroke-linecap:round;stroke-linejoin:round"></line><path d="M263.78,170.21a7,7,0,0,0,5.61-1.44" style="fill:none;stroke:#263238;stroke-linecap:round;stroke-linejoin:round"></path><path d="M252,174.82s2.15.71,4.31-2.16" style="fill:none;stroke:#263238;stroke-linecap:round;stroke-linejoin:round"></path><path d="M261.77,164.6s1.72-2.59,5.9-.86" style="fill:none;stroke:#263238;stroke-linecap:round;stroke-linejoin:round"></path><path d="M255.29,167.34s-2.73-.44-4.45,3.3" style="fill:none;stroke:#263238;stroke-linecap:round;stroke-linejoin:round"></path><path d="M281.91,160.4A32,32,0,0,0,276.05,150a78.79,78.79,0,0,0-6.35-6.35s6.11,2,9.4,5.25,5.13,10.87,5.13,10.87Z" style="fill:#fff;stroke:#263238;stroke-linecap:round;stroke-linejoin:round"></path><path d="M281.64,174s1.37,12.71-2.75,24.73S264.81,221,263.44,223.09s-20.61,42.25-7.22,42.59S281,247.48,281,247.48" style="fill:none;stroke:#263238;stroke-linecap:round;stroke-linejoin:round"></path><path d="M258.63,191.5s-.35,23.69,4.81,31.59" style="fill:none;stroke:#263238;stroke-linecap:round;stroke-linejoin:round"></path><ellipse cx="282.91" cy="166.9" rx="7.05" ry="8.34" transform="translate(-32.17 74.06) rotate(-14.12)" style="fill:#fff;stroke:#263238;stroke-linecap:round;stroke-linejoin:round"></ellipse><polygon points="299.08 224.57 280.64 246.19 282.17 247.97 300.86 225.72 299.08 224.57" style="fill:#263238;stroke:#263238;stroke-linecap:round;stroke-linejoin:round"></polygon><path d="M321.07,264.37c-.63-1.52-1.77-4.55-1.77-4.55S296.22,247.76,296,247s-1.54-2.56-.77-4.36,2.31-9.74,2.31-9.74-5.13-4.87-5.9-5.13-2.05,2.31-2.05,2.31-.41.46-.87,1.07c-1.26.92-4.25,3.17-4.25,3.9,0,.92,1.22.51,1.93.41a17,17,0,0,0,2.23-.64,5.08,5.08,0,0,1,2.16,1.45l.85,1s-3.58-1.87-5.49-1.49a1.8,1.8,0,0,0-1.53,2.16l.26.77s-3.18,1.78-3.18,2.92,2-.13,3.43-.25,2-.13,2-.13-1.15,6.36,1.14,8.52a9.62,9.62,0,0,0,4.32,2.54s13.74,15.39,17.42,18.82,8.52,5.85,10.05,3.69S321.71,265.9,321.07,264.37Z" style="fill:#fff;stroke:#263238;stroke-linecap:round;stroke-linejoin:round"></path><path d="M284.84,238.69a6.14,6.14,0,0,1,2-.51,3.69,3.69,0,0,1,3.44,3.3" style="fill:none;stroke:#263238;stroke-linecap:round;stroke-linejoin:round"></path><path d="M289.32,231s4.8,1.62,5.31,3.15a11.12,11.12,0,0,1,.38,3.56" style="fill:none;stroke:#263238;stroke-linecap:round;stroke-linejoin:round"></path><path d="M291.6,237.25a4.56,4.56,0,0,1,.74,2.71" style="fill:none;stroke:#263238;stroke-linecap:round;stroke-linejoin:round"></path></g></svg>