<svg xmlns="http://www.w3.org/2000/svg" viewBox="0 0 500 500"><g id="freepik--background-simple--inject-3"><path d="M196.83,470.65s83.8,19.58,156.34-35.12,100.25-150,124.74-226.59S473.08,60.62,408.68,33.75,310,61.24,226.24,73.27s-108,2.47-171.52,58.41S-6.51,302.33,59.57,379.86,196.83,470.65,196.83,470.65Z" style="fill:#92E3A9"></path><path d="M196.83,470.65s83.8,19.58,156.34-35.12,100.25-150,124.74-226.59S473.08,60.62,408.68,33.75,310,61.24,226.24,73.27s-108,2.47-171.52,58.41S-6.51,302.33,59.57,379.86,196.83,470.65,196.83,470.65Z" style="fill:#fff;opacity:0.7000000000000001"></path></g><g id="freepik--Floor--inject-3"><line x1="15.36" y1="447.75" x2="484" y2="447.75" style="fill:none;stroke:#263238;stroke-linecap:round;stroke-linejoin:round"></line></g><g id="freepik--Bricks--inject-3"><g style="opacity:0.24"><polyline points="57.84 96.02 39.21 96.02 39.21 80.2 68.67 80.2 68.67 96.02 61.4 96.02" style="fill:none;stroke:#000;stroke-linecap:round;stroke-linejoin:round"></polyline><polyline points="76.62 61.52 90.95 61.52 90.95 71.58 70.83 71.58 70.83 61.52 73.85 61.52" style="fill:none;stroke:#000;stroke-linecap:round;stroke-linejoin:round"></polyline><rect x="111.8" y="80.92" width="14.37" height="12.22" style="fill:none;stroke:#000;stroke-linecap:round;stroke-linejoin:round"></rect><rect x="85.92" y="89.55" width="10.78" height="7.19" style="fill:none;stroke:#000;stroke-linecap:round;stroke-linejoin:round"></rect><rect x="177.2" y="287.2" width="23.72" height="11.5" style="fill:none;stroke:#000;stroke-linecap:round;stroke-linejoin:round"></rect><polyline points="172.47 351.17 186.55 351.17 186.55 366.26 157.08 366.26 157.08 351.17 168.71 351.17" style="fill:none;stroke:#000;stroke-linecap:round;stroke-linejoin:round"></polyline><rect x="34.83" y="274.99" width="34.5" height="14.37" style="fill:none;stroke:#000;stroke-linecap:round;stroke-linejoin:round"></rect><rect x="68.02" y="260.32" width="20.06" height="7.47" style="fill:none;stroke:#000;stroke-linecap:round;stroke-linejoin:round"></rect><rect x="42.08" y="378.48" width="20.84" height="7.19" style="fill:none;stroke:#000;stroke-linecap:round;stroke-linejoin:round"></rect><rect x="71.55" y="378.48" width="15.81" height="6.47" style="fill:none;stroke:#000;stroke-linecap:round;stroke-linejoin:round"></rect><polyline points="198.55 396.45 177.92 396.45 177.92 381.36 208.11 381.36 208.11 396.45 201.91 396.45" style="fill:none;stroke:#000;stroke-linecap:round;stroke-linejoin:round"></polyline><rect x="236.91" y="316.89" width="16.53" height="7.91" style="fill:none;stroke:#000;stroke-linecap:round;stroke-linejoin:round"></rect><rect x="152.05" y="328.17" width="9.34" height="3.59" style="fill:none;stroke:#000;stroke-linecap:round;stroke-linejoin:round"></rect><rect x="254.11" y="219.64" width="15.81" height="7.19" style="fill:none;stroke:#000;stroke-linecap:round;stroke-linejoin:round"></rect></g><g style="opacity:0.24"><polyline points="404.53 72.7 422.93 72.7 422.93 57.09 393.83 57.09 393.83 72.7 401.01 72.7" style="fill:none;stroke:#000;stroke-linecap:round;stroke-linejoin:round"></polyline><polyline points="456.24 195.62 474.64 195.62 474.64 180.01 445.55 180.01 445.55 195.62 452.73 195.62" style="fill:none;stroke:#000;stroke-linecap:round;stroke-linejoin:round"></polyline><polyline points="385.99 38.64 371.83 38.64 371.83 48.57 391.7 48.57 391.7 38.64 388.72 38.64" style="fill:none;stroke:#000;stroke-linecap:round;stroke-linejoin:round"></polyline><rect x="337.06" y="84.93" width="14.19" height="12.06" transform="translate(688.32 181.92) rotate(180)" style="fill:none;stroke:#000;stroke-linecap:round;stroke-linejoin:round"></rect><rect x="398.64" y="107.51" width="14.19" height="12.06" transform="translate(811.46 227.08) rotate(180)" style="fill:none;stroke:#000;stroke-linecap:round;stroke-linejoin:round"></rect><rect x="359.95" y="321.89" width="14.19" height="12.06" transform="translate(734.1 655.85) rotate(180)" style="fill:none;stroke:#000;stroke-linecap:round;stroke-linejoin:round"></rect><rect x="366.16" y="66.31" width="10.64" height="7.1" transform="translate(742.96 139.72) rotate(180)" style="fill:none;stroke:#000;stroke-linecap:round;stroke-linejoin:round"></rect><rect x="263.26" y="288.59" width="23.42" height="11.35" transform="translate(549.94 588.53) rotate(180)" style="fill:none;stroke:#000;stroke-linecap:round;stroke-linejoin:round"></rect><polyline points="291.36 351.75 277.45 351.75 277.45 366.65 306.55 366.65 306.55 351.75 295.06 351.75" style="fill:none;stroke:#000;stroke-linecap:round;stroke-linejoin:round"></polyline><rect x="393.18" y="276.53" width="34.06" height="14.19" transform="translate(820.43 567.24) rotate(180)" style="fill:none;stroke:#000;stroke-linecap:round;stroke-linejoin:round"></rect><rect x="430.59" y="262.05" width="19.8" height="7.38" transform="translate(880.98 531.48) rotate(180)" style="fill:none;stroke:#000;stroke-linecap:round;stroke-linejoin:round"></rect><rect x="399.51" y="378.71" width="20.58" height="7.1" transform="translate(819.6 764.52) rotate(180)" style="fill:none;stroke:#000;stroke-linecap:round;stroke-linejoin:round"></rect><rect x="375.38" y="378.71" width="15.61" height="6.39" transform="translate(766.38 763.81) rotate(180)" style="fill:none;stroke:#000;stroke-linecap:round;stroke-linejoin:round"></rect><polyline points="265.6 409.57 285.97 409.57 285.97 394.67 256.17 394.67 256.17 409.57 262.28 409.57" style="fill:none;stroke:#000;stroke-linecap:round;stroke-linejoin:round"></polyline><rect x="211.41" y="342.99" width="16.32" height="7.81" transform="translate(439.14 693.78) rotate(180)" style="fill:none;stroke:#000;stroke-linecap:round;stroke-linejoin:round"></rect><rect x="302.29" y="329.04" width="9.23" height="3.55" transform="translate(613.81 661.62) rotate(180)" style="fill:none;stroke:#000;stroke-linecap:round;stroke-linejoin:round"></rect><rect x="195.14" y="221.88" width="15.61" height="7.1" transform="translate(405.89 450.87) rotate(180)" style="fill:none;stroke:#000;stroke-linecap:round;stroke-linejoin:round"></rect></g></g><g id="freepik--Graffiti--inject-3"><g style="opacity:0.24"><path d="M229.55,149.5A39.15,39.15,0,0,0,227,139a9.1,9.1,0,0,0-2.15-3.35,4,4,0,0,0-2.74-1.2c-1.44,0-2.5,1.11-3.18,3.35a31.48,31.48,0,0,0-1.72,7.73c-.34,3-.55,5.93-.6,8.68l-.09,2.83c-.06.8-.08,1.89-.08,3.27v.34a103.21,103.21,0,0,0,1.2,14.17q1.37,11.43,4,16.24,1.71,3,3.6,3c1.15,0,2.12-1.06,2.93-3.18a31.58,31.58,0,0,0,1.5-6.92q.47-4.08.81-9.23.18-2.23.18-5.76l-.09-7.9Q230.4,156.46,229.55,149.5Z"></path><path d="M195.06,136.23a2.55,2.55,0,0,0-1.68-1.16l-.17,8.59q-.26,5.76-.26,8.93,0,3,.09,4c.8-.81,1.77-1.92,2.92-3.35l1.29-7.39a6.27,6.27,0,0,0,.09-1.21,21.06,21.06,0,0,0-1-5.75A8.94,8.94,0,0,0,195.06,136.23Z"></path><path d="M299,44.13c-17.54-5.63-37-7.79-55.75-7.76S205,38.5,187.44,44.13C146.7,57.22,134.73,87.61,147.51,127c9.42,29,26,57,46.14,79.81,4.93,5.58,40.94,45.26,49.55,46.83,8.61-1.57,44.62-41.25,49.55-46.83C312.9,184,329.47,156,338.89,127,351.67,87.61,339.7,57.22,299,44.13ZM189.52,55.84a2.25,2.25,0,0,1,1.46-.48,2.57,2.57,0,0,1,1.8.73,2.35,2.35,0,0,1,.78,1.77q0,5.14.51,15.46.44,11.43.43,15.46l.09,1v2.07q.25,7.47.25,22.33v2.24h6.62c1.2.85,1.8,1.71,1.8,2.57a2.47,2.47,0,0,1-.64,1.68,1.94,1.94,0,0,1-1.51.73,5.07,5.07,0,0,1-.94-.17l-.34-.09a10.65,10.65,0,0,1-1.64.09h-1.46a9.35,9.35,0,0,0-1.37-.09,3.14,3.14,0,0,1-4.43.22,2.54,2.54,0,0,1-.9-1.94,6.71,6.71,0,0,1,.35-1.89,9.44,9.44,0,0,0,.25-1.8q0-7.65-.86-29.38-.86-18.55-.85-29.3A1.5,1.5,0,0,1,189.52,55.84ZM207,193.4a10.46,10.46,0,0,1-.26,2.49,1.61,1.61,0,0,1-1.81,1.38c-1.08,0-2.14-.78-3.17-2.32v-.26a61.66,61.66,0,0,0-1.55-10.14q-1.29-5.58-3.78-13.49-1.89-5.92-3.18-10.65v33.85a3.48,3.48,0,0,1-.47,2,2.18,2.18,0,0,1-1.85.64,2.11,2.11,0,0,1-1.63-.64,2.37,2.37,0,0,1-.6-1.68v-.68l.17-25.26q.16-11.17.17-25.17V132.92a1.85,1.85,0,0,1,.43-1.42,3,3,0,0,1,1.8-.38,9.57,9.57,0,0,1,4,.81,9.21,9.21,0,0,1,3.09,2.28,14.62,14.62,0,0,1,3.44,7.22,21.29,21.29,0,0,1,.13,6.78c-.15,1-.25,1.69-.31,2a20.91,20.91,0,0,1-.77,2.58c-.4,1.14-.66,1.89-.77,2.23l-1,2.4-.86,2.24a45,45,0,0,0,1.07,7.82q1,4.72,2.19,8.76.85,2.84,3.1,9.45l2.49,7.56Zm4.12-74.46V69a27.16,27.16,0,0,0-.52-4.38,20.66,20.66,0,0,1-.6-4.38V60a19.84,19.84,0,0,1,2.15-3.09,19.38,19.38,0,0,0,3.18-.34,17.18,17.18,0,0,1,3.18-.35,5,5,0,0,1,2.66.82A2.31,2.31,0,0,1,222.42,59q0,2.58-3.95,2.58h-1.2a7.2,7.2,0,0,0-1.21-.09,2.76,2.76,0,0,0-.94.09q0,2.92.34,7l.17,2.41.18,4.72c0,1.09-.09,2.75-.26,5l-.17,4.81,1.2-.26a10.36,10.36,0,0,1,2.83-.51,2.43,2.43,0,0,1,1.72.73,2.22,2.22,0,0,1,.78,1.67,2.92,2.92,0,0,1-.65,1.85,2,2,0,0,1-1.59.81l-1-.08h-1.12a2.27,2.27,0,0,0-1.8.6v26.55l4.81-.26c3.26,0,4.9.74,4.9,2.23v.34a3.85,3.85,0,0,1-1.89,1.68,9.37,9.37,0,0,1-2.67.82l-2.83.08h-2.66a8.36,8.36,0,0,1-2.84-.43C211.57,121.06,211.08,120.26,211.08,118.94Zm23.54,51.52c0,1-.15,2.81-.43,5.5a51.17,51.17,0,0,0-.34,5.41v.35a26.85,26.85,0,0,0-.52,5.67,13.34,13.34,0,0,1-1,5,12.25,12.25,0,0,1-2.92,4.38,5.7,5.7,0,0,1-4.3,2.06,6.5,6.5,0,0,1-4.21-1.54,13.05,13.05,0,0,1-3.26-4.21,40,40,0,0,1-3.7-12.72q-.85-5.58-1.28-12.88l-.09-4.56v-4.64c-.06-1.49-.09-3.29-.09-5.41a86.84,86.84,0,0,1,.43-9.1,34.51,34.51,0,0,1,1.72-8.17,9.43,9.43,0,0,1,4-5,7.53,7.53,0,0,1,3.1-.69,8.5,8.5,0,0,1,7.21,3.61,22.25,22.25,0,0,1,3.87,9,60.3,60.3,0,0,1,1.54,11.51q.34,6.1.35,11.52Zm6.19-48.6a2.24,2.24,0,0,1-2-1.25,5.89,5.89,0,0,1-.73-3q0-2.84.34-7l.17-2.23.17-4.55q0-3-.6-13.4T237.54,77c0-.17,0-.5,0-1s0-1.25,0-2.28.08-2.55.08-4.21c0-4.18-.28-6.84-.86-8a20.71,20.71,0,0,0-2.23.26l-2.41.17a3.25,3.25,0,0,1-2-.64,2,2,0,0,1-.86-1.68c0-.69.69-1.29,2.06-1.8q3-1,10.22-1.46c2-.12,3.13-.18,3.53-.18a3,3,0,0,1,1.89.69,2.21,2.21,0,0,1,.13,3.39,2.71,2.71,0,0,1-1.85.65l-1.55-.09a14.22,14.22,0,0,0-1.54-.08h-.86a104.11,104.11,0,0,1,.6,10.56l-.09,5.5c-.06,1.66-.08,3.52-.08,5.59,0,2.74.11,6,.34,9.88q.44,7.13.43,9.88,0,3.25.34,7.73t.35,7.73Q243.3,121.86,240.81,121.86Zm23.45,73.77a12.23,12.23,0,0,1-5.33,2c-1.15.11-2.06.17-2.75.17a8.91,8.91,0,0,1-4.42-1.12,11.08,11.08,0,0,1-3.48-3,19.68,19.68,0,0,1-2.32-4.6,32.79,32.79,0,0,1-1.55-5.8A87.41,87.41,0,0,1,243,170q-.09-2-.09-6.79v-5.41c.06-1.55.09-3.15.09-4.81a41.67,41.67,0,0,1,.6-8,13.74,13.74,0,0,1-.26-2.67,10.27,10.27,0,0,1,3.87-8.33,14.89,14.89,0,0,1,9.79-3.18,7.46,7.46,0,0,1,4.12,1.21,3.5,3.5,0,0,1,1.89,3,1.66,1.66,0,0,1-.68,1.38,2.81,2.81,0,0,1-1.72.51,7,7,0,0,1-1.85-.26,1.76,1.76,0,0,1-1.24-.77h-1.12v-.17a9.75,9.75,0,0,0-5.33,1.37,7.2,7.2,0,0,0-2.4,3.7,11.13,11.13,0,0,0-.52,2.4,24.21,24.21,0,0,0-.17,2.67,26.29,26.29,0,0,0-.09,2.75l.18,3,.08,2.92a15.47,15.47,0,0,1-.34,3,17.76,17.76,0,0,0-.43,3v2.06c0,2.23.08,5.3.26,9.19a51.91,51.91,0,0,0,1.11,9.8,19.58,19.58,0,0,0,2.92,7.73,6.35,6.35,0,0,0,5.59,3.26,6.71,6.71,0,0,0,3.61-1.54,7.49,7.49,0,0,1,3.26-1.55,3.65,3.65,0,0,1,2.49,1.29A5.64,5.64,0,0,1,264.26,195.63Zm3.05-130.26a30,30,0,0,1-3.14,7.52q-2,3-3.52,3c-.46-.12-.69-.63-.69-1.55a34.66,34.66,0,0,1,1-6.19,49.51,49.51,0,0,1,2.57-8.33c1.15-2.92,2.32-4.38,3.53-4.38,1,0,1.54.63,1.54,1.89A29.85,29.85,0,0,1,267.31,65.37ZM295.4,197.7a3,3,0,0,1-1.94.68,3.13,3.13,0,0,1-1-.17,4.58,4.58,0,0,0-.94-.08q-2.33-13.15-4.64-22A105.82,105.82,0,0,0,281,159.47l-1.81,3.35a6.92,6.92,0,0,0-.86,2.57c-.17,1.72-.25,3-.25,3.78q0,2.58.25,7.91c.18,3.49.26,6.16.26,8v7c0,3-1,4.55-2.92,4.55q-2.49,0-2.49-4.81,0-3.78.52-11.59.6-7.22.6-11.52l.08-7.38v-8.94a85.59,85.59,0,0,0-.6-9.88,78.39,78.39,0,0,1-.6-8.07,2.72,2.72,0,0,1,.69-1.89,2.18,2.18,0,0,1,1.72-.78q3.16,0,3.17,7l-.34,17.61,1.63-4.21q2.83-7.22,5.85-14.26a52.75,52.75,0,0,1,3.09-6.1c1-1.54,1.74-2.32,2.32-2.32a2.46,2.46,0,0,1,1.67.65,2,2,0,0,1,.73,1.59q0,.85-4.64,10.65-4.54,9.36-5.32,12.46v1.54q1.29,3.27,6.87,20.92T296.21,196A2.18,2.18,0,0,1,295.4,197.7Zm.13-80.14a11.62,11.62,0,0,1-3.78,4.08,9.25,9.25,0,0,1-5.16,1.51,11.8,11.8,0,0,1-5.32-1.12q-1.38-.78-1.38-1.8a2.58,2.58,0,0,1,.52-1.68,1.75,1.75,0,0,1,1.46-.64,7.29,7.29,0,0,1,2.49.68,9.73,9.73,0,0,0,2.23.69,4,4,0,0,0,3-1.42,10,10,0,0,0,2.1-3.73,23.18,23.18,0,0,0,1.55-7.74,28.55,28.55,0,0,0-1.16-7.77,44.09,44.09,0,0,0-3.14-8l-1.37-2.75c-1.43-2.86-2.54-5.12-3.31-6.78a38.66,38.66,0,0,1-2-5.42,26.64,26.64,0,0,1-1.29-8A15.87,15.87,0,0,1,282,61.89a11.84,11.84,0,0,1,3.22-4.64,7.41,7.41,0,0,1,5.32-2.06,5.64,5.64,0,0,1,3,.9,5.09,5.09,0,0,1,2.06,2.28l-1.46,1.81a5.47,5.47,0,0,1-3.35-.86,4.08,4.08,0,0,0-2.7,1.5,9.28,9.28,0,0,0-1.77,3,10.91,10.91,0,0,0-.51,3.26,25.89,25.89,0,0,0,.9,6.66,35.28,35.28,0,0,0,2.36,6.4l6,12a33.62,33.62,0,0,1,2.32,7,35.7,35.7,0,0,1,.86,7.73A21.73,21.73,0,0,1,295.53,117.56Z"></path></g><path d="M335,301.16a18.19,18.19,0,0,0-12.39-5.75c-3.85,0-9.21,2.94-11.5,4.31a465.43,465.43,0,0,1-45-17.28c11.84-7.65,23.73-17.09,32.44-24,4.42-3.51,9-7.12,10.87-8.3,4.19,2.08,13.76,6.46,18.06,5.16,3.26-1,5.71-4.6,6.92-7.67,1.66-4.22,1.63-8.33-.09-11.29-2.17-3.72-5.81-4.87-8.45-5.7a16,16,0,0,1-2.09-.75c.05-.43.22-1.07.33-1.55.57-2.32,1.33-5.53-.55-8.34-1.4-2.06-3.88-3.34-7.57-3.88-5.79-.86-9.4-.93-11.94,1.1s-3.22,5.84-3.66,11.64C295,233,266.46,254.78,243.55,271c-3.41-2-6.6-4-9.52-6.1-23.88-17-38.38-28.42-41.43-30.84-1.75-5.64-6.69-20.65-10.54-23.64-3.14-2.45-8.69-1.43-12.48.18-5.39,2.3-8.87,6.27-9.32,10.64a42.23,42.23,0,0,0,1.15,14.18c-3.51,1.8-9,5.38-8.6,9.87.29,2.92.91,9,5.95,10.44,2.5.71,6.07-.44,10.85-2.12,1.27-.46,2.59-.93,3.27-1.08,2.51.44,14.05,6.22,20.3,9.35,3,1.52,5.67,2.84,7.35,3.62,2.17,1,13.83,7.71,27.88,15.9-4.37,2.87-8,5.11-10.62,6.44-15.33,7.85-35.69,12.63-40.19,13.63-3.26-1.75-12.25-5.92-16.94-1.7-2.26,2-3.57,5.34-3.67,9.27-.12,4.1,1.13,8.06,3.15,10.09s4,3.8,5.08,4.76c.18,3.35,1.24,12.2,7.42,14.42a9.15,9.15,0,0,0,3.07.5c6.34,0,13.36-5.56,14.25-6.3a2.49,2.49,0,0,0,.81-1.18l2.17-6.88c5.3-2.86,32.79-17.71,55.65-31.24,16.55,9.75,32,19,36.35,21.72l.57.36c7.74,4.92,11.26,7.16,12.15,9A10.22,10.22,0,0,1,298,326c.52,3.39,1.57,10.44,11,12a11.22,11.22,0,0,0,2.05.18c7.14,0,11.43-6.55,13.29-11.63,2.49.41,6.35.58,9.59-1.5,3.05-1.94,4.82-5.29,5.25-9.95C339.72,309.55,338.27,304.72,335,301.16ZM202.65,260.94c-1.61-.74-4.2-2.05-7.22-3.56-15.32-7.67-20.35-9.9-22.67-9.9a3.91,3.91,0,0,0-.51,0,30.05,30.05,0,0,0-4.32,1.35c-2,.69-6.59,2.32-7.79,2s-1.93-2.17-2.32-6.1c-.1-1,3.38-3.86,7.59-5.7a2.54,2.54,0,0,0,1.39-3.1,38.33,38.33,0,0,1-1.55-14.23c.26-2.52,2.63-5,6.3-6.53s6.64-1.45,7.42-.83c1.91,1.48,6.19,12.51,9.05,21.88a2.64,2.64,0,0,0,.83,1.22c.16.12,15.25,12.25,42.26,31.49,2.46,1.76,5.13,3.48,7.92,5.18-2.06,1.43-4.06,2.82-6,4.1C218.12,269.55,205.3,262.18,202.65,260.94Zm-13,59.56a2.47,2.47,0,0,0-1.21,1.46l-2.25,7.12c-3.23,2.47-8.83,5.57-11.86,4.49s-4.11-7.79-4.11-10.86a2.53,2.53,0,0,0-.88-1.9s-2.86-2.46-5.65-5.24c-.88-.88-1.76-3.41-1.68-6.39.06-2.51.79-4.58,2-5.66a3,3,0,0,1,2-.56c2.71,0,7,1.67,9.95,3.34a2.45,2.45,0,0,0,1.77.29c1-.2,24.5-5.13,42.36-14.27a148.34,148.34,0,0,0,13.17-8.1c1.48-1,3-2,4.64-3.13,1.91-1.31,3.9-2.7,5.93-4.13,1.5-1,3-2.12,4.58-3.22,24.53-17.45,54.12-40.17,55.94-41.58a2.47,2.47,0,0,0,1-1.81c.32-4.47.68-8.25,1.88-9.2s4.71-.55,8-.06c2.14.32,3.6.93,4.14,1.73.66,1,.23,2.76-.16,4.34-.43,1.76-.83,3.43-.06,5,1,2,3.13,2.65,5.19,3.3s4.43,1.4,5.62,3.45c.92,1.56.82,4.21-.24,6.9s-2.68,4.41-3.68,4.71c-1.86.55-9.61-2.39-15.41-5.37a2.48,2.48,0,0,0-1.39-.28c-1.72.18-4,1.86-13.81,9.66-8.73,6.92-20.67,16.4-32.41,24L260.7,280c-1.62,1-3.33,2.08-5.09,3.16-2.25,1.4-4.6,2.82-7,4.26-1.62,1-3.27,1.94-5,2.93C219,304.79,190,320.3,189.66,320.5Zm144.52-5.86c-.27,3-1.27,5.09-2.93,6.16-3.05,2-7.73.39-7.77.38A2.49,2.49,0,0,0,320.2,323c0,.11-2.89,11.33-10.36,10.1-5.84-1-6.35-4.45-6.86-7.81a10.76,10.76,0,0,0-.82-3.23c-1.52-3.05-4.65-5-13.94-11l-.58-.37c-3.61-2.3-18.1-10.94-34.13-20.4,2.61-1.57,5.13-3.11,7.51-4.59a458.8,458.8,0,0,0,49.72,19.19,2.57,2.57,0,0,0,2.11-.29c2.48-1.61,7.32-4.15,9.79-4.15a13.16,13.16,0,0,1,8.66,4.1C333.6,307.07,334.57,310.46,334.18,314.64Z" style="opacity:0.24"></path><polygon points="449.35 13.89 379.18 44.34 394.13 51.41 359.15 79.33 421.43 58.21 409.91 47.54 449.35 13.89" style="opacity:0.24"></polygon><polygon points="34.89 13.89 105.06 44.34 90.1 51.41 125.08 79.33 62.81 58.21 74.33 47.54 34.89 13.89" style="opacity:0.24"></polygon><polygon points="31.36 135.42 106.11 119.16 98.1 133.64 142.79 135.87 79.91 155.09 83.03 139.71 31.36 135.42" style="opacity:0.24"></polygon><polygon points="452.78 135.42 378.04 119.16 386.05 133.64 341.35 135.87 404.23 155.09 401.12 139.71 452.78 135.42" style="opacity:0.24"></polygon></g><g id="freepik--character-2--inject-3"><path d="M421.94,178.51l-.93,5.94v2.92s-10.54,12.07-14.76,14.53-9.14,7.38-9.14,10.19,7.5,2.23,10.19,1.06,15.35-22.14,16.17-23.78.94-9,.94-10.31A1.28,1.28,0,0,0,421.94,178.51Z" style="fill:#fff;stroke:#263238;stroke-linecap:round;stroke-linejoin:round"></path><path d="M328.09,435.41s.67,4.85,1.33,6.18a11.7,11.7,0,0,1,.44,6.18,9.32,9.32,0,0,0,.22,4s4.86,9.5,5.08,11.49-.89,7.5-2.43,7.72-10.38-2.65-12.81-5.74-4-5.74-4-9.93a72.44,72.44,0,0,1,.44-7.29c0-.66-.88-3.53-.88-5.52s.22-4.63.22-4.63S325.22,439.6,328.09,435.41Z" style="fill:#263238;stroke:#263238;stroke-linecap:round;stroke-linejoin:round"></path><path d="M366.66,266l1.84.69-.44,2s19,5.74,34.22,10.6,28.14,8.43,28.58,11.08-1.32,18.32-4.64,32.67-9,44.15-9,44.15-.35,3.48-.35,4.58-.22,2.43-.22,4.64-14.14.22-14.14.22-.66-4-1.1-7.29,2.78-7.67,2.56-8.33-.44-8.39-.44-8.39,1.26-37.31,1.7-39.95a63.09,63.09,0,0,0,.22-8.62s-40.06-1.8-50.22-2.68-14.13-2.65-14.13-2.65-4,57-6.85,68.94a210.27,210.27,0,0,0-4.41,25.61c0,.88-1.33,33.53-1.33,33.53s2.21,3.75,1.33,5.07a24.75,24.75,0,0,0-1.77,3.54l.89,2.2s-2.43,2.65-5.3,2.65-7.95-2.42-7.95-2.42l-1.11-6c-.44-2.42-1.1-6.18-1.1-6.18s-1.54-10.79-3.31-24.25-2.87-28.93-1.33-34.23,2.87-7.5,3.1-11.26-8.21-45-9.09-47.83-4.6-10.95-3.28-22.65a65.77,65.77,0,0,1,6.62-21.42l56.53-3.31Z" style="fill:#757575;stroke:#263238;stroke-linecap:round;stroke-linejoin:round"></path><line x1="361.65" y1="270.9" x2="348.18" y2="284.59" style="fill:#fff;stroke:#263238;stroke-linecap:round;stroke-linejoin:round"></line><line x1="365.99" y1="270.39" x2="359.15" y2="276.2" style="fill:#fff;stroke:#263238;stroke-linecap:round;stroke-linejoin:round"></line><polygon points="341.12 298.72 343.55 287.9 344.97 299.27 341.12 298.72" style="fill:#263238;stroke:#263238;stroke-linecap:round;stroke-linejoin:round"></polygon><path d="M313.08,367.88s11.48,0,13.25,1.54l1.76,1.55s-7.28,0-11.26-.22S313.08,367.88,313.08,367.88Z" style="fill:#fff;stroke:#263238;stroke-linecap:round;stroke-linejoin:round"></path><path d="M313.08,372.51l12.8,1.55a14.25,14.25,0,0,1-6.18,1.1C316.39,374.94,314,375.16,313.08,372.51Z" style="fill:#fff;stroke:#263238;stroke-linecap:round;stroke-linejoin:round"></path><path d="M429.54,305.16s1.87-6.47,1.43-11.33l-20.2,12s10.82,1.1,13.25.44" style="fill:#fff;stroke:#263238;stroke-linecap:round;stroke-linejoin:round"></path><path d="M424,306.26a54.44,54.44,0,0,1,5.52-1.1" style="fill:#fff;stroke:#263238;stroke-linecap:round;stroke-linejoin:round"></path><path d="M429.54,305.16a10.3,10.3,0,0,1-1,2.34,1.48,1.48,0,0,1-1.88.68l-1.88-.17a2.13,2.13,0,0,1-1.88.34l-2.56-.85-2.4-.17-3.07-.86-1.71-.85S427.76,305.38,429.54,305.16Z" style="fill:#fff;stroke:#263238;stroke-linecap:round;stroke-linejoin:round"></path><path d="M339,162.15a76.18,76.18,0,0,0,2.41,10c1.3,3.52,1.48,3.89,3.71,4.45s11.14,1,11.14,1L364,257.71s-9.45,7.22-25,7.22-32.78-6.85-32.78-6.85l3.71-19.81-1.85-57.42s10.92-4.07,12.77-5.74-2.09-12-2.09-12S336.24,164.37,339,162.15Z" style="fill:#fff;stroke:#263238;stroke-linecap:round;stroke-linejoin:round"></path><path d="M338.6,167.5s-.75,6.18.37,10.86" style="fill:none;stroke:#263238;stroke-linecap:round;stroke-linejoin:round"></path><path d="M309.94,238.27l-.52-16,4.06-14,13.61.37c13.61.37,27.58-4.41,27.58-4.41l4.62,4.62L364,257.71s-9.45,7.22-25,7.22-32.78-6.85-32.78-6.85Z" style="fill:#bdbdbd;stroke:#263238;stroke-miterlimit:10"></path><path d="M350.5,187.89s-3.71,3.15-5,6.11-4.08,10.93-4.08,10.93-6.48-4.44-11.3-7.59a36.81,36.81,0,0,0-10.74-4.45l-1.29,25.56a38.32,38.32,0,0,0,10.74-1.11c6.48-1.48,13.33-9.63,13.33-9.63a27.64,27.64,0,0,0,8,3.52,59.76,59.76,0,0,0,5.92,1.29Z" style="fill:#263238;stroke:#263238;stroke-linecap:round;stroke-linejoin:round"></path><path d="M319.87,170.84s3.4,41.5,3.22,56.31a120.25,120.25,0,0,1-3.15,26.12s-18.34-3.15-22-4.26-4.63-1.85-4.63-1.85l1.85-12.41s-7.41.92-8.89-1.48-.92-6.86-.55-9.08S284,221.6,284,217.71s4.63-10.37,5-12.59.94-13.13,1.21-16.2,19.35-9.55,21.76-10.47S319.13,174.55,319.87,170.84Z" style="fill:#263238;stroke:#263238;stroke-linecap:round;stroke-linejoin:round"></path><path d="M343.09,174s8.15,37.6,11.85,49.82a96.08,96.08,0,0,1,3.89,23.52L377,241l-7.22-22.4s3.14,5.37,4.43,5.37a13.51,13.51,0,0,1,2.78.37,12.32,12.32,0,0,1,3.9,1.06c1.11.74,1.67-.51,3.52-.69s4.07-.37,4.07-.37l-.37-14.63L384,207.34s0-2.59-.56-3a10.22,10.22,0,0,0-2.78-.55l-.92-3.7-1.85-.75L364.76,177s-2-2.23-4.08-2.6S343.09,174,343.09,174Z" style="fill:#263238;stroke:#263238;stroke-linecap:round;stroke-linejoin:round"></path><path d="M344.38,127.09S351.91,142.89,357,153s12.19,15.34,12.64,23.47.15,9.93.15,9.93l-4.51-7.83s-1.81,10.68-3.47,13.69a58.07,58.07,0,0,1-4.51,6.62s1.66-8.87,1.2-11.58-2.25-9.63-2.25-9.63.15,12.49-2,15.5-4.51,7.52-4.51,7.52,1.85-8.43-1.66-14.14c-2.76-4.5-7.16-14.53-7.91-16s-.06-6.08-.06-6.08,4.51-6.92,2.86-17.6a84.3,84.3,0,0,0-6.32-20.46Z" style="fill:#757575;stroke:#263238;stroke-linecap:round;stroke-linejoin:round"></path><path d="M342.28,130.1s2,8.72,2.55,11.13,2.71,5.27,1.06,11.44-5.57,17-10.84,17-12.63-3.16-15.64-5.42-7.07-10.23-8-16.7-2.85-14.89,0-20.46,25-7.52,26.78-7.22S342.88,125.73,342.28,130.1Z" style="fill:#fff;stroke:#263238;stroke-linecap:round;stroke-linejoin:round"></path><path d="M327.72,154.7s2.64,4.39,9.13,2.81" style="fill:none;stroke:#263238;stroke-linecap:round;stroke-linejoin:round"></path><path d="M334.58,151.12s2-.7,2-2a2.25,2.25,0,0,0-.58-1.75" style="fill:none;stroke:#263238;stroke-linecap:round;stroke-linejoin:round"></path><path d="M342.58,128.89l-9.48,2.41L331,127.24v4.36l-8.12,2.86L320.61,131l-.45,4.36-3.76,2a60.83,60.83,0,0,0,.2,19.29c1.8,10.68,8.68,16.67,7.62,27.5s-8.72,20.16-8.72,20.16l1.95-12.64s-3.16,8.43-9.48,11.59-8.42,3.31-8.42,3.31L302.26,190a22,22,0,0,1-4.82,1.35c-1.35,0-7.22-2.41-7.22-2.41s-1.2-3.76,3.31-16.24,3.63-22.78,3.63-33.76,1.66-15,10.84-23.16,25.1-4.92,30.21-2.21,7.23,13.24,7.23,13.24l.45,1.35Z" style="fill:#757575;stroke:#263238;stroke-miterlimit:10"></path><path d="M339.9,141.23s-3.46-1-5.11,1.81" style="fill:none;stroke:#263238;stroke-linecap:round;stroke-linejoin:round"></path><path d="M333.73,139.88s1.81-4.67,5.72-3.61" style="fill:none;stroke:#263238;stroke-linecap:round;stroke-linejoin:round"></path><path d="M322.82,144.79c.33,1.16,1.11,2,1.75,1.78s.9-1.27.57-2.43-1.11-1.95-1.75-1.77S322.5,143.63,322.82,144.79Z" style="fill:#263238"></path><path d="M321.76,144.39s1.31-3.27,3.92-2.29" style="fill:none;stroke:#263238;stroke-linecap:round;stroke-linejoin:round"></path><path d="M326,138.43a5.78,5.78,0,0,0-6.79,4.1" style="fill:none;stroke:#263238;stroke-linecap:round;stroke-linejoin:round"></path><path d="M307.16,168.63s-2.78,19.63-3.52,23.15-2.41,15.74-2.22,20.37-.93,23.34-4.45,30.75-10.87,4.2-11.24,3.08-3.91-4.62-.79-18.46c1.35-6,8-22,8.14-25.92s-3.33-7.23-4.07-7.6-4.57-5.7-5.5-8.1-.36-1.63-2.58-3.49-1.7-3.44.33-3.25,6.62,5.13,6.62,5.13,2.8-5.29,2.61-6-.74-10.18-.37-12.59,2.22-1.67,2.59-.37,1.86,10.37,1.86,10.37a20.37,20.37,0,0,0,3.52.93l4.44.55s1.3-4.07,2.22-7.41S306.79,167.15,307.16,168.63Z" style="fill:#fff;stroke:#263238;stroke-linecap:round;stroke-linejoin:round"></path><path d="M289.29,214.89c.08.24.15.47.23.68a2.21,2.21,0,0,0-.4-.18C289.17,215.22,289.23,215.06,289.29,214.89Z" style="opacity:0.19"></path><path d="M285.71,229.76a.45.45,0,0,1,.31-.34.46.46,0,0,1,.45.07,10.53,10.53,0,0,1,2.21,2.28,7.68,7.68,0,0,1,.5,1.11l1.61-6.46a3.17,3.17,0,0,1-.76-2,4.28,4.28,0,0,1-2-.95,3.19,3.19,0,0,1-1.9.64c.1-.33.21-.67.32-1a1.93,1.93,0,0,0,1-.4,2.91,2.91,0,0,1-.27-.56,2.09,2.09,0,0,1-.11-.78h0l.59-1.74a.81.81,0,0,0,.3.19H288a4.78,4.78,0,0,1,1.75-.66,3.93,3.93,0,0,1,.73-2l.11,0,.07,0a1.5,1.5,0,0,1,0-.22,3,3,0,0,1,.28-.33l.11-.08a.42.42,0,0,0,0-.1,5,5,0,0,1-.28-.54.31.31,0,0,1,0-.1,1.11,1.11,0,0,1,.68-.79,1.25,1.25,0,0,1,1,.09,3.74,3.74,0,0,1,1-.24,1.22,1.22,0,0,1,1,.35l0,0a.49.49,0,0,0,.13.68.48.48,0,0,0,.67-.13,1.85,1.85,0,0,0,.27-.64,1.68,1.68,0,0,1,.88.38c.85.7,1.18.94,1.19.95s0,0,0,0l0,0a2.31,2.31,0,0,1,.48.71h.08l1.14,0a1.57,1.57,0,0,1,.3.05,1.68,1.68,0,0,0,.28-.65c.09-.44-.09-.75-.74-1.58a3.31,3.31,0,0,1-.61-1.15,5.48,5.48,0,0,1-1.7.2h0a3.13,3.13,0,0,0-1.27.29,1.91,1.91,0,0,0-.35-.91,4.63,4.63,0,0,1,1.19-.32,6.15,6.15,0,0,0-.07-1.41c-.1-.61-.26-1.3-.39-1.79a9,9,0,0,0-1.46,1.45c-.31.4-.55.74-.73,1a4.12,4.12,0,0,0-1-.23c.2-.32.52-.79,1-1.38a10.53,10.53,0,0,1,2.25-2.08.5.5,0,0,1,.43-.05.46.46,0,0,1,.3.32,25.73,25.73,0,0,1,.6,2.59,7.38,7.38,0,0,1,.09,1.53,5.29,5.29,0,0,0,1.06-.21l.11,0c.62-.17.83.44.91.67a2.64,2.64,0,0,0,.46.9,3.8,3.8,0,0,1,.95,1.75h.36c0,.32,0,.64,0,1h-.46a2.77,2.77,0,0,1-.22.51,2.48,2.48,0,0,1,.62.7c-.05.85-.11,1.76-.18,2.71a2.21,2.21,0,0,1-.59.68c-.18.13-.2.2-.26.47a3.91,3.91,0,0,1-.49,1.18,1.94,1.94,0,0,1-.68.66,4.39,4.39,0,0,1,.74,1.85,4.21,4.21,0,0,1-.52,3,.47.47,0,0,1-.4.22l-.16,0a8.21,8.21,0,0,1-2.16-1.19,5.6,5.6,0,0,1-1.43-1.83.45.45,0,0,1,0-.11,6.28,6.28,0,0,1-1.32-.67l-.27-.16c-.28.49-.85,1.35-1.56,1.51l-1,3.94A7.88,7.88,0,0,1,292,230a19.89,19.89,0,0,1,2.14-.62.5.5,0,0,1,.49.2.49.49,0,0,1,0,.52c-.14.24-1.37,2.31-2.68,2.64a2,2,0,0,1-.57.08,2,2,0,0,1-1.17-.37l-.47,1.92.5,0a9.86,9.86,0,0,1,2.71,0,4.84,4.84,0,0,1,3,2,.47.47,0,0,1,0,.43.46.46,0,0,1-.32.3,10.36,10.36,0,0,1-2.5.39,3.28,3.28,0,0,1-.56,0,8.91,8.91,0,0,1-3.17-1.86l-1.49,6a.5.5,0,0,1-.47.37l-.12,0a.49.49,0,0,1-.36-.59l1.59-6.35a19.78,19.78,0,0,1-2.58-1.78C285.14,232.34,285.6,230.18,285.71,229.76Zm6.07,2a3.23,3.23,0,0,0,1.35-1.14l-.77.26a7.44,7.44,0,0,0-1.5.76A1.18,1.18,0,0,0,291.78,231.8Zm1,4.7a5.94,5.94,0,0,0,1.93-.15,3.54,3.54,0,0,0-1.88-1,8.6,8.6,0,0,0-2.2,0A6.57,6.57,0,0,0,292.8,236.5Zm1.76-15.11h0a.5.5,0,0,1,.39-.18,1.63,1.63,0,0,0,.44-.36,1.69,1.69,0,0,0,.3-.73l-.34.18a2.07,2.07,0,0,1-1,.25,1.66,1.66,0,0,1-1.06-.38c-.66,0-2.31-.17-2.41-1.32,0-.12,0-.24-.05-.36a2,2,0,0,0-.15,1c.16,1.32.42,1.83,1.56,2A4.3,4.3,0,0,0,294.56,221.39Zm2.54-3.84-2.61,2a1.12,1.12,0,0,0,.43-.14A7.71,7.71,0,0,0,297,218a.3.3,0,0,0,.12-.22A.6.6,0,0,0,297.1,217.55Zm-5.38-1.62s0,0-.07.14a1.9,1.9,0,0,0-.06.54h0a.49.49,0,0,1,0,.62l.09.54a8.9,8.9,0,0,1,.16,1c0,.14.31.27.72.36-.11-.17-.22-.37-.35-.59a5.15,5.15,0,0,1-.44-2.58A.15.15,0,0,0,291.72,215.93Zm3.95.34a.61.61,0,0,0-.92.1.48.48,0,0,1-.45.17.48.48,0,0,1-.37-.3s-.2-.46-.49-.42a3,3,0,0,0-.64.14,4.56,4.56,0,0,0,.31,2.08c.23.4.42.7.56.93l2.73-2.11Zm4,4.76a1.71,1.71,0,0,0,.55-.94h0v0a1.86,1.86,0,0,0,0-1.12,1.31,1.31,0,0,0-1-.72l-1.14,0h0a1.33,1.33,0,0,1-.35.54,8.47,8.47,0,0,1-1,.81,2.88,2.88,0,0,1-.54,1.91,2,2,0,0,1-.32.33,6.63,6.63,0,0,1,1.41,1.59,2.09,2.09,0,0,1,.1.21,1.65,1.65,0,0,0,1.35-.6,2.83,2.83,0,0,0,.38-.92A1.55,1.55,0,0,1,299.69,221ZM297,227.18a6.43,6.43,0,0,0,1.47.87,3.43,3.43,0,0,0,.2-1.9,2.92,2.92,0,0,0-.76-1.68h0l-.32,0a1.67,1.67,0,0,1-.24,1,1.52,1.52,0,0,1-1.25.66A4.22,4.22,0,0,0,297,227.18Zm-2.89-2.67a3.69,3.69,0,0,0,1.76.71.73.73,0,0,0,.66-.23.93.93,0,0,0,.07-.62.49.49,0,0,1-.13-.39s0,0,0,0a.59.59,0,0,0-.06-.14,6.48,6.48,0,0,0-1.45-1.52,4.81,4.81,0,0,1-1.77.32,6.44,6.44,0,0,1-1.06-.1,2.56,2.56,0,0,1-2.26-2.4,4.47,4.47,0,0,0-1,.32v.08a.5.5,0,0,1-.47.37l-.12,0h0a.38.38,0,0,0-.1.12.84.84,0,0,0,0,.82c.53,1.55,2.21,1.72,3.56,1.86l.51,0A4.65,4.65,0,0,1,294.07,224.51Zm-1.67.23-.35-.08-.49,0-.54-.06c.07.56.26,1.12.48,1.19S292,225.36,292.4,224.74Zm-5.67,7.75a13.14,13.14,0,0,0,1.72,1.23,8.79,8.79,0,0,0-.61-1.47,7.1,7.1,0,0,0-1.33-1.46C286.44,231.49,286.46,232.24,286.73,232.49Z" style="opacity:0.19"></path><path d="M292.39,213.17a1.34,1.34,0,0,1-1.13-.61l-.14-.24c-.48.41-1.2,1.18-1,1.94a9.11,9.11,0,0,0,.59,1.64,3.11,3.11,0,0,0-.07,1,2.09,2.09,0,0,0-.16.22.48.48,0,0,1-.3-.2,7.09,7.09,0,0,1-.66-1.4l.07,0a.42.42,0,0,0,.26.08.48.48,0,0,0,.26-.89,2.85,2.85,0,0,0-.67-.31l.24-.7h0a.53.53,0,0,0,.49-.43.82.82,0,0,0-.12-.61l.39-1.12a6.65,6.65,0,0,1,.55-.43.48.48,0,0,1,.37-.06.46.46,0,0,1,.3.22l.43.7c.07.11.11.13.52.17h0l-.28.45A.48.48,0,0,0,292.39,213.17Z" style="opacity:0.19"></path><path d="M294,213.71a2.45,2.45,0,0,0-.87-.42.41.41,0,0,0,.12-.14s.14-.25.44-.69a3.32,3.32,0,0,1,.88.47,2.45,2.45,0,0,1,.58.58c-.26.11-.43.2-.45.21a.49.49,0,0,0-.18.66.48.48,0,0,0,.66.19l.32-.15a2.09,2.09,0,0,1-.06.72,1.63,1.63,0,0,0-.91.2.86.86,0,0,0-.14-.13A1.06,1.06,0,0,0,294,213.71Z" style="opacity:0.19"></path><path d="M292.56,213.34a.4.4,0,0,1-.17-.17l.12,0a3.47,3.47,0,0,1,.59.1A.48.48,0,0,1,292.56,213.34Z" style="opacity:0.19"></path><line x1="294.57" y1="175.67" x2="295.13" y2="178.07" style="fill:none;stroke:#263238;stroke-linecap:round;stroke-linejoin:round"></line><path d="M302.53,177.15s.91,1.93.69,2.83" style="fill:none;stroke:#263238;stroke-linecap:round;stroke-linejoin:round"></path><polygon points="301.65 202.84 293.08 201.6 292.68 204.87 301.24 206.1 301.65 202.84" style="fill:#263238;stroke:#263238;stroke-linecap:round;stroke-linejoin:round"></polygon><path d="M364.57,255.68a78.52,78.52,0,0,1-21.52,7.62c-11.31,2-37.38-7.13-37.38-7.13L303.46,267s17.71,7.38,32.34,7.87S366.66,266,366.66,266Z" style="fill:#263238;stroke:#263238;stroke-linecap:round;stroke-linejoin:round"></path><path d="M336.17,263.79,334.32,262s.86-1.35,0-2.22-2.33-1-2.58.25-2,1.84-1.84,3.07.61,1.85,1.22,1.85a10.1,10.1,0,0,0,1.36-.12l6.51,3.93-1.35-4.79Z" style="fill:#fff;stroke:#263238;stroke-linecap:round;stroke-linejoin:round"></path><path d="M339,271.91l-2.09,1.6s-2.46-1.11-3.07-.25-.49,1.23.37,1.84a3.91,3.91,0,0,0,2.09.87c.49,0,.61,1.35,1.6,1.47a1.4,1.4,0,0,0,1.72-1.23,6.8,6.8,0,0,0-.25-1.6l1.48-1.72-.86-1.6Z" style="fill:#fff;stroke:#263238;stroke-linecap:round;stroke-linejoin:round"></path><path d="M347.85,261.58l2.33-1.85s-1.35-2.33-.61-3.07,2.09-.12,2.46.74a5.51,5.51,0,0,1,.24,2.21s2,.62,1.36,1.72-2.59.74-2.59.74l-2.45,1.85Z" style="fill:#fff;stroke:#263238;stroke-linecap:round;stroke-linejoin:round"></path><path d="M347.6,269.94l2.58,1.23s1.36-1.11,2-.25a1.53,1.53,0,0,1-.49,2.22l-1.23.49a.88.88,0,0,1-.86,1.11c-1.11.12-1.48-1.36-1.48-1.36l-1.59-1.6Z" style="fill:#fff;stroke:#263238;stroke-linecap:round;stroke-linejoin:round"></path><path d="M338.75,267.6s-3.2-3-1.72-5.41,6.51-3.93,10.08-2.09,2.95,4.92,2,5.91a4.9,4.9,0,0,0-1.23,1.72s.49,2.95.24,3.32-1.72,3.32-2.58,3.93a3.23,3.23,0,0,1-3.32-.12,12.93,12.93,0,0,1-3.2-2.95C338.75,271.29,339.86,269.08,338.75,267.6Z" style="fill:#fff;stroke:#263238;stroke-linecap:round;stroke-linejoin:round"></path><path d="M345,265.14s2.7-1.22,3,0a2.56,2.56,0,0,1-1.72,3.08C344.9,268.46,343.91,266.25,345,265.14Z" style="fill:#263238;stroke:#263238;stroke-linecap:round;stroke-linejoin:round"></path><path d="M342.81,266s.24,1.84-1.23,2.21-3.45-1.35-2.71-2.46S342.68,263.79,342.81,266Z" style="fill:#263238;stroke:#263238;stroke-linecap:round;stroke-linejoin:round"></path><polyline points="344.53 270.43 343.91 268.46 342.93 270.19" style="fill:#fff;stroke:#263238;stroke-linecap:round;stroke-linejoin:round"></polyline><path d="M400.07,373.12l19.21,2.43s-.88,14.13-1.33,14.79,3.54,5.3,5.08,7.07a21.7,21.7,0,0,0,7.29,5.08c2.43.88,6.4,1.1,4,2.21s-16.78,2.42-20.09,1.54-6.62-5.08-8.61-6.62a14.67,14.67,0,0,0-5.08-2.21l-.44,7.51H397.2s.44-8.39.44-9.28-2.87-2.65-2-6a25.14,25.14,0,0,1,3.76-7.06Z" style="fill:#263238;stroke:#263238;stroke-linecap:round;stroke-linejoin:round"></path><rect x="382.18" y="406.68" width="66.47" height="59.39" rx="4.78" transform="translate(830.83 872.76) rotate(180)" style="fill:#263238;stroke:#263238;stroke-linecap:round;stroke-linejoin:round"></rect><rect x="387.08" y="413.75" width="56.67" height="45.27" transform="translate(830.83 872.76) rotate(180)" style="fill:#b0b0b0;stroke:#263238;stroke-linecap:round;stroke-linejoin:round"></rect><path d="M441.8,410.44a1.33,1.33,0,1,0,1.32-1.33A1.32,1.32,0,0,0,441.8,410.44Z" style="fill:#b0b0b0"></path><path d="M435.62,410.44a1.33,1.33,0,1,0,1.32-1.33A1.32,1.32,0,0,0,435.62,410.44Z" style="fill:#b0b0b0"></path><path d="M417.62,195.2s-5.48,4.15-9.33,1.22-4.88-10.75-3-16.63-3-4.08-6.66.28-6.78,20.88-6.36,26.08-5.76,9.54-14.61,15.64-17.13,12.64-17.18,20.88,3.9,18,17.09,28.44,26.8,12.46,36.09,6.61,10.44-17,10.54-24.72,3.91-18.18,9.46-23.47,11.79-11.6,10.67-15-3.6-2.56-6.15.21-7,8.46-12.33,6.21-5.51-12.52-5.51-12.52Z" style="fill:#92E3A9;stroke:#263238;stroke-linecap:round;stroke-linejoin:round"></path><path d="M401.9,214.35,401,216a3.9,3.9,0,0,0,1.58,5.32l8.69,4.64a3.9,3.9,0,0,0,5.27-1.6l.69-1.29a3.9,3.9,0,0,0-1.46-5.2l-8.49-5A3.89,3.89,0,0,0,401.9,214.35Z" style="fill:#263238;stroke:#263238;stroke-linecap:round;stroke-linejoin:round"></path><path d="M390.27,234l-.9,1.64a3.9,3.9,0,0,0,1.57,5.32l8.7,4.64a3.91,3.91,0,0,0,5.27-1.6l.69-1.3a3.9,3.9,0,0,0-1.46-5.19l-8.49-5A3.89,3.89,0,0,0,390.27,234Z" style="fill:#263238;stroke:#263238;stroke-linecap:round;stroke-linejoin:round"></path><path d="M385.07,244.85l-.9,1.63a3.9,3.9,0,0,0,1.57,5.32l8.7,4.64a3.9,3.9,0,0,0,5.27-1.6l.69-1.3a3.89,3.89,0,0,0-1.46-5.19l-8.49-5A3.89,3.89,0,0,0,385.07,244.85Z" style="fill:#fff;stroke:#263238;stroke-linecap:round;stroke-linejoin:round"></path><path d="M411.56,250.64a1.95,1.95,0,1,1,.55-2.69A1.95,1.95,0,0,1,411.56,250.64Z" style="fill:#fff;stroke:#263238;stroke-linecap:round;stroke-linejoin:round"></path><path d="M415.3,266.92a1.94,1.94,0,1,1-2.14-3.24,1.94,1.94,0,1,1,2.14,3.24Z" style="fill:#fff;stroke:#263238;stroke-linecap:round;stroke-linejoin:round"></path><path d="M492.54,87.86s-3.68,1-5,0l-1.26-1.09-25.94,23.38s1.32,2.41.93,4.31-55.4,97.51-55.4,97.51l9.85,5.91,52.74-96.66a8.75,8.75,0,0,1,3.83-4.16,22.34,22.34,0,0,1,5.58-1.49s3.75-12.59,7.84-18S492.54,87.86,492.54,87.86Z" style="fill:#757575;stroke:#263238;stroke-linecap:round;stroke-linejoin:round"></path><line x1="459.83" y1="120.39" x2="387.35" y2="247.77" style="fill:none;stroke:#fff;stroke-linecap:round;stroke-linejoin:round;stroke-width:0.5px"></line><line x1="460.86" y1="120.78" x2="388.98" y2="248.04" style="fill:none;stroke:#fff;stroke-linecap:round;stroke-linejoin:round;stroke-width:0.5px"></line><line x1="462.16" y1="121.29" x2="390.56" y2="248.54" style="fill:none;stroke:#fff;stroke-linecap:round;stroke-linejoin:round;stroke-width:0.5px"></line><line x1="463.44" y1="121.89" x2="392.24" y2="249.36" style="fill:none;stroke:#fff;stroke-linecap:round;stroke-linejoin:round;stroke-width:0.5px"></line><line x1="464.71" y1="122.64" x2="393.47" y2="250.7" style="fill:none;stroke:#fff;stroke-linecap:round;stroke-linejoin:round;stroke-width:0.5px"></line><line x1="465.87" y1="123.09" x2="395.18" y2="251.04" style="fill:none;stroke:#fff;stroke-linecap:round;stroke-linejoin:round;stroke-width:0.5px"></line><path d="M468.51,121.19a8.75,8.75,0,0,1,3.83-4.16,22.34,22.34,0,0,1,5.58-1.49s3.75-12.59,7.84-18,6.78-9.66,6.78-9.66-3.68,1-5,0l-1.26-1.09-25.94,23.38s1.32,2.41.93,4.31c-.05.23-.9,1.83-2.34,4.46l8.26,4.63Z" style="fill:#263238;stroke:#263238;stroke-linecap:round;stroke-linejoin:round"></path><path d="M481.94,89.64a1.72,1.72,0,1,1,.49-2.38A1.71,1.71,0,0,1,481.94,89.64Z" style="fill:#fff;stroke:#263238;stroke-linecap:round;stroke-linejoin:round"></path><path d="M478.05,93.29a1.71,1.71,0,1,1,.49-2.37A1.71,1.71,0,0,1,478.05,93.29Z" style="fill:#fff;stroke:#263238;stroke-linecap:round;stroke-linejoin:round"></path><path d="M474.16,96.94a1.7,1.7,0,0,1-2.37-.48,1.71,1.71,0,1,1,2.37.48Z" style="fill:#fff;stroke:#263238;stroke-linecap:round;stroke-linejoin:round"></path><path d="M470.28,100.6a1.71,1.71,0,1,1-1.89-2.86,1.71,1.71,0,0,1,1.89,2.86Z" style="fill:#fff;stroke:#263238;stroke-linecap:round;stroke-linejoin:round"></path><path d="M466.39,104.25a1.71,1.71,0,1,1,.49-2.37A1.71,1.71,0,0,1,466.39,104.25Z" style="fill:#fff;stroke:#263238;stroke-linecap:round;stroke-linejoin:round"></path><path d="M462.5,107.91a1.72,1.72,0,1,1,.49-2.38A1.72,1.72,0,0,1,462.5,107.91Z" style="fill:#fff;stroke:#263238;stroke-linecap:round;stroke-linejoin:round"></path><path d="M485,93.23a1.7,1.7,0,0,1-2.37-.48,1.71,1.71,0,1,1,2.86-1.89A1.7,1.7,0,0,1,485,93.23Z" style="fill:#fff;stroke:#263238;stroke-linecap:round;stroke-linejoin:round"></path><path d="M481,96.7a1.72,1.72,0,1,1,.49-2.38A1.71,1.71,0,0,1,481,96.7Z" style="fill:#fff;stroke:#263238;stroke-linecap:round;stroke-linejoin:round"></path><path d="M477,100.16a1.71,1.71,0,1,1,.49-2.37A1.72,1.72,0,0,1,477,100.16Z" style="fill:#fff;stroke:#263238;stroke-linecap:round;stroke-linejoin:round"></path><path d="M473,103.63a1.72,1.72,0,1,1,.49-2.38A1.71,1.71,0,0,1,473,103.63Z" style="fill:#fff;stroke:#263238;stroke-linecap:round;stroke-linejoin:round"></path><path d="M468.94,107.09a1.71,1.71,0,1,1,.49-2.37A1.72,1.72,0,0,1,468.94,107.09Z" style="fill:#fff;stroke:#263238;stroke-linecap:round;stroke-linejoin:round"></path><path d="M464.92,110.55a1.71,1.71,0,1,1,.49-2.37A1.7,1.7,0,0,1,464.92,110.55Z" style="fill:#fff;stroke:#263238;stroke-linecap:round;stroke-linejoin:round"></path><path d="M422.79,177s1.69-1.27,2.53-1.06,3.38,4.44,3.59,5.71-1.26,2.32-3.17,1.27-4.22-3.17-3.8-4.44S422.79,177,422.79,177Z" style="fill:#fff;stroke:#263238;stroke-linecap:round;stroke-linejoin:round"></path><path d="M434,179.14s4.22,1.69,4,2.75,0,1.69-1.27,1.9-6.35-2.39-6.11-3.56S431.85,178.41,434,179.14Z" style="fill:#fff;stroke:#263238;stroke-linecap:round;stroke-linejoin:round"></path><path d="M433.05,184s4.23,1.69,4,2.74,0,1.69-1.26,1.9-6.36-2.39-6.12-3.56S430.91,183.21,433.05,184Z" style="fill:#fff;stroke:#263238;stroke-linecap:round;stroke-linejoin:round"></path><path d="M430.94,187.58s3.5,1.68,3.33,2.74,0,1.68-1,1.89-5.26-2.38-5.07-3.55S429.18,186.84,430.94,187.58Z" style="fill:#fff;stroke:#263238;stroke-linecap:round;stroke-linejoin:round"></path><path d="M429.36,191.39s2.82,1.36,2.67,2.21,0,1.36-.84,1.53-4.24-1.92-4.08-2.86S427.93,190.8,429.36,191.39Z" style="fill:#fff;stroke:#263238;stroke-linecap:round;stroke-linejoin:round"></path></g><g id="freepik--character-1--inject-3"><path d="M114.5,104.45s-8-.3-13.4,3.72-7.29,8.93-6.84,12.51-3,10.72-3.73,13.1-3.57,6.1-3.57,6.1l3.57-.15a32.37,32.37,0,0,0-3.27,6c-.89,2.53-3.87,6.1-2.23,11a42.94,42.94,0,0,0,2.82,7L90.68,161s-.89,3.28.75,5.36,9.38,4.32,9.38,4.32,1-2.53,1.63-4.17a87.58,87.58,0,0,0,2.39-8.48c0-.6,24.26,0,24.26,0s1.94,6.84,2.68,9.52a19.63,19.63,0,0,0,2.39,5.07,65.62,65.62,0,0,1,6.69-6.11c2.39-1.64,6.11-5.36,6.26-6.25l-.15.89-.3,2.23s2.53-1.48,1.94-7A26.41,26.41,0,0,0,145,145.09a15.46,15.46,0,0,1-1.78-3.57l3.87,3.13s-3.72-8-4.47-10.28-3.13-9.82-3.13-9.82-.74-9.53-7.89-15.19S121.05,103,114.5,104.45Z" style="fill:#263238;stroke:#263238;stroke-linecap:round;stroke-linejoin:round"></path><path d="M60.29,200.61s-4.51,13.47-4.92,20,1.84,18,1.84,18,11.63,4.49,15.1,3.67,7.76-8.16,8.57-12.65,1.23-21.52,1.23-21.52Z" style="fill:#fff;stroke:#263238;stroke-linecap:round;stroke-linejoin:round"></path><g style="opacity:0.19"><path d="M57.26,213s4-1.54,4.62-2.91S59.2,209.06,57.26,213Z"></path><path d="M60.54,213.16s4-1.54,4.61-2.91S62.47,209.22,60.54,213.16Z"></path><path d="M64,213.31s4-1.54,4.62-2.91S65.9,209.37,64,213.31Z"></path><path d="M67,213.92s4-1.54,4.61-2.91S68.94,210,67,213.92Z"></path><path d="M69.52,214.68s4-1.54,4.61-2.91S71.45,210.74,69.52,214.68Z"></path></g><g style="opacity:0.19"><path d="M75.31,211.64S72,208.9,71.88,207.4,74.75,207.29,75.31,211.64Z"></path><path d="M72.16,210.74s-3.29-2.75-3.43-4.24S71.6,206.38,72.16,210.74Z"></path><path d="M68.87,209.78s-3.29-2.75-3.43-4.24S68.31,205.42,68.87,209.78Z"></path><path d="M65.79,209.37s-3.29-2.74-3.43-4.23S65.23,205,65.79,209.37Z"></path><path d="M63.17,209.29s-3.3-2.75-3.43-4.24S62.61,204.93,63.17,209.29Z"></path></g><path d="M180.57,235.37c1.06-1.8,3.34-3.84,1.55-7.62s-2.85-6.33-2.85-6.33a48.13,48.13,0,0,0-5.88-20.1l-18.55,7.08-2.72,10.78h0c5.22-.92,11.34,2.94,17.16,9.36C175.87,235.85,181,234.6,180.57,235.37Z" style="fill:#fff;stroke:#263238;stroke-linecap:round;stroke-linejoin:round"></path><path d="M67.27,444.8s-5.49,7.32-7.84,10.71-.26,8.89,7.58,11,12.53.52,14.89-5.23,5.22-15.41,5.22-15.41S74.84,441.93,67.27,444.8Z" style="fill:#263238;stroke:#263238;stroke-linecap:round;stroke-linejoin:round"></path><path d="M83.13,455.1c-1.28,2.72-3.68,10.07-11.35,9.43-7-.58-12.31-5.35-13.25-6.24-.08,3.09,2.55,6.62,8.48,8.2,7.83,2.09,12.53.52,14.89-5.23,1.3-3.18,2.76-7.56,3.8-10.83C85,451.67,83.88,453.5,83.13,455.1Z" style="fill:#757575;stroke:#263238;stroke-linecap:round;stroke-linejoin:round"></path><path d="M165.7,444.8s5.49,7.32,7.84,10.71.26,8.89-7.57,11-12.54.52-14.89-5.23-5.23-15.41-5.23-15.41S158.13,441.93,165.7,444.8Z" style="fill:#263238;stroke:#263238;stroke-linecap:round;stroke-linejoin:round"></path><path d="M149.84,455.1c1.28,2.72,3.68,10.07,11.35,9.43,6.95-.58,12.31-5.35,13.25-6.24.09,3.09-2.55,6.62-8.48,8.2-7.83,2.09-12.53.52-14.88-5.23-1.31-3.18-2.77-7.56-3.81-10.83C148,451.67,149.09,453.5,149.84,455.1Z" style="fill:#757575;stroke:#263238;stroke-linecap:round;stroke-linejoin:round"></path><path d="M163.88,428.87s1.56-37.61,2.35-47.54-2.62-16.2-4.18-26.64-6.27-72.36-6.27-72.36l.26-2.09L116.9,280h-.83l-39.14.26.26,2.09s-4.7,61.91-6.27,72.36-5,16.71-4.17,26.64,2.35,47.54,2.35,47.54-3.14,3.92-2.62,5.75,3.66,6.27,3.66,6.27-2.87,2.61-2.87,3.91c0,0,6.79,2.62,11.23,4.45s7,1,8.1-.27,4.18-8.09,4.44-11-1.57-7.57-1.57-7.57,2.61-4.18,2.61-7.58,5.23-41.53,5.23-42.58,1.3-23.24,2.35-27.42,11.49-41.8,11.49-41.8l5.34-.48,5.33.48s10.45,37.62,11.49,41.8,2.35,26.38,2.35,27.42,5.23,39.19,5.23,42.58,2.61,7.58,2.61,7.58-1.83,4.7-1.57,7.57,3.4,9.67,4.44,11,3.66,2.09,8.1.27,11.23-4.45,11.23-4.45c0-1.3-2.87-3.91-2.87-3.91s3.14-4.44,3.66-6.27S163.88,428.87,163.88,428.87Z" style="fill:#757575;stroke:#263238;stroke-linecap:round;stroke-linejoin:round"></path><path d="M83.59,429.72s-9.77,5.22-8.63,5.45S86.77,432,86.77,432" style="fill:none;stroke:#263238;stroke-linecap:round;stroke-linejoin:round"></path><path d="M73.37,441.53c-.68,0,17.26,4.54,13.85,2.49" style="fill:none;stroke:#263238;stroke-linecap:round;stroke-linejoin:round"></path><path d="M97.89,355S89.26,380.9,84,389.53" style="fill:none;stroke:#263238;stroke-linecap:round;stroke-linejoin:round"></path><path d="M96.76,365.23s-6.82,24.3-7.5,27" style="fill:none;stroke:#263238;stroke-linecap:round;stroke-linejoin:round"></path><line x1="102.58" y1="302.68" x2="92.9" y2="295.75" style="fill:none;stroke:#263238;stroke-linecap:round;stroke-linejoin:round"></line><line x1="108.11" y1="306.65" x2="105.49" y2="304.77" style="fill:none;stroke:#263238;stroke-linecap:round;stroke-linejoin:round"></line><line x1="97.44" y1="303.02" x2="105.38" y2="307.78" style="fill:none;stroke:#263238;stroke-linecap:round;stroke-linejoin:round"></line><line x1="125.82" y1="307.78" x2="136.04" y2="297.34" style="fill:none;stroke:#263238;stroke-linecap:round;stroke-linejoin:round"></line><path d="M135.81,359.1s6.36,18.62,9.31,25.43" style="fill:none;stroke:#263238;stroke-linecap:round;stroke-linejoin:round"></path><path d="M148.54,397.78a33.41,33.41,0,0,0,3.17,4.24" style="fill:none;stroke:#263238;stroke-linecap:round;stroke-linejoin:round"></path><path d="M139.44,378.86a124.31,124.31,0,0,0,7.31,15.94" style="fill:none;stroke:#263238;stroke-linecap:round;stroke-linejoin:round"></path><path d="M159.88,429s-15.44,8.63-15.44,7,1.59-4.09,5-5.23" style="fill:none;stroke:#263238;stroke-linecap:round;stroke-linejoin:round"></path><path d="M161,439s-12.49,1.59-13.4,3,6.36.91,6.36.91" style="fill:none;stroke:#263238;stroke-linecap:round;stroke-linejoin:round"></path><path d="M102.9,164.21,81.24,172S66.68,178.42,64,183.92s-3.73,16.69-3.73,16.69l21.82,6.93-.41,80.78h71.44l-2-78.53,22.29-8.47s-1.06-11.36-6.57-19.53-9.23-8.52-15.09-10.83-16.51-4.62-17.58-5S102.9,164.21,102.9,164.21Z" style="fill:#263238;stroke:#263238;stroke-linecap:round;stroke-linejoin:round"></path><path d="M110,217.88l.44,4.36s3.84,2.59,7.61,2.66,7.17-2.51,7.47-2.66-.15-4.44-.15-4.44Z" style="fill:#fff;stroke:#263238;stroke-linecap:round;stroke-linejoin:round"></path><path d="M113.47,180.56s-10.74,4-12.93,11.54,1.19,15.52,1.19,15.52a4.16,4.16,0,0,0-1.19,3.38c.39,1.79.39,3.39,2.58,4s5.58-.79,6.57.2-1.19,2.39,1,3.78,12.53.4,13.92.2,1-4,2.79-4.18,3.38.6,4.78.2,3.58-1.79,3.38-4.38-1-3.38-1-4.77,2.19-8.36,2-10.95-3-9.94-9.15-12.73S116.65,179.17,113.47,180.56Z" style="fill:#fff;stroke:#263238;stroke-linecap:round;stroke-linejoin:round"></path><path d="M117.23,207s-3.2,4.62-2.61,5.69a11.41,11.41,0,0,0,2.61,2.49l.36-2.37,1.3,2.49a6.49,6.49,0,0,0,1.78-3.44c.12-1.78-1.66-5.22-1.66-5.22a20.58,20.58,0,0,0-.83,2.49C118.18,209.49,117.23,207,117.23,207Z" style="fill:#263238;stroke:#263238;stroke-linecap:round;stroke-linejoin:round"></path><path d="M115.69,203.44a40.12,40.12,0,0,0-4.39-1.66c-2-.59-4.5-2.25-5.57-1.54s-2.37,3.32-2,5.69,2.85,3,4.15,3,5.22-1.66,6.41-2.26S116.64,205.1,115.69,203.44Z" style="fill:#263238;stroke:#263238;stroke-linecap:round;stroke-linejoin:round"></path><path d="M120.41,203.44a40.12,40.12,0,0,1,4.39-1.66c2-.59,4.5-2.25,5.57-1.54s2.37,3.32,2,5.69-2.85,3-4.15,3-5.22-1.66-6.41-2.26S119.46,205.1,120.41,203.44Z" style="fill:#263238;stroke:#263238;stroke-linecap:round;stroke-linejoin:round"></path><path d="M103.12,215s3,4.83,3,5.89-1.31,3.09-.6,4,8.3,5.81,8.66,6.53,1.18,1.42,3.44,1.42,4.74-.36,5.57-1.19,3.2-4.27,5-5.21,2.61-2,2.61-3.32-.95-3.68-.71-4.63,2.38-2.13,2.14-3.32-3.77-2.41-4.28-1.3-.23,4.15-.59,5.45-5.45,5.22-11.62,4.27-7.71-4.86-7.83-6.4-.11-2.73-.11-2.73Z" style="fill:#fff;stroke:#263238;stroke-linecap:round;stroke-linejoin:round"></path><path d="M138.52,248.53s-16.22-5.05-24.78-11.15-13.24-9.86-13.24-9.86-1.94-6.36-3.11-7.27-5.32.39-5.58,2.86a12.88,12.88,0,0,0,.52,4.8s-3,1.29-2.85,2.59.39,2.34,1.29,2.6,3.38-.91,4.16-1,7.13,3.24,9.08,4.15S127.75,250,130.6,251.78s3.9,2.46,4.29,3.24-.13,3.38,3,3.89,4.15-3.76,4.15-3.76,4,1.43,4.41-2.72a4.63,4.63,0,0,0-4.41-5.32C140.72,247.11,138.52,248.53,138.52,248.53Z" style="fill:#fff;stroke:#263238;stroke-linecap:round;stroke-linejoin:round"></path><path d="M135.79,225.83s-20.76,16-26.33,18.81a60.93,60.93,0,0,1-13.11,4.41s-3.37-1.94-4.67-.77-1,4-.13,4.93,1.82,1.68,1.82,1.68,0,3.51,1.81,4.15,4.68-1.68,4.68-1.68l.77-2.47s15.1-8.08,23.1-13.23c6.57-4.23,13.34-10.36,14.16-10.43,0,0,4.13,2.13,5.43,1.74s2.59-3.25,1.68-4.8-3-1.3-3.37-2.08,1.69-3.37-1.82-3.89S136.05,222.2,135.79,225.83Z" style="fill:#fff;stroke:#263238;stroke-linecap:round;stroke-linejoin:round"></path><path d="M104.68,154.09l-2.49,15.27s8.35,5.15,17,4.26a25.65,25.65,0,0,0,13.67-5.32l-3-11.72Z" style="fill:#fff;stroke:#263238;stroke-linecap:round;stroke-linejoin:round"></path><path d="M134.11,135.58s1.53-2.47,3.06-.47.47,4.6-.24,6.83a6.59,6.59,0,0,1-3.18,3.42Z" style="fill:none;stroke:#263238;stroke-linecap:round;stroke-linejoin:round"></path><path d="M99.36,135.58s-1.53-2.47-3.06-.47-.47,4.6.24,6.83a6.59,6.59,0,0,0,3.18,3.42Z" style="fill:none;stroke:#263238;stroke-linecap:round;stroke-linejoin:round"></path><path d="M115.7,115.42s-13.16,6.84-14.36,8.21-.34,5-1,7S99,144,100,147.72s3.58,10.08,5.12,12,6.15,6.16,9.23,7,7.18.34,8-.17a105.6,105.6,0,0,0,7.86-7.69,9,9,0,0,0,2.39-4.1c.35-1.71,2.06-8.2,1.88-9.91s-2.05-17.6-2.39-19a11.37,11.37,0,0,0-1-2.56Z" style="fill:#fff;stroke:#263238;stroke-linecap:round;stroke-linejoin:round"></path><path d="M112.45,142.77s2,2.73,4.27,3.07S121,142.6,121,142.6" style="fill:none;stroke:#263238;stroke-linecap:round;stroke-linejoin:round"></path><path d="M114.09,144.53s-6,2.48-6.6,4.72.59,7.06.94,8.48.47,5.06,1.42,5.3,1.17.94,1.88-2.48.12-8.6.35-9.18,4.48-2.83,5.3-3.07,5.42,2.24,6,3.07.59,9.18.82,11.07,2.59-1.06,2.71-1.89.24-7.42.59-9.66-.82-3.65-3.3-4.94a14,14,0,0,0-4.12-1.53S116.68,146.89,114.09,144.53Z" style="fill:#263238;stroke:#263238;stroke-linecap:round;stroke-linejoin:round"></path><path d="M114.56,153.13a7,7,0,0,1,5.65-.59" style="fill:none;stroke:#263238;stroke-linecap:round;stroke-linejoin:round"></path><path d="M120.16,128.27a8.74,8.74,0,0,1,8.19-.6" style="fill:none;stroke:#263238;stroke-linecap:round;stroke-linejoin:round"></path><path d="M113,128s-3.12-1.19-8.78,0" style="fill:none;stroke:#263238;stroke-linecap:round;stroke-linejoin:round"></path><path d="M114.67,129.78s-12-.68-14.35.85-1.2,6.5.34,7.69,10.25,1.88,11.62.69,2.73-5.47,2.9-6.16A3,3,0,0,0,114.67,129.78Z" style="fill:#263238;stroke:#263238;stroke-linecap:round;stroke-linejoin:round"></path><path d="M118.82,129.78s12-.68,14.35.85,1.2,6.5-.34,7.69-10.25,1.88-11.62.69-2.73-5.47-2.9-6.16A3.06,3.06,0,0,1,118.82,129.78Z" style="fill:#263238;stroke:#263238;stroke-linecap:round;stroke-linejoin:round"></path><line x1="114.67" y1="129.78" x2="118.82" y2="129.78" style="fill:none;stroke:#263238;stroke-linecap:round;stroke-linejoin:round"></line><path d="M84.79,170.43s-4.26,14.91-6,24.85-1.07,25.93-1.07,25.93l-7.28,58.41a39,39,0,0,0,11.29,8.7c8.65,4.45,21.2,4.44,21.2,4.44s4.27-35,5.69-52,1.59-23.08,1.42-24.68-4.8-17.22-6.93-27.88-.18-24-.18-24Z" style="fill:#92E3A9;stroke:#263238;stroke-linecap:round;stroke-linejoin:round"></path><path d="M149.26,170.43s4.26,14.91,6,24.85,1.06,25.93,1.06,25.93l7.28,58.41s-3.8,7.15-10.83,10.12c-8.8,3.73-21.66,3-21.66,3s-4.26-35-5.68-52-1.6-23.08-1.42-24.68,4.79-17.22,6.92-27.88.18-24,.18-24Z" style="fill:#92E3A9;stroke:#263238;stroke-linecap:round;stroke-linejoin:round"></path><path d="M68.23,222.85s10-5.1,13.88-6.33,50.82-1,54.29-1.42,3.68-1.64,7.15-.82,8.57,4.9,8.57,4.9-15.79,5.72-21.71,8.37S94.76,241,85,243.47s-21,1-22.86,1-4.9-3.88-4.9-5.92-.61-6.74-.61-6.74" style="fill:#fff;stroke:#263238;stroke-linecap:round;stroke-linejoin:round"></path><path d="M168.73,219.18c-6-1.5-13.09-.62-16.63,0l-47.33,17.75s21.43,5.71,31.84,7.55,25.71,1.83,28.16.2,14.7-7.35,15.72-9.18l.08-.14a2.17,2.17,0,0,0,.15-.33" style="fill:#fff;stroke:#263238;stroke-linecap:round;stroke-linejoin:round"></path><path d="M171.66,231.55c-3.16.45-3.14,1.26-6.11,1.66s-3.81-1.22-4.42-2.7,4.81.34,3-1-1.54-.85-3.95-1-4.46.19-6.77,0-2.23-1.44-.39-3,7.07-1.91,7.07-1.91a32.87,32.87,0,0,0-5.69-1.33c-3.42-.51-4.65.24-8,.73a8.82,8.82,0,0,1-1.57.1l-24.4,9.15a28.73,28.73,0,0,0,2.66,3.83c2,2.12,7.88,3,6.4.93s-4.07-4.43-1-3.63,4.94,4.61,7.12,5.86,8.88,2.51,7.75,1.39-1.93-3.37-.49-3.35,3.64,2.08,8,4.4,13-.45,13-.45-2.55-.33-4.48-.63-2.23-1.44-.91-2.62,3,.61,5.72.7,6.53-2.38,7.22-3.59,7-3.11,7-3.11A20.29,20.29,0,0,0,171.66,231.55Z" style="opacity:0.19"></path><path d="M89,216.07s-6.71-5.76-7.46-6.33a13,13,0,0,0-5.29-1.22c-1.7,0-1.42.56-1,1a26.93,26.93,0,0,0,3.12,1.89,18.28,18.28,0,0,0-4.06.66c-1,.48-1.13,1.33-.47,1.8a10.05,10.05,0,0,0,2.64.85s-3.3,1.51-2.64,2.64,1.51.66,1.89.66,2.64-.28,2.64-.28l5.29-1.23Z" style="fill:#fff;stroke:#263238;stroke-linecap:round;stroke-linejoin:round"></path><path d="M76.53,214.75a36.49,36.49,0,0,1,4.35.09c1.13.19,5.09.95,5.09.95" style="fill:#fff;stroke:#263238;stroke-linecap:round;stroke-linejoin:round"></path><path d="M78.42,211.44S82.57,212,84,213s3.78,2.93,3.78,2.93" style="fill:#fff;stroke:#263238;stroke-linecap:round;stroke-linejoin:round"></path><path d="M97.62,216.76a7.19,7.19,0,0,1-4.75,2.18c-3.36.4-4.75,0-7.91,1.38a32.67,32.67,0,0,0-5.14,2.77s5.14-1,7.31,0,2.58,2.18.4,3-4.23,1-6.53,1.78-2.17.2-3.56,2,3.36-1.39,3.17.2-.6,3.36-3.56,3.76-3.17-.4-6.33,0A20,20,0,0,0,64.39,236s6.52.2,7.51,1.19,5.34,2.37,7.92,1.58,3.75-3,5.34-2.17,1.58,2-.2,2.76-4.16,1.79-4.16,1.79,9.1.39,12.66-3,5.15-5.94,6.53-6.33,1.19,2,.4,3.36,5.34-1.58,7.12-3.36,2.57-5.94,5.34-7.52.88,1.36,0,3.76,4.55,0,5.93-2.57,1.77-7.27,3.66-7.3a44.8,44.8,0,0,0,5.42-.66s-8.28-.94-12.24-.94-6.53-.2-6.53-.2,4.55,2.57,1.19,2.77a13.6,13.6,0,0,1-7.72-1.58A9.18,9.18,0,0,0,97.62,216.76Z" style="opacity:0.19"></path><path d="M158.24,213.23a27.79,27.79,0,0,0,3.72-2.37,44.93,44.93,0,0,1,3.89-2.71s-2.87,2.54-1.86,3.22,2.88-.51,3.9-1.19,4.23-2.71,4.23-2.71-1.86,2.37,0,2.2a6.16,6.16,0,0,0,3.21-1.35l1,2.88s-3.22,0-3.22.67c0,1.53-1.35,1.19,0,1.53l2.71.68a13.45,13.45,0,0,1-3.89.84c-1.69,0-2.88-1-4.91-.68a4.89,4.89,0,0,0-2.88,1.36h3.73s-5.42.84-6.94,1.18a7.33,7.33,0,0,1-3.22-.17Z" style="opacity:0.19"></path></g></svg>
