<svg width="264" height="258" viewBox="0 0 264 258" fill="none" xmlns="http://www.w3.org/2000/svg">
<path d="M115.877 73.0009C115.877 73.0009 108.009 59.8667 100.495 58.7426C92.9805 57.6186 92.6265 66.993 89.6141 68.8589C86.6017 70.7248 82.4877 65.1103 77.9804 66.9818C73.473 68.8533 74.9792 72.2366 72.3602 73.7259C69.7413 75.2153 69.3591 71.1013 63.7334 73.3494C58.1076 75.5974 56.2305 79.7282 56.2305 79.7282H121.879L115.877 73.0009Z" stroke="#263238" stroke-width="0.377833" stroke-linecap="round" stroke-linejoin="round"/>
<path d="M215.667 154.409C215.667 154.409 209.289 143.905 204.787 145.416C200.285 146.928 199.538 152.919 196.536 153.285C193.535 153.65 192.04 149.53 189.405 151.037C186.769 152.543 185.656 155.915 183.031 156.291C180.407 156.668 180.03 154.791 177.411 155.538C174.792 156.286 172.915 159.669 172.915 159.669H225.064C225.064 159.669 224.991 154.307 221.692 153.29C219.247 152.52 217.545 154.032 215.667 154.409Z" stroke="#263238" stroke-width="0.377833" stroke-linecap="round" stroke-linejoin="round"/>
<path d="M235.512 32.519C235.512 32.519 229.133 22.0149 224.631 23.5268C220.13 25.0386 219.376 31.0296 216.375 31.3949C213.374 31.7603 211.879 27.6407 209.249 29.1469C206.619 30.6531 205.5 34.0252 202.87 34.4017C200.24 34.7783 199.869 32.9011 197.25 33.6486C194.631 34.3961 192.754 37.7794 192.754 37.7794H244.903C244.903 37.7794 244.83 32.4178 241.531 31.4006C239.092 30.6475 237.389 32.1424 235.512 32.519Z" stroke="#263238" stroke-width="0.377833" stroke-linecap="round" stroke-linejoin="round"/>
<path d="M51.8576 221.648C51.8576 221.648 45.4787 211.144 40.977 212.656C36.4753 214.167 35.7278 220.159 32.7267 220.524C29.7255 220.889 28.2305 216.77 25.5947 218.276C22.9589 219.782 21.8461 223.154 19.2159 223.531C16.5856 223.907 16.2147 222.03 13.5957 222.778C10.9767 223.525 9.09961 226.903 9.09961 226.903H61.2545C61.2545 226.903 61.1814 221.547 57.8824 220.529C55.4376 219.765 53.7347 221.26 51.8576 221.648Z" stroke="#263238" stroke-width="0.377833" stroke-linecap="round" stroke-linejoin="round"/>
<path d="M128.438 110.139V69.2695" stroke="#263238" stroke-width="0.377833" stroke-linecap="round" stroke-linejoin="round"/>
<path d="M155.111 112.545L155.055 100.315L157.713 108.184C157.713 108.184 155.268 111.41 155.111 112.545Z" fill="#263238" stroke="#263238" stroke-width="0.377833" stroke-linecap="round" stroke-linejoin="round"/>
<path d="M157.724 108.189C157.724 108.189 154.026 111.606 155.476 113.742C156.926 115.878 159.887 113.883 165.867 113.883C171.847 113.883 176.546 118.013 176.546 118.013V98.0787C176.546 98.0787 176.259 95.662 172.42 94.2345C168.582 92.807 159.033 93.9535 157.325 91.2446C155.616 88.5357 156.763 83.9834 156.763 83.9834C156.763 83.9834 153.632 90.2498 154.768 95.0888C155.903 99.9277 157.724 108.189 157.724 108.189Z" fill="white" stroke="#263238" stroke-width="0.377833" stroke-linecap="round" stroke-linejoin="round"/>
<path d="M128.539 70.6582C130.267 72.3064 132.501 73.3241 134.879 73.547C144.433 74.6373 146.226 73.8785 150.778 74.8733C155.33 75.8681 157.753 79.8584 157.753 79.8584V108.189C157.753 108.189 156.331 103.918 150.351 103.345C144.371 102.772 138.964 103.204 134.12 102.918C129.275 102.631 128.567 101.794 128.567 101.794L128.539 70.6582Z" fill="white" stroke="#263238" stroke-width="0.377833" stroke-linecap="round" stroke-linejoin="round"/>
<path d="M157.106 100.883V92.2618C156.819 91.8516 156.515 91.4413 156.195 91.0479L154.251 88.7436C153.828 88.2216 153.436 87.6755 153.076 87.1082C152.727 86.537 152.55 85.8777 152.564 85.2086C152.55 84.8466 152.67 84.4921 152.902 84.2138C153.029 84.0854 153.192 83.9981 153.369 83.963C153.546 83.9279 153.73 83.9468 153.896 84.0171C154.28 84.1067 154.615 84.3375 154.835 84.6634C155.054 85.0241 155.198 85.4257 155.257 85.8436C155.339 86.3662 155.386 86.8939 155.397 87.4229L157.083 87.7095V83.1066C156.954 82.9549 156.808 82.8031 156.656 82.657C156.053 82.1131 155.348 81.6947 154.582 81.4262V79.3411L153.458 78.9814V81.0721C152.053 80.7349 150.929 80.8436 150.086 81.3981C149.243 81.9526 148.825 82.9661 148.833 84.4386C148.822 85.148 148.929 85.8543 149.147 86.5293C149.356 87.1531 149.643 87.7479 150.002 88.2996C150.379 88.8822 150.786 89.4449 151.221 89.9857L153.216 92.3293C153.787 92.9813 154.294 93.6871 154.728 94.4368C155.101 95.1008 155.295 95.8503 155.29 96.6118C155.306 96.9634 155.212 97.3113 155.02 97.6066C154.841 97.8651 154.509 97.9157 154.02 97.7583C153.61 97.6355 153.25 97.3855 152.992 97.0446C152.696 96.6403 152.493 96.176 152.396 95.6845C152.247 95.0161 152.164 94.3346 152.149 93.65L148.844 93.1667C148.828 94.8362 149.273 96.4777 150.131 97.9101C150.998 99.1861 152.269 100.134 153.739 100.602V102.783L154.863 103.137V100.934C155.6 101.128 156.378 101.111 157.106 100.883Z" fill="#FF5500"/>
<path d="M220.04 254.385L176.557 185.803L164.608 191.417L128.437 110.139L85.9547 184.324L79.3173 174.276L28.9609 254.385H220.04Z" fill="#FF5500"/>
<path d="M26.623 257.128L79.3174 174.276L85.9548 184.324L128.437 110.139L164.609 191.417L176.557 185.803L222.148 257.712" stroke="#263238" stroke-width="0.377833" stroke-linecap="round" stroke-linejoin="round"/>
<path d="M79.3174 174.275L84.6453 188.882L81.9701 203.028L86.1739 193.85L88.8491 198.442L83.1166 246.994L94.9695 201.881L89.6135 191.939L89.9956 178.558L85.9548 184.324L79.3174 174.275Z" fill="#263238" stroke="#263238" stroke-width="0.377833" stroke-linecap="round" stroke-linejoin="round"/>
<path d="M137.401 130.388L154.228 198.06L149.636 199.206L144.286 184.296L142.375 189.264L145.05 214.116L141.611 217.174L143.904 254.255L164.929 226.351L176.686 249.782L200.791 237.575L217.381 249.956L176.557 185.802L164.608 191.417L137.401 130.388Z" fill="#263238" stroke="#263238" stroke-width="0.377833" stroke-linecap="round" stroke-linejoin="round"/>
<path d="M144.276 130.006C145.631 124.311 142.114 118.596 136.419 117.24C130.724 115.884 125.009 119.402 123.653 125.097C122.297 130.792 125.815 136.507 131.51 137.863C137.205 139.218 142.92 135.701 144.276 130.006Z" stroke="#263238" stroke-width="0.377833" stroke-linecap="round" stroke-linejoin="round"/>
<path d="M74.3604 127.562H123.368" stroke="#263238" stroke-width="0.377833" stroke-linecap="round" stroke-linejoin="round"/>
<path d="M26.1953 127.562H74.3599" stroke="#263238" stroke-width="1.88916" stroke-linecap="round" stroke-linejoin="round"/>
<path d="M83.8809 124.269V131.097" stroke="#263238" stroke-width="0.377833" stroke-linecap="round" stroke-linejoin="round"/>
<path d="M89.1631 124.269V131.097" stroke="#263238" stroke-width="0.377833" stroke-linecap="round" stroke-linejoin="round"/>
<path d="M94.4463 124.269V131.097" stroke="#263238" stroke-width="0.377833" stroke-linecap="round" stroke-linejoin="round"/>
<path d="M99.7295 124.269V131.097" stroke="#263238" stroke-width="0.377833" stroke-linecap="round" stroke-linejoin="round"/>
<path d="M105.013 124.269V131.097" stroke="#263238" stroke-width="0.377833" stroke-linecap="round" stroke-linejoin="round"/>
<path d="M110.29 124.269V131.097" stroke="#263238" stroke-width="0.377833" stroke-linecap="round" stroke-linejoin="round"/>
<path d="M133.967 67.9541V116.962" stroke="#263238" stroke-width="0.377833" stroke-linecap="round" stroke-linejoin="round"/>
<path d="M133.967 19.79V67.9546" stroke="#263238" stroke-width="1.88916" stroke-linecap="round" stroke-linejoin="round"/>
<path d="M137.261 77.4746H130.433" stroke="#263238" stroke-width="0.377833" stroke-linecap="round" stroke-linejoin="round"/>
<path d="M137.261 82.7578H130.433" stroke="#263238" stroke-width="0.377833" stroke-linecap="round" stroke-linejoin="round"/>
<path d="M137.261 88.041H130.433" stroke="#263238" stroke-width="0.377833" stroke-linecap="round" stroke-linejoin="round"/>
<path d="M137.261 93.3232H130.433" stroke="#263238" stroke-width="0.377833" stroke-linecap="round" stroke-linejoin="round"/>
<path d="M137.261 98.6064H130.433" stroke="#263238" stroke-width="0.377833" stroke-linecap="round" stroke-linejoin="round"/>
<path d="M137.261 103.89H130.433" stroke="#263238" stroke-width="0.377833" stroke-linecap="round" stroke-linejoin="round"/>
<path d="M193.574 127.562H144.566" stroke="#263238" stroke-width="0.377833" stroke-linecap="round" stroke-linejoin="round"/>
<path d="M241.739 127.562H193.574" stroke="#263238" stroke-width="1.88916" stroke-linecap="round" stroke-linejoin="round"/>
<path d="M184.054 130.86V124.026" stroke="#263238" stroke-width="0.377833" stroke-linecap="round" stroke-linejoin="round"/>
<path d="M178.771 130.86V124.026" stroke="#263238" stroke-width="0.377833" stroke-linecap="round" stroke-linejoin="round"/>
<path d="M173.488 130.86V124.026" stroke="#263238" stroke-width="0.377833" stroke-linecap="round" stroke-linejoin="round"/>
<path d="M168.205 130.86V124.026" stroke="#263238" stroke-width="0.377833" stroke-linecap="round" stroke-linejoin="round"/>
<path d="M162.922 130.86V124.026" stroke="#263238" stroke-width="0.377833" stroke-linecap="round" stroke-linejoin="round"/>
<path d="M157.64 130.86V124.026" stroke="#263238" stroke-width="0.377833" stroke-linecap="round" stroke-linejoin="round"/>
<path d="M133.967 187.169V138.161" stroke="#263238" stroke-width="0.377833" stroke-linecap="round" stroke-linejoin="round"/>
<path d="M133.967 235.333V187.169" stroke="#263238" stroke-width="1.88916" stroke-linecap="round" stroke-linejoin="round"/>
<path d="M130.668 177.648H137.502" stroke="#263238" stroke-width="0.377833" stroke-linecap="round" stroke-linejoin="round"/>
<path d="M130.668 172.365H137.502" stroke="#263238" stroke-width="0.377833" stroke-linecap="round" stroke-linejoin="round"/>
<path d="M130.668 167.082H137.502" stroke="#263238" stroke-width="0.377833" stroke-linecap="round" stroke-linejoin="round"/>
<path d="M130.668 161.8H137.502" stroke="#263238" stroke-width="0.377833" stroke-linecap="round" stroke-linejoin="round"/>
<path d="M130.668 156.517H137.502" stroke="#263238" stroke-width="0.377833" stroke-linecap="round" stroke-linejoin="round"/>
<path d="M130.668 151.239H137.502" stroke="#263238" stroke-width="0.377833" stroke-linecap="round" stroke-linejoin="round"/>
<path d="M133.967 9.89844C68.9817 9.89844 16.293 62.5984 16.293 127.562C16.293 192.525 68.9817 245.253 133.967 245.253C198.953 245.253 251.63 192.575 251.63 127.59C251.63 62.604 198.947 9.89844 133.967 9.89844ZM133.967 228.387C114.026 228.387 94.5325 222.473 77.9518 211.395C61.3712 200.316 48.4482 184.569 40.817 166.146C33.1858 147.722 31.1891 127.45 35.0795 107.892C38.9698 88.3334 48.5725 70.368 62.6731 56.2674C76.7738 42.1667 94.7391 32.564 114.297 28.6737C133.855 24.7833 154.128 26.78 172.551 34.4112C190.975 42.0424 206.722 54.9655 217.8 71.5461C228.879 88.1267 234.793 107.62 234.793 127.562C234.793 140.803 232.186 153.914 227.119 166.147C222.053 178.381 214.626 189.496 205.263 198.859C195.901 208.222 184.786 215.65 172.553 220.717C160.32 225.784 147.208 228.392 133.967 228.392V228.387Z" fill="#263238"/>
</svg>
