<svg width="22" height="22" viewBox="0 0 22 22" fill="none" xmlns="http://www.w3.org/2000/svg">
<circle cx="10.7679" cy="11.1364" r="10.4613" transform="rotate(-90 10.7679 11.1364)" fill="#777777"/>
<circle cx="10.7201" cy="11.0894" r="9.4672" transform="rotate(-90 10.7201 11.0894)" fill="black"/>
<g clip-path="url(#clip0_76_17959)">
<path d="M15.0375 11.1332C15.0375 11.2089 15.0256 11.2799 15.0017 11.3462C14.9783 11.4124 14.9381 11.474 14.8813 11.5308L11.1323 15.2798C11.0187 15.3934 10.8837 15.4502 10.7273 15.4502C10.5713 15.4502 10.4365 15.3934 10.3229 15.2798C10.2093 15.1662 10.1525 15.0336 10.1525 14.8822C10.1525 14.7307 10.2093 14.5981 10.3229 14.4845L13.1062 11.7012H6.74426C6.58332 11.7012 6.45078 11.6467 6.34664 11.5376C6.2425 11.4289 6.19043 11.2941 6.19043 11.1332C6.19043 10.9722 6.24477 10.8372 6.35345 10.7281C6.46252 10.6195 6.59752 10.5651 6.75846 10.5651H13.1062L10.3229 7.78176C10.2093 7.66816 10.1525 7.53562 10.1525 7.38414C10.1525 7.23266 10.2093 7.10013 10.3229 6.98652C10.4365 6.87291 10.5713 6.81611 10.7273 6.81611C10.8837 6.81611 11.0187 6.87291 11.1323 6.98652L14.8813 10.7355C14.9381 10.7923 14.9783 10.8539 15.0017 10.9201C15.0256 10.9864 15.0375 11.0574 15.0375 11.1332Z" fill="#FF5500"/>
</g>
<defs>
<clipPath id="clip0_76_17959">
<rect width="14.094" height="14.094" fill="white" transform="translate(5.31934 19.4199) rotate(-102)"/>
</clipPath>
</defs>
</svg>
