<svg width="209" height="169" viewBox="0 0 209 169" fill="none" xmlns="http://www.w3.org/2000/svg">
<path d="M12.6825 65.166C12.1041 66.0855 11.5924 66.942 11.5924 66.942C11.5924 66.942 10.4022 69.1555 9.89057 70.3494L9.37891 71.5396" stroke="#263238" stroke-width="0.277516" stroke-linecap="round" stroke-linejoin="round"/>
<path d="M168.55 72.0476H103.034C103.034 72.0476 92.8156 69.4929 90.0941 68.6402C87.3689 67.7874 83.6241 67.9579 82.2596 68.299C80.8989 68.6402 76.9798 68.9813 76.9798 68.9813L71.5294 66.4266L69.3159 64.5542L65.7417 60.6388L62.6754 55.8707L59.6091 53.8277L55.3526 52.1259L44.4555 47.0166H31.3449L26.4062 47.1872L22.4909 50.7614L15.3386 55.1885C15.3386 55.1885 14.6564 62.5113 14.1484 63.0229" stroke="#263238" stroke-width="0.277516" stroke-linecap="round" stroke-linejoin="round"/>
<path d="M175.572 72.0479H171.701" stroke="#263238" stroke-width="0.277516" stroke-linecap="round" stroke-linejoin="round"/>
<path d="M42.416 160.6H173.759" stroke="#263238" stroke-width="0.277516" stroke-linecap="round" stroke-linejoin="round"/>
<path d="M18.4785 160.6H38.3186" stroke="#263238" stroke-width="0.277516" stroke-linecap="round" stroke-linejoin="round"/>
<path d="M18.5434 137.46C18.0742 137.598 16.9941 137.438 16.9941 137.438C16.9941 137.438 17.309 136.758 17.3405 136.717C17.6554 136.251 18.4962 135.523 19.0977 135.684C19.1968 135.713 19.2886 135.763 19.3673 135.83C19.4459 135.897 19.5096 135.98 19.5541 136.073C19.5987 136.166 19.6231 136.268 19.6258 136.371C19.6286 136.474 19.6096 136.577 19.57 136.673C19.4662 136.87 19.3207 137.043 19.1434 137.179C18.9661 137.315 18.7614 137.411 18.5434 137.46Z" fill="#263238"/>
<path d="M8.44886 137.009C8.44886 137.009 8.3418 136.263 8.3418 136.215C8.3418 135.661 8.65669 134.581 9.23295 134.383C9.33205 134.351 9.43661 134.342 9.53979 134.354C9.64296 134.366 9.74241 134.399 9.83162 134.453C9.92083 134.506 9.99777 134.577 10.0574 134.662C10.117 134.748 10.158 134.844 10.1776 134.946C10.2005 135.169 10.1746 135.394 10.1018 135.605C10.0289 135.817 9.91079 136.01 9.75569 136.171C9.44394 136.546 8.44886 137.009 8.44886 137.009Z" fill="#263238"/>
<path d="M6.13958 135.016C6.55242 135.173 6.98658 135.268 7.42751 135.296C7.52513 135.425 7.62275 135.567 7.74241 135.725C7.9282 136.005 8.13603 136.32 8.34071 136.669C8.39425 136.764 8.44778 136.871 8.50446 136.984C8.37535 136.833 8.18956 136.628 8.18956 136.609C7.83058 136.294 6.92997 135.85 6.46707 136.118C6.38913 136.165 6.3219 136.227 6.26977 136.302C6.21765 136.376 6.18179 136.46 6.16455 136.55C6.14732 136.639 6.14908 136.731 6.16974 136.819C6.1904 136.907 6.22948 136.991 6.28443 137.063C6.41636 137.209 6.57855 137.324 6.75967 137.401C6.94079 137.477 7.13647 137.514 7.33304 137.507C7.77438 137.457 8.20553 137.34 8.61152 137.16C8.72803 137.384 8.84455 137.62 8.95161 137.872C9.1398 138.323 9.28734 138.79 9.39247 139.267H9.36413C9.26336 139.113 9.04923 138.795 9.02404 138.773C8.70914 138.404 7.86837 137.878 7.36453 138.096C7.28202 138.134 7.20844 138.189 7.1486 138.257C7.08876 138.325 7.04401 138.405 7.01726 138.492C6.99051 138.579 6.98238 138.67 6.99338 138.76C7.00438 138.851 7.03428 138.937 7.08112 139.015C7.19614 139.174 7.34449 139.306 7.51582 139.402C7.68716 139.498 7.87733 139.555 8.07305 139.569C8.52729 139.565 8.97831 139.492 9.41136 139.355C9.51337 139.838 9.58385 140.327 9.62235 140.82C9.65069 141.182 9.66643 141.553 9.67903 141.925C9.6129 141.815 9.32634 141.396 9.30115 141.367C8.98625 140.999 8.14548 140.476 7.64164 140.69C7.55913 140.728 7.48555 140.783 7.42571 140.852C7.36587 140.92 7.32112 141 7.29437 141.087C7.26762 141.174 7.25949 141.265 7.27049 141.355C7.28149 141.445 7.31139 141.532 7.35823 141.61C7.47308 141.769 7.62133 141.902 7.79265 141.998C7.96397 142.094 8.15423 142.152 8.35016 142.167C8.80237 142.163 9.25136 142.091 9.68217 141.953C9.68217 142.123 9.68217 142.29 9.68217 142.46C9.68217 143.011 9.70737 143.565 9.73571 144.11C9.73571 144.299 9.7609 144.485 9.77664 144.671C9.66958 144.51 9.46175 144.22 9.46175 144.198C9.14685 143.83 8.30607 143.304 7.80224 143.521C7.71973 143.559 7.64615 143.614 7.58631 143.683C7.52647 143.751 7.48171 143.831 7.45497 143.918C7.42822 144.005 7.42008 144.096 7.43109 144.186C7.44209 144.276 7.47199 144.363 7.51883 144.441C7.63384 144.6 7.7822 144.732 7.95353 144.828C8.12486 144.923 8.31504 144.981 8.51076 144.995C8.94774 144.996 9.38222 144.929 9.79869 144.797C9.82703 145.112 9.86167 145.427 9.91205 145.713C9.93409 145.842 9.94984 145.974 9.98133 146.097C10.0128 146.22 10.0349 146.346 10.0632 146.466C10.1262 146.718 10.186 146.947 10.2521 147.18C10.2868 147.297 10.3183 147.407 10.3529 147.521C10.2679 147.341 10.1325 147.058 10.1167 147.032C9.85537 146.62 9.10906 145.974 8.57689 146.113C8.48889 146.137 8.4072 146.18 8.33745 146.239C8.2677 146.298 8.21157 146.371 8.17294 146.454C8.1343 146.536 8.11409 146.626 8.1137 146.718C8.11331 146.809 8.13275 146.899 8.17067 146.982C8.26034 147.16 8.38812 147.315 8.5449 147.438C8.70167 147.56 8.88356 147.647 9.07757 147.691C9.52223 147.757 9.97438 147.757 10.419 147.691C10.5009 147.965 10.5828 148.235 10.6678 148.484C10.7528 148.733 10.7969 148.881 10.863 149.064H11.222C11.1401 148.849 11.0583 148.623 10.9733 148.38C10.8882 148.138 10.8127 147.917 10.7339 147.672C11.1403 147.516 11.523 147.304 11.8707 147.042C12.1036 147.19 12.3443 147.326 12.5918 147.448C12.5068 147.722 12.4281 147.993 12.3588 148.248C12.2895 148.503 12.2108 148.805 12.1478 149.057H12.5005C12.5509 148.827 12.6076 148.588 12.6737 148.33C12.7398 148.072 12.7965 147.854 12.8658 147.606C13.3032 147.706 13.7534 147.74 14.201 147.706C14.3947 147.676 14.5795 147.604 14.7427 147.496C14.9058 147.387 15.0433 147.244 15.1456 147.077C15.1856 146.995 15.208 146.906 15.2113 146.815C15.2147 146.724 15.1989 146.634 15.1651 146.55C15.1313 146.465 15.0801 146.389 15.0149 146.326C14.9497 146.262 14.8719 146.214 14.7867 146.182C14.2671 146.009 13.4767 146.601 13.1901 146.995C13.1712 147.02 12.9855 147.341 12.8941 147.508C12.9351 147.357 12.9792 147.209 13.0232 147.051C13.0894 146.828 13.1649 146.592 13.2405 146.362C13.2815 146.245 13.3224 146.126 13.3665 146.006C13.4106 145.886 13.4609 145.773 13.5082 145.653C13.5806 145.483 13.6656 145.31 13.7475 145.134C14.15 145.293 14.5751 145.387 15.0071 145.414C15.1988 145.408 15.387 145.361 15.5591 145.276C15.7312 145.191 15.8833 145.071 16.0053 144.923C16.0582 144.848 16.0947 144.763 16.1123 144.673C16.1298 144.583 16.1282 144.49 16.1073 144.401C16.0865 144.312 16.047 144.228 15.9914 144.155C15.9359 144.082 15.8655 144.022 15.7849 143.978C15.2999 143.729 14.4277 144.192 14.0844 144.538C14.0844 144.538 14.0057 144.63 13.9301 144.727C14.0162 144.559 14.1044 144.393 14.1947 144.227C14.4592 143.754 14.7457 143.282 15.0291 142.807L15.2023 142.511C15.6113 142.671 16.0424 142.769 16.4808 142.8C16.6774 142.799 16.8714 142.755 17.0492 142.672C17.2271 142.588 17.3845 142.466 17.5105 142.315C17.5634 142.24 17.5999 142.155 17.6175 142.065C17.6351 141.975 17.6334 141.883 17.6126 141.793C17.5917 141.704 17.5522 141.62 17.4966 141.547C17.4411 141.475 17.3707 141.414 17.2901 141.371C16.802 141.122 15.9329 141.585 15.5865 141.931L15.4102 142.148C15.5613 141.89 15.7251 141.629 15.8447 141.364C16.0851 140.913 16.2955 140.446 16.4745 139.966C16.8935 140.138 17.3364 140.244 17.7876 140.281C17.9842 140.28 18.1782 140.236 18.3561 140.152C18.5339 140.069 18.6913 139.947 18.8174 139.796C18.8703 139.721 18.9067 139.636 18.9243 139.546C18.9419 139.456 18.9402 139.364 18.9194 139.274C18.8986 139.185 18.859 139.101 18.8035 139.028C18.7479 138.955 18.6775 138.895 18.5969 138.851C18.1088 138.603 17.2397 139.069 16.8933 139.412C16.8681 139.437 16.5784 139.787 16.4966 139.916C16.6575 139.441 16.7755 138.953 16.8492 138.458C16.9192 138.016 16.9623 137.57 16.9783 137.123C16.9972 136.707 16.9783 136.326 16.9783 135.989C16.9783 135.806 16.9626 135.643 16.9532 135.485C16.9532 135.485 17.1893 134.855 17.1988 134.824C17.3153 134.352 17.2586 133.366 16.7926 133.079C16.7128 133.035 16.6244 133.007 16.5333 132.999C16.4422 132.99 16.3503 133.002 16.2638 133.031C16.1772 133.061 16.0979 133.109 16.0311 133.171C15.9644 133.234 15.9115 133.31 15.8762 133.394C15.8133 133.58 15.7917 133.778 15.8129 133.973C15.8341 134.168 15.8976 134.357 15.999 134.525C16.2546 134.886 16.5648 135.204 16.9185 135.469C16.9185 135.63 16.9185 135.803 16.9343 135.995C16.9343 136.329 16.9343 136.71 16.9059 137.123C16.9059 137.233 16.887 137.349 16.8744 137.466C16.8524 137.268 16.8178 137 16.8115 136.975C16.6949 136.499 16.1817 135.652 15.6432 135.614C15.5526 135.611 15.4623 135.626 15.378 135.659C15.2938 135.693 15.2174 135.743 15.1539 135.808C15.0905 135.873 15.0412 135.95 15.0094 136.035C14.9776 136.12 14.9639 136.21 14.9693 136.301C14.9994 136.495 15.0714 136.679 15.1801 136.843C15.2889 137.006 15.4319 137.143 15.5991 137.245C15.9954 137.447 16.4201 137.588 16.8587 137.661C16.8335 137.913 16.7989 138.174 16.7485 138.442C16.6639 138.931 16.5364 139.411 16.3674 139.878H16.336C16.336 139.692 16.336 139.305 16.336 139.273C16.2698 138.792 15.8636 137.891 15.3251 137.793C15.2353 137.78 15.1437 137.786 15.0562 137.81C14.9687 137.834 14.8872 137.876 14.8169 137.934C14.7466 137.991 14.6892 138.063 14.6482 138.144C14.6072 138.225 14.5836 138.314 14.5788 138.404C14.5876 138.601 14.6389 138.793 14.7291 138.967C14.8194 139.142 14.9465 139.295 15.1016 139.415C15.4825 139.663 15.8986 139.852 16.336 139.976C16.1545 140.434 15.9441 140.879 15.7062 141.311C15.533 141.626 15.3409 141.941 15.1456 142.255C15.1456 142.126 15.1456 141.626 15.1456 141.585C15.0827 141.1 14.6733 140.202 14.1348 140.105C14.0447 140.088 13.9521 140.092 13.8635 140.115C13.7748 140.138 13.6922 140.18 13.6215 140.238C13.5507 140.296 13.4935 140.369 13.4538 140.451C13.4141 140.534 13.3929 140.624 13.3917 140.716C13.3996 140.912 13.4505 141.104 13.5408 141.279C13.6311 141.454 13.7587 141.606 13.9144 141.726C14.2927 141.972 14.7055 142.16 15.1393 142.284L14.8748 142.712C14.582 143.181 14.286 143.657 14.0089 144.12C13.9112 144.283 13.8231 144.435 13.7318 144.611C13.7318 144.416 13.7318 144.063 13.7318 144.035C13.6688 143.55 13.2594 142.652 12.7209 142.555C12.6308 142.538 12.5382 142.541 12.4496 142.564C12.3609 142.587 12.2783 142.629 12.2076 142.688C12.1368 142.746 12.0796 142.819 12.0399 142.901C12.0002 142.984 11.979 143.074 11.9778 143.166C11.986 143.362 12.0367 143.554 12.1264 143.728C12.2161 143.903 12.3427 144.056 12.4974 144.176C12.8618 144.417 13.2612 144.599 13.6814 144.718C13.5334 144.995 13.3948 145.269 13.2689 145.546C13.2185 145.666 13.1586 145.785 13.1146 145.905C13.0705 146.025 13.0264 146.141 12.9792 146.258C12.8973 146.503 12.8186 146.73 12.7461 146.957C12.7083 147.073 12.6768 147.184 12.6422 147.297C12.6706 147.099 12.7115 146.787 12.7115 146.759C12.7115 146.27 12.4564 145.323 11.94 145.143C11.8531 145.116 11.7615 145.107 11.6709 145.117C11.5804 145.128 11.4931 145.157 11.4147 145.203C11.3363 145.25 11.2685 145.312 11.2158 145.386C11.163 145.46 11.1265 145.545 11.1087 145.634C11.0993 145.681 11.093 145.728 11.0898 145.776C10.8422 146.134 10.6914 146.549 10.6521 146.982C10.6521 147.01 10.671 147.382 10.6898 147.571C10.6395 147.423 10.5922 147.275 10.545 147.121C10.4757 146.894 10.4096 146.658 10.3435 146.425C10.3151 146.305 10.2836 146.182 10.2553 146.059C10.2269 145.937 10.2049 145.811 10.1797 145.688C10.1451 145.502 10.1199 145.313 10.0915 145.121C10.5102 145.03 10.9119 144.874 11.2819 144.658C11.4456 144.549 11.5834 144.405 11.6857 144.237C11.788 144.069 11.8522 143.881 11.8739 143.685C11.8786 143.594 11.8633 143.502 11.8291 143.417C11.7948 143.332 11.7425 143.256 11.6756 143.193C11.6087 143.13 11.529 143.083 11.4419 143.054C11.3549 143.026 11.2627 143.016 11.1716 143.027C10.63 143.087 10.1608 143.953 10.0632 144.431C10.0632 144.447 10.0632 144.551 10.038 144.674C10.0191 144.485 9.99707 144.299 9.98448 144.11C9.94354 143.569 9.9215 143.018 9.8963 142.466L9.87741 142.12C10.307 142.031 10.7202 141.876 11.1024 141.66C11.2666 141.551 11.405 141.407 11.5077 141.238C11.6105 141.069 11.6753 140.88 11.6975 140.684C11.6996 140.593 11.6825 140.503 11.6474 140.419C11.6123 140.335 11.5599 140.259 11.4937 140.197C11.4275 140.135 11.3489 140.087 11.263 140.057C11.1772 140.027 11.0859 140.015 10.9953 140.023C10.4537 140.083 9.98448 140.952 9.88686 141.43C9.88686 141.446 9.88686 141.569 9.85852 141.708C9.83962 141.408 9.81758 141.109 9.78609 140.813C9.73694 140.305 9.65277 139.801 9.53417 139.305C9.9752 139.213 10.3998 139.054 10.7938 138.836C10.9565 138.726 11.0934 138.582 11.195 138.414C11.2967 138.246 11.3607 138.058 11.3826 137.863C11.3852 137.772 11.3685 137.682 11.3337 137.598C11.299 137.514 11.2469 137.438 11.1809 137.376C11.115 137.313 11.0366 137.266 10.9509 137.235C10.8651 137.205 10.7741 137.194 10.6835 137.201C10.1388 137.261 9.66958 138.13 9.57196 138.609C9.57196 138.644 9.52473 139.088 9.51843 139.239C9.51843 139.239 9.51843 139.239 9.51843 139.223C9.39199 138.738 9.22231 138.264 9.01144 137.809C8.82541 137.402 8.6151 137.007 8.38165 136.625C8.17067 136.269 7.95339 135.954 7.75185 135.68C7.64479 135.529 7.54717 135.397 7.4527 135.271C7.4527 135.271 7.311 134.626 7.29525 134.585C7.13151 134.125 6.5395 133.325 5.99158 133.356C5.90098 133.362 5.8126 133.387 5.73222 133.429C5.65184 133.471 5.58126 133.53 5.5251 133.601C5.46893 133.673 5.42844 133.755 5.40627 133.843C5.3841 133.931 5.38074 134.023 5.39642 134.112C5.44441 134.309 5.53615 134.493 5.66481 134.649C5.79347 134.805 5.95575 134.931 6.13958 135.016Z" fill="#263238"/>
<path d="M195.227 142.403C194.932 142.448 194.631 142.448 194.336 142.403C194.336 142.403 194.522 142.013 194.537 141.991C194.708 141.723 195.199 141.304 195.545 141.396C195.599 141.413 195.649 141.442 195.692 141.479C195.735 141.516 195.77 141.562 195.795 141.613C195.82 141.664 195.834 141.72 195.837 141.776C195.84 141.833 195.832 141.89 195.813 141.944C195.754 142.058 195.672 142.159 195.571 142.238C195.47 142.317 195.352 142.374 195.227 142.403Z" fill="#263238"/>
<path d="M189.438 142.145C189.438 142.145 189.375 141.717 189.375 141.692C189.375 141.377 189.548 140.747 189.888 140.64C189.944 140.623 190.003 140.617 190.062 140.624C190.12 140.63 190.176 140.649 190.227 140.679C190.278 140.708 190.322 140.748 190.356 140.796C190.39 140.844 190.415 140.898 190.427 140.955C190.44 141.083 190.425 141.212 190.383 141.333C190.342 141.454 190.274 141.565 190.184 141.657C189.961 141.856 189.71 142.021 189.438 142.145Z" fill="#263238"/>
<path d="M188.111 140.999C188.348 141.088 188.597 141.142 188.851 141.159C188.904 141.232 188.964 141.314 189.024 141.405C189.131 141.565 189.25 141.748 189.367 141.953L189.461 142.126L189.276 141.912C189.068 141.723 188.561 141.477 188.287 141.632C188.242 141.658 188.203 141.694 188.173 141.737C188.143 141.779 188.123 141.828 188.113 141.879C188.103 141.93 188.104 141.983 188.116 142.034C188.128 142.084 188.151 142.132 188.183 142.173C188.259 142.257 188.352 142.323 188.455 142.367C188.559 142.411 188.672 142.432 188.784 142.428C189.037 142.398 189.283 142.33 189.515 142.227C189.587 142.36 189.652 142.496 189.71 142.636C189.826 142.897 189.918 143.168 189.984 143.445H189.965C189.909 143.357 189.783 143.175 189.77 143.159C189.587 142.948 189.109 142.649 188.825 142.772C188.778 142.793 188.735 142.825 188.701 142.864C188.666 142.903 188.641 142.949 188.625 142.999C188.61 143.049 188.605 143.102 188.611 143.154C188.618 143.206 188.635 143.256 188.662 143.301C188.728 143.391 188.813 143.466 188.912 143.521C189.01 143.575 189.119 143.607 189.232 143.615C189.492 143.613 189.751 143.572 190 143.493C190.058 143.769 190.098 144.049 190.12 144.33C190.138 144.541 190.148 144.752 190.154 144.96L189.937 144.645C189.751 144.431 189.272 144.132 188.992 144.255C188.945 144.276 188.902 144.308 188.868 144.347C188.833 144.387 188.808 144.433 188.792 144.483C188.777 144.533 188.772 144.585 188.778 144.637C188.784 144.689 188.802 144.739 188.828 144.784C188.895 144.874 188.98 144.95 189.079 145.004C189.177 145.058 189.286 145.091 189.398 145.099C189.657 145.097 189.914 145.056 190.16 144.976V145.269C190.16 145.584 190.176 145.898 190.192 146.213C190.192 146.324 190.192 146.431 190.214 146.528C190.154 146.437 190.038 146.27 190.028 146.257C189.842 146.046 189.364 145.744 189.084 145.87C189.036 145.891 188.994 145.923 188.959 145.962C188.925 146.001 188.899 146.047 188.884 146.097C188.869 146.146 188.864 146.199 188.871 146.251C188.878 146.302 188.895 146.352 188.923 146.396C188.989 146.487 189.074 146.563 189.173 146.617C189.271 146.672 189.381 146.704 189.493 146.711C189.743 146.713 189.992 146.674 190.23 146.598C190.23 146.777 190.264 146.95 190.293 147.123C190.308 147.199 190.318 147.275 190.334 147.344L190.381 147.555C190.419 147.7 190.453 147.832 190.491 147.964C190.51 148.033 190.529 148.096 190.548 148.159C190.501 148.055 190.422 147.895 190.412 147.879C190.261 147.643 189.833 147.275 189.531 147.353C189.48 147.368 189.434 147.392 189.394 147.426C189.354 147.459 189.321 147.501 189.298 147.548C189.275 147.595 189.263 147.646 189.261 147.698C189.259 147.75 189.269 147.802 189.288 147.851C189.34 147.951 189.413 148.039 189.502 148.108C189.591 148.177 189.694 148.226 189.805 148.251C190.059 148.288 190.318 148.288 190.573 148.251C190.62 148.408 190.667 148.566 190.715 148.707C190.762 148.849 190.79 148.934 190.828 149.022H191.033C190.989 148.899 190.938 148.77 190.891 148.632C190.844 148.493 190.8 148.364 190.753 148.222C190.986 148.134 191.206 148.015 191.407 147.867C191.541 147.951 191.679 148.029 191.82 148.1C191.773 148.257 191.726 148.414 191.688 148.556C191.65 148.698 191.6 148.871 191.565 149.022H191.766C191.795 148.89 191.829 148.755 191.867 148.603C191.905 148.452 191.937 148.333 191.977 148.188C192.228 148.246 192.486 148.266 192.743 148.248C192.854 148.229 192.96 148.187 193.054 148.124C193.147 148.061 193.226 147.979 193.284 147.882C193.307 147.836 193.32 147.785 193.322 147.732C193.325 147.68 193.316 147.628 193.296 147.58C193.277 147.532 193.248 147.488 193.21 147.451C193.173 147.415 193.129 147.387 193.08 147.369C192.78 147.271 192.327 147.608 192.163 147.835C192.163 147.851 192.044 148.033 191.993 148.131C192.018 148.043 192.04 147.958 192.069 147.87C192.097 147.782 192.148 147.605 192.192 147.473C192.214 147.404 192.239 147.338 192.264 147.268C192.289 147.199 192.318 147.136 192.346 147.067C192.374 146.997 192.434 146.868 192.484 146.768C192.712 146.859 192.952 146.913 193.196 146.928C193.309 146.927 193.42 146.902 193.522 146.854C193.625 146.806 193.715 146.737 193.788 146.651C193.817 146.608 193.837 146.559 193.847 146.508C193.856 146.457 193.855 146.404 193.842 146.353C193.83 146.303 193.808 146.255 193.776 146.214C193.745 146.172 193.705 146.138 193.659 146.113C193.382 145.971 192.881 146.235 192.683 146.427L192.595 146.535C192.645 146.44 192.695 146.342 192.749 146.248C192.9 145.977 193.064 145.706 193.228 145.436L193.325 145.262C193.56 145.356 193.807 145.412 194.059 145.429C194.172 145.429 194.283 145.404 194.386 145.356C194.488 145.308 194.578 145.239 194.651 145.152C194.68 145.109 194.7 145.061 194.71 145.009C194.72 144.958 194.718 144.906 194.707 144.855C194.695 144.804 194.672 144.757 194.641 144.715C194.61 144.674 194.57 144.639 194.525 144.614C194.245 144.472 193.744 144.736 193.546 144.929L193.445 145.055C193.533 144.903 193.615 144.755 193.694 144.604C193.831 144.345 193.951 144.077 194.053 143.801C194.293 143.898 194.547 143.957 194.805 143.978C194.918 143.977 195.028 143.952 195.13 143.904C195.232 143.856 195.322 143.787 195.394 143.7C195.424 143.658 195.445 143.609 195.455 143.558C195.466 143.507 195.465 143.454 195.453 143.403C195.441 143.352 195.418 143.304 195.386 143.262C195.355 143.221 195.314 143.187 195.268 143.162C194.991 143.017 194.49 143.285 194.292 143.477C194.292 143.477 194.119 143.691 194.065 143.763C194.157 143.492 194.224 143.212 194.267 142.929C194.306 142.675 194.331 142.42 194.342 142.164C194.342 141.924 194.342 141.707 194.342 141.512C194.342 141.408 194.342 141.314 194.342 141.225C194.342 141.225 194.481 140.87 194.484 140.847C194.55 140.574 194.519 140.01 194.251 139.846C194.206 139.821 194.155 139.805 194.104 139.8C194.052 139.795 193.999 139.8 193.95 139.817C193.9 139.833 193.855 139.859 193.816 139.894C193.777 139.929 193.746 139.972 193.725 140.019C193.689 140.126 193.677 140.24 193.69 140.352C193.702 140.464 193.739 140.572 193.798 140.668C193.944 140.874 194.121 141.057 194.323 141.21C194.323 141.302 194.323 141.407 194.323 141.525C194.323 141.717 194.323 141.934 194.323 142.17L194.305 142.365C194.305 142.255 194.273 142.101 194.27 142.085C194.201 141.814 193.911 141.326 193.599 141.304C193.547 141.302 193.495 141.31 193.446 141.33C193.397 141.349 193.353 141.378 193.317 141.416C193.28 141.453 193.252 141.498 193.234 141.547C193.216 141.596 193.208 141.649 193.212 141.701C193.23 141.812 193.271 141.918 193.334 142.011C193.396 142.105 193.478 142.184 193.574 142.242C193.801 142.358 194.044 142.439 194.295 142.482C194.279 142.627 194.26 142.775 194.232 142.929C194.185 143.21 194.112 143.486 194.015 143.754H193.996C193.996 143.647 193.996 143.439 193.996 143.408C193.958 143.13 193.725 142.614 193.417 142.561C193.365 142.553 193.312 142.555 193.262 142.569C193.212 142.583 193.165 142.607 193.124 142.64C193.084 142.673 193.051 142.714 193.028 142.76C193.004 142.807 192.991 142.858 192.988 142.91C192.996 143.024 193.028 143.134 193.082 143.234C193.137 143.334 193.212 143.421 193.303 143.489C193.523 143.628 193.761 143.735 194.012 143.804C193.908 144.067 193.787 144.323 193.65 144.57C193.549 144.755 193.442 144.935 193.335 145.117C193.335 145.045 193.335 144.752 193.335 144.733C193.3 144.453 193.064 143.94 192.755 143.883C192.704 143.876 192.652 143.879 192.602 143.893C192.552 143.907 192.505 143.931 192.465 143.964C192.425 143.997 192.393 144.038 192.369 144.084C192.346 144.13 192.333 144.181 192.33 144.233C192.336 144.347 192.367 144.458 192.422 144.558C192.476 144.658 192.553 144.745 192.645 144.812C192.862 144.952 193.099 145.058 193.347 145.127L193.196 145.373C193.026 145.643 192.856 145.911 192.699 146.182C192.642 146.273 192.592 146.368 192.541 146.462C192.541 146.352 192.541 146.147 192.541 146.131C192.503 145.854 192.27 145.338 191.962 145.281C191.91 145.274 191.857 145.277 191.807 145.291C191.757 145.305 191.71 145.33 191.67 145.363C191.629 145.396 191.596 145.437 191.573 145.484C191.549 145.531 191.536 145.582 191.533 145.634C191.541 145.748 191.573 145.858 191.627 145.958C191.682 146.058 191.757 146.145 191.848 146.213C192.058 146.352 192.287 146.458 192.529 146.528C192.444 146.686 192.362 146.843 192.292 147.001C192.259 147.068 192.23 147.137 192.204 147.208C192.176 147.278 192.151 147.344 192.125 147.41C192.078 147.552 192.031 147.681 191.99 147.813C191.971 147.879 191.952 147.942 191.93 148.005C191.949 147.892 191.971 147.715 191.971 147.69C191.971 147.413 191.823 146.868 191.527 146.764C191.478 146.749 191.425 146.744 191.373 146.75C191.322 146.756 191.272 146.772 191.227 146.799C191.182 146.825 191.143 146.861 191.113 146.903C191.083 146.945 191.062 146.994 191.052 147.045C191.049 147.072 191.049 147.099 191.052 147.127C190.912 147.331 190.828 147.567 190.806 147.813C190.806 147.832 190.806 148.043 190.828 148.153C190.803 148.068 190.775 147.983 190.746 147.892L190.633 147.495L190.579 147.284C190.56 147.212 190.551 147.142 190.535 147.07C190.519 146.997 190.504 146.856 190.488 146.755C190.728 146.705 190.958 146.618 191.171 146.497C191.264 146.434 191.343 146.351 191.401 146.255C191.459 146.159 191.496 146.051 191.508 145.939C191.51 145.887 191.5 145.836 191.48 145.787C191.461 145.739 191.431 145.696 191.393 145.66C191.355 145.624 191.311 145.596 191.262 145.579C191.212 145.561 191.16 145.554 191.108 145.558C190.793 145.593 190.526 146.091 190.479 146.364C190.479 146.364 190.479 146.434 190.479 146.503C190.479 146.396 190.457 146.289 190.447 146.188C190.425 145.873 190.412 145.558 190.397 145.243V145.045C190.643 144.995 190.88 144.905 191.099 144.781C191.192 144.718 191.271 144.636 191.329 144.539C191.388 144.443 191.424 144.335 191.436 144.223C191.437 144.171 191.428 144.12 191.408 144.072C191.388 144.024 191.358 143.98 191.321 143.945C191.283 143.909 191.238 143.882 191.189 143.864C191.14 143.847 191.088 143.841 191.036 143.845C190.721 143.88 190.453 144.377 190.406 144.651C190.406 144.651 190.406 144.733 190.406 144.812C190.406 144.639 190.381 144.469 190.365 144.299C190.335 144.007 190.287 143.718 190.22 143.433C190.413 143.378 190.599 143.301 190.775 143.203C190.868 143.14 190.947 143.058 191.006 142.961C191.064 142.865 191.102 142.757 191.115 142.646C191.116 142.593 191.106 142.542 191.086 142.494C191.065 142.446 191.035 142.402 190.997 142.367C190.959 142.331 190.914 142.304 190.865 142.287C190.816 142.27 190.763 142.263 190.712 142.268C190.397 142.302 190.129 142.8 190.082 143.074C190.082 143.093 190.053 143.351 190.05 143.442C189.977 143.164 189.879 142.893 189.757 142.633C189.651 142.4 189.531 142.174 189.398 141.956C189.276 141.751 189.153 141.569 189.039 141.411L188.869 141.178C188.869 141.178 188.788 140.81 188.778 140.785C188.684 140.523 188.344 140.07 188.032 140.079C187.98 140.083 187.929 140.097 187.883 140.122C187.837 140.146 187.797 140.18 187.764 140.221C187.732 140.262 187.709 140.309 187.695 140.359C187.682 140.41 187.68 140.462 187.689 140.514C187.72 140.62 187.775 140.718 187.847 140.802C187.92 140.885 188.01 140.952 188.111 140.999Z" fill="#263238"/>
<path d="M205.318 137.053C204.836 137.198 203.715 137.031 203.715 137.031C203.715 137.031 204.049 136.326 204.074 136.285C204.389 135.8 205.27 135.047 205.894 135.214C205.996 135.245 206.091 135.297 206.172 135.366C206.253 135.436 206.319 135.521 206.365 135.618C206.411 135.714 206.436 135.819 206.439 135.926C206.442 136.033 206.423 136.139 206.382 136.238C206.276 136.443 206.125 136.623 205.941 136.764C205.757 136.905 205.544 137.004 205.318 137.053Z" fill="#263238"/>
<path d="M194.866 136.59C194.866 136.59 194.756 135.818 194.756 135.768C194.756 135.192 195.071 134.077 195.679 133.879C195.781 133.847 195.888 133.837 195.995 133.85C196.101 133.863 196.203 133.898 196.295 133.953C196.387 134.008 196.466 134.082 196.527 134.169C196.589 134.257 196.631 134.356 196.652 134.461C196.673 134.69 196.646 134.921 196.571 135.138C196.496 135.356 196.375 135.554 196.217 135.721C195.902 136.105 194.866 136.59 194.866 136.59Z" fill="#263238"/>
<path d="M192.484 134.512C192.911 134.676 193.36 134.773 193.816 134.799L194.131 135.243C194.323 135.532 194.541 135.872 194.761 136.235C194.818 136.332 194.875 136.442 194.931 136.549C194.799 136.395 194.616 136.181 194.594 136.162C194.223 135.819 193.303 135.378 192.812 135.655C192.731 135.703 192.661 135.768 192.607 135.845C192.553 135.922 192.516 136.01 192.498 136.102C192.48 136.195 192.482 136.29 192.503 136.382C192.525 136.474 192.566 136.56 192.623 136.634C192.76 136.785 192.928 136.904 193.116 136.983C193.303 137.062 193.506 137.099 193.709 137.091C194.166 137.041 194.613 136.92 195.032 136.732C195.152 136.965 195.271 137.208 195.385 137.469C195.589 137.94 195.752 138.428 195.873 138.927H195.844L195.492 138.414C195.158 138.033 194.295 137.491 193.772 137.715C193.688 137.754 193.613 137.811 193.551 137.881C193.49 137.951 193.444 138.033 193.417 138.122C193.389 138.211 193.38 138.305 193.391 138.397C193.402 138.49 193.432 138.579 193.48 138.659C193.599 138.824 193.752 138.961 193.929 139.06C194.107 139.16 194.303 139.22 194.506 139.236C194.976 139.231 195.444 139.155 195.892 139.012C195.997 139.512 196.07 140.018 196.109 140.527C196.14 140.905 196.156 141.286 196.169 141.67C196.099 141.556 195.803 141.125 195.778 141.097C195.444 140.716 194.582 140.171 194.059 140.394C193.975 140.434 193.9 140.491 193.839 140.561C193.778 140.631 193.732 140.713 193.705 140.802C193.677 140.891 193.668 140.985 193.679 141.077C193.689 141.17 193.719 141.259 193.766 141.339C193.885 141.503 194.039 141.64 194.216 141.739C194.393 141.838 194.59 141.897 194.793 141.912C195.261 141.908 195.726 141.834 196.172 141.692C196.172 141.868 196.172 142.041 196.172 142.218C196.172 142.788 196.197 143.361 196.225 143.924C196.225 144.12 196.254 144.315 196.27 144.507C196.159 144.34 195.955 144.038 195.933 144.016C195.599 143.635 194.736 143.09 194.213 143.313C194.129 143.353 194.054 143.41 193.993 143.48C193.932 143.55 193.886 143.633 193.859 143.721C193.831 143.81 193.823 143.904 193.833 143.996C193.844 144.089 193.873 144.178 193.92 144.258C194.04 144.422 194.193 144.559 194.37 144.658C194.548 144.757 194.744 144.816 194.947 144.831C195.399 144.832 195.848 144.763 196.279 144.627C196.31 144.941 196.345 145.256 196.395 145.571C196.421 145.704 196.436 145.842 196.468 145.968L196.553 146.352C196.619 146.61 196.682 146.85 196.751 147.089C196.783 147.209 196.817 147.322 196.852 147.442C196.767 147.256 196.625 146.963 196.606 146.938C196.339 146.51 195.564 145.842 195.032 145.993C194.942 146.019 194.858 146.064 194.786 146.125C194.714 146.186 194.656 146.261 194.615 146.345C194.574 146.43 194.551 146.522 194.548 146.616C194.545 146.71 194.562 146.804 194.597 146.891C194.69 147.072 194.822 147.23 194.982 147.355C195.142 147.48 195.328 147.569 195.526 147.615C195.987 147.685 196.455 147.685 196.915 147.615C197 147.902 197.085 148.182 197.17 148.44C197.255 148.698 197.309 148.849 197.375 149.038H197.746C197.664 148.818 197.576 148.582 197.488 148.33C197.4 148.078 197.324 147.851 197.239 147.596C197.659 147.441 198.055 147.229 198.417 146.966C198.658 147.119 198.907 147.259 199.163 147.385C199.078 147.668 198.997 147.949 198.924 148.213C198.852 148.478 198.77 148.79 198.704 149.051H199.069C199.122 148.815 199.179 148.566 199.248 148.298C199.318 148.031 199.374 147.807 199.447 147.549C199.9 147.653 200.366 147.688 200.829 147.653C201.03 147.62 201.221 147.544 201.39 147.43C201.559 147.317 201.702 147.168 201.809 146.995C201.849 146.91 201.872 146.818 201.875 146.724C201.878 146.629 201.862 146.536 201.826 146.449C201.791 146.361 201.738 146.283 201.67 146.217C201.603 146.152 201.522 146.101 201.434 146.069C200.898 145.889 200.08 146.5 199.781 146.91C199.762 146.935 199.57 147.269 199.466 147.442C199.51 147.284 199.554 147.127 199.601 146.969C199.67 146.736 199.749 146.491 199.825 146.255L199.957 145.886C199.998 145.76 200.055 145.647 200.102 145.524C200.177 145.345 200.266 145.165 200.351 144.986C200.763 145.147 201.197 145.245 201.638 145.275C201.842 145.274 202.042 145.228 202.226 145.141C202.41 145.054 202.573 144.928 202.703 144.771C202.757 144.694 202.794 144.607 202.812 144.515C202.83 144.422 202.828 144.327 202.807 144.236C202.785 144.144 202.745 144.058 202.688 143.983C202.631 143.909 202.559 143.847 202.476 143.802C201.972 143.543 201.072 144.022 200.716 144.381C200.716 144.381 200.634 144.475 200.555 144.576C200.647 144.403 200.735 144.23 200.832 144.057C201.106 143.569 201.399 143.08 201.692 142.589C201.755 142.485 201.812 142.381 201.875 142.274C202.296 142.444 202.741 142.551 203.194 142.589C203.398 142.588 203.599 142.542 203.783 142.455C203.968 142.368 204.131 142.242 204.262 142.085C204.315 142.008 204.352 141.921 204.37 141.829C204.387 141.736 204.385 141.641 204.364 141.55C204.342 141.459 204.302 141.373 204.245 141.298C204.189 141.223 204.117 141.161 204.035 141.115C203.531 140.857 202.63 141.336 202.271 141.695L202.089 141.918C202.243 141.651 202.404 141.38 202.539 141.106C202.781 140.639 202.991 140.156 203.169 139.661C203.604 139.833 204.063 139.94 204.529 139.976C204.733 139.974 204.933 139.928 205.117 139.841C205.301 139.754 205.464 139.628 205.594 139.472C205.648 139.395 205.685 139.307 205.703 139.215C205.721 139.123 205.719 139.028 205.697 138.936C205.676 138.844 205.635 138.758 205.579 138.684C205.522 138.609 205.449 138.547 205.367 138.502C204.863 138.244 203.962 138.722 203.603 139.081C203.578 139.106 203.289 139.469 203.191 139.604C203.192 139.598 203.192 139.591 203.191 139.585C203.359 139.094 203.482 138.589 203.559 138.077C203.63 137.619 203.674 137.157 203.692 136.694C203.714 136.266 203.692 135.872 203.692 135.523C203.692 135.334 203.676 135.161 203.666 135C203.666 135 203.912 134.37 203.922 134.32C204.041 133.829 203.981 132.808 203.5 132.516C203.418 132.469 203.327 132.441 203.234 132.432C203.141 132.423 203.046 132.433 202.957 132.463C202.868 132.493 202.786 132.541 202.717 132.604C202.648 132.667 202.592 132.745 202.555 132.831C202.489 133.023 202.467 133.227 202.488 133.429C202.51 133.63 202.576 133.825 202.681 133.999C202.943 134.372 203.261 134.701 203.626 134.975C203.626 135.145 203.625 135.321 203.641 135.52C203.641 135.869 203.641 136.26 203.61 136.688C203.61 136.801 203.591 136.924 203.581 137.041C203.556 136.839 203.518 136.559 203.512 136.534C203.392 136.042 202.882 135.167 202.306 135.126C202.212 135.122 202.119 135.138 202.031 135.173C201.944 135.208 201.865 135.26 201.799 135.327C201.733 135.394 201.682 135.474 201.649 135.562C201.616 135.65 201.602 135.744 201.607 135.838C201.638 136.039 201.713 136.231 201.825 136.401C201.938 136.57 202.086 136.713 202.259 136.82C202.669 137.028 203.109 137.172 203.563 137.249C203.534 137.51 203.5 137.781 203.449 138.058C203.362 138.564 203.229 139.062 203.052 139.544H203.021C203.021 139.355 203.021 138.955 203.021 138.914C202.955 138.414 202.53 137.485 201.975 137.384C201.883 137.37 201.788 137.375 201.697 137.4C201.607 137.425 201.522 137.468 201.45 137.527C201.377 137.587 201.318 137.661 201.275 137.744C201.233 137.828 201.209 137.92 201.204 138.014C201.213 138.217 201.266 138.415 201.359 138.595C201.452 138.776 201.583 138.934 201.742 139.059C202.137 139.315 202.568 139.51 203.021 139.639C202.832 140.113 202.614 140.575 202.366 141.021C202.186 141.336 201.988 141.682 201.786 142.01C201.786 141.874 201.786 141.349 201.786 141.311C201.72 140.81 201.298 139.881 200.741 139.78C200.648 139.766 200.554 139.772 200.463 139.796C200.372 139.821 200.288 139.864 200.215 139.924C200.143 139.983 200.083 140.057 200.041 140.141C199.998 140.225 199.974 140.316 199.97 140.41C199.978 140.613 200.031 140.812 200.124 140.992C200.217 141.173 200.348 141.331 200.508 141.456C200.896 141.71 201.321 141.905 201.768 142.032C201.676 142.18 201.585 142.331 201.491 142.479C201.176 142.964 200.883 143.446 200.596 143.934C200.495 144.104 200.404 144.274 200.31 144.441C200.31 144.242 200.31 143.877 200.31 143.846C200.244 143.345 199.822 142.416 199.264 142.315C199.171 142.301 199.076 142.306 198.986 142.33C198.895 142.355 198.81 142.398 198.737 142.457C198.665 142.517 198.605 142.591 198.563 142.675C198.521 142.759 198.497 142.851 198.493 142.945C198.501 143.148 198.554 143.347 198.647 143.528C198.74 143.709 198.871 143.868 199.031 143.994C199.408 144.242 199.821 144.431 200.256 144.554C200.105 144.838 199.96 145.124 199.831 145.411C199.777 145.537 199.714 145.659 199.67 145.782C199.626 145.905 199.579 146.028 199.532 146.148C199.444 146.399 199.362 146.636 199.289 146.872C199.248 146.991 199.217 147.105 199.179 147.221C199.211 147.02 199.255 146.695 199.255 146.667C199.255 146.16 198.987 145.178 198.452 144.995C198.362 144.967 198.268 144.957 198.174 144.968C198.081 144.979 197.991 145.009 197.91 145.057C197.829 145.105 197.759 145.169 197.705 145.246C197.651 145.323 197.613 145.41 197.595 145.502C197.583 145.55 197.576 145.6 197.576 145.65C197.326 146.017 197.174 146.442 197.135 146.884C197.135 146.919 197.158 147.303 197.176 147.498C197.126 147.344 197.076 147.184 197.028 147.029C196.956 146.796 196.887 146.551 196.817 146.311C196.789 146.185 196.758 146.059 196.726 145.93C196.695 145.801 196.676 145.675 196.647 145.546C196.613 145.357 196.584 145.159 196.559 144.96C196.991 144.868 197.407 144.71 197.79 144.491C197.959 144.378 198.101 144.23 198.206 144.056C198.312 143.883 198.378 143.688 198.401 143.487C198.404 143.393 198.387 143.299 198.351 143.212C198.315 143.125 198.261 143.047 198.192 142.982C198.124 142.917 198.043 142.868 197.954 142.836C197.865 142.805 197.771 142.793 197.677 142.8C197.113 142.863 196.628 143.761 196.528 144.258C196.528 144.274 196.528 144.381 196.503 144.507C196.48 144.312 196.462 144.12 196.446 143.924C196.405 143.364 196.38 142.794 196.355 142.221L196.336 141.865C196.778 141.772 197.203 141.61 197.595 141.386C197.764 141.273 197.906 141.125 198.012 140.952C198.117 140.778 198.184 140.584 198.206 140.382C198.209 140.288 198.191 140.194 198.155 140.108C198.119 140.021 198.065 139.943 197.997 139.878C197.929 139.814 197.847 139.764 197.759 139.733C197.67 139.702 197.576 139.69 197.482 139.698C196.918 139.758 196.433 140.643 196.332 141.153C196.332 141.169 196.332 141.298 196.304 141.44C196.285 141.125 196.263 140.81 196.229 140.514C196.177 139.989 196.091 139.469 195.97 138.955C196.428 138.86 196.869 138.695 197.277 138.467C197.446 138.354 197.588 138.206 197.693 138.032C197.799 137.859 197.865 137.664 197.888 137.463C197.891 137.369 197.873 137.275 197.837 137.188C197.801 137.101 197.747 137.023 197.679 136.958C197.611 136.893 197.529 136.844 197.441 136.812C197.352 136.781 197.258 136.769 197.164 136.776C196.6 136.839 196.115 137.737 196.014 138.234C196.014 138.269 195.967 138.729 195.958 138.895C195.958 138.895 195.958 138.895 195.958 138.877C195.828 138.374 195.652 137.885 195.432 137.415C195.239 136.995 195.021 136.585 194.78 136.19C194.563 135.822 194.339 135.498 194.15 135.211C194.04 135.057 193.939 134.918 193.835 134.789C193.835 134.789 193.687 134.118 193.672 134.078C193.498 133.602 192.887 132.786 192.321 132.818C192.226 132.822 192.133 132.847 192.049 132.89C191.964 132.933 191.89 132.993 191.83 133.067C191.771 133.141 191.728 133.226 191.704 133.318C191.68 133.41 191.675 133.505 191.691 133.599C191.747 133.801 191.847 133.987 191.984 134.146C192.121 134.304 192.292 134.429 192.484 134.512Z" fill="#263238"/>
<path d="M208.288 148.902H0.984375V149.217H208.288V148.902Z" fill="#263238"/>
<path d="M107.892 52.1631H44.8932C44.8637 52.1631 44.8347 52.1549 44.8097 52.1393C44.7846 52.1237 44.7644 52.1014 44.7515 52.0749C44.7389 52.0481 44.734 52.0183 44.7373 51.9888C44.7407 51.9593 44.7521 51.9314 44.7704 51.908L46.0551 50.302C46.8707 49.2849 48.1429 49.6722 49.2639 50.0312C50.0386 50.2706 50.7691 50.5004 51.2509 50.258C51.8429 49.962 52.309 49.1968 52.8475 48.3119C53.4237 47.3672 54.0787 46.2902 55.0769 45.4589C56.1696 44.5457 58.1472 45.6038 60.0586 46.6272C61.7181 47.5152 63.4375 48.4347 64.4388 48.0064C65.3835 47.6065 65.6544 46.983 65.9818 46.2619C66.4133 45.3172 66.9013 44.2466 68.945 43.5034C70.5667 42.9114 72.2011 43.6294 73.6402 44.2655C75.4445 45.059 77.0064 45.7455 78.1873 43.8876C78.7503 42.9455 79.2277 41.9549 79.6138 40.9275C80.7316 38.1974 81.7897 35.6152 86.34 35.1366C92.323 34.5068 99.6286 45.418 100.274 46.4036C101.179 46.5944 102.117 46.5477 102.998 46.2682C103.958 46.0226 104.865 45.7927 106.367 46.7311C109.006 48.3812 108.052 52.0119 108.043 52.0497C108.033 52.0824 108.013 52.1112 107.986 52.1316C107.959 52.152 107.926 52.1631 107.892 52.1631ZM45.227 51.8482H107.766C107.898 51.2373 108.395 48.3623 106.191 46.9988C104.802 46.1328 104.037 46.3249 103.064 46.5737C102.114 46.8702 101.104 46.9125 100.132 46.6965C100.092 46.6871 100.057 46.6622 100.035 46.6272C99.9593 46.5107 92.3073 34.8248 86.362 35.4483C82.0007 35.9081 80.9773 38.4052 79.894 41.0472C79.5022 42.0925 79.0163 43.1002 78.4423 44.0576C77.1166 46.1422 75.3626 45.3707 73.5047 44.552C72.0499 43.9222 70.5479 43.2515 69.0426 43.7994C67.1218 44.4953 66.6841 45.4589 66.259 46.391C65.9189 47.1405 65.5977 47.8458 64.5522 48.2804C63.4123 48.7716 61.7181 47.8584 59.9012 46.8917C58.0842 45.925 56.2011 44.911 55.269 45.6856C54.3369 46.4603 53.6725 47.5372 53.1088 48.463C52.5452 49.3888 52.0571 50.1918 51.3832 50.5288C50.788 50.8248 49.9976 50.5792 49.16 50.3178C48.0831 49.984 46.9715 49.6345 46.2913 50.4847L45.227 51.8482Z" fill="#263238"/>
<path d="M159.305 45.6225H127.834C127.805 45.6223 127.776 45.6139 127.751 45.5981C127.726 45.5824 127.706 45.5599 127.693 45.5333C127.681 45.5067 127.675 45.4771 127.679 45.4477C127.682 45.4184 127.693 45.3905 127.712 45.3674L128.341 44.5644C128.782 44.0133 129.475 44.2306 130.029 44.4038C130.401 44.5203 130.75 44.6274 130.974 44.5203C131.248 44.3849 131.478 44.0102 131.739 43.5756C132.032 43.0299 132.415 42.538 132.873 42.1208C133.459 41.6327 134.425 42.1491 135.449 42.6971C136.261 43.1316 137.102 43.5819 137.568 43.3804C137.742 43.3026 137.898 43.1881 138.024 43.0446C138.15 42.9011 138.244 42.7321 138.298 42.5491C138.423 42.2094 138.626 41.9039 138.89 41.6576C139.155 41.4113 139.475 41.2312 139.823 41.132C140.663 40.8171 141.495 41.1918 142.228 41.513C143.23 41.9539 143.872 42.1838 144.401 41.3556C144.68 40.8975 144.918 40.416 145.113 39.9165C145.68 38.531 146.218 37.221 148.536 36.9754C151.527 36.6605 155.13 41.9696 155.552 42.612C155.983 42.6982 156.428 42.6721 156.846 42.5365C157.135 42.4322 157.444 42.3997 157.748 42.442C158.052 42.4842 158.341 42.5999 158.59 42.7789C159.96 43.6323 159.469 45.5028 159.463 45.5217C159.451 45.5531 159.429 45.5798 159.401 45.598C159.372 45.6161 159.339 45.6247 159.305 45.6225ZM128.162 45.3076H159.176C159.252 44.9171 159.406 43.648 158.417 43.0308C158.204 42.8752 157.955 42.775 157.694 42.7393C157.432 42.7035 157.166 42.7334 156.918 42.8262C156.432 42.9808 155.914 43.0025 155.416 42.8891C155.376 42.8809 155.341 42.8571 155.319 42.823C155.281 42.7632 151.675 37.2619 148.791 37.2619C148.715 37.2572 148.64 37.2572 148.564 37.2619C146.432 37.4855 145.954 38.6538 145.396 40.0078C145.2 40.5341 144.955 41.0411 144.666 41.5225C143.967 42.6215 143.019 42.2058 142.099 41.8027C141.388 41.4879 140.654 41.173 139.93 41.428C139.621 41.5155 139.338 41.6755 139.104 41.8946C138.871 42.1137 138.692 42.3856 138.585 42.6876C138.515 42.9091 138.4 43.1134 138.246 43.2871C138.092 43.4607 137.902 43.5999 137.691 43.6953C137.086 43.9535 136.22 43.4906 135.301 42.9994C134.381 42.5081 133.499 42.0358 133.074 42.3885C132.647 42.7826 132.287 43.2443 132.01 43.7551C131.723 44.2275 131.475 44.6368 131.116 44.8163C130.757 44.9958 130.382 44.851 129.947 44.7155C129.318 44.5203 128.886 44.4007 128.6 44.7722L128.162 45.3076Z" fill="#263238"/>
<path d="M177.752 62.5269H145.283C145.253 62.5274 145.223 62.5191 145.198 62.5028C145.173 62.4865 145.153 62.4631 145.141 62.4355C145.128 62.4089 145.123 62.3789 145.126 62.3493C145.129 62.3197 145.141 62.2917 145.16 62.2686L145.821 61.4405C146.275 60.8768 146.955 61.0878 147.556 61.2767C147.941 61.3964 148.303 61.5097 148.526 61.3995C148.81 61.2578 149.046 60.8705 149.317 60.4233C149.619 59.8651 150.013 59.3616 150.482 58.9339C151.086 58.43 152.082 58.9654 153.136 59.529C153.974 59.9762 154.846 60.4422 155.325 60.2344C155.506 60.1538 155.667 60.0353 155.798 59.887C155.929 59.7387 156.026 59.564 156.084 59.3747C156.212 59.0239 156.421 58.7086 156.695 58.4545C156.969 58.2005 157.299 58.0151 157.658 57.9136C158.524 57.5987 159.381 57.9766 160.137 58.3072C161.176 58.7638 161.84 59 162.385 58.1435C162.672 57.661 162.915 57.1541 163.112 56.6288C163.698 55.1992 164.252 53.8483 166.642 53.5964C169.725 53.2657 173.447 58.7575 173.885 59.4125C174.332 59.5 174.793 59.474 175.227 59.3369C175.523 59.2281 175.842 59.1938 176.155 59.2372C176.468 59.2806 176.766 59.4003 177.021 59.5857C178.429 60.4643 177.922 62.3915 177.919 62.4198C177.908 62.4541 177.885 62.4834 177.854 62.5029C177.824 62.5224 177.788 62.5309 177.752 62.5269ZM145.61 62.212H177.626C177.702 61.812 177.865 60.4926 176.842 59.8502C176.621 59.6894 176.363 59.5862 176.092 59.5499C175.821 59.5137 175.545 59.5454 175.29 59.6424C174.789 59.7986 174.255 59.8203 173.743 59.7054C173.723 59.7013 173.704 59.693 173.687 59.681C173.67 59.6691 173.656 59.6538 173.646 59.6361C173.605 59.5763 169.678 53.5932 166.671 53.9113C164.466 54.1411 163.972 55.3503 163.399 56.7453C163.195 57.2917 162.942 57.8187 162.643 58.3198C161.925 59.4503 160.949 59.0221 160.004 58.6064C159.268 58.2915 158.505 57.9482 157.762 58.2191C157.444 58.3086 157.152 58.4727 156.91 58.6978C156.668 58.9228 156.483 59.2024 156.37 59.5133C156.296 59.7379 156.176 59.9445 156.018 60.1202C155.86 60.2958 155.667 60.4366 155.451 60.5336C154.821 60.8012 153.933 60.3226 152.985 59.8156C152.037 59.3086 151.124 58.8174 150.683 59.1858C150.242 59.5916 149.872 60.0685 149.588 60.5965C149.273 61.0846 149.033 61.5066 148.665 61.6892C148.297 61.8719 147.909 61.727 147.465 61.5885C146.813 61.3838 146.363 61.2736 146.067 61.6483L145.61 62.212Z" fill="#263238"/>
<path d="M55.3006 83.4418C60.6948 110.781 43.7533 99.3945 29.5073 99.3945C15.2614 99.3945 -2.78857 108.665 3.72351 83.4418C7.4393 69.0258 15.2708 60.0166 29.5168 60.0166C43.7627 60.0166 53.027 71.9103 55.3006 83.4418Z" fill="#00FEBE"/>
<path opacity="0.3" d="M55.3006 83.4418C60.6948 110.781 43.7533 99.3945 29.5073 99.3945C15.2614 99.3945 -2.78857 108.665 3.72351 83.4418C7.4393 69.0258 15.2708 60.0166 29.5168 60.0166C43.7627 60.0166 53.027 71.9103 55.3006 83.4418Z" fill="white"/>
<path d="M21.3775 96.913L28.3273 102.213L27.6156 149.06H31.8132L31.007 93.5184L40.942 82.5915L30.8842 91.185L30.5189 74.9111L29.4231 86.0648L26.8378 84.188L21.1948 76.1928L24.8224 83.4606L13.1523 78.7529L25.046 85.4728L28.9602 88.1872L28.5099 100.021L21.3775 96.913Z" fill="#A1A1A1"/>
<path d="M25.2969 70.3516C25.2969 70.3516 24.9159 72.1118 25.7063 73.573C26.2018 74.4751 26.8326 75.296 27.5767 76.0071C27.5767 76.0071 28.364 73.2266 25.2969 70.3516Z" fill="white"/>
<path d="M10.5293 85.9111C10.5293 85.9111 11.8897 87.0951 13.5492 87.1108C14.5787 87.1123 15.6024 86.9562 16.5848 86.6479C16.5848 86.6479 14.5285 84.6326 10.5293 85.9111Z" fill="white"/>
<path d="M8.44727 93.2104C8.44727 93.2104 10.0973 93.941 11.6876 93.4592C12.6714 93.1561 13.6028 92.7037 14.4492 92.1177C14.4492 92.1177 11.9111 90.7889 8.44727 93.2104Z" fill="white"/>
<path d="M18.3066 93.9724C18.3066 93.9724 20.111 93.9473 21.358 92.8514C22.1259 92.166 22.7834 91.3662 23.3072 90.4802C23.3072 90.4802 20.4133 90.3385 18.3066 93.9724Z" fill="white"/>
<path d="M14.1523 72.1719C14.1523 72.1719 14.5617 73.929 15.9 74.9115C16.7339 75.5152 17.6558 75.9868 18.6333 76.3096C18.6333 76.3096 18.1547 73.4598 14.1523 72.1719Z" fill="white"/>
<path d="M43.5364 70.8711C43.5364 70.8711 41.7509 71.123 40.6519 72.37C39.9783 73.1479 39.4272 74.0239 39.0176 74.9679C39.0176 74.9679 41.8989 74.7443 43.5364 70.8711Z" fill="white"/>
<path d="M49.7169 80.1452C49.7169 80.1452 47.9566 79.7641 46.4955 80.5577C45.5934 81.0532 44.7734 81.6852 44.0645 82.4313C44.0645 82.4313 46.845 83.2123 49.7169 80.1452Z" fill="white"/>
<path d="M49.1132 90.6782C49.1132 90.6782 47.8536 89.3997 46.1878 89.2675C45.1611 89.1902 44.1286 89.272 43.127 89.5099C43.127 89.5099 45.0321 91.6827 49.1132 90.6782Z" fill="white"/>
<path d="M42.2133 96.3278C42.2133 96.3278 41.4796 94.6809 39.9806 93.9693C39.0483 93.5321 38.0541 93.2411 37.0332 93.1064C37.0332 93.1064 38.0472 95.8146 42.2133 96.3278Z" fill="white"/>
<path d="M38.5801 79.2383C38.5801 79.2383 36.7978 79.4902 35.6988 80.7372C35.0252 81.5151 34.4741 82.3911 34.0645 83.3351C34.0645 83.3351 36.9458 83.1115 38.5801 79.2383Z" fill="white"/>
<path d="M9.3457 76.9141C9.3457 76.9141 10.1392 78.5326 11.6665 79.1876C12.6144 79.5872 13.618 79.8389 14.6423 79.9339C14.6423 79.9339 13.5338 77.2667 9.3457 76.9141Z" fill="white"/>
<path d="M34.7889 68.3867C34.7889 68.3867 33.3436 69.4668 32.9814 71.0854C32.7616 72.091 32.6978 73.1244 32.7925 74.1493C32.7925 74.1493 35.2141 72.5717 34.7889 68.3867Z" fill="white"/>
<path d="M29.3413 63.2891C29.3413 63.2891 28.5194 64.895 28.9099 66.5105C29.1559 67.5106 29.5553 68.4667 30.0939 69.3445C30.0939 69.3445 31.5677 66.8569 29.3413 63.2891Z" fill="white"/>
<path d="M17.5449 65.0049C17.5449 65.0049 17.5449 66.8061 18.6282 68.0688C19.3029 68.8453 20.0931 69.5134 20.971 70.0495C20.971 70.0495 21.1505 67.1651 17.5449 65.0049Z" fill="white"/>
<path d="M173.054 90.5557C177.863 114.932 162.748 104.786 150.057 104.786C137.367 104.786 121.26 113.052 127.07 90.562C130.382 77.711 137.367 69.6748 150.057 69.6748C162.748 69.6748 171.026 80.2743 173.054 90.5557Z" fill="#00FEBE"/>
<path opacity="0.3" d="M173.054 90.5557C177.863 114.932 162.748 104.786 150.057 104.786C137.367 104.786 121.26 113.052 127.07 90.562C130.382 77.711 137.367 69.6748 150.057 69.6748C162.748 69.6748 171.026 80.2743 173.054 90.5557Z" fill="white"/>
<path d="M142.808 102.566L149.002 107.293L148.366 149.061H152.11L151.389 99.54L160.247 89.797L151.282 97.4585L150.957 82.9512L149.978 92.8956L147.673 91.2235L142.644 84.0942L145.878 90.5748L135.471 86.3741L146.076 92.3666L149.566 94.785L149.162 105.337L142.808 102.566Z" fill="#A1A1A1"/>
<path d="M146.301 78.8828C146.301 78.8828 145.961 80.4573 146.666 81.7578C147.108 82.5623 147.671 83.2941 148.335 83.9275C148.335 83.9275 149.034 81.4492 146.301 78.8828Z" fill="white"/>
<path d="M133.146 92.7567C133.146 92.7567 134.359 93.8116 135.839 93.8242C136.756 93.8264 137.669 93.6873 138.544 93.4116C138.544 93.4116 136.699 91.601 133.146 92.7567Z" fill="white"/>
<path d="M131.289 99.2658C131.289 99.2658 132.76 99.9145 134.177 99.4894C135.054 99.2187 135.885 98.814 136.639 98.2896C136.639 98.2896 134.353 97.1056 131.289 99.2658Z" fill="white"/>
<path d="M140.074 99.9429C140.074 99.9429 141.683 99.924 142.795 98.9447C143.48 98.3339 144.066 97.6212 144.533 96.8317C144.533 96.8317 141.964 96.7058 140.074 99.9429Z" fill="white"/>
<path d="M136.365 80.5068C136.365 80.5068 136.731 82.0813 137.924 82.9504C138.666 83.4925 139.487 83.9174 140.358 84.21C140.358 84.21 139.933 81.6562 136.365 80.5068Z" fill="white"/>
<path d="M162.561 79.3486C162.561 79.3486 160.986 79.5722 159.991 80.6869C159.389 81.3789 158.897 82.1596 158.533 83.0014C158.533 83.0014 161.103 82.7999 162.561 79.3486Z" fill="white"/>
<path d="M168.075 87.6146C168.075 87.6146 166.5 87.2777 165.2 87.983C164.396 88.4259 163.665 88.9899 163.033 89.6551C163.033 89.6551 165.511 90.3511 168.075 87.6146Z" fill="white"/>
<path d="M167.534 97.0078C167.534 97.0078 166.403 95.8678 164.926 95.7482C164.011 95.6817 163.092 95.756 162.199 95.9686C162.199 95.9686 163.897 97.9052 167.534 97.0078Z" fill="white"/>
<path d="M161.384 102.047C161.384 102.047 160.732 100.579 159.394 99.94C158.563 99.5514 157.677 99.2933 156.768 99.1748C156.768 99.1748 157.662 101.587 161.384 102.047Z" fill="white"/>
<path d="M158.144 86.8086C158.144 86.8086 156.569 87.0322 155.574 88.1469C154.974 88.8395 154.483 89.62 154.119 90.4614C154.119 90.4614 156.686 90.2599 158.144 86.8086Z" fill="white"/>
<path d="M132.076 84.7363C132.076 84.7363 132.785 86.1786 134.145 86.7643C134.991 87.1196 135.886 87.3437 136.8 87.4287C136.8 87.4287 135.811 85.0512 132.076 84.7363Z" fill="white"/>
<path d="M154.764 77.1348C154.764 77.1348 153.476 78.0952 153.148 79.5406C152.953 80.4367 152.897 81.3575 152.982 82.2707C152.982 82.2707 155.139 80.8537 154.764 77.1348Z" fill="white"/>
<path d="M149.905 72.5879C149.905 72.5879 149.175 74.0207 149.521 75.4598C149.742 76.3483 150.098 77.1979 150.576 77.9789C150.576 77.9789 151.889 75.7684 149.905 72.5879Z" fill="white"/>
<path d="M139.391 74.1182C139.391 74.1182 139.391 75.7241 140.354 76.8483C140.955 77.5408 141.66 78.1366 142.442 78.6149C142.442 78.6149 142.593 76.0453 139.391 74.1182Z" fill="white"/>
<path d="M200.759 100.84C204.723 120.931 192.257 112.564 181.805 112.564C171.354 112.564 158.071 119.378 162.851 100.84C165.582 90.2473 171.338 83.625 181.805 83.625C192.272 83.625 199.09 92.3666 200.759 100.84Z" fill="#00FEBE"/>
<path opacity="0.3" d="M200.759 100.84C204.723 120.931 192.257 112.564 181.805 112.564C171.354 112.564 158.071 119.378 162.851 100.84C165.582 90.2473 171.338 83.625 181.805 83.625C192.272 83.625 199.09 92.3666 200.759 100.84Z" fill="white"/>
<path d="M175.831 110.74L180.936 114.635L180.413 149.06H183.496L182.904 108.246L190.206 100.216L182.816 106.53L182.548 94.5732L181.742 102.767L179.843 101.391L175.696 95.5116L178.36 100.855L169.785 97.3947L178.527 102.332L181.402 104.326L181.071 113.023L175.831 110.74Z" fill="#A1A1A1"/>
<path d="M178.709 91.2197C178.56 92.0225 178.671 92.8517 179.024 93.5878C179.389 94.2506 179.853 94.8537 180.4 95.3764C180.4 95.3764 180.963 93.3327 178.709 91.2197Z" fill="white"/>
<path d="M167.857 102.654C168.481 103.172 169.253 103.481 170.062 103.536C170.818 103.537 171.57 103.422 172.291 103.195C172.291 103.195 170.795 101.703 167.857 102.654Z" fill="white"/>
<path d="M166.338 108.02C167.092 108.33 167.926 108.394 168.719 108.202C169.441 107.98 170.125 107.648 170.746 107.217C170.746 107.217 168.863 106.237 166.338 108.02Z" fill="white"/>
<path d="M173.574 108.565C174.39 108.534 175.175 108.247 175.816 107.743C176.38 107.239 176.863 106.652 177.249 106.001C177.249 106.001 175.13 105.91 173.574 108.565Z" fill="white"/>
<path d="M170.521 92.5586C170.726 93.3485 171.176 94.0531 171.806 94.5708C172.418 95.0155 173.094 95.3629 173.812 95.6005C173.812 95.6005 173.453 93.5064 170.521 92.5586Z" fill="white"/>
<path d="M192.112 91.6045C191.308 91.7394 190.567 92.1252 189.996 92.7066C189.5 93.2777 189.094 93.9212 188.793 94.6149C188.793 94.6149 190.912 94.448 192.112 91.6045Z" fill="white"/>
<path d="M196.655 98.4153C195.853 98.2677 195.024 98.3779 194.287 98.7302C193.625 99.0947 193.023 99.5588 192.502 100.106C192.502 100.106 194.552 100.673 196.655 98.4153Z" fill="white"/>
<path d="M196.212 106.159C195.623 105.593 194.87 105.229 194.061 105.119C193.306 105.064 192.548 105.125 191.812 105.302C191.812 105.302 193.214 106.895 196.212 106.159Z" fill="white"/>
<path d="M191.141 110.309C190.795 109.571 190.226 108.96 189.513 108.564C188.828 108.246 188.099 108.034 187.35 107.935C187.35 107.935 188.074 109.934 191.141 110.309Z" fill="white"/>
<path d="M188.471 97.751C187.667 97.8859 186.927 98.2717 186.355 98.8531C185.859 99.4241 185.454 100.068 185.152 100.761C185.152 100.761 187.272 100.598 188.471 97.751Z" fill="white"/>
<path d="M166.986 96.0439C167.366 96.7659 167.963 97.35 168.693 97.7129C169.395 98.0105 170.138 98.1964 170.897 98.264C170.897 98.264 170.066 96.3022 166.986 96.0439Z" fill="white"/>
<path d="M185.684 89.7773C185.043 90.2822 184.578 90.9765 184.355 91.7612C184.194 92.5002 184.147 93.2595 184.217 94.0127C184.217 94.0127 185.996 92.8507 185.684 89.7773Z" fill="white"/>
<path d="M181.683 86.0303C181.332 86.767 181.221 87.5955 181.368 88.3983C181.55 89.1328 181.844 89.8348 182.24 90.4798C182.24 90.4798 183.317 88.6502 181.683 86.0303Z" fill="white"/>
<path d="M173.016 87.29C173.036 88.1055 173.314 88.8935 173.809 89.5416C174.304 90.1138 174.885 90.6056 175.532 90.9995C175.532 90.9995 175.658 88.8803 173.016 87.29Z" fill="white"/>
<path d="M109.471 66.5541C114.862 93.8967 97.9232 82.5068 83.6773 82.5068C69.4313 82.5068 51.3814 91.7806 57.8872 66.5541C61.603 52.1413 69.4345 43.1289 83.6804 43.1289C97.9264 43.1289 107.197 55.032 109.471 66.5541Z" fill="#00FEBE"/>
<path opacity="0.3" d="M109.471 66.5541C114.862 93.8967 97.9232 82.5068 83.6773 82.5068C69.4313 82.5068 51.3814 91.7806 57.8872 66.5541C61.603 52.1413 69.4345 43.1289 83.6804 43.1289C97.9264 43.1289 107.197 55.032 109.471 66.5541Z" fill="white"/>
<path d="M75.5466 80.0251L82.4933 85.328L81.7816 149.06H85.9792L85.173 76.6337L95.1081 65.7067L85.0534 74.2971L84.6881 58.0264L83.5923 69.18L81.007 67.3032L75.364 59.3049L78.9916 66.5758L67.3184 61.865L79.2152 68.588L83.1294 71.2993L82.6759 83.1331L75.5466 80.0251Z" fill="#A1A1A1"/>
<path d="M79.4668 53.458C79.4668 53.458 79.0858 55.2214 79.8762 56.6826C80.3712 57.5841 81.0021 58.4041 81.7467 59.1136C81.7467 59.1136 82.5308 56.3393 79.4668 53.458Z" fill="white"/>
<path d="M64.6973 69.0258C64.6973 69.0258 66.0545 70.2099 67.7171 70.2225C68.7468 70.2257 69.7708 70.0695 70.7527 69.7596C70.7527 69.7596 68.6965 67.7285 64.6973 69.0258Z" fill="white"/>
<path d="M62.6289 76.3254C62.6289 76.3254 64.279 77.0528 65.8692 76.5742C66.8521 76.2697 67.7824 75.8163 68.6277 75.2296C68.6277 75.2296 66.0739 73.9007 62.6289 76.3254Z" fill="white"/>
<path d="M72.4746 77.0746C72.4746 77.0746 74.2758 77.0526 75.5228 75.9536C76.2907 75.2686 76.9491 74.47 77.4752 73.5856C77.4752 73.5856 74.5907 73.4533 72.4746 77.0746Z" fill="white"/>
<path d="M68.3223 55.2871C68.3223 55.2871 68.7316 57.0411 70.0699 58.0236C70.9023 58.6286 71.8233 59.1013 72.8001 59.4249C72.8001 59.4249 72.3215 56.575 68.3223 55.2871Z" fill="white"/>
<path d="M97.7012 53.9834C97.7012 53.9834 95.9189 54.2385 94.8199 55.4855C94.1456 56.2629 93.5945 57.139 93.1855 58.0834C93.1855 58.0834 96.0669 57.8661 97.7012 53.9834Z" fill="white"/>
<path d="M103.887 63.2573C103.887 63.2573 102.123 62.8794 100.662 63.6698C99.7621 64.1668 98.9433 64.7987 98.2344 65.5434C98.2344 65.5434 101.028 66.3275 103.887 63.2573Z" fill="white"/>
<path d="M103.281 73.7903C103.281 73.7903 102.022 72.5119 100.353 72.3796C99.3268 72.3041 98.2955 72.3869 97.2949 72.6252C97.2949 72.6252 99.2001 74.798 103.281 73.7903Z" fill="white"/>
<path d="M96.38 79.4431C96.38 79.4431 95.6495 77.7962 94.1506 77.0814C93.2182 76.6447 92.224 76.3547 91.2031 76.2217C91.2031 76.2217 92.2108 78.9298 96.38 79.4431Z" fill="white"/>
<path d="M92.7481 62.3506C92.7481 62.3506 90.9626 62.6056 89.8667 63.8526C89.1911 64.629 88.6398 65.5054 88.2324 66.4505C88.2324 66.4505 91.1137 66.2238 92.7481 62.3506Z" fill="white"/>
<path d="M63.5137 60.0293C63.5137 60.0293 64.3072 61.6447 65.8345 62.3029C66.7822 62.7028 67.7859 62.9545 68.8102 63.0492C68.8102 63.0492 67.7018 60.3851 63.5137 60.0293Z" fill="white"/>
<path d="M88.9574 51.502C88.9574 51.502 87.512 52.5789 87.1467 54.2006C86.9287 55.2065 86.866 56.2398 86.9609 57.2646C86.9609 57.2646 89.3762 55.6838 88.9574 51.502Z" fill="white"/>
<path d="M83.5093 46.4043C83.5093 46.4043 82.6874 48.0071 83.0779 49.6225C83.3246 50.6225 83.7239 51.5784 84.2619 52.4566C84.2619 52.4566 85.7325 49.9689 83.5093 46.4043Z" fill="white"/>
<path d="M71.7148 48.1045C71.7148 48.1045 71.7148 49.9057 72.7981 51.1684C73.4722 51.9464 74.2625 52.6156 75.1409 53.1523C75.1409 53.1523 75.3204 50.2804 71.7148 48.1045Z" fill="white"/>
<path d="M48.2078 140.571L50.6697 144.468H101.751L106.675 142.417H117.546C117.546 142.417 120.624 146.93 129.648 146.314V137.082H46.3613L48.2078 140.571Z" fill="#263238" stroke="#263238" stroke-width="0.277516" stroke-linecap="round" stroke-linejoin="round"/>
<path d="M149.175 119.96H44.2129V139.689H149.175V119.96Z" fill="#263238" stroke="#263238" stroke-width="0.277516" stroke-linecap="round" stroke-linejoin="round"/>
<path d="M122.06 124.005H103.963V139.752H122.06V124.005Z" fill="#00FEBE" stroke="#263238" stroke-width="0.277516" stroke-linecap="round" stroke-linejoin="round"/>
<path d="M60.7083 111.064L35.2695 115.632V139.688H44.2126V127.823H87.9343V113.449L60.7083 111.064Z" fill="#00FEBE" stroke="#263238" stroke-width="0.277516" stroke-linecap="round" stroke-linejoin="round"/>
<path d="M35.2891 135.05H44.2915" stroke="#263238" stroke-width="0.277516" stroke-linecap="round" stroke-linejoin="round"/>
<path d="M44.2129 127.823V122.881H57.7536" stroke="#263238" stroke-width="0.277516" stroke-linecap="round" stroke-linejoin="round"/>
<path d="M61.602 88.251L63.3372 105.714L59.3848 109.437V120.449H88.624V105.714H88.6685V88.251H61.602Z" fill="#00FEBE" stroke="#263238" stroke-width="0.277516" stroke-linecap="round" stroke-linejoin="round"/>
<path d="M71.3506 103.479H64.0835L62.7969 90.7354H71.3506V103.479Z" fill="white" stroke="#263238" stroke-width="0.277516" stroke-linecap="round" stroke-linejoin="round"/>
<path d="M86.8115 90.7354H72.5293V112.407H86.8115V90.7354Z" fill="#00FEBE" stroke="#263238" stroke-width="0.277516" stroke-linecap="round" stroke-linejoin="round"/>
<path d="M85.8218 92.0996H73.5195V103.59H85.8218V92.0996Z" fill="white" stroke="#263238" stroke-width="0.277516" stroke-linecap="round" stroke-linejoin="round"/>
<path d="M58.2088 121.209H57.293V127.842H58.2088V121.209Z" fill="#00FEBE" stroke="#263238" stroke-width="0.277516" stroke-linecap="round" stroke-linejoin="round"/>
<path d="M68.3615 104.295H57.4199V120.453H58.2987V112.864H61.3835V120.839H62.2622V112.864H70.8457V120.387H71.7244V107.261L68.3689 104.299L68.3615 104.295ZM58.2987 111.959V105.2H61.3835V111.959H58.2987ZM62.2585 111.959V105.2H68.0389L70.8419 107.676V111.959H62.2585Z" fill="#00FEBE" stroke="#263238" stroke-width="0.277516" stroke-linecap="round" stroke-linejoin="round"/>
<path d="M93.195 124.869H94.0033L90.2659 119.96H57.293V122.329H90.2659L93.195 124.869Z" fill="#00FEBE" stroke="#263238" stroke-width="0.277516" stroke-linecap="round" stroke-linejoin="round"/>
<path d="M45.9704 139.277H33.1602V143.167H45.9704V139.277Z" fill="#00FEBE" stroke="#263238" stroke-width="0.277516" stroke-linecap="round" stroke-linejoin="round"/>
<path d="M176.59 86.275H93.3962V82.938L72.6662 76.2715L61.2129 76.0713V84.0726H59.4629V86.4752H61.2129C61.2129 86.4752 89.5994 87.3243 88.6688 88.2549L90.2668 119.96H149.175L183.502 101.881L176.59 86.275Z" fill="#00FEBE" stroke="#263238" stroke-width="0.277516" stroke-linecap="round" stroke-linejoin="round"/>
<path d="M108.791 96.3975L114.234 117.85H120.433L114.99 96.3975H108.791Z" fill="#263238" stroke="#263238" stroke-width="0.277516" stroke-linecap="round" stroke-linejoin="round"/>
<path d="M178.46 102.448L176.969 96.3975H170.773L172.98 105.281L178.46 102.448Z" fill="#263238" stroke="#263238" stroke-width="0.277516" stroke-linecap="round" stroke-linejoin="round"/>
<path d="M167.492 108.088L164.574 96.3975H158.375L162.012 110.921L167.492 108.088Z" fill="#263238" stroke="#263238" stroke-width="0.277516" stroke-linecap="round" stroke-linejoin="round"/>
<path d="M96.3965 96.3975L101.839 117.85H108.039L102.596 96.3975H96.3965Z" fill="#263238" stroke="#263238" stroke-width="0.277516" stroke-linecap="round" stroke-linejoin="round"/>
<path d="M156.509 113.783L152.178 96.3975H145.979L151.032 116.616L156.509 113.783Z" fill="#263238" stroke="#263238" stroke-width="0.277516" stroke-linecap="round" stroke-linejoin="round"/>
<path d="M121.189 96.3975L126.629 117.85H132.828L127.385 96.3975H121.189Z" fill="#263238" stroke="#263238" stroke-width="0.277516" stroke-linecap="round" stroke-linejoin="round"/>
<path d="M133.584 96.3975L139.027 117.85H145.223L139.78 96.3975H133.584Z" fill="#263238" stroke="#263238" stroke-width="0.277516" stroke-linecap="round" stroke-linejoin="round"/>
<path d="M108.025 96.3975L113.465 117.85H119.664L114.221 96.3975H108.025Z" fill="#00FEBE" stroke="#263238" stroke-width="0.277516" stroke-linecap="round" stroke-linejoin="round"/>
<path d="M177.814 102.76L176.198 96.3975H170.002L172.334 105.593L177.814 102.76Z" fill="#00FEBE" stroke="#263238" stroke-width="0.277516" stroke-linecap="round" stroke-linejoin="round"/>
<path d="M166.855 108.425L163.803 96.3975H157.607L161.374 111.258L166.855 108.425Z" fill="#00FEBE" stroke="#263238" stroke-width="0.277516" stroke-linecap="round" stroke-linejoin="round"/>
<path d="M95.625 96.3975L101.068 117.85H107.267L101.824 96.3975H95.625Z" fill="#00FEBE" stroke="#263238" stroke-width="0.277516" stroke-linecap="round" stroke-linejoin="round"/>
<path d="M155.895 114.095L151.408 96.3975H145.209L150.418 116.927L155.895 114.095Z" fill="#00FEBE" stroke="#263238" stroke-width="0.277516" stroke-linecap="round" stroke-linejoin="round"/>
<path d="M120.42 96.3975L125.863 117.85H132.059L126.616 96.3975H120.42Z" fill="#00FEBE" stroke="#263238" stroke-width="0.277516" stroke-linecap="round" stroke-linejoin="round"/>
<path d="M132.814 96.3975L138.257 117.85H144.453L139.014 96.3975H132.814Z" fill="#00FEBE" stroke="#263238" stroke-width="0.277516" stroke-linecap="round" stroke-linejoin="round"/>
<path d="M91.0762 96.3975H179.51" stroke="#263238" stroke-width="0.277516" stroke-linecap="round" stroke-linejoin="round"/>
<path d="M90.4743 92.2745H91.8684L90.1888 85.1445H72.8477L73.9266 86.5016H89.1172L90.4743 92.2745Z" fill="#00FEBE" stroke="#263238" stroke-width="0.277516" stroke-linecap="round" stroke-linejoin="round"/>
<path d="M45.9707 139.277L63.1338 131.725V137.913L45.9707 143.167V139.277Z" fill="#00FEBE" stroke="#263238" stroke-width="0.277516" stroke-linecap="round" stroke-linejoin="round"/>
<path d="M75.9365 160.904C86.2222 160.904 94.5605 152.566 94.5605 142.28C94.5605 131.994 86.2222 123.656 75.9365 123.656C65.6507 123.656 57.3125 131.994 57.3125 142.28C57.3125 152.566 65.6507 160.904 75.9365 160.904Z" fill="#263238" stroke="#263238" stroke-width="0.277516" stroke-linecap="round" stroke-linejoin="round"/>
<path d="M82.4097 148.753C85.9847 145.178 85.9847 139.382 82.4097 135.807C78.8347 132.232 73.0384 132.232 69.4634 135.807C65.8884 139.382 65.8884 145.178 69.4634 148.753C73.0384 152.328 78.8347 152.328 82.4097 148.753Z" fill="#00FEBE" stroke="#263238" stroke-width="0.277516" stroke-linecap="round" stroke-linejoin="round"/>
<path d="M75.9381 148.872C79.5789 148.872 82.5304 145.921 82.5304 142.28C82.5304 138.639 79.5789 135.688 75.9381 135.688C72.2972 135.688 69.3457 138.639 69.3457 142.28C69.3457 145.921 72.2972 148.872 75.9381 148.872Z" fill="#00FEBE" stroke="#263238" stroke-width="0.277516" stroke-linecap="round" stroke-linejoin="round"/>
<path d="M96.6738 124.005V145.862H103.96V124.005H96.6738ZM103.107 144.943H97.5303V140.812H103.107V144.943ZM103.107 139.978H97.5303V135.51H103.107V139.978ZM103.107 134.676H97.5303V130.208H103.107V134.676ZM103.107 129.374H97.5303V124.928H103.107V129.374Z" fill="#00FEBE" stroke="#263238" stroke-width="0.277516" stroke-linecap="round" stroke-linejoin="round"/>
<path d="M142.145 160.904C152.431 160.904 160.769 152.566 160.769 142.28C160.769 131.994 152.431 123.656 142.145 123.656C131.86 123.656 123.521 131.994 123.521 142.28C123.521 152.566 131.86 160.904 142.145 160.904Z" fill="#263238" stroke="#263238" stroke-width="0.277516" stroke-linecap="round" stroke-linejoin="round"/>
<path d="M148.383 148.992C152.082 145.546 152.288 139.753 148.842 136.054C145.395 132.354 139.603 132.149 135.903 135.595C132.204 139.041 131.999 144.834 135.445 148.533C138.891 152.233 144.684 152.438 148.383 148.992Z" fill="#00FEBE" stroke="#263238" stroke-width="0.277516" stroke-linecap="round" stroke-linejoin="round"/>
<path d="M142.145 148.872C145.786 148.872 148.737 145.921 148.737 142.28C148.737 138.639 145.786 135.688 142.145 135.688C138.504 135.688 135.553 138.639 135.553 142.28C135.553 145.921 138.504 148.872 142.145 148.872Z" fill="#00FEBE" stroke="#263238" stroke-width="0.277516" stroke-linecap="round" stroke-linejoin="round"/>
<path d="M74.2134 91.625H70.9395V102.674H74.2134V91.625Z" fill="#263238" stroke="#263238" stroke-width="0.277516" stroke-linecap="round" stroke-linejoin="round"/>
</svg>
