<svg xmlns="http://www.w3.org/2000/svg" viewBox="0 0 500 500"><g id="freepik--background-simple--inject-2"><g><path d="M374.97359,144.0743c-3.0322-6.4924-6.2101-12.887-9.8264-18.9802-41.7334-70.3176-153.5043-108.5977-208.88739-35.9156-13.1999,17.3229-17.8004,38.2563-26.6851,58.1227-20.2075,45.1847-57.9615,72.1985-81.6346,114.0391-18.3507,32.4342-15.9043,74.0023-5.6675,109.064,11.1237,38.0998,30.7004,64.709,62.0139,84.9356,35.105,22.6757,72.651,16.3798,110.5962,8.4893,17.0649-3.5486,34.6591-7.1692,52.1079-5.8147,21.8456,1.6957,43.4139,8.5268,65.0878,11.8476,22.5404,3.4535,45.927,4.2696,67.6403-3.2558,69.5355-24.0998,86.0091-137.0374,57.4141-201.7318-10.12179-22.8998-27.2765-40.5671-43.2057-58.4923-17.1948-19.3495-27.7347-38.2869-38.9535-62.3079Z" style="fill:#FF725E;"></path><path d="M374.97359,144.0743c-3.0322-6.4924-6.2101-12.887-9.8264-18.9802-41.7334-70.3176-153.5043-108.5977-208.88739-35.9156-13.1999,17.3229-17.8004,38.2563-26.6851,58.1227-20.2075,45.1847-57.9615,72.1985-81.6346,114.0391-18.3507,32.4342-15.9043,74.0023-5.6675,109.064,11.1237,38.0998,30.7004,64.709,62.0139,84.9356,35.105,22.6757,72.651,16.3798,110.5962,8.4893,17.0649-3.5486,34.6591-7.1692,52.1079-5.8147,21.8456,1.6957,43.4139,8.5268,65.0878,11.8476,22.5404,3.4535,45.927,4.2696,67.6403-3.2558,69.5355-24.0998,86.0091-137.0374,57.4141-201.7318-10.12179-22.8998-27.2765-40.5671-43.2057-58.4923-17.1948-19.3495-27.7347-38.2869-38.9535-62.3079Z" style="fill:#fff; opacity:.8;"></path></g></g><g id="freepik--Clouds--inject-2"><g><path d="M437.11009,284.4291s-3.3917-17.5239-18.6544-23.742c-15.26269-6.2181-24.8726,1.6959-27.13369,7.3487-2.26121,5.6529-2.82641,15.2627-11.30571,11.3057-8.47929-3.957-11.871-8.4793-22.6115-3.957-10.7404,4.5223-7.3487,14.1322-15.2627,15.828-7.914,1.6959-5.0875-2.8264-13.5668-1.6958-8.47929,1.1305-7.914,6.2181-10.1752,9.0445-2.26109,2.8265-2.26109,.5653-10.17509,1.6959-7.914,1.1306-13.00161,6.2181-13.00161,6.2181h174.6733s4.52231-9.0445-7.34869-15.828c-11.871-6.7834-22.04611,.5653-25.43791-6.2181Z" style="fill:#fff; stroke:#adadad; stroke-linecap:round; stroke-linejoin:round;"></path><path d="M176.2233,151.4853s-2.1975-11.3535-12.086-15.3822c-9.8885-4.0286-16.1146,1.0988-17.5796,4.7612s-1.8312,9.8885-7.3248,7.3248-7.6911-5.4936-14.6497-2.5637-4.7611,9.1561-9.8885,10.2548-3.2962-1.8312-8.7898-1.0987c-5.4936,.7324-5.1274,4.0286-6.5923,5.8598-1.465,1.8312-1.465,.3663-6.5924,1.0987-5.1274,.7325-8.4236,4.0287-8.4236,4.0287h113.1687s2.9299-5.8599-4.7612-10.2548c-7.691-4.3949-14.2834,.3663-16.4808-4.0286Z" style="fill:#fff; stroke:#adadad; stroke-linecap:round; stroke-linejoin:round;"></path><path d="M124.5161,298.6865s-1.2602-6.5107-6.9308-8.821c-5.6707-2.3102-9.2411,.6301-10.0812,2.7304-.8401,2.1002-1.0501,5.6706-4.2004,4.2004-3.1504-1.4701-4.4105-3.1503-8.401-1.4701-3.9904,1.6802-2.7303,5.2506-5.6706,5.8806-2.9404,.6301-1.8902-1.0501-5.0406-.63-3.1503,.42-2.9403,2.3102-3.7804,3.3603-.8401,1.0502-.8401,.2101-3.7804,.6301-2.9404,.4201-4.8306,2.3103-4.8306,2.3103h64.8973s1.6802-3.3604-2.7303-5.8807-8.1909,.21-9.451-2.3103Z" style="fill:#fff; stroke:#adadad; stroke-linecap:round; stroke-linejoin:round;"></path><path d="M349.19959,58.2477s-1.2602-6.5107-6.9308-8.821c-5.6707-2.3102-9.2411,.6301-10.0812,2.7304-.8401,2.1002-1.0501,5.6706-4.2004,4.2004-3.1504-1.4701-4.4105-3.1503-8.401-1.4701-3.9904,1.6802-2.7303,5.2506-5.6706,5.8806-2.9404,.6301-1.8902-1.0501-5.04059-.63-3.15031,.42-2.94031,2.3102-3.78041,3.3603-.8401,1.0502-.8401,.2101-3.7804,.6301-2.9404,.4201-4.8306,2.3103-4.8306,2.3103h64.8973s1.6802-3.3604-2.7303-5.8807-8.1909,.21-9.451-2.3103Z" style="fill:#fff; stroke:#adadad; stroke-linecap:round; stroke-linejoin:round;"></path></g></g><g id="freepik--Water--inject-2"><g><rect x="27.5442" y="323.048" width="454.52119" height="51.0049" style="fill:#FF725E;"></rect><line x1="20.8455" y1="323.5232" x2="491.43489" y2="323.5232" style="fill:none; stroke:#263238; stroke-miterlimit:10;"></line><path d="M27.9145,374.2305s8.1779-7.3586,34.4374-6.2538c26.2594,1.1048,31.0736,4.9714,48.5799,4.9714s34.4133-8.544,45.0788-5.5238c10.6654,3.0203,30.1983,9.9429,43.7657,5.5238,13.5674-4.419,27.5724-2.7619,36.3256-1.6571,8.75311,1.1048,34.5749,3.3143,49.0176,2.7619,14.4427-.5524,39.8269-11.6,59.0838-9.3905,19.2569,2.2095,28.44771,8.2857,35.4503,6.6286,7.0025-1.6571,8.3155-5.5238,17.5063-4.4191,9.1908,1.1048,18.3816,5.5239,28.8854,6.0762,10.50371,.5524,16.1933-4.419,30.636-4.419s25.3841,5.5238,25.3841,5.5238l-454.15089,.1776Z" style="fill:#fff;"></path><g><g><line x1="52.0266" y1="330.1395" x2="90.3146" y2="330.1395" style="fill:none; stroke:#263238; stroke-miterlimit:10; stroke-width:.5px;"></line><line x1="85.6022" y1="333.0437" x2="110.9312" y2="333.0437" style="fill:none; stroke:#263238; stroke-miterlimit:10; stroke-width:.5px;"></line><line x1="34.9443" y1="335.0766" x2="57.328" y2="335.0766" style="fill:none; stroke:#263238; stroke-miterlimit:10; stroke-width:.5px;"></line><line x1="136.2601" y1="329.5586" x2="154.5206" y2="329.5586" style="fill:none; stroke:#263238; stroke-miterlimit:10; stroke-width:.5px;"></line><line x1="119.1778" y1="333.6245" x2="125.0683" y2="333.6245" style="fill:none; stroke:#263238; stroke-miterlimit:10; stroke-width:.5px;"></line><line x1="74.9994" y1="335.367" x2="88.5474" y2="335.367" style="fill:none; stroke:#263238; stroke-miterlimit:10; stroke-width:.5px;"></line><line x1="155.1096" y1="336.5287" x2="196.9319" y2="336.5287" style="fill:none; stroke:#263238; stroke-miterlimit:10; stroke-width:.5px;"></line><line x1="162.1782" y1="329.849" x2="184.5619" y2="329.849" style="fill:none; stroke:#263238; stroke-miterlimit:10; stroke-width:.5px;"></line><line x1="142.7397" y1="336.8191" x2="148.0411" y2="336.8191" style="fill:none; stroke:#263238; stroke-miterlimit:10; stroke-width:.5px;"></line><line x1="201.05519" y1="331.0107" x2="215.78129" y2="331.0107" style="fill:none; stroke:#263238; stroke-miterlimit:10; stroke-width:.5px;"></line><line x1="218.13749" y1="334.2053" x2="242.28839" y2="334.2053" style="fill:none; stroke:#263238; stroke-miterlimit:10; stroke-width:.5px;"></line></g><g><g><line x1="275.275" y1="330.1395" x2="313.56289" y2="330.1395" style="fill:none; stroke:#263238; stroke-miterlimit:10; stroke-width:.5px;"></line><line x1="308.85059" y1="333.0437" x2="334.17949" y2="333.0437" style="fill:none; stroke:#263238; stroke-miterlimit:10; stroke-width:.5px;"></line><line x1="258.19259" y1="335.0766" x2="280.57639" y2="335.0766" style="fill:none; stroke:#263238; stroke-miterlimit:10; stroke-width:.5px;"></line><line x1="359.50849" y1="329.5586" x2="377.76889" y2="329.5586" style="fill:none; stroke:#263238; stroke-miterlimit:10; stroke-width:.5px;"></line><line x1="342.42619" y1="333.6245" x2="348.31659" y2="333.6245" style="fill:none; stroke:#263238; stroke-miterlimit:10; stroke-width:.5px;"></line><line x1="298.24769" y1="335.367" x2="311.79579" y2="335.367" style="fill:none; stroke:#263238; stroke-miterlimit:10; stroke-width:.5px;"></line><line x1="378.358" y1="336.5287" x2="420.18019" y2="336.5287" style="fill:none; stroke:#263238; stroke-miterlimit:10; stroke-width:.5px;"></line><line x1="385.42649" y1="329.849" x2="407.81029" y2="329.849" style="fill:none; stroke:#263238; stroke-miterlimit:10; stroke-width:.5px;"></line><line x1="365.988" y1="336.8191" x2="371.28939" y2="336.8191" style="fill:none; stroke:#263238; stroke-miterlimit:10; stroke-width:.5px;"></line><line x1="424.30359" y1="331.0107" x2="439.02969" y2="331.0107" style="fill:none; stroke:#263238; stroke-miterlimit:10; stroke-width:.5px;"></line><line x1="441.38589" y1="334.2053" x2="465.53679" y2="334.2053" style="fill:none; stroke:#263238; stroke-miterlimit:10; stroke-width:.5px;"></line></g><g><line x1="52.0266" y1="347.8732" x2="90.3146" y2="347.8732" style="fill:none; stroke:#263238; stroke-miterlimit:10; stroke-width:.5px;"></line><line x1="85.6022" y1="355.4968" x2="110.9312" y2="355.4968" style="fill:none; stroke:#263238; stroke-miterlimit:10; stroke-width:.5px;"></line><line x1="34.9443" y1="360.8332" x2="57.328" y2="360.8332" style="fill:none; stroke:#263238; stroke-miterlimit:10; stroke-width:.5px;"></line><line x1="136.2601" y1="346.3485" x2="154.5206" y2="346.3485" style="fill:none; stroke:#263238; stroke-miterlimit:10; stroke-width:.5px;"></line><line x1="119.1778" y1="357.0215" x2="125.0683" y2="357.0215" style="fill:none; stroke:#263238; stroke-miterlimit:10; stroke-width:.5px;"></line><line x1="74.9994" y1="361.5956" x2="88.5474" y2="361.5956" style="fill:none; stroke:#263238; stroke-miterlimit:10; stroke-width:.5px;"></line><line x1="155.1096" y1="364.645" x2="196.9319" y2="364.645" style="fill:none; stroke:#263238; stroke-miterlimit:10; stroke-width:.5px;"></line><line x1="162.1782" y1="347.1109" x2="184.5619" y2="347.1109" style="fill:none; stroke:#263238; stroke-miterlimit:10; stroke-width:.5px;"></line><line x1="142.7397" y1="365.4073" x2="148.0411" y2="365.4073" style="fill:none; stroke:#263238; stroke-miterlimit:10; stroke-width:.5px;"></line><line x1="201.05519" y1="350.1603" x2="215.78129" y2="350.1603" style="fill:none; stroke:#263238; stroke-miterlimit:10; stroke-width:.5px;"></line><line x1="218.13749" y1="358.5462" x2="242.28839" y2="358.5462" style="fill:none; stroke:#263238; stroke-miterlimit:10; stroke-width:.5px;"></line></g><g><line x1="275.275" y1="347.8732" x2="313.56289" y2="347.8732" style="fill:none; stroke:#263238; stroke-miterlimit:10; stroke-width:.5px;"></line><line x1="308.85059" y1="355.4968" x2="334.17949" y2="355.4968" style="fill:none; stroke:#263238; stroke-miterlimit:10; stroke-width:.5px;"></line><line x1="258.19259" y1="360.8332" x2="280.57639" y2="360.8332" style="fill:none; stroke:#263238; stroke-miterlimit:10; stroke-width:.5px;"></line><line x1="359.50849" y1="346.3485" x2="377.76889" y2="346.3485" style="fill:none; stroke:#263238; stroke-miterlimit:10; stroke-width:.5px;"></line><line x1="342.42619" y1="357.0215" x2="348.31659" y2="357.0215" style="fill:none; stroke:#263238; stroke-miterlimit:10; stroke-width:.5px;"></line><line x1="298.24769" y1="361.5956" x2="311.79579" y2="361.5956" style="fill:none; stroke:#263238; stroke-miterlimit:10; stroke-width:.5px;"></line><line x1="378.358" y1="364.645" x2="420.18019" y2="364.645" style="fill:none; stroke:#263238; stroke-miterlimit:10; stroke-width:.5px;"></line><line x1="385.42649" y1="347.1109" x2="407.81029" y2="347.1109" style="fill:none; stroke:#263238; stroke-miterlimit:10; stroke-width:.5px;"></line><line x1="365.988" y1="365.4073" x2="371.28939" y2="365.4073" style="fill:none; stroke:#263238; stroke-miterlimit:10; stroke-width:.5px;"></line><line x1="424.30359" y1="350.1603" x2="439.02969" y2="350.1603" style="fill:none; stroke:#263238; stroke-miterlimit:10; stroke-width:.5px;"></line><line x1="441.38589" y1="358.5462" x2="465.53679" y2="358.5462" style="fill:none; stroke:#263238; stroke-miterlimit:10; stroke-width:.5px;"></line></g></g></g></g></g><g id="freepik--Floor--inject-2"><g><path d="M19.939,411.8954s21.3315,0,35.8065-.7043c14.475-.7044,35.0447,0,46.4723,0s112.5121-.7027,128.7511,1.4086c16.2389,2.1113,17.556-2.3354,37.3302-1.4086,19.7742,.9267,72.3748-3.5217,94.4682,0,22.0934,3.5216,56.3762-1.4087,70.8512-.7044,14.475,.7044,41.9012,0,48.7578,2.113" style="fill:none; stroke:#263238; stroke-miterlimit:10;"></path><g><path d="M391.51859,419.3084c-8.7121,2.369-14.8619,2.369-22.549,2.8428-7.6872,.4738-13.3245,.9476-13.3245,.9476" style="fill:none; stroke:#263238; stroke-miterlimit:10;"></path><path d="M411.50529,418.3608s-8.1512-1.0276-15.9477,.121" style="fill:none; stroke:#263238; stroke-miterlimit:10;"></path><path d="M352.64779,428.7651c14.9796,2.0149,36.86521,2.331,40.9207,1.9144" style="fill:none; stroke:#263238; stroke-miterlimit:10;"></path><path d="M310.03449,428.7843s22.5491-3.7904,36.89851-.9476" style="fill:none; stroke:#263238; stroke-miterlimit:10;"></path><path d="M178.8132,424.1162c-4.8186,.1258-11.4144-.054-19.9599-1.0174-21.0116-2.369-26.1364-.4738-34.3361,.9475-8.1996,1.4214-19.9866,1.4214-19.9866,1.4214" style="fill:none; stroke:#263238; stroke-miterlimit:10;"></path><path d="M189.0895,423.0988s-1.8241,.4684-5.6976,.7804" style="fill:none; stroke:#263238; stroke-miterlimit:10;"></path><path d="M50.6218,417.3868c4.4801-.7544,10.2689-1.395,17.0103-1.395,16.3993,0,26.6489,3.3166,34.8486,3.3166s12.8119-.4738,12.8119-.4738" style="fill:none; stroke:#263238; stroke-miterlimit:10;"></path><path d="M40.4707,419.7822s2.1039-.741,5.8687-1.5677" style="fill:none; stroke:#263238; stroke-miterlimit:10;"></path><path d="M234.60909,436.9101c-4.82709,.9329-9.6119,1.6717-13.2334,1.8239-11.2745,.4737-24.0865-.9476-40.4858-1.4214-16.3993-.4738-21.0116,.4738-21.0116,.4738" style="fill:none; stroke:#263238; stroke-miterlimit:10;"></path><path d="M255.19929,432.1008s-6.6499,1.8165-14.5328,3.5524" style="fill:none; stroke:#263238; stroke-miterlimit:10;"></path><path d="M297.25459,419.338c2.5303,.2665,5.2208,.4442,8.1676,.4442,11.787,0,26.1364-1.8952,26.1364-1.8952" style="fill:none; stroke:#263238; stroke-miterlimit:10;"></path><path d="M248.02459,419.7822s18.4492-2.8428,28.1863-2.8428c5.9616,0,11.1547,1.0656,16.9908,1.892" style="fill:none; stroke:#263238; stroke-miterlimit:10;"></path><path d="M453.08189,426.3444c5.5596,.307,9.1588,.5447,9.1588,.5447" style="fill:none; stroke:#263238; stroke-miterlimit:10;"></path><path d="M420.72989,426.4153s14.8619-.9476,24.599-.4738c1.2469,.0607,2.4518,.1214,3.60511,.181" style="fill:none; stroke:#263238; stroke-miterlimit:10;"></path></g></g></g><g id="freepik--Birds--inject-2"><g><path d="M300.714,224.5629l.94369-2.2649s-1.1325-.1887-2.2649,.3775c-1.1325,.5662-2.0762,.9437-2.0762,.9437,0,0-.3774,0-2.6423-1.3212s-5.096-1.8874-7.5497-1.8874-11.13559,1.3212-9.0595,2.0762c2.0762,.7549,6.9834,.1887,8.1158,.7549,1.1325,.5662,1.8875,1.5099,2.8312,2.0762,.9437,.5662,4.1522,1.3211,4.1522,1.3211,0,0-.5662,.755-2.0761,1.1325l-1.5099,.3775s.5662,2.4536,3.586,2.6423c3.0199,.1888,4.7186-.1887,4.7186-.1887l-.1888-2.6424s0,.9437,4.9073,1.1325c4.9072,.1887,7.1721,1.3211,7.1721,1.3211,0,0,8.8708,3.2086,8.3046,2.6424s-4.341-4.341-6.4172-5.096c-2.0761-.7549-3.7748-.9437-5.85089-1.3212-2.07621-.3774-5.096-2.0761-5.096-2.0761Z" style="fill:#adadad;"></path><path d="M345.42289,217.2951l.9437-2.2649s-1.1325-.1888-2.2649,.3774c-1.1324,.5663-2.0762,.9437-2.0762,.9437,0,0-.3774,0-2.6423-1.3211-2.2649-1.3212-5.096-1.8874-7.5496-1.8874s-11.1357,1.3211-9.05959,2.0761c2.07619,.755,6.98339,.1887,8.11589,.755,1.1324,.5662,1.8874,1.5099,2.83111,2.0761,.94369,.5662,4.15229,1.3212,4.15229,1.3212,0,0-.56629,.755-2.0762,1.1324l-1.5099,.3775s.5662,2.4536,3.5861,2.6424c3.0198,.1887,4.7185-.1888,4.7185-.1888l-.18879-2.6423s0,.9437,4.90729,1.1324c4.9072,.1888,7.1721,1.3212,7.1721,1.3212,0,0,8.8708,3.2086,8.30461,2.6424-.56621-.5662-4.341-4.3411-6.41721-5.096-2.0761-.755-3.77479-.9437-5.8509-1.3212-2.0762-.3775-5.096-2.0761-5.096-2.0761Z" style="fill:#adadad;"></path><path d="M354.35479,248.1038l.7028-1.6866s-.8433-.1405-1.68659,.2811c-.84341,.4217-1.54611,.7028-1.54611,.7028,0,0-.2811,0-1.9677-.9839-1.6866-.9838-3.7949-1.4055-5.622-1.4055s-8.2925,.9839-6.7465,1.5461c1.5461,.5622,5.2004,.1405,6.0437,.5622,.8433,.4216,1.4055,1.1244,2.1083,1.546,.7027,.4217,3.0921,.9839,3.0921,.9839,0,0-.4217,.5622-1.5461,.8433l-1.1244,.2811s.42171,1.8271,2.6705,1.9677c2.2488,.1405,3.5137-.1406,3.5137-.1406l-.14049-1.9677s0,.7028,3.65429,.8433c3.6543,.1406,5.3409,.9839,5.3409,.9839,0,0,6.6059,2.3894,6.1843,1.9677-.4217-.4216-3.2327-3.2327-4.7788-3.7949-1.546-.5622-2.811-.7027-4.357-.9838-1.5461-.2811-3.7949-1.5461-3.7949-1.5461Z" style="fill:#adadad;"></path><path d="M325.25019,251.9303s.18881-1.51,.9437-2.2649c.755-.755,1.8874-1.3212,.755-3.0199-1.1325-1.6986-9.8145-6.9834-8.8708-5.096s4.341,3.7748,3.7748,5.4735-1.3762,2.8197-2.0762,3.2086l-1.6986,.9437s-.5662-.5662-2.0762-.5662c-1.50989,0-.1887-.3775-1.50989,0-1.32121,.3775-3.01981,.9437-2.26491,2.8311,.755,1.8874,.9437,2.6424,2.0762,1.8874,1.1324-.755,1.8874-1.1325,3.2086-1.5099,1.32111-.3775,3.0198,1.1324,3.9635,2.4536s2.2649,.755,0,3.0198c-2.2649,2.2649-4.341,3.7748-3.0198,3.9636,1.3211,.1887,8.3045-4.341,8.8708-5.851,.5662-1.5099-1.51-2.2648-1.1325-2.8311,.3775-.5662,1.5099-.9437,2.0762-.7549l1.8874,.1887s-1.13249-2.2649-2.4537-2.2649c-1.3211,0-2.4536,.1888-2.4536,.1888Z" style="fill:#adadad;"></path></g></g><g id="freepik--Sun--inject-2"><g><g><circle cx="415.95266" cy="88.18017" r="52.11506" transform="translate(59.47692 319.95033) rotate(-45)" style="fill:#FF725E;"></circle><circle cx="415.95266" cy="88.18017" r="52.11506" transform="translate(59.47692 319.95033) rotate(-45)" style="fill:#fff; opacity:.91;"></circle></g><g><circle cx="415.95266" cy="88.18017" r="43.09146" transform="translate(59.47692 319.95033) rotate(-45)" style="fill:#FF725E;"></circle><circle cx="415.95266" cy="88.18017" r="43.09146" transform="translate(59.47692 319.95033) rotate(-45)" style="fill:#fff; opacity:.69;"></circle></g><circle cx="415.95269" cy="88.1802" r="34.3164" style="fill:#FF725E;"></circle></g></g><g id="freepik--Character--inject-2"><g><g><path d="M226.75229,196.0058s-3.9964,11.5452-8.2148,17.3178c-4.2184,5.7725-12.4332,14.6534-15.5416,15.5415-3.1083,.8881-15.9856-11.9892-15.9856-11.9892,0,0-5.3285,6.2167-6.6606,10.4351-1.3322,4.2184-1.1101,7.3267-1.1101,7.3267l-36.8558-14.4314s14.8755-17.3178,18.8719-29.9731c3.9964-12.6552,4.2185-14.4314,4.2185-14.4314,0,0,20.204,6.2166,31.7492,10.6571,11.5451,4.4404,29.5289,9.5469,29.5289,9.5469Z" style="fill:#fff; stroke:#263238; stroke-linecap:round; stroke-linejoin:round;"></path><path d="M176.5753,185.7928l8.4368,5.9946s8.2149,9.1029,14.2095,9.3249c5.9946,.2221,13.76541-3.9964,15.5415-3.3303,1.7762,.6661,.6661,5.9946,3.9964,7.3267,3.3304,1.3322,7.7708,0,9.769-1.9982s2.8863-5.5505,2.8863-5.5505l-54.3955-15.7636-4.2184-1.1101,3.7744,5.1065Z" style="fill:#263238; stroke:#263238; stroke-linecap:round; stroke-linejoin:round;"></path><path d="M180.3497,190.2332s-4.2185-8.4368-7.5488-9.5469-5.1065,.444-4.6625,4.8845c.4441,4.4404,.8881,11.1011,2.8863,11.5451,1.9982,.4441,4.4405-.444,4.4405-.444" style="fill:#fff; stroke:#263238; stroke-linecap:round; stroke-linejoin:round;"></path><path d="M217.42739,207.551s.8881,2.6643-.6661,3.5523c-1.5541,.8881-5.9946,1.5542-7.5487-.444" style="fill:none; stroke:#263238; stroke-linecap:round; stroke-linejoin:round;"></path><path d="M196.5573,208.8831s3.3303,5.5506,8.8809,7.1047" style="fill:none; stroke:#263238; stroke-linecap:round; stroke-linejoin:round;"></path><path d="M187.0103,216.8759s-3.9964-4.6624-5.7725-6.4386l-1.7762-1.7762,2.8863,14.2094,4.6624-5.9946Z" style="fill:#263238; stroke:#263238; stroke-linecap:round; stroke-linejoin:round;"></path></g><path d="M243.30809,366.7108s37.4896,1.4186,42.8265,2.2845,51.3507,16.8228,69.922,17.3485c18.5713,.5256,69.8851-6.6002,72.7725-7.5907,2.8875-.9906,19.2115-9.4642,20.5592-6.5667,1.34771,2.8976-8.58829,12.9817-12.2304,15.3806-3.6422,2.3989-6.1725,3.3996-7.2844,4.7978-1.1118,1.3983-7.7324,8.002-11.0478,11.4824-3.3153,3.4804-7.66169,5.502-12.2539,3.5849-4.5923-1.9172-7.73579-4.5081-13.7769-5.7514-6.0411-1.2433-33.97889,.8254-41.9067,3.103-7.9279,2.2776-20.6401,9.4237-38.7835,6.4082-18.1434-3.0156-27.64469-8.2885-27.64469-8.2885,0,0-45.67021,9.7876-78.53731,9.2147-32.867-.5728-30.7545,.5592-30.7545,.5592,0,0,46.7383-22.2672,68.1399-45.9665Z" style="fill:#fff; stroke:#263238; stroke-linecap:round; stroke-linejoin:round;"></path><path d="M142.3768,216.9749s22.8661,5.3592,34.6565,12.5049c11.7903,7.1457,22.5088,41.4449,22.8661,49.3051,.3573,7.8603-6.0738,16.4351-12.1476,20.3652-6.0739,3.9301-10.7185,6.4311-10.7185,6.4311,0,0-3.5729,11.7903-.7146,22.5089,2.8583,10.7185,9.6467,17.5069,11.0758,17.1496s36.8002-24.6526,52.878-35.0138c16.0777-10.3612,44.1344-22.5031,56.2657-16.6531,12.1314,5.8501,79.3043,86.0459,89.4569,94.6246,10.1526,8.5787,22.7387,13.0276,31.3794,17.5626,8.6407,4.5351,20.4522,4.633,18.4244,8.0745-2.02789,3.4415-14.3188,5.1012-24.04089,5.8636-9.72211,.7624-20.57511-2.8507-23.07021-3.0227-2.495-.172-10.6685-1.0935-12.205-4.7807s-.8229-12.7729-.8229-12.7729c0,0-24.5826-16.1904-32.2768-18.8695-7.6942-2.6792-31.0607-14.3234-41.4714-24.3524-10.4108-10.029-18.0196-29.5344-18.0196-29.5344,0,0-23.6118,24.948-36.1167,38.5248-12.5049,13.5767-43.2313,44.3031-66.4547,48.2332-23.2235,3.9302-47.5188-7.8602-57.88-39.3011-10.3612-31.441-5.3592-73.6005-5.0019-76.4587,.3572-2.8583,.3572-18.2215,.3572-18.2215,0,0-.3572-39.3012,3.5729-51.4488,3.9301-12.1477,16.435-11.7904,20.0079-10.7185Z" style="fill:#fff; stroke:#263238; stroke-linecap:round; stroke-linejoin:round;"></path><path d="M177.0333,305.5812s4.6447-2.501,10.7185-6.4311c6.0738-3.9301,12.5049-12.505,12.1476-20.3652s-11.0758-42.1595-22.8661-49.3051c-.6338-.3841-1.3051-.7618-1.9975-1.135,2.5678,8.584,7.9689,29.242,3.7839,39.007-5.3593,12.5049-23.2235,22.8662-25.3671,23.5808-2.1438,.7145-4.6448,1.0718-4.6448,1.0718l-30.0568-4.7963c-.0127,1.1956-.0293,2.4176-.0503,3.5896,14.4595,4.7676,47.0664,15.0583,58.3326,14.7835Z" style="fill:#FF725E; stroke:#263238; stroke-linecap:round; stroke-linejoin:round;"></path><path d="M258.00849,286.7022s2.4144-5.03,3.018-5.6336,2.8168-.6036,4.2252-3.018,3.4204-1.006,3.4204,.8048-.8048,4.024-1.8108,5.03l-2.012,2.012-.6036,2.4144-6.2372-1.6096Z" style="fill:#fff; stroke:#263238; stroke-linecap:round; stroke-linejoin:round;"></path><g><g><path d="M364.94889,262.7236l-10.1922,34.5144s2.3164,5.5594,7.8758,6.9492c5.5594,1.3899,11.3504-.2316,11.8137-1.1582,.4632-.9265,8.8023-34.0511,8.8023-34.0511,0,0-3.4746-7.1809-18.2996-6.2543Z" style="fill:#fff; stroke:#263238; stroke-linecap:round; stroke-linejoin:round;"></path><path d="M364.94889,262.7236l-1.4882,5.0396c4.1788-.3355,11.6155,.0665,18.7257,5.4232,.6475-2.5618,1.0621-4.2086,1.0621-4.2086,0,0-3.4746-7.1808-18.2996-6.2542Z" style="fill:#FF725E; stroke:#263238; stroke-linecap:round; stroke-linejoin:round;"></path></g><polygon points="376.43319 279.7926 378.05409 277.3879 375.33019 276.3959 375.22709 273.4989 372.44059 274.2945 370.65379 272.0133 368.86679 274.2946 366.08009 273.4992 365.97719 276.3962 363.25339 277.3882 364.87439 279.7926 363.25349 282.1974 365.97739 283.1894 366.08049 286.0863 368.867 285.2908 370.65379 287.572 372.44079 285.2907 375.22749 286.086 375.33039 283.1891 378.05419 282.1971 376.43319 279.7926" style="fill:#FF725E; stroke:#263238; stroke-linecap:round; stroke-linejoin:round;"></polygon><path d="M375.12549,279.7926c0-2.4696-2.002-4.4717-4.4717-4.4717s-4.4717,2.0021-4.4717,4.4717,2.002,4.4718,4.4717,4.4718,4.4717-2.0021,4.4717-4.4718Z" style="fill:#fff; stroke:#263238; stroke-linecap:round; stroke-linejoin:round;"></path></g><path d="M149.5836,219.6702s16.7864,2.0614,29.7443,11.1909c12.9579,9.1294,65.9676,54.4821,65.9676,54.4821,0,0,10.3074-.589,27.0938,2.945,16.7864,3.534,61.5501,2.356,61.5501,2.356,0,0,13.8414-4.123,15.6084-4.4175s7.9515,2.6505,11.4854,3.8285c3.534,1.178,10.013-.589,7.657,3.2395s-8.246,3.2395-9.1295,2.945c-.8834-.2945-6.7734-2.0615-6.7734-2.0615l-2.356,.589s12.9579,8.5404,14.7249,8.2459,14.7249-2.6505,12.6634-.2945-10.6019,5.89-12.3689,7.068-10.0129,4.712-12.6634,4.4175-20.9094-12.369-20.9094-12.369c0,0-50.9482,8.5405-66.2621,8.5405s-27.09379,.589-32.39479-2.6505c-5.30091-3.2395-71.2685-42.1132-71.2685-42.1132" style="fill:#fff; stroke:#263238; stroke-linecap:round; stroke-linejoin:round;"></path><g><path d="M246.82289,287.686c-2.60589-.7699-4.7008-1.7669-6.2506-2.657-.25329-.2285-.4264-.3715-.4264-.3715,0,0-18.2832-15.6713-29.0572-23.1805-10.7741-7.5092-10.1211-2.9384-7.83569-.653,2.28539,2.2854,19.58909,15.0184,17.63019,15.6714s-8.4886-2.2854-8.1621-.3265c.3264,1.9589,11.1005,9.1416,16.6508,11.7535,2.2138,1.0418,3.3289,.9873,3.9826,.6141,3.3861,2.0588,7.1179,3.3037,7.1179,3.3037,0,0-1.9589,0-4.2443,.3265s5.2237,2.6119,22.201,2.6119,31.3427-1.6324,31.3427-1.6324c-32.9751-4.2443-38.242-4.0694-42.9489-5.4602Z" style="fill:#FF725E;"></path><path d="M246.82289,287.686c-2.60589-.7699-4.7008-1.7669-6.2506-2.657-.25329-.2285-.4264-.3715-.4264-.3715,0,0-18.2832-15.6713-29.0572-23.1805-10.7741-7.5092-10.1211-2.9384-7.83569-.653,2.28539,2.2854,19.58909,15.0184,17.63019,15.6714s-8.4886-2.2854-8.1621-.3265c.3264,1.9589,11.1005,9.1416,16.6508,11.7535,2.2138,1.0418,3.3289,.9873,3.9826,.6141,3.3861,2.0588,7.1179,3.3037,7.1179,3.3037,0,0-1.9589,0-4.2443,.3265s5.2237,2.6119,22.201,2.6119,31.3427-1.6324,31.3427-1.6324c-32.9751-4.2443-38.242-4.0694-42.9489-5.4602Z" style="fill:#fff; opacity:.63;"></path><path d="M268.44839,290.5413c-14.4688-1.6587-18.2013-1.8436-21.6255-2.8553-2.60589-.7699-4.7008-1.7669-6.2506-2.657-.25329-.2285-.4264-.3715-.4264-.3715,0,0-6.688-5.7318-14.3564-11.9231l-.5604-.3086s-5.5049-3.4661-4.8933-1.6311c.6117,1.835,17.3304,14.0682,16.1071,14.6799-1.2233,.6116-6.3205-2.8544-4.8933-1.0195,1.4273,1.8351,13.4566,7.34,18.146,7.7478,4.6895,.4078,.4078-1.835,.4078-1.835,0,0,8.971,1.2233,12.641,1.2233,2.4858,0,5.0584-.5611,5.704-1.0499Z" style="fill:#FF725E;"></path></g><g><path d="M269.27569,282.0746s3.4204-1.006,4.6276,0,2.8168,6.8408,3.2192,8.2492-.6036,2.8168-2.2132,1.4084-4.4929-3.6952-4.4929-3.6952l-5.6336-1.4084s2.8833-4.3528,4.4929-4.554Z" style="fill:#fff; stroke:#263238; stroke-linecap:round; stroke-linejoin:round;"></path><line x1="270.41639" y1="288.037" x2="268.23109" y2="284.9402" style="fill:none; stroke:#263238; stroke-linecap:round; stroke-linejoin:round;"></line><path d="M273.90329,282.0746s4.4264,.2012,5.4324,1.6096,2.4144,8.2492,1.2072,8.6516-3.4204-2.012-3.4204-2.012l-3.2192-8.2492Z" style="fill:#fff; stroke:#263238; stroke-linecap:round; stroke-linejoin:round;"></path><path d="M279.33569,283.6842s3.018,.8048,3.8228,2.012,3.2192,5.4324,2.6156,5.8348-3.018,.2012-3.6216-1.006l-.6036-1.2072-2.2132-5.6336Z" style="fill:#fff; stroke:#263238; stroke-linecap:round; stroke-linejoin:round;"></path><path d="M284.56689,287.9094s2.4144,2.2132,4.4265,2.6156c2.012,.4024,1.4084-1.006-.40239-2.6156-1.81091-1.6096-5.43251-2.2132-5.43251-2.2132" style="fill:#fff; stroke:#263238; stroke-linecap:round; stroke-linejoin:round;"></path></g><path d="M169.053,179.7541s-4.3207,21.1715-12.314,34.9978c-7.9934,13.8263-19.0112,39.1026-15.7707,48.8242,3.2406,9.7216,8.6415,11.0178,8.6415,11.0178,0,0-13.6103,13.6103-31.3253,11.45-17.7149-2.1604-31.7573-18.1471-27.6526-38.2384,4.1047-20.0914,14.0424-27.8687,29.1649-39.5346,15.1225-11.666,31.9733-17.931,36.2941-24.6282,4.3207-6.6971,4.1046-9.0735,4.1046-9.0735l8.8575,5.1849Z" style="fill:#263238; stroke:#263238; stroke-linecap:round; stroke-linejoin:round;"></path><g><path d="M126.7514,178.8887s19.0045-5.345,40.9783,1.1877c21.9739,6.5328,43.0569,23.7556,71.2666,19.0045,28.20971-4.7512,33.85171-28.8036,33.85171-28.8036,0,0-16.332-.8909-54.04391-5.9389-37.7119-5.0481-44.2447-8.6114-65.0307-3.2664-20.7861,5.345-27.022,17.8167-27.022,17.8167Z" style="fill:#FF725E; stroke:#263238; stroke-linecap:round; stroke-linejoin:round;"></path><path d="M174.5594,148.8973l-7.1266,16.3319s11.5808,16.035,34.4455,17.2228c22.86471,1.1878,28.20971-2.6725,28.20971-2.6725,0,0,2.67249-12.1747-.29691-26.428-2.9695-14.2534-19.0045-21.9739-34.1486-19.3014-15.1442,2.6725-21.0831,14.8472-21.0831,14.8472Z" style="fill:#FF725E; stroke:#263238; stroke-linecap:round; stroke-linejoin:round;"></path><path d="M230.088,179.7795s.429-1.9585,.75219-5.2189c-6.4266,2.3478-18.3405,5.1047-34.9008,2.2495-15.7508-2.7157-23.3255-10.0634-26.8451-15.3885l-1.6615,3.8076s11.5808,16.035,34.4455,17.2228c22.86471,1.1878,28.20971-2.6725,28.20971-2.6725Z" style="fill:#263238; stroke:#263238; stroke-linecap:round; stroke-linejoin:round;"></path><path d="M169.0943,161.4216s-.52-1.9526-9.0149-5.0731c-8.4949-3.1206-16.123-3.4674-16.123-3.4674l-.5201,3.9875s20.977,1.4779,25.658,4.553Z" style="fill:#263238; stroke:#263238; stroke-linecap:round; stroke-linejoin:round;"></path><path d="M169.0943,161.4216s-9.8817-1.2591-18.55-1.4325c-8.6682-.1733-13.5225,1.2136-13.5225,1.2136l.1734,3.6407s23.7508-3.7231,31.8991-3.4218Z" style="fill:#263238; stroke:#263238; stroke-linecap:round; stroke-linejoin:round;"></path></g><g><path d="M182.7994,341.3381c-2.5121,3.13-20.4745,25.0612-35.0634,30.6978-7.9048,3.0542-16.8918,3.3975-23.8758,2.9847,10.5808,30.5317,34.5379,41.9821,57.4605,38.1029,13.2697-2.2456,28.9846-13.2408,42.3546-24.7856-1.4395-12.0354-6.36929-41.9171-20.6346-53.2951-8.5423,5.7295-15.0502,10.0478-15.6462,10.1969-.6706,.1676-2.5242-1.2547-4.5951-3.9016Z" style="fill:#263238; stroke:#263238; stroke-linecap:round; stroke-linejoin:round;"></path><path d="M186.3226,350.2416s-7.1456,25.3672-11.0758,32.1556" style="fill:none; stroke:#fff; stroke-linecap:round; stroke-linejoin:round;"></path><path d="M183.4644,348.8125s-5.3593,10.3612-7.503,14.2913" style="fill:none; stroke:#fff; stroke-linecap:round; stroke-linejoin:round;"></path></g></g></g><g id="freepik--Sunscreen--inject-2"><g><g><polygon points="85.5226 354.9313 86.8418 363.3387 88.8207 401.8524 111.2479 401.8524 113.2267 363.3387 114.5459 354.9313 85.5226 354.9313" style="fill:#fff; stroke:#263238; stroke-linecap:round; stroke-linejoin:round;"></polygon><rect x="88.8207" y="401.6809" width="22.4272" height="10.3289" style="fill:#FF725E; stroke:#263238; stroke-linecap:round; stroke-linejoin:round;"></rect></g><polygon points="106.5223 375.6045 108.1432 373.1998 105.4193 372.2078 105.3163 369.3108 102.5297 370.1064 100.7429 367.8252 98.9559 370.1065 96.1692 369.3111 96.0664 372.2081 93.3426 373.2001 94.9636 375.6045 93.3427 378.0093 96.0666 379.0013 96.1696 381.8982 98.9562 381.1027 100.7429 383.3839 102.5299 381.1026 105.3167 381.8979 105.4195 379.001 108.1433 378.009 106.5223 375.6045" style="fill:#FF725E; stroke:#263238; stroke-linecap:round; stroke-linejoin:round;"></polygon><path d="M105.2147,375.6045c0-2.4696-2.0021-4.4717-4.4718-4.4717s-4.4717,2.0021-4.4717,4.4717,2.0021,4.4718,4.4717,4.4718,4.4718-2.0021,4.4718-4.4718Z" style="fill:#fff; stroke:#263238; stroke-linecap:round; stroke-linejoin:round;"></path></g></g></svg>
