<svg xmlns="http://www.w3.org/2000/svg" xmlns:xlink="http://www.w3.org/1999/xlink" viewBox="0 0 500 500"><defs><clipPath id="freepik--clip-path--inject-2"><path d="M218,96.1s-21.43,7.25-26.56,20.23,7.85,21.43,11.47,23.54,6.34,13,3.32,26.86-12.07,19-18.41,18.42-7.55-1.21-7.55-1.21.91,16.3,16.91,23.54S220.15,212,220.15,212s27.46,8.45,41.35,6S282,211.41,282,211.41s7.55,3.32,18.42-2.42,14.79-14.49,14.79-14.49-15.7-.3-12.08-16.6,4.53-47.69-13-66.71S239.16,82.22,218,96.1Z" style="fill:#263238;stroke:#263238;stroke-linecap:round;stroke-linejoin:round"></path></clipPath><clipPath id="freepik--clip-path-2--inject-2"><path d="M202.05,231.32s-15.34-1.28-23,7.35-44.43,67.12-52.74,79-8.31,32.92,7,35.8,30-14.38,36.44-22.38a116,116,0,0,1,10.55-11.82s-2.88-12.15,5.75-31.65,14.71-34.84,17.58-43.15S202.05,231.32,202.05,231.32Z" style="fill:#fff;stroke:#263238;stroke-linecap:round;stroke-linejoin:round"></path></clipPath><clipPath id="freepik--clip-path-3--inject-2"><path d="M223.79,196.8s1.92,9.91-.64,19.5-1.6,9.59-8,12.14a45.81,45.81,0,0,1-13.11,2.88s-11.82,31-20.77,45.71-11.51,31-8,39.31a57.58,57.58,0,0,0,9,14.38s5.11,18.22,2.23,30-9.9,28.77-12.78,54.34-1.28,54.65-1.28,54.65H338.22s-.32-32.28-3.84-58.81S326.71,382.19,321,366.2s-6.4-16.62-6.4-27.8,3.2-41.24,2.24-61.37-5.75-35.8-14.06-41.56-28.13-8-35.48-13.1-2.88-37.72-2.88-37.72-12.46,8-22.69,10.87A41.2,41.2,0,0,1,223.79,196.8Z" style="fill:#fff;stroke:#263238;stroke-linecap:round;stroke-linejoin:round"></path></clipPath><clipPath id="freepik--clip-path-4--inject-2"><path d="M314.56,338.4c0-5.39.74-15.14,1.4-26-6.12.23-14.94-.52-21.53-5.61-11.19-8.63-16.94-25.25-15.35-43.15,1.1-12.25,5.49-26.45,8.15-34.19-2.47-.7-5.45-1.45-7.84-2.14-1.39,5.12-3.31,13.43-6.7,23.23-5.75,16.62-16,38.35-36.76,38.67S198.86,283.1,203,264.88c3-13.21,6.87-28.09,8.76-35.28a47.2,47.2,0,0,1-9.72,1.72s-11.82,31-20.77,45.71-11.51,31-8,39.31a57.58,57.58,0,0,0,9,14.38s5.11,18.22,2.23,30c-2.45,10.1-7.93,24-11.27,43.69,8.67,4.76,28.62,13,65,14.8,41.3,2,81-9.54,95.34-14.31-3.33-21-7.27-24.07-12.55-38.75C315.2,350.22,314.56,349.58,314.56,338.4Z" style="fill:#FF725E;stroke:#263238;stroke-linecap:round;stroke-linejoin:round"></path></clipPath><clipPath id="freepik--clip-path-5--inject-2"><path d="M165,239.31l-3.84-4.47s2.76-11.88,4.16-15.35a23.22,23.22,0,0,0,1.51-4.64c1-2,1.52-5.5.17-6.85-1.19-1.19-2.67.26-3,.63l-.05,0a2.4,2.4,0,0,0-2.34-3.11c-3.08-.2-5.8,2.27-5.8,2.27s-.55-2.27-2.28-2.27-5.2,3.08-6.55,4.81c-.1.13-.19.26-.29.41-3.24,3.07-9.49,9.73-9.49,9.73s1.6-6.71,4.47-9.59,10.55-8.31,9.27-10.86-5.11,0-5.11,0-17.26,9.26-17.58,13.1-4.8,20.14-3.2,21.74,23,14.7,23,14.7-15.67,31.32-21.42,45.07-11.51,27.8-12.15,40.27,7,21.74,20.14,21.74,18.86-8.95,20.78-26.21,11.18-69.05,11.82-78S168.81,243.79,165,239.31Z" style="fill:#fff;stroke:#263238;stroke-linecap:round;stroke-linejoin:round"></path></clipPath><clipPath id="freepik--clip-path-6--inject-2"><path d="M297.57,280.83s13.72,57.08,16.46,68.05,12.26,28.53,26.26,25.51,15.31-20.41,15-36.87-9.95-53.19-16.81-70.2-16-29.57-28.6-33.14-19.76-2.47-19.76-2.47" style="fill:#fff;stroke:#263238;stroke-linecap:round;stroke-linejoin:round"></path></clipPath><clipPath id="freepik--clip-path-7--inject-2"><path d="M293.5,248.49H199.86v25.86h3.33c2.89,6,20.64,10.58,42.13,10.58,20.31,0,37.28-4.11,41.52-9.61l1-1.15,4.26-2.13Z" style="fill:none"></path></clipPath><clipPath id="freepik--clip-path-8--inject-2"><path d="M232.29,113.88s-22.85,10.2-26,18.28-1.4,16.18-4.22,25.32-8.79,13.71-4.22,26.72,20.4,18.63,26.73,21.45a25.43,25.43,0,0,0,19,.7c6-2.11,23.91-15.82,23.91-15.82s1.76,2.46,9.49-.35,12-16.88,9.85-23.21-11.61-1.76-11.61-1.76S229.48,138.14,232.29,113.88Z" style="fill:#fff;stroke:#263238;stroke-linecap:round;stroke-linejoin:round"></path></clipPath><clipPath id="freepik--clip-path-9--inject-2"><path d="M346.41,353.82a35.55,35.55,0,0,0-25-17c-17.83-3-34.57-3.57-40.61-6.59s-9.05-9.6-12.35-14a56.32,56.32,0,0,0-13.72-12.08c-4.11-2.47-6.31-.54-5.49,2.2s3.85,4.39,6,7.68a23.57,23.57,0,0,1,3,7.41s-5.21.82-15.92-6.58-18.65-12.63-19.75-10.16a6.93,6.93,0,0,0-.55,4.39s-5.22-3.29-6,.28,5.76,11,5.76,11,1.93,2.75,4.94,6.59A29.87,29.87,0,0,0,243,338.18c9.06,2.74,16.74,5.21,21.68,7.41s35.12,24.42,54.61,30.46,28.54-2.2,32.1-9.06a25.16,25.16,0,0,0,2.47-14" style="fill:#fff;stroke:#263238;stroke-linecap:round;stroke-linejoin:round"></path></clipPath></defs><g id="freepik--background-simple--inject-2"><path d="M327.82,46.38s-73.45-21.62-146,22.12S72.33,193.83,40.6,259.28,26.46,388.86,81.42,415.79s92.77-18.61,170.17-24.54,98.14,3.71,162.63-41.6S491,204.19,440.81,133,327.82,46.38,327.82,46.38Z" style="fill:#FF725E"></path><path d="M327.82,46.38s-73.45-21.62-146,22.12S72.33,193.83,40.6,259.28,26.46,388.86,81.42,415.79s92.77-18.61,170.17-24.54,98.14,3.71,162.63-41.6S491,204.19,440.81,133,327.82,46.38,327.82,46.38Z" style="fill:#fff;opacity:0.7000000000000001"></path></g><g id="freepik--Kitchen--inject-2"><line x1="45.95" y1="402.7" x2="459.92" y2="402.7" style="fill:none;stroke:#263238;stroke-linecap:round;stroke-linejoin:round"></line><line x1="45.95" y1="412.19" x2="459.92" y2="412.19" style="fill:none;stroke:#263238;stroke-linecap:round;stroke-linejoin:round"></line><rect x="47.6" y="243.61" width="32" height="32" rx="4.13" style="fill:none;stroke:#263238;stroke-linecap:round;stroke-linejoin:round"></rect><rect x="82.31" y="243.61" width="32" height="32" rx="4.13" style="fill:none;stroke:#263238;stroke-linecap:round;stroke-linejoin:round"></rect><rect x="117.02" y="243.61" width="32" height="32" rx="4.13" style="fill:none;stroke:#263238;stroke-linecap:round;stroke-linejoin:round"></rect><rect x="151.72" y="243.61" width="32" height="32" rx="4.13" style="fill:none;stroke:#263238;stroke-linecap:round;stroke-linejoin:round"></rect><rect x="186.43" y="243.61" width="32" height="32" rx="4.13" style="fill:none;stroke:#263238;stroke-linecap:round;stroke-linejoin:round"></rect><rect x="221.14" y="243.61" width="32" height="32" rx="4.13" style="fill:none;stroke:#263238;stroke-linecap:round;stroke-linejoin:round"></rect><rect x="255.84" y="243.61" width="32" height="32" rx="4.13" style="fill:none;stroke:#263238;stroke-linecap:round;stroke-linejoin:round"></rect><rect x="290.55" y="243.61" width="32" height="32" rx="4.13" style="fill:none;stroke:#263238;stroke-linecap:round;stroke-linejoin:round"></rect><rect x="325.26" y="243.61" width="32" height="32" rx="4.13" style="fill:none;stroke:#263238;stroke-linecap:round;stroke-linejoin:round"></rect><rect x="359.96" y="243.61" width="32" height="32" rx="4.13" style="fill:none;stroke:#263238;stroke-linecap:round;stroke-linejoin:round"></rect><rect x="394.67" y="243.61" width="32" height="32" rx="4.13" style="fill:none;stroke:#263238;stroke-linecap:round;stroke-linejoin:round"></rect><rect x="429.38" y="243.61" width="32" height="32" rx="4.13" style="fill:none;stroke:#263238;stroke-linecap:round;stroke-linejoin:round"></rect><rect x="47.6" y="277.81" width="32" height="32" rx="4.13" style="fill:none;stroke:#263238;stroke-linecap:round;stroke-linejoin:round"></rect><rect x="82.31" y="277.81" width="32" height="32" rx="4.13" style="fill:none;stroke:#263238;stroke-linecap:round;stroke-linejoin:round"></rect><rect x="117.02" y="277.81" width="32" height="32" rx="4.13" style="fill:none;stroke:#263238;stroke-linecap:round;stroke-linejoin:round"></rect><rect x="151.72" y="277.81" width="32" height="32" rx="4.13" style="fill:none;stroke:#263238;stroke-linecap:round;stroke-linejoin:round"></rect><rect x="186.43" y="277.81" width="32" height="32" rx="4.13" style="fill:none;stroke:#263238;stroke-linecap:round;stroke-linejoin:round"></rect><rect x="221.14" y="277.81" width="32" height="32" rx="4.13" style="fill:none;stroke:#263238;stroke-linecap:round;stroke-linejoin:round"></rect><rect x="255.84" y="277.81" width="32" height="32" rx="4.13" style="fill:none;stroke:#263238;stroke-linecap:round;stroke-linejoin:round"></rect><rect x="290.55" y="277.81" width="32" height="32" rx="4.13" style="fill:none;stroke:#263238;stroke-linecap:round;stroke-linejoin:round"></rect><rect x="325.26" y="277.81" width="32" height="32" rx="4.13" style="fill:none;stroke:#263238;stroke-linecap:round;stroke-linejoin:round"></rect><rect x="359.96" y="277.81" width="32" height="32" rx="4.13" style="fill:none;stroke:#263238;stroke-linecap:round;stroke-linejoin:round"></rect><rect x="394.67" y="277.81" width="32" height="32" rx="4.13" style="fill:none;stroke:#263238;stroke-linecap:round;stroke-linejoin:round"></rect><rect x="429.38" y="277.81" width="32" height="32" rx="4.13" style="fill:none;stroke:#263238;stroke-linecap:round;stroke-linejoin:round"></rect><rect x="47.6" y="312.01" width="32" height="32" rx="4.13" style="fill:none;stroke:#263238;stroke-linecap:round;stroke-linejoin:round"></rect><rect x="82.31" y="312.01" width="32" height="32" rx="4.13" style="fill:none;stroke:#263238;stroke-linecap:round;stroke-linejoin:round"></rect><rect x="117.02" y="312.01" width="32" height="32" rx="4.13" style="fill:none;stroke:#263238;stroke-linecap:round;stroke-linejoin:round"></rect><rect x="151.72" y="312.01" width="32" height="32" rx="4.13" style="fill:none;stroke:#263238;stroke-linecap:round;stroke-linejoin:round"></rect><rect x="186.43" y="312.01" width="32" height="32" rx="4.13" style="fill:none;stroke:#263238;stroke-linecap:round;stroke-linejoin:round"></rect><rect x="221.14" y="312.01" width="32" height="32" rx="4.13" style="fill:none;stroke:#263238;stroke-linecap:round;stroke-linejoin:round"></rect><rect x="255.84" y="312.01" width="32" height="32" rx="4.13" style="fill:none;stroke:#263238;stroke-linecap:round;stroke-linejoin:round"></rect><rect x="290.55" y="312.01" width="32" height="32" rx="4.13" style="fill:none;stroke:#263238;stroke-linecap:round;stroke-linejoin:round"></rect><rect x="325.26" y="312.01" width="32" height="32" rx="4.13" style="fill:none;stroke:#263238;stroke-linecap:round;stroke-linejoin:round"></rect><rect x="359.96" y="312.01" width="32" height="32" rx="4.13" style="fill:none;stroke:#263238;stroke-linecap:round;stroke-linejoin:round"></rect><rect x="394.67" y="312.01" width="32" height="32" rx="4.13" style="fill:none;stroke:#263238;stroke-linecap:round;stroke-linejoin:round"></rect><rect x="429.38" y="312.01" width="32" height="32" rx="4.13" style="fill:none;stroke:#263238;stroke-linecap:round;stroke-linejoin:round"></rect><rect x="47.6" y="346.21" width="32" height="32" rx="4.13" style="fill:none;stroke:#263238;stroke-linecap:round;stroke-linejoin:round"></rect><rect x="82.31" y="346.21" width="32" height="32" rx="4.13" style="fill:none;stroke:#263238;stroke-linecap:round;stroke-linejoin:round"></rect><rect x="117.02" y="346.21" width="32" height="32" rx="4.13" style="fill:none;stroke:#263238;stroke-linecap:round;stroke-linejoin:round"></rect><rect x="151.72" y="346.21" width="32" height="32" rx="4.13" style="fill:none;stroke:#263238;stroke-linecap:round;stroke-linejoin:round"></rect><rect x="186.43" y="346.21" width="32" height="32" rx="4.13" style="fill:none;stroke:#263238;stroke-linecap:round;stroke-linejoin:round"></rect><rect x="221.14" y="346.21" width="32" height="32" rx="4.13" style="fill:none;stroke:#263238;stroke-linecap:round;stroke-linejoin:round"></rect><rect x="255.84" y="346.21" width="32" height="32" rx="4.13" style="fill:none;stroke:#263238;stroke-linecap:round;stroke-linejoin:round"></rect><rect x="290.55" y="346.21" width="32" height="32" rx="4.13" style="fill:none;stroke:#263238;stroke-linecap:round;stroke-linejoin:round"></rect><rect x="325.26" y="346.21" width="32" height="32" rx="4.13" style="fill:none;stroke:#263238;stroke-linecap:round;stroke-linejoin:round"></rect><rect x="359.96" y="346.21" width="32" height="32" rx="4.13" style="fill:none;stroke:#263238;stroke-linecap:round;stroke-linejoin:round"></rect><rect x="394.67" y="346.21" width="32" height="32" rx="4.13" style="fill:none;stroke:#263238;stroke-linecap:round;stroke-linejoin:round"></rect><rect x="429.38" y="346.21" width="32" height="32" rx="4.13" style="fill:none;stroke:#263238;stroke-linecap:round;stroke-linejoin:round"></rect><line x1="119.35" y1="228.92" x2="119.35" y2="74.61" style="fill:none;stroke:#263238;stroke-linecap:round;stroke-linejoin:round"></line><rect x="124.1" y="186.47" width="5.49" height="31.96" style="fill:#263238;stroke:#263238;stroke-linecap:round;stroke-linejoin:round"></rect><rect x="109.12" y="186.47" width="5.49" height="31.96" style="fill:#263238;stroke:#263238;stroke-linecap:round;stroke-linejoin:round"></rect><line x1="45.95" y1="228.92" x2="459.92" y2="228.92" style="fill:none;stroke:#263238;stroke-linecap:round;stroke-linejoin:round;stroke-width:2px"></line><line x1="366.04" y1="228.92" x2="366.04" y2="74.61" style="fill:none;stroke:#263238;stroke-linecap:round;stroke-linejoin:round"></line><rect x="357.05" y="186.47" width="5.49" height="31.96" style="fill:#263238;stroke:#263238;stroke-linecap:round;stroke-linejoin:round"></rect><rect x="370.29" y="186.47" width="5.49" height="31.96" style="fill:#263238;stroke:#263238;stroke-linecap:round;stroke-linejoin:round"></rect></g><g id="freepik--salt-shaker--inject-2"><path d="M124.94,359.53h12.29a4.09,4.09,0,0,1,4.09,4.09V402.2a0,0,0,0,1,0,0H120.85a0,0,0,0,1,0,0V363.62A4.09,4.09,0,0,1,124.94,359.53Z" style="fill:#fff;stroke:#263238;stroke-linecap:round;stroke-linejoin:round"></path><path d="M124.94,359.53h12.29a4.09,4.09,0,0,1,4.09,4.09v7.06a0,0,0,0,1,0,0H120.85a0,0,0,0,1,0,0v-7.06A4.09,4.09,0,0,1,124.94,359.53Z" style="fill:#fff;stroke:#263238;stroke-linecap:round;stroke-linejoin:round"></path><line x1="125.15" y1="372.28" x2="125.15" y2="398.03" style="fill:#fff;stroke:#263238;stroke-linecap:round;stroke-linejoin:round"></line><line x1="131.64" y1="372.28" x2="131.64" y2="398.03" style="fill:#fff;stroke:#263238;stroke-linecap:round;stroke-linejoin:round"></line></g><g id="freepik--device-2--inject-2"><rect x="353.06" y="347.27" width="103.87" height="55.43" rx="3.13" style="fill:#fff;stroke:#263238;stroke-linecap:round;stroke-linejoin:round"></rect><rect x="431.46" y="350.76" width="21.47" height="11.49" style="fill:#696969;stroke:#263238;stroke-linecap:round;stroke-linejoin:round"></rect><path d="M436.36,373a2.75,2.75,0,1,1-2.75-2.75A2.75,2.75,0,0,1,436.36,373Z" style="fill:#fff;stroke:#263238;stroke-linecap:round;stroke-linejoin:round"></path><circle cx="442.35" cy="372.99" r="2.75" style="fill:#fff;stroke:#263238;stroke-linecap:round;stroke-linejoin:round"></circle><circle cx="451.09" cy="372.99" r="2.75" style="fill:#fff;stroke:#263238;stroke-linecap:round;stroke-linejoin:round"></circle><path d="M436.36,383.47a2.75,2.75,0,1,1-2.75-2.74A2.75,2.75,0,0,1,436.36,383.47Z" style="fill:#fff;stroke:#263238;stroke-linecap:round;stroke-linejoin:round"></path><path d="M445.09,383.47a2.75,2.75,0,1,1-2.74-2.74A2.75,2.75,0,0,1,445.09,383.47Z" style="fill:#fff;stroke:#263238;stroke-linecap:round;stroke-linejoin:round"></path><path d="M453.83,383.47a2.75,2.75,0,1,1-2.74-2.74A2.75,2.75,0,0,1,453.83,383.47Z" style="fill:#fff;stroke:#263238;stroke-linecap:round;stroke-linejoin:round"></path><path d="M436.36,394a2.75,2.75,0,1,1-2.75-2.75A2.75,2.75,0,0,1,436.36,394Z" style="fill:#fff;stroke:#263238;stroke-linecap:round;stroke-linejoin:round"></path><path d="M445.09,394a2.75,2.75,0,1,1-2.74-2.75A2.75,2.75,0,0,1,445.09,394Z" style="fill:#fff;stroke:#263238;stroke-linecap:round;stroke-linejoin:round"></path><path d="M453.83,394a2.75,2.75,0,1,1-2.74-2.75A2.75,2.75,0,0,1,453.83,394Z" style="fill:#fff;stroke:#263238;stroke-linecap:round;stroke-linejoin:round"></path><path d="M423,374.48c0,13.38-1,24.22-2.25,24.22s-2.24-10.84-2.24-24.22,1-24.22,2.24-24.22S423,361.11,423,374.48Z" style="fill:#696969;stroke:#263238;stroke-linecap:round;stroke-linejoin:round"></path><path d="M409.67,352.37c-1.45-.07-2.92-.11-4.4-.11-25.8,0-46.71,10.29-46.71,23s20.91,23,46.71,23c1.48,0,3,0,4.4-.1Z" style="fill:#696969;stroke:#263238;stroke-linecap:round;stroke-linejoin:round"></path></g><g id="freepik--device-1--inject-2"><rect x="70.92" y="352.76" width="23.97" height="7.49" style="fill:#263238;stroke:#263238;stroke-linecap:round;stroke-linejoin:round"></rect><polygon points="62.35 358.25 103.95 358.25 112.86 392.43 53.44 392.43 62.35 358.25" style="fill:#fff;stroke:#263238;stroke-linecap:round;stroke-linejoin:round"></polygon><rect x="53.44" y="392.17" width="59.42" height="10.52" style="fill:#263238;stroke:#263238;stroke-linecap:round;stroke-linejoin:round"></rect><path d="M104.15,359l-.2-.78H62.35l-.2.78c3,13.5,11.27,23.19,21,23.19S101.14,372.53,104.15,359Z" style="fill:#696969;stroke:#263238;stroke-linecap:round;stroke-linejoin:round"></path><rect x="69.42" y="383.22" width="3.5" height="6.49" style="fill:#fff;stroke:#263238;stroke-linecap:round;stroke-linejoin:round"></rect><rect x="77.41" y="383.22" width="3.5" height="6.49" style="fill:#fff;stroke:#263238;stroke-linecap:round;stroke-linejoin:round"></rect><rect x="85.4" y="383.22" width="3.5" height="6.49" style="fill:#fff;stroke:#263238;stroke-linecap:round;stroke-linejoin:round"></rect><rect x="93.39" y="383.22" width="3.5" height="6.49" style="fill:#fff;stroke:#263238;stroke-linecap:round;stroke-linejoin:round"></rect></g><g id="freepik--Character--inject-2"><path d="M218,96.1s-21.43,7.25-26.56,20.23,7.85,21.43,11.47,23.54,6.34,13,3.32,26.86-12.07,19-18.41,18.42-7.55-1.21-7.55-1.21.91,16.3,16.91,23.54S220.15,212,220.15,212s27.46,8.45,41.35,6S282,211.41,282,211.41s7.55,3.32,18.42-2.42,14.79-14.49,14.79-14.49-15.7-.3-12.08-16.6,4.53-47.69-13-66.71S239.16,82.22,218,96.1Z" style="fill:#263238"></path><g style="clip-path:url(#freepik--clip-path--inject-2)"><path d="M239.71,103.68s9,31.12,28,41.49,32,23,32,34.27.45,28.42,21.19,21.2" style="fill:none;stroke:#6e6e6e;stroke-linecap:round;stroke-linejoin:round"></path><path d="M245.57,96.91s25.26,7.67,37.88,26.16S292,150.58,297,161s12.18,10.38,12.18,10.38" style="fill:none;stroke:#6e6e6e;stroke-linecap:round;stroke-linejoin:round"></path><path d="M242.87,100.07s21.64,10.82,29.76,27.06" style="fill:none;stroke:#6e6e6e;stroke-linecap:round;stroke-linejoin:round"></path><path d="M232,110.89s-1.8-14.43,13.08-16.23" style="fill:none;stroke:#6e6e6e;stroke-linecap:round;stroke-linejoin:round"></path><path d="M202.28,135.7s-14.43-6.77-6.32-17.59,32.92-9.92,32.92-9.92" style="fill:none;stroke:#6e6e6e;stroke-linecap:round;stroke-linejoin:round"></path><path d="M226.18,117.66s-24.35,7.67-24.8,9.47,2.7,1.8,2.7,1.8" style="fill:none;stroke:#6e6e6e;stroke-linecap:round;stroke-linejoin:round"></path><path d="M235.2,99.17s-3.16-4.06-16.69-1.35" style="fill:none;stroke:#6e6e6e;stroke-linecap:round;stroke-linejoin:round"></path><path d="M182,199.29s23.45,5,32.92-23.45" style="fill:none;stroke:#6e6e6e;stroke-linecap:round;stroke-linejoin:round"></path><path d="M199.12,211s17.59,0,22.1-18.94" style="fill:none;stroke:#6e6e6e;stroke-linecap:round;stroke-linejoin:round"></path><path d="M277.59,180.35s-3.16,33.37,18,37" style="fill:none;stroke:#6e6e6e;stroke-linecap:round;stroke-linejoin:round"></path></g><path d="M218,96.1s-21.43,7.25-26.56,20.23,7.85,21.43,11.47,23.54,6.34,13,3.32,26.86-12.07,19-18.41,18.42-7.55-1.21-7.55-1.21.91,16.3,16.91,23.54S220.15,212,220.15,212s27.46,8.45,41.35,6S282,211.41,282,211.41s7.55,3.32,18.42-2.42,14.79-14.49,14.79-14.49-15.7-.3-12.08-16.6,4.53-47.69-13-66.71S239.16,82.22,218,96.1Z" style="fill:none;stroke:#263238;stroke-linecap:round;stroke-linejoin:round"></path><path d="M202.05,231.32s-15.34-1.28-23,7.35-44.43,67.12-52.74,79-8.31,32.92,7,35.8,30-14.38,36.44-22.38a116,116,0,0,1,10.55-11.82s-2.88-12.15,5.75-31.65,14.71-34.84,17.58-43.15S202.05,231.32,202.05,231.32Z" style="fill:#fff"></path><g style="clip-path:url(#freepik--clip-path-2--inject-2)"><path d="M190,278.55l4.57-31s-34.25,65.28-43.94,78.85c-5.84,8.17-15.41,18.91-18.45,26.73.37.1.75.2,1.14.27,15.35,2.88,30-14.38,36.44-22.38a116,116,0,0,1,10.55-11.82s-2.88-12.15,5.75-31.65Q188.14,282.89,190,278.55Z" style="opacity:0.1"></path></g><path d="M202.05,231.32s-15.34-1.28-23,7.35-44.43,67.12-52.74,79-8.31,32.92,7,35.8,30-14.38,36.44-22.38a116,116,0,0,1,10.55-11.82s-2.88-12.15,5.75-31.65,14.71-34.84,17.58-43.15S202.05,231.32,202.05,231.32Z" style="fill:none;stroke:#263238;stroke-linecap:round;stroke-linejoin:round"></path><path d="M223.79,196.8s1.92,9.91-.64,19.5-1.6,9.59-8,12.14a45.81,45.81,0,0,1-13.11,2.88s-11.82,31-20.77,45.71-11.51,31-8,39.31a57.58,57.58,0,0,0,9,14.38s5.11,18.22,2.23,30-9.9,28.77-12.78,54.34-1.28,54.65-1.28,54.65H338.22s-.32-32.28-3.84-58.81S326.71,382.19,321,366.2s-6.4-16.62-6.4-27.8,3.2-41.24,2.24-61.37-5.75-35.8-14.06-41.56-28.13-8-35.48-13.1-2.88-37.72-2.88-37.72-12.46,8-22.69,10.87A41.2,41.2,0,0,1,223.79,196.8Z" style="fill:#fff"></path><g style="clip-path:url(#freepik--clip-path-3--inject-2)"><path d="M254,225c10.82,6.18,26.16,9.06,41.44,7-9.5-3.45-22.56-5.68-28.22-9.62-7.35-5.11-2.88-37.72-2.88-37.72a119.61,119.61,0,0,1-17.45,9.06l.64,9.27S240.47,217.2,254,225Z" style="opacity:0.1"></path><path d="M298.63,287.64s-3.23,23.91,2.58,28.44,9.05,2.58,9.05-12.28S299.92,284.41,298.63,287.64Z" style="opacity:0.1"></path></g><path d="M223.79,196.8s1.92,9.91-.64,19.5-1.6,9.59-8,12.14a45.81,45.81,0,0,1-13.11,2.88s-11.82,31-20.77,45.71-11.51,31-8,39.31a57.58,57.58,0,0,0,9,14.38s5.11,18.22,2.23,30-9.9,28.77-12.78,54.34-1.28,54.65-1.28,54.65H338.22s-.32-32.28-3.84-58.81S326.71,382.19,321,366.2s-6.4-16.62-6.4-27.8,3.2-41.24,2.24-61.37-5.75-35.8-14.06-41.56-28.13-8-35.48-13.1-2.88-37.72-2.88-37.72-12.46,8-22.69,10.87A41.2,41.2,0,0,1,223.79,196.8Z" style="fill:none;stroke:#263238;stroke-linecap:round;stroke-linejoin:round"></path><path d="M224.28,209.76a25.38,25.38,0,0,0,18.89.67c4.23-1.49,14.44-8.79,20.05-12.94.37-7.06,1.16-12.84,1.16-12.84s-12.46,8-22.69,10.87a41.2,41.2,0,0,1-17.9,1.28A51.77,51.77,0,0,1,224.28,209.76Z" style="fill:#263238;stroke:#263238;stroke-linecap:round;stroke-linejoin:round"></path><path d="M334.38,411c-1.42-10.7-2.94-17.44-4.63-22.73-67,23.87-128.56,13-154.6,6.27a191.61,191.61,0,0,0-3.46,20.62c-2.88,25.57-1.28,54.65-1.28,54.65H338.22S337.9,437.48,334.38,411Z" style="fill:#263238;stroke:#263238;stroke-linecap:round;stroke-linejoin:round"></path><path d="M255.51,466.44s14.43-32.6,40-45.64" style="fill:none;stroke:#6e6e6e;stroke-linecap:round;stroke-linejoin:round"></path><path d="M250.39,461.78a61.84,61.84,0,0,1,14.9-27" style="fill:none;stroke:#6e6e6e;stroke-linecap:round;stroke-linejoin:round"></path><path d="M189.85,419.41s8.38,17.22,24.21,27" style="fill:none;stroke:#6e6e6e;stroke-linecap:round;stroke-linejoin:round"></path><path d="M314.56,338.4c0-5.39.74-15.14,1.4-26-6.12.23-14.94-.52-21.53-5.61-11.19-8.63-16.94-25.25-15.35-43.15,1.1-12.25,5.49-26.45,8.15-34.19-2.47-.7-5.45-1.45-7.84-2.14-1.39,5.12-3.31,13.43-6.7,23.23-5.75,16.62-16,38.35-36.76,38.67S198.86,283.1,203,264.88c3-13.21,6.87-28.09,8.76-35.28a47.2,47.2,0,0,1-9.72,1.72s-11.82,31-20.77,45.71-11.51,31-8,39.31a57.58,57.58,0,0,0,9,14.38s5.11,18.22,2.23,30c-2.45,10.1-7.93,24-11.27,43.69,8.67,4.76,28.62,13,65,14.8,41.3,2,81-9.54,95.34-14.31-3.33-21-7.27-24.07-12.55-38.75C315.2,350.22,314.56,349.58,314.56,338.4Z" style="fill:#FF725E"></path><g style="clip-path:url(#freepik--clip-path-4--inject-2)"><path d="M275.51,417.83a302.45,302.45,0,0,0,58-12.88c-3.33-21-7.27-24.07-12.55-38.75-5.76-16-6.4-16.62-6.4-27.8,0-5.39.74-15.14,1.4-26-6.12.23-14.94-.52-21.53-5.61-8.84-6.81-14.26-18.62-15.38-32.09-6.83,13.41-20.45,36.87-35.38,44.34-21.34,10.67-34.67,4.67-52.67-2.67-13-5.3-17-4.33-17.65.15a57.53,57.53,0,0,0,8.89,14.24s1,3.75,1.92,8.93c4.53,3.66,10.82,7.4,19.51,11.35,22,10,58.66,16,78,27.33s4,22.67-5.34,36.67A5.35,5.35,0,0,0,275.51,417.83Z" style="opacity:0.1"></path></g><path d="M314.56,338.4c0-5.39.74-15.14,1.4-26-6.12.23-14.94-.52-21.53-5.61-11.19-8.63-16.94-25.25-15.35-43.15,1.1-12.25,5.49-26.45,8.15-34.19-2.47-.7-5.45-1.45-7.84-2.14-1.39,5.12-3.31,13.43-6.7,23.23-5.75,16.62-16,38.35-36.76,38.67S198.86,283.1,203,264.88c3-13.21,6.87-28.09,8.76-35.28a47.2,47.2,0,0,1-9.72,1.72s-11.82,31-20.77,45.71-11.51,31-8,39.31a57.58,57.58,0,0,0,9,14.38s5.11,18.22,2.23,30c-2.45,10.1-7.93,24-11.27,43.69,8.67,4.76,28.62,13,65,14.8,41.3,2,81-9.54,95.34-14.31-3.33-21-7.27-24.07-12.55-38.75C315.2,350.22,314.56,349.58,314.56,338.4Z" style="fill:none;stroke:#263238;stroke-linecap:round;stroke-linejoin:round"></path><path d="M188.68,333.39s6.79,3.24,18,3.24" style="fill:none;stroke:#263238;stroke-linecap:round;stroke-linejoin:round"></path><path d="M140.78,220.13s-.57-4.62-1-11.94-1-13.09,2.51-13.86,4.81,2.69,4.81,6.74,1.93,12.9,4,18.87,4.24,9.25,1,10.79S141.75,225.91,140.78,220.13Z" style="fill:#fff;stroke:#263238;stroke-linecap:round;stroke-linejoin:round"></path><path d="M209,210.31S202.8,214,202,219.17s2.12,8.86,10.21,7.9,7.7-6,7.7-6Z" style="fill:#FF725E;stroke:#263238;stroke-linecap:round;stroke-linejoin:round"></path><path d="M212.92,216s-5.07,2.41-6.52,5.07-3.62,4.83,1.45,3.14S214.86,215.79,212.92,216Z" style="fill:#fff;stroke:#263238;stroke-linecap:round;stroke-linejoin:round"></path><path d="M203.52,220c-5.94,1.44-9.17-.36-12.41.36a17.82,17.82,0,0,1-2.14.36c-4.6-1.59-8.38-4.27-12.44-7.18-1.56-1.12-3.18-2.28-4.9-3.41-10.25-6.77-27-11.14-27.68-11.32a1.1,1.1,0,0,0-.55,2.13c.17,0,17.08,4.45,27,11,1.68,1.11,3.29,2.26,4.83,3.37,7.84,5.61,18.95,11.74,28.87,8.55a1.09,1.09,0,0,0,.9-.89C206.53,221,203.52,220,203.52,220Z" style="fill:#fff;stroke:#263238;stroke-linecap:round;stroke-linejoin:round"></path><path d="M204.6,221.3a18,18,0,0,1-9.35.72" style="fill:none;stroke:#263238;stroke-linecap:round;stroke-linejoin:round"></path><path d="M137.17,220.45s-4.16,4.16-3.2,6.07" style="fill:none;stroke:#263238;stroke-linecap:round;stroke-linejoin:round"></path><path d="M165,239.31l-3.84-4.47s2.76-11.88,4.16-15.35a23.22,23.22,0,0,0,1.51-4.64c1-2,1.52-5.5.17-6.85-1.19-1.19-2.67.26-3,.63l-.05,0a2.4,2.4,0,0,0-2.34-3.11c-3.08-.2-5.8,2.27-5.8,2.27s-.55-2.27-2.28-2.27-5.2,3.08-6.55,4.81c-.1.13-.19.26-.29.41-3.24,3.07-9.49,9.73-9.49,9.73s1.6-6.71,4.47-9.59,10.55-8.31,9.27-10.86-5.11,0-5.11,0-17.26,9.26-17.58,13.1-4.8,20.14-3.2,21.74,23,14.7,23,14.7-15.67,31.32-21.42,45.07-11.51,27.8-12.15,40.27,7,21.74,20.14,21.74,18.86-8.95,20.78-26.21,11.18-69.05,11.82-78S168.81,243.79,165,239.31Z" style="fill:#fff"></path><g style="clip-path:url(#freepik--clip-path-5--inject-2)"><path d="M155.39,330.41c1.92-17.26,11.18-69.05,11.82-78s1.6-8.63-2.23-13.11l-3.84-4.47s2.76-11.88,4.16-15.35a23.22,23.22,0,0,0,1.51-4.64,9.69,9.69,0,0,0,.9-5.13l-.27.37s-11,23.91-10.34,28.44c.51,3.59-23.09-2.21-32.12-3.76l0,.07c1.6,1.59,23,14.7,23,14.7s11,2.56,9.06,12.9-14.58,75.33-23.77,91a20.57,20.57,0,0,1-2.12,2.95,26.51,26.51,0,0,0,3.4.25C147.72,356.62,153.47,347.67,155.39,330.41Z" style="opacity:0.1"></path></g><path d="M165,239.31l-3.84-4.47s2.76-11.88,4.16-15.35a23.22,23.22,0,0,0,1.51-4.64c1-2,1.52-5.5.17-6.85-1.19-1.19-2.67.26-3,.63l-.05,0a2.4,2.4,0,0,0-2.34-3.11c-3.08-.2-5.8,2.27-5.8,2.27s-.55-2.27-2.28-2.27-5.2,3.08-6.55,4.81c-.1.13-.19.26-.29.41-3.24,3.07-9.49,9.73-9.49,9.73s1.6-6.71,4.47-9.59,10.55-8.31,9.27-10.86-5.11,0-5.11,0-17.26,9.26-17.58,13.1-4.8,20.14-3.2,21.74,23,14.7,23,14.7-15.67,31.32-21.42,45.07-11.51,27.8-12.15,40.27,7,21.74,20.14,21.74,18.86-8.95,20.78-26.21,11.18-69.05,11.82-78S168.81,243.79,165,239.31Z" style="fill:none;stroke:#263238;stroke-linecap:round;stroke-linejoin:round"></path><path d="M155.78,207.77s-7.29,10.44-8.83,13.33a20,20,0,0,0-1.74,7.12" style="fill:none;stroke:#263238;stroke-linecap:round;stroke-linejoin:round"></path><path d="M154.07,231.11a25.67,25.67,0,0,1,2.31-8.47c1.93-4.24,7.59-14,7.59-14" style="fill:none;stroke:#263238;stroke-linecap:round;stroke-linejoin:round"></path><path d="M297.57,280.83s13.72,57.08,16.46,68.05,12.26,28.53,26.26,25.51,15.31-20.41,15-36.87-9.95-53.19-16.81-70.2-16-29.57-28.6-33.14-19.76-2.47-19.76-2.47" style="fill:#fff"></path><g style="clip-path:url(#freepik--clip-path-6--inject-2)"><path d="M355.33,337.52c-.27-16.46-9.95-53.19-16.81-70.2s-16-29.57-28.6-33.14A74.26,74.26,0,0,0,299.54,232c5.32,2.26,23,12,33.34,44.66,12.28,38.77,20,67.85,7.11,81.42-6.76,7.1-13,7.47-19.5,5.48,4.68,7.09,11.44,12.63,19.8,10.83C354.28,371.37,355.6,354,355.33,337.52Z" style="opacity:0.1"></path></g><path d="M297.57,280.83s13.72,57.08,16.46,68.05,12.26,28.53,26.26,25.51,15.31-20.41,15-36.87-9.95-53.19-16.81-70.2-16-29.57-28.6-33.14-19.76-2.47-19.76-2.47" style="fill:none;stroke:#263238;stroke-linecap:round;stroke-linejoin:round"></path><path d="M291.46,273.54,199.3,275l12.1,31.85h.13c2.69,8,16.78,14.15,33.77,14.15,16.36,0,30-5.68,33.42-13.27h.22Z" style="fill:#fff;stroke:#263238;stroke-linecap:round;stroke-linejoin:round"></path><ellipse cx="245.3" cy="273.54" rx="46.17" ry="14.14" style="fill:#fff;stroke:#263238;stroke-linecap:round;stroke-linejoin:round"></ellipse><ellipse cx="245.3" cy="272.73" rx="43.22" ry="12.49" style="fill:#fff;stroke:#263238;stroke-linecap:round;stroke-linejoin:round"></ellipse><g style="clip-path:url(#freepik--clip-path-7--inject-2)"><path d="M202.78,272.64s-2-7.26-.55-7.5,3.8,3.21,6.13.88,4.09-5.55,7.3-5.26,2.92,3.8,5,3.8,4.67-3.8,5.84.29-2,10.22-4.09,12.55-6.71,1.75-13.13,1.75S202.78,272.64,202.78,272.64Z" style="fill:#FF725E;stroke:#263238;stroke-linecap:round;stroke-linejoin:round"></path><line x1="209.24" y1="279.15" x2="207.22" y2="270.73" style="fill:none;stroke:#263238;stroke-linecap:round;stroke-linejoin:round"></line><line x1="212.29" y1="278.95" x2="212.78" y2="265.17" style="fill:none;stroke:#263238;stroke-linecap:round;stroke-linejoin:round"></line><path d="M237.43,265.41s-2.66-3.87-.48-6.53,3.14-.48,7.25,0,3.63-3.38,8.46-1.93S259,262,260.4,262s4.59-1.94,7.49,1,2.17,4.6,3.62,4.6,3.63-1.94,4.11,1.45-1,5.56-3.38,5.56-6.77-4.11-11.36-3.63-6.29,2.42-9.67,1.69-3.63-2.41-5.08-2.9-6,.24-8-1,.24-3.39.24-3.39Z" style="fill:#FF725E;stroke:#263238;stroke-linecap:round;stroke-linejoin:round"></path><path d="M249.8,265.92s-2.66-3.87-.48-6.53,3.14-.48,7.25,0,3.63-3.38,8.46-1.93,6.29,5.08,7.74,5.08,4.59-1.94,7.49,1,2.18,4.6,3.63,4.6,3.62-1.94,4.11,1.45-1,5.56-3.39,5.56-6.77-4.11-11.36-3.63-6.28,2.42-9.67,1.69-3.62-2.41-5.07-2.9-6,.24-8-1,.24-3.39.24-3.39Z" style="fill:#FF725E;stroke:#263238;stroke-linecap:round;stroke-linejoin:round"></path><polyline points="274.42 264.2 272.24 274.6 276.38 275.29 280.22 266.38" style="fill:#FF725E;stroke:#263238;stroke-linecap:round;stroke-linejoin:round"></polyline><line x1="262.33" y1="260.82" x2="262.81" y2="266.38" style="fill:#FF725E;stroke:#263238;stroke-linecap:round;stroke-linejoin:round"></line><path d="M248.31,272.9s-2.66-3.86-.48-6.52,3.14-.49,7.25,0,3.62-3.39,8.46-1.94,6.28,5.08,7.73,5.08,4.6-1.93,7.5,1,2.17,4.59,3.62,4.59,3.63-1.93,4.11,1.45-1,5.56-3.38,5.56-6.77-4.11-11.36-3.63-6.29,2.42-9.67,1.7-3.63-2.42-5.08-2.9-6,.24-8-1,.25-3.39.25-3.39Z" style="fill:#FF725E;stroke:#263238;stroke-linecap:round;stroke-linejoin:round"></path><ellipse cx="249.99" cy="270.31" rx="8.61" ry="5.47" style="fill:gray;stroke:#263238;stroke-linecap:round;stroke-linejoin:round"></ellipse><path d="M249.8,269.34s-2.38-2.86-1.68-3.53,4-.86,4.4.12S249.8,269.34,249.8,269.34Z" style="fill:#fff"></path><path d="M248.77,269.73s-5-.49-5.46-1.24,1.29-2.55,2.76-2.18S248.77,269.73,248.77,269.73Z" style="fill:#fff"></path><path d="M248.57,270.46s-3.81,2.14-5,1.86-2.25-2.26-.85-2.74S248.57,270.46,248.57,270.46Z" style="fill:#fff"></path><path d="M249.32,271s.13,3.23-1,3.63-4.18-.36-3.86-1.35S249.32,271,249.32,271Z" style="fill:#fff"></path><path d="M250.5,271s4,2,3.75,2.81-3.12,1.8-4.11,1S250.5,271,250.5,271Z" style="fill:#fff"></path><path d="M251.25,270.45s5-.64,5.79,0,.16,2.67-1.42,2.65S251.25,270.45,251.25,270.45Z" style="fill:#fff"></path><path d="M251,269.72s2.43-2.84,3.69-2.84,3.33,1.64,2.28,2.4S251,269.72,251,269.72Z" style="fill:#fff"></path><ellipse cx="275.13" cy="275.15" rx="8.61" ry="5.47" style="fill:gray;stroke:#263238;stroke-linecap:round;stroke-linejoin:round"></ellipse><path d="M274.94,274.17s-2.38-2.85-1.68-3.52,4-.86,4.4.11S274.94,274.17,274.94,274.17Z" style="fill:#fff"></path><path d="M273.91,274.56s-5-.48-5.46-1.24,1.29-2.55,2.76-2.18S273.91,274.56,273.91,274.56Z" style="fill:#fff"></path><path d="M273.71,275.29s-3.82,2.14-5,1.87-2.25-2.27-.85-2.75S273.71,275.29,273.71,275.29Z" style="fill:#fff"></path><path d="M274.46,275.86s.13,3.23-1,3.63-4.18-.36-3.86-1.35S274.46,275.86,274.46,275.86Z" style="fill:#fff"></path><path d="M275.64,275.86s4,2,3.75,2.8-3.12,1.8-4.11,1S275.64,275.86,275.64,275.86Z" style="fill:#fff"></path><path d="M276.39,275.29s5-.64,5.79,0,.16,2.68-1.42,2.65S276.39,275.29,276.39,275.29Z" style="fill:#fff"></path><path d="M276.18,274.56s2.43-2.84,3.69-2.84,3.33,1.64,2.28,2.39S276.18,274.56,276.18,274.56Z" style="fill:#fff"></path><path d="M243,271.19s2.1-7.26.57-7.5-4,3.21-6.38.88S233,259,229.6,259.31s-3,3.8-5.16,3.8-4.87-3.8-6.09.29,2.13,10.22,4.26,12.55,7,1.75,13.68,1.75S243,271.19,243,271.19Z" style="fill:#FF725E;stroke:#263238;stroke-linecap:round;stroke-linejoin:round"></path><line x1="236.29" y1="277.7" x2="238.4" y2="269.28" style="fill:none;stroke:#263238;stroke-linecap:round;stroke-linejoin:round"></line><line x1="233.11" y1="277.5" x2="232.61" y2="263.72" style="fill:none;stroke:#263238;stroke-linecap:round;stroke-linejoin:round"></line><ellipse cx="222.2" cy="275.87" rx="8.61" ry="5.47" style="fill:gray;stroke:#263238;stroke-linecap:round;stroke-linejoin:round"></ellipse><path d="M222,274.9s-2.39-2.86-1.69-3.53,4-.86,4.4.12S222,274.9,222,274.9Z" style="fill:#fff"></path><path d="M221,275.28s-5-.48-5.46-1.23,1.29-2.55,2.76-2.18S221,275.28,221,275.28Z" style="fill:#fff"></path><path d="M220.77,276s-3.81,2.14-5,1.86-2.25-2.26-.85-2.74S220.77,276,220.77,276Z" style="fill:#fff"></path><path d="M221.53,276.59s.13,3.23-1,3.63-4.18-.36-3.86-1.35S221.53,276.59,221.53,276.59Z" style="fill:#fff"></path><path d="M222.7,276.58s4,2,3.75,2.81-3.12,1.8-4.1,1S222.7,276.58,222.7,276.58Z" style="fill:#fff"></path><path d="M223.45,276s5-.64,5.79,0,.17,2.67-1.42,2.65S223.45,276,223.45,276Z" style="fill:#fff"></path><path d="M223.24,275.28s2.43-2.84,3.7-2.84,3.33,1.64,2.27,2.4S223.24,275.28,223.24,275.28Z" style="fill:#fff"></path><path d="M225.24,275.76s4-6,13.88-7c0,0,4.84,1.45,2.9,1.69s-9.18-.49-15,5.56S225.24,275.76,225.24,275.76Z" style="fill:#fff;stroke:#263238;stroke-linecap:round;stroke-linejoin:round"></path><path d="M248.46,277.89c0,2.8-3.85,5.08-8.61,5.08s-8.61-2.28-8.61-5.08,3.85-5.07,8.61-5.07S248.46,275.09,248.46,277.89Z" style="fill:gray;stroke:#263238;stroke-linecap:round;stroke-linejoin:round"></path><path d="M239.66,277s-2.39-2.65-1.69-3.27,4-.79,4.4.11S239.66,277,239.66,277Z" style="fill:#fff"></path><path d="M238.62,277.35s-5-.45-5.45-1.15,1.28-2.36,2.76-2S238.62,277.35,238.62,277.35Z" style="fill:#fff"></path><path d="M238.42,278s-3.81,2-5,1.73-2.25-2.1-.86-2.55S238.42,278,238.42,278Z" style="fill:#fff"></path><path d="M239.18,278.56s.13,3-1,3.36-4.17-.33-3.85-1.25S239.18,278.56,239.18,278.56Z" style="fill:#fff"></path><path d="M240.35,278.55s4,1.87,3.76,2.6-3.12,1.67-4.11.94S240.35,278.55,240.35,278.55Z" style="fill:#fff"></path><path d="M241.1,278s5-.59,5.8,0,.16,2.48-1.43,2.46S241.1,278,241.1,278Z" style="fill:#fff"></path><path d="M240.89,277.34s2.44-2.63,3.7-2.62,3.33,1.52,2.28,2.22S240.89,277.34,240.89,277.34Z" style="fill:#fff"></path><path d="M267.07,278.13c0,2.81-3.85,5.08-8.61,5.08s-8.61-2.27-8.61-5.08,3.86-5.07,8.61-5.07S267.07,275.33,267.07,278.13Z" style="fill:gray;stroke:#263238;stroke-linecap:round;stroke-linejoin:round"></path><path d="M258.27,277.23s-2.39-2.65-1.68-3.26,4-.8,4.4.1S258.27,277.23,258.27,277.23Z" style="fill:#fff"></path><path d="M257.24,277.59s-5-.44-5.46-1.15,1.28-2.36,2.76-2S257.24,277.59,257.24,277.59Z" style="fill:#fff"></path><path d="M257,278.27s-3.82,2-5,1.73-2.25-2.1-.85-2.55S257,278.27,257,278.27Z" style="fill:#fff"></path><path d="M257.79,278.8s.13,3-1,3.36-4.17-.33-3.85-1.25S257.79,278.8,257.79,278.8Z" style="fill:#fff"></path><path d="M259,278.8s4,1.86,3.76,2.6-3.12,1.66-4.11.93S259,278.8,259,278.8Z" style="fill:#fff"></path><path d="M259.71,278.27s5-.6,5.8,0,.16,2.48-1.42,2.46S259.71,278.27,259.71,278.27Z" style="fill:#fff"></path><path d="M259.51,277.59s2.43-2.64,3.69-2.63,3.33,1.52,2.28,2.22S259.51,277.59,259.51,277.59Z" style="fill:#fff"></path><path d="M248.21,270.45s-2.52,6.74-12,9.9c0,0-5-.33-3.2-1s9.06-1.59,13.36-8.78S248.21,270.45,248.21,270.45Z" style="fill:#fff;stroke:#263238;stroke-linecap:round;stroke-linejoin:round"></path><path d="M271.15,273s-2.52,6.74-12,9.9c0,0-5-.33-3.2-1s9.06-1.59,13.36-8.77S271.15,273,271.15,273Z" style="fill:#fff;stroke:#263238;stroke-linecap:round;stroke-linejoin:round"></path><path d="M210.65,280.88s-5.56-2.9-1.2-3.87,6.52,4.35,7.49,1.7,2.32-4.2,5.39-3.43,0,3.34,3.21,4.11.3-5.12,6.12-2.18,4.13,6.57,7.28,6.81,2.65-5.8,6.76-5.07,2.18,1.69,4.84,2.17,3.14-2.17,5.8-.48,4.35,3.38,5.8,2.42,1-2.18,3.63-2.66,2.9-1.45,4.83-3.87,4.84,1,7.74,1,3.14,0,4.59-2.9a5.15,5.15,0,0,1,4.35-2.9s2.42,2.41-.72,5.31-15.48,9.67-25.14,10.64-23.21,2.17-35.05.48S210.65,280.88,210.65,280.88Z" style="fill:#FF725E;stroke:#263238;stroke-linecap:round;stroke-linejoin:round"></path><path d="M254.25,273.83s4-6,13.88-7c0,0,4.84,1.45,2.9,1.69s-9.18-.48-15,5.56S254.25,273.83,254.25,273.83Z" style="fill:#fff;stroke:#263238;stroke-linecap:round;stroke-linejoin:round"></path></g><path d="M232.29,113.88s-22.85,10.2-26,18.28-1.4,16.18-4.22,25.32-8.79,13.71-4.22,26.72,20.4,18.63,26.73,21.45a25.43,25.43,0,0,0,19,.7c6-2.11,23.91-15.82,23.91-15.82s1.76,2.46,9.49-.35,12-16.88,9.85-23.21-11.61-1.76-11.61-1.76S229.48,138.14,232.29,113.88Z" style="fill:#fff"></path><g style="clip-path:url(#freepik--clip-path-8--inject-2)"><path d="M275.18,165.21A166.32,166.32,0,0,1,253.1,149c1.91,7.07,5.8,23.26,4.81,34.59-1.29,14.86-14.86,20.68-26.49,22-1.56.17-2.32.73-2.48,1.56a25.49,25.49,0,0,0,14.6-.78c6-2.11,23.91-15.82,23.91-15.82s1.76,2.46,9.49-.35,12-16.88,9.85-23.21S275.18,165.21,275.18,165.21Z" style="opacity:0.1"></path></g><path d="M232.29,113.88s-22.85,10.2-26,18.28-1.4,16.18-4.22,25.32-8.79,13.71-4.22,26.72,20.4,18.63,26.73,21.45a25.43,25.43,0,0,0,19,.7c6-2.11,23.91-15.82,23.91-15.82s1.76,2.46,9.49-.35,12-16.88,9.85-23.21-11.61-1.76-11.61-1.76S229.48,138.14,232.29,113.88Z" style="fill:none;stroke:#263238;stroke-linecap:round;stroke-linejoin:round"></path><path d="M223.15,152.2a11.81,11.81,0,0,1-3.87,6.68c-3.16,2.46-5.62,4.22-2.46,7s5.63,1.75,5.63,1.75" style="fill:none;stroke:#263238;stroke-linecap:round;stroke-linejoin:round"></path><path d="M218.93,177.17s5.63,3.86,13.71-1.76" style="fill:none;stroke:#263238;stroke-linecap:round;stroke-linejoin:round"></path><path d="M231.94,172.6s-.7,1.75,2.46,4.92" style="fill:none;stroke:#263238;stroke-linecap:round;stroke-linejoin:round"></path><path d="M208.38,152.55a8.39,8.39,0,0,1,9.85.36" style="fill:none;stroke:#263238;stroke-linecap:round;stroke-linejoin:round"></path><path d="M233,153.61s4.22-3.87,10.55.7" style="fill:none;stroke:#263238;stroke-linecap:round;stroke-linejoin:round"></path><path d="M208.73,142.71s4.93-6.33,11.25-3.52" style="fill:none;stroke:#263238;stroke-linecap:round;stroke-linejoin:round;stroke-width:3px"></path><path d="M229.48,139.55s6.68-3.87,12.66,3.16" style="fill:none;stroke:#263238;stroke-linecap:round;stroke-linejoin:round;stroke-width:3px"></path><path d="M346.41,353.82a35.55,35.55,0,0,0-25-17c-17.83-3-34.57-3.57-40.61-6.59s-9.05-9.6-12.35-14a56.32,56.32,0,0,0-13.72-12.08c-4.11-2.47-6.31-.54-5.49,2.2s3.85,4.39,6,7.68a23.57,23.57,0,0,1,3,7.41s-5.21.82-15.92-6.58-18.65-12.63-19.75-10.16a6.93,6.93,0,0,0-.55,4.39s-5.22-3.29-6,.28,5.76,11,5.76,11,1.93,2.75,4.94,6.59A29.87,29.87,0,0,0,243,338.18c9.06,2.74,16.74,5.21,21.68,7.41s35.12,24.42,54.61,30.46,28.54-2.2,32.1-9.06a25.16,25.16,0,0,0,2.47-14" style="fill:#fff"></path><g style="clip-path:url(#freepik--clip-path-9--inject-2)"><path d="M353.82,353l-7.41.82a23.49,23.49,0,0,0-1.92-3,21.63,21.63,0,0,1-4.5,7.23c-12.93,13.57-24.12,2.57-38.13-2.58s-42-19.39-56.22-18.74a45.73,45.73,0,0,1-7.08-.23,35.32,35.32,0,0,0,4.4,1.65c9.06,2.74,16.74,5.21,21.68,7.41s35.12,24.42,54.61,30.46,28.54-2.2,32.1-9.06A25.16,25.16,0,0,0,353.82,353Z" style="opacity:0.1"></path></g><path d="M346.41,353.82a35.55,35.55,0,0,0-25-17c-17.83-3-34.57-3.57-40.61-6.59s-9.05-9.6-12.35-14a56.32,56.32,0,0,0-13.72-12.08c-4.11-2.47-6.31-.54-5.49,2.2s3.85,4.39,6,7.68a23.57,23.57,0,0,1,3,7.41s-5.21.82-15.92-6.58-18.65-12.63-19.75-10.16a6.93,6.93,0,0,0-.55,4.39s-5.22-3.29-6,.28,5.76,11,5.76,11,1.93,2.75,4.94,6.59A29.87,29.87,0,0,0,243,338.18c9.06,2.74,16.74,5.21,21.68,7.41s35.12,24.42,54.61,30.46,28.54-2.2,32.1-9.06a25.16,25.16,0,0,0,2.47-14" style="fill:none;stroke:#263238;stroke-linecap:round;stroke-linejoin:round"></path><path d="M222.11,309.09s11.7,9.85,14.36,12.21a24.48,24.48,0,0,0,6.48,3.83" style="fill:none;stroke:#263238;stroke-linecap:round;stroke-linejoin:round"></path><path d="M218.47,314.22s11.21,13,18.59,16.22" style="fill:none;stroke:#263238;stroke-linecap:round;stroke-linejoin:round"></path></g></svg>
