<svg xmlns="http://www.w3.org/2000/svg" viewBox="0 0 500 500"><g id="freepik--Clouds--inject-15"><path id="freepik--Cloud--inject-15" d="M119.33,31.46c-1.38,1-3.45,1-5.25.87-2.11-.2-4.5-.41-6.09,1a16.51,16.51,0,0,0-1.94,2.59c-1.83,2.33-5.55.86-7,4-.21.45-.15,1.87-.73,2s-1.83-.7-2.44-.77a20.24,20.24,0,0,0-6,.53,6.87,6.87,0,0,0-4.45,2.93c-.5.76-.93,1.7-1.82,2a3,3,0,0,1-1.54-.13,18.15,18.15,0,0,0-5.37-1c-1.83.07-3.78,1-4.45,2.61-.09.24-.19.51-.44.58s-.48-.12-.68-.28a5.54,5.54,0,0,0-4.93-1,2.63,2.63,0,0,0-1.42.88c-.48.64-.45,1.54-.92,2.19-.83,1.13-2.59.89-4,.59-1.84-.4-4-.62-5.44.56-.39.32-.71.72-1.12,1-1.12.8-2.64.65-4,.59-.91,0-11.53.88-11.33,1.76s2.86.57,3.46.59c.89,0,1.77.18,2.67.16a7.2,7.2,0,0,1,2.7.06c.56.21.94.66,1.56.82a7,7,0,0,0,4.24-.54c1.56-.61,3.21-1.6,4.94-1.62a7.49,7.49,0,0,1,2.36.72A8.24,8.24,0,0,0,64.7,55c.89-.28,2.27-1,3.27-.8.56.11,1.19.64,1.77.81a11.89,11.89,0,0,0,2.36.47c2.86.25,5.57-1.45,8.21-2.25,3.38-1,5.32-.38,8,1.5a8.24,8.24,0,0,0,7.78.8,21.57,21.57,0,0,1,2.26-1,9,9,0,0,1,6,.13,14.52,14.52,0,0,0,3.49,1.51c4.08.72,7.7-4.2,11.73-3.22a11.56,11.56,0,0,1,2.31,1,34.37,34.37,0,0,0,7,2.34,3.91,3.91,0,0,0,1.35.19,3.86,3.86,0,0,0,1.72-.7A18,18,0,0,1,135,54a4.37,4.37,0,0,1,3.51,0,8.33,8.33,0,0,0,1.7.94c1.62.4,2.92-1.48,4.57-1.77s3.1,1,4.74.76,3.32-1.17,5.11-1.35c4-.4,8.15.45,12.11-.68a20.89,20.89,0,0,1,4.55-1.13c2.88-.14,5.75,1.58,8.53.84a.85.85,0,0,0,.31-.13c.29-.24.13-.77-.21-1a2,2,0,0,0-1.13-.11,9.44,9.44,0,0,1-3.5-.38,34.69,34.69,0,0,0-3.52-1.19c-3.74-.72-7.73,2.1-11.26.66a25.69,25.69,0,0,0-2.8-1.35c-2-.56-4.15.67-6.2.3a7.3,7.3,0,0,1-4-2.84A13.22,13.22,0,0,0,144,42.2c-1.48-.79-3.59-.72-4.54.65a13.58,13.58,0,0,0-1.61-3.75A4.52,4.52,0,0,0,134.44,37a3.19,3.19,0,0,1-1.75-.24,2.54,2.54,0,0,1-.73-1.71,7.77,7.77,0,0,0-3.74-5.17,14.39,14.39,0,0,0-4.15-1.57,3.27,3.27,0,0,0-2.85.72A18.25,18.25,0,0,0,120,30.83,3.52,3.52,0,0,1,119.33,31.46Z" style="fill:#f0f0f0"></path><path id="freepik--cloud--inject-15" d="M216.47,60.89l-.3.16c-1.63.75-3.52.12-5.3.14A7.31,7.31,0,0,0,206.16,63c-.77.68-1.38,1.52-2.12,2.23a8.93,8.93,0,0,1-7.25,2.36,19.12,19.12,0,0,0-2.49-.35c-2.1,0-3.93,1.36-5.94,2-4.41,1.35-9.21-1.08-13.75-.24-2.54.47-4.82,1.93-7.38,2.26-1.58.21-3.21,0-4.76.34,0,.92,3.36,1.15,4.1,1.19a13,13,0,0,0,5.06-.74,29,29,0,0,1,3.07-1.13c2.58-.6,5.18.37,7.46,1.52a16,16,0,0,0,3,.82c1.33.38,2.59,1,3.93,1.44a12.62,12.62,0,0,0,7.78.19c1.51-.54,2.86-1.48,4.41-1.88,2.6-.68,5.35.29,7.72,1.55,1.47.78,3,1.71,4.66,1.49,2.3-.29,3.75-2.67,5.86-3.63,2.8-1.27,6.25-.2,8.89.89a30.85,30.85,0,0,0,4.65,1.62,10,10,0,0,0,4.88,0,29.12,29.12,0,0,1,3.57-1.16c1.46-.21,2.95.26,4.42.06a11.51,11.51,0,0,0,1.51-.38,10.89,10.89,0,0,1,3.79-.59.4.4,0,0,0,.32-.07.34.34,0,0,0,.08-.29.94.94,0,0,0-.62-.65,2.83,2.83,0,0,0-.92-.1q-2.88.06-5.75.31a14.63,14.63,0,0,1-5.07-.69c-1.21-.34-2.34-.85-3.56-1.08a4.84,4.84,0,0,1-2.65-2.07c-1-1.29-2.07-2.94-3.86-3.06a2.37,2.37,0,0,1-1-.15c-.46-.24-.6-.82-.74-1.33A9.53,9.53,0,0,0,223,58.5a3.63,3.63,0,0,0-4.37.49A14.56,14.56,0,0,1,216.47,60.89Z" style="fill:#f0f0f0"></path></g><g id="freepik--Sun--inject-15"><circle id="freepik--sun--inject-15" cx="383.16" cy="57.47" r="18.24" transform="translate(7.17 151) rotate(-22.5)" style="fill:#ffbda7"></circle></g><g id="freepik--Buildings--inject-15"><g id="freepik--buildings--inject-15"><polygon points="465.28 403.57 465.28 148.75 453.1 141.72 428.73 155.79 428.73 226.14 412.48 216.76 412.48 198 400.29 190.97 400.29 162.82 375.92 148.75 355.61 160.48 355.61 226.14 339.36 216.76 339.36 179.24 327.17 172.2 327.17 134.68 298.74 118.26 274.37 132.33 274.37 207.38 254.06 219.11 254.06 172.2 233.75 160.48 217.5 169.86 217.5 193.31 201.25 202.69 201.25 146.41 185 137.03 168.75 146.41 168.75 108.88 152.5 99.5 115.95 120.61 115.95 153.44 103.76 160.48 103.76 179.24 91.58 186.27 91.58 162.82 67.2 148.75 34.72 167.51 34.72 403.57 465.28 403.57" style="fill:#FF725E"></polygon><polygon points="465.28 403.57 465.28 148.75 453.1 141.72 428.73 155.79 428.73 226.14 412.48 216.76 412.48 198 400.29 190.97 400.29 162.82 375.92 148.75 355.61 160.48 355.61 226.14 339.36 216.76 339.36 179.24 327.17 172.2 327.17 134.68 298.74 118.26 274.37 132.33 274.37 207.38 254.06 219.11 254.06 172.2 233.75 160.48 217.5 169.86 217.5 193.31 201.25 202.69 201.25 146.41 185 137.03 168.75 146.41 168.75 108.88 152.5 99.5 115.95 120.61 115.95 153.44 103.76 160.48 103.76 179.24 91.58 186.27 91.58 162.82 67.2 148.75 34.72 167.51 34.72 403.57 465.28 403.57" style="fill:#fff;opacity:0.85"></polygon><path d="M187.82,207.37l3.45,2v-3l-3.45-2Zm0,44.39,3.45,2v-3l-3.45-2Zm0,5.93,3.45,2v-3l-3.45-2Zm0,5.55,3.45,2v-3l-3.45-2Zm0,5.55,3.45,2v-3l-3.45-2Zm0-33.68,3.45,2v-3l-3.45-2Zm0-16.65,3.45,2v-3l-3.45-2Zm0-5.55,3.45,2v-3l-3.45-2Zm0,11.1,3.45,2v-3l-3.45-2Zm0,16.65,3.45,2v-3l-3.45-2Zm0-11.1,3.45,2v-3l-3.45-2Zm0,44.78,3.45,2v-3l-3.45-2Zm0-28.13,3.45,2v-3l-3.45-2Zm0,73.7,3.45,2v-3l-3.45-2Zm0-5.93,3.45,2v-3l-3.45-2Zm0,12.28,3.45,2v-3l-3.45-2Zm0,11.09,3.45,2v-3l-3.45-2Zm0-5.54,3.45,2v-3l-3.45-2Zm0-40.82,3.45,2v-3l-3.45-2Zm0-11.1,3.45,2v-3l-3.45-2Zm0,5.55,3.45,2v-3l-3.45-2Zm0,16.65,3.45,2v-3l-3.45-2Zm0,5.55,3.45,2v-3l-3.45-2Zm0-11.1,3.45,2v-3l-3.45-2Zm7.16,56,3.45,2v-3l-3.45-2Zm0,27.74,3.45,2v-3l-3.45-2Zm0-5.54,3.45,2v-3l-3.45-2Zm0,11.09,3.45,2v-3l-3.45-2Zm0,11.49,3.45,2v-3l-3.45-2Zm0-5.55,3.45,2v-3l-3.45-2Zm0-22.58,3.45,2v-3l-3.45-2Zm0-27.75,3.45,2v-3l-3.45-2Zm0,5.55,3.45,2v-3L195,344Zm0,11.1,3.45,2v-3l-3.45-2Zm-7.16-156.32,3.45,2v-3l-3.45-2ZM195,363.69l3.45,2v-3l-3.45-2Zm-7.16-20.79,3.45,2v-3l-3.45-2Zm0-158.12,3.45,2v-3l-3.45-2Zm0-5.55,3.45,2v-3l-3.45-2Zm0-5.54,3.45,2v-3l-3.45-2Zm0,22.19,3.45,2v-3l-3.45-2Zm0-5.55,3.45,2v-3l-3.45-2Zm0-44.39,3.45,2v-3l-3.45-2Zm0,5.55,3.45,2v-3l-3.45-2ZM195,402.92l1.13.65h2.32V401.9l-3.45-2ZM187.82,157l3.45,2v-3l-3.45-2Zm0,11.1,3.45,2v-3l-3.45-2Zm0-5.55,3.45,2v-3l-3.45-2Zm-25.35,6.24,3.45,2v-3l-3.45-2Zm0,55.88,3.45,2v-3l-3.45-2Zm0,101.18,3.45,2v-3l-3.45-2Zm25.35,22.56,3.45,2v-3l-3.45-2ZM162.47,241.36l3.45,2v-3l-3.45-2Zm0,5.55,3.45,2v-3l-3.45-2Zm0,11.1,3.45,2v-3l-3.45-2Zm0-5.55,3.45,2v-3l-3.45-2Zm0-33.68,3.45,2v-3l-3.45-2Zm0-22.2,3.45,2v-3l-3.45-2Zm0,5.55,3.45,2v-3l-3.45-2Zm0-11.1,3.45,2v-3l-3.45-2Zm0,16.65,3.45,2v-3l-3.45-2Zm0,5.55,3.45,2v-3l-3.45-2Zm0,95.62,3.45,2v-3l-3.45-2Zm0-11.1,3.45,2v-3l-3.45-2Zm0,5.55,3.45,2v-3l-3.45-2Zm0,11.49,3.45,2v-3l-3.45-2Zm0,5.55,3.45,2v-3l-3.45-2Zm0-28.14,3.45,2v-3l-3.45-2Zm0-23.1,3.45,2v-3l-3.45-2Zm0,5.55,3.45,2v-3l-3.45-2Zm0,6.35,3.45,2v-3l-3.45-2Zm0-17.44,3.45,2v-3l-3.45-2Zm0,23,3.45,2v-3l-3.45-2Zm0-56.29,3.45,2v-3l-3.45-2Zm25.35,163,3.45,2v-3l-3.45-2Zm0-5.55,3.45,2v-3l-3.45-2Zm-25.35-202.2,3.45,2v-3l-3.45-2Zm25.35,218.09h3.45v-.26l-3.45-2Zm0-21.82,3.45,2v-3l-3.45-2ZM162.47,113l3.45,2v-3l-3.45-2Zm0,5.55,3.45,2v-3l-3.45-2ZM187.82,354l3.45,2v-3l-3.45-2Zm0,5.55,3.45,2v-3l-3.45-2Zm0,16.65,3.45,2v-3l-3.45-2Zm0-5.55,3.45,2v-3l-3.45-2Zm0-5.55,3.45,2v-3l-3.45-2Zm0,33.68,3.45,2v-3l-3.45-2ZM162.47,157.35l3.45,2v-3l-3.45-2ZM195,335.94l3.45,2v-3l-3.45-2Zm-32.51-173,3.45,2v-3l-3.45-2Zm0,11.48,3.45,2v-3l-3.45-2Zm0,5.55,3.45,2v-3l-3.45-2Zm0-39.23,3.45,2v-3l-3.45-2Zm0-11.1,3.45,2v-3l-3.45-2Zm0,5.55,3.45,2v-3l-3.45-2Zm0,16.65,3.45,2v-3l-3.45-2Zm0-5.55,3.45,2v-3l-3.45-2Zm0-22.19,3.45,2v-3l-3.45-2Zm0,111.75,3.45,2v-3l-3.45-2Zm137.77-10.54,3.45,2v-3l-3.45-2Zm0-50.33,3.45,2v-3l-3.45-2Zm0,39.23,3.45,2v-3l-3.45-2Zm0,5.55,3.45,2v-3l-3.45-2Zm0,17,3.45,2v-3l-3.45-2Zm0-5.93,3.45,2v-3l-3.45-2Zm0,78.52,3.45,2v-3l-3.45-2Zm0-67,3.45,2v-3l-3.45-2Zm0-39.23,3.45,2v-3l-3.45-2Zm0-16.65,3.45,2v-3l-3.45-2Zm0,5.55,3.45,2v-3l-3.45-2Zm0,5.55,3.45,2v-3l-3.45-2Zm0,11.1,3.45,2v-3l-3.45-2Zm0,72.53,3.45,2v-3l-3.45-2Zm0,5.54,3.45,2v-3l-3.45-2Zm0,6,3.45,2v-3l-3.45-2Zm0,5.55,3.45,2v-3l-3.45-2Zm0,5.55,3.45,2v-3l-3.45-2Zm0-33.74,3.45,2v-3l-3.45-2Zm0-16.65,3.45,2v-3l-3.45-2Zm0,5.55,3.45,2v-3l-3.45-2ZM195,330.39l3.45,2v-3l-3.45-2ZM300.24,275.6l3.45,2v-3l-3.45-2Zm0-27.75,3.45,2v-3l-3.45-2Zm0-67,3.45,2v-3l-3.45-2ZM307.39,369l3.45,2v-3l-3.45-2Zm-7.15-199.57,3.45,2v-3l-3.45-2Zm7.15,188.47,3.45,2v-3l-3.45-2Zm0-5.55,3.45,2v-3l-3.45-2Zm0,28.14,3.45,2v-3l-3.45-2Zm0-5.94,3.45,2v-3l-3.45-2Zm0,11.48,3.45,2v-3l-3.45-2Zm0-61.42,3.45,2v-3l-3.45-2Zm0,5.55,3.45,2v-3l-3.45-2Zm0,16.65,3.45,2v-3l-3.45-2Zm0-5.55,3.45,2v-3l-3.45-2Zm0-5.55,3.45,2v-3l-3.45-2Zm0,27.74,3.45,2v-3l-3.45-2Zm-7.15-221.76,3.45,2v-3l-3.45-2Zm0,5.54,3.45,2v-3l-3.45-2Zm0,5.55,3.45,2v-3l-3.45-2Zm7.15,238.8,3.45,2v-3l-3.45-2Zm-7.15-227.7,3.45,2v-3l-3.45-2Zm0-5.55,3.45,2v-3l-3.45-2Zm7.15,244.35,1.61.93h1.84v-1.95l-3.45-2Zm0-5.55,3.45,2v-3l-3.45-2Zm-7.15-261,3.45,2v-3l-3.45-2Zm0-11.1,3.45,2v-3l-3.45-2Zm0,5.55,3.45,2v-3l-3.45-2Zm0,134,3.45,2v-3l-3.45-2ZM195,244.8l3.45,2v-3l-3.45-2Zm0-16.65,3.45,2v-3l-3.45-2Zm0,5.55,3.45,2v-3l-3.45-2Zm0,5.55,3.45,2v-3l-3.45-2Zm0,22.58,3.45,2v-3l-3.45-2Zm0-11.48,3.45,2v-3l-3.45-2Zm0,5.54,3.45,2v-3l-3.45-2ZM195,200l3.45,2v-3L195,197Zm0,5.93,3.45,2v-3l-3.45-2Zm0,11.1,3.45,2v-3L195,214Zm0-5.55,3.45,2v-3l-3.45-2Zm0,11.1,3.45,2v-3l-3.45-2Zm0-28.13,3.45,2v-3l-3.45-2Zm0,106.2,3.45,2v-3l-3.45-2Zm0,5.55,3.45,2v-3l-3.45-2Zm0,5.55,3.45,2v-3l-3.45-2Zm0,12.28,3.45,2v-3L195,321Zm0-5.94,3.45,2v-3l-3.45-2Zm0-45.18,3.45,2v-3l-3.45-2Zm0,22.19,3.45,2v-3l-3.45-2Zm0-16.64,3.45,2v-3l-3.45-2Zm0-11.1,3.45,2v-3l-3.45-2ZM195,284l3.45,2v-3L195,281Zm0,5.54,3.45,2v-3l-3.45-2Zm0-139.49,3.45,2v-3l-3.45-2Zm105.26,209.2,3.45,2v-3l-3.45-2Zm0-5.55,3.45,2v-3l-3.45-2Zm0-5.55,3.45,2v-3l-3.45-2Zm0,16.65,3.45,2v-3l-3.45-2Zm0,11.48,3.45,2v-3l-3.45-2Zm0-5.93,3.45,2v-3l-3.45-2Zm0-49.95,3.45,2v-3l-3.45-2Zm0,61.43,3.45,2v-3l-3.45-2Zm0-39.23,3.45,2v-3l-3.45-2ZM195,188.92l3.45,2v-3l-3.45-2ZM300.24,331.53l3.45,2v-3l-3.45-2Zm0,5.55,3.45,2v-3l-3.45-2Zm0-11.1,3.45,2v-3l-3.45-2ZM195,166.72l3.45,2v-3l-3.45-2Zm0,5.55,3.45,2v-3l-3.45-2Zm0-11.1,3.45,2v-3l-3.45-2Zm0,22.2,3.45,2v-3l-3.45-2Zm0-5.55,3.45,2v-3l-3.45-2ZM300.24,398.51l3.45,2v-3l-3.45-2Zm0-11.1,3.45,2v-3l-3.45-2Zm0,5.55,3.45,2v-3l-3.45-2Zm0,10.61h3.45V403l-3.45-2ZM195,155.62l3.45,2v-3l-3.45-2ZM300.24,314.88l3.45,2v-3l-3.45-2ZM70.73,225.44l3.45,2v-3l-3.45-2ZM77.88,291l3.45,2v-3l-3.45-2Zm0-5.55,3.45,2v-3l-3.45-2Zm0,94.54,3.45,2v-3l-3.45-2Zm0-66.8,3.45,2v-3l-3.45-2Zm0-5.55,3.45,2v-3l-3.45-2Zm0-5.55,3.45,2v-3l-3.45-2Zm0-5.55,3.45,2v-3l-3.45-2Zm0-39.22,3.45,2v-3l-3.45-2Zm0,17,3.45,2v-3l-3.45-2Zm0-22.58,3.45,2v-3l-3.45-2Zm0,16.64,3.45,2v-3l-3.45-2Zm0-5.55,3.45,2v-3l-3.45-2Zm0,100.49,3.45,2v-3l-3.45-2Zm0-117.13,3.45,2v-3l-3.45-2Zm0,111.58,3.45,2v-3l-3.45-2Zm0,11.1,3.45,2v-3l-3.45-2Zm0-16.65,3.45,2v-3l-3.45-2Zm0,22.2,3.45,2v-3l-3.45-2Zm0-38.87,3.45,2v-3l-3.45-2Zm0,11.12,3.45,2v-3l-3.45-2Zm0-22.41,3.45,2v-3l-3.45-2Zm0,5.74,3.45,2v-3l-3.45-2Zm0-11.29,3.45,2v-3l-3.45-2Zm0,22.41,3.45,2v-3l-3.45-2Zm0-61.25,3.45,2v-3l-3.45-2ZM85,395.24l3.45,2v-3l-3.45-2Zm0,5.93,3.45,2v-3l-3.45-2Zm0-11.48,3.45,2v-3l-3.45-2ZM77.88,168.15l3.45,2v-3l-3.45-2Zm0-5.55,3.45,2v-3l-3.45-2ZM85,384.14l3.45,2v-3l-3.45-2ZM77.88,173.7l3.45,2v-3l-3.45-2ZM85,356.39l3.45,2v-3l-3.45-2Zm0,5.55,3.45,2v-3l-3.45-2Zm0,5.55,3.45,2v-3l-3.45-2ZM85,373l3.45,2v-3L85,370Zm0,5.55,3.45,2v-3l-3.45-2Zm-7.15-166,3.45,2v-3l-3.45-2Zm0,11.48,3.45,2v-3l-3.45-2Zm0-44.78,3.45,2v-3l-3.45-2Zm0,50.33,3.45,2v-3l-3.45-2Zm0,11.1,3.45,2v-3l-3.45-2Zm0-5.55,3.45,2v-3l-3.45-2Zm0-16.65,3.45,2v-3l-3.45-2Zm0-11.48,3.45,2v-3l-3.45-2Zm0-16.65,3.45,2v-3l-3.45-2Zm0-5.55,3.45,2v-3l-3.45-2Zm0,16.65,3.45,2v-3l-3.45-2Zm0-5.55,3.45,2v-3l-3.45-2Zm0,189.65,3.45,2v-3l-3.45-2Zm-7.15-65.39,3.45,2v-3l-3.45-2Zm0-5.54,3.45,2v-3l-3.45-2Zm0,11.28,3.45,2v-3l-3.45-2Zm0,11.12,3.45,2v-3l-3.45-2Zm0-5.57,3.45,2v-3l-3.45-2Zm0-22.38,3.45,2v-3l-3.45-2Zm0-22.2,3.45,2v-3l-3.45-2Zm0-11.1,3.45,2v-3l-3.45-2Zm0,66.8,3.45,2v-3l-3.45-2ZM85,350.85l3.45,2v-3l-3.45-2Zm-14.3-47.33,3.45,2v-3l-3.45-2Zm0-11.1,3.45,2v-3l-3.45-2Zm0-11.1,3.45,2v-3l-3.45-2Zm91.74,50.12,3.45,2v-3l-3.45-2ZM70.73,392.9l3.45,2v-3l-3.45-2Zm0-5.93,3.45,2v-3l-3.45-2Zm0,11.48,3.45,2v-3l-3.45-2Zm0,5.12h3.45V403l-3.45-2Zm0-49.9,3.45,2v-3l-3.45-2Zm0,5.55,3.45,2v-3l-3.45-2Zm0,16.65,3.45,2v-3l-3.45-2Zm0-27.75,3.45,2v-3l-3.45-2Zm0,22.2,3.45,2v-3l-3.45-2Zm0-5.55,3.45,2v-3l-3.45-2Zm0-66.8,3.45,2v-3l-3.45-2Zm0-111.76,3.45,2v-3l-3.45-2Zm0-5.54,3.45,2v-3l-3.45-2Zm0-5.55,3.45,2v-3l-3.45-2Zm0,22.19,3.45,2v-3l-3.45-2Zm0-5.55,3.45,2v-3l-3.45-2Zm0,78.46,3.45,2v-3l-3.45-2ZM77.88,397l3.45,2v-3l-3.45-2Zm0-5.94,3.45,2v-3l-3.45-2ZM70.73,202.86l3.45,2v-3l-3.45-2Zm7.15,199.73,1.71,1h1.74v-2l-3.45-2ZM70.73,164l3.45,2v-3l-3.45-2Zm0-5.55,3.45,2v-3l-3.45-2Zm0,11.1,3.45,2v-3l-3.45-2Zm0,72.52,3.45,2v-3l-3.45-2Zm0,11.1,3.45,2v-3l-3.45-2Zm0-5.55,3.45,2v-3l-3.45-2Zm0,11.1,3.45,2v-3l-3.45-2Zm0,5.55,3.45,2v-3l-3.45-2Zm0-44.4,3.45,2v-3l-3.45-2Zm0-5.54,3.45,2v-3l-3.45-2Zm0,22.19,3.45,2v-3l-3.45-2Zm0-28.13,3.45,2v-3l-3.45-2Zm0,22.58,3.45,2v-3l-3.45-2Zm236.66,88,3.45,2v-3l-3.45-2ZM70.73,381.42l3.45,2v-3l-3.45-2Zm84.58-166.78,3.45,2v-3l-3.45-2Zm0-11.1,3.45,2v-3l-3.45-2Zm0,5.55,3.45,2v-3l-3.45-2Zm0-38.84,3.45,2v-3l-3.45-2Zm0,55.87,3.45,2v-3l-3.45-2Zm0,5.55,3.45,2v-3l-3.45-2Zm0-33.68,3.45,2v-3l-3.45-2Zm0-16.64,3.45,2v-3l-3.45-2Zm0-5.55,3.45,2v-3l-3.45-2Zm0,16.64,3.45,2v-3l-3.45-2Zm0,44.78,3.45,2v-3l-3.45-2Zm0-50.32,3.45,2v-3l-3.45-2Zm0,33.68,3.45,2v-3l-3.45-2Zm0,61.83,3.45,2v-3l-3.45-2Zm0-39.64,3.45,2v-3l-3.45-2Zm0,45.3,3.45,2v-3l-3.45-2Zm0,11.09,3.45,2v-3l-3.45-2ZM85,345.3l3.45,2v-3l-3.45-2Zm70.28-68.44,3.45,2v-3l-3.45-2Zm0-28.54,3.45,2v-3l-3.45-2Zm0,22.2,3.45,2v-3l-3.45-2Zm0-16.65,3.45,2v-3l-3.45-2Zm0,5.55,3.45,2v-3l-3.45-2Zm0,5.55,3.45,2v-3l-3.45-2Zm0-145,3.45,2v-3l-3.45-2Zm0,44.78,3.45,2v-3l-3.45-2Zm7.16,211.13,3.45,2v-3l-3.45-2Zm0-5.54,3.45,2v-3l-3.45-2Zm0,16.64,3.45,2v-3l-3.45-2Zm0,5.94,3.45,2v-3l-3.45-2Zm0-28.13,3.45,2v-3l-3.45-2Zm0-11.1,3.45,2v-3l-3.45-2Zm0-16.65,3.45,2v-3l-3.45-2Zm0,5.55,3.45,2v-3l-3.45-2Zm0,5.55,3.45,2v-3l-3.45-2Zm0,11.1,3.45,2v-3l-3.45-2Zm0,39.23,3.45,2v-3l-3.45-2Zm0-17,3.45,2v-3l-3.45-2Zm-7.16-233.71,3.45,2v-3l-3.45-2Zm0-5.55,3.45,2v-3l-3.45-2Zm0,11.1,3.45,2v-3l-3.45-2Zm0-16.65,3.45,2v-3l-3.45-2Zm0,22.19,3.45,2v-3l-3.45-2Zm0,146,3.45,2v-3l-3.45-2Zm0-190.34,3.45,2v-3l-3.45-2Zm0-5.55,3.45,2v-3l-3.45-2Zm7.16,294.75h3.45V403l-3.45-2ZM155.31,131l3.45,2v-3l-3.45-2Zm0-5.55,3.45,2v-3l-3.45-2Zm0,168.15,3.45,2v-3l-3.45-2ZM85,261.46l3.45,2v-3l-3.45-2Zm0-5.55,3.45,2v-3l-3.45-2Zm0-5.55,3.45,2v-3l-3.45-2Zm0-5.55,3.45,2v-3l-3.45-2Zm0,27.75,3.45,2v-3l-3.45-2ZM85,267l3.45,2v-3L85,264Zm0-33.3,3.45,2v-3l-3.45-2Zm0-11.09,3.45,2v-3l-3.45-2Zm0-5.94,3.45,2v-3l-3.45-2Zm0,22.58,3.45,2v-3l-3.45-2Zm0-11.09,3.45,2v-3l-3.45-2Zm0,50.32,3.45,2v-3l-3.45-2Zm0,38.85,3.45,2v-3l-3.45-2Zm0,5.55,3.45,2v-3l-3.45-2Zm0,5.55,3.45,2v-3l-3.45-2Zm0,5.74,3.45,2v-3l-3.45-2Zm0-123,3.45,2v-3l-3.45-2Zm0,128.59,3.45,2v-3l-3.45-2Zm0-44.58,3.45,2v-3l-3.45-2ZM85,284l3.45,2v-3L85,281Zm0,5.55,3.45,2v-3l-3.45-2Zm0,11.1,3.45,2v-3l-3.45-2Zm0,11.1,3.45,2v-3l-3.45-2Zm70.28-1.13,3.45,2v-3l-3.45-2ZM85,306.24l3.45,2v-3l-3.45-2Zm70.28,54.36,3.45,2v-3l-3.45-2Zm0-5.55,3.45,2v-3l-3.45-2Zm0-5.55,3.45,2v-3l-3.45-2Zm0,22.2,3.45,2v-3l-3.45-2Zm0-5.55,3.45,2v-3l-3.45-2ZM85,205.58l3.45,2v-3l-3.45-2Zm70.28,121.73,3.45,2v-3l-3.45-2Zm0-11.1,3.45,2v-3l-3.45-2Zm0,5.55,3.45,2v-3l-3.45-2Zm0,11.09,3.45,2v-3l-3.45-2Zm0,5.55,3.45,2v-3l-3.45-2Zm0,38.85,3.45,2v-3l-3.45-2Zm0-33.3,3.45,2v-3l-3.45-2Zm0,38.85,3.45,2v-3l-3.45-2ZM85,183.39l3.45,2v-3l-3.45-2Zm0-5.55,3.45,2v-3l-3.45-2Zm0,16.65,3.45,2v-3l-3.45-2ZM85,200l3.45,2v-3L85,197Zm0-11.09,3.45,2v-3l-3.45-2Zm70.28,199.79,3.45,2v-3l-3.45-2ZM85,172.29l3.45,2v-3l-3.45-2Zm70.28,222,3.45,2v-3l-3.45-2ZM85,166.74l3.45,2v-3l-3.45-2Zm70.28,233.09,3.45,2v-3l-3.45-2ZM321.7,254.71l3.45,2v-3l-3.45-2ZM431.63,390.3l3.45-2v-3l-3.45,2Zm0-49.95,3.45-2v-3l-3.45,2Zm0,38.85,3.45-2v-3l-3.45,2Zm0-5.55,3.45-2v-3l-3.45,2Zm0,28.13,3.45-2v-3l-3.45,2Zm0-5.55,3.45-2v-3l-3.45,2Zm0-39.23,3.45-2v-3l-3.45,2Zm0-11.1,3.45-2v-3l-3.45,2Zm0,5.55,3.45-2v-3l-3.45,2Zm0,11.1,3.45-2v-3l-3.45,2Zm0,5.55,3.45-2v-3l-3.45,2ZM394,167.07l3.45,2v-3l-3.45-2Zm37.61,217.68,3.45-2v-3l-3.45,2ZM394,172.62l3.45,2v-3l-3.45-2Zm0,38.84,3.45,2v-3l-3.45-2Zm0,11.48,3.45,2v-3l-3.45-2Zm0-17,3.45,2v-3l-3.45-2Zm0,22.58,3.45,2v-3l-3.45-2ZM394,217l3.45,2v-3L394,214Zm0-38.84,3.45,2v-3l-3.45-2Zm0,5.55,3.45,2v-3l-3.45-2Zm0,5.54,3.45,2v-3l-3.45-2Zm0,11.1,3.45,2v-3l-3.45-2Zm0-5.55,3.45,2v-3l-3.45-2Zm37.61,22.63,3.45-2v-3l-3.45,2Zm0,27.75,3.45-2v-3l-3.45,2Zm0-5.55,3.45-2v-3l-3.45,2Zm0,11.1,3.45-2v-3l-3.45,2Zm0-50.33,3.45-2v-3l-3.45,2Zm0,55.88,3.45-2v-3l-3.45,2Zm0,5.55,3.45-2v-3l-3.45,2Zm0-33.3,3.45-2v-3l-3.45,2Zm0,106.26,3.45-2v-3l-3.45,2Zm0-128.84,3.45-2v-3l-3.45,2Zm0,5.55,3.45-2v-3l-3.45,2Zm0,11.48,3.45-2v-3l-3.45,2ZM394,234l3.45,2v-3L394,231Zm37.61,33.35,3.45-2v-3l-3.45,2Zm0,44.77,3.45-2v-3l-3.45,2Zm0,5.55,3.45-2v-3l-3.45,2Zm0,5.55,3.45-2v-3l-3.45,2Zm0-16.65,3.45-2v-3l-3.45,2Zm0,22.65,3.45-2v-3l-3.45,2Zm0-50.39,3.45-2v-3l-3.45,2Zm0,22.2,3.45-2v-3l-3.45,2Zm0-27.75,3.45-2v-3l-3.45,2Zm0,11.1,3.45-2v-3l-3.45,2Zm0,11.1,3.45-2v-3l-3.45,2Zm0-5.55,3.45-2v-3l-3.45,2Zm0-55.88,3.45-2v-3l-3.45,2Zm-44.76-49,3.44,2v-3l-3.44-2Zm0-5.55,3.44,2v-3l-3.44-2Zm0-5.55,3.44,2v-3l-3.44-2Zm0,22.2,3.44,2v-3l-3.44-2Zm0-5.55,3.44,2v-3l-3.44-2Zm0-22.2,3.44,2v-3l-3.44-2ZM394,384.64l3.45,2v-3l-3.45-2Zm0,5.55,3.45,2v-3l-3.45-2Zm-7.15-188.41,3.44,2v-3l-3.44-2Zm0-38.85,3.44,2v-3l-3.44-2ZM394,401.29l3.45,2v-3l-3.45-2Zm0-5.55,3.45,2v-3l-3.45-2Zm0-16.65,3.45,2v-3l-3.45-2Zm-7.15-132.54,3.44,2v-3l-3.44-2Zm7.15-7,3.45,2v-3l-3.45-2Zm-7.15,12.51,3.44,2v-3l-3.44-2Zm0,11.1,3.44,2v-3l-3.44-2Zm0-5.55,3.44,2v-3l-3.44-2Zm0-44.78,3.44,2v-3l-3.44-2Zm0,5.94,3.44,2v-3l-3.44-2Zm0-11.48,3.44,2v-3l-3.44-2Zm0,28.13,3.44,2v-3l-3.44-2Zm0-5.55,3.44,2v-3l-3.44-2Zm0-5.55,3.44,2v-3l-3.44-2Zm0,16.65,3.44,2v-3l-3.44-2ZM394,272.89l3.45,2v-3l-3.45-2Zm0,11.48,3.45,2v-3l-3.45-2Zm0-5.55,3.45,2v-3l-3.45-2Zm0,11.1,3.45,2v-3l-3.45-2Zm0,16.65,3.45,2v-3l-3.45-2Zm0-5.55,3.45,2v-3L394,298Zm0-5.55,3.45,2v-3l-3.45-2Zm0-44.78,3.45,2v-3l-3.45-2Zm0-5.55,3.45,2v-3l-3.45-2Zm0,22.2,3.45,2v-3l-3.45-2Zm0-5.55,3.45,2v-3l-3.45-2Zm0-5.55,3.45,2v-3l-3.45-2Zm0,111.37,3.45,2v-3l-3.45-2ZM394,351l3.45,2v-3L394,348Zm0,5.55,3.45,2v-3l-3.45-2Zm0-11.1,3.45,2v-3l-3.45-2Zm0-33.29,3.45,2v-3l-3.45-2Zm0,49.94,3.45,2v-3l-3.45-2Zm0,11.1,3.45,2v-3l-3.45-2Zm0-55.49,3.45,2v-3l-3.45-2Zm0,22.19,3.45,2v-3l-3.45-2Zm0-16.65,3.45,2v-3l-3.45-2Zm0,5.55,3.45,2v-3l-3.45-2Zm0,5.55,3.45,2v-3l-3.45-2Zm51.92-41.52,3.45-2v-3l-3.45,2Zm0,44.84,3.45-2v-3l-3.45,2Zm0-5.55,3.45-2v-3l-3.45,2Zm0-5.55,3.45-2v-3l-3.45,2Zm0-5.55,3.45-2v-3l-3.45,2Zm0,27.75,3.45-2v-3l-3.45,2Zm0,5.55,3.45-2v-3l-3.45,2Zm0-11.1,3.45-2v-3l-3.45,2Zm-59.07-74.43,3.44,2v-3l-3.44-2ZM445.94,315l3.45-2v-3l-3.45,2Zm0-16.65,3.45-2v-3l-3.45,2Zm0,5.55,3.45-2v-3l-3.45,2Zm0,5.55,3.45-2v-3l-3.45,2Zm0,55.94,3.45-2v-3l-3.45,2Zm0-5.55,3.45-2v-3l-3.45,2Zm0,39.23,3.45-2v-3l-3.45,2Zm0,4.51h1.79l1.66-.95v-3l-3.45,2Zm-7.15-246.14,3.45-2v-3l-3.45,2Zm0,5.55,3.45-2v-3l-3.45,2Zm7.15,230.53,3.45-2v-3l-3.45,2Zm0-106.26,3.45-2v-3l-3.45,2Zm0,83.68,3.45-2v-3l-3.45,2Zm-7.15-202.4,3.45-2v-3l-3.45,2ZM445.94,382l3.45-2v-3l-3.45,2Zm0-5.55,3.45-2v-3l-3.45,2Zm0,11.48,3.45-2v-3l-3.45,2Zm0-190.27,3.45-2v-3l-3.45,2Zm0-5.55,3.45-2v-3l-3.45,2Zm0-5.55,3.45-2v-3l-3.45,2Zm0,28.13,3.45-2v-3l-3.45,2Zm0-5.55,3.45-2v-3l-3.45,2Zm0-5.93,3.45-2v-3l-3.45,2Zm0-22.2,3.45-2v-3l-3.45,2Zm0-22.2,3.45-2v-3l-3.45,2Zm0,16.65,3.45-2v-3l-3.45,2Zm0,106.21,3.45-2v-3l-3.45,2Zm0-111.76,3.45-2v-3l-3.45,2Zm0-5.55,3.45-2v-3l-3.45,2Zm0-14.1v3l3.45-2v-3Zm0,114.76,3.45-2v-3l-3.45,2Zm0-11.48,3.45-2v-3l-3.45,2Zm0,5.54,3.45-2v-3l-3.45,2ZM307.39,313.47l3.45,2v-3l-3.45-2ZM445.94,270.6l3.45-2v-3l-3.45,2Zm0-28.13,3.45-2v-3l-3.45,2Zm0-16.65,3.45-2v-3l-3.45,2Zm0,5.55,3.45-2v-3l-3.45,2Zm0,16.65,3.45-2v-3l-3.45,2Zm0-11.1,3.45-2v-3l-3.45,2Zm0-16.65,3.45-2v-3l-3.45,2Zm-7.15,104.85,3.45-2v-3l-3.45,2Zm0,33.29,3.45-2v-3l-3.45,2Zm0-16.64,3.45-2v-3l-3.45,2Zm0,5.55,3.45-2v-3l-3.45,2Zm0,27.74,3.45-2v-3l-3.45,2Zm0-11.1,3.45-2v-3l-3.45,2Zm0-189.88,3.45-2v-3l-3.45,2Zm0,178.79,3.45-2v-3l-3.45,2Zm0-39.29,3.45-2v-3l-3.45,2Zm0,5.55,3.45-2v-3l-3.45,2Zm-7.16-124.27,3.45-2v-3l-3.45,2Zm7.16,135.81,3.45-2v-3l-3.45,2Zm0,5.55,3.45-2v-3l-3.45,2Zm0,44.39,3.45-2v-3l-3.45,2Zm-7.16-207.95,3.45-2v-3l-3.45,2Zm0,5.55,3.45-2v-3l-3.45,2Zm0,5.55,3.45-2v-3l-3.45,2Zm0,5.55,3.45-2v-3l-3.45,2Zm0-22.19,3.45-2v-3l-3.45,2Zm7.16,219,3.45-2v-3l-3.45,2Zm-7.16-224.59,3.45-2v-3l-3.45,2ZM438.79,308l3.45-2v-3l-3.45,2Zm0,84.07,3.45-2v-3l-3.45,2Zm0,11.09,3.45-2v-3l-3.45,2Zm0-5.55,3.45-2v-3l-3.45,2Zm0-28.13,3.45-2v-3l-3.45,2Zm0-150.65,3.45-2v-3l-3.45,2Zm0-5.55,3.45-2v-3l-3.45,2Zm0,16.64,3.45-2v-3l-3.45,2Zm0-5.54,3.45-2v-3l-3.45,2Zm0-17,3.45-2v-3l-3.45,2Zm0-27.74,3.45-2v-3l-3.45,2Zm0,55.87,3.45-2v-3l-3.45,2Zm0-50.32,3.45-2v-3l-3.45,2Zm0,16.64,3.45-2v-3l-3.45,2Zm0-5.55,3.45-2v-3l-3.45,2Zm0-5.54,3.45-2v-3l-3.45,2Zm0,106.2,3.45-2v-3l-3.45,2Zm0-16.65,3.45-2v-3l-3.45,2Zm0-5.55,3.45-2v-3l-3.45,2Zm0,11.1,3.45-2v-3l-3.45,2Zm0,5.55,3.45-2v-3l-3.45,2Zm0,11.1,3.45-2v-3l-3.45,2Zm0-44.78,3.45-2v-3l-3.45,2Zm0-11.1,3.45-2v-3l-3.45,2Zm0,22.58,3.45-2v-3l-3.45,2Zm0-17,3.45-2v-3l-3.45,2Zm0,11.1,3.45-2v-3l-3.45,2Zm0-22.2,3.45-2v-3l-3.45,2Zm7.15,35.1,3.45-2v-3l-3.45,2ZM314.55,228l3.45,2v-3l-3.45-2Zm0-5.55,3.45,2v-3l-3.45-2Zm0-11.1,3.45,2v-3l-3.45-2Zm0,100.72,3.45,2v-3l-3.45-2Zm0-134.4,3.45,2v-3l-3.45-2Zm0,55.88,3.45,2v-3l-3.45-2Zm0-44.39,3.45,2v-3l-3.45-2Zm0,55.87,3.45,2v-3l-3.45-2Zm0-61.81,3.45,2v-3l-3.45-2Zm0,17,3.45,2v-3l-3.45-2Zm0,5.55,3.45,2v-3l-3.45-2Zm0-11.09,3.45,2v-3l-3.45-2Zm0,44.39,3.45,2v-3l-3.45-2Zm0,55.88,3.45,2v-3l-3.45-2Zm0-5.55,3.45,2v-3l-3.45-2Zm0-5.55,3.45,2v-3l-3.45-2Zm0,22.64,3.45,2v-3l-3.45-2Zm0-5.55,3.45,2v-3l-3.45-2Zm0-28.19,3.45,2v-3l-3.45-2Zm7.15,37.87,3.45,2v-3l-3.45-2Zm-7.15-54.52,3.45,2v-3l-3.45-2Zm0,5.55,3.45,2v-3l-3.45-2Zm0,5.55,3.45,2v-3l-3.45-2Zm0-16.65,3.45,2v-3l-3.45-2Zm0-33.68,3.45,2v-3l-3.45-2Zm7.15,143.7,3.45,2v-3l-3.45-2Zm0-5.55,3.45,2v-3l-3.45-2Zm0,22.19,3.45,2v-3l-3.45-2Zm0-5.55,3.45,2v-3l-3.45-2Zm0-27.74,3.45,2v-3l-3.45-2Zm0,22.2,3.45,2v-3l-3.45-2Zm0-16.65,3.45,2v-3l-3.45-2Zm0-11.1,3.45,2v-3l-3.45-2Zm0-22.2,3.45,2v-3l-3.45-2Zm0,5.55,3.45,2v-3l-3.45-2Zm0,5.55,3.45,2v-3l-3.45-2Zm0,5.55,3.45,2v-3l-3.45-2Zm-7.15-188.47,3.45,2v-3l-3.45-2Zm0,5.55,3.45,2v-3l-3.45-2Zm0,5.55,3.45,2v-3l-3.45-2Zm0,11.09,3.45,2v-3l-3.45-2Zm0-5.54,3.45,2v-3l-3.45-2Zm0,11.09,3.45,2v-3l-3.45-2Zm0-38.84,3.45,2v-3l-3.45-2Zm7.15,261,3.45,2v-3l-3.45-2Zm-7.15-255.45,3.45,2v-3l-3.45-2Zm7.15,249.9,3.45,2v-3l-3.45-2Zm0-5.94,3.45,2v-3l-3.45-2Zm0,17,3.45,2v-3l-3.45-2Zm-7.15-121.5,3.45,2v-3l-3.45-2Zm-7.16-54.47,3.45,2v-3l-3.45-2Zm7.16,93.76,3.45,2v-3l-3.45-2Zm-7.16-88.21,3.45,2v-3l-3.45-2Zm0-16.64,3.45,2v-3l-3.45-2Zm0,28.13,3.45,2v-3l-3.45-2Zm0-5.94,3.45,2v-3l-3.45-2Zm0-44.39,3.45,2v-3l-3.45-2Zm0,55.88,3.45,2v-3l-3.45-2Zm0-39.23,3.45,2v-3l-3.45-2Zm0-28.13,3.45,2v-3l-3.45-2Zm0,22.58,3.45,2v-3l-3.45-2Zm0-5.55,3.45,2v-3l-3.45-2Zm0-11.1,3.45,2v-3l-3.45-2Zm0,105.82,3.45,2v-3l-3.45-2Zm0,6,3.45,2v-3l-3.45-2Zm0-11.54,3.45,2v-3l-3.45-2Zm0,22.64,3.45,2v-3l-3.45-2Zm0-55.93,3.45,2v-3l-3.45-2Zm0,50.38,3.45,2v-3l-3.45-2Zm0-22.64,3.45,2v-3l-3.45-2Zm0-16.65,3.45,2v-3l-3.45-2Zm0-5.55,3.45,2v-3l-3.45-2Zm0,11.1,3.45,2v-3l-3.45-2Zm0,5.55,3.45,2v-3l-3.45-2Zm0-55.87,3.45,2v-3l-3.45-2ZM314.55,362l3.45,2v-3l-3.45-2Zm0,5.55,3.45,2v-3l-3.45-2Zm0-11.1,3.45,2v-3l-3.45-2Zm0,28.13,3.45,2v-3l-3.45-2Zm0-11.48,3.45,2v-3l-3.45-2Zm0-22.2,3.45,2v-3l-3.45-2Zm-7.16-177.37,3.45,2v-3l-3.45-2Zm7.16,171.82,3.45,2v-3l-3.45-2Zm0-16.65,3.45,2v-3l-3.45-2Zm0-5.54,3.45,2v-3l-3.45-2Zm0,11.09,3.45,2v-3l-3.45-2Zm0,5.55,3.45,2v-3l-3.45-2Zm0,38.85,3.45,2v-3l-3.45-2Zm-7.16-221.77,3.45,2v-3l-3.45-2Zm0-5.55,3.45,2v-3l-3.45-2Zm0,16.65,3.45,2v-3l-3.45-2Zm79.48,106.71,3.44,2v-3l-3.44-2ZM307.39,162.43l3.45,2v-3l-3.45-2Zm7.16,233.25,3.45,2v-3l-3.45-2Zm0,5.55,3.45,2v-3l-3.45-2Zm0-11.1,3.45,2v-3l-3.45-2Zm-7.16-255.45,3.45,2v-3l-3.45-2Zm0,5.55,3.45,2v-3l-3.45-2Zm0-11.1,3.45,2v-3l-3.45-2Zm0,16.65,3.45,2v-3l-3.45-2Zm72.32,63,3.45,2v-3l-3.45-2Zm0-11.1,3.45,2v-3l-3.45-2Zm0,5.55,3.45,2v-3l-3.45-2Zm0,11.48,3.45,2v-3l-3.45-2Zm0,16.65,3.45,2v-3l-3.45-2Zm0-5.55,3.45,2v-3l-3.45-2Zm0-5.55,3.45,2v-3l-3.45-2Zm0-44.78,3.45,2v-3l-3.45-2Zm0-5.55,3.45,2v-3l-3.45-2Zm0,22.2,3.45,2v-3l-3.45-2Zm0-5.55,3.45,2v-3l-3.45-2Zm0-5.55,3.45,2v-3l-3.45-2Zm0,83.63,3.45,2v-3l-3.45-2Zm0,11.48,3.45,2v-3l-3.45-2Zm0-5.55,3.45,2v-3l-3.45-2Zm0,27.75,3.45,2v-3l-3.45-2Zm0-11.1,3.45,2v-3l-3.45-2Zm0,5.55,3.45,2v-3l-3.45-2Zm0-39.23,3.45,2v-3l-3.45-2Zm0-11.1,3.45,2v-3l-3.45-2Zm0,5.55,3.45,2v-3l-3.45-2Zm0,11.1,3.45,2v-3l-3.45-2Zm0-94.72,3.45,2v-3l-3.45-2Zm0,72.52,3.45,2v-3l-3.45-2Zm0,44.78,3.45,2v-3l-3.45-2Zm7.16,37.43,3.44,2v-3l-3.44-2Zm0,5.55,3.44,2v-3l-3.44-2Zm0-11.1,3.44,2v-3l-3.44-2Zm0,22.2,3.44,2v-3l-3.44-2Zm0-27.75,3.44,2v-3l-3.44-2Zm0,22.2,3.44,2v-3l-3.44-2Zm0-49.95,3.44,2v-3l-3.44-2Zm0,5.55,3.44,2v-3l-3.44-2Zm0,55.5,3.44,2v-3l-3.44-2Zm0-49.95,3.44,2v-3l-3.44-2Zm0,5.55,3.44,2v-3l-3.44-2Zm0,5.55,3.44,2v-3l-3.44-2Zm0,72.53,3.44,2v-3l-3.44-2Zm0,16.64,3.44,2v-3l-3.44-2Zm0-5.55,3.44,2v-3l-3.44-2Zm0-5.55,3.44,2v-3l-3.44-2Zm0,16.65,3.44,2v-3l-3.44-2Zm0,5.55,1.5.87h1.94v-1.89l-3.44-2Zm0-33.68,3.44,2v-3l-3.44-2Zm0-16.65,3.44,2v-3l-3.44-2Zm0,5.55,3.44,2v-3l-3.44-2Zm0-11.1,3.44,2v-3l-3.44-2Zm-7.16-188,3.45,2v-3l-3.45-2Zm7.16,204.67,3.44,2v-3l-3.44-2ZM321.7,176.25l3.45,2v-3l-3.45-2Zm0,33.68,3.45,2v-3l-3.45-2Zm0-5.55,3.45,2v-3l-3.45-2Zm0,11.1,3.45,2v-3l-3.45-2Zm58,88.37,3.45,2v-3l-3.45-2Zm-58-77.27,3.45,2v-3l-3.45-2Zm0-27.75,3.45,2v-3l-3.45-2Zm0-11.48,3.45,2v-3l-3.45-2Zm0-16.65,3.45,2v-3l-3.45-2Zm0-5.55,3.45,2v-3l-3.45-2Zm0,28.13,3.45,2v-3l-3.45-2Zm0,38.85,3.45,2v-3l-3.45-2Zm0-50.33,3.45,2v-3l-3.45-2Zm0,123.29,3.45,2v-3l-3.45-2Zm0-17.09,3.45,2v-3l-3.45-2Zm0-50.33,3.45,2v-3l-3.45-2Zm0,39.23,3.45,2v-3l-3.45-2Zm0,16.65,3.45,2v-3l-3.45-2Zm0,5.55,3.45,2v-3l-3.45-2Zm0-16.65,3.45,2v-3l-3.45-2Zm0-33.29,3.45,2v-3l-3.45-2Zm0-5.94,3.45,2v-3l-3.45-2Zm0,22.59,3.45,2v-3l-3.45-2Zm0-5.55,3.45,2v-3l-3.45-2Zm0,11.1,3.45,2v-3l-3.45-2Zm0-50.33,3.45,2v-3l-3.45-2Zm58,127.21,3.45,2v-3l-3.45-2Zm0-5.55,3.45,2v-3l-3.45-2Zm0-5.55,3.45,2v-3l-3.45-2Zm0,22.2,3.45,2v-3l-3.45-2Zm0,5.55,3.45,2v-3l-3.45-2Zm0-11.1,3.45,2v-3l-3.45-2Zm0-38.85,3.45,2v-3l-3.45-2Zm0-5.55,3.45,2v-3l-3.45-2Zm0,16.65,3.45,2v-3l-3.45-2Zm0,5.55,3.45,2v-3l-3.45-2Zm0-11.1,3.45,2v-3l-3.45-2Zm0,72.53,3.45,2v-3l-3.45-2ZM321.7,143l3.45,2v-3l-3.45-2Zm0-5.55,3.45,2v-3l-3.45-2Zm58,266.17h3.45v-.47l-3.45-2Zm-58-255.07,3.45,2v-3l-3.45-2Zm0,5.55,3.45,2v-3l-3.45-2Zm58,244.52,3.45,2v-3l-3.45-2Zm0-16.65,3.45,2v-3l-3.45-2Zm0-5.55,3.45,2v-3l-3.45-2Zm-58-216.77,3.45,2v-3l-3.45-2Zm58,211.22,3.45,2v-3l-3.45-2Zm0,16.65,3.45,2v-3l-3.45-2Z" style="fill:#fff;opacity:0.6000000000000001"></path><path d="M129.52,187.44l3.45-2v-3l-3.45,2Zm0,5.55,3.45-2v-3l-3.45,2Zm0,5.55,3.45-2v-3l-3.45,2Zm0-16.65,3.45-2v-3l-3.45,2Zm0,22.2,3.45-2v-3l-3.45,2Zm0-33.68,3.45-2v-3l-3.45,2Zm0-16.65,3.45-2v-3l-3.45,2Zm0-5.55,3.45-2v-3l-3.45,2Zm0,28.13,3.45-2v-3l-3.45,2Zm0,100.27,3.45-2v-3l-3.45,2Zm0-117.3,3.45-2v-3l-3.45,2Zm0,89.56,3.45-2v-3l-3.45,2Zm0,5.55,3.45-2v-3l-3.45,2Zm0,5.54,3.45-2v-3l-3.45,2Zm0-117.3,3.45-2v-3l-3.45,2Zm0,128.4,3.45-2v-3l-3.45,2Zm0-55.87,3.45-2v-3l-3.45,2Zm0,50.32,3.45-2v-3l-3.45,2Zm0-44.77,3.45-2v-3l-3.45,2Zm0,22.58,3.45-2v-3l-3.45,2Zm0-17,3.45-2v-3l-3.45,2Zm0,5.94,3.45-2v-3l-3.45,2Zm0,5.55,3.45-2v-3l-3.45,2Zm0-72.91,3.45-2v-3l-3.45,2Zm7.15,169.73,3.45-2v-3l-3.45,2Zm0,22.42,3.45-2v-3l-3.45,2Zm0-28,3.45-2v-3l-3.45,2Zm0-5.54,3.45-2v-3l-3.45,2Zm0,22.47,3.45-2v-3l-3.45,2Zm0,5.55,3.45-2v-3l-3.45,2Zm0-11.1,3.45-2v-3l-3.45,2Zm0-39.69,3.45-2v-3l-3.45,2Zm0-5.55,3.45-2v-3l-3.45,2Zm0,11.1,3.45-2v-3l-3.45,2Zm0,5.55,3.45-2v-3l-3.45,2Zm0,6.12,3.45-2v-3l-3.45,2Zm0,66.87,3.45-2v-3l-3.45,2Zm-7.15-264.29,3.45-2v-3l-3.45,2Zm7.15,281.32,3.45-2v-3l-3.45,2Zm0-5.55,3.45-2v-3l-3.45,2Zm-7.15-264.68,3.45-2v-3l-3.45,2Zm7.15,231,3.45-2v-3l-3.45,2Zm0-73,3.45-2v-3l-3.45,2Zm0,84.09,3.45-2v-3l-3.45,2Zm0-5.55,3.45-2v-3l-3.45,2Zm-7.15-231,3.45-2v-3l-3.45,2Zm7.15,253.2,3.45-2v-3l-3.45,2Zm0-11.1,3.45-2v-3l-3.45,2ZM129.52,126l3.45-2v-3l-3.45,2Zm-7.15,76.66,3.45-2v-3l-3.45,2Zm0-28.13,3.45-2v-3l-3.45,2Zm0,11.49,3.45-2v-3l-3.45,2Zm0,5.55,3.45-2v-3l-3.45,2Zm0-22.59,3.45-2v-3l-3.45,2Zm0,28.14,3.45-2v-3l-3.45,2Zm0-16.65,3.45-2v-3l-3.45,2Zm0-44.78,3.45-2v-3l-3.45,2Zm0,5.55,3.45-2v-3l-3.45,2Zm7.15,140.91,3.45-2v-3l-3.45,2Zm-7.15-12.51,3.45-2v-3l-3.45,2Zm0-117.3,3.45-2v-3l-3.45,2Zm0-5.55,3.45-2v-3l-3.45,2Zm0,100.65,3.45-2v-3l-3.45,2Zm0-39.23,3.45-2v-3l-3.45,2Zm0,55.88,3.45-2v-3l-3.45,2Zm0-22.2,3.45-2v-3l-3.45,2Zm0,16.65,3.45-2v-3l-3.45,2Zm0-5.55,3.45-2v-3l-3.45,2Zm0-33.68,3.45-2v-3l-3.45,2Zm0-5.55,3.45-2v-3l-3.45,2Zm0,11.1,3.45-2v-3l-3.45,2Zm0,5.55,3.45-2v-3l-3.45,2Zm0,5.93,3.45-2v-3l-3.45,2Zm0-78.45,3.45-2v-3l-3.45,2Zm7.15,169.67,3.45-2v-3l-3.45,2Zm0,5.55,3.45-2v-3l-3.45,2Zm-7.15-203,3.45-2v-3l-3.45,2Zm7.15,214.35,3.45-2v-3l-3.45,2Zm0,5.55,3.45-2v-3l-3.45,2Zm0-34.15,3.45-2v-3l-3.45,2Zm0,22.83,3.45-2v-3l-3.45,2Zm0-50.58,3.45-2v-3l-3.45,2Zm0,5.55,3.45-2v-3l-3.45,2Zm0,11.1,3.45-2v-3l-3.45,2Zm0-5.55,3.45-2v-3l-3.45,2Zm0,11.1,3.45-2v-3l-3.45,2Zm0,11.67,3.45-2v-3l-3.45,2Zm0,33.58,3.45-2v-3l-3.45,2Zm0,44.78,3.45-2v-3l-3.45,2Zm0,3.19H133v-2.65l-3.45,2Zm0-14.68,3.45-2v-3l-3.45,2ZM122.37,124.6l3.45-2v-3l-3.45,2Zm7.15,269.84,3.45-2v-3l-3.45,2Zm0-33.29,3.45-2v-3l-3.45,2Zm0,5.54,3.45-2v-3l-3.45,2Zm0,16.65,3.45-2v-3l-3.45,2Zm0-11.1,3.45-2v-3l-3.45,2Zm0,5.55,3.45-2v-3l-3.45,2Zm-7.15-214.35,3.45-2v-3l-3.45,2Zm21.46,32.38,3.45-2v-3l-3.45,2Zm0,5.55,3.45-2v-3l-3.45,2ZM136.67,284l3.45-2v-3l-3.45,2Zm7.16-77.1,3.45-2v-3l-3.45,2Zm0,11.09,3.45-2v-3l-3.45,2Zm0,5.94,3.45-2v-3l-3.45,2Zm0-11.49,3.45-2v-3l-3.45,2Zm0-38.84,3.45-2v-3l-3.45,2Zm0-5.55,3.45-2v-3l-3.45,2Zm0,22.2,3.45-2v-3l-3.45,2Zm0-11.1,3.45-2v-3l-3.45,2Zm0,5.55,3.45-2v-3l-3.45,2Zm0-22.58,3.45-2v-3l-3.45,2Zm0,117.74,3.45-2v-3l-3.45,2Zm0-6,3.45-2v-3l-3.45,2Zm0-5.55,3.45-2v-3l-3.45,2Zm0,22.64,3.45-2v-3l-3.45,2Zm0-5.55,3.45-2v-3l-3.45,2Zm0-33.74,3.45-2v-3l-3.45,2Zm0-5.55,3.45-2v-3l-3.45,2Zm0,16.65,3.45-2v-3l-3.45,2Zm0-22.19,3.45-2v-3l-3.45,2Zm0,16.64,3.45-2v-3l-3.45,2Zm0-22.19,3.45-2v-3l-3.45,2Zm0-111.76,3.45-2v-3l-3.45,2Zm77,246.66,3.45-2v-3l-3.45,2Zm0-5.55,3.45-2v-3l-3.45,2Zm0-5.55,3.45-2v-3l-3.45,2Zm0-5.54,3.45-2v-3l-3.45,2Zm0,22.58,3.45-2v-3l-3.45,2Zm0,5.55,3.45-2v-3l-3.45,2Zm0-33.68,3.45-2v-3l-3.45,2Zm0-22.2,3.45-2v-3l-3.45,2Zm0,5.55,3.45-2v-3l-3.45,2Zm0,5.55,3.45-2v-3l-3.45,2Zm0,5.55,3.45-2v-3l-3.45,2Zm0,44.78,3.45-2v-3l-3.45,2Zm-77-269.25,3.45-2v-3l-3.45,2Zm0,22.2,3.45-2v-3l-3.45,2Zm0-5.55,3.45-2v-3l-3.45,2Zm0-5.55,3.45-2v-3l-3.45,2Zm0,22.2,3.45-2v-3l-3.45,2Zm0-5.55,3.45-2v-3l-3.45,2Zm0-33.3,3.45-2v-3l-3.45,2Zm0,184.34,3.45-2v-3l-3.45,2Zm77,101.55,3.45-2v-3l-3.45,2Zm0,5.49h.1l3.35-1.93v-3l-3.45,2Zm-77-247,3.45-2v-3l-3.45,2Zm77,235.94,3.45-2v-3l-3.45,2Zm-77-163,3.45-2v-3l-3.45,2Zm0,72.58,3.45-2v-3l-3.45,2Zm-7.16-113.23,3.45-2v-3l-3.45,2Zm0,11.1,3.45-2v-3l-3.45,2Zm0-16.64,3.45-2v-3l-3.45,2Zm0,22.19,3.45-2v-3l-3.45,2Zm0,11.1,3.45-2v-3l-3.45,2Zm0-5.55,3.45-2v-3l-3.45,2Zm0-50.33,3.45-2v-3l-3.45,2Zm0-5.55,3.45-2v-3l-3.45,2Zm0-5.55,3.45-2v-3l-3.45,2Zm0,16.65,3.45-2v-3l-3.45,2Zm0,11.49,3.45-2v-3l-3.45,2Zm0-5.55,3.45-2v-3l-3.45,2Zm0,94.72,3.45-2v-3l-3.45,2Zm0-5.55,3.45-2v-3l-3.45,2Zm0-5.55,3.45-2v-3l-3.45,2Zm0,22.2,3.45-2v-3l-3.45,2Zm0-5.55,3.45-2v-3l-3.45,2Zm0-38.85,3.45-2v-3l-3.45,2Zm0-5.55,3.45-2v-3l-3.45,2Zm0-5.93,3.45-2v-3l-3.45,2Zm0,22.58,3.45-2v-3l-3.45,2Zm0-5.55,3.45-2v-3l-3.45,2Zm0,11.1,3.45-2v-3l-3.45,2Zm0-55.88,3.45-2v-3l-3.45,2Zm7.16,158.47,3.45-2v-3l-3.45,2Zm0-5.54,3.45-2v-3l-3.45,2Zm0-5.55,3.45-2v-3l-3.45,2Zm0-5.55,3.45-2v-3l-3.45,2Zm0,27.74,3.45-2v-3l-3.45,2Zm0-5.55,3.45-2v-3l-3.45,2Zm0-39.12,3.45-2v-3l-3.45,2Zm0,11.15,3.45-2v-3l-3.45,2Zm0-16.7,3.45-2v-3l-3.45,2Zm0-6.12,3.45-2v-3l-3.45,2Zm0,61.89,3.45-2v-3l-3.45,2Zm0-44.67,3.45-2v-3l-3.45,2Zm-7.16-203,3.45-2v-3l-3.45,2Zm0,22.2,3.45-2v-3l-3.45,2Zm0-27.75,3.45-2v-3l-3.45,2Zm0,11.1,3.45-2v-3l-3.45,2Zm0,11.1,3.45-2v-3l-3.45,2Zm0-5.55,3.45-2v-3l-3.45,2Zm7.16,247.64,3.45-2v-3l-3.45,2Zm0-5.55,3.45-2v-3l-3.45,2Zm0,11.1,3.45-2v-3l-3.45,2Zm0,17,3.45-2v-3l-3.45,2Zm0-5.55,3.45-2v-3l-3.45,2Zm0-5.55,3.45-2v-3l-3.45,2ZM45.92,342.29l3.45-2v-3l-3.45,2Zm7.15-9.69,3.45-2v-3l-3.45,2ZM45.92,269l3.45-2v-3l-3.45,2Zm0,11.49,3.45-2v-3l-3.45,2Zm0-17,3.45-2v-3l-3.45,2Zm0,33.68,3.45-2v-3l-3.45,2Zm0-5.55,3.45-2v-3l-3.45,2Zm0-5.55,3.45-2v-3l-3.45,2Zm0-50.32,3.45-2v-3l-3.45,2Zm0,5.55,3.45-2v-3l-3.45,2Zm0,5.54,3.45-2v-3l-3.45,2Zm0,11.1,3.45-2v-3l-3.45,2Zm0-5.55,3.45-2v-3l-3.45,2Zm0,67,3.45-2v-3l-3.45,2Zm0,28,3.45-2v-3l-3.45,2Zm0-10.55,3.45-2v-3l-3.45,2ZM220.81,320l3.45-2v-3l-3.45,2ZM45.92,352.84l3.45-2v-3l-3.45,2Zm0,5.55,3.45-2v-3l-3.45,2Zm0-55.71,3.45-2v-3l-3.45,2Zm0,5.55,3.45-2v-3l-3.45,2Zm0,5.55,3.45-2v-3l-3.45,2Zm0,11.1,3.45-2v-3l-3.45,2Zm0-94.72,3.45-2v-3l-3.45,2Zm0,100.27,3.45-2v-3l-3.45,2Zm7.15,18.27,3.45-2v-3l-3.45,2Zm0,27.75,3.45-2v-3l-3.45,2Zm0-11.1,3.45-2v-3l-3.45,2Zm0,5.55,3.45-2v-3l-3.45,2Zm0,11.1,3.45-2v-3l-3.45,2Zm0,17,3.45-2v-3l-3.45,2Zm0-11.48,3.45-2v-3l-3.45,2Zm0,5.54,3.45-2v-3l-3.45,2ZM45.92,224.61l3.45-2v-3l-3.45,2Zm7.15,113.54,3.45-2v-3l-3.45,2Zm0,16.1,3.45-2v-3l-3.45,2Zm0,5.55,3.45-2v-3l-3.45,2Zm-7.15,4.14,3.45-2v-3l-3.45,2Zm7.15-20.79,3.45-2v-3l-3.45,2ZM45.92,202l3.45-2v-3l-3.45,2Zm0,5.55,3.45-2v-3l-3.45,2Zm0,11.09,3.45-2v-3l-3.45,2Zm7.15,184.9h1.75l1.7-1v-3l-3.45,2ZM45.92,196.48l3.45-2v-3l-3.45,2Zm0,16.64,3.45-2v-3l-3.45,2Zm0-22.19,3.45-2v-3l-3.45,2Zm0-22.2,3.45-2v-3l-3.45,2Zm0,5.55,3.45-2v-3l-3.45,2Zm0,11.1,3.45-2v-3l-3.45,2Zm0-5.55,3.45-2v-3l-3.45,2Zm0,94.72,3.45-2v-3l-3.45,2Zm-7.15,48.91,3.45-2v-3l-3.45,2Zm0-5.54,3.45-2v-3l-3.45,2Zm0-5.55,3.45-2v-3l-3.45,2Zm0,16.64,3.45-2v-3l-3.45,2Zm0,5.55,3.45-2v-3l-3.45,2Zm0-27.74,3.45-2v-3l-3.45,2Zm0-11.1,3.45-2v-3l-3.45,2Zm0,5.55,3.45-2v-3l-3.45,2Zm0-22.58,3.45-2v-3l-3.45,2Zm0,5.93,3.45-2v-3l-3.45,2Zm0,56.25,3.45-2v-3l-3.45,2Zm0-50.7,3.45-2v-3l-3.45,2Zm0,77.9,3.45-2v-3l-3.45,2Zm0,16.65,3.45-2v-3l-3.45,2Zm0-5.55,3.45-2v-3l-3.45,2Zm0,11.1,3.45-2v-3l-3.45,2Zm0,11.1,3.45-2v-3l-3.45,2Zm0-5.55,3.45-2v-3l-3.45,2Zm0-122.68,3.45-2v-3l-3.45,2Zm0,100.48,3.45-2v-3l-3.45,2Zm0-22.2,3.45-2v-3l-3.45,2Zm0,5.55,3.45-2v-3l-3.45,2Zm0,5.55,3.45-2v-3l-3.45,2Zm0-16.1,3.45-2v-3l-3.45,2Zm0-134.71,3.45-2v-3l-3.45,2Zm7.15,191.45,3.45-2v-3l-3.45,2ZM38.77,172.87l3.45-2v-3l-3.45,2Zm0,11.1,3.45-2v-3l-3.45,2Zm0-5.55,3.45-2v-3l-3.45,2Zm0,89.17,3.45-2v-3l-3.45,2Zm0-72.53,3.45-2v-3l-3.45,2Zm7.15,185.52,3.45-2v-3l-3.45,2Zm-7.15-180,3.45-2v-3l-3.45,2ZM45.92,375l3.45-2v-3l-3.45,2Zm0,22.2,3.45-2v-3l-3.45,2Zm0-5.55,3.45-2v-3l-3.45,2Zm0-5.55,3.45-2v-3l-3.45,2ZM38.77,189.51l3.45-2v-3l-3.45,2Zm0,61.43,3.45-2v-3l-3.45,2Zm0-5.55,3.45-2v-3l-3.45,2Zm0,16.65,3.45-2v-3l-3.45,2Zm0-55.88,3.45-2v-3l-3.45,2Zm0,50.33,3.45-2v-3l-3.45,2Zm0-16.65,3.45-2v-3l-3.45,2Zm7.15,129.64,3.45-2v-3l-3.45,2ZM38.77,217.26l3.45-2v-3l-3.45,2Zm0,5.55,3.45-2v-3l-3.45,2Zm0,11.48,3.45-2v-3l-3.45,2Zm83.6,40.91,3.45-2v-3l-3.45,2Zm-83.6-46.46,3.45-2v-3l-3.45,2ZM60.23,300l3.45-2v-3l-3.45,2Zm0-89.56,3.45-2v-3l-3.45,2Zm0-5.55,3.45-2v-3l-3.45,2Zm0,17,3.45-2v-3l-3.45,2Zm0-22.59,3.45-2v-3l-3.45,2Zm0,28.14,3.45-2v-3l-3.45,2Zm0-50.33,3.45-2v-3l-3.45,2Zm0-5.55,3.45-2v-3l-3.45,2Zm0,61.42,3.45-2v-3l-3.45,2Zm0-44.77,3.45-2v-3l-3.45,2Zm0-5.55,3.45-2v-3l-3.45,2Zm0,11.1,3.45-2v-3l-3.45,2Zm0,61.42,3.45-2v-3l-3.45,2Zm0,17,3.45-2v-3l-3.45,2Zm0,5.55,3.45-2v-3l-3.45,2Zm0,5.55,3.45-2v-3l-3.45,2Zm0,5.55,3.45-2v-3l-3.45,2Zm0,5.55,3.45-2v-3l-3.45,2Zm0-128.4,3.45-2v-3l-3.45,2Zm0,83.62,3.45-2v-3l-3.45,2Zm0-5.55,3.45-2v-3l-3.45,2Zm0,16.65,3.45-2v-3l-3.45,2Zm0,5.55,3.45-2v-3l-3.45,2Zm0-27.75,3.45-2v-3l-3.45,2Zm0-22.19,3.45-2v-3l-3.45,2ZM122.37,320l3.45-2v-3l-3.45,2Zm0-5.55,3.45-2v-3l-3.45,2Zm0,11.67,3.45-2v-3l-3.45,2Zm0-17.22,3.45-2v-3l-3.45,2Zm0,22.77,3.45-2v-3l-3.45,2Zm0,5.55,3.45-2v-3l-3.45,2Zm0-33.87,3.45-2v-3l-3.45,2Zm0-22.64,3.45-2v-3l-3.45,2Zm0,62.11,3.45-2v-3l-3.45,2Zm0-56.56,3.45-2v-3l-3.45,2Zm0,11.54,3.45-2v-3l-3.45,2Zm0-5.55,3.45-2v-3l-3.45,2Zm0,100.74,3.45-2v-3l-3.45,2ZM60.23,160.46l3.45-2v-3l-3.45,2Zm62.14,227,3.45-2v-3l-3.45,2Zm0-5.55,3.45-2v-3l-3.45,2Zm0-33.3,3.45-2v-3l-3.45,2Zm0,54.94H124l1.82-1.05v-3l-3.45,2Zm0-5,3.45-2v-3l-3.45,2Zm0-44.4,3.45-2v-3l-3.45,2Zm0,5.55,3.45-2v-3l-3.45,2Zm0,11.1,3.45-2v-3l-3.45,2Zm0,5.55,3.45-2v-3l-3.45,2Zm0-11.1,3.45-2v-3l-3.45,2ZM53.07,220.47l3.45-2v-3l-3.45,2Zm0,16.65,3.45-2v-3l-3.45,2Zm0,5.55,3.45-2v-3l-3.45,2Zm0-50.33,3.45-2v-3l-3.45,2Zm0,55.88,3.45-2v-3l-3.45,2Zm0,5.55,3.45-2v-3l-3.45,2Zm0-27.75,3.45-2v-3l-3.45,2Zm0,5.55,3.45-2v-3l-3.45,2Zm7.16,73.94,3.45-2v-3l-3.45,2ZM53.07,203.44l3.45-2v-3l-3.45,2Zm0,11.1,3.45-2v-3l-3.45,2Zm0,111.75,3.45-2v-3l-3.45,2Zm0-117.3,3.45-2v-3l-3.45,2Zm0,50.33,3.45-2v-3l-3.45,2Zm0,50.32,3.45-2v-3l-3.45,2Zm0-5.54,3.45-2v-3l-3.45,2Zm0-5.55,3.45-2v-3l-3.45,2Zm0,22.19,3.45-2v-3l-3.45,2Zm0-5.55,3.45-2v-3l-3.45,2Zm0-38.84,3.45-2v-3l-3.45,2Zm0,16.65,3.45-2v-3l-3.45,2Zm0-28.13,3.45-2v-3l-3.45,2Zm0,5.55,3.45-2v-3l-3.45,2Zm0,11.48,3.45-2v-3l-3.45,2Zm0,5.55,3.45-2v-3l-3.45,2Zm0-89.56,3.45-2v-3l-3.45,2Zm7.16,152.23,3.45-2v-3l-3.45,2Zm0-5.55,3.45-2v-3l-3.45,2Zm0,16.64,3.45-2v-3l-3.45,2Zm0-22.19,3.45-2v-3l-3.45,2Zm0,16.64,3.45-2v-3l-3.45,2Zm0,11.1,3.45-2v-3l-3.45,2Zm-7.16-180,3.45-2v-3l-3.45,2Zm7.16,124.27,3.45-2v-3l-3.45,2Zm0,11.1,3.45-2v-3l-3.45,2Zm0,6.31,3.45-2v-3l-3.45,2Zm0,5.55,3.45-2v-3l-3.45,2Zm0-17.41,3.45-2v-3l-3.45,2ZM53.07,170.15l3.45-2v-3l-3.45,2Zm0-5.55,3.45-2v-3l-3.45,2Zm0,11.09,3.45-2v-3l-3.45,2Zm7.16,227.88h3.45V401l-3.45,2ZM53.07,181.24l3.45-2v-3l-3.45,2Zm7.16,213.65,3.45-2v-3l-3.45,2Zm0-11.48,3.45-2v-3l-3.45,2Zm0-5.55,3.45-2v-3l-3.45,2Zm0,11.1,3.45-2v-3l-3.45,2Zm0-16.65,3.45-2v-3l-3.45,2Zm0,28.13,3.45-2v-3l-3.45,2Zm69.29-190.8,3.45-2v-3l-3.45,2ZM368.37,389.46l3.45-2v-3l-3.45,2Zm0-44.78,3.45-2v-3l-3.45,2Zm0,33.68,3.45-2v-3l-3.45,2Zm0,16.65,3.45-2v-3l-3.45,2Zm0,5.55,3.45-2v-3l-3.45,2Zm0,3h3.45v-2.46l-3.45,2Zm-7.15-238.65,3.45-2v-3l-3.45,2Zm7.15,207.89,3.45-2v-3l-3.45,2Zm0-17,3.45-2v-3l-3.45,2Zm0-5.55,3.45-2v-3l-3.45,2Zm0,16.65,3.45-2v-3l-3.45,2Zm0-5.55,3.45-2v-3l-3.45,2Zm0,22.58,3.45-2v-3l-3.45,2Zm-7.15-174.59,3.45-2v-3l-3.45,2Zm0,5.55,3.45-2v-3l-3.45,2Zm0-11.1,3.45-2v-3l-3.45,2Zm0,22.58,3.45-2v-3l-3.45,2Zm0-5.55,3.45-2v-3l-3.45,2Zm0-44.78,3.45-2v-3l-3.45,2Zm0,22.2,3.45-2v-3l-3.45,2Zm0-16.65,3.45-2v-3l-3.45,2Zm0-11.1,3.45-2v-3l-3.45,2Zm0,16.65,3.45-2v-3l-3.45,2Zm0,5.55,3.45-2v-3l-3.45,2Zm7.15,24,3.45-2v-3l-3.45,2Zm0,38.84,3.45-2v-3l-3.45,2Zm0-5.55,3.45-2v-3l-3.45,2Zm0-11.1,3.45-2v-3l-3.45,2Zm0,5.55,3.45-2v-3l-3.45,2Zm0,16.65,3.45-2v-3l-3.45,2Zm0,5.55,3.45-2v-3l-3.45,2Zm0-44.4,3.45-2v-3l-3.45,2Zm0,116.92,3.45-2v-3l-3.45,2Zm0-128.4,3.45-2v-3l-3.45,2Zm0,22.58,3.45-2v-3l-3.45,2Zm0-5.55,3.45-2v-3l-3.45,2Zm0,44.78,3.45-2v-3l-3.45,2Zm-7.15-40.64,3.45-2v-3l-3.45,2Zm7.15,85,3.45-2v-3l-3.45,2Zm0,5.54,3.45-2v-3l-3.45,2Zm0-11.09,3.45-2v-3l-3.45,2Zm0,22.19,3.45-2v-3l-3.45,2Zm0-5.55,3.45-2v-3l-3.45,2Zm0-38.84,3.45-2v-3l-3.45,2Zm0-11.1,3.45-2v-3l-3.45,2Zm0,27.75,3.45-2v-3l-3.45,2Zm0-22.2,3.45-2v-3l-3.45,2Zm0,11.1,3.45-2v-3l-3.45,2Zm0,5.55,3.45-2v-3l-3.45,2ZM292,228.07l3.45-2v-3l-3.45,2Zm0-83.62,3.45-2v-3l-3.45,2ZM361.22,377l3.45-2v-3l-3.45,2ZM292,133.35l3.45-2v-3l-3.45,2Zm0,22.2,3.45-2v-3l-3.45,2Zm0-5.55,3.45-2v-3L292,147Zm69.25,87.45,3.45-2v-3l-3.45,2ZM292,161.1l3.45-2v-3l-3.45,2Zm69.25,227,3.45-2v-3l-3.45,2Zm0-5.55,3.45-2v-3l-3.45,2Zm0,11.1,3.45-2v-3l-3.45,2Zm0,10h1.94l1.51-.87v-3l-3.45,2Zm0-4.43,3.45-2v-3l-3.45,2ZM292,138.9l3.45-2v-3l-3.45,2Zm0,67,3.45-2v-3l-3.45,2Zm0,5.54,3.45-2v-3l-3.45,2Zm0,5.55,3.45-2v-3L292,214Zm0,5.55,3.45-2v-3l-3.45,2Zm0-22.19,3.45-2v-3l-3.45,2Zm0-33.68,3.45-2v-3l-3.45,2Zm0,5.54,3.45-2v-3l-3.45,2Zm0,5.55,3.45-2v-3l-3.45,2Zm0,5.94,3.45-2v-3l-3.45,2Zm0,11.1,3.45-2v-3l-3.45,2Zm0-5.55,3.45-2v-3l-3.45,2Zm0-61.43,3.45-2v-3l-3.45,2Zm69.25,154.43,3.45-2v-3l-3.45,2Zm0,88.78,3.45-2v-3l-3.45,2Zm0-83.23,3.45-2v-3l-3.45,2Zm0,16.64,3.45-2v-3l-3.45,2Zm0-11.1,3.45-2v-3l-3.45,2Zm0,5.55,3.45-2v-3l-3.45,2Zm0-28.13,3.45-2v-3l-3.45,2Zm7.15-65.56,3.45-2v-3l-3.45,2Zm-7.15,43.37,3.45-2v-3l-3.45,2Zm0,11.09,3.45-2v-3l-3.45,2Zm0,5.55,3.45-2v-3l-3.45,2Zm0-11.09,3.45-2v-3l-3.45,2Zm0,22.58,3.45-2v-3l-3.45,2Zm0,66.59,3.45-2v-3l-3.45,2Zm0,11.1,3.45-2v-3l-3.45,2Zm0-5.55,3.45-2v-3l-3.45,2Zm0,16.64,3.45-2v-3l-3.45,2Zm0-5.55,3.45-2v-3l-3.45,2Zm0-44.39,3.45-2v-3l-3.45,2Zm0,5.55,3.45-2v-3l-3.45,2Zm0-11.1,3.45-2v-3l-3.45,2Zm0,22.2,3.45-2v-3l-3.45,2Zm0-5.55,3.45-2v-3l-3.45,2Zm0,11.1,3.45-2v-3l-3.45,2Zm0-94.72,3.45-2v-3l-3.45,2Zm99.56,90.3,3.45,2v-3l-3.45-2Zm0,5.55,3.45,2v-3l-3.45-2Zm0-11.1,3.45,2v-3l-3.45-2Zm0-5.55,3.45,2v-3l-3.45-2Zm0,22.2,3.45,2v-3l-3.45-2Zm0,5.54,3.45,2v-3l-3.45-2Zm0-33.73,3.45,2v-3l-3.45-2Zm0-16.65,3.45,2v-3l-3.45-2Zm0-5.55,3.45,2v-3l-3.45-2Zm0,61.48,3.45,2v-3l-3.45-2Zm0-50.38,3.45,2v-3l-3.45-2Zm0,5.55,3.45,2v-3l-3.45-2ZM453.63,167l3.45,2v-3l-3.45-2Zm0-16.65,3.45,2v-3l-3.45-2Zm7.15,249.9,3.45,2v-3l-3.45-2Zm0-5.55,3.45,2v-3l-3.45-2Zm-7.15-238.8,3.45,2v-3l-3.45-2Zm0,5.55,3.45,2v-3l-3.45-2Zm7.15,227.7,3.45,2v-3l-3.45-2Zm0-22.58,3.45,2v-3l-3.45-2Zm0,5.55,3.45,2v-3l-3.45-2Zm0,11.1,3.45,2v-3l-3.45-2Zm0-5.55,3.45,2v-3l-3.45-2Zm0-89.23,3.45,2v-3l-3.45-2Zm0,72.58,3.45,2v-3l-3.45-2Zm0-178.78,3.45,2v-3l-3.45-2Zm0,16.64,3.45,2v-3l-3.45-2Zm0-11.1,3.45,2v-3l-3.45-2Zm0,5.55,3.45,2v-3l-3.45-2Zm0,17,3.45,2v-3l-3.45-2Zm0-5.94,3.45,2v-3l-3.45-2Zm0-27.74,3.45,2v-3l-3.45-2Zm0-16.65,3.45,2v-3l-3.45-2Zm0,55.88,3.45,2v-3l-3.45-2Zm0-64.44v3l3.45,2v-3Zm0,14.11,3.45,2v-3l-3.45-2Zm0,5.55,3.45,2v-3l-3.45-2Zm0,89.17,3.45,2v-3l-3.45-2Zm0-5.55,3.45,2v-3l-3.45-2Zm0,28.13,3.45,2v-3l-3.45-2Zm0-16.65,3.45,2v-3l-3.45-2Zm0-44.78,3.45,2v-3l-3.45-2Zm0,50.33,3.45,2v-3l-3.45-2Zm0,5.55,3.45,2v-3l-3.45-2Zm0-44.78,3.45,2v-3l-3.45-2Zm0-5.55,3.45,2v-3l-3.45-2Zm0,16.65,3.45,2v-3l-3.45-2Zm0,5.55,3.45,2v-3l-3.45-2Zm0-11.1,3.45,2v-3l-3.45-2Zm-7.15,12.51,3.45,2v-3l-3.45-2Zm0,106.27,3.45,2v-3l-3.45-2Zm0,5.55,3.45,2v-3l-3.45-2Zm0-11.1,3.45,2v-3l-3.45-2Zm0,27.74,3.45,2v-3l-3.45-2Zm0-5.54,3.45,2v-3l-3.45-2Zm0-27.75,3.45,2v-3l-3.45-2Zm0,22.2,3.45,2v-3l-3.45-2Zm0-44.4,3.45,2v-3l-3.45-2Zm0-5.55,3.45,2v-3l-3.45-2Zm0,11.1,3.45,2v-3l-3.45-2Zm0,11.1,3.45,2v-3l-3.45-2Zm0-5.55,3.45,2v-3l-3.45-2ZM368.37,177.44l3.45-2v-3l-3.45,2ZM453.63,385l3.45,2v-3l-3.45-2ZM368.37,171.89l3.45-2v-3l-3.45,2Zm0,11.09,3.45-2v-3l-3.45,2Zm0,11.1,3.45-2v-3l-3.45,2Zm0-5.55,3.45-2v-3l-3.45,2Zm85.26,123.54,3.45,2v-3l-3.45-2Zm0,78.52,3.45,2v-3l-3.45-2Zm0,5.55,3.45,2v-3l-3.45-2ZM368.37,160.79l3.45-2v-3l-3.45,2Zm0,5.55,3.45-2v-3l-3.45,2Zm85.26,235.35,3.26,1.88h.19v-2.9l-3.45-2Zm0-106.27,3.45,2v-3l-3.45-2Zm0-78.07,3.45,2v-3l-3.45-2Zm0,5.55,3.45,2v-3l-3.45-2Zm0-11.1,3.45,2v-3l-3.45-2Zm0,16.65,3.45,2v-3l-3.45-2Zm0,5.55,3.45,2v-3l-3.45-2Zm0,5.55,3.45,2v-3l-3.45-2Zm0-33.3,3.45,2v-3l-3.45-2Zm0-22.58,3.45,2v-3l-3.45-2Zm0-5.55,3.45,2v-3l-3.45-2Zm0,22.2,3.45,2v-3l-3.45-2Zm0,106.2,3.45,2v-3l-3.45-2Zm0-111.75,3.45,2v-3l-3.45-2Zm0-5.55,3.45,2v-3l-3.45-2Zm0,100.65,3.45,2v-3l-3.45-2Zm0-5.55,3.45,2v-3l-3.45-2Zm0-5.54,3.45,2v-3l-3.45-2Zm0-106.21,3.45,2v-3l-3.45-2Zm0,128.4,3.45,2v-3l-3.45-2Zm0-33.29,3.45,2v-3l-3.45-2Zm0-11.49,3.45,2v-3l-3.45-2Zm-85.26-56.56,3.45-2v-3l-3.45,2Zm85.26,73.6,3.45,2v-3l-3.45-2Zm0-28.13,3.45,2v-3l-3.45-2ZM220.81,314.46l3.45-2v-3l-3.45,2Zm232.82-52.33,3.45,2v-3l-3.45-2ZM228,170.83l3.45-2v-3l-3.45,2Zm49.7,205.07,3.45-2v-3l-3.45,2ZM228,176.38l3.45-2v-3l-3.45,2Zm0,5.54,3.45-2v-3l-3.45,2Zm0,89.18,3.45-2v-3l-3.45,2Zm0-72.53,3.45-2v-3l-3.45,2Zm49.7,205h.8l2.65-1.53v-3l-3.45,2Zm0-22.12,3.45-2v-3l-3.45,2ZM228,204.12l3.45-2v-3l-3.45,2Zm49.7,183.26,3.45-2v-3l-3.45,2Zm0,5.55,3.45-2v-3l-3.45,2ZM292,233.62l3.45-2v-3l-3.45,2Zm-64-46.15,3.45-2v-3l-3.45,2Zm0,61.43,3.45-2v-3l-3.45,2Zm0,5.55,3.45-2v-3l-3.45,2Zm0,11.1,3.45-2v-3l-3.45,2Zm0-5.55,3.45-2v-3L228,257Zm0-16.65,3.45-2v-3l-3.45,2Zm0-16.65,3.45-2v-3l-3.45,2Zm0,11.1,3.45-2v-3l-3.45,2Zm0-22.58,3.45-2v-3l-3.45,2Zm0,5.55,3.45-2v-3l-3.45,2Zm0-11.1,3.45-2v-3l-3.45,2Zm0,22.58,3.45-2v-3l-3.45,2ZM228,193l3.45-2v-3L228,190Zm49.7,88.1,3.45-2v-3l-3.45,2Zm0,89.23,3.45-2v-3l-3.45,2Zm0-94.78,3.45-2v-3l-3.45,2Zm0,22.2,3.45-2v-3l-3.45,2Zm0-27.75,3.45-2v-3l-3.45,2Zm0,22.2,3.45-2v-3l-3.45,2Zm0-44.39,3.45-2v-3l-3.45,2Zm0,55.93,3.45-2v-3l-3.45,2Zm0-61.87,3.45-2v-3l-3.45,2Zm0,22.58,3.45-2v-3l-3.45,2Zm0-5.55,3.45-2v-3l-3.45,2Zm0-5.54,3.45-2v-3l-3.45,2Zm0,33.29,3.45-2v-3l-3.45,2Zm0,61.49,3.45-2v-3l-3.45,2Zm0,5.54,3.45-2v-3l-3.45,2Zm0,5.55,3.45-2v-3l-3.45,2Zm0-49.94,3.45-2v-3l-3.45,2Zm0,55.49,3.45-2v-3l-3.45,2Zm0-22.19,3.45-2v-3l-3.45,2Zm0-22.2,3.45-2v-3l-3.45,2Zm0-5.55,3.45-2v-3l-3.45,2Zm0,11.1,3.45-2v-3l-3.45,2Zm0,11.1,3.45-2v-3l-3.45,2Zm0-5.55,3.45-2v-3l-3.45,2ZM228,403.57h2.56l.89-.52v-3L228,402Zm-7.15-172.73,3.45-2v-3l-3.45,2Zm0-5.94,3.45-2v-3l-3.45,2Zm0-11.09,3.45-2v-3l-3.45,2Zm0,5.54,3.45-2v-3l-3.45,2Zm0,17,3.45-2v-3l-3.45,2Zm0-55.88,3.45-2v-3l-3.45,2Zm0,11.1,3.45-2v-3l-3.45,2Zm0,55.88,3.45-2v-3l-3.45,2Zm0-61.43,3.45-2v-3l-3.45,2Zm0,16.65,3.45-2v-3l-3.45,2Zm0,5.55,3.45-2v-3l-3.45,2Zm0-11.1,3.45-2v-3l-3.45,2Zm0,44.78,3.45-2v-3l-3.45,2Zm0,55.87,3.45-2v-3l-3.45,2Zm0-5.55,3.45-2v-3l-3.45,2Zm0,11.1,3.45-2v-3l-3.45,2Zm0-16.64,3.45-2v-3l-3.45,2Zm0,22.19,3.45-2v-3l-3.45,2Zm0-44.78,3.45-2v-3l-3.45,2Zm0-5.55,3.45-2v-3l-3.45,2Zm0-5.55,3.45-2v-3l-3.45,2Zm0,16.65,3.45-2v-3l-3.45,2Zm0,11.1,3.45-2v-3l-3.45,2Zm0-5.55,3.45-2v-3l-3.45,2Zm56.85-38.89,3.45-2v-3l-3.45,2ZM228,327l3.45-2v-3L228,324Zm0,16.65,3.45-2v-3l-3.45,2Zm0-33.29,3.45-2v-3l-3.45,2Zm0,5.54,3.45-2v-3l-3.45,2Zm0,16.65,3.45-2v-3l-3.45,2Zm0,5.55,3.45-2v-3l-3.45,2Zm0-16.65,3.45-2v-3l-3.45,2Zm0-16.64,3.45-2v-3l-3.45,2Zm0-22.2,3.45-2v-3l-3.45,2ZM220.81,175l3.45-2v-3l-3.45,2ZM228,293.68l3.45-2v-3l-3.45,2Zm0,5.55,3.45-2v-3l-3.45,2Zm0-11.1,3.45-2v-3l-3.45,2Zm0,100.27,3.45-2v-3l-3.45,2Zm0,5.55,3.45-2v-3l-3.45,2Zm0-117.3,3.45-2v-3l-3.45,2Zm0,72.52,3.45-2v-3l-3.45,2Zm0,50.33,3.45-2v-3l-3.45,2Zm0-16.65,3.45-2v-3l-3.45,2Zm0-22.58,3.45-2v-3l-3.45,2Zm0-5.55,3.45-2v-3l-3.45,2Zm0,11.1,3.45-2v-3l-3.45,2Zm0,5.93,3.45-2v-3l-3.45,2Zm0,5.55,3.45-2v-3l-3.45,2Zm49.7,21.18,3.45-2v-3l-3.45,2Zm7.16-249.9,3.45-2v-3l-3.45,2Zm0-5.54,3.45-2v-3l-3.45,2Zm0-5.55,3.45-2v-3l-3.45,2Zm0,22.19,3.45-2v-3l-3.45,2Zm0,5.55,3.45-2v-3l-3.45,2Zm7.15,208,3.45-2v-3l-3.45,2Zm-7.15-219,3.45-2v-3l-3.45,2ZM292,401.31l3.45-2v-3l-3.45,2Zm0-16.65,3.45-2v-3l-3.45,2Zm0-5.55,3.45-2v-3l-3.45,2Zm0,11.1,3.45-2v-3l-3.45,2Zm0,5.55,3.45-2v-3l-3.45,2Zm-7.15-263.82,3.45-2v-3l-3.45,2Zm0,78.07,3.45-2v-3l-3.45,2Zm0,5.55,3.45-2v-3l-3.45,2Zm0-11.1,3.45-2v-3l-3.45,2Zm0,22.2,3.45-2v-3l-3.45,2Zm0-5.55,3.45-2v-3l-3.45,2Zm0-22.2,3.45-2v-3l-3.45,2Zm0-17,3.45-2v-3l-3.45,2Zm0-5.55,3.45-2v-3l-3.45,2Zm0-5.55,3.45-2v-3l-3.45,2Zm0,22.58,3.45-2v-3l-3.45,2Zm0-5.55,3.45-2v-3l-3.45,2ZM292,239.56l3.45-2v-3l-3.45,2Zm0,38.84,3.45-2v-3l-3.45,2Zm0-5.55,3.45-2v-3l-3.45,2Zm0,11.1,3.45-2v-3l-3.45,2Zm0,5.55,3.45-2v-3l-3.45,2Zm0-22.2,3.45-2v-3l-3.45,2Zm0,28.19,3.45-2v-3l-3.45,2Zm-7.15-63.28,3.45-2v-3l-3.45,2ZM292,301l3.45-2v-3L292,298Zm0-55.94,3.45-2v-3l-3.45,2Zm0,16.65,3.45-2v-3l-3.45,2Zm0-11.1,3.45-2v-3l-3.45,2Zm0,5.55,3.45-2v-3l-3.45,2ZM292,351l3.45-2v-3L292,348Zm0-5.55,3.45-2v-3l-3.45,2Zm0,22.2,3.45-2v-3l-3.45,2Zm0-27.75,3.45-2v-3l-3.45,2Zm0,22.2,3.45-2v-3l-3.45,2Zm0-5.55,3.45-2v-3l-3.45,2Zm0-49.94,3.45-2v-3l-3.45,2Zm0,11.1,3.45-2v-3l-3.45,2Zm-14.31-86.9,3.45-2v-3l-3.45,2ZM292,334.34l3.45-2v-3l-3.45,2Zm0-11.1,3.45-2v-3l-3.45,2Zm0,5.55,3.45-2v-3l-3.45,2Zm0-16.65,3.45-2v-3l-3.45,2Zm-14.31-165,3.45-2v-3l-3.45,2Zm0-5.55,3.45-2v-3l-3.45,2Zm7.16,262h3.24l.21-.12v-3l-3.45,2Zm-7.16-267.5,3.45-2v-3l-3.45,2Zm0,16.65,3.45-2v-3l-3.45,2Zm0,5.55,3.45-2v-3l-3.45,2Zm7.16,213.5,3.45-2v-3l-3.45,2Zm0,5.54,3.45-2v-3l-3.45,2Zm0,5.94,3.45-2v-3l-3.45,2Zm0,16.65,3.45-2v-3l-3.45,2Zm0-5.55,3.45-2v-3l-3.45,2Zm-7.16-230.53,3.45-2v-3l-3.45,2Zm7.16,225,3.45-2v-3l-3.45,2Zm-7.16-174.65,3.45-2v-3l-3.45,2Zm0-5.55,3.45-2v-3l-3.45,2Zm0,11.1,3.45-2v-3l-3.45,2Zm0,5.54,3.45-2v-3l-3.45,2Zm0-55.87,3.45-2v-3l-3.45,2Zm0,33.68,3.45-2v-3l-3.45,2Zm0-5.55,3.45-2v-3l-3.45,2Zm0-22.58,3.45-2v-3l-3.45,2Zm0,5.55,3.45-2v-3l-3.45,2Zm0,5.55,3.45-2v-3l-3.45,2Zm0,5.93,3.45-2v-3l-3.45,2Zm7.16,73.94,3.45-2v-3l-3.45,2Zm0,11.1,3.45-2v-3l-3.45,2Zm0-5.55,3.45-2v-3l-3.45,2Zm0,94.78,3.45-2v-3l-3.45,2Zm0-78.14,3.45-2v-3l-3.45,2Zm0,5.55,3.45-2v-3l-3.45,2Zm0-44.39,3.45-2v-3l-3.45,2Zm0-5.55,3.45-2v-3l-3.45,2Zm0,55.94,3.45-2v-3l-3.45,2Zm0-61.87,3.45-2v-3l-3.45,2Zm0,22.58,3.45-2v-3l-3.45,2Zm0-5.55,3.45-2v-3l-3.45,2Zm0,27.74,3.45-2v-3l-3.45,2Zm0,55.94,3.45-2v-3l-3.45,2Zm0,5.55,3.45-2v-3l-3.45,2Zm0,5.55,3.45-2v-3l-3.45,2Zm0,5.55,3.45-2v-3l-3.45,2Zm0,5.55,3.45-2v-3l-3.45,2Zm0-44.4,3.45-2v-3l-3.45,2Zm0-11.09,3.45-2v-3l-3.45,2Zm0,27.74,3.45-2v-3l-3.45,2Zm0-22.2,3.45-2v-3l-3.45,2Zm0,11.1,3.45-2v-3l-3.45,2Zm0,5.55,3.45-2v-3l-3.45,2Z" style="fill:#FF725E;opacity:0.2"></path></g></g><g id="freepik--Trees--inject-15"><g id="freepik--trees--inject-15"><g id="freepik--Tree--inject-15"><g id="freepik--tree--inject-15"><path d="M431.93,342.24a4.22,4.22,0,0,0-2.27.41,23.62,23.62,0,0,0-3.7,2.62,7.43,7.43,0,0,1-4.1,1.77,3.29,3.29,0,0,1-3.41-2.38,2.19,2.19,0,0,0-.2-.76,1.1,1.1,0,0,0-1.29-.33,7,7,0,0,0-1.24.72c-1.53.9-3.45.7-5.21.44-1.46-.21-3.3-.86-3.3-2.33,0-1,.85-1.68,1.51-2.38s1.2-1.82.6-2.57a1.82,1.82,0,0,0-.85-.52c-1.83-.59-4.06.2-5.61-.95a3.22,3.22,0,0,1-.81-3.86,4.88,4.88,0,0,1,3.29-2.51c1.23-.31,2.79-.46,3.25-1.64s-.41-2.15-1.31-2.79a9.39,9.39,0,0,1-2.64-2,3.15,3.15,0,0,1-.09-3.27A4,4,0,0,1,407.3,318a6.29,6.29,0,0,0,1.68-.36,1.13,1.13,0,0,0,.62-1.41c-.17-.3-.52-.46-.72-.74a1.34,1.34,0,0,1,.49-1.74,6.82,6.82,0,0,1,1.87-.71c1.33-.45,2.61-1.73,2.22-3.07s-2.31-1.85-2.88-3.19a2.91,2.91,0,0,1,1.36-3.3,24.74,24.74,0,0,1,3.52-1.56,3.75,3.75,0,0,0,2.38-2.81c.1-1.32-.89-2.42-1.69-3.47s-1.49-2.5-.79-3.62,2.18-1.14,3.39-1.52a5.51,5.51,0,0,0,3.33-3c.32-.74.47-1.55.86-2.26,1.2-2.22,4.21-3.18,6.54-2.91a2.64,2.64,0,0,1,2.23,1.51,3.52,3.52,0,0,1,.81,1.53c.18,1.07-.39,2.43.62,3.24,1.53,1.24,3.88-.42,3.8,2.35a11.54,11.54,0,0,1-.52,3.45c-.42,1.17-1.25,1.67-.56,3,.9,1.69,1.49,1.68,3.3,1.68,1.3,0,2.39-.08,3.35.91,1.68,1.75.68,3.32-.81,4.67-1.7,1.52-.8,2.19-.58,4.17.11.95-.11,1.24.74,1.87,1.61,1.2,2.51.8,2.06,3.14-.41,2.13.22,1.4,2.07,2.2,1.64.7,2.73,2.47,4.06,3.57.85.71,2.16,1.26,2.24,2.5.15,2.39-2.81,1.86-4.22,2.43-2.3.93-1.62,3.95.18,5.08s4.68,1.64,4.83,4.37c.12,2.09-1.07,2.55-2.7,3.25-1.29.56-1.13.72-1.12,2.27,0,3.12-1.05,4-4.13,3.49a7.69,7.69,0,0,0-3-.24c-1.17.35-.77.64-.81,1.63-.08,2.52-3,1.81-4.26.73C435.66,343.88,433.87,342.43,431.93,342.24Z" style="fill:#FF725E"></path><path d="M431.93,342.24a4.22,4.22,0,0,0-2.27.41,23.62,23.62,0,0,0-3.7,2.62,7.43,7.43,0,0,1-4.1,1.77,3.29,3.29,0,0,1-3.41-2.38,2.19,2.19,0,0,0-.2-.76,1.1,1.1,0,0,0-1.29-.33,7,7,0,0,0-1.24.72c-1.53.9-3.45.7-5.21.44-1.46-.21-3.3-.86-3.3-2.33,0-1,.85-1.68,1.51-2.38s1.2-1.82.6-2.57a1.82,1.82,0,0,0-.85-.52c-1.83-.59-4.06.2-5.61-.95a3.22,3.22,0,0,1-.81-3.86,4.88,4.88,0,0,1,3.29-2.51c1.23-.31,2.79-.46,3.25-1.64s-.41-2.15-1.31-2.79a9.39,9.39,0,0,1-2.64-2,3.15,3.15,0,0,1-.09-3.27A4,4,0,0,1,407.3,318a6.29,6.29,0,0,0,1.68-.36,1.13,1.13,0,0,0,.62-1.41c-.17-.3-.52-.46-.72-.74a1.34,1.34,0,0,1,.49-1.74,6.82,6.82,0,0,1,1.87-.71c1.33-.45,2.61-1.73,2.22-3.07s-2.31-1.85-2.88-3.19a2.91,2.91,0,0,1,1.36-3.3,24.74,24.74,0,0,1,3.52-1.56,3.75,3.75,0,0,0,2.38-2.81c.1-1.32-.89-2.42-1.69-3.47s-1.49-2.5-.79-3.62,2.18-1.14,3.39-1.52a5.51,5.51,0,0,0,3.33-3c.32-.74.47-1.55.86-2.26,1.2-2.22,4.21-3.18,6.54-2.91a2.64,2.64,0,0,1,2.23,1.51,3.52,3.52,0,0,1,.81,1.53c.18,1.07-.39,2.43.62,3.24,1.53,1.24,3.88-.42,3.8,2.35a11.54,11.54,0,0,1-.52,3.45c-.42,1.17-1.25,1.67-.56,3,.9,1.69,1.49,1.68,3.3,1.68,1.3,0,2.39-.08,3.35.91,1.68,1.75.68,3.32-.81,4.67-1.7,1.52-.8,2.19-.58,4.17.11.95-.11,1.24.74,1.87,1.61,1.2,2.51.8,2.06,3.14-.41,2.13.22,1.4,2.07,2.2,1.64.7,2.73,2.47,4.06,3.57.85.71,2.16,1.26,2.24,2.5.15,2.39-2.81,1.86-4.22,2.43-2.3.93-1.62,3.95.18,5.08s4.68,1.64,4.83,4.37c.12,2.09-1.07,2.55-2.7,3.25-1.29.56-1.13.72-1.12,2.27,0,3.12-1.05,4-4.13,3.49a7.69,7.69,0,0,0-3-.24c-1.17.35-.77.64-.81,1.63-.08,2.52-3,1.81-4.26.73C435.66,343.88,433.87,342.43,431.93,342.24Z" style="opacity:0.25"></path><path d="M448.25,329.62c-1.8-1.13-2.48-4.15-.18-5.08,1.41-.57,4.37,0,4.22-2.43-.08-1.24-1.39-1.79-2.24-2.5-1.33-1.1-2.42-2.87-4.06-3.57-1.85-.8-2.48-.07-2.07-2.2.45-2.34-.45-1.94-2.06-3.14-.78-.58-.66-.88-.72-1.67a4.4,4.4,0,0,0-.92,1.23c-.62,1.35-.12,2.94.57,4.25.52,1,1.1,2.34.27,3.09a4.49,4.49,0,0,1-1.36.59,2.72,2.72,0,0,0-1.66,2.2c-.1,1.05.41,2.17,0,3.14a4,4,0,0,1-1.51,1.48,5.39,5.39,0,0,0-2.6,3.46c-.25,2.11,1.61,3.79,3.26,5.13.55.45,1.08,1.38.46,1.74a1.38,1.38,0,0,1-.76.08,3,3,0,0,0-2.41,1.1c-.54.67-.88,1.67-1.73,1.85a2.72,2.72,0,0,1-1-.08,7.15,7.15,0,0,0-6.51,2.28c-.9,1-2,2.47-3.25,1.92-1.08-.47-1.1-2.08-2-2.81a1.51,1.51,0,0,0-.26-.18c-1.18-.71-2.62-.1-3.74.42-.69.33-1.36.69-2.06,1s-1.43.71-2.13.3a1.18,1.18,0,0,1-.53-1.4c.12-.39.3-.76.41-1.15a1.66,1.66,0,0,0,0-1.2,1.88,1.88,0,0,0-.8-.78,5.56,5.56,0,0,0-2-.7h-.11a13.63,13.63,0,0,0-2.39,0,8,8,0,0,1-2.49-.14,3.08,3.08,0,0,1-2-1.42h0a2.72,2.72,0,0,0,1,1.55c1.55,1.15,3.78.36,5.61.95a1.82,1.82,0,0,1,.85.52c.6.75.06,1.87-.6,2.57s-1.5,1.41-1.51,2.38c0,1.47,1.84,2.12,3.3,2.33,1.76.26,3.68.46,5.21-.44a7,7,0,0,1,1.24-.72,1.1,1.1,0,0,1,1.29.33,2.19,2.19,0,0,1,.2.76,3.29,3.29,0,0,0,3.41,2.38,7.43,7.43,0,0,0,4.1-1.77,23.62,23.62,0,0,1,3.7-2.62,4.22,4.22,0,0,1,2.27-.41c1.94.19,3.73,1.64,5.16,2.88,1.25,1.08,4.18,1.79,4.26-.73,0-1-.36-1.28.81-1.63a7.69,7.69,0,0,1,3,.24c3.08.51,4.13-.37,4.13-3.49,0-1.55-.17-1.71,1.12-2.27,1.63-.7,2.82-1.16,2.7-3.25C452.93,331.26,450.15,330.82,448.25,329.62Z" style="opacity:0.15"></path><path d="M436.72,316.55l-8.39,16.64v-7.66l-.85-32.61-1.25,32.61v5.15L417,314.56l9.22,19.79v60.24a.53.53,0,0,0,.31.43,1.61,1.61,0,0,0,1.48,0,.51.51,0,0,0,.31-.43V337.44Z" style="fill:#263238"></path></g></g><g id="freepik--tree--inject-15"><g id="freepik--tree--inject-15"><path d="M469.45,354.22a4.87,4.87,0,0,0-2.62.48,26.34,26.34,0,0,0-4.28,3,8.71,8.71,0,0,1-4.75,2c-1.75.05-3.64-1-3.95-2.76a2.6,2.6,0,0,0-.23-.88,1.28,1.28,0,0,0-1.49-.38,7.92,7.92,0,0,0-1.44.83c-1.78,1.05-4,.81-6,.51-1.69-.24-3.83-1-3.82-2.7,0-1.12,1-1.94,1.74-2.75s1.39-2.11.69-3a2,2,0,0,0-1-.6c-2.12-.69-4.71.23-6.49-1.1a3.73,3.73,0,0,1-.94-4.48,5.68,5.68,0,0,1,3.81-2.9c1.42-.36,3.23-.53,3.76-1.9.46-1.2-.47-2.49-1.52-3.23s-2.32-1.25-3.06-2.31a3.68,3.68,0,0,1-.1-3.79,4.62,4.62,0,0,1,3.19-2.19,7.08,7.08,0,0,0,1.94-.42,1.29,1.29,0,0,0,.71-1.63c-.19-.35-.59-.53-.82-.86a1.54,1.54,0,0,1,.57-2,7.93,7.93,0,0,1,2.16-.83c1.53-.51,3-2,2.57-3.55s-2.68-2.14-3.33-3.7c-.58-1.37.34-3,1.57-3.81a29.17,29.17,0,0,1,4.07-1.82c1.35-.64,2.66-1.76,2.77-3.25s-1-2.8-2-4-1.72-2.91-.91-4.2,2.52-1.32,3.92-1.76a6.36,6.36,0,0,0,3.86-3.48c.37-.86.55-1.8,1-2.62,1.39-2.57,4.88-3.69,7.58-3.38a3.08,3.08,0,0,1,2.57,1.75,4.08,4.08,0,0,1,.95,1.78c.2,1.24-.45,2.81.71,3.75,1.78,1.44,4.5-.49,4.4,2.72a13.56,13.56,0,0,1-.6,4c-.48,1.35-1.45,1.93-.65,3.45,1.05,1.95,1.73,1.94,3.82,1.94,1.51,0,2.77-.09,3.88,1.06,2,2,.79,3.85-.94,5.4-2,1.77-.92,2.54-.67,4.83.13,1.1-.12,1.44.86,2.17,1.87,1.39,2.91.92,2.38,3.63-.47,2.48.26,1.63,2.41,2.55,1.9.82,3.15,2.86,4.69,4.14,1,.82,2.5,1.46,2.59,2.9.18,2.76-3.25,2.15-4.88,2.81-2.66,1.08-1.87,4.57.21,5.88s5.42,1.9,5.59,5.06c.14,2.42-1.24,3-3.12,3.77-1.5.64-1.31.83-1.31,2.62,0,3.62-1.21,4.64-4.77,4.05a8.94,8.94,0,0,0-3.44-.28c-1.36.41-.9.75-.94,1.88-.1,2.92-3.49,2.1-4.93.85C473.78,356.11,471.7,354.44,469.45,354.22Z" style="fill:#FF725E"></path><path d="M469.45,354.22a4.87,4.87,0,0,0-2.62.48,26.34,26.34,0,0,0-4.28,3,8.71,8.71,0,0,1-4.75,2c-1.75.05-3.64-1-3.95-2.76a2.6,2.6,0,0,0-.23-.88,1.28,1.28,0,0,0-1.49-.38,7.92,7.92,0,0,0-1.44.83c-1.78,1.05-4,.81-6,.51-1.69-.24-3.83-1-3.82-2.7,0-1.12,1-1.94,1.74-2.75s1.39-2.11.69-3a2,2,0,0,0-1-.6c-2.12-.69-4.71.23-6.49-1.1a3.73,3.73,0,0,1-.94-4.48,5.68,5.68,0,0,1,3.81-2.9c1.42-.36,3.23-.53,3.76-1.9.46-1.2-.47-2.49-1.52-3.23s-2.32-1.25-3.06-2.31a3.68,3.68,0,0,1-.1-3.79,4.62,4.62,0,0,1,3.19-2.19,7.08,7.08,0,0,0,1.94-.42,1.29,1.29,0,0,0,.71-1.63c-.19-.35-.59-.53-.82-.86a1.54,1.54,0,0,1,.57-2,7.93,7.93,0,0,1,2.16-.83c1.53-.51,3-2,2.57-3.55s-2.68-2.14-3.33-3.7c-.58-1.37.34-3,1.57-3.81a29.17,29.17,0,0,1,4.07-1.82c1.35-.64,2.66-1.76,2.77-3.25s-1-2.8-2-4-1.72-2.91-.91-4.2,2.52-1.32,3.92-1.76a6.36,6.36,0,0,0,3.86-3.48c.37-.86.55-1.8,1-2.62,1.39-2.57,4.88-3.69,7.58-3.38a3.08,3.08,0,0,1,2.57,1.75,4.08,4.08,0,0,1,.95,1.78c.2,1.24-.45,2.81.71,3.75,1.78,1.44,4.5-.49,4.4,2.72a13.56,13.56,0,0,1-.6,4c-.48,1.35-1.45,1.93-.65,3.45,1.05,1.95,1.73,1.94,3.82,1.94,1.51,0,2.77-.09,3.88,1.06,2,2,.79,3.85-.94,5.4-2,1.77-.92,2.54-.67,4.83.13,1.1-.12,1.44.86,2.17,1.87,1.39,2.91.92,2.38,3.63-.47,2.48.26,1.63,2.41,2.55,1.9.82,3.15,2.86,4.69,4.14,1,.82,2.5,1.46,2.59,2.9.18,2.76-3.25,2.15-4.88,2.81-2.66,1.08-1.87,4.57.21,5.88s5.42,1.9,5.59,5.06c.14,2.42-1.24,3-3.12,3.77-1.5.64-1.31.83-1.31,2.62,0,3.62-1.21,4.64-4.77,4.05a8.94,8.94,0,0,0-3.44-.28c-1.36.41-.9.75-.94,1.88-.1,2.92-3.49,2.1-4.93.85C473.78,356.11,471.7,354.44,469.45,354.22Z" style="opacity:0.4"></path><path d="M442.29,348.07c-1.62-.53-3.53-.11-5.13-.49a19.45,19.45,0,0,1,2.87-.46,8.16,8.16,0,0,1,6.21,2.47,5.58,5.58,0,0,0-1.24,3.72c4,1.1,8-4.31,11.85-2.67-.24,2,0,4.58,1.89,5a3.07,3.07,0,0,0,2.93-1.41c.7-.91,1.12-2,1.82-2.92a6.19,6.19,0,0,1,8.21-1.19c1,.75,2.34,1.9,3.38,1.14s.44-3,1.68-3.62c.82-.41,2,.24,2.66-.37a1.9,1.9,0,0,0,.47-1c.48-2.06.91-4.45-.39-6.12-1.15-1.5-3.6-2.41-3.34-4.28.23-1.6,2.26-2.08,3.86-2.27s3.63-.94,3.55-2.55-2.22-2.34-2.54-3.89c-.13-.67.09-1.4-.21-2-.46-.91-1.76-.94-2.52-1.62-1.37-1.21-.31-3.48-.7-5.26-.27-1.27-1.3-2.26-1.64-3.51-.67-2.49,1.6-4.87,4-5.89a14.5,14.5,0,0,0,2.71-1.25l.08-.06a4.93,4.93,0,0,1-2,3.12c-2,1.77-.92,2.54-.67,4.83.13,1.1-.12,1.44.86,2.17,1.87,1.39,2.91.92,2.38,3.63-.47,2.48.26,1.63,2.41,2.55,1.9.82,3.15,2.86,4.69,4.14,1,.82,2.5,1.46,2.59,2.9.18,2.76-3.25,2.15-4.88,2.81-2.66,1.08-1.87,4.57.21,5.88s5.42,1.9,5.59,5.06c.14,2.42-1.24,3-3.12,3.77-1.5.64-1.31.83-1.31,2.62,0,3.62-1.21,4.64-4.77,4.05a8.94,8.94,0,0,0-3.44-.28c-1.36.41-.9.75-.94,1.88-.1,2.92-3.49,2.1-4.93.85-1.66-1.44-3.74-3.11-6-3.33a4.87,4.87,0,0,0-2.62.48,26.34,26.34,0,0,0-4.28,3,8.71,8.71,0,0,1-4.75,2c-1.75.05-3.64-1-3.95-2.76a2.6,2.6,0,0,0-.23-.88,1.28,1.28,0,0,0-1.49-.38,7.92,7.92,0,0,0-1.44.83c-1.78,1.05-4,.81-6,.51-1.69-.24-3.83-1-3.82-2.7,0-1.12,1-1.94,1.74-2.75s1.39-2.11.69-3A2,2,0,0,0,442.29,348.07Z" style="opacity:0.15"></path><polygon points="475.01 324.47 465.29 343.74 465.29 334.87 464.3 297.1 462.86 334.87 462.86 340.83 452.18 322.16 462.86 345.08 462.86 403.62 465.29 403.62 465.29 348.65 475.01 324.47" style="fill:#263238"></polygon></g></g></g><g id="freepik--trees--inject-15"><g id="freepik--tree--inject-15"><g id="freepik--tree--inject-15"><path d="M68.07,342.24a4.22,4.22,0,0,1,2.27.41,23.62,23.62,0,0,1,3.7,2.62,7.43,7.43,0,0,0,4.1,1.77,3.29,3.29,0,0,0,3.41-2.38,2.19,2.19,0,0,1,.2-.76,1.1,1.1,0,0,1,1.29-.33,7,7,0,0,1,1.24.72c1.53.9,3.45.7,5.21.44,1.46-.21,3.3-.86,3.3-2.33,0-1-.85-1.68-1.51-2.38s-1.2-1.82-.6-2.57a1.82,1.82,0,0,1,.85-.52c1.83-.59,4.06.2,5.61-.95a3.22,3.22,0,0,0,.81-3.86,4.88,4.88,0,0,0-3.29-2.51c-1.23-.31-2.79-.46-3.25-1.64s.41-2.15,1.31-2.79a9.39,9.39,0,0,0,2.64-2,3.15,3.15,0,0,0,.09-3.27A4,4,0,0,0,92.7,318a6.29,6.29,0,0,1-1.68-.36,1.13,1.13,0,0,1-.62-1.41c.17-.3.52-.46.72-.74a1.34,1.34,0,0,0-.49-1.74,6.82,6.82,0,0,0-1.87-.71c-1.33-.45-2.61-1.73-2.22-3.07s2.31-1.85,2.88-3.19a2.91,2.91,0,0,0-1.36-3.3,24.74,24.74,0,0,0-3.52-1.56,3.75,3.75,0,0,1-2.38-2.81c-.1-1.32.89-2.42,1.69-3.47s1.49-2.5.79-3.62-2.18-1.14-3.39-1.52a5.51,5.51,0,0,1-3.33-3c-.32-.74-.47-1.55-.86-2.26-1.2-2.22-4.21-3.18-6.54-2.91a2.64,2.64,0,0,0-2.23,1.51,3.52,3.52,0,0,0-.81,1.53c-.18,1.07.39,2.43-.62,3.24-1.53,1.24-3.88-.42-3.8,2.35a11.87,11.87,0,0,0,.52,3.45c.42,1.17,1.25,1.67.56,3-.9,1.69-1.49,1.68-3.3,1.68-1.3,0-2.39-.08-3.35.91-1.68,1.75-.68,3.32.81,4.67,1.7,1.52.8,2.19.58,4.17-.11.95.11,1.24-.74,1.87-1.61,1.2-2.51.8-2.06,3.14.42,2.13-.22,1.4-2.07,2.2-1.64.7-2.73,2.47-4.06,3.57-.85.71-2.16,1.26-2.24,2.5-.15,2.39,2.81,1.86,4.22,2.43,2.3.93,1.62,3.95-.18,5.08s-4.68,1.64-4.83,4.37c-.12,2.09,1.07,2.55,2.7,3.25,1.29.56,1.13.72,1.12,2.27,0,3.12,1,4,4.13,3.49a7.69,7.69,0,0,1,3-.24c1.17.35.77.64.81,1.63.08,2.52,3,1.81,4.26.73C64.34,343.88,66.13,342.43,68.07,342.24Z" style="fill:#FF725E"></path><path d="M68.07,342.24a4.22,4.22,0,0,1,2.27.41,23.62,23.62,0,0,1,3.7,2.62,7.43,7.43,0,0,0,4.1,1.77,3.29,3.29,0,0,0,3.41-2.38,2.19,2.19,0,0,1,.2-.76,1.1,1.1,0,0,1,1.29-.33,7,7,0,0,1,1.24.72c1.53.9,3.45.7,5.21.44,1.46-.21,3.3-.86,3.3-2.33,0-1-.85-1.68-1.51-2.38s-1.2-1.82-.6-2.57a1.82,1.82,0,0,1,.85-.52c1.83-.59,4.06.2,5.61-.95a3.22,3.22,0,0,0,.81-3.86,4.88,4.88,0,0,0-3.29-2.51c-1.23-.31-2.79-.46-3.25-1.64s.41-2.15,1.31-2.79a9.39,9.39,0,0,0,2.64-2,3.15,3.15,0,0,0,.09-3.27A4,4,0,0,0,92.7,318a6.29,6.29,0,0,1-1.68-.36,1.13,1.13,0,0,1-.62-1.41c.17-.3.52-.46.72-.74a1.34,1.34,0,0,0-.49-1.74,6.82,6.82,0,0,0-1.87-.71c-1.33-.45-2.61-1.73-2.22-3.07s2.31-1.85,2.88-3.19a2.91,2.91,0,0,0-1.36-3.3,24.74,24.74,0,0,0-3.52-1.56,3.75,3.75,0,0,1-2.38-2.81c-.1-1.32.89-2.42,1.69-3.47s1.49-2.5.79-3.62-2.18-1.14-3.39-1.52a5.51,5.51,0,0,1-3.33-3c-.32-.74-.47-1.55-.86-2.26-1.2-2.22-4.21-3.18-6.54-2.91a2.64,2.64,0,0,0-2.23,1.51,3.52,3.52,0,0,0-.81,1.53c-.18,1.07.39,2.43-.62,3.24-1.53,1.24-3.88-.42-3.8,2.35a11.87,11.87,0,0,0,.52,3.45c.42,1.17,1.25,1.67.56,3-.9,1.69-1.49,1.68-3.3,1.68-1.3,0-2.39-.08-3.35.91-1.68,1.75-.68,3.32.81,4.67,1.7,1.52.8,2.19.58,4.17-.11.95.11,1.24-.74,1.87-1.61,1.2-2.51.8-2.06,3.14.42,2.13-.22,1.4-2.07,2.2-1.64.7-2.73,2.47-4.06,3.57-.85.71-2.16,1.26-2.24,2.5-.15,2.39,2.81,1.86,4.22,2.43,2.3.93,1.62,3.95-.18,5.08s-4.68,1.64-4.83,4.37c-.12,2.09,1.07,2.55,2.7,3.25,1.29.56,1.13.72,1.12,2.27,0,3.12,1,4,4.13,3.49a7.69,7.69,0,0,1,3-.24c1.17.35.77.64.81,1.63.08,2.52,3,1.81,4.26.73C64.34,343.88,66.13,342.43,68.07,342.24Z" style="opacity:0.25"></path><path d="M51.75,329.62c1.8-1.13,2.48-4.15.18-5.08-1.41-.57-4.37,0-4.22-2.43.08-1.24,1.39-1.79,2.24-2.5,1.33-1.1,2.42-2.87,4.06-3.57,1.85-.8,2.48-.07,2.07-2.2-.45-2.34.45-1.94,2.06-3.14.78-.58.66-.88.72-1.67a4.4,4.4,0,0,1,.92,1.23c.62,1.35.12,2.94-.57,4.25-.52,1-1.1,2.34-.27,3.09a4.49,4.49,0,0,0,1.36.59,2.72,2.72,0,0,1,1.66,2.2c.1,1.05-.41,2.17,0,3.14A4,4,0,0,0,63.47,325a5.39,5.39,0,0,1,2.6,3.46c.25,2.11-1.61,3.79-3.26,5.13-.55.45-1.08,1.38-.46,1.74a1.38,1.38,0,0,0,.76.08,3,3,0,0,1,2.41,1.1c.54.67.88,1.67,1.73,1.85a2.72,2.72,0,0,0,1-.08,7.15,7.15,0,0,1,6.51,2.28c.9,1,2,2.47,3.25,1.92,1.08-.47,1.1-2.08,2-2.81a1.51,1.51,0,0,1,.26-.18c1.18-.71,2.62-.1,3.74.42.69.33,1.36.69,2.06,1s1.43.71,2.13.3a1.17,1.17,0,0,0,.53-1.4c-.12-.39-.3-.76-.41-1.15a1.66,1.66,0,0,1,0-1.2,1.88,1.88,0,0,1,.8-.78,5.56,5.56,0,0,1,2-.7h.11a13.63,13.63,0,0,1,2.39,0,8,8,0,0,0,2.49-.14,3.08,3.08,0,0,0,2-1.42h0a2.72,2.72,0,0,1-1,1.55c-1.55,1.15-3.78.36-5.61.95a1.82,1.82,0,0,0-.85.52c-.6.75-.06,1.87.6,2.57s1.5,1.41,1.51,2.38c0,1.47-1.84,2.12-3.3,2.33-1.76.26-3.68.46-5.21-.44a7,7,0,0,0-1.24-.72,1.1,1.1,0,0,0-1.29.33,2.19,2.19,0,0,0-.2.76A3.29,3.29,0,0,1,78.14,347a7.43,7.43,0,0,1-4.1-1.77,23.62,23.62,0,0,0-3.7-2.62,4.22,4.22,0,0,0-2.27-.41c-1.94.19-3.73,1.64-5.16,2.88-1.25,1.08-4.18,1.79-4.26-.73,0-1,.36-1.28-.81-1.63a7.69,7.69,0,0,0-3,.24c-3.08.51-4.13-.37-4.13-3.49,0-1.55.17-1.71-1.12-2.27-1.63-.7-2.82-1.16-2.7-3.25C47.07,331.26,49.85,330.82,51.75,329.62Z" style="opacity:0.15"></path><path d="M63.28,316.55l8.39,16.64v-7.66l.85-32.61,1.25,32.61v5.15L83,314.56l-9.22,19.79v60.24a.53.53,0,0,1-.31.43A1.61,1.61,0,0,1,72,395a.51.51,0,0,1-.31-.43V337.44Z" style="fill:#263238"></path></g></g><g id="freepik--tree--inject-15"><g id="freepik--tree--inject-15"><path d="M30.55,354.22a4.87,4.87,0,0,1,2.62.48,26.34,26.34,0,0,1,4.28,3,8.71,8.71,0,0,0,4.75,2c1.75.05,3.64-1,3.95-2.76a2.6,2.6,0,0,1,.23-.88,1.28,1.28,0,0,1,1.49-.38,7.92,7.92,0,0,1,1.44.83c1.78,1.05,4,.81,6,.51,1.69-.24,3.83-1,3.82-2.7,0-1.12-1-1.94-1.74-2.75s-1.39-2.11-.69-3a2,2,0,0,1,1-.6c2.12-.69,4.71.23,6.49-1.1a3.73,3.73,0,0,0,.94-4.48,5.68,5.68,0,0,0-3.81-2.9c-1.42-.36-3.23-.53-3.76-1.9-.46-1.2.47-2.49,1.52-3.23s2.32-1.25,3.06-2.31a3.68,3.68,0,0,0,.1-3.79,4.62,4.62,0,0,0-3.19-2.19,7.08,7.08,0,0,1-1.94-.42,1.29,1.29,0,0,1-.71-1.63c.19-.35.59-.53.82-.86a1.54,1.54,0,0,0-.57-2,7.93,7.93,0,0,0-2.16-.83c-1.53-.51-3-2-2.57-3.55s2.68-2.14,3.33-3.7c.58-1.37-.34-3-1.57-3.81a29.17,29.17,0,0,0-4.07-1.82c-1.35-.64-2.66-1.76-2.77-3.25s1-2.8,2-4,1.72-2.91.91-4.2-2.52-1.32-3.92-1.76A6.36,6.36,0,0,1,42,290.84c-.37-.86-.55-1.8-1-2.62-1.39-2.57-4.88-3.69-7.58-3.38a3.08,3.08,0,0,0-2.57,1.75,4.08,4.08,0,0,0-.95,1.78c-.2,1.24.45,2.81-.71,3.75-1.78,1.44-4.5-.49-4.4,2.72a13.56,13.56,0,0,0,.6,4c.48,1.35,1.45,1.93.65,3.45-1,1.95-1.73,1.94-3.82,1.94-1.51,0-2.77-.09-3.88,1.06-1.95,2-.79,3.85.94,5.4,2,1.77.92,2.54.67,4.83-.13,1.1.12,1.44-.86,2.17-1.87,1.39-2.91.92-2.38,3.63.47,2.48-.26,1.63-2.41,2.55-1.9.82-3.15,2.86-4.69,4.14-1,.82-2.5,1.46-2.59,2.9-.18,2.76,3.25,2.15,4.88,2.81,2.66,1.08,1.87,4.57-.21,5.88s-5.42,1.9-5.59,5.06c-.14,2.42,1.24,3,3.12,3.77,1.5.64,1.31.83,1.31,2.62,0,3.62,1.21,4.64,4.77,4.05a8.94,8.94,0,0,1,3.44-.28c1.36.41.9.75.94,1.88.1,2.92,3.49,2.1,4.93.85C26.22,356.11,28.3,354.44,30.55,354.22Z" style="fill:#FF725E"></path><path d="M30.55,354.22a4.87,4.87,0,0,1,2.62.48,26.34,26.34,0,0,1,4.28,3,8.71,8.71,0,0,0,4.75,2c1.75.05,3.64-1,3.95-2.76a2.6,2.6,0,0,1,.23-.88,1.28,1.28,0,0,1,1.49-.38,7.92,7.92,0,0,1,1.44.83c1.78,1.05,4,.81,6,.51,1.69-.24,3.83-1,3.82-2.7,0-1.12-1-1.94-1.74-2.75s-1.39-2.11-.69-3a2,2,0,0,1,1-.6c2.12-.69,4.71.23,6.49-1.1a3.73,3.73,0,0,0,.94-4.48,5.68,5.68,0,0,0-3.81-2.9c-1.42-.36-3.23-.53-3.76-1.9-.46-1.2.47-2.49,1.52-3.23s2.32-1.25,3.06-2.31a3.68,3.68,0,0,0,.1-3.79,4.62,4.62,0,0,0-3.19-2.19,7.08,7.08,0,0,1-1.94-.42,1.29,1.29,0,0,1-.71-1.63c.19-.35.59-.53.82-.86a1.54,1.54,0,0,0-.57-2,7.93,7.93,0,0,0-2.16-.83c-1.53-.51-3-2-2.57-3.55s2.68-2.14,3.33-3.7c.58-1.37-.34-3-1.57-3.81a29.17,29.17,0,0,0-4.07-1.82c-1.35-.64-2.66-1.76-2.77-3.25s1-2.8,2-4,1.72-2.91.91-4.2-2.52-1.32-3.92-1.76A6.36,6.36,0,0,1,42,290.84c-.37-.86-.55-1.8-1-2.62-1.39-2.57-4.88-3.69-7.58-3.38a3.08,3.08,0,0,0-2.57,1.75,4.08,4.08,0,0,0-.95,1.78c-.2,1.24.45,2.81-.71,3.75-1.78,1.44-4.5-.49-4.4,2.72a13.56,13.56,0,0,0,.6,4c.48,1.35,1.45,1.93.65,3.45-1,1.95-1.73,1.94-3.82,1.94-1.51,0-2.77-.09-3.88,1.06-1.95,2-.79,3.85.94,5.4,2,1.77.92,2.54.67,4.83-.13,1.1.12,1.44-.86,2.17-1.87,1.39-2.91.92-2.38,3.63.47,2.48-.26,1.63-2.41,2.55-1.9.82-3.15,2.86-4.69,4.14-1,.82-2.5,1.46-2.59,2.9-.18,2.76,3.25,2.15,4.88,2.81,2.66,1.08,1.87,4.57-.21,5.88s-5.42,1.9-5.59,5.06c-.14,2.42,1.24,3,3.12,3.77,1.5.64,1.31.83,1.31,2.62,0,3.62,1.21,4.64,4.77,4.05a8.94,8.94,0,0,1,3.44-.28c1.36.41.9.75.94,1.88.1,2.92,3.49,2.1,4.93.85C26.22,356.11,28.3,354.44,30.55,354.22Z" style="opacity:0.4"></path><path d="M57.71,348.07c1.62-.53,3.53-.11,5.13-.49a19.45,19.45,0,0,0-2.87-.46,8.16,8.16,0,0,0-6.21,2.47A5.58,5.58,0,0,1,55,353.31c-4,1.1-8-4.31-11.85-2.67.24,2,0,4.58-1.89,5a3.07,3.07,0,0,1-2.93-1.41c-.7-.91-1.12-2-1.82-2.92a6.19,6.19,0,0,0-8.21-1.19c-1,.75-2.34,1.9-3.38,1.14s-.44-3-1.68-3.62c-.82-.41-2,.24-2.65-.37a1.84,1.84,0,0,1-.48-1c-.48-2.06-.91-4.45.39-6.12,1.15-1.5,3.6-2.41,3.34-4.28-.23-1.6-2.26-2.08-3.86-2.27s-3.63-.94-3.55-2.55,2.22-2.34,2.54-3.89c.13-.67-.09-1.4.21-2,.46-.91,1.76-.94,2.52-1.62,1.37-1.21.31-3.48.7-5.26.27-1.27,1.3-2.26,1.64-3.51.67-2.49-1.6-4.87-4-5.89a14.5,14.5,0,0,1-2.71-1.25l-.08-.06a4.93,4.93,0,0,0,1.95,3.12c2,1.77.92,2.54.67,4.83-.13,1.1.12,1.44-.86,2.17-1.87,1.39-2.91.92-2.38,3.63.47,2.48-.26,1.63-2.41,2.55-1.9.82-3.15,2.86-4.69,4.14-1,.82-2.5,1.46-2.59,2.9-.18,2.76,3.25,2.15,4.88,2.81,2.66,1.08,1.87,4.57-.21,5.88s-5.42,1.9-5.59,5.06c-.14,2.42,1.24,3,3.12,3.77,1.5.64,1.31.83,1.31,2.62,0,3.62,1.21,4.64,4.77,4.05a8.94,8.94,0,0,1,3.44-.28c1.36.41.9.75.94,1.88.1,2.92,3.49,2.1,4.93.85,1.66-1.44,3.74-3.11,6-3.33a4.87,4.87,0,0,1,2.62.48,26.34,26.34,0,0,1,4.28,3,8.71,8.71,0,0,0,4.75,2c1.75.05,3.64-1,3.95-2.76a2.6,2.6,0,0,1,.23-.88,1.28,1.28,0,0,1,1.49-.38,7.92,7.92,0,0,1,1.44.83c1.78,1.05,4,.81,6,.51,1.69-.24,3.83-1,3.82-2.7,0-1.12-1-1.94-1.74-2.75s-1.39-2.11-.69-3A2,2,0,0,1,57.71,348.07Z" style="opacity:0.15"></path><polygon points="24.99 324.47 34.71 343.74 34.71 334.87 35.7 297.1 37.14 334.87 37.14 340.83 47.82 322.16 37.14 345.08 37.14 403.62 34.71 403.62 34.71 348.65 24.99 324.47" style="fill:#263238"></polygon></g></g></g></g><g id="freepik--Streetlights--inject-15"><g id="freepik--street-lamps--inject-15"><path d="M396.25,366.75a.93.93,0,0,1-.93-.93V232.36a.93.93,0,0,1,1.86,0V365.82A.93.93,0,0,1,396.25,366.75Z" style="fill:#263238"></path><path d="M396.25,280.1a.93.93,0,0,1-.93-.93c0-8.13-8.49-21.81-22.2-29.73l-7.55-4.36a.92.92,0,0,1-.34-1.27.94.94,0,0,1,1.27-.34l7.55,4.36c14.28,8.25,23.13,22.69,23.13,31.34A.93.93,0,0,1,396.25,280.1Z" style="fill:#263238"></path><path d="M364.12,237.71l-4.17-2.9c-3.33-2.32-8.7-2.66-12-.75-1.52.88-2.27,2-2.27,3.06,0,.4,0,2,0,2.34,0,1.26,1,2.51,2.95,3.41l6.58,3c3.68,1.69,8.51,2,10.78.69a2.3,2.3,0,0,0,1.25-2.05c0-.4,0-1.94,0-2.32C367.3,240.84,366.2,239.16,364.12,237.71Z" style="fill:#455a64"></path><path d="M366,246.59c2.27-1.32,1.42-4.26-1.91-6.57L360,237.11c-3.33-2.31-8.7-2.65-12-.75s-3,4.82.71,6.51l6.58,3C358.93,247.59,363.76,247.9,366,246.59Z" style="fill:#263238"></path><path d="M366.31,244.58a1.36,1.36,0,0,1-.77,1.14,7.18,7.18,0,0,1-3.42.68,16.27,16.27,0,0,1-6.45-1.41l-6.58-3c-1.49-.68-2.36-1.58-2.4-2.46s.59-1.59,1.77-2.27a9.46,9.46,0,0,1,4.65-1.1,11.25,11.25,0,0,1,6.27,1.8l4.17,2.91C365.27,242,366.35,243.5,366.31,244.58Z" style="fill:#FF725E"></path><path d="M366.31,244.58a1.36,1.36,0,0,1-.77,1.14,7.18,7.18,0,0,1-3.42.68,16.27,16.27,0,0,1-6.45-1.41l-6.58-3c-1.49-.68-2.36-1.58-2.4-2.46s.59-1.59,1.77-2.27a9.46,9.46,0,0,1,4.65-1.1,11.25,11.25,0,0,1,6.27,1.8l4.17,2.91C365.27,242,366.35,243.5,366.31,244.58Z" style="fill:#fff;opacity:0.9"></path><path d="M349.81,241.45a6.84,6.84,0,0,0,6.17,0c1.71-1,1.71-2.58,0-3.56a6.78,6.78,0,0,0-6.17,0C348.11,238.87,348.11,240.46,349.81,241.45Z" style="fill:#FF725E;opacity:0.2"></path><path d="M358.61,244.2a3.9,3.9,0,0,0,3.49,0,1.07,1.07,0,0,0,0-2,3.9,3.9,0,0,0-3.49,0A1.07,1.07,0,0,0,358.61,244.2Z" style="fill:#FF725E;opacity:0.2"></path><path d="M396.25,263.85a.93.93,0,0,0,.93-.93c0-8.13,8.48-21.81,22.19-29.72l7.56-4.36a.94.94,0,0,0,.34-1.27.92.92,0,0,0-1.27-.34l-7.56,4.36c-14.28,8.25-23.12,22.68-23.12,31.33A.92.92,0,0,0,396.25,263.85Z" style="fill:#263238"></path><path d="M428.37,221.47l4.17-2.91c3.33-2.31,8.7-2.65,12-.75,1.52.88,2.27,2,2.27,3.07,0,.4,0,2,0,2.33,0,1.26-1,2.51-2.95,3.42l-6.58,3c-3.68,1.69-8.51,2-10.78.69a2.28,2.28,0,0,1-1.25-2c0-.4,0-1.94,0-2.32C425.2,224.6,426.29,222.91,428.37,221.47Z" style="fill:#455a64"></path><path d="M426.46,230.34c-2.27-1.31-1.42-4.25,1.91-6.57l4.17-2.9c3.33-2.32,8.7-2.65,12-.75s3,4.81-.7,6.51l-6.59,3C433.56,231.34,428.73,231.65,426.46,230.34Z" style="fill:#263238"></path><path d="M426.19,228.34a1.36,1.36,0,0,0,.77,1.14,7.18,7.18,0,0,0,3.42.68,16.27,16.27,0,0,0,6.45-1.41l6.58-3c1.49-.68,2.36-1.58,2.4-2.46s-.59-1.59-1.77-2.27a9.46,9.46,0,0,0-4.65-1.1,11.25,11.25,0,0,0-6.27,1.8L429,224.6C427.23,225.79,426.15,227.26,426.19,228.34Z" style="fill:#FF725E"></path><path d="M426.19,228.34a1.36,1.36,0,0,0,.77,1.14,7.18,7.18,0,0,0,3.42.68,16.27,16.27,0,0,0,6.45-1.41l6.58-3c1.49-.68,2.36-1.58,2.4-2.46s-.59-1.59-1.77-2.27a9.46,9.46,0,0,0-4.65-1.1,11.25,11.25,0,0,0-6.27,1.8L429,224.6C427.23,225.79,426.15,227.26,426.19,228.34Z" style="fill:#fff;opacity:0.9"></path><path d="M442.68,225.2a6.78,6.78,0,0,1-6.17,0c-1.7-1-1.7-2.58,0-3.56a6.84,6.84,0,0,1,6.17,0C444.39,222.62,444.39,224.22,442.68,225.2Z" style="fill:#FF725E;opacity:0.2"></path><path d="M433.88,228a3.84,3.84,0,0,1-3.49,0,1.06,1.06,0,0,1,0-2,3.84,3.84,0,0,1,3.49,0A1.06,1.06,0,0,1,433.88,228Z" style="fill:#FF725E;opacity:0.2"></path><path d="M402,353.5a2.84,2.84,0,0,0-1.68-2.33,8.92,8.92,0,0,0-8.11,0,2.84,2.84,0,0,0-1.67,2.34v32.33a2.87,2.87,0,0,0,1.67,2.34,9,9,0,0,0,8.11,0,2.86,2.86,0,0,0,1.68-2.34Z" style="fill:#37474f"></path><path d="M391.53,385.78a10.46,10.46,0,0,1,9.44,0,2.88,2.88,0,0,1,0,5.45,10.4,10.4,0,0,1-9.44,0,2.87,2.87,0,0,1,0-5.45Z" style="fill:#455a64"></path></g><g id="freepik--street-lamps--inject-15"><path d="M103.75,366.75a.93.93,0,0,0,.93-.93V232.36a.93.93,0,0,0-1.86,0V365.82A.93.93,0,0,0,103.75,366.75Z" style="fill:#263238"></path><path d="M103.75,280.1a.93.93,0,0,0,.93-.93c0-8.13,8.49-21.81,22.2-29.73l7.55-4.36a.92.92,0,0,0,.34-1.27.94.94,0,0,0-1.27-.34L126,247.83c-14.28,8.25-23.13,22.69-23.13,31.34A.93.93,0,0,0,103.75,280.1Z" style="fill:#263238"></path><path d="M135.88,237.71l4.17-2.9c3.33-2.32,8.7-2.66,12-.75,1.52.88,2.27,2,2.27,3.06,0,.4,0,2,0,2.34,0,1.26-1,2.51-2.95,3.41l-6.58,3c-3.68,1.69-8.51,2-10.78.69a2.3,2.3,0,0,1-1.25-2.05c0-.4,0-1.94,0-2.32C132.7,240.84,133.8,239.16,135.88,237.71Z" style="fill:#455a64"></path><path d="M134,246.59c-2.27-1.32-1.42-4.26,1.91-6.57l4.17-2.91c3.33-2.31,8.7-2.65,12-.75s3,4.82-.71,6.51l-6.58,3C141.07,247.59,136.24,247.9,134,246.59Z" style="fill:#263238"></path><path d="M133.69,244.58a1.36,1.36,0,0,0,.77,1.14,7.18,7.18,0,0,0,3.42.68,16.27,16.27,0,0,0,6.45-1.41l6.58-3c1.49-.68,2.36-1.58,2.4-2.46s-.59-1.59-1.77-2.27a9.46,9.46,0,0,0-4.65-1.1,11.25,11.25,0,0,0-6.27,1.8l-4.17,2.91C134.73,242,133.65,243.5,133.69,244.58Z" style="fill:#FF725E"></path><path d="M133.69,244.58a1.36,1.36,0,0,0,.77,1.14,7.18,7.18,0,0,0,3.42.68,16.27,16.27,0,0,0,6.45-1.41l6.58-3c1.49-.68,2.36-1.58,2.4-2.46s-.59-1.59-1.77-2.27a9.46,9.46,0,0,0-4.65-1.1,11.25,11.25,0,0,0-6.27,1.8l-4.17,2.91C134.73,242,133.65,243.5,133.69,244.58Z" style="fill:#fff;opacity:0.9"></path><path d="M150.19,241.45a6.84,6.84,0,0,1-6.17,0c-1.71-1-1.71-2.58,0-3.56a6.78,6.78,0,0,1,6.17,0C151.89,238.87,151.89,240.46,150.19,241.45Z" style="fill:#FF725E;opacity:0.2"></path><path d="M141.39,244.2a3.9,3.9,0,0,1-3.49,0,1.07,1.07,0,0,1,0-2,3.9,3.9,0,0,1,3.49,0A1.07,1.07,0,0,1,141.39,244.2Z" style="fill:#FF725E;opacity:0.2"></path><path d="M103.75,263.85a.93.93,0,0,1-.93-.93c0-8.13-8.48-21.81-22.19-29.72l-7.56-4.36a.94.94,0,0,1-.34-1.27.92.92,0,0,1,1.27-.34l7.56,4.36c14.28,8.25,23.12,22.68,23.12,31.33A.92.92,0,0,1,103.75,263.85Z" style="fill:#263238"></path><path d="M71.63,221.47l-4.17-2.91c-3.33-2.31-8.7-2.65-12-.75-1.52.88-2.27,2-2.27,3.07,0,.4,0,2,0,2.33,0,1.26,1,2.51,3,3.42l6.58,3c3.68,1.69,8.51,2,10.78.69a2.28,2.28,0,0,0,1.25-2c0-.4,0-1.94,0-2.32C74.8,224.6,73.71,222.91,71.63,221.47Z" style="fill:#455a64"></path><path d="M73.54,230.34c2.27-1.31,1.42-4.25-1.91-6.57l-4.17-2.9c-3.33-2.32-8.7-2.65-12-.75s-3,4.81.71,6.51l6.58,3C66.44,231.34,71.27,231.65,73.54,230.34Z" style="fill:#263238"></path><path d="M73.81,228.34a1.36,1.36,0,0,1-.77,1.14,7.18,7.18,0,0,1-3.42.68,16.27,16.27,0,0,1-6.45-1.41l-6.58-3c-1.49-.68-2.36-1.58-2.4-2.46s.59-1.59,1.77-2.27a9.46,9.46,0,0,1,4.65-1.1,11.25,11.25,0,0,1,6.27,1.8l4.17,2.91C72.77,225.79,73.85,227.26,73.81,228.34Z" style="fill:#FF725E"></path><path d="M73.81,228.34a1.36,1.36,0,0,1-.77,1.14,7.18,7.18,0,0,1-3.42.68,16.27,16.27,0,0,1-6.45-1.41l-6.58-3c-1.49-.68-2.36-1.58-2.4-2.46s.59-1.59,1.77-2.27a9.46,9.46,0,0,1,4.65-1.1,11.25,11.25,0,0,1,6.27,1.8l4.17,2.91C72.77,225.79,73.85,227.26,73.81,228.34Z" style="fill:#fff;opacity:0.9"></path><ellipse cx="60.4" cy="223.42" rx="4.36" ry="2.52" style="fill:#FF725E;opacity:0.2"></ellipse><ellipse cx="67.87" cy="226.94" rx="2.47" ry="1.42" style="fill:#FF725E;opacity:0.2"></ellipse><path d="M98,353.5a2.84,2.84,0,0,1,1.68-2.33,8.92,8.92,0,0,1,8.11,0,2.84,2.84,0,0,1,1.67,2.34v32.33a2.87,2.87,0,0,1-1.67,2.34,9,9,0,0,1-8.11,0A2.86,2.86,0,0,1,98,385.84Z" style="fill:#37474f"></path><path d="M108.47,385.78a10.46,10.46,0,0,0-9.44,0,2.88,2.88,0,0,0,0,5.45,10.4,10.4,0,0,0,9.44,0,2.87,2.87,0,0,0,0-5.45Z" style="fill:#455a64"></path></g></g><g id="freepik--Floor--inject-15"><path id="freepik--floor--inject-15" d="M250,366.72a720.58,720.58,0,0,0-110,8.48h0q-11.22,1.77-22.09,3.92h0c-27,5.31-52.24,12.33-74.78,21.06-2.88,1.11-5.69,2.24-8.41,3.39q5.39,6,11.45,11.68c1.67,1.57,3.39,3.12,5.14,4.63C97.65,460.43,169.79,486.41,250,486.41s152.35-26,198.69-66.53c1.75-1.51,3.47-3.06,5.14-4.63q6.06-5.67,11.45-11.68c-2.72-1.15-5.53-2.28-8.41-3.39-22.54-8.73-47.82-15.75-74.78-21.06h0Q371.19,377,360,375.2h0a720.58,720.58,0,0,0-110-8.48" style="fill:#455a64"></path></g><g id="freepik--Shadow--inject-15"><path id="freepik--shadow--inject-15" d="M204.06,440.31a114.4,114.4,0,0,1,25.71,9.54c9.16,4.71,17.71,10.68,27.32,14.38,12.49,4.8,26.32,5.55,39.54,3.5,7.49-1.15,15.51-3.64,19.7-10a8.61,8.61,0,0,0,1.67-5.46c-.27-2.83-2.51-5.05-4.78-6.78-12.07-9.24-27.82-11.89-42.92-13.67s-24.39-5-39.68-11c-6.54-2.57-13-5.38-19.59-7.76l-.15-.06a96.84,96.84,0,0,0-10-3.42,74.16,74.16,0,0,0-16.86-2.47,33.9,33.9,0,0,0-16.49,3.74,7.62,7.62,0,0,0-3.24,2.88,6.09,6.09,0,0,0-.47,3.63,12.8,12.8,0,0,0,3.34,6.68,27,27,0,0,0,5.92,4.7C182.44,434.64,193.42,437.76,204.06,440.31Z" style="fill:#37474f"></path></g><g id="freepik--Character--inject-15"><g id="freepik--character--inject-15"><g id="freepik--Top--inject-15"><path d="M307,254.42C295.65,229,231.59,233,215.92,238.15c0,0,13.07-28.86,13.07-29.84s-3.59-46.11-3.59-46.11l53.78-3.9s6.1,45.12,12.87,55.44S307,254.42,307,254.42Z" style="fill:#FF725E"></path><path d="M307,254.42C295.65,229,231.59,233,215.92,238.15c0,0,13.07-28.86,13.07-29.84s-3.59-46.11-3.59-46.11l53.78-3.9s6.1,45.12,12.87,55.44S307,254.42,307,254.42Z" style="opacity:0.4"></path><g id="freepik--Arm--inject-15"><path d="M334.25,188.6c3.53-1.24,7-3.34,13-6.07s9.28-3.49,10.7.32,2.32,12.55-1.69,16.82-12.17.67-20.67,4Z" style="fill:#f28f8f"></path><path d="M270.12,150.37c10.55-.12,12.69,1.71,16.85,6.63,5.63,6.64,14,23.07,21.89,35.77l28.07-4.84,4.47,14.37s-25.06,9.2-31.93,11c-6.7,1.72-9.22,2.9-15.16-4.59-3.84-4.84-13.95-19.36-13.95-19.36Z" style="fill:#ffbda7"></path><path d="M270.12,150c5.7-.28,10.91,0,14.77,4.12s7.53,9.64,13.49,19.92,10.48,18.22,10.48,18.22l9.05-1s-1.93,2.26-2.13,7,1.41,10,5.4,11.34a146.61,146.61,0,0,1-14.51,5.05c-5.75,1.47-7.61-.4-10.28-2.84s-22.08-29.2-22.08-29.2Z" style="fill:#FF725E"></path><path d="M308.86,192.21c-3.36.75-8.87,4.5-9.63,7.89,0,0,.14-5.92,8.6-9.69Z" style="opacity:0.15"></path><g id="freepik--Coffee--inject-15"><g id="freepik--coffee--inject-15"><path d="M335.49,184.71a26.15,26.15,0,0,1,15.66-2.39c4.49,1,4.89,3.6.89,5.87a26.2,26.2,0,0,1-15.66,2.38C331.73,189.62,331.33,187,335.49,184.71Z" style="fill:#263238"></path><path d="M331.17,179.91l22.56-3.41,2.34,26.84h0c0,1-.72,2.08-2.33,3.08a20.14,20.14,0,0,1-13.53,2.06c-1.9-.47-3-1.28-3.24-2.23h0Z" style="fill:#f0f0f0"></path><path d="M353.73,176.5l.48,5.45a10.12,10.12,0,0,1-1.73,1.3c-4.57,2.76-12.62,4-18,2.73-.23,0-.43-.12-.64-.18a12.59,12.59,0,0,1-1.54-.58l-1.16-5.31Z" style="fill:#e0e0e0"></path><path d="M329.86,180.91l-.61-4.06,2.62-.4c.33-.24.68-.47,1.08-.71,4.74-2.79,12.78-4,18-2.73a11,11,0,0,1,1.18.36l2.56-.39.61,4.07h0c.21,1.32-.81,2.83-3.1,4.21-4.57,2.76-12.61,4-18,2.74C331.53,183.37,330.06,182.24,329.86,180.91Z" style="fill:#37474f"></path><path d="M332.47,172.62c4.74-2.79,12.79-4,18-2.74s5.68,4.55,1.11,7.32-12.61,4-18,2.73S327.73,175.4,332.47,172.62Z" style="fill:#455a64"></path><path d="M331.43,175.52h0l.31-3.47,6.45-1a26.39,26.39,0,0,1,6.42-1l6.26-1,1.33,3.23h0c.59,1.16-.18,2.58-2.39,3.87A23.79,23.79,0,0,1,335,178.49C332.39,177.92,331.2,176.8,331.43,175.52Z" style="fill:#37474f"></path><path d="M334.21,169.48a23,23,0,0,1,13.61-2.07c3.9.82,4.24,3.07.76,5a23,23,0,0,1-13.6,2.07C331,173.7,330.6,171.45,334.21,169.48Z" style="fill:#455a64"></path><path d="M333.05,172.23a1.19,1.19,0,0,0,.5.41,6.25,6.25,0,0,0,1.69.56,20.15,20.15,0,0,0,6.54,0,19.21,19.21,0,0,0,6.15-1.92,5.32,5.32,0,0,0,1.39-1,1.17,1.17,0,0,0,.33-.54c0-.1-.44-.63-2.11-1a19.22,19.22,0,0,0-6.44,0,19.83,19.83,0,0,0-6.25,1.94C333.35,171.47,333,172.11,333.05,172.23Z" style="fill:#263238"></path><path d="M333.55,172.64a6.25,6.25,0,0,0,1.69.56,20.15,20.15,0,0,0,6.54,0,19.21,19.21,0,0,0,6.15-1.92,5.32,5.32,0,0,0,1.39-1,5.61,5.61,0,0,0-1.63-.57,19.22,19.22,0,0,0-6.44,0,19.83,19.83,0,0,0-6.25,1.94A5.86,5.86,0,0,0,333.55,172.64Z" style="fill:#37474f"></path><g style="opacity:0.5"><path d="M337.39,172.15a1.91,1.91,0,0,0-1.55-.06c-.26.2,0,.55.63.78a1.93,1.93,0,0,0,1.56.06C338.28,172.73,338,172.38,337.39,172.15Z"></path></g><path d="M355.62,194.62c.16,1-.69,2.15-2.58,3.22a24.62,24.62,0,0,1-14.75,2.24c-2.19-.44-3.37-1.28-3.53-2.28l-2.13-9.66c.17,1.06,1.43,2,3.75,2.43A26.2,26.2,0,0,0,352,188.19c2-1.14,2.9-2.36,2.74-3.42Z" style="fill:#455a64"></path><path d="M348.83,196.24a15.11,15.11,0,0,0,.62-1.79,5,5,0,0,1,2.21-2.63.32.32,0,0,1,.42.08,3.87,3.87,0,0,1-4,5.54.13.13,0,0,1-.06-.18A3.28,3.28,0,0,0,348.83,196.24Z" style="fill:#FF725E"></path><path d="M351,191.6a5.58,5.58,0,0,0-1.45,1.24,4.78,4.78,0,0,0-.93,1.77,4.71,4.71,0,0,1-1.17,2.16.32.32,0,0,1-.45,0,3.41,3.41,0,0,1,.16-4.23A3.49,3.49,0,0,1,351,191,.31.31,0,0,1,351,191.6Z" style="fill:#FF725E"></path></g></g><path d="M354.06,180.26l.32,3.64s.07.87-3.22,2.94a4.08,4.08,0,0,0-1.82,2.46,3.63,3.63,0,0,0-.12,1.39c.14.61.68,1,.6,1.68a5.37,5.37,0,0,1-.58,1.33,2.56,2.56,0,0,0,.76,2.93c.24.19.54.36.61.65s-.17.66-.35.95c-.58.93-.56,2.42.64,2.82a3.82,3.82,0,0,0,1.81,0,1.4,1.4,0,0,0,.5,1.5c1.26.89,3-.48,3.89-1.28a10.45,10.45,0,0,0,2.56-4.26c.57-1.54,1.32-2.91,1-4.63a10.72,10.72,0,0,1-.47-2.78,9.7,9.7,0,0,0,.19-2.06c-.16-1-1.07-1.76-1.44-2.72a9.18,9.18,0,0,1-.35-2C358.22,180.54,356,180.22,354.06,180.26Z" style="fill:#ffbda7"></path></g><path d="M294.52,179.76c-1.2,16-5.56,15.52,1.87,32s13.56,24.39,15.08,34.84a67.08,67.08,0,0,1-2,27.64c-2.84-21.15-9.05-38.88-17.31-51.81S284.88,183.35,294.52,179.76Z" style="fill:#FF725E"></path><path d="M294.52,179.76c-1.2,16-5.56,15.52,1.87,32s13.56,24.39,15.08,34.84a67.08,67.08,0,0,1-2,27.64c-2.84-21.15-9.05-38.88-17.31-51.81S284.88,183.35,294.52,179.76Z" style="opacity:0.15"></path><g id="freepik--Chest--inject-15"><path d="M234.81,152.89l13-2.39,21.94-.58c3.15-.14,14.79,9,22.8,20.2,4.46,6.2,6,15.3-3,25.15-.75,9.31,2.7,14.79-.07,17.85l1.1,26.84c-6.52,16.46-49.88,16.67-69.39,2.58,1.92-10.83,11.68-22.83,12.47-32.48-3.27-3.73-1.37-4.15-3.74-16.27-1.89-9.66-6.07-27-5.62-29.85C225.28,157.6,234.81,152.89,234.81,152.89Z" style="fill:#fafafa"></path></g><g id="freepik--Head--inject-15"><path d="M263.53,134.39c1-1.95,1.82-4.16,3.38-5.74s3.62-2.4,5.42-3.59l5.79-3.82c7-4.06,6.33-13.34,4.44-18.12-4.22-10.68-16-14.35-23.28-14.5-13.73-.3-20.31,3.46-21.49,10.61-5.18,0-7.52,3.36-8.67,5-3.34,4.62-4.38,12.6-2.93,18.14,2.05,7.79,7.56,12,10.74,14.64,2.67,2.24,5.3,3.41,6.92,7.2C243.85,144.16,261.53,138.37,263.53,134.39Z" style="fill:#37474f"></path><path d="M240.1,134.71c-2.47.45-4.43-.79-5.91-2.44-3.31-3.68-3.59-7.41-2-9.88,1.29-2,4.44-3.31,6.63-1.92,2.34,1.49,2.41,2.7,3.29,4.37s4.32,1.54,5.18-5.17c.8-6.27,1.79-12,4.87-14.82,4.61-4.19,9.7-3.47,11.52-1,1.88-2.91,4.74-4.07,7.86-2.38s5.47,6.38,6.48,18.28c1,12.13-1.56,20.71-4.35,22.73-2.11,1.53-4.8,1.85-9.35,2l.44,7.08s8,16.24,7.89,26.63c0,0-4-6.46-15.62-16L244.38,152l-1.29-19.16A3.87,3.87,0,0,1,240.1,134.71Z" style="fill:#ffbda7"></path><path d="M259.46,120.16a2.14,2.14,0,0,1-2.52,1,1.58,1.58,0,0,1-1.31-2,2.14,2.14,0,0,1,2.52-1.05A1.59,1.59,0,0,1,259.46,120.16Z" style="fill:#263238"></path><path d="M257.43,118.06c-1.26,0-2,1.71-3.21,1a1.8,1.8,0,0,0,2.43,1C257.22,119.81,257.43,118.06,257.43,118.06Z" style="fill:#263238"></path><path d="M275.07,115.14l-4.25-2.2a2.29,2.29,0,0,1,3.15-1.08A2.52,2.52,0,0,1,275.07,115.14Z" style="fill:#263238"></path><path d="M270,119.6a2.13,2.13,0,0,0,2.56,1,1.59,1.59,0,0,0,1.22-2.09,2.1,2.1,0,0,0-2.55-1A1.59,1.59,0,0,0,270,119.6Z" style="fill:#263238"></path><path d="M272,117.41c1.26,0,2.08,1.63,3.25.9a1.8,1.8,0,0,1-2.39,1.11C272.23,119.15,272,117.41,272,117.41Z" style="fill:#263238"></path><path d="M258.31,113.23l-4.75,1.91a2.45,2.45,0,0,1,1.32-3.31A2.69,2.69,0,0,1,258.31,113.23Z" style="fill:#263238"></path><path d="M256.12,105.53a10.93,10.93,0,0,0-1.16,4.63c-.13,1.64-.16,5.47-1.18,7.79a5.94,5.94,0,0,1-4.43,3.7,7.84,7.84,0,0,1-3.85-.26c-.76-.32-2.31-.79-2.74-3.94a4.4,4.4,0,0,0,1.59,1,4.54,4.54,0,0,0,1.41.29,4.26,4.26,0,0,0,3.55-2.12c1.36-2.17,1.17-5,1.53-7.46.45-3.1.87-6.61,3.6-8.24a5.76,5.76,0,0,1,7.79,1.75C259,101.44,257,104,256.12,105.53Z" style="fill:#37474f"></path><path d="M257.87,130.76l6.66,1.91a3.48,3.48,0,0,1-4.61,2.27A3.25,3.25,0,0,1,257.87,130.76Z" style="fill:#b16668"></path><path d="M261.83,135.08a3.63,3.63,0,0,0-3.76-3.12c-.11,0-.22,0-.33,0a3.07,3.07,0,0,0,2.18,2.94A4.06,4.06,0,0,0,261.83,135.08Z" style="fill:#f0997a"></path><polygon points="263.5 116.45 264.79 128.36 271.27 125.91 263.5 116.45" style="fill:#f0997a"></polygon><path d="M264.29,144.54a42.61,42.61,0,0,1-12.93-2.48c-1.5-.6-3.58-3.27-5.29-6.27,0,0,1.29,5.94,4.57,7.93,5,3,13.82,3.55,13.82,3.55Z" style="fill:#f0997a"></path></g><path d="M243.14,151.35a39.63,39.63,0,0,0,16.11,29.72c4.7,3.45,9.69,5.33,13.83,5.33a11.08,11.08,0,0,0,3.67-.58,7.17,7.17,0,0,0,4.7-5.1c1.81-6.86-4.5-19.37-11.66-27.51h0a17.29,17.29,0,0,0-3.64-3.19l-1.5,0a.54.54,0,0,0,.31.55,14.33,14.33,0,0,1,4,3.27.18.18,0,0,0,.05.07l.54.63c2,2.45,3.6,5.52,3.28,8.1-.28,2.3-2.13,3.82-5.5,4.51-6,1.23-11.28-1.63-14.64-4.25-4.87-3.79-8.07-9-8.41-11.78ZM252,163.8c3.54,2.76,9.11,5.77,15.54,4.46,4.84-1,6.14-3.51,6.37-5.46a7.41,7.41,0,0,0-.18-2.63c4.72,7.12,8,15.31,6.68,20.27a6.08,6.08,0,0,1-4,4.34c-4.19,1.48-10.65-.33-16.48-4.6a39,39,0,0,1-15.28-24.85A28.49,28.49,0,0,0,252,163.8Z" style="fill:#FF725E"></path><path d="M264.64,150.05c9.63,4.95,19.79,10.55,26.82,18.63-6.39-9.33-16.86-18.64-20.6-18.76A49.59,49.59,0,0,0,264.64,150.05Z" style="fill:#FF725E"></path><path d="M264.64,150.05c9.63,4.95,19.79,10.55,26.82,18.63-6.39-9.33-16.86-18.64-20.6-18.76A49.59,49.59,0,0,0,264.64,150.05Z" style="opacity:0.15"></path></g><g id="freepik--Bottom--inject-15"><path d="M287.43,377.17c1.21,22.33,2.31,35.13,3.23,42,.78,5.81,1.74,11.26,3.46,15.22A39.78,39.78,0,0,0,301.07,445s6.78,6.43,5.41,7.21-14.66,3-20.74,1.54-7-6.49-9.61-15.63-5.5-22.21-5.5-22.21a12.84,12.84,0,0,0,.68-2c.42-1.52-4.29-17-6.35-23.25Z" style="fill:#ffbda7"></path><path d="M267.14,427.54c.37,2.17,2.2,4.64,3,8a60.43,60.43,0,0,1,1.6,11.74l.24,5.53,1.5-.06s-.3-7-.43-10.06.43-5.41,1.88-5.8C274.92,436.92,274.4,427.23,267.14,427.54Z" style="fill:#FF725E"></path><path d="M267.14,427.54c.37,2.17,2.2,4.64,3,8a60.43,60.43,0,0,1,1.6,11.74l.24,5.53,1.5-.06s-.3-7-.43-10.06.43-5.41,1.88-5.8C274.92,436.92,274.4,427.23,267.14,427.54Z" style="opacity:0.30000000000000004"></path><path d="M271.16,414.25c-.82,2.61-3.14,5.3-4.13,9.25a8.26,8.26,0,0,0,.39,5c1.25,1.18,2.05,1.58,3,2.39a12.54,12.54,0,0,1,3.87,4.6,90.52,90.52,0,0,1,4.29,11.87c1.19,4,1.7,6.4,5.29,8.21,2.8,1.4,11.24,2.68,16.88,2.7,7.71,0,10.69-4.1,7.65-6.88s-6.39-5.85-7.31-6.43a14,14,0,0,0-7.07,1.42c-4.19,2.1-5.41,4.68-10.06,2.7-4.21-1.8-7.22-9.45-7.52-20.35C276.09,416.37,271.16,414.25,271.16,414.25Z" style="fill:#FF725E"></path><path d="M246.37,355.08s-26.12,26.71-30,33.3c-2.88,4.9-5.12,8.52-6.22,12.57s-1,10.59-.76,13.91c0,0,1.24,9-.28,8.74s-12.9-6.63-16.64-11.42-1.38-9.17,2.2-17.66,9.8-20.21,9.8-20.21a6,6,0,0,0,1.37-.9c2.13-1.67,14.15-25.31,18.23-33.76Z" style="fill:#f0997a"></path><path d="M194.28,381.08c-1,1.87-1.15,4.86-2.61,7.9a58.08,58.08,0,0,1-5.91,9.87l-3.17,4.32,1.17.87,5.78-7.88c1.76-2.41,3.6-3.83,4.94-3.25C194.48,392.91,200,385.25,194.28,381.08Z" style="fill:#FF725E"></path><path d="M194.28,381.08c-1,1.87-1.15,4.86-2.61,7.9a58.08,58.08,0,0,1-5.91,9.87l-3.17,4.32,1.17.87,5.78-7.88c1.76-2.41,3.6-3.83,4.94-3.25C194.48,392.91,200,385.25,194.28,381.08Z" style="opacity:0.30000000000000004"></path><path d="M205.38,373.46c-2.2,1.48-5.59,2.11-8.74,4.5a8,8,0,0,0-2.73,4c.22,1.65.59,2.43.8,3.61a12.08,12.08,0,0,1,.14,5.83A88.47,88.47,0,0,1,190.91,403c-1.52,3.74-2.6,5.89-1,9.43,1.27,2.76,6.89,8.84,11.15,12.28,5.81,4.7,10.58,3.38,9.95-.57s-1.41-10.4-1.76-11.4c0,0-1.29-1.89-6.09-1.12-4.49.73-5,3.83-7.34-.49-2.1-3.91-1.65-15.1,4.73-23.53C207.83,378.05,205.38,373.46,205.38,373.46Z" style="fill:#FF725E"></path><path d="M205.38,373.46c-2.2,1.48-5.59,2.11-8.74,4.5a8,8,0,0,0-2.73,4c.22,1.65.59,2.43.8,3.61a12.08,12.08,0,0,1,.14,5.83A88.47,88.47,0,0,1,190.91,403c-1.52,3.74-2.6,5.89-1,9.43,1.27,2.76,6.89,8.84,11.15,12.28,5.81,4.7,10.58,3.38,9.95-.57s-1.41-10.4-1.76-11.4c0,0-1.29-1.89-6.09-1.12-4.49.73-5,3.83-7.34-.49-2.1-3.91-1.65-15.1,4.73-23.53C207.83,378.05,205.38,373.46,205.38,373.46Z" style="opacity:0.15"></path><path d="M240.2,264l14.29-26.13s27.18-14.37,34.95-24.75c0,0,2.35,26,.75,46.69-2.23,28.8-6.68,54.73-12.95,64.41s-49.53,50.85-49.53,50.85c-3.93-.05-14.47-6.74-15-13.53,0,0,10.31-20.43,14.26-28.84,5.16-11,8.74-15.9,19.81-26C244.39,296.4,240.2,264,240.2,264Z" style="fill:#37474f"></path><path d="M234.19,292.55c-5.67-14-10-21.61-12.17-31.47-3.12-14-1.65-22.86,0-27.48,4.58-13.08,10.84-18.84,11.63-23.54,0,0,6.75,7.93,27,8.76,23.13,1,28.86-5.7,28.86-5.7-.37,8.51-.78,17.38-3.11,24.58-4.69,14.46-14,18.39-14,18.39l8.27,39.38c3.42,20.7,4.45,17.17,6.36,58.07.84,18,2.16,46.44,2.16,46.44-2.7,1.87-15.83,4.41-20.81,2.57,0,0-5.66-18.25-9.11-30.39-8.08-28.36-6.75-22.86-6.91-39.5C252.26,332.66,240.69,308.55,234.19,292.55Z" style="fill:#455a64"></path></g><g id="freepik--arm--inject-15"><path d="M244.32,151.13c1.05,6.06,7.92,17.33,10.15,33.66s-4.35,90.36-7.23,101.75c-7.91-16.45-18.26-19.42-30.35-24.93-14.1-6.42-18.79-15.33-21-28.22,0,0,29.67-17.64,29.67-27.08,0-5.82-2-26.84.73-40.52a21.5,21.5,0,0,1,8.65-12.91Z" style="fill:#FF725E"></path><path d="M244.32,151.13c1.05,6.06,7.92,17.33,10.15,33.66s-4.35,90.36-7.23,101.75c-7.91-16.45-18.26-19.42-30.35-24.93-14.1-6.42-18.79-15.33-21-28.22,0,0,29.67-17.64,29.67-27.08,0-5.82-2-26.84.73-40.52a21.5,21.5,0,0,1,8.65-12.91Z" style="opacity:0.15"></path><polygon points="217.14 300.9 172.64 270.24 149.27 347.2 197.52 381.68 217.14 300.9" style="fill:#FF725E"></polygon><g style="opacity:0.5"><polygon points="217.14 300.9 172.64 270.24 149.27 347.2 197.52 381.68 217.14 300.9" style="fill:#fff"></polygon></g><polygon points="197.52 381.68 217.14 369.09 226.9 297.08 217.14 300.9 197.52 381.68" style="fill:#FF725E"></polygon><polygon points="217.14 369.09 205.6 368.33 197.52 381.68 217.14 369.09" style="fill:#FF725E"></polygon><g style="opacity:0.2"><polygon points="217.14 369.09 205.6 368.33 197.52 381.68 217.14 369.09" style="fill:#fff"></polygon></g><polygon points="205.6 368.33 219.85 297.7 217.14 300.9 197.52 381.68 205.6 368.33" style="fill:#FF725E"></polygon><g style="opacity:0.30000000000000004"><polygon points="205.6 368.33 219.85 297.7 217.14 300.9 197.52 381.68 205.6 368.33" style="fill:#fff"></polygon></g><polygon points="172.64 270.24 179.53 270 179.07 264.96 226.9 297.08 219.85 297.7 217.14 300.9 172.64 270.24" style="fill:#FF725E"></polygon><g style="opacity:0.2"><polygon points="172.64 270.24 179.53 270 179.07 264.96 226.9 297.08 219.85 297.7 217.14 300.9 172.64 270.24" style="fill:#fff"></polygon></g><polygon points="179.07 264.96 177.34 270.08 179.53 270 179.07 264.96" style="fill:#FF725E"></polygon><g style="opacity:0.5"><polygon points="179.07 264.96 177.34 270.08 179.53 270 179.07 264.96" style="fill:#fff"></polygon></g><path d="M201.79,296.35c-.06.74-.6,1-1.21.57a2.59,2.59,0,0,1-1-2.1.71.71,0,0,1,1.21-.57A2.56,2.56,0,0,1,201.79,296.35Z" style="fill:#263238"></path><path d="M188.16,287.78c-.07.74-.61,1-1.21.57a2.53,2.53,0,0,1-1-2.1c.06-.73.6-1,1.21-.57A2.59,2.59,0,0,1,188.16,287.78Z" style="fill:#263238"></path><path d="M208.23,289.77c-.06.74-.61,1-1.21.57a2.55,2.55,0,0,1-1-2.09c.06-.74.6-1,1.21-.57A2.54,2.54,0,0,1,208.23,289.77Z" style="fill:#263238"></path><path d="M196,282.05c-.06.74-.61,1-1.21.58a2.56,2.56,0,0,1-1-2.1c.06-.74.6-1,1.21-.57A2.55,2.55,0,0,1,196,282.05Z" style="fill:#263238"></path><polygon points="226.9 297.08 219.85 297.7 205.6 368.33 217.14 369.09 226.9 297.08" style="fill:#FF725E"></polygon><g style="opacity:0.5"><polygon points="226.9 297.08 219.85 297.7 205.6 368.33 217.14 369.09 226.9 297.08" style="fill:#fff"></polygon></g><polygon points="179.53 270 178.27 274.29 172.64 270.24 179.53 270" style="fill:#FF725E"></polygon><g style="opacity:0.30000000000000004"><polygon points="179.53 270 178.27 274.29 172.64 270.24 179.53 270" style="fill:#fff"></polygon></g><path d="M194.65,281.73a.44.44,0,0,1-.42-.33c-.92-3.63-2.89-12.18-1.39-13.26a1,1,0,0,1,1.14.07.43.43,0,0,1-.47.73.4.4,0,0,0-.19-.09c-.6.5.19,6.16,1.75,12.34a.43.43,0,0,1-.31.52Z" style="fill:#fafafa"></path><polygon points="215.93 297.81 196.86 365.36 181.44 372.74 207.86 297.89 207.9 294.85 215.93 297.81" style="fill:#FF725E"></polygon><polygon points="215.93 297.81 196.86 365.36 181.44 372.74 207.86 297.89 207.9 294.85 215.93 297.81" style="opacity:0.15"></polygon><polygon points="196.86 365.36 186.44 365.11 181.44 372.74 196.86 365.36" style="opacity:0.25"></polygon><polygon points="186.44 365.11 207.86 297.89 181.44 372.74 186.44 365.11" style="opacity:0.15"></polygon><polygon points="207.86 297.89 165.04 267.81 137.5 340.64 181.44 372.74 207.86 297.89" style="fill:#FF725E"></polygon><polygon points="215.93 297.81 170.52 266.76 171.47 269.38 165.04 267.81 207.86 297.89 207.9 294.85 215.93 297.81" style="fill:#FF725E"></polygon><polygon points="215.93 297.81 170.52 266.76 171.47 269.38 165.04 267.81 207.86 297.89 207.9 294.85 215.93 297.81" style="opacity:0.25"></polygon><polygon points="170.52 266.76 169.47 268.89 171.47 269.38 170.52 266.76" style="fill:#FF725E"></polygon><polygon points="171.47 269.38 170.51 271.35 165.04 267.81 171.47 269.38" style="fill:#FF725E"></polygon><polygon points="171.47 269.38 170.51 271.35 165.04 267.81 171.47 269.38" style="opacity:0.55"></polygon><path d="M196.67,299.34a.71.71,0,0,1-1.34.05,2.56,2.56,0,0,1-.08-2.32.7.7,0,0,1,1.33-.05A2.54,2.54,0,0,1,196.67,299.34Z" style="fill:#263238"></path><path d="M179.06,285.75a.7.7,0,0,1-1.33.05,2.54,2.54,0,0,1-.09-2.32.71.71,0,0,1,1.34-.05A2.56,2.56,0,0,1,179.06,285.75Z" style="fill:#263238"></path><path d="M195.88,298.65a.39.39,0,0,1-.18,0,.43.43,0,0,1-.22-.57c6.93-15.61,8.64-23,5.9-25.51a.43.43,0,0,1,.45-.72c4,1.57,5.53,16,5.68,17.59a.43.43,0,0,1-.39.47.45.45,0,0,1-.47-.39c-.31-3.28-1.39-10.72-3.22-14.57.46,3.54-1.23,10.12-7.16,23.48A.43.43,0,0,1,195.88,298.65Z" style="fill:#fafafa"></path><path d="M178.35,285a.45.45,0,0,1-.19-.05.43.43,0,0,1-.2-.58c4.64-9.33,8.26-15.78,10.86-17a.44.44,0,0,1,.57.22.42.42,0,0,1-.21.57c-2.5,1.14-6.5,8.64-10.44,16.57A.44.44,0,0,1,178.35,285Z" style="fill:#fafafa"></path><g id="freepik--Briefcase--inject-15"><path d="M135.46,319.17l20.23-49.69a4.41,4.41,0,0,1,2.73-2.16l1.76-.45a1.6,1.6,0,0,1,1.37.12h0L215,304.73l-26,53.14-53.39-37.72h0C135.35,320,135.28,319.62,135.46,319.17Z" style="fill:#37474f"></path><path d="M199.12,355.64l-8.87,2.3c-1.15.3-1.79-.18-1.43-1.07l20.23-49.69a4.41,4.41,0,0,1,2.73-2.16l1.76-.45c1.15-.3,1.89.19,1.65,1.11l-13.55,47.77A3.7,3.7,0,0,1,199.12,355.64Z" style="fill:#263238"></path><path d="M175.19,343.39a.81.81,0,0,0,.87-.41l9.84-23.55c.12-.3-.09-.6-.47-.68a.81.81,0,0,0-.91.4l-9.84,23.56c-.12.29.09.6.47.67Z" style="fill:#FF725E"></path><path d="M150.84,326.52a.83.83,0,0,0,.87-.41l9.84-23.56c.12-.29-.09-.6-.47-.67a.82.82,0,0,0-.91.4l-9.84,23.55c-.12.3.09.6.47.68Z" style="fill:#FF725E"></path><path d="M194.21,329.83c2,1.44,5.47.63,6.33-1.5l8.5-21.16a4.4,4.4,0,0,1,2.75-2.14l1.74-.46a1.76,1.76,0,0,1,1.29.06L161.55,267h0a1.57,1.57,0,0,0-1.37-.13l-1.76.45a4.48,4.48,0,0,0-2.74,2.16l-8.42,21c-1.2,3-.15,6.13,2.71,8.15Z" style="fill:#455a64"></path><polygon points="175.52 314.44 169.19 309.96 167.83 313.12 174.18 317.61 175.52 314.44" style="fill:#FF725E"></polygon></g><path d="M179.76,279.85c2.65-4.47,6.7-11.63,8.32-11.51l-.66-2.26s-1.59-.43-4.31,3.43c-2.24,3.16-5.62,8.74-5.62,8.74Z" style="fill:#37474f"></path><path d="M199.63,278c2.55,0,5.38-2.55,5.93-3.51s.76-4.66,0-5.87-4.14-6.24-5.56-6.09-4.11,7.06-3.39,10A14.76,14.76,0,0,0,199.63,278Z" style="fill:#f0997a"></path><path d="M234.89,153.25c-7.4,1.57-13.59,1.82-18.29,12.16-4.84,10.67-12.81,27.42-16.92,38.6s-10.58,35-12.54,42.35a67.08,67.08,0,0,0-2.12,9,74.22,74.22,0,0,0-.46,10.49,4.87,4.87,0,0,0,2,4.2,6.61,6.61,0,0,1,1.1.7c.61.57.75,1.48,1.21,2.17a3.81,3.81,0,0,0,2.36,1.5c.42.11.85.17,1.25.31,1.49.55,2.34,2.14,3.71,2.94a4.63,4.63,0,0,0,3.39.79,10.51,10.51,0,0,0,1.82-.67c.32-.15,1.23-.74,1.52-.91-2.13-.25-3.28-2.27-3.73-4a15.42,15.42,0,0,1-.22-6.31,3.41,3.41,0,0,1,.5-1.4.67.67,0,0,1,.62-.33c.27.05.4.35.48.61a15,15,0,0,0,2.42,5,3.27,3.27,0,0,0,1.87,1.28,1.51,1.51,0,0,0,1.78-1.06,2.15,2.15,0,0,0-.1-.91,40.35,40.35,0,0,1-1-7.32,26.71,26.71,0,0,0-.94-6.77c-.72-2.31-2.83-5.66-2-8,1.32-3.94,15.3-33.91,15.3-33.91s14.71-25.72,18.38-32.57C240.76,172.71,240.34,159.86,234.89,153.25Z" style="fill:#ffbda7"></path><path d="M202.4,269.58a8.34,8.34,0,0,0-.3,2.67,2.64,2.64,0,0,1,1.48.51,2.75,2.75,0,0,0-1.68-.21l-1.61,1.18,1.39-1.52S201.71,270,202.4,269.58Z" style="fill:#b16668"></path><path d="M234.93,152.88c-5.36.92-13.78,3-16.62,8.42-3.69,7.1-10.41,22-13.58,28.82s-10.33,30.35-10.33,30.35,1.68,2.57,7.79,5.45,8.73,2.8,8.73,2.8l8.3-16.27s17-29.65,18.65-33.14S242.69,159.64,234.93,152.88Z" style="fill:#FF725E"></path><path d="M199.22,272.86c.69,1.77,1.29,4.49-.8,9.12-2.28,5-3.88,8.31-3.88,8.31l2.55,1.81s3.21-6.71,4.45-9.93,2-7.73.14-10A3.08,3.08,0,0,0,199.22,272.86Z" style="fill:#37474f"></path></g></g></g></svg>