<svg xmlns="http://www.w3.org/2000/svg" xmlns:xlink="http://www.w3.org/1999/xlink" viewBox="0 0 750 500"><defs><clipPath id="freepik--clip-path--inject-4"><rect x="574.89" y="196.23" width="13.18" height="16.87" style="fill:#263238;stroke:#263238;stroke-linecap:round;stroke-linejoin:round"></rect></clipPath><clipPath id="freepik--clip-path-2--inject-4"><rect x="192.85" y="257.6" width="12.61" height="16.15" style="fill:#263238;stroke:#263238;stroke-linecap:round;stroke-linejoin:round"></rect></clipPath><clipPath id="freepik--clip-path-3--inject-4"><rect x="263.79" y="303.56" width="12.61" height="16.15" style="fill:#263238;stroke:#263238;stroke-linecap:round;stroke-linejoin:round"></rect></clipPath></defs><g id="freepik--background-simple--inject-4"><path d="M697.69,188.52S592.19,73.21,431.09,34,246.27,123.15,200.47,173.8s-129.22,45-170.11,107.13,4.09,171.74,204.45,199.55,188.1-79.33,312.4-59.7S814.64,334.91,697.69,188.52Z" style="fill:#92E3A9"></path><path d="M697.69,188.52S592.19,73.21,431.09,34,246.27,123.15,200.47,173.8s-129.22,45-170.11,107.13,4.09,171.74,204.45,199.55,188.1-79.33,312.4-59.7S814.64,334.91,697.69,188.52Z" style="fill:#fff;opacity:0.7000000000000001"></path></g><g id="freepik--Floor--inject-4"><line x1="14.4" y1="417.39" x2="733.32" y2="417.39" style="fill:none;stroke:#263238;stroke-linecap:round;stroke-linejoin:round"></line></g><g id="freepik--Pictures--inject-4"><rect x="95.48" y="54.41" width="47.8" height="61.45" style="fill:none;stroke:#263238;stroke-linecap:round;stroke-linejoin:round"></rect><rect x="98.57" y="58.38" width="41.62" height="53.52" style="fill:none;stroke:#263238;stroke-linecap:round;stroke-linejoin:round"></rect><rect x="112.66" y="76.5" width="13.44" height="17.28" style="fill:none;stroke:#263238;stroke-linecap:round;stroke-linejoin:round"></rect><rect x="39" y="100.34" width="47.8" height="61.45" style="fill:none;stroke:#263238;stroke-linecap:round;stroke-linejoin:round"></rect><rect x="42.08" y="104.31" width="41.62" height="53.52" style="fill:none;stroke:#263238;stroke-linecap:round;stroke-linejoin:round"></rect><rect x="56.18" y="122.43" width="13.44" height="17.28" style="fill:none;stroke:#263238;stroke-linecap:round;stroke-linejoin:round"></rect><rect x="156.63" y="100.34" width="47.8" height="61.45" style="fill:none;stroke:#263238;stroke-linecap:round;stroke-linejoin:round"></rect><rect x="159.71" y="104.31" width="41.62" height="53.52" style="fill:none;stroke:#263238;stroke-linecap:round;stroke-linejoin:round"></rect><rect x="173.81" y="122.43" width="13.44" height="17.28" style="fill:none;stroke:#263238;stroke-linecap:round;stroke-linejoin:round"></rect><rect x="95.48" y="125.53" width="47.8" height="35.9" style="fill:none;stroke:#263238;stroke-linecap:round;stroke-linejoin:round"></rect><rect x="98.57" y="127.85" width="41.62" height="31.26" style="fill:none;stroke:#263238;stroke-linecap:round;stroke-linejoin:round"></rect><rect x="112.66" y="138.44" width="13.44" height="10.09" style="fill:none;stroke:#263238;stroke-linecap:round;stroke-linejoin:round"></rect><rect x="121.21" y="176.95" width="30.92" height="23.23" transform="translate(325.23 51.9) rotate(90)" style="fill:none;stroke:#263238;stroke-linecap:round;stroke-linejoin:round"></rect><rect x="123.2" y="178.45" width="26.93" height="20.23" transform="translate(325.23 51.9) rotate(90)" style="fill:none;stroke:#263238;stroke-linecap:round;stroke-linejoin:round"></rect><rect x="132.32" y="185.3" width="8.69" height="6.53" transform="translate(325.23 51.9) rotate(90)" style="fill:none;stroke:#263238;stroke-linecap:round;stroke-linejoin:round"></rect><rect x="86.88" y="176.95" width="30.92" height="23.23" transform="translate(290.91 86.22) rotate(90)" style="fill:none;stroke:#263238;stroke-linecap:round;stroke-linejoin:round"></rect><rect x="88.88" y="178.45" width="26.93" height="20.23" transform="translate(290.91 86.22) rotate(90)" style="fill:none;stroke:#263238;stroke-linecap:round;stroke-linejoin:round"></rect><rect x="98" y="185.3" width="8.69" height="6.53" transform="translate(290.91 86.22) rotate(90)" style="fill:none;stroke:#263238;stroke-linecap:round;stroke-linejoin:round"></rect></g><g id="freepik--Sheves--inject-4"><path d="M584.89,123V417.39h118.6V123ZM694.2,408.91h-100V131.48h100Z" style="fill:#263238;stroke:#263238;stroke-linecap:round;stroke-linejoin:round"></path><polygon points="614.45 157.71 606.82 157.71 603 184.84 618.26 184.84 614.45 157.71" style="fill:#fff;stroke:#263238;stroke-linecap:round;stroke-linejoin:round"></polygon><polygon points="615.66 150.25 605.61 150.25 606.77 157.93 614.5 157.93 615.66 150.25" style="fill:#fff;stroke:#263238;stroke-linecap:round;stroke-linejoin:round"></polygon><circle cx="635.48" cy="173.37" r="12.41" transform="translate(230.48 692.86) rotate(-67.32)" style="fill:#fff;stroke:#263238;stroke-linecap:round;stroke-linejoin:round"></circle><rect x="649.51" y="224.49" width="39.83" height="40.65" style="fill:#fff;stroke:#263238;stroke-linecap:round;stroke-linejoin:round"></rect><rect x="656.42" y="231.55" width="26" height="26.54" style="fill:#fff;stroke:#263238;stroke-linecap:round;stroke-linejoin:round"></rect><rect x="595.31" y="227.77" width="9.85" height="36.95" style="fill:#fff;stroke:#263238;stroke-linecap:round;stroke-linejoin:round"></rect><rect x="605.57" y="227.77" width="9.85" height="36.95" style="fill:#fff;stroke:#263238;stroke-linecap:round;stroke-linejoin:round"></rect><rect x="619.53" y="227.77" width="9.85" height="36.95" transform="translate(-35.49 123.53) rotate(-10.99)" style="fill:#fff;stroke:#263238;stroke-linecap:round;stroke-linejoin:round"></rect><rect x="682.28" y="371.85" width="9.85" height="36.95" transform="translate(1374.41 780.66) rotate(180)" style="fill:#fff;stroke:#263238;stroke-linecap:round;stroke-linejoin:round"></rect><rect x="672.01" y="371.85" width="9.85" height="36.95" transform="translate(1353.88 780.66) rotate(180)" style="fill:#fff;stroke:#263238;stroke-linecap:round;stroke-linejoin:round"></rect><rect x="658.05" y="371.85" width="9.85" height="36.95" transform="translate(1239.41 899.86) rotate(-169.01)" style="fill:#fff;stroke:#263238;stroke-linecap:round;stroke-linejoin:round"></rect><ellipse cx="645.18" cy="325.56" rx="11.88" ry="18.8" style="fill:#fff;stroke:#263238;stroke-linecap:round;stroke-linejoin:round"></ellipse><path d="M649.83,303.14c.37-3.35,3.35-16.38,3.35-16.38h-16s3,13,3.35,16.38a11.1,11.1,0,0,1-1.49,6.33l6.14,5.4,6.15-5.4A11.1,11.1,0,0,1,649.83,303.14Z" style="fill:#fff;stroke:#263238;stroke-linecap:round;stroke-linejoin:round"></path><rect x="594.18" y="185.37" width="100.03" height="10.81" style="fill:#263238;stroke:#263238;stroke-linecap:round;stroke-linejoin:round"></rect><rect x="594.18" y="265.15" width="100.03" height="10.81" style="fill:#263238;stroke:#263238;stroke-linecap:round;stroke-linejoin:round"></rect><rect x="594.18" y="344.92" width="100.03" height="10.81" style="fill:#263238;stroke:#263238;stroke-linecap:round;stroke-linejoin:round"></rect></g><g id="freepik--musical-notes--inject-4"><path d="M175.91,54S198.65,73.5,258.42,72.2,368.86,38.42,439.67,54,524.12,80.65,561.15,69.6" style="fill:none;stroke:#263238;stroke-miterlimit:10"></path><path d="M175.91,65.71S198.65,85.2,258.42,83.9,368.86,50.12,439.67,65.71,524.12,92.34,561.15,81.3" style="fill:none;stroke:#263238;stroke-miterlimit:10"></path><path d="M175.91,77.4s22.74,19.49,82.51,18.19S368.86,61.81,439.67,77.4,524.12,104,561.15,93" style="fill:none;stroke:#263238;stroke-miterlimit:10"></path><path d="M458.93,50.83l5.16,12.44c1.37,3.3,2.6,6.66,4.16,9.87s-1.32,7.21-4.17,7.93a2.55,2.55,0,0,1-3.4-2.61c-.11-2.86,2.12-5.32,5.82-6.22l-5-12.06c-5.1,3.27-10,6.4-14.9,9.64-.33.22-.35,1.31-.14,1.85,1.58,4,3.27,8,4.9,12a5.77,5.77,0,0,1-3.43,7.86,3.57,3.57,0,0,1-3-.22,3.81,3.81,0,0,1-.89-3c.57-2.92,2.52-4.66,5.65-5.28L441.2,62.56ZM444.87,67.75l15.51-10.28c-.33-.75-.61-1.39-.94-2.16l-15.64,10C444.18,66.19,444.49,66.91,444.87,67.75Z" style="fill:#263238"></path><path d="M312.06,57.66v0l-21.24.74c-1.15,7.33-2.28,14.55-3.42,21.85-3-1.1-5.56-.64-7.56,1.55a3.8,3.8,0,0,0-.84,3,3.56,3.56,0,0,0,2.43,1.75,5.75,5.75,0,0,0,7-4.91c.7-4.25,1.33-8.52,2.08-12.76.1-.58.7-1.5,1.09-1.52,5.8-.21,11.61-.3,17.62-.42q-1,6.3-2,12.61c-3-1.1-5.57-.64-7.57,1.55a3.45,3.45,0,0,0-.59,1h0a2.55,2.55,0,0,0,1.53,4c2.81.87,7.34-.92,7.7-4.59.08-.78.18-1.57.29-2.35.59-3.65,1.15-7.29,1.79-10.92.1-.58.69-1.5,1.08-1.52,5.84-.21,11.69-.3,17.74-.42-.7,4.44-1.37,8.65-2,12.89C323.59,78,320.39,79,319,81.45a2.55,2.55,0,0,0,1.53,4c2.8.87,7.33-.92,7.7-4.59s1-7.06,1.61-10.58L331.94,57Zm-20.82,7,.34-2.6,18.49-.39-.36,2.34Zm38.47-1.3-18.6.65c.1-.79.2-1.48.3-2.24,0-.12,0-.24,0-.36L330,61.06C329.92,61.89,329.82,62.59,329.71,63.4Z" style="fill:#263238"></path><path d="M521.25,66.92c.17.62.6,1.29.48,1.84-.54,2.4.35,4.35,1.57,6.29a43.36,43.36,0,0,1,3,5.24c1.57,3.54.82,6.8-1.88,9.79,3.7-6.22.75-10.37-4.22-14a9.57,9.57,0,0,0-.41,1.14C518.41,83.63,517,90,515.63,96.4a6.8,6.8,0,0,1-8.64,5.08c-2.87-.85-3.58-3.54-1.37-5.58,2.52-2.32,5.48-2.67,8.83-1.34l6-27.41Z" style="fill:#263238"></path><path d="M226.31,50c.18.62.61,1.29.49,1.84-.54,2.4.34,4.35,1.56,6.29a40.86,40.86,0,0,1,3,5.24c1.57,3.54.82,6.8-1.87,9.79,3.7-6.22.75-10.37-4.22-14a7,7,0,0,0-.41,1.14c-1.41,6.39-2.79,12.77-4.19,19.16a6.79,6.79,0,0,1-8.63,5.08c-2.87-.85-3.59-3.54-1.37-5.58,2.52-2.32,5.47-2.67,8.83-1.34,2-9.19,4-18.3,6-27.41Z" style="fill:#263238"></path><path d="M489.47,73.58l1.39-6.42a5.56,5.56,0,0,1,.14-1c.12-.55-.31-1.23-.49-1.85l-.81.23c-2,9.12-4,18.23-6,27.41-3.36-1.32-6.31-1-8.83,1.34-2.22,2-1.5,4.74,1.37,5.58a6.78,6.78,0,0,0,8.63-5.08c1.4-6.38,2.78-12.77,4.19-19.15A7.12,7.12,0,0,1,489.47,73.58Z" style="fill:#263238"></path><path d="M266.8,74.24l1.39-6.41a8.4,8.4,0,0,1,.14-1c.12-.55-.31-1.22-.48-1.84l-.81.23-6,27.41c-3.35-1.32-6.31-1-8.83,1.34-2.21,2-1.5,4.73,1.37,5.58a6.8,6.8,0,0,0,8.64-5.08c1.4-6.38,2.78-12.77,4.18-19.16A8,8,0,0,1,266.8,74.24Z" style="fill:#263238"></path></g><g id="freepik--character-3--inject-4"><path d="M576.43,419.28s-5.06,8.73-6,9.42-8.27,6.66-7.58,8.27,9.42,1.84,14.47.23,8.5-6.2,11-8,6-3.22,6.2-6-4.82-11-4.82-11Z" style="fill:#fff;stroke:#263238;stroke-linecap:round;stroke-linejoin:round"></path><path d="M575.28,435.36c-4.27,1.15-9.34.54-11.9.1-.43.63-.65,1.17-.51,1.51.69,1.61,9.42,1.84,14.47.23s8.5-6.2,11-8,6-3.22,6.2-6a4.78,4.78,0,0,0-.24-1.63,26.11,26.11,0,0,0-5.27,3.23C587,426.63,581.25,433.75,575.28,435.36Z" style="fill:#fff;stroke:#263238;stroke-linecap:round;stroke-linejoin:round"></path><path d="M617.08,417.21s-.46,12.18.69,17.92,4.37,11,6.43,11.26,7.81-7.12,7.13-15.62a57,57,0,0,0-2.53-13.56Z" style="fill:#fff;stroke:#263238;stroke-linecap:round;stroke-linejoin:round"></path><path d="M623.75,443.4c-3.28,0-5.75-9.07-6.46-12a35.69,35.69,0,0,0,.48,3.71c1.15,5.74,4.37,11,6.43,11.26s7.81-7.12,7.13-15.62C630.87,434.44,627.65,443.4,623.75,443.4Z" style="fill:#fff;stroke:#263238;stroke-linecap:round;stroke-linejoin:round"></path><path d="M558.51,284.44S550.93,321,549.09,338s-.23,18.84.23,20.91,25.5,53.52,25.5,53.52-1.38,4.13-.92,5.51a34.07,34.07,0,0,0,1.84,3.91,38.59,38.59,0,0,0,7.81-.46c4.13-.69,9-5.28,9-5.28a69.44,69.44,0,0,1-2.75-7.59c-.69-2.75-1.38-4.82-1.61-6.43s-11-39.74-11.26-42.26-1.83-10.57-1.83-10.57l12.17-40s2.3,33.54,3.68,40.2,22.74,62.71,22.74,62.71a5,5,0,0,0,.23,3.68c.92,1.83,3,5.05,3.21,5.74s4.14,1.84,6.9,1.61a18.05,18.05,0,0,0,6.2-2.3s.46-5.05.46-8.27-3.22-6.2-3.22-8.5S618,344.63,618,344.63l10.11-56.74Z" style="fill:#263238;stroke:#263238;stroke-linecap:round;stroke-linejoin:round"></path><path d="M580.38,163.27s-9.77,4.1-16,8.79S545,190.43,545,190.43l-4.69,4.7s.78-25.22,1.56-28.93,2.15-8.4,2.15-8.4l7-2.15s2.54-4.5,3.32-5.67,3.32-2.93,2.93-4.1-4.49,1.75-5.47,2.54l-1,.78s2.93-8.21,2.93-10-.78-1.56-1.76-.59-3.91,6.84-3.91,6.84,2.15-10,2.15-10.74-1.17-1-2.15,0-3.9,10.35-3.9,10.35,1-8.6,1-9.38-1.17-1.76-2.34-.58-2.15,6.84-2.15,6.84l-1,1.95-1-5.08s1.18-3.13,0-3.52-2.15,2.15-2.34,3.71-1.17,5.28-1.17,7.63-.79,9.38-.79,9.38-6.64,16.81-9,31.85-1.17,33,.2,33.81,3.32,2.55,8.21,1,29.51-19.74,29.51-19.74,3.32,26.78,3.32,32.25-10,53-10,53,8,1.37,28.73,2.54,36.35-1.17,37.72-1,7.43.39,7.43.39.78-29.71,1.95-38.7,8-43.39,8-48.66,1-26.39-2.15-35-8-8.79-14.47-9.38-17.78-.19-17.78-.19Z" style="fill:#fff;stroke:#263238;stroke-linecap:round;stroke-linejoin:round"></path><path d="M539.93,146.07a2.19,2.19,0,0,1,2,1,13.9,13.9,0,0,1,1.76,3.12s2.74-2.34,5.67-.78" style="fill:none;stroke:#263238;stroke-linecap:round;stroke-linejoin:round"></path><path d="M624,158.38c-6.44-.58-17.78-.19-17.78-.19l-25.8,5.08s-9.77,4.1-16,8.79S545,190.43,545,190.43l-2.47,2.47,10,17.84c5.89-4.16,10.82-7.8,10.82-7.8s3.32,26.78,3.32,32.25-10,53-10,53,8,1.37,28.73,2.54,36.35-1.17,37.72-1,7.43.39,7.43.39.78-29.71,1.95-38.7,8-43.39,8-48.66,1-26.39-2.15-35S630.41,159,624,158.38Z" style="fill:#fff;stroke:#263238;stroke-linecap:round;stroke-linejoin:round"></path><path d="M573.79,232S584,265.92,592.1,279.39" style="fill:none;stroke:#263238;stroke-linecap:round;stroke-linejoin:round"></path><path d="M580.79,246s5.38,13.46,9.15,20.46" style="fill:none;stroke:#263238;stroke-linecap:round;stroke-linejoin:round"></path><line x1="563.38" y1="202.94" x2="560.12" y2="189.34" style="fill:none;stroke:#263238;stroke-linecap:round;stroke-linejoin:round"></line><path d="M617.71,159s9.77-3.13,15.64-.78,22.86,15.83,31.27,30.29a58.45,58.45,0,0,0-10.56,1.17c-5.67,1.18-19.74,1.37-19.74,1.37s-11.14-11.53-12.11-11.73" style="fill:#fff;stroke:#263238;stroke-linecap:round;stroke-linejoin:round"></path><path d="M634.32,191s14.07-.19,19.74-1.37a58.45,58.45,0,0,1,10.56-1.17,69.12,69.12,0,0,0-6.51-9.2c-13.8-3.74-22.24,5-25.7,9.78C633.56,190.23,634.32,191,634.32,191Z" style="fill:#fff;stroke:#263238;stroke-linecap:round;stroke-linejoin:round"></path><path d="M564.94,111.48s-2.34,11.33-2,12.7,1.37,5.28,1.37,5.28-1.57,6.84-.79,9.18,7,13.88,7,13.88a5.36,5.36,0,0,0,3.13,3.52c2.54,1,6.45-.2,6.45-.2s0,11.53.39,13.49,5.67,3.12,11.14-.39a114.74,114.74,0,0,0,11.72-8.8,20,20,0,0,1,2.74-1.95s-7.23-8-7-13.29a57.65,57.65,0,0,0-.19-8.41s2.93-1.17,3.71-3.12.39-6.45.39-6.45-2.15-16.42-2.34-17.4-4.3-3.32-11.53-4.3-16.22,3.72-18.37,4.5S564.94,111.48,564.94,111.48Z" style="fill:#fff;stroke:#263238;stroke-linecap:round;stroke-linejoin:round"></path><path d="M568.26,104.44s-1.36-2.54-2.14-1.56-.79,3.71-.79,3.71-2.73-2.73-2.93.39a6.38,6.38,0,0,0,3.52,6.45c2.15,1,5.28.59,7.62.2s7.82-3.72,11.73-3.72,3.91.4,2.73,2.74-2.15,7.23-.78,8.6,5.28,1.56,5.28,2.15.19,4.3,1.17,5.28a1.42,1.42,0,0,0,2.54-.59c.2-1.17-.19-2,1-3.13s4.69-.39,5.08.39l.78,1.57s1-5.67,2-10.56,1-6.45-2.35-11.92S587.42,96,579.4,98.58,568.26,104.44,568.26,104.44Z" style="fill:#263238;stroke:#263238;stroke-linecap:round;stroke-linejoin:round"></path><path d="M564.75,125.94s1.17-1.56,2.34-1.37,2.15,2.35,2.15,2.35" style="fill:none;stroke:#263238;stroke-linecap:round;stroke-linejoin:round"></path><path d="M574.91,123.2s3.71-2.73,7.23-1.17" style="fill:none;stroke:#263238;stroke-linecap:round;stroke-linejoin:round"></path><path d="M568.07,137.47s-1,2,0,2.74,3.32.78,3.32.78" style="fill:none;stroke:#263238;stroke-linecap:round;stroke-linejoin:round"></path><path d="M571.2,144.7s6.25.78,10.16-3.91" style="fill:none;stroke:#263238;stroke-linecap:round;stroke-linejoin:round"></path><ellipse cx="576.27" cy="128.31" rx="0.98" ry="2.05" style="fill:#263238"></ellipse><path d="M567.46,130.2c0,1.13-.43,2.05-1,2.05s-1-.92-1-2.05.44-2,1-2S567.46,129.07,567.46,130.2Z" style="fill:#263238"></path><path d="M580.19,155.84a35.76,35.76,0,0,0,10.35-6.45s-1,5.08-3.71,8.41a26.92,26.92,0,0,1-6.45,5.47Z" style="fill:#263238;stroke:#263238;stroke-linecap:round;stroke-linejoin:round"></path><path d="M540.32,195.13s-.59,5.86-2.15,9.18" style="fill:none;stroke:#263238;stroke-linecap:round;stroke-linejoin:round"></path><path d="M577.17,188.54l2.24-16.11h4.18l2.5,16.53a4.94,4.94,0,0,0,.86,2.14l.2.29a5,5,0,0,1,.91,2.88V220a2,2,0,0,1-2,2h-9.11a2,2,0,0,1-2-2V194.27a5,5,0,0,1,1.16-3.21h0A4.94,4.94,0,0,0,577.17,188.54Z" style="fill:#92E3A9;stroke:#263238;stroke-linecap:round;stroke-linejoin:round"></path><path d="M583.36,173h-3.71a.82.82,0,0,1-.82-.82h0a.82.82,0,0,1,.82-.81h3.71a.81.81,0,0,1,.81.81h0A.82.82,0,0,1,583.36,173Z" style="fill:#92E3A9;stroke:#263238;stroke-linecap:round;stroke-linejoin:round"></path><rect x="574.89" y="196.23" width="13.18" height="16.87" style="fill:#263238"></rect><g style="clip-path:url(#freepik--clip-path--inject-4)"><path d="M587.63,204.32a7.08,7.08,0,1,1-7.08-7.08A7.08,7.08,0,0,1,587.63,204.32Z" style="fill:#fff;stroke:#263238;stroke-linecap:round;stroke-linejoin:round"></path><path d="M584,204.32a3.48,3.48,0,1,1-3.48-3.48A3.48,3.48,0,0,1,584,204.32Z" style="fill:#92E3A9"></path></g><rect x="574.89" y="196.23" width="13.18" height="16.87" style="fill:none;stroke:#263238;stroke-linecap:round;stroke-linejoin:round"></rect><polygon points="577.96 182.91 585.17 182.91 584.71 179.82 578.39 179.82 577.96 182.91" style="fill:#fff;stroke:#263238;stroke-linecap:round;stroke-linejoin:round"></polygon><path d="M650.74,184.57s-33.22,7.62-39.09,8.8-9.38-.39-9.38-.39-9.38-7-11.14-7.63-13.68-3.71-16.42-4.69-4.69-.58-4.69.78a5.69,5.69,0,0,0,1.37,2.94l4.89,4.3s-6.45-2.15-6.45-1,1.95,1.56,2.54,2,6.45,3.13,7.23,3.52,6.84,4.11,12.31,5.67,7.43,1.95,8.41,1.95,34,6.06,44.56,5.08,20.52-3.9,21.69-5.47,2.54-5.67,1.37-8.4-11.34-9.38-12.31-9.38" style="fill:#fff;stroke:#263238;stroke-linecap:round;stroke-linejoin:round"></path><path d="M570,181.44a10.31,10.31,0,0,1,2.74,1.37,75.74,75.74,0,0,0,9.77,4.89" style="fill:none;stroke:#263238;stroke-linecap:round;stroke-linejoin:round"></path><path d="M572.33,180.33s10.84,4.36,12.41,4.69" style="fill:none;stroke:#263238;stroke-linecap:round;stroke-linejoin:round"></path><line x1="576.28" y1="188.68" x2="581.76" y2="190.79" style="fill:none;stroke:#263238;stroke-linecap:round;stroke-linejoin:round"></line></g><g id="freepik--character-2--inject-4"><path d="M481,107.11s-5.3-9.59-15.6-7-15.1,11.78-15.77,16.07-1.62,15.44-4.41,19.22-7.74,9.77-7.28,13.59,2.52.18,2.52.18-3.3,21.29,5.44,36,36.56,27.86,51.73,23,10.59-22.22,10.59-22.22,4.79,1.42,6.57-6.05,1.72-11.64-10.38-22.24-16.37-11.45-17.1-19.1,5.47-16.25,3.79-23.24S483.65,105.67,481,107.11Z" style="fill:#263238;stroke:#263238;stroke-linecap:round;stroke-linejoin:round"></path><polygon points="477.1 395.81 477.74 411.87 476.31 412.74 474.46 402.85 477.1 395.81" style="fill:#fff;stroke:#263238;stroke-linecap:round;stroke-linejoin:round"></polygon><path d="M455,416.33a2.79,2.79,0,0,0,1.9,3.45c2.67,1,6,.42,9.65-1.08s3.78-3.84,4.26-5.17,1.06-6.76,2.79-9.18,4.36-6.53,3.52-8.54a2.51,2.51,0,0,0-3-1.38Z" style="fill:#a6a6a6;stroke:#263238;stroke-linecap:round;stroke-linejoin:round"></path><path d="M420.35,275s-8.76,38.77-8.91,46.37,1.67,9.68,2,10.49,47.31,63.23,48,64.45.35,6.27-1.28,10.06-4.17,6.54-5.06,8-.46,3.88,3.24,3.94,9-.93,9.75-2.64.72-4.63,2.6-9.19,4.95-6.68,4.64-10.6a7.67,7.67,0,0,0-4.82-6.39,10.66,10.66,0,0,1-3-2.16s-17.88-40.29-20.13-47.28-10.37-15.2-10.37-15.2L455.5,286Z" style="fill:#fff;stroke:#263238;stroke-linecap:round;stroke-linejoin:round"></path><path d="M458.6,409.16s6.84-.11,9.61,5l1.85-4.17s.12-7.21-9.29-6.7Z" style="fill:#263238;stroke:#263238;stroke-linecap:round;stroke-linejoin:round"></path><path d="M455.79,437.66s-1.28,2.92,4.42,4.39,12.81-2.11,14-3.31,3.18-5.58,4-8.1a13.5,13.5,0,0,1,2.45-4.34l-.92,13.25,2.56.18,1.32-15.8a11.81,11.81,0,0,0,1-4.44c-.06-2.15-2.26-1.45-2.26-1.45s-12.91,15.85-16.7,17.73S455.79,437.66,455.79,437.66Z" style="fill:#a6a6a6;stroke:#263238;stroke-linecap:round;stroke-linejoin:round"></path><path d="M451.36,283.72s-7.88,42.31-7.7,50.91,21.69,67.81,22.14,70.63,0,11,0,11,.1,8.82-2.32,12.73-7.63,7.84-7.69,8.69,2.17,2.73,6.06,2.36,9.77-1.46,11.55-5.42S480.08,422,480.08,422a6.2,6.2,0,0,0,2.58-6.26c-.78-4.14-3.15-5.2-4-8.69s-1.75-19.07-1.8-26.69.12-19.25-2.24-27.42-4.34-16.67-4.34-16.67L489.56,293Z" style="fill:#fff;stroke:#263238;stroke-linecap:round;stroke-linejoin:round"></path><path d="M460.65,432.64s7,.92,9.94,5.2a11.72,11.72,0,0,0,5-4.37,16,16,0,0,0-5.21-5.31c-3.7-2.4-5.83-2.55-5.83-2.55S461,430.09,460.65,432.64Z" style="fill:#263238;stroke:#263238;stroke-linecap:round;stroke-linejoin:round"></path><path d="M429.33,245.45l-7.49,20.07L416.42,279A96.25,96.25,0,0,0,412,293.21l-4.45,16.62s26.52,13.09,47.41,16.66,27.44,2.73,27.44,2.73,14.82-47,12.84-63.45c-1-8.39-2.07-13.71-2.07-13.71s-15.67,4.88-32.16,3.57S429.33,245.45,429.33,245.45Z" style="fill:#263238;stroke:#263238;stroke-linecap:round;stroke-linejoin:round"></path><path d="M451.64,272.86s8.89-8.65,12.3-10.85" style="fill:none;stroke:#8f8f8f;stroke-miterlimit:10"></path><line x1="459.58" y1="263.82" x2="453.76" y2="268.13" style="fill:none;stroke:#8f8f8f;stroke-miterlimit:10"></line><path d="M453.25,145s-.1,11.75-1.68,13.62-2.8,1.25-9.12,1.17-11.7,1.9-13.26,3.42-14.89,11.25-14.89,11.25,6-37.75,7-41.12,6.93-11.33,7.64-12.66-.17-4.17-.33-6.33-.59-4.65-2.06-3.52-1,3.61-1,3.61-.88-9.43-.93-10.82-1.09-2.07-1.73-1.66S422,112,422,112s-1.38-11-1.32-11.93-1-1.14-1.68-.12-.2,11.67-.2,11.67-2.6-8.94-2.85-9.73-1.73.5-1.28,2.83.78,8.66.78,8.66-1.88-3.82-2.68-5.56-1.76,1-1.16,3.3,1.12,3.76,1.12,3.76.44,9.1.6,11.26a71,71,0,0,1-.77,8.74s-9.2,28.1-12.06,38-3.59,20.36-3.3,21.29,4,5.84,5.68,5.05,30.19-13.75,30.19-13.75-2.24,6.17-2.13,9.79,4.12,23.79,4.12,23.79-6.33,20.71-7.06,23.38-.19,5.41,1,6,13.37,10.52,35,11.31,28.42-5.79,29.1-7.73,1.32-3.34.4-5.76-2.11-5.93-2.11-5.93-10.23-20.27-7.9-27.7,9.31-24.66,9.83-32-1.54-13.1-4.64-15.3-13-4.89-15-5.39a9.4,9.4,0,0,1-2.81-1.1l-1.73-9Z" style="fill:#fff;stroke:#263238;stroke-linecap:round;stroke-linejoin:round"></path><path d="M406.91,153.47s5.53,3.64,10.91,1.66a5.46,5.46,0,0,1,1.95,5.74A7.17,7.17,0,0,1,416,166s-6.83,2.06-12.49-2.32C403.48,163.71,400.62,155.56,406.91,153.47Z" style="fill:#92E3A9;stroke:#263238;stroke-linecap:round;stroke-linejoin:round"></path><path d="M425.51,114.39l-.08,3.38s-5.2,1.79-5.8,3.9-.83,3-.83,3" style="fill:none;stroke:#263238;stroke-linecap:round;stroke-linejoin:round"></path><path d="M415.44,115.54s6-2.66,7.57-2.7" style="fill:none;stroke:#263238;stroke-linecap:round;stroke-linejoin:round"></path><line x1="414.3" y1="174.41" x2="413.6" y2="184.49" style="fill:none;stroke:#263238;stroke-linecap:round;stroke-linejoin:round"></line><line x1="438.27" y1="175.54" x2="437.82" y2="169" style="fill:none;stroke:#263238;stroke-linecap:round;stroke-linejoin:round"></line><path d="M491.42,240.37s-10.23-20.27-7.9-27.7c1.24-4,3.83-10.77,6-17.35-2.28.21-4.18,2.94-8.62-1.61-6.08-6.21-5.15-14.28-4.48-18.75.58-3.83,2.08-11.42,2.5-13.54-.61-.18-1.19-.36-1.74-.51-.54,1.8-5.31,17.52-7.88,20.24-2.73,2.88-16.24,9.89-17.28,9.28s-8.42-16.68-8.32-18.12c.08-1.11,3.33-8.93,4.8-12.41-.61,0-1.34,0-2.26,0-1.79,3.52-9.73,19.15-13.22,25.63,0,0-2.24,6.17-2.13,9.79s4.12,23.79,4.12,23.79-6.33,20.71-7.06,23.38-.19,5.41,1,6,13.37,10.52,35,11.31,28.42-5.79,29.1-7.73,1.32-3.34.4-5.76S491.42,240.37,491.42,240.37Z" style="fill:#92E3A9;stroke:#263238;stroke-linecap:round;stroke-linejoin:round"></path><path d="M446.63,200.9s2.26,16.79,6.87,25.79" style="fill:none;stroke:#263238;stroke-linecap:round;stroke-linejoin:round"></path><path d="M443.11,199.39s-1.06,10.05.82,16.87" style="fill:none;stroke:#263238;stroke-linecap:round;stroke-linejoin:round"></path><path d="M482.82,190.05l19.39,32s-.92,13.13-1.56,22.31S499,260,498.36,261.57a19.46,19.46,0,0,1-1.06,2.27s-6.22,3.55-6.87,5.13-1.46,5.32-2.3,7.07-2,2.21-.93,3a2.4,2.4,0,0,0,2.33.16,6.59,6.59,0,0,1-2.1,1.66c-.92.3-5.09.37-4.8,1.48s.46,1.11,2.95,1.65,6.44,1,7.41.15,6.82-7.11,7.92-9.93,3.35-9.17,4.17-10.56a108.08,108.08,0,0,0,8.63-25.07c2.7-12.82,3-17.32,2.58-18.8s-14.75-33.68-16.38-38.85-5.74-16.14-15.6-17.37" style="fill:#fff;stroke:#263238;stroke-linecap:round;stroke-linejoin:round"></path><path d="M489.53,279.21a35.79,35.79,0,0,1,3.65-5.53" style="fill:#fff;stroke:#263238;stroke-linecap:round;stroke-linejoin:round"></path><path d="M451.88,123.16S449.93,138,450.63,141s4.51,13.15,8.16,15.22,5,.71,5.58.39,11.73-7.5,12.94-9.23S483,130.58,483,130.58l-4.1-13.85s-5.51-1.29-15,.22S451.88,123.16,451.88,123.16Z" style="fill:#fff;stroke:#263238;stroke-linecap:round;stroke-linejoin:round"></path><path d="M464.61,142.67s2.4,2,4.41,1.57" style="fill:none;stroke:#263238;stroke-linecap:round;stroke-linejoin:round"></path><path d="M459.61,144.49a8.7,8.7,0,0,0,7.33,3.77" style="fill:none;stroke:#263238;stroke-linecap:round;stroke-linejoin:round"></path><path d="M457.34,130.41s2.78,4.17,7.56,3.06" style="fill:none;stroke:#263238;stroke-linecap:round;stroke-linejoin:round"></path><path d="M465.49,130.08s-3.87-4.07-8.28-3.11" style="fill:none;stroke:#263238;stroke-linecap:round;stroke-linejoin:round"></path><path d="M471.81,135.4s2,2.67,6.87,2.65" style="fill:none;stroke:#263238;stroke-linecap:round;stroke-linejoin:round"></path><path d="M472.21,132.35s3.32-1,7.43,2.33" style="fill:none;stroke:#263238;stroke-linecap:round;stroke-linejoin:round"></path><path d="M451.69,125.86s-1.13-4.6-3.12-2-1.49,5.86-.92,8.07a7.13,7.13,0,0,0,2.82,3.64Z" style="fill:#fff;stroke:#263238;stroke-linecap:round;stroke-linejoin:round"></path><path d="M482.27,133.24s1.86-.78,1.51,1.73-4.29,6.93-4.29,6.93Z" style="fill:#fff;stroke:#263238;stroke-linecap:round;stroke-linejoin:round"></path></g><g id="freepik--characters-1--inject-4"><path d="M381.43,328.13v93.72a6.65,6.65,0,0,1-6.65,6.65H96.39a6.65,6.65,0,0,1-6.65-6.65V272.25H366.25Z" style="fill:#92E3A9;stroke:#263238;stroke-linecap:round;stroke-linejoin:round"></path><path d="M98.4,275.92a32.33,32.33,0,0,0-9,1.27v61.9a32.22,32.22,0,0,0,28-5v-52A32.12,32.12,0,0,0,98.4,275.92Z" style="fill:#263238;stroke:#263238;stroke-linecap:round;stroke-linejoin:round"></path><path d="M372.47,275.92a32.33,32.33,0,0,1,9,1.27v61.9a32.22,32.22,0,0,1-28-5v-52A32.12,32.12,0,0,1,372.47,275.92Z" style="fill:#263238;stroke:#263238;stroke-linecap:round;stroke-linejoin:round"></path><rect x="116.85" y="356" width="229.79" height="31.84" style="fill:#92E3A9;stroke:#263238;stroke-linecap:round;stroke-linejoin:round"></rect><circle cx="367.68" cy="303.89" r="32.22" transform="translate(-7.36 598.64) rotate(-77.74)" style="fill:#92E3A9;stroke:#263238;stroke-linecap:round;stroke-linejoin:round"></circle><circle cx="98.4" cy="303.89" r="32.22" transform="translate(-219.43 335.73) rotate(-77.78)" style="fill:#92E3A9;stroke:#263238;stroke-linecap:round;stroke-linejoin:round"></circle><line x1="116.85" y1="356" x2="116.85" y2="332.56" style="fill:none;stroke:#263238;stroke-linecap:round;stroke-linejoin:round"></line><path d="M194.61,234.74s11.83.64,13.94,9.72-1.9,52.79-1.9,52.79a67.23,67.23,0,0,1,4.86,20.48c1.05,12.25,4.85,29.56,5.49,29.56s2.32,1.48,2.95,1.69,8.2,2.74,7.9,1.69,6.46,4.65,6.46,4.65a10.81,10.81,0,0,1-3.59.42H212.77a12.32,12.32,0,0,1-4.22-3.59c-1.9-2.53-3.59-15.42-3.59-15.42l-10.56-45.4Z" style="fill:#fff;stroke:#263238;stroke-linecap:round;stroke-linejoin:round"></path><path d="M179,233.27s15.08,1.33,17.63,1.33,3.91,6.48,3.91,12.81,3.37,25.76,2.11,30.83-3.38,13.31-3.38,13.31,7.18,21.75,8.23,28.08,4.23,21.54-.84,30S190.6,356,190.6,356H144.15a13.85,13.85,0,0,1-8.87-10.35c-1.48-8,.42-22,4.43-29.56s13.09-28.72,13.09-28.72L133,251.64s5.28-5.28,11.2-7.39S167.8,235,167.8,235Z" style="fill:#fff;stroke:#263238;stroke-linecap:round;stroke-linejoin:round"></path><path d="M206.65,349.62c5.07-8.45,1.9-23.65.84-30s-8.23-28.08-8.23-28.08,2.11-8.24,3.38-13.31c.49-2,.28-6.09-.16-10.77-3.32-5.64-7.8-11.66-9.63-11.74-3-.13-10.91,18.5-10.91,18.5S167.8,260.29,164,262s-10.14,14.78-10.14,14.78l-4.68,4.05,3.62,6.51s-9.08,21.12-13.09,28.72-5.91,21.54-4.43,29.56A13.85,13.85,0,0,0,144.15,356H190.6S201.58,358.06,206.65,349.62Z" style="fill:#263238;stroke:#263238;stroke-linecap:round;stroke-linejoin:round"></path><path d="M181.16,244.88c-1.16-2.46-.46-10.68-.46-10.68s1.76.4,3.36.84,4.19,1.3,5.64-2.32,3.33-9.4,3.33-9.4,2.84-.5,3.27-2.09-2.12-4.57-2.7-6,.44-3.06-.43-10-4.77-9.55-4.77-9.55-2.32-1.88-6.8-1.3-6.08,1.74-6.08,1.74" style="fill:#fff;stroke:#263238;stroke-linecap:round;stroke-linejoin:round"></path><path d="M187.53,213.62s1.88-1.3,3.47-.14" style="fill:none;stroke:#263238;stroke-linecap:round;stroke-linejoin:round"></path><path d="M191.14,208.13s-3.32-1.74-5.06,1.59" style="fill:none;stroke:#263238;stroke-linecap:round;stroke-linejoin:round"></path><path d="M190.28,225.92a7.93,7.93,0,0,1-5.79-2.46" style="fill:none;stroke:#263238;stroke-linecap:round;stroke-linejoin:round"></path><path d="M195.49,191.61c-1.6-3.91-6.8-2.75-6.8-2.75a143.71,143.71,0,0,0-15.43-3.61c-6.65-1-12.82,3.42-15.57,6-6.91,6.63-8.41,28.58-8.41,37.84s-5.16,10.25-5.16,10.25-3.38,2.62-1.65,6,8.71,11.24,14.79,14c.43.2.93.39,1.46.58l1.71-5.73.41,6.42c2.89.84,6.41,1.59,9.61,2.18l.28-3.65,1.61,4c3.92.68,6.94,1.08,6.94,1.08s-.87-2.31-1-8.54,2.46-50.29,3.33-54.78a11.62,11.62,0,0,1,3.61-6.65,27.38,27.38,0,0,0,3.19,1.44c1.88.73,3.47,4.2,3.47,4.2S197.08,195.52,195.49,191.61Z" style="fill:#263238;stroke:#263238;stroke-linecap:round;stroke-linejoin:round"></path><path d="M141.13,246s-13,7.13-13,12.41,21.27,45.82,24.69,52.24,14.28-5.71,14.28-7.28-18-39.54-18-39.54" style="fill:#fff;stroke:#263238;stroke-linecap:round;stroke-linejoin:round"></path><path d="M195,250.24l2.14-15.42h4l2.39,15.82a4.77,4.77,0,0,0,.82,2.05l.19.28a4.77,4.77,0,0,1,.88,2.76v24.65a1.94,1.94,0,0,1-2,1.94h-8.72a1.94,1.94,0,0,1-1.94-1.94V255.73a4.79,4.79,0,0,1,1.11-3.08h0A4.81,4.81,0,0,0,195,250.24Z" style="fill:#92E3A9;stroke:#263238;stroke-linecap:round;stroke-linejoin:round"></path><path d="M201,235.37H197.4a.77.77,0,0,1-.78-.77h0a.78.78,0,0,1,.78-.78H201a.78.78,0,0,1,.78.78h0A.77.77,0,0,1,201,235.37Z" style="fill:#92E3A9;stroke:#263238;stroke-linecap:round;stroke-linejoin:round"></path><rect x="192.85" y="257.6" width="12.61" height="16.15" style="fill:#263238"></rect><g style="clip-path:url(#freepik--clip-path-2--inject-4)"><circle cx="198.27" cy="265.35" r="6.78" style="fill:#fff;stroke:#263238;stroke-linecap:round;stroke-linejoin:round"></circle><path d="M201.6,265.35a3.33,3.33,0,1,1-3.33-3.33A3.33,3.33,0,0,1,201.6,265.35Z" style="fill:#92E3A9"></path></g><rect x="192.85" y="257.6" width="12.61" height="16.15" style="fill:none;stroke:#263238;stroke-linecap:round;stroke-linejoin:round"></rect><polygon points="195.78 244.86 202.69 244.86 202.25 241.89 196.19 241.89 195.78 244.86" style="fill:#fff;stroke:#263238;stroke-linecap:round;stroke-linejoin:round"></polygon><path d="M151.83,306.94s3.29,7.28,5.57,9.56,5.85,2.86,7.56,2.14,8.43-11.84,12.28-25,7.14-14.14,7.14-14.14,3.71.86,4.56.43,3.86-2.14,3.86-2.14c-.06-1.14,8.26-.89,9.85-1.43a3.15,3.15,0,0,0,2-2.28s1.85-.71,1.42-1.86a9,9,0,0,0-1.42-2.28s2.42-1.85,1.71-2.43a51.16,51.16,0,0,0-5.43-2.42l-8-.72s3.43-2.71,4.43-3.28,5.42,0,6.42-.14.86-2.43-.14-2.57-7.57-1-9.14-1-7.42,4.85-8.42,6S174.53,280,174.53,280l-20.27,23.55" style="fill:#fff;stroke:#263238;stroke-linecap:round;stroke-linejoin:round"></path><polyline points="204.65 269.97 200.22 268.69 192.66 268.83" style="fill:none;stroke:#263238;stroke-linecap:round;stroke-linejoin:round"></polyline><polyline points="204.65 274.11 199.36 273.11 193.08 273.11" style="fill:none;stroke:#263238;stroke-linecap:round;stroke-linejoin:round"></polyline><path d="M143.09,335.68s5.7-11.19,31.25-18.58c0,0-11,22.17-4.43,38.22" style="fill:#263238;stroke:#263238;stroke-linecap:round;stroke-linejoin:round"></path><path d="M194.82,316s9.93-4,14.36-2.11,7,4.43,6.34,13.3-11,35-15,45S183,404.31,183,404.31s-5.91,15.41-8.87,19.63-9.29,5.49-11,4.44-1.05-8.66.63-12.25,9.51-10.56,10.35-12,.42-5.06,1.9-6.75,4-4.65,4-4.65Z" style="fill:#fff;stroke:#263238;stroke-linecap:round;stroke-linejoin:round"></path><path d="M174.13,423.94a38,38,0,0,0,2.74-5.08c-3.63,3.06-8.93,1.08-9.71-1.46-.84-2.75,1.06-6.34,1.06-6.34l-.67.1a24.57,24.57,0,0,0-3.77,5c-1.68,3.59-2.32,11.19-.63,12.25S171.17,428.17,174.13,423.94Z" style="fill:#263238;stroke:#263238;stroke-linecap:round;stroke-linejoin:round"></path><path d="M174.34,317.1s16.68-4,20.7-3,4.22,9.5,1.69,18.37-7.61,56.8-7.61,68.84S190,420.57,190,429s0,12.67-.64,14.57-2.53,3.59-4.43,2.32-7-4.64-8.23-11,1.9-21.11,1.47-24.49-6.7-42.76-8.6-48.67-.86-10.4-1-12.42c0,0-2.16-5.78.72-17.33S174.34,317.1,174.34,317.1Z" style="fill:#fff;stroke:#263238;stroke-linecap:round;stroke-linejoin:round"></path><path d="M168.53,349.34s.87-13.58,6.65-23.4" style="fill:#fff;stroke:#263238;stroke-linecap:round;stroke-linejoin:round"></path><path d="M189.33,443.58c.53-1.58.62-4.78.64-10.67-1,2.7-2.06,5.12-3,5.39a7.81,7.81,0,0,1-7.6-2.53c-1.64-2.26-2.68-9.86-2.74-10.31a36.59,36.59,0,0,0,0,9.46c1.26,6.34,6.33,9.72,8.23,11S188.7,445.48,189.33,443.58Z" style="fill:#263238;stroke:#263238;stroke-linecap:round;stroke-linejoin:round"></path><path d="M323.33,399.7S313,425.59,312,427.69s-1.77,6.15-.32,7.28,8.74,1.62,12.62,1.13a21.07,21.07,0,0,1,8.9.81c1.13.49,10.35,1.62,12.94.81s6.63-3.07,6.15-4.69-7.93-2.43-11.81-5.18-9.71-9.87-9.71-9.87l7.44-20.06Z" style="fill:#fff;stroke:#263238;stroke-linecap:round;stroke-linejoin:round"></path><path d="M352.29,433c-.49-1.62-7.93-2.43-11.81-5.18s-9.71-9.87-9.71-9.87a3.7,3.7,0,0,0-2.26,3.08c-.33,2.42-.49,3.55-.49,3.55a63.56,63.56,0,0,1-13.87-2.1c-1.09,2.68-1.91,4.66-2.15,5.18-1,2.1-1.77,6.15-.32,7.28s8.74,1.62,12.62,1.13a21.07,21.07,0,0,1,8.9.81c1.13.49,10.35,1.62,12.94.81S352.77,434.65,352.29,433Z" style="fill:#fff;stroke:#263238;stroke-linecap:round;stroke-linejoin:round"></path><path d="M346.14,437.72c1.92-.6,4.65-2,5.72-3.35-8.22,2.27-18.15-.08-19.31-.37s-5.5.32-12.78.32A28.28,28.28,0,0,1,310.9,433a2.69,2.69,0,0,0,.78,2c1.46,1.13,8.74,1.62,12.62,1.13a21.07,21.07,0,0,1,8.9.81C334.33,437.4,343.55,438.53,346.14,437.72Z" style="fill:#fff;stroke:#263238;stroke-linecap:round;stroke-linejoin:round"></path><path d="M308.34,325.73s4.3-.91,5.21-.91.91,3.85.91,3.85S335.09,326,345.07,326s19.95,2.95,19.27,8.39-15.87,63.94-15.87,63.94-12,2.72-17,3.17-10.43.68-10.43.68L330.1,365a15.62,15.62,0,0,0-.9-4.76,25.42,25.42,0,0,0-2-4.31H245.08l1.13-30.61Z" style="fill:#a6a6a6;stroke:#263238;stroke-linecap:round;stroke-linejoin:round"></path><path d="M341.4,343.79c1.76-.92,3-1.51,3-1.51" style="fill:none;stroke:#263238;stroke-linecap:round;stroke-linejoin:round"></path><path d="M327.16,355.88s-.91,0,2-3.85c1.57-2.06,5.8-4.71,9.4-6.72" style="fill:none;stroke:#263238;stroke-linecap:round;stroke-linejoin:round"></path><line x1="307.71" y1="343.82" x2="311.51" y2="341.6" style="fill:none;stroke:#263238;stroke-linecap:round;stroke-linejoin:round"></line><polyline points="303.8 336.38 287.48 355.65 304.86 345.49" style="fill:none;stroke:#263238;stroke-linecap:round;stroke-linejoin:round"></polyline><path d="M266.37,241s-19.88,8.72-26.14,10.68-8.87,2.09-9.53,3.65-5.87,18.53-6.39,22.18,2,3.91,1.31,5.48-3.79,5.22-3.4,7.57a36.33,36.33,0,0,0,1.31,4.95s-3.13,4.18-3.26,4.7-1.05,5.09-.65,5.61,9.26,8.48,16.17,8.22a56.49,56.49,0,0,0,9.13-.79s-1,10.31-.52,11.22,10,4.44,13.83,4.83,20,.39,20,.39,16.3-.65,17.35-.91,10.69-.39,10.69-.39,4.44-.92,5-2a7.51,7.51,0,0,0,.52-2.74l-.39-2.35c-.13-.78,7.18-42.13,7.18-42.13l31.57,2.21,7-16.69s-.39-1.7-5.09-3.4a22.34,22.34,0,0,0-9.78-1.17c-.39.13-19.83-9.65-25.31-11.74s-25.52-8.72-25.52-8.72Z" style="fill:#fff;stroke:#263238;stroke-linecap:round;stroke-linejoin:round"></path><path d="M292.9,194.57S283.06,188.44,279,189s-18.4,4.63-18.75,6.25a17.12,17.12,0,0,0-.34,3.12s-8.1-1-8.22,2,.12,5.09.93,5.21a18.28,18.28,0,0,0,3.47-.47s-3.59,3.59-3.59,5.44-.58,4.4,1.5,5.21,8.22-.46,8.22-.46l14.7-10.65s14.58,19.09,16.08,19.9a11.11,11.11,0,0,1,2.43,1.74s2.78-.23,4.17-1.51,1.39-4.16,1.39-4.16,1.27.46,3.47-1.74,3.35-7.4,2-8.56-5.43-1.16-5.43-1.16-.12-7.06-2.43-10.87S292.9,194.57,292.9,194.57Z" style="fill:#263238;stroke:#263238;stroke-linecap:round;stroke-linejoin:round"></path><path d="M272.84,254.5s1.3,5.74,2.22,7.05,1.56,4.95,1.69,6.91,1.31,52.44,1.31,52.83.39,6.26.13,7.31.13,1.43,1.17,1.17,2.35-.65,2.35-.65,1-.13,1.17-5.87-1.3-55.18-1.3-55.18,3.52-6.79,4.43-8.87a64.54,64.54,0,0,0,2.48-6.13c0-.4.66-3.13.66-3.13l1-1.1.2-4.77-19.57,2.34S269.19,251.37,272.84,254.5Z" style="fill:#263238;stroke:#263238;stroke-linecap:round;stroke-linejoin:round"></path><path d="M278,197.7s-13.19,3.93-14.7,6.71-5.21,18.17-5,20.13,3.93,9.14,5.67,12.15,4.16,5.79,5.78,6,1,.35,1,.35l-.23,7.87s6.13,3.7,10.76,2.43a29.39,29.39,0,0,0,8.8-4.52l3-21.17s.11,1,2.31-1.39,2.2-7.18,2.2-7.18-4.63.47-5.44-.81-1.39-2-1.85-2.66-3-.69-6.6-6.82S278,197.7,278,197.7Z" style="fill:#fff;stroke:#263238;stroke-linecap:round;stroke-linejoin:round"></path><path d="M277.35,213.89c0,1-.39,1.83-.88,1.83s-.87-.82-.87-1.83.39-1.83.87-1.83S277.35,212.88,277.35,213.89Z" style="fill:#263238"></path><path d="M264.44,214.13c0,1-.39,1.83-.87,1.83s-.88-.82-.88-1.83.39-1.83.88-1.83S264.44,213.12,264.44,214.13Z" style="fill:#263238"></path><path d="M266.74,217.72s-2.54,2.08-2.08,3.12a3.63,3.63,0,0,0,3.47,1.62" style="fill:none;stroke:#263238;stroke-linecap:round;stroke-linejoin:round"></path><path d="M264.66,225.7s3.82,2.78,13.42-3c0,0-5.2,6.13-6.71,6.94a8.89,8.89,0,0,1-4.63.58c-.58-.11-1-2.54-1-2.54Z" style="fill:#fff;stroke:#263238;stroke-linecap:round;stroke-linejoin:round"></path><path d="M269.17,211.12s-6.14-.1-8.58,0-3.82-.09-4.1.82a1.56,1.56,0,0,0,.38,1.53s.24,3.25.88,4.33,3.88,1.95,6.36,1a7,7,0,0,0,4.33-5A10,10,0,0,1,269.17,211.12Z" style="fill:none;stroke:#263238;stroke-linecap:round;stroke-linejoin:round"></path><path d="M270.47,211.14s6.61-.43,9.25-.45,4.12-.29,4.47.68a1.67,1.67,0,0,1-.34,1.67,21.91,21.91,0,0,1-1.08,4.76c-.63,1.19-3.73,2.26-6.45,1.41a7.55,7.55,0,0,1-4.92-5.15A11.22,11.22,0,0,0,270.47,211.14Z" style="fill:none;stroke:#263238;stroke-linecap:round;stroke-linejoin:round"></path><line x1="270.47" y1="211.14" x2="269.17" y2="211.12" style="fill:none;stroke:#263238;stroke-linecap:round;stroke-linejoin:round"></line><line x1="284.19" y1="211.37" x2="294.63" y2="219.22" style="fill:none;stroke:#263238;stroke-linecap:round;stroke-linejoin:round"></line><path d="M270.79,243.06a9.59,9.59,0,0,0,3.71-.35c1.38-.58,8.1-6.6,8.1-6.6l-12,14.82Z" style="fill:#263238;stroke:#263238;stroke-linecap:round;stroke-linejoin:round"></path><path d="M273,210a8.29,8.29,0,0,1,8-.92" style="fill:none;stroke:#263238;stroke-linecap:round;stroke-linejoin:round"></path><path d="M268.13,209.62s-3.82-1.86-5.9.23" style="fill:none;stroke:#263238;stroke-linecap:round;stroke-linejoin:round"></path><path d="M270.79,243.06a52.07,52.07,0,0,0,.61,7.53c.53,2.08,2.22,3.39,1.44,3.91a9.91,9.91,0,0,0-4.31,4.31c-1.43,2.87-3.13,4.69-3.13,3.39s.79-4.83.79-5.87-.26-6.26-.26-8.48,0-3.26.39-4,.78-2.47,1.3-2.21S270.79,243.06,270.79,243.06Z" style="fill:#fff;stroke:#263238;stroke-linecap:round;stroke-linejoin:round"></path><path d="M291.75,237.41s0-.91,1.05.65a33.89,33.89,0,0,1,2.35,5.22s.13,7.18.13,10.7-.39,5,0,6.13-1.44,2-1.83.91-1.57-6-2.09-7.82-.78-2.61-1.17-1.7a17.16,17.16,0,0,1-1.57,2.48l.53-4Z" style="fill:#fff;stroke:#263238;stroke-linecap:round;stroke-linejoin:round"></path><path d="M243,303.58a13,13,0,0,0,1.15-2.93c.26-1.28-1.91-3.07-1.91-3.07s2.55-.38,3.06-.89,1.79-8.94,1.79-8.94" style="fill:none;stroke:#263238;stroke-linecap:round;stroke-linejoin:round"></path><path d="M227.44,281.9s3-4.57,7.83-4.57,5.74,1.3,5.74,1.3" style="fill:none;stroke:#263238;stroke-linecap:round;stroke-linejoin:round"></path><path d="M226.14,293.64A16.31,16.31,0,0,1,238,297" style="fill:none;stroke:#263238;stroke-linecap:round;stroke-linejoin:round"></path><polyline points="320.85 265.2 318.5 279.16 325.41 267.02" style="fill:none;stroke:#263238;stroke-linecap:round;stroke-linejoin:round"></polyline><path d="M266,296.2l2.14-15.42h4l2.39,15.83a4.78,4.78,0,0,0,.82,2l.19.28a4.79,4.79,0,0,1,.88,2.76v24.65a1.94,1.94,0,0,1-1.95,1.94h-8.72a1.94,1.94,0,0,1-1.94-1.94V301.69a4.81,4.81,0,0,1,1.11-3.08h0A4.81,4.81,0,0,0,266,296.2Z" style="fill:#92E3A9;stroke:#263238;stroke-linecap:round;stroke-linejoin:round"></path><path d="M271.9,281.34h-3.56a.78.78,0,0,1-.78-.78h0a.78.78,0,0,1,.78-.78h3.56a.78.78,0,0,1,.78.78h0A.78.78,0,0,1,271.9,281.34Z" style="fill:#92E3A9;stroke:#263238;stroke-linecap:round;stroke-linejoin:round"></path><rect x="263.79" y="303.56" width="12.61" height="16.15" style="fill:#263238"></rect><g style="clip-path:url(#freepik--clip-path-3--inject-4)"><path d="M276,311.31a6.78,6.78,0,1,1-6.78-6.78A6.78,6.78,0,0,1,276,311.31Z" style="fill:#fff;stroke:#263238;stroke-linecap:round;stroke-linejoin:round"></path><path d="M272.54,311.31a3.33,3.33,0,1,1-3.33-3.33A3.33,3.33,0,0,1,272.54,311.31Z" style="fill:#92E3A9"></path></g><rect x="263.79" y="303.56" width="12.61" height="16.15" style="fill:none;stroke:#263238;stroke-linecap:round;stroke-linejoin:round"></rect><polygon points="266.72 290.82 273.63 290.82 273.19 287.86 267.14 287.86 266.72 290.82" style="fill:#fff;stroke:#263238;stroke-linecap:round;stroke-linejoin:round"></polygon><path d="M253.53,309.81s7-6.52,7.83-6.78,10.44-1.44,11.35-1.44,3.91.53,4.43,1.57.66,1.83,0,2A23.19,23.19,0,0,1,274,305c-.39,0-7.3,1.43-7.3,1.43s8,.52,8.74.65,2.74.52,2.74,1.44a6,6,0,0,1-.26,1.69,3.54,3.54,0,0,1-.13,2c-.4.65-1.31,1-2.87,1.3s-7.7.66-7.7.66a14.41,14.41,0,0,0,4.7,1.17c2.87.26,4.69-.52,4.3.52s-1.56,1.44-3.52,1.83-5.22.52-7.57,1.17l-2.35.66s-1.56,1.3-5.74,2.34-6.13.13-6.13.13-11.38-.44-18.17-2.39-6.44-2.9-9.7-4.86-5-9.83-3.45-11.75c3.83-4.72,11-4.76,16.09-2.93s13.8,8.37,14.58,8.76A28,28,0,0,0,253.53,309.81Z" style="fill:#fff;stroke:#263238;stroke-linecap:round;stroke-linejoin:round"></path><path d="M277.93,310.2h-8.48c-1.57,0-4.18-.13-4.18-.13" style="fill:none;stroke:#263238;stroke-linecap:round;stroke-linejoin:round"></path><path d="M253.53,309.81s-4.56,3.92-3.91,5" style="fill:none;stroke:#263238;stroke-linecap:round;stroke-linejoin:round"></path><line x1="267.23" y1="314.12" x2="265.27" y2="313.86" style="fill:none;stroke:#263238;stroke-linecap:round;stroke-linejoin:round"></line><line x1="266.71" y1="306.42" x2="264.75" y2="306.42" style="fill:none;stroke:#263238;stroke-linecap:round;stroke-linejoin:round"></line><path d="M335.65,279s1.25-10.87,5-16.72" style="fill:none;stroke:#263238;stroke-linecap:round;stroke-linejoin:round"></path><path d="M333.83,269.12s-2.09,7.53-.55,10.73" style="fill:none;stroke:#263238;stroke-linecap:round;stroke-linejoin:round"></path><path d="M346.41,264.55s-3.52,5.21-8.61,12.52-13,18.65-14.48,21.39-4.43,9.66-4.17,11.09,0,7.18,0,8,1.43,2,1.83,1.43.52-3.39.52-4.43a50.16,50.16,0,0,1,1.54-6.08s.41,6.6.41,7.38,1.83,4.7,2.22,4.83,1.57-.13,1.7-.52a30.05,30.05,0,0,0-.79-4.18v-4s2.22,7.83,3,8,2.09,0,2.22-.53S330,314.9,330,314.9v-5.48L331.8,315s2.09,2.22,2.61,2.09a1.11,1.11,0,0,0,.78-1.7c-.52-1-1.3-2.48-1.3-2.48l-.91-4.17s1.3-3.92,2.48-6.92a66.73,66.73,0,0,0,2.21-7.56l17.74-14.22s9.53-8.48,9.53-11.35-6.13-6.39-8.35-6.91-6.65-.26-8.48.78" style="fill:#fff;stroke:#263238;stroke-linecap:round;stroke-linejoin:round"></path><line x1="326.58" y1="311.9" x2="325.96" y2="307.82" style="fill:none;stroke:#263238;stroke-linecap:round;stroke-linejoin:round"></line><line x1="323.04" y1="308.43" x2="322.9" y2="306.76" style="fill:none;stroke:#263238;stroke-linecap:round;stroke-linejoin:round"></line><line x1="329.98" y1="309.42" x2="329.38" y2="307.82" style="fill:none;stroke:#263238;stroke-linecap:round;stroke-linejoin:round"></line><path d="M250.37,405.85l3.23,13.75s-1.45,8.25-4.85,14.4-2.43,9.22-1.78,10.35,5.18,3.72,8.09,2.43,5.82-1.3,7.44-5.66,1.46-9.87,1.94-11.33,1.62-6,1.13-8.73-3.39-17.31-3.39-17.31Z" style="fill:#fff;stroke:#263238;stroke-linecap:round;stroke-linejoin:round"></path><path d="M265.57,421.06c-.09-.54-.28-1.53-.52-2.77-.86,3.39-2.06,7.78-2.06,7.78s-5.51-5.34-7-5.34-3.08,2.91-3.08,2.91l-.3.12a47.09,47.09,0,0,1-3.9,10.24c-3.4,6.15-2.43,9.22-1.78,10.35s5.18,3.72,8.09,2.43,5.82-1.3,7.44-5.66,1.46-9.87,1.94-11.33S266.06,423.81,265.57,421.06Z" style="fill:#fff;stroke:#263238;stroke-linecap:round;stroke-linejoin:round"></path><path d="M262.5,441.12a24.5,24.5,0,0,0,1.12-4.6c-1.18,1.81-4.68,8.64-10.67,8.64a6.44,6.44,0,0,1-6.5-5,6.41,6.41,0,0,0,.52,4.22c.65,1.13,5.18,3.72,8.09,2.43S260.88,445.48,262.5,441.12Z" style="fill:#fff;stroke:#263238;stroke-linecap:round;stroke-linejoin:round"></path><path d="M262.9,341.28,261,337.74" style="fill:#a6a6a6;stroke:#263238;stroke-linecap:round;stroke-linejoin:round"></path><path d="M274.33,347.49s-3.86-10-16.1-18.24-26.3-5.11-29.47.33-1.59,16.78-.91,21.09,6.58,15,7.48,16.32,8.16,42.62,8.16,42.62a35.61,35.61,0,0,0,11.11-.22,78.78,78.78,0,0,0,10.89-3.63l-3.4-49s6.12-6.8,5.21-7.94c-.35-.43-1.36-2.17-2.48-4.14" style="fill:#a6a6a6;stroke:#263238;stroke-linecap:round;stroke-linejoin:round"></path><line x1="234.88" y1="364.04" x2="230.12" y2="347.04" style="fill:none;stroke:#263238;stroke-linecap:round;stroke-linejoin:round"></line><path d="M261.63,354.75a17.11,17.11,0,0,0,0-5c-.45-1.59-3.4-3.63-3.4-3.63" style="fill:none;stroke:#263238;stroke-linecap:round;stroke-linejoin:round"></path></g></svg>
