<svg xmlns="http://www.w3.org/2000/svg" viewBox="0 0 500 500"><g id="freepik--background-complete--inject-43"><path d="M465.86,156.59a5.59,5.59,0,0,0,3.33-5.18,5.26,5.26,0,1,0-10.49,0,5.58,5.58,0,0,0,3.34,5.22c-8.07,1.22-7.7,10-7.7,10l19.09.09S473.87,157.8,465.86,156.59Z" style="fill:#e0e0e0"></path><path d="M46.63,167.46l.45,4.66-4.16.4L42.48,168c-4.14.15-8.22-.75-10.69-2.32l1.79-5.3A16.92,16.92,0,0,0,42,162.54l-.69-6.95c-4.72-.67-10-1.71-10.62-7.66-.43-4.41,2.41-8.51,8.91-9.9l-.46-4.62,4.17-.41.44,4.54a18.88,18.88,0,0,1,8.69,1.71l-1.58,5.32A17.14,17.14,0,0,0,44.24,143l.69,7.08c4.72.62,10,1.67,10.52,7.53C55.88,162,53.08,166,46.63,167.46Zm-6-18-.58-5.91c-2.16.72-2.91,2-2.78,3.39S38.78,149.07,40.67,149.47Zm8.14,9.33c-.15-1.46-1.43-2.13-3.28-2.58l.56,5.74C48.13,161.3,48.94,160.13,48.81,158.8Z" style="fill:#ebebeb"></path><path d="M339.45,64.82a34.61,34.61,0,0,1,8.37-3.64l1.73-8.28,14-.25,2,8.22a34.4,34.4,0,0,1,8.49,3.34l7.08-4.64L391.2,69.3l-4.38,7.23a34.19,34.19,0,0,1,3.63,8.37l8.29,1.73.24,14-8.22,2a34,34,0,0,1-3.34,8.49l4.64,7.08-9.72,10.07-7.24-4.38a33.86,33.86,0,0,1-8.37,3.63L365,135.82l-14,.25-2-8.22a34.43,34.43,0,0,1-8.49-3.35l-7.07,4.64-10.08-9.72,4.39-7.24a34.27,34.27,0,0,1-3.64-8.37l-8.28-1.72-.25-14,8.22-2a34.4,34.4,0,0,1,3.34-8.49l-4.64-7.07,9.73-10.08,7.23,4.39Zm7.46,18.65a15,15,0,1,0,21.24-.38A15,15,0,0,0,346.91,83.47Z" style="fill:#ebebeb"></path><path d="M399,35a14.61,14.61,0,0,1,3.47-1.51l.71-3.43,5.8-.1.83,3.41a13.93,13.93,0,0,1,3.52,1.38l2.93-1.92,4.17,4-1.81,3a14.35,14.35,0,0,1,1.5,3.47l3.43.71.11,5.8-3.41.84a14.4,14.4,0,0,1-1.38,3.51l1.92,2.93-4,4.18-3-1.82A14.79,14.79,0,0,1,410.28,61l-.72,3.43-5.79.1-.84-3.41a14.47,14.47,0,0,1-3.52-1.38l-2.93,1.92-4.17-4,1.82-3a14.38,14.38,0,0,1-1.51-3.47l-3.43-.71-.1-5.8,3.4-.84a14,14,0,0,1,1.39-3.51L392,37.34l4-4.18L399,35Zm3.09,7.72a6.22,6.22,0,1,0,8.8-.15A6.21,6.21,0,0,0,402.07,42.7Z" style="fill:#f5f5f5"></path><path d="M180,400.11a20.82,20.82,0,0,1,5-2.19l1-5,8.43-.14,1.21,4.95a20.13,20.13,0,0,1,5.11,2L205,397l6.07,5.85-2.64,4.36a20.82,20.82,0,0,1,2.19,5l5,1,.15,8.43-5,1.21a20.9,20.9,0,0,1-2,5.11l2.79,4.27-5.86,6.06-4.35-2.64a20.89,20.89,0,0,1-5,2.19l-1,5-8.43.15-1.22-4.95a21.22,21.22,0,0,1-5.11-2l-4.26,2.79L170.25,433l2.64-4.35a21,21,0,0,1-2.19-5l-5-1-.14-8.43,5-1.22a20.43,20.43,0,0,1,2-5.11l-2.79-4.26,5.85-6.07,4.36,2.64Zm4.49,11.23a9,9,0,1,0,12.79-.22A9,9,0,0,0,184.44,411.34Z" style="fill:#ebebeb"></path><path d="M245.16,405.06a26.53,26.53,0,0,1,6.53-2.83l1.34-6.46,10.91-.19,1.57,6.4a26.61,26.61,0,0,1,6.62,2.61l5.52-3.62,7.85,7.58-3.42,5.64a26.78,26.78,0,0,1,2.84,6.53l6.45,1.34.2,10.91-6.41,1.57a26.73,26.73,0,0,1-2.6,6.62l3.61,5.52-7.58,7.85L273,451.11a26.85,26.85,0,0,1-6.52,2.83l-1.35,6.46-10.91.19-1.57-6.4a27.32,27.32,0,0,1-6.62-2.61l-5.51,3.62-7.85-7.58L236,442a26.4,26.4,0,0,1-2.84-6.53l-6.46-1.34-.19-10.91,6.41-1.57a26.58,26.58,0,0,1,2.6-6.62L232,409.49l7.58-7.85,5.63,3.42ZM251,419.6a11.7,11.7,0,1,0,16.55-.29A11.7,11.7,0,0,0,251,419.6Z" style="fill:#ebebeb"></path><rect x="437.48" y="79.86" width="6.26" height="28.05" style="fill:#e0e0e0"></rect><rect x="437.48" y="79.86" width="6.26" height="28.05" transform="translate(346.72 534.49) rotate(-90)" style="fill:#e0e0e0"></rect><path d="M465.74,94.36s0-.14,0-.41-.05-.68-.09-1.19c0-.26,0-.55-.05-.87s-.11-.67-.17-1a18.26,18.26,0,0,0-.53-2.58,23.77,23.77,0,0,0-2.78-6.63A24.85,24.85,0,0,0,432.21,71,24.2,24.2,0,0,0,429,72.46a26.74,26.74,0,0,0-3.05,2,27.53,27.53,0,0,0-2.81,2.39,28,28,0,0,0-2.43,2.88,23.91,23.91,0,0,0-3.55,6.84,24.59,24.59,0,0,0,0,15.66,24.18,24.18,0,0,0,3.55,6.84,26.7,26.7,0,0,0,2.43,2.87,26.42,26.42,0,0,0,2.81,2.4,26.74,26.74,0,0,0,3.05,2,27.08,27.08,0,0,0,3.23,1.42,24.95,24.95,0,0,0,29.87-10.59,23.7,23.7,0,0,0,2.78-6.64,18,18,0,0,0,.53-2.58c.06-.37.13-.72.17-1s0-.61.05-.88c0-.5.07-.89.09-1.19s0-.4,0-.4a1.55,1.55,0,0,1,0,.4c0,.3,0,.69,0,1.2,0,.26,0,.56,0,.88s-.08.67-.13,1a17.76,17.76,0,0,1-.49,2.61,23.93,23.93,0,0,1-2.73,6.74,25.16,25.16,0,0,1-30.28,10.89,26.73,26.73,0,0,1-3.31-1.44,27.6,27.6,0,0,1-3.1-2,28.82,28.82,0,0,1-2.88-2.44,29.37,29.37,0,0,1-2.49-2.93,24.5,24.5,0,0,1-3.62-7,26.76,26.76,0,0,1-1.31-8,27.12,27.12,0,0,1,1.31-8,24.47,24.47,0,0,1,3.63-7,29.19,29.19,0,0,1,2.48-2.94A27.44,27.44,0,0,1,425.64,74a24.42,24.42,0,0,1,3.11-2,26,26,0,0,1,3.3-1.45,25.36,25.36,0,0,1,13.29-1.06,25.25,25.25,0,0,1,17,12,23.88,23.88,0,0,1,2.73,6.73,18.26,18.26,0,0,1,.49,2.61c.05.38.11.73.13,1.06s0,.61,0,.88l0,1.19A1.61,1.61,0,0,1,465.74,94.36Z" style="fill:#e0e0e0"></path><path d="M156.29,31.78,119.12,18.43,82.32,31.6c-4.7,2.22-8.82,3.55-8.82,7.92v21.8a82.35,82.35,0,0,0,12.12,43.37,75.58,75.58,0,0,0,33.86,29.91c15-4.89,26.28-17.92,33.14-29.06a82.36,82.36,0,0,0,12.13-43.37V42.57C164.75,36.33,161.44,33.28,156.29,31.78Z" style="fill:#ebebeb"></path><path d="M119.48,122A60,60,0,0,1,92.69,98.09,65.18,65.18,0,0,1,83.1,63.78V48.49c0-3.46,2.09-6.71,6.24-8.64l29.79-11.14V18.43L82.32,31.6c-3.87,1.68-8.82,3.55-8.82,7.92v21.8a82.35,82.35,0,0,0,12.12,43.37,75.58,75.58,0,0,0,33.86,29.91Z" style="fill:#e0e0e0"></path><path d="M119.48,134.6a45.69,45.69,0,0,0,7.31-3.13,65.77,65.77,0,0,0,15.45-12.16A83.4,83.4,0,0,0,153,104.87a79.37,79.37,0,0,0,11.76-43.79l0-18c0-9-4.62-9.63-8.48-11.31L119.12,18.43V28.71L149.27,40c4.15,1.93,6.24,5.18,6.24,8.64V64a65.1,65.1,0,0,1-9.6,34.31c-5.43,8.82-13.48,17.91-26.43,23.68Z" style="fill:#e0e0e0"></path><rect x="115.25" y="53.61" width="7.75" height="34.74" style="fill:#fff"></rect><rect x="115.25" y="53.61" width="7.75" height="34.74" transform="translate(48.14 190.1) rotate(-90)" style="fill:#fff"></rect></g><g id="freepik--Floor--inject-43"><path d="M476.48,471.9c0,.15-101.41.26-226.47.26s-226.49-.11-226.49-.26,101.38-.26,226.49-.26S476.48,471.76,476.48,471.9Z" style="fill:#263238"></path></g><g id="freepik--Clipboard--inject-43"><path d="M364.69,420.13,140,419.31a9.87,9.87,0,0,1-9.84-9.91l1.19-327.16a9.87,9.87,0,0,1,9.91-9.84L366,73.22a9.88,9.88,0,0,1,9.84,9.91l-1.2,327.16A9.87,9.87,0,0,1,364.69,420.13Z" style="fill:#e0e0e0"></path><path d="M364.69,420.13l.76-.05a9.77,9.77,0,0,0,5.44-2.16,10,10,0,0,0,3-4.07,9.41,9.41,0,0,0,.65-3c.06-1.08,0-2.23,0-3.42q0-3.6,0-7.86c0-5.67,0-12.22.05-19.6.09-29.5.22-72.17.38-124.91.09-26.37.19-55.25.29-86.25q.07-23.27.16-48.06,0-12.39.09-25.13,0-6.36,0-12.81a9.62,9.62,0,0,0-7.47-9.14,13.7,13.7,0,0,0-3.21-.26h-3.28l-6.6,0-13.31-.05-27.08-.09-55.85-.2-117.45-.42a9.62,9.62,0,0,0-9.67,9.12c-.07,5-.05,10-.08,14.94q-.06,14.91-.11,29.61-.12,29.38-.22,57.88c-.14,37.94-.28,74.54-.41,109.41s-.26,68-.38,99c0,3.88,0,7.72,0,11.53,0,1.9,0,3.81,0,5.68a9.68,9.68,0,0,0,1.73,5.16,9.84,9.84,0,0,0,4.21,3.4,10.87,10.87,0,0,0,2.62.68c.9.08,1.82.07,2.74.07l10.9,0,41.39.17,124.91.53,34,.17,8.83,0,3,0H352.85l-34-.07L194,419.67l-41.39-.13-10.9,0c-.92,0-1.84,0-2.78-.07a10.69,10.69,0,0,1-2.72-.71,10.17,10.17,0,0,1-4.38-3.52,10,10,0,0,1-1.8-5.37c0-1.9,0-3.78,0-5.69q0-5.72,0-11.53c.11-31,.22-64.14.34-99s.26-71.47.39-109.42q.1-28.45.21-57.88,0-14.68.1-29.6c0-5,0-9.94.08-15a10.12,10.12,0,0,1,10.15-9.58l117.45.44,55.85.21,27.08.1L355,73l6.6,0,3.28,0a13.63,13.63,0,0,1,3.3.27A10,10,0,0,1,376,82.81q0,6.47,0,12.83,0,12.75-.09,25.13-.11,24.78-.19,48.06c-.12,31-.24,59.89-.34,86.25-.23,52.74-.41,95.42-.53,124.91,0,7.38-.07,13.93-.1,19.6q0,4.26,0,7.86c0,1.2,0,2.34,0,3.42a9.84,9.84,0,0,1-3.7,7.11,10.2,10.2,0,0,1-3.26,1.73,10.7,10.7,0,0,1-2.22.4Z" style="fill:#263238"></path><g style="opacity:0.30000000000000004"><polygon points="153.37 410.74 358.33 410.37 360.82 370.78 354.63 346.88 151.63 377.84 153.37 410.74"></polygon></g><path d="M364.69,420.13l.76-.05a9.77,9.77,0,0,0,5.44-2.16,10,10,0,0,0,3-4.07,9.41,9.41,0,0,0,.65-3c.06-1.08,0-2.23,0-3.42q0-3.6,0-7.86c0-5.67,0-12.22.05-19.6.09-29.5.22-72.17.38-124.91.09-26.37.19-55.25.29-86.25q.07-23.27.16-48.06,0-12.39.09-25.13,0-6.36,0-12.81a9.62,9.62,0,0,0-7.47-9.14,13.7,13.7,0,0,0-3.21-.26h-3.28l-6.6,0-13.31-.05-27.08-.09-55.85-.2-117.45-.42a9.62,9.62,0,0,0-9.67,9.12c-.07,5-.05,10-.08,14.94q-.06,14.91-.11,29.61-.12,29.38-.22,57.88c-.14,37.94-.28,74.54-.41,109.41s-.26,68-.38,99c0,3.88,0,7.72,0,11.53,0,1.9,0,3.81,0,5.68a9.68,9.68,0,0,0,1.73,5.16,9.84,9.84,0,0,0,4.21,3.4,10.87,10.87,0,0,0,2.62.68c.9.08,1.82.07,2.74.07l10.9,0,41.39.17,124.91.53,34,.17,8.83,0,3,0H352.85l-34-.07L194,419.67l-41.39-.13-10.9,0c-.92,0-1.84,0-2.78-.07a10.69,10.69,0,0,1-2.72-.71,10.17,10.17,0,0,1-4.38-3.52,10,10,0,0,1-1.8-5.37c0-1.9,0-3.78,0-5.69q0-5.72,0-11.53c.11-31,.22-64.14.34-99s.26-71.47.39-109.42q.1-28.45.21-57.88,0-14.68.1-29.6c0-5,0-9.94.08-15a10.12,10.12,0,0,1,10.15-9.58l117.45.44,55.85.21,27.08.1L355,73l6.6,0,3.28,0a13.63,13.63,0,0,1,3.3.27A10,10,0,0,1,376,82.81q0,6.47,0,12.83,0,12.75-.09,25.13-.11,24.78-.19,48.06c-.12,31-.24,59.89-.34,86.25-.23,52.74-.41,95.42-.53,124.91,0,7.38-.07,13.93-.1,19.6q0,4.26,0,7.86c0,1.2,0,2.34,0,3.42a9.84,9.84,0,0,1-3.7,7.11,10.2,10.2,0,0,1-3.26,1.73,10.7,10.7,0,0,1-2.22.4Z" style="fill:#263238"></path><g style="opacity:0.30000000000000004"><polygon points="153.37 410.74 358.33 410.37 360.82 370.78 354.63 346.88 151.63 377.84 153.37 410.74"></polygon></g><rect x="94.72" y="135.22" width="316.56" height="219.67" transform="translate(7.01 497.16) rotate(-89.79)" style="fill:#fff"></rect><path d="M362.26,403.74c0-1.82.39-129.74.95-316.56l.2.21-219.65-.78h0l.22-.23c-.45,118.88-.86,228.71-1.19,316.56l-.19-.18,219.68,1-219.68-.62h-.18v-.18c.31-87.85.7-197.68,1.11-316.56v-.22h.25L363.41,87h.21v.21C362.81,274,362.26,401.92,362.26,403.74Z" style="fill:#263238"></path><rect x="156.01" y="187.27" width="48.05" height="10.17" transform="translate(0.7 -0.66) rotate(0.21)" style="fill:#e0e0e0"></rect><rect x="209.93" y="165.38" width="96.3" height="10.17" transform="translate(0.62 -0.94) rotate(0.21)" style="fill:#e0e0e0"></rect><rect x="155.62" y="164.88" width="45.81" height="10.17" transform="translate(0.62 -0.65) rotate(0.21)" style="fill:#e0e0e0"></rect><rect x="311.74" y="165.61" width="34.85" height="10.17" transform="translate(0.63 -1.2) rotate(0.21)" style="fill:#e0e0e0"></rect><rect x="155.63" y="346.4" width="61.95" height="11.59" transform="translate(1.29 -0.68) rotate(0.21)" style="fill:#e0e0e0"></rect><rect x="155.63" y="368.12" width="112.62" height="11.59" transform="matrix(1, 0, 0, 1, 1.37, -0.77)" style="fill:#e0e0e0"></rect><rect x="155.7" y="213.02" width="190.04" height="11.59" transform="translate(0.8 -0.91) rotate(0.21)" style="fill:#e0e0e0"></rect><path d="M342,241.92c0,.14-40.95.1-91.45-.08s-91.46-.45-91.45-.59,40.94-.11,91.45.08S342,241.77,342,241.92Z" style="fill:#263238"></path><path d="M341.92,252c0,.14-40.95.11-91.45-.08s-91.46-.44-91.46-.58,40.94-.11,91.46.08S341.92,251.83,341.92,252Z" style="fill:#263238"></path><path d="M305.55,261.9c0,.14-32.81.13-73.29,0s-73.29-.38-73.29-.53,32.81-.13,73.3,0S305.55,261.76,305.55,261.9Z" style="fill:#263238"></path><path d="M209,64.19h100a6.33,6.33,0,0,1,6.33,6.33V96.86a0,0,0,0,1,0,0H202.64a0,0,0,0,1,0,0V70.51A6.33,6.33,0,0,1,209,64.19Z" transform="translate(0.3 -0.94) rotate(0.21)" style="fill:#263238"></path><polygon points="273.39 51.95 244.72 51.85 247.99 76.43 269.58 76.51 273.39 51.95" style="fill:#263238"></polygon><path d="M308.1,64.37c0,.13-22,.15-49.09,0s-49.08-.28-49.08-.41,22-.16,49.09-.06S308.1,64.24,308.1,64.37Z" style="fill:#455a64"></path><path d="M205.12,91.39c-.13,0-.22-4.62-.2-10.32s.14-10.32.27-10.32.22,4.62.2,10.32S205.25,91.39,205.12,91.39Z" style="fill:#455a64"></path><path d="M311.59,89.33a93.18,93.18,0,0,1-.2-9.37c0-5.17.14-9.37.27-9.37a93.46,93.46,0,0,1,.2,9.38A90,90,0,0,1,311.59,89.33Z" style="fill:#455a64"></path><path d="M306.15,93.66c0,.13-22.56.15-50.38,0s-50.39-.29-50.39-.42,22.56-.15,50.39-.05S306.15,93.53,306.15,93.66Z" style="fill:#455a64"></path><g style="opacity:0.30000000000000004"><polygon points="315.3 73.74 319.91 87.58 319.88 94.36 314.63 94.34 315.3 73.74"></polygon></g><path d="M341.92,284.37c0,.14-30.15.26-67.34.26s-67.33-.12-67.33-.26,30.14-.27,67.33-.27S341.92,284.22,341.92,284.37Z" style="fill:#263238"></path><path d="M323.22,296.19c0,.15-26,.26-58,.26s-58-.11-58-.26,25.95-.26,58-.26S323.22,296.05,323.22,296.19Z" style="fill:#263238"></path><path d="M341.92,313.8c0,.15-30.15.26-67.34.26s-67.33-.11-67.33-.26,30.14-.26,67.33-.26S341.92,313.66,341.92,313.8Z" style="fill:#263238"></path><path d="M323.22,325.63c0,.14-26,.26-58,.26s-58-.12-58-.26,25.95-.26,58-.26S323.22,325.49,323.22,325.63Z" style="fill:#263238"></path><path d="M341.92,374a13.79,13.79,0,0,1-1.62,1,17.33,17.33,0,0,1-5.12,1.66,19.34,19.34,0,0,1-3.9.2,17.88,17.88,0,0,1-4.59-.78,17.08,17.08,0,0,1-9.13-6.44,19,19,0,0,1-3.31-13.1,16.56,16.56,0,0,1,2.52-7.23,10.82,10.82,0,0,1,2.89-2.83,8.46,8.46,0,0,1,1.9-.89,5.45,5.45,0,0,1,2.13-.18,4.58,4.58,0,0,1,3.43,2.52,9.46,9.46,0,0,1,.84,4.29,31,31,0,0,1-1.58,8.76A25.09,25.09,0,0,1,322,369a18.45,18.45,0,0,1-7.67,5.55,16.94,16.94,0,0,1-9.43.84,13.43,13.43,0,0,1-7.83-4.74,19.46,19.46,0,0,1-3.74-8.07,34.71,34.71,0,0,1-.81-8.49c0-2.75.38-5.59,1.85-7.88a7.89,7.89,0,0,1,2.89-2.68,5.66,5.66,0,0,1,3.77-.62,6.1,6.1,0,0,1,3.19,1.85,7.75,7.75,0,0,1,1.79,3.08,12.74,12.74,0,0,1-.05,6.58,29.87,29.87,0,0,1-4.69,10.26,30.55,30.55,0,0,1-5.83,6.21,30.19,30.19,0,0,1-4.48,3c-.54.29-1,.48-1.25.62a4.22,4.22,0,0,1-.44.19l.41-.24c.28-.15.7-.36,1.23-.67a31.25,31.25,0,0,0,4.4-3.05,30.77,30.77,0,0,0,5.72-6.23,29.82,29.82,0,0,0,4.57-10.17,12.46,12.46,0,0,0,0-6.39,7.44,7.44,0,0,0-1.7-2.9,5.65,5.65,0,0,0-3-1.71c-2.36-.49-4.84,1-6.19,3.12S293,351.4,293,354.12a34.64,34.64,0,0,0,.81,8.37,19.18,19.18,0,0,0,3.65,7.86A13,13,0,0,0,305,374.9a16.39,16.39,0,0,0,9.14-.82,18,18,0,0,0,7.45-5.39,24.85,24.85,0,0,0,4.33-7.92,30.89,30.89,0,0,0,1.56-8.6,8.84,8.84,0,0,0-.78-4.07,4.07,4.07,0,0,0-3.05-2.26,5.53,5.53,0,0,0-3.71,1,10.07,10.07,0,0,0-2.78,2.7,16.18,16.18,0,0,0-2.46,7,18.71,18.71,0,0,0,3.18,12.84,16.78,16.78,0,0,0,8.92,6.37,17.34,17.34,0,0,0,4.51.81,19.17,19.17,0,0,0,3.86-.15,17.84,17.84,0,0,0,5.1-1.55,13.82,13.82,0,0,0,1.24-.65Z" style="fill:#263238"></path><path d="M215,117.54h4v14h-4Z" style="fill:#FF725E"></path><path d="M235.05,117.54v14H231.8l-6.16-7.44v7.44h-3.87v-14H225l6.16,7.44v-7.44Z" style="fill:#FF725E"></path><path d="M239.45,131.36a8.08,8.08,0,0,1-2.59-1.12l1.3-2.91a8.68,8.68,0,0,0,2.17,1,8.34,8.34,0,0,0,2.43.37c1.52,0,2.28-.37,2.28-1.13a1,1,0,0,0-.65-.89,12.81,12.81,0,0,0-2.09-.61,20.74,20.74,0,0,1-2.63-.72,4.44,4.44,0,0,1-1.81-1.25,3.33,3.33,0,0,1-.76-2.31,4,4,0,0,1,.7-2.31,4.68,4.68,0,0,1,2.08-1.62,8.58,8.58,0,0,1,3.4-.6,11.74,11.74,0,0,1,2.71.31,8.47,8.47,0,0,1,2.36.91l-1.22,2.93a8.11,8.11,0,0,0-3.87-1.08,3.26,3.26,0,0,0-1.71.35,1,1,0,0,0-.54.91.88.88,0,0,0,.64.83,11.13,11.13,0,0,0,2,.58,19.88,19.88,0,0,1,2.64.73,4.59,4.59,0,0,1,1.82,1.24,3.29,3.29,0,0,1,.76,2.3,4,4,0,0,1-.69,2.27,4.83,4.83,0,0,1-2.1,1.63,8.56,8.56,0,0,1-3.39.61A12.9,12.9,0,0,1,239.45,131.36Z" style="fill:#FF725E"></path><path d="M252.34,130.08a6.42,6.42,0,0,1-1.72-4.8v-7.74h3.95v7.62c0,2.23.88,3.35,2.65,3.35s2.63-1.12,2.63-3.35v-7.62h3.89v7.74a6.43,6.43,0,0,1-1.73,4.8,7.73,7.73,0,0,1-9.67,0Z" style="fill:#FF725E"></path><path d="M272.51,127.79h-2.15v3.71h-3.95v-14h6.38a8,8,0,0,1,3.29.63,4.83,4.83,0,0,1,2.15,1.79,5.31,5.31,0,0,1,0,5.39,4.78,4.78,0,0,1-2,1.76l3,4.39H275Zm1.87-6.6a2.7,2.7,0,0,0-1.83-.54h-2.19v4.09h2.19a2.76,2.76,0,0,0,1.83-.53,2.15,2.15,0,0,0,0-3Z" style="fill:#FF725E"></path><path d="M290.51,128.78h-5.9l-1.09,2.72h-4l6.16-14h3.89l6.18,14h-4.11Zm-1.15-2.91-1.8-4.46-1.79,4.46Z" style="fill:#FF725E"></path><path d="M310.11,117.54v14h-3.25l-6.16-7.44v7.44h-3.87v-14h3.25l6.16,7.44v-7.44Z" style="fill:#FF725E"></path><path d="M315.92,130.85a7,7,0,0,1-2.74-2.58,7.6,7.6,0,0,1,0-7.5,7,7,0,0,1,2.74-2.58,8.27,8.27,0,0,1,3.94-.93,8.46,8.46,0,0,1,3.45.68,6.5,6.5,0,0,1,2.55,2l-2.51,2.27a4.15,4.15,0,0,0-3.29-1.63,4.06,4.06,0,0,0-2,.5,3.51,3.51,0,0,0-1.38,1.4,4.68,4.68,0,0,0,0,4.17A3.53,3.53,0,0,0,318,128a4.06,4.06,0,0,0,2,.5,4.13,4.13,0,0,0,3.29-1.64l2.51,2.27a6.53,6.53,0,0,1-2.55,2,8.46,8.46,0,0,1-3.45.68A8.27,8.27,0,0,1,315.92,130.85Z" style="fill:#FF725E"></path><path d="M338.82,128.45v3.05h-11.2v-14h10.94v3h-7v2.35h6.2v3h-6.2v2.56Z" style="fill:#FF725E"></path><path d="M225.39,140a4.86,4.86,0,0,1,0,7.12,6.4,6.4,0,0,1-4.26,1.3h-3.44v4.21h-2V138.68h5.43A6.45,6.45,0,0,1,225.39,140ZM224,145.85a3.2,3.2,0,0,0,0-4.63,4.5,4.5,0,0,0-2.89-.81h-3.38v6.25h3.38A4.5,4.5,0,0,0,224,145.85Z" style="fill:#FF725E"></path><path d="M232.55,151.84a6.8,6.8,0,0,1-2.65-2.56,7.31,7.31,0,0,1,0-7.28,6.7,6.7,0,0,1,2.65-2.55,8.19,8.19,0,0,1,7.58,0,6.75,6.75,0,0,1,2.65,2.54,7.49,7.49,0,0,1,0,7.3,6.84,6.84,0,0,1-2.65,2.55,8.27,8.27,0,0,1-7.58,0Zm6.56-1.54a5.3,5.3,0,0,0,1.93-1.92,5.4,5.4,0,0,0,.7-2.74,5.34,5.34,0,0,0-.7-2.73,5.15,5.15,0,0,0-1.93-1.92,5.81,5.81,0,0,0-5.53,0,5,5,0,0,0-2,1.92,5.25,5.25,0,0,0-.71,2.73,5.31,5.31,0,0,0,.71,2.74,5.14,5.14,0,0,0,2,1.92,5.89,5.89,0,0,0,5.53,0Z" style="fill:#FF725E"></path><path d="M246.77,138.68h2v12.19h7.54v1.73h-9.53Z" style="fill:#FF725E"></path><path d="M258.59,138.68h2V152.6h-2Z" style="fill:#FF725E"></path><path d="M267.21,151.84a6.79,6.79,0,0,1-2.63-2.55,7.42,7.42,0,0,1,0-7.3,6.72,6.72,0,0,1,2.64-2.54,7.73,7.73,0,0,1,3.78-.93,7.84,7.84,0,0,1,3,.55,6,6,0,0,1,2.3,1.62L275,141.94a5.19,5.19,0,0,0-3.92-1.65,5.6,5.6,0,0,0-2.8.7,5,5,0,0,0-2,1.92,5.34,5.34,0,0,0-.71,2.73,5.41,5.41,0,0,0,.71,2.74,5.09,5.09,0,0,0,2,1.92,5.7,5.7,0,0,0,2.8.69,5.18,5.18,0,0,0,3.92-1.67l1.29,1.26a6.23,6.23,0,0,1-2.31,1.63,7.89,7.89,0,0,1-3,.55A7.76,7.76,0,0,1,267.21,151.84Z" style="fill:#FF725E"></path><path d="M284.23,147.79v4.81h-2v-4.85l-5.53-9.07h2.13l4.46,7.34,4.47-7.34h2Z" style="fill:#FF725E"></path><rect x="157.73" y="115.26" width="41.59" height="41.59" rx="5.74" style="fill:#FF725E"></rect><path d="M181.29,136.41a5.59,5.59,0,0,0,3.33-5.18,5.26,5.26,0,1,0-10.49,0,5.58,5.58,0,0,0,3.34,5.22c-8.08,1.22-7.71,10-7.71,10l19.1.09S189.29,137.62,181.29,136.41Z" style="fill:#fff"></path><rect x="169.87" y="275.95" width="24.57" height="24.57" rx="3.84" style="fill:#FF725E"></rect><rect x="169.87" y="309.72" width="24.57" height="24.57" rx="3.84" style="fill:#FF725E"></rect><polygon points="182.6 294.54 175.06 289.5 176.82 286.87 181.87 290.25 188.16 281.93 190.68 283.84 182.6 294.54" style="fill:#fff"></polygon><polygon points="182.6 329.08 175.06 324.04 176.82 321.42 181.87 324.79 188.16 316.48 190.68 318.38 182.6 329.08" style="fill:#fff"></polygon></g><g id="freepik--character-2--inject-43"><polyline points="383.4 303.57 387.17 290.02 390.11 267.18 390.11 230.69 392.02 213.71 374.49 218.64 375.6 265.93 374.83 295.06 376.3 303.5 383 303.67" style="fill:#ffbf9d"></polyline><path d="M377.75,200.65c2.35-9.78,14.27-13.47,14.27-13.47l-.57,20.15-4.14,21.72L384.38,235l-13.49-1S376.67,205.12,377.75,200.65Z" style="fill:#FF725E"></path><polygon points="382.12 448.16 364.76 306.09 361.78 233.6 365.97 233.43 368.94 305.83 386.66 447.92 382.12 448.16" style="fill:#455a64"></polygon><polygon points="390.17 448.22 385.98 448.11 400.67 305.36 396.46 233.02 400.65 232.78 404.86 305.29 404.86 305.38 390.17 448.22" style="fill:#455a64"></polygon><path d="M380.83,455.39c-.26,3-1.67,10.59-1.92,13.77a2.06,2.06,0,0,0,2.17,2l9.37,0c1.29,0,2.22-1.82,1.81-3.41l-2.52-12.31" style="fill:#263238"></path><path d="M375.78,236.76c-4.55,0-9.12-.15-13.64-.45l.29-4.18a199.39,199.39,0,0,0,21.59.27l.18,4.19C381.4,236.71,378.59,236.76,375.78,236.76Z" style="fill:#455a64"></path><path d="M369,226.79c-.24,0-3.8-.6-6.77-1.12a4.17,4.17,0,0,0-5,4.54c.15,2.82,7.37,4.2,12.5,4.32,5.73.14,14.33,0,14.33,0v-7.4S373.42,227.5,369,226.79Z" style="fill:#ae7461"></path><path d="M367.7,307.31h31.95c3.49,0,3.5-3.93,0-3.93H367.7c-3.49,0-3.49,3.93,0,3.93Z" style="fill:#455a64"></path><path d="M369.2,311.21s2.06,2.76,5,1.68c0,0,3,1.33,3.89-.94,0,0,2.61.05,3.11-1.48,0,0,1.48.15,2-1.82a8.67,8.67,0,0,0,0-3.84s-2.61-1.53-3.11.93c0,0-2.06-1.62-2.75.35a2.06,2.06,0,0,0-1.63-.4c-1,.15-1.43,1.53-1.43,1.53a1.35,1.35,0,0,0-.34-1.58c-.79-.64-2.6.72-2.6.72Z" style="fill:#ffbf9d"></path><path d="M373.34,295.36s-5.42,4.83-6.88,6.91c-.27.39-.36,10.62-.36,10.62a4.51,4.51,0,0,0,3.47-2.78,25.42,25.42,0,0,0,1.05-4.62s5.18.49,6.91-4,1.24-7.28,1.24-7.28Z" style="fill:#ffbf9d"></path><path d="M377.28,302s0,.22-.16.62A3.82,3.82,0,0,1,376,304a9.33,9.33,0,0,1-5.48,1.78l.25-.21-.09.47a25,25,0,0,1-.72,3.27,6.2,6.2,0,0,1-1.51,2.34,4.13,4.13,0,0,1-2.17,1.28,12.35,12.35,0,0,0,1.9-1.54,6.14,6.14,0,0,0,1.33-2.24c.3-.91.42-2.06.66-3.21l.09-.46,0-.21h.21a9.92,9.92,0,0,0,5.27-1.55A5.82,5.82,0,0,0,377.28,302Z" style="fill:#ff9a6c"></path><path d="M374.5,306.6a8.29,8.29,0,0,1-.24,6.29,30.08,30.08,0,0,1,.22-3.14A30.58,30.58,0,0,1,374.5,306.6Z" style="fill:#ff9a6c"></path><path d="M377.28,306.18a6.36,6.36,0,0,1,.66,5.94c-.15,0,.09-1.37-.1-3S377.14,306.24,377.28,306.18Z" style="fill:#ff9a6c"></path><path d="M380.15,305.88a5.78,5.78,0,0,1,.94,4.79,13,13,0,0,1-.45-2.4A13.6,13.6,0,0,1,380.15,305.88Z" style="fill:#ff9a6c"></path><path d="M387.74,288.54s-10.16,81.21-10.91,88.37c-.83,7.86-1.85,31.88-1.85,31.88h28s1.83-25.21,1.71-26.06l17.37-54.88-7.48-40.19Z" style="fill:#263238"></path><path d="M405.26,404.54c1.88-8-.12-7.61-.83-8.2-1.75-1.45-19.27-8.76-27.87-6.21a5.12,5.12,0,0,0-3.55,4.13l-1,6.28c-.08.66-7.58,44.92-7.58,44.92s-17.19,3.33-20.92,7.53c-2.17,2.43-.66,5.58.7,6.95,2.17,2.19,31.24,6,42.42,6.17a5.35,5.35,0,0,0,5.29-4.14C395,448.91,403.61,411.61,405.26,404.54Z" style="fill:#f5f5f5"></path><path d="M405.26,404.54s0,.2-.11.59-.21,1-.38,1.74c-.34,1.55-.85,3.8-1.5,6.69-1.33,5.81-3.24,14.2-5.61,24.55l-3.9,16.95c-.35,1.52-.71,3.07-1.07,4.65-.18.78-.37,1.58-.55,2.38a5.61,5.61,0,0,1-5.85,4.24c-1.72,0-3.46-.13-5.21-.25-7-.5-14.36-1.35-21.94-2.46-3.78-.58-7.63-1.2-11.49-2.13a18.16,18.16,0,0,1-2.88-.92,3.27,3.27,0,0,1-.71-.44,5.84,5.84,0,0,1-.51-.59,6.91,6.91,0,0,1-.8-1.33,5.41,5.41,0,0,1-.51-3.08,4.28,4.28,0,0,1,1.54-2.72,17.55,17.55,0,0,1,4.92-2.78c1.72-.72,3.48-1.28,5.23-1.82,3.51-1.05,7-1.9,10.47-2.6l-.2.21c2.27-13.43,4.41-26,6.34-37.4q.72-4.26,1.4-8.28.31-2,.63-4c.11-.65.19-1.28.32-1.94a5.36,5.36,0,0,1,.8-1.81,5.07,5.07,0,0,1,3.11-2.15,16.4,16.4,0,0,1,1.81-.33c.6,0,1.2-.12,1.79-.12a33.4,33.4,0,0,1,6.71.67,68.34,68.34,0,0,1,11.05,3.22c1.58.6,3,1.21,4.33,1.83a13.88,13.88,0,0,1,1.83,1,7.2,7.2,0,0,0,.81.48,1.87,1.87,0,0,1,.64.7,3.7,3.7,0,0,1,.34,1.65,9.85,9.85,0,0,1-.06,1.47c-.09.9-.23,1.65-.35,2.26-.25,1.21-.44,1.83-.44,1.83s0-.17.08-.47.17-.77.26-1.38a21.54,21.54,0,0,0,.31-2.25,9.75,9.75,0,0,0,0-1.45,3.93,3.93,0,0,0-.35-1.58,1.69,1.69,0,0,0-.58-.61,7.2,7.2,0,0,1-.83-.49,14.48,14.48,0,0,0-1.8-1c-1.3-.6-2.75-1.2-4.33-1.78a68.18,68.18,0,0,0-11-3.14,33.77,33.77,0,0,0-6.64-.64c-.58,0-1.17.09-1.76.13s-1.16.23-1.75.33a4.69,4.69,0,0,0-2.88,2,4.85,4.85,0,0,0-.73,1.68c-.13.61-.21,1.27-.32,1.92-.2,1.29-.4,2.61-.61,3.95-.45,2.68-.9,5.45-1.38,8.29-1.9,11.37-4,24-6.28,37.42l0,.17-.17,0c-3.44.7-6.94,1.55-10.42,2.6-1.74.54-3.49,1.09-5.18,1.8a17.2,17.2,0,0,0-4.77,2.68,3.89,3.89,0,0,0-1.38,2.42,4.89,4.89,0,0,0,.47,2.78,6.45,6.45,0,0,0,.74,1.24,4.8,4.8,0,0,0,.47.53,2.31,2.31,0,0,0,.56.34,17.1,17.1,0,0,0,2.79.88c3.81.93,7.66,1.55,11.44,2.13,7.56,1.12,14.89,2,21.89,2.49,1.75.13,3.48.22,5.19.26a5.17,5.17,0,0,0,4.33-1.79c1.1-1.19,1.21-2.9,1.63-4.46s.72-3.13,1.08-4.65l4-16.93c2.44-10.34,4.41-18.71,5.78-24.52.69-2.88,1.22-5.12,1.59-6.66.19-.75.33-1.32.43-1.73S405.26,404.54,405.26,404.54Z" style="fill:#263238"></path><path d="M404.7,405.74a10.55,10.55,0,0,1-1.53,0c-.49,0-1.09-.06-1.79-.05s-1.48,0-2.35,0a47.16,47.16,0,0,0-6.1.63,50.12,50.12,0,0,0-7.28,1.84,52.46,52.46,0,0,0-6.88,3,46.65,46.65,0,0,0-5.21,3.24c-.73.48-1.33,1-1.89,1.42s-1,.8-1.38,1.12a7.68,7.68,0,0,1-1.2.95,9.6,9.6,0,0,1,1.07-1.1,17.58,17.58,0,0,1,1.33-1.2c.54-.45,1.13-1,1.85-1.49a44.12,44.12,0,0,1,5.2-3.36,49.34,49.34,0,0,1,6.95-3.06,48.46,48.46,0,0,1,7.36-1.83,41.87,41.87,0,0,1,6.17-.52c.88,0,1.67,0,2.37,0s1.3.08,1.79.14A7.52,7.52,0,0,1,404.7,405.74Z" style="fill:#e0e0e0"></path><path d="M400.26,426.78c-.07.06-1.07-1.18-2.88-3a46.33,46.33,0,0,0-16.64-10.67c-2.4-.88-3.93-1.28-3.91-1.37a5.37,5.37,0,0,1,1.1.19,28.49,28.49,0,0,1,2.93.84,40.88,40.88,0,0,1,16.78,10.75,27.71,27.71,0,0,1,2,2.32A4.5,4.5,0,0,1,400.26,426.78Z" style="fill:#e0e0e0"></path><path d="M398.8,430.12c0,.08-1.68-.63-4.43-1.46a49.2,49.2,0,0,0-22.19-1.46c-2.84.47-4.56.95-4.58.86a6,6,0,0,1,1.18-.41,30.86,30.86,0,0,1,3.33-.81,44.25,44.25,0,0,1,11.28-.7,45,45,0,0,1,11.09,2.17,29.62,29.62,0,0,1,3.19,1.24A5.27,5.27,0,0,1,398.8,430.12Z" style="fill:#e0e0e0"></path><path d="M395.62,442.8a4.61,4.61,0,0,1-1.18-.22l-3.15-.73c-2.67-.6-6.38-1.34-10.51-1.9s-7.9-.83-10.63-1l-3.24-.14a5,5,0,0,1-1.19-.1,5.8,5.8,0,0,1,1.19-.1c.77,0,1.88,0,3.25,0a90.25,90.25,0,0,1,10.69.82,89.15,89.15,0,0,1,10.52,2.06c1.33.34,2.4.65,3.13.89A5.5,5.5,0,0,1,395.62,442.8Z" style="fill:#e0e0e0"></path><path d="M390.6,463.32a5.56,5.56,0,0,1-.86-.93c-.53-.62-1.31-1.5-2.3-2.55A55.05,55.05,0,0,0,369,446.94c-1.33-.57-2.43-1-3.19-1.28a5.77,5.77,0,0,1-1.17-.5,6.48,6.48,0,0,1,1.23.31,33.67,33.67,0,0,1,3.27,1.13,50.07,50.07,0,0,1,10,5.42,49.55,49.55,0,0,1,8.51,7.57,31.78,31.78,0,0,1,2.18,2.68A5.68,5.68,0,0,1,390.6,463.32Z" style="fill:#e0e0e0"></path><path d="M366.78,464.46a10.83,10.83,0,0,1,.51-2.34c.37-1.42.91-3.38,1.59-5.52a43.14,43.14,0,0,1,2.08-5.38,8.63,8.63,0,0,1,1.18-2.08,15.59,15.59,0,0,1-.85,2.23c-.55,1.35-1.23,3.26-1.91,5.39s-1.24,3.88-1.74,5.47A10.93,10.93,0,0,1,366.78,464.46Z" style="fill:#e0e0e0"></path><path d="M394.1,392.78c0,.08-1.24.11-3.23.3a48.93,48.93,0,0,0-7.66,1.4,46.71,46.71,0,0,0-7.3,2.69c-1.82.84-2.9,1.45-2.94,1.37s.23-.21.7-.52,1.18-.72,2.07-1.18a37.44,37.44,0,0,1,15.1-4.12,22,22,0,0,1,2.38,0A2.6,2.6,0,0,1,394.1,392.78Z" style="fill:#e0e0e0"></path><path d="M394.88,149.36a4.48,4.48,0,0,1-2.64-8.51,4.66,4.66,0,0,1,3.36-8.18,5.58,5.58,0,0,1,8-5.28,6.27,6.27,0,0,1,7.68-.83,4.46,4.46,0,0,1,4.58,7.19" style="fill:#263238"></path><path d="M412.6,130.88l-1,.09A19,19,0,0,0,394.29,150c.07,9.21.27,19.39.76,24.29,1,10.15,11.33,10.83,11.33,10.83l.22,12.28,23.07-3.4-.22-44C429.43,139.41,423.22,130.56,412.6,130.88Z" style="fill:#ffbf9d"></path><path d="M406.36,185.16a24.68,24.68,0,0,0,12.9-5.08s-2.62,7.77-12.84,7.75Z" style="fill:#ff9a6c"></path><path d="M397.85,159.46a1.45,1.45,0,0,0,1.53,1.34,1.38,1.38,0,0,0,1.37-1.44,1.45,1.45,0,0,0-1.52-1.34A1.39,1.39,0,0,0,397.85,159.46Z" style="fill:#263238"></path><path d="M396.91,154.82c.2.17,1.23-.74,2.79-.87s2.77.54,2.93.34-.14-.42-.67-.74a4,4,0,0,0-2.37-.5,3.78,3.78,0,0,0-2.19.93C397,154.39,396.82,154.74,396.91,154.82Z" style="fill:#263238"></path><path d="M411.36,158.59a1.45,1.45,0,0,0,1.52,1.34,1.39,1.39,0,0,0,1.38-1.44,1.45,1.45,0,0,0-1.52-1.34A1.39,1.39,0,0,0,411.36,158.59Z" style="fill:#263238"></path><path d="M412.28,153.75c.2.18,1.23-.73,2.79-.87s2.77.55,2.93.34-.14-.42-.67-.73A4,4,0,0,0,415,152a3.81,3.81,0,0,0-2.19.93C412.32,153.32,412.19,153.68,412.28,153.75Z" style="fill:#263238"></path><path d="M407.64,165.83a10.25,10.25,0,0,0-2.57-.23c-.41,0-.79,0-.88-.32a2,2,0,0,1,.16-1.2c.29-1,.59-2.05.91-3.14,1.26-4.47,2.13-8.13,1.95-8.18s-1.35,3.53-2.6,8c-.3,1.1-.59,2.15-.86,3.15a2.32,2.32,0,0,0-.07,1.59,1,1,0,0,0,.71.52,2.74,2.74,0,0,0,.68,0A10.25,10.25,0,0,0,407.64,165.83Z" style="fill:#263238"></path><path d="M417.37,147.08c-.1-.44-1.51-.35-3.12-.71s-2.9-1-3.15-.6c-.11.17.09.59.58,1a5,5,0,0,0,2.28,1.11,4.62,4.62,0,0,0,2.5-.12C417.08,147.59,417.41,147.28,417.37,147.08Z" style="fill:#263238"></path><path d="M402.42,149.54c-.37-.32-1.61.21-3.15.41s-2.88.11-3.13.52c-.11.19.13.52.75.79a5,5,0,0,0,2.63.26,5,5,0,0,0,2.43-1C402.45,150.08,402.59,149.69,402.42,149.54Z" style="fill:#263238"></path><path d="M394.85,145.3s2.12-6.6,5.06-8.36c3.55-2.12,5.51,1.81,9,.51s6.85-3.34,10.71-.93c4.22,2.65,2.55,4.91,3.2,9.4,2.6,18.19,6.4,23.06,6.59,14.37,0-.95,2.57-1.93,2.6-5.95,0-5.21-.31-11.51-1.78-15.07-1.25-3-3.2-5-6.57-7.06-5.32-3.27-12.17-2.75-16.79-1.87S393.73,137.37,394.85,145.3Z" style="fill:#263238"></path><path d="M428.69,160.07a2.78,2.78,0,0,1,2.75-2.92c1.91,0,4.11.9,4.33,4.83.39,7-6.68,5.92-6.7,5.72S428.83,163,428.69,160.07Z" style="fill:#ffbf9d"></path><path d="M430.43,165s.13.08.34.17a1.21,1.21,0,0,0,.91,0,3,3,0,0,0,1.24-2.77,4.12,4.12,0,0,0-.44-1.72,1.43,1.43,0,0,0-1-.88.62.62,0,0,0-.69.38c-.09.2,0,.33-.07.35s-.16-.11-.12-.4a.79.79,0,0,1,.25-.45.91.91,0,0,1,.66-.22,1.71,1.71,0,0,1,1.33,1,4.06,4.06,0,0,1,.53,1.92c0,1.4-.61,2.76-1.6,3.1a1.3,1.3,0,0,1-1.12-.12C430.46,165.16,430.41,165,430.43,165Z" style="fill:#ff9a6c"></path><path d="M427.37,146.62a6.59,6.59,0,0,1-2.82,1.62,2.27,2.27,0,0,1-2.66-1.37c-.12-.47-.05-1.05-.4-1.39s-1.11-.21-1.69-.1c-2,.39-4.55-1.63-5.24-3.55a1.83,1.83,0,0,1-2.38.72,6.75,6.75,0,0,1-1.81-1.34,2.88,2.88,0,0,0-2.49-1,6.67,6.67,0,0,1-1.48.46c-.92,0-1.46-1-1.67-1.92s-.42-1.94-1.24-2.36a3.66,3.66,0,0,0-2.49.15c-.83.2-1.93.1-2.22-.71a1.66,1.66,0,0,1,.2-1.28,4.52,4.52,0,0,1,5.16-2.18,6.12,6.12,0,0,1,11.1-2.17,6.21,6.21,0,0,1,10.09,1.38,4.5,4.5,0,0,1,5.63,6.08,4.28,4.28,0,0,1,2.65,3.19c.15,1.43-1.12,3-2.54,2.73a2.5,2.5,0,0,1-4.08,2.86" style="fill:#263238"></path><path d="M403.81,134.48s0,.05,0,.13a3.74,3.74,0,0,0,.08.37,4.28,4.28,0,0,0,.62,1.29,5,5,0,0,0,1.69,1.51,4.64,4.64,0,0,0,2.91.56l-.13-.15a2.55,2.55,0,0,0,.31,1.91,7.26,7.26,0,0,0,1.34,1.6,5.15,5.15,0,0,0,.85.73,2.37,2.37,0,0,0,1.13.31,2.55,2.55,0,0,0,2.17-1l-.27-.05a5.23,5.23,0,0,0,2.53,3.41,3.84,3.84,0,0,0,2.35.55,6.67,6.67,0,0,0,2.2-.7l-.19-.06a5.52,5.52,0,0,0,1.83,2,2.92,2.92,0,0,0,2.48.44,3.82,3.82,0,0,0,2.68-3.25l-.15.09a3.59,3.59,0,0,0,2.42.13,4,4,0,0,0,1.6-.88,3.46,3.46,0,0,0,.7-.92,1.29,1.29,0,0,0,.14-.38,3.73,3.73,0,0,1-2.49,2,3.38,3.38,0,0,1-2.28-.17l-.14-.06v.15a3.63,3.63,0,0,1-2.54,3,2.67,2.67,0,0,1-2.26-.43,5.35,5.35,0,0,1-1.72-1.9l-.07-.12-.12.06a6.82,6.82,0,0,1-2.11.66,3.59,3.59,0,0,1-2.17-.51,5,5,0,0,1-2.39-3.21l-.07-.33-.19.27a2.28,2.28,0,0,1-1.92.89,2.26,2.26,0,0,1-1-.27,5.65,5.65,0,0,1-.8-.68,6.92,6.92,0,0,1-1.31-1.54,2.26,2.26,0,0,1-.3-1.72l0-.17-.17,0a4.48,4.48,0,0,1-2.8-.5,4.85,4.85,0,0,1-1.66-1.41A5.39,5.39,0,0,1,403.81,134.48Z" style="fill:#455a64"></path><path d="M413.69,169.89c-.11.05-.32-.19-.78-.14a8.28,8.28,0,0,0-1.93.52c-1.49.58-2.54,1.45-2.71,1.28s.7-1.39,2.41-2.06a4.51,4.51,0,0,1,2.29-.32,1,1,0,0,1,.68.42C413.75,169.76,413.73,169.87,413.69,169.89Z" style="fill:#263238"></path><path d="M413.78,315c-.5,1.46,12.27,70.94,13.86,80.76s9.07,60.58,9.07,60.58l23.17-1.22s-2.13-54.16-3-59.29-3.25-31.12-3.15-40,.7-31,.93-40.8c.27-11.71-4.38-29.86-4.38-29.86l-41.26,5.69Z" style="fill:#263238"></path><path d="M418.76,343.73a3.61,3.61,0,0,1-.29-1c-.16-.67-.36-1.63-.59-2.83-.47-2.4-1-5.73-1.54-9.42s-1-6.89-1.38-9.43c-.17-1.11-.31-2.07-.42-2.86a3.53,3.53,0,0,1-.09-1.06,5.24,5.24,0,0,1,.29,1c.15.66.35,1.63.58,2.83.46,2.4,1,5.73,1.53,9.42s1,6.88,1.39,9.42c.17,1.12.31,2.07.42,2.86A4.43,4.43,0,0,1,418.76,343.73Z" style="fill:#455a64"></path><path d="M437.92,438,439,459.07s-21.54,8.14-21.73,12.06l41.82-.53-.26-33Z" style="fill:#263238"></path><path d="M451.89,457.13a1.58,1.58,0,1,1-.71,3.08,1.76,1.76,0,0,1-1.26-2,1.71,1.71,0,0,1,2.12-1" style="fill:#e0e0e0"></path><path d="M459.07,470.6l-.16-3.32-40,1.75s-1.85.81-1.62,2.1Z" style="fill:#455a64"></path><path d="M438.29,458.87c0,.2,1,.27,2,.91s1.56,1.46,1.75,1.38-.14-1.23-1.38-2S438.25,458.68,438.29,458.87Z" style="fill:#fff"></path><path d="M433.93,460.7c0,.2.85.52,1.55,1.36s.92,1.74,1.12,1.72.32-1.14-.58-2.17S433.93,460.51,433.93,460.7Z" style="fill:#fff"></path><path d="M431.51,465.88c.18,0,.45-1-.08-2.05s-1.5-1.52-1.59-1.35.52.75.94,1.65S431.3,465.86,431.51,465.88Z" style="fill:#fff"></path><path d="M438.6,454c.09.18,1-.11,2.18,0s2.06.41,2.16.24-.77-.88-2.13-.93S438.5,453.87,438.6,454Z" style="fill:#fff"></path><path d="M440.89,188.23l-9.06-3.95-.24.92c-2.26,4-9.14,6.29-14.19,6.25-5.36,0-8.38-2.94-8.58-6.5l-2.5.25-15.2,2.11-7,25.29,2.18,87.57c9.13,11.95,33.34,10,64.7-7.84,1.76-1.85-.08-6.8-.68-7.23l-3.44-26-.14-68.74Z" style="fill:#FF725E"></path><path d="M447.25,213.71c-.15,0-.33,8.37-.39,18.69s0,18.69.16,18.69.32-8.36.39-18.69S447.4,213.71,447.25,213.71Z" style="fill:#263238"></path><path d="M463.84,236.32s.38-2.42-1.06-14.25-1.27-19.57-7.39-26.95c-2.76-3.33-11.95-5.94-11.95-5.94l-7.3,20.89-1.43,3.09,5.69,23.17Z" style="fill:#FF725E"></path><path d="M438.31,214.78a11.28,11.28,0,0,1,.26,2.16c.15,1.54.32,3.29.5,5.21s.34,3.68.48,5.22a9.59,9.59,0,0,1,.08,2.18,8.67,8.67,0,0,1-.44-2.13c-.21-1.33-.44-3.17-.64-5.22A33.38,33.38,0,0,1,438.31,214.78Z" style="fill:#263238"></path><path d="M391.12,187.31c-.19.88-5.73,9.49,4.6,30.4L408,243.2l7.95-4.59s-14.34-22.83-17.86-30.43a32,32,0,0,1-1.44-21.71Z" style="fill:#e0e0e0"></path><g style="opacity:0.30000000000000004"><path d="M398.57,197.93l.8.1c1.33,4.06,5.27,7,9.49,7.68a17.71,17.71,0,0,0,12.21-2.85,33.94,33.94,0,0,0,9-9C421.26,196.24,407.42,195.55,398.57,197.93Z"></path></g><g style="opacity:0.30000000000000004"><path d="M448,266.49l-58.78,5.07c.66,2.81,4.09,3.79,6.94,4.24,17.71,2.79,36,5.51,53.86,6.87C449,272.22,447.9,271.71,448,266.49Z"></path></g><path d="M386.28,271.1s56.73,5.53,66.49,4,15.47-10.13,14.7-24.84-3.59-31.61-3.59-31.61l-14.05,1.94L390.2,254.35l-4.08,12.79Z" style="fill:#455a64"></path><path d="M384.71,271.17c0-.12,0-12.22,4.09-17.23,4.2-5.17,58.23-33.1,58.77-33.38,5.92-3.06,16.08-4.14,16.51-4.18l.32,3.12c-.1,0-10,1.07-15.39,3.85-16.89,8.73-54.9,29-57.78,32.57s-3.42,13.47-3.38,15.13Z" style="fill:#fff"></path><path d="M384.71,271.17s.26,0,.78-.06l2.36-.12-.06.06a43.75,43.75,0,0,1,.31-5.26,31.27,31.27,0,0,1,1.7-7.57,9.08,9.08,0,0,1,1.09-2.06,3.94,3.94,0,0,1,.84-.89,8.18,8.18,0,0,1,1-.78c.67-.5,1.38-1,2.12-1.46s1.49-1,2.28-1.45c3.13-2,6.61-4,10.35-6.09,7.49-4.26,16.08-8.94,25.44-14,4.68-2.49,9.56-5.07,14.6-7.69a30.54,30.54,0,0,1,3.93-1.81,39.6,39.6,0,0,1,4.19-1.24,73.52,73.52,0,0,1,8.76-1.56l-.24.29c-.07-.74-.15-1.54-.24-2.34,0-.27,0-.54-.08-.79l.29.24c-7,.85-13.9,2.3-19.64,5.82q-8.91,4.64-17.07,9c-10.84,5.8-20.55,11.1-28.55,15.83-2,1.18-3.88,2.33-5.63,3.47-.88.57-1.72,1.14-2.5,1.72a8.6,8.6,0,0,0-2.06,1.91A15.59,15.59,0,0,0,386.5,259a36.09,36.09,0,0,0-1,4.19,57.39,57.39,0,0,0-.68,5.93c0,.66-.07,1.18-.09,1.55s0,.52,0,.53a3.06,3.06,0,0,1,0-.53c0-.35,0-.88,0-1.56a53.16,53.16,0,0,1,.59-5.95,36.41,36.41,0,0,1,.95-4.23,16.1,16.1,0,0,1,2.16-4.69,9.07,9.07,0,0,1,2.11-2c.79-.59,1.63-1.17,2.51-1.74,1.75-1.16,3.63-2.32,5.62-3.52,8-4.77,17.68-10.11,28.52-15.93,5.41-2.91,11.12-5.93,17.06-9,1.49-.76,2.95-1.59,4.53-2.3a35.88,35.88,0,0,1,4.91-1.66,72.16,72.16,0,0,1,10.37-1.93l.26,0,0,.26c0,.25.05.52.08.78.08.81.17,1.61.24,2.35l0,.25-.26,0a72.53,72.53,0,0,0-8.68,1.54,30.48,30.48,0,0,0-8,3c-5.05,2.62-9.93,5.19-14.61,7.67-9.37,5-18,9.65-25.47,13.87-3.75,2.12-7.23,4.11-10.37,6-.79.47-1.54,1-2.28,1.43s-1.45.94-2.12,1.43a8,8,0,0,0-1,.75,4,4,0,0,0-.8.84,9.37,9.37,0,0,0-1.07,2,31.18,31.18,0,0,0-1.75,7.5,46.65,46.65,0,0,0-.4,5.23v.06h-.06l-2.39.05Z" style="fill:#263238"></path><path d="M451.59,193a21.18,21.18,0,0,0-2.82.51,12.7,12.7,0,0,0-5.65,3.76,23.94,23.94,0,0,0-3.6,5.88,25.4,25.4,0,0,1-1.21,2.64,12.28,12.28,0,0,1,.87-2.78,20.53,20.53,0,0,1,3.55-6.08,12,12,0,0,1,5.94-3.77,7.93,7.93,0,0,1,2.14-.26A2,2,0,0,1,451.59,193Z" style="fill:#263238"></path><path d="M430.36,172.5c2.42.21,2.18,9.32,2.14,16.79-1,8.5-14.39,13.2-22.29,13.85-4.6.38-10.78-2.44-12.15-7s-1.05-15.32-.91-15.79c0,0,3,4.32,10,4,6.27-.25,15.16-5,15.16-5C424.43,178.16,428.49,174.25,430.36,172.5Z" style="fill:#e0e0e0"></path><path d="M432.13,181.61s-.05.13-.19.35-.34.55-.64.95a27.69,27.69,0,0,1-2.75,3.22A30.36,30.36,0,0,1,403,194.94a26.58,26.58,0,0,1-4.14-.84c-.48-.13-.84-.27-1.09-.35s-.38-.14-.37-.16a11,11,0,0,1,1.51.32,34.86,34.86,0,0,0,4.13.67,31.52,31.52,0,0,0,25.25-8.71,36.2,36.2,0,0,0,2.84-3.08A9.77,9.77,0,0,1,432.13,181.61Z" style="fill:#263238"></path><path d="M447.88,248.31c0,.08-1.42-.07-3.71-.2a69.63,69.63,0,0,0-8.91.1,67.7,67.7,0,0,0-8.83,1.29c-2.24.47-3.61.84-3.63.76a4.16,4.16,0,0,1,.93-.37c.61-.21,1.5-.47,2.62-.75a52.94,52.94,0,0,1,8.87-1.45,53.52,53.52,0,0,1,9,.06c1.15.1,2.07.22,2.7.34A3.49,3.49,0,0,1,447.88,248.31Z" style="fill:#263238"></path><path d="M441.49,246.12a15.72,15.72,0,0,1-1.2-3.78,15.25,15.25,0,0,1-.69-3.91,29.92,29.92,0,0,1,1.89,7.69Z" style="fill:#263238"></path><g style="opacity:0.30000000000000004"><path d="M439.7,238.79c-.15-.63-1.12-.71-1.57-.25a2.17,2.17,0,0,0-.39,1.83,6.25,6.25,0,0,1,.14,1.92,2.87,2.87,0,0,1-1.88,2,10.6,10.6,0,0,1-2.81.47,28.12,28.12,0,0,0-13.92,5.33c-.53.39-1.09,1.13-.64,1.62s.95.18,1.42,0A37.55,37.55,0,0,1,438,248.5a7.57,7.57,0,0,0,2.18,0,2.22,2.22,0,0,0,1.64-1.32,1.33,1.33,0,0,0-.88-1.72"></path></g><g style="opacity:0.30000000000000004"><path d="M384.35,220.49s-3,5.78-2.38,15.84a98.43,98.43,0,0,0,2.65,17.6Z"></path></g><path d="M384.16,236.66c.39,15.74.83,28.49,1,28.48s0-12.76-.44-28.49-.84-28.48-1-28.47" style="fill:#263238"></path></g><g id="freepik--character-1--inject-43"><path d="M169.32,233.15c2.23-1.3,4.78-2.67,4.78-2.67l2.19-1.33a2.22,2.22,0,0,1,.06.51,2,2,0,0,0,.2,1,1.55,1.55,0,0,0,1.69.44,3.76,3.76,0,0,0,2.67-2.57,3.71,3.71,0,0,0-.85-3.45,2.9,2.9,0,0,0-.22-1c-.92-2.23-4.36-2.9-4.36-2.9l.7-.58s2.7-.79,5.84,2.66a2.88,2.88,0,0,0,1.81,1,1.46,1.46,0,0,0,1.2-.34c.82-.79.48-1.57-1.46-3.75s-4.53-3.65-6.49-3.48a20.13,20.13,0,0,0-2.71.36s6-5.54,6.42-5.91c1.06-1.06,1.48-2.42.84-3.19-.41-.5-1.3-.82-2.58.37-1.11,1-13.8,10.2-13.8,10.2l-5.37,4.37L156,227.09l5.45,7.2,2.44-.15A8,8,0,0,0,169.32,233.15Z" style="fill:#ffbf9d"></path><path d="M175.37,221a3.54,3.54,0,0,1,1.52-.69,2.85,2.85,0,0,1,1.74.33,7.08,7.08,0,0,1,1.75,1.39,11.72,11.72,0,0,0,1.74,1.54,3.86,3.86,0,0,0,1.81.66,1.47,1.47,0,0,0,1.2-.49.82.82,0,0,0,.22-.42s-.1.13-.31.33a1.39,1.39,0,0,1-1.1.35,3.79,3.79,0,0,1-1.65-.68,12.75,12.75,0,0,1-1.68-1.52,6.87,6.87,0,0,0-1.85-1.43,3,3,0,0,0-1.91-.28,2.55,2.55,0,0,0-1.17.55C175.45,220.88,175.36,221,175.37,221Z" style="fill:#ff9a6c"></path><path d="M181.19,210.59a10.49,10.49,0,0,0-1.21,1.09l-2.84,2.71-2.88,2.66a10.3,10.3,0,0,0-1.17,1.13,6.45,6.45,0,0,0,1.32-1c.78-.63,1.83-1.55,3-2.6s2.1-2,2.79-2.78A7.59,7.59,0,0,0,181.19,210.59Z" style="fill:#ff9a6c"></path><path d="M175.29,223.64a2.28,2.28,0,0,0,.46.21,1.52,1.52,0,0,1,.91.88.8.8,0,0,1-.21.77,4.15,4.15,0,0,1-.83.66,1.85,1.85,0,0,0-.8,1,1.54,1.54,0,0,0,.38,1.35,1.8,1.8,0,0,0,1.29.55,2.32,2.32,0,0,0,1.25-.34,7.53,7.53,0,0,0,1.51-1.45,4.22,4.22,0,0,0,.7-1.23c.1-.32.08-.51.06-.51s0,.18-.18.47a4.9,4.9,0,0,1-.76,1.12,7.46,7.46,0,0,1-1.5,1.35,1.77,1.77,0,0,1-2.13-.18,1.22,1.22,0,0,1-.31-1.06,1.59,1.59,0,0,1,.67-.85,4.06,4.06,0,0,0,.86-.74,1,1,0,0,0,.22-1,1.58,1.58,0,0,0-1.08-.92A1.24,1.24,0,0,0,175.29,223.64Z" style="fill:#ff9a6c"></path><path d="M168.69,228.45s-.13-.27-.54-.56a3.11,3.11,0,0,0-1.93-.53l.13.26a9.24,9.24,0,0,0,.68-.88,6.9,6.9,0,0,0,1.34-3.56,17,17,0,0,1-1.61,3.38c-.21.31-.43.6-.64.86l-.24.28.37,0a3.3,3.3,0,0,1,1.8.39C168.46,228.28,168.66,228.48,168.69,228.45Z" style="fill:#ff9a6c"></path><path d="M179,219.06a1.42,1.42,0,0,0,0,1.33c.26.73.83,1.09.88,1s-.35-.48-.57-1.12S179.1,219.07,179,219.06Z" style="fill:#ff9a6c"></path><path d="M165.43,219.19a3.71,3.71,0,0,1,.95.2c.59.16,1.45.4,2.5.71l3.71,1.13,1.06.33c.33.13.82.15,1.14.67a.74.74,0,0,1-.13.82,1.51,1.51,0,0,1-.61.39,5.63,5.63,0,0,1-1.28.28,33.31,33.31,0,0,1-4.76-.26,6.64,6.64,0,0,0-2,.18c-.6.16-1.15.42-1.68.61a3.15,3.15,0,0,1-2.64,0c-.57-.33-.66-.73-.64-.73a2.6,2.6,0,0,0,.73.55,3,3,0,0,0,2.42-.17c.5-.19,1-.48,1.69-.67A6.94,6.94,0,0,1,168,223a41.62,41.62,0,0,0,4.69.23,6,6,0,0,0,1.15-.25c.35-.12.58-.37.47-.53s-.47-.33-.83-.44l-1.07-.34-3.66-1.23c-1.05-.35-1.89-.65-2.46-.87A3.67,3.67,0,0,1,165.43,219.19Z" style="fill:#ff9a6c"></path><path d="M84.64,188.63l-.12-41.7c-.36-10.37,5.37-19.23,15.75-19.3l1,0a18.56,18.56,0,0,1,17.6,18c.27,9,.45,18.93.15,23.73-.63,9.94-10.66,11-10.66,11s-.12,6-.14,9l2.27,6.85-8.17-2.07Z" style="fill:#ffbf9d"></path><path d="M108.32,180.36a24,24,0,0,1-12.75-4.49s2.73,7.64,12.7,7.25Z" style="fill:#ff9a6c"></path><path d="M115.84,153.9a1.42,1.42,0,0,1-1.44,1.36,1.35,1.35,0,0,1-1.4-1.35,1.42,1.42,0,0,1,1.44-1.36A1.36,1.36,0,0,1,115.84,153.9Z" style="fill:#263238"></path><path d="M116.49,149.93c-.18.18-1.22-.67-2.75-.74s-2.68.63-2.84.43.12-.41.63-.74a3.9,3.9,0,0,1,2.28-.58,3.72,3.72,0,0,1,2.18.83C116.44,149.51,116.59,149.85,116.49,149.93Z" style="fill:#263238"></path><path d="M101.59,153.86a1.43,1.43,0,0,1-1.44,1.37,1.37,1.37,0,0,1-1.4-1.36,1.42,1.42,0,0,1,1.44-1.36A1.35,1.35,0,0,1,101.59,153.86Z" style="fill:#263238"></path><path d="M101.5,149.53c-.19.17-1.23-.68-2.75-.75s-2.69.63-2.85.44.12-.42.63-.75a3.91,3.91,0,0,1,2.29-.58,3.78,3.78,0,0,1,2.17.83C101.44,149.1,101.59,149.45,101.5,149.53Z" style="fill:#263238"></path><path d="M106.38,161.55a9.64,9.64,0,0,1,2.51-.32c.39,0,.76-.08.84-.35a1.94,1.94,0,0,0-.2-1.17l-1-3c-1.39-4.31-2.37-7.85-2.2-7.9s1.44,3.4,2.83,7.71c.33,1.06.65,2.07,1,3a2.31,2.31,0,0,1,.13,1.55,1,1,0,0,1-.68.53,2.28,2.28,0,0,1-.66.06A9.64,9.64,0,0,1,106.38,161.55Z" style="fill:#263238"></path><path d="M102.23,144.77c-.22.38-1.69-.1-3.49-.24s-3.32.08-3.48-.33c-.08-.2.25-.54.9-.82a6.13,6.13,0,0,1,5.32.44C102.07,144.21,102.34,144.59,102.23,144.77Z" style="fill:#263238"></path><path d="M116.79,145.44c-.33.34-1.56-.07-3.06-.14s-2.77.14-3-.24c-.12-.18.09-.52.66-.83a5,5,0,0,1,2.51-.48,4.75,4.75,0,0,1,2.41.79C116.78,144.92,116.94,145.28,116.79,145.44Z" style="fill:#263238"></path><path d="M85,154.34c-.16-.08-6.73-2.37-6.86,4.44s6.74,5.53,6.75,5.34S85,154.34,85,154.34Z" style="fill:#ffbf9d"></path><path d="M82.82,161.5s-.12.08-.32.17a1.22,1.22,0,0,1-.89,0A3,3,0,0,1,80.3,159a4,4,0,0,1,.37-1.69,1.37,1.37,0,0,1,.91-.9.61.61,0,0,1,.69.34c.09.2,0,.33.08.34s.15-.11.1-.39a.74.74,0,0,0-.26-.43.89.89,0,0,0-.65-.19,1.67,1.67,0,0,0-1.26,1,4,4,0,0,0-.45,1.89c0,1.38.7,2.68,1.67,3a1.28,1.28,0,0,0,1.09-.16C82.81,161.66,82.85,161.51,82.82,161.5Z" style="fill:#ff9a6c"></path><path d="M101.57,162.45c.23,0,.23,1.55,1.56,2.67s3,.95,3,1.17-.37.3-1.07.32a3.94,3.94,0,0,1-2.52-.89,3.43,3.43,0,0,1-1.21-2.24C101.29,162.83,101.46,162.44,101.57,162.45Z" style="fill:#263238"></path><path d="M132.66,136.82a1.63,1.63,0,0,0-.73-1,5,5,0,0,0-2.54-.47,14.16,14.16,0,0,1-6.2-1.69,7.31,7.31,0,0,0,1.86-1.25,4.28,4.28,0,0,0,1.32-4.22,1,1,0,0,0-.52-.66c-.44-.15-.84.28-1.16.61a3.66,3.66,0,0,1-3.49,1.4,6,6,0,0,1-2.57-.82l-.09-.1c-.34-.37-.68-.73-1-1.07h0c-2.51-2.6-4.67-4.4-6.92-5.36A23.1,23.1,0,0,0,98.27,121c-3.49.83-6.66,3.58-7.22,7.12-1.91-1.68-4.82-1.73-7.21-.83l-.06,0c-2.66.88-4.21,3.64-5,6.31,0,.15-.08.29-.13.44A10.4,10.4,0,0,1,75,137.41c-.26.15-.55.32-.59.61s.2.54.44.72a5.42,5.42,0,0,0,2.11.93A11.55,11.55,0,0,1,76,141.5c-.31.5-.67,1.1-.42,1.63a1.11,1.11,0,0,0,1.15.53,3.4,3.4,0,0,0,1.24-.53l-.93,2.09a6.19,6.19,0,0,0,2.87-.13c.51,2.53.84,7.19,1.45,8.91,1.81.07,2.25-.12,3.15.2,1.17.42.68,2.5,2.23,1.94.79-.29,2-3.23,2.33-4a39,39,0,0,0,2-16.42A12.6,12.6,0,0,1,95,133l-.12.1c2.8-.91,6-1.8,8.59-.43,2,1.05,3.19,3.21,4.68,4.93a14.24,14.24,0,0,0,10.42,5.34c.32,3,.34,7.94.43,10.74l2.51-5.56v0a10.37,10.37,0,0,0,.53-1l0-.1h0a16,16,0,0,1,.83-1.58l0,0a1.75,1.75,0,0,0,2.61-2.29,4,4,0,0,0-.83-.87,2.77,2.77,0,0,0,2.63.74A2.17,2.17,0,0,0,129,141a1.82,1.82,0,0,0-1.07-1.5,6.3,6.3,0,0,0,3.57-.71C132.18,138.35,132.88,137.71,132.66,136.82Z" style="fill:#263238"></path><path d="M94.17,129.33a8.9,8.9,0,0,0-1,.9,7.15,7.15,0,0,0-1.6,3.27,12.87,12.87,0,0,0-.31,2.53c0,.92,0,1.9.08,2.94a25.42,25.42,0,0,1,0,3.27,13,13,0,0,1-.26,1.72,3.65,3.65,0,0,1-.74,1.66,1.52,1.52,0,0,1-1.42.44,2.27,2.27,0,0,1-1.25-.74,5.29,5.29,0,0,1-.91-2.55l.21,0a8.39,8.39,0,0,1-1.25,2.07,3,3,0,0,1-2,1,1.89,1.89,0,0,1-1-.2A1.64,1.64,0,0,1,82,145a1.66,1.66,0,0,1-.2-.89,1.33,1.33,0,0,1,.34-.77l.1.1A6.32,6.32,0,0,1,80.11,145a4,4,0,0,1-.67.24,1.3,1.3,0,0,1-.24.06.92.92,0,0,1,.23-.09c.15-.06.37-.14.65-.28a6.65,6.65,0,0,0,2.1-1.59l.1.1a1.3,1.3,0,0,0-.1,1.48,1.54,1.54,0,0,0,.62.62,1.72,1.72,0,0,0,.93.17,2.76,2.76,0,0,0,1.82-1,8.2,8.2,0,0,0,1.21-2l.15-.32.06.35a4.9,4.9,0,0,0,.87,2.44,2,2,0,0,0,1.11.66,1.27,1.27,0,0,0,1.21-.37,3.45,3.45,0,0,0,.68-1.55,12.58,12.58,0,0,0,.26-1.69,27,27,0,0,0,0-3.24c0-1-.09-2-.06-3a12.48,12.48,0,0,1,.34-2.56,7.08,7.08,0,0,1,1.69-3.3A4,4,0,0,1,94.17,129.33Z" style="fill:#455a64"></path><path d="M124.8,139.67s0,0-.09.07l-.25.18a3,3,0,0,1-.43.26,5,5,0,0,1-.61.3,8.69,8.69,0,0,1-4.28.68,11.33,11.33,0,0,1-6-2.34,19.64,19.64,0,0,1-5-6.07c-.7-1.22-1.27-2.47-1.9-3.62a13.21,13.21,0,0,0-2.16-3.09,7,7,0,0,0-2.83-1.8,4.69,4.69,0,0,0-1.51-.2,5.26,5.26,0,0,0-1.4.23,5.81,5.81,0,0,0-3.26,2.65,6.32,6.32,0,0,0-.54,1.48s0,0,0-.1,0-.19,0-.31a5.76,5.76,0,0,1,.4-1.12,6.11,6.11,0,0,1,1.15-1.49,5.78,5.78,0,0,1,2.14-1.26,5.17,5.17,0,0,1,1.44-.26,4.74,4.74,0,0,1,1.57.2,7,7,0,0,1,2.93,1.83,13.07,13.07,0,0,1,2.22,3.13c.63,1.16,1.2,2.41,1.89,3.62a19.74,19.74,0,0,0,5,6,11.21,11.21,0,0,0,5.85,2.35,8.91,8.91,0,0,0,4.23-.6A15.28,15.28,0,0,0,124.8,139.67Z" style="fill:#455a64"></path><path d="M125.79,135.31s-.12.1-.36.24a7.17,7.17,0,0,1-1.07.52,11,11,0,0,1-1.69.52,11.79,11.79,0,0,1-2.14.23,11.28,11.28,0,0,1-2.16-.19,10.75,10.75,0,0,1-1.7-.47,6.68,6.68,0,0,1-1.08-.5,1.52,1.52,0,0,1-.37-.23s.57.26,1.51.57a11.11,11.11,0,0,0,1.68.42,11.64,11.64,0,0,0,2.11.17,12.32,12.32,0,0,0,2.11-.22,11.63,11.63,0,0,0,1.67-.45C125.23,135.58,125.77,135.27,125.79,135.31Z" style="fill:#455a64"></path><path d="M107.81,444.18l-1,18.86s18.82,7.39,19,10.89l-36.64-.69.4-29.45Z" style="fill:#263238"></path><path d="M95.48,461.24a1.49,1.49,0,0,0-1.07,1.69A1.43,1.43,0,0,0,96.07,464a1.58,1.58,0,0,0,1.13-1.79,1.49,1.49,0,0,0-1.86-.92" style="fill:#e0e0e0"></path><path d="M89.11,473.24l.15-3,35.08,1.77s1.62.74,1.41,1.88Z" style="fill:#455a64"></path><path d="M107.38,462.87c0,.18-.91.24-1.8.8S104.2,465,104,464.9s.12-1.1,1.22-1.76S107.42,462.7,107.38,462.87Z" style="fill:#fff"></path><path d="M111.19,464.53c0,.17-.74.46-1.37,1.21s-.81,1.54-1,1.53-.27-1,.52-1.94S111.19,464.36,111.19,464.53Z" style="fill:#fff"></path><path d="M113.29,469.17c-.17,0-.4-.86.08-1.83s1.32-1.35,1.39-1.2-.45.67-.83,1.47S113.46,469.16,113.29,469.17Z" style="fill:#fff"></path><path d="M107.13,458.54c-.07.16-.89-.1-1.9-.05s-1.81.36-1.9.2.68-.78,1.87-.82S107.23,458.4,107.13,458.54Z" style="fill:#fff"></path><path d="M63.45,442.32l-2,22.77,3.62,18.46a2.34,2.34,0,0,1-2,2.78h0a2.34,2.34,0,0,1-2-.74c-3.27-3.56-15.22-16.72-15-18.38.27-1.92.5-24.15.5-24.15Z" style="fill:#263238"></path><path d="M63.08,486.33,46.19,465.67l-.07,1a3.54,3.54,0,0,0,.69,2.33c1.34,1.8,5.15,6.67,14.19,16.62a2.33,2.33,0,0,0,2.08.74Z" style="fill:#455a64"></path><g style="opacity:0.6000000000000001"><path d="M51.34,458.61a1.43,1.43,0,0,1,.27,1.88,1.38,1.38,0,0,1-1.86.28,1.49,1.49,0,0,1-.27-2,1.4,1.4,0,0,1,2-.08" style="fill:#fff"></path></g><path d="M58.51,476a7,7,0,0,1,2.11-1.65,7.05,7.05,0,0,1,2.66-.33c0-.06-.26-.25-.78-.36a3.64,3.64,0,0,0-2.07.23,3.71,3.71,0,0,0-1.63,1.3C58.51,475.67,58.45,476,58.51,476Z" style="fill:#fff"></path><path d="M59.93,479.18c.11.11.89-.58,2.09-.85a18.33,18.33,0,0,1,2.24-.14,2.58,2.58,0,0,0-2.35-.35C60.54,478.15,59.82,479.12,59.93,479.18Z" style="fill:#fff"></path><path d="M55.73,471.92a22.9,22.9,0,0,1,3.13-1.53,23,23,0,0,1,3.43-.57,5.14,5.14,0,0,0-3.58.09A5.23,5.23,0,0,0,55.73,471.92Z" style="fill:#fff"></path><path d="M55.76,465c.05.14,1.34-.31,3-.26s2.92.52,3,.38a4.47,4.47,0,0,0-3-.88A4.48,4.48,0,0,0,55.76,465Z" style="fill:#fff"></path><path d="M56.17,458.25a11.24,11.24,0,0,1,3.11-.35,11.34,11.34,0,0,1,3,1c0-.05-.19-.35-.69-.69a5.17,5.17,0,0,0-4.57-.45C56.43,457.94,56.14,458.2,56.17,458.25Z" style="fill:#fff"></path><path d="M59.32,456.62a1.91,1.91,0,0,0,.08-.86,5.89,5.89,0,0,0-.54-2.31,2.65,2.65,0,0,0-1.06-1.34,1,1,0,0,0-1.07.14,1.57,1.57,0,0,0-.42,1A3.3,3.3,0,0,0,59,456.5a3.83,3.83,0,0,0,3.9-1.76,1.35,1.35,0,0,0,.13-1.1.91.91,0,0,0-.93-.55,3.27,3.27,0,0,0-1.55.68,6.65,6.65,0,0,0-1.67,1.67,2.33,2.33,0,0,0-.41.77,11,11,0,0,1,2.27-2.14,3.18,3.18,0,0,1,1.37-.57.5.5,0,0,1,.51.3.9.9,0,0,1-.13.72A3.42,3.42,0,0,1,59.1,456a2.86,2.86,0,0,1-2.33-2.72,1.11,1.11,0,0,1,.27-.72.51.51,0,0,1,.59-.08,2.35,2.35,0,0,1,.91,1.12A8.94,8.94,0,0,1,59.32,456.62Z" style="fill:#fff"></path><path d="M126,285.76a81.1,81.1,0,0,1,1.77,23.87C127.35,314.7,110.23,455,110.23,455H87.12l6.5-131.88-1.89.41S79.11,379.79,78.08,388.9c-.92,8.19-11.56,67.65-11.56,67.65l-21.13.25,6.74-78.66L60,302.66l2.95-22Z" style="fill:#263238"></path><path d="M90,309.68a4.71,4.71,0,0,0,1,.55,11.24,11.24,0,0,0,2.86,1,6.07,6.07,0,0,0,2.13,0,4.29,4.29,0,0,0,2.23-1.07,5.34,5.34,0,0,0,1.35-2.36c.27-.89.42-1.83.61-2.78.74-3.8,1.24-7.28,1.53-9.8.15-1.26.24-2.28.3-3a5.24,5.24,0,0,0,0-1.11,4.44,4.44,0,0,0-.22,1.09c-.12.8-.27,1.79-.45,3-.38,2.51-.93,6-1.67,9.76-.37,1.88-.62,3.79-1.8,4.91a4.81,4.81,0,0,1-4,1,13.32,13.32,0,0,1-2.84-.84A5.12,5.12,0,0,0,90,309.68Z" style="fill:#455a64"></path><path d="M96.93,291.8s-.15-.12-.48-.14a2,2,0,0,0-1.29.41,2.31,2.31,0,0,0-1,1.79,2.29,2.29,0,0,0,3.9,1.46,2.35,2.35,0,0,0,.44-2,2.06,2.06,0,0,0-.7-1.16c-.26-.2-.44-.23-.45-.21a2.63,2.63,0,0,1,.81,1.44,2,2,0,0,1-.44,1.62,1.87,1.87,0,0,1-3.11-1.17,2,2,0,0,1,.74-1.51A2.58,2.58,0,0,1,96.93,291.8Z" style="fill:#455a64"></path><path d="M120.1,188.1c.58.24,7.66.91,10.05,9.61s10.77,35.39,10.77,35.39l16.58-9.86,8.3,17.62-20,13.6s-12.49,8.28-17.82-2.53Z" style="fill:#263238"></path><path d="M83.51,231.54c-.1-2.38-3.77-19.45-3.77-19.74s3.63-25.36,3.63-25.36l.81-7.85,17.61,10.56s6.66-5.74,6.48-6l1.48,4.48,1.4.5,2.09,20,8.39,77.65s-2.88,3.5-13.87,5.11c-13.7,2-33.48-5.11-33.48-5.11S83.61,233.92,83.51,231.54Z" style="fill:#e0e0e0"></path><g style="opacity:0.30000000000000004"><path d="M124.31,312.91s-2.59,2-4.17-9.81-6.25-61.16-6.25-61.16l-3.38-51.11,10.08,29.77Z"></path></g><g style="opacity:0.30000000000000004"><path d="M85.07,274.56s-4.63,45.19-6.38,44.31S60,311.33,60,311.33l1.7-14.61Z"></path></g><polygon points="106.16 195.72 103.97 198.95 100.69 198.95 98.93 195.72 100.86 191.64 103.47 191.78 106.16 195.72" style="fill:#FF725E"></polygon><path d="M84.72,189.15a4.59,4.59,0,0,0,.77.59l2.21,1.46c1.87,1.23,4.47,2.89,7.36,4.7l2.71,1.69.19.12.11-.18a36.64,36.64,0,0,0,2.84-5.94c.3-.76.53-1.36.68-1.78a2.29,2.29,0,0,0,.2-.66,16.55,16.55,0,0,0-1.13,2.33,47.21,47.21,0,0,1-3,5.81l.3-.07-2.7-1.7c-2.89-1.82-5.52-3.43-7.43-4.59l-2.28-1.34A4.06,4.06,0,0,0,84.72,189.15Z" style="fill:#455a64"></path><path d="M109.93,192.43a6.16,6.16,0,0,0-1,1.16c-.56.75-1.33,1.82-2.21,3.07h.36c-.36-.5-.73-1-1.11-1.61-1.11-1.66-2.11-3.18-2.87-4.24a8.22,8.22,0,0,0-1.35-1.65,13.44,13.44,0,0,0,1.08,1.83c.7,1.1,1.64,2.65,2.76,4.31.38.57.77,1.12,1.14,1.62l.18.25.17-.26c.86-1.26,1.58-2.36,2.08-3.16A5.81,5.81,0,0,0,109.93,192.43Z" style="fill:#455a64"></path><polygon points="103.97 198.95 111.82 272.77 104.3 283.39 95.98 274.56 100.69 198.95 103.97 198.95" style="fill:#FF725E"></polygon><path d="M83.67,179.31c-.61.47-8.08,5.92-8.08,5.92l-15.47,6.41s3.51,30.19,3.59,30.94c.91,7.88,3.53,32.65,3.53,32.65l-14,52.2,24.3,7.77s5.57-28.13,8.17-43.34,1.84-19.52,1.53-34.25-3.52-51.08-3.52-51.08Z" style="fill:#263238"></path><path d="M85.74,252.56a3.15,3.15,0,0,0-.06-.71c-.06-.47-.12-1.16-.27-2-.27-1.76-.72-4.31-1.34-7.45-1.22-6.27-3.08-14.91-5.24-24.42-1.73-7.62-3.38-14.66-4.73-20.29l-.06.18,3.24-2.76.13-.12-.12-.12L74,191.73l0,.14c.66-1.66,1.18-3,1.55-3.93l.39-1a1.8,1.8,0,0,0,.12-.37,2,2,0,0,0-.18.34c-.12.26-.26.6-.45,1-.4.94-1,2.24-1.65,3.88l0,.08.06.06,3.24,3.14v-.23l-3.27,2.72-.08.07,0,.11c1.3,5.67,2.91,12.7,4.65,20.31,2.16,9.51,4.06,18.13,5.37,24.38.66,3.13,1.15,5.67,1.48,7.42.17.88.26,1.57.35,2A6.34,6.34,0,0,0,85.74,252.56Z" style="fill:#455a64"></path><path d="M50.13,303.93a3.32,3.32,0,0,0,.52.25l1.52.67,5.69,2.41,19.62,8.14.25.1,0-.26,1.87-10.07c2-10.82,3.75-20.62,5-27.75.62-3.53,1.13-6.4,1.49-8.42.16-1,.28-1.74.38-2.3,0-.24.06-.44.08-.6s0-.2,0-.2,0,.06-.06.19-.08.36-.13.6c-.12.55-.27,1.31-.47,2.27l-1.62,8.4c-1.33,7.13-3.17,16.92-5.19,27.73-.64,3.5-1.27,6.9-1.85,10.07l.3-.17L58,307l-5.75-2.29-1.54-.6A3.53,3.53,0,0,0,50.13,303.93Z" style="fill:#455a64"></path><path d="M57.71,203.47c-.13,0,.31,5.78,1,12.88S60,229.19,60.1,229.18s-.31-5.77-1-12.88S57.83,203.46,57.71,203.47Z" style="fill:#455a64"></path><path d="M127.21,311.48a2.79,2.79,0,0,1-4.17-2.19l-5.45-55.92-8.66-68.25,3.33,1.64,9.37,1.6s5,12.32,6.33,24,1.15,42.25,1.15,42.25l8.31,51Z" style="fill:#263238"></path><path d="M119.05,254.76a7.29,7.29,0,0,0,0-.76c0-.49-.06-1.22-.06-2.16,0-1.87,0-4.59,0-7.94,0-6.71.2-16,.43-26.22.17-7,.33-13.52.46-19.05v-.13l-.11-.05-3.75-2,.06.25,2.55-3.72.07-.11-.09-.08-5-4.68-1.34-1.24a3.17,3.17,0,0,0-.48-.41,4,4,0,0,0,.43.47l1.28,1.29,4.85,4.78,0-.19-2.59,3.69-.11.16.17.1,3.74,2-.11-.18c-.18,5.52-.37,12.06-.53,19.06-.22,10.24-.34,19.51-.29,26.23,0,3.35.09,6.07.18,7.95,0,.94.11,1.66.14,2.16A3.79,3.79,0,0,0,119.05,254.76Z" style="fill:#455a64"></path><path d="M120.81,286.6a1.43,1.43,0,0,0,0,.43c0,.33.07.72.12,1.2.13,1.12.3,2.61.51,4.42.46,3.73,1.12,8.88,1.87,14.57l.77,5.72,0,.32.28-.16,9.37-5.28,2.69-1.57a6.36,6.36,0,0,0,.95-.61,7.35,7.35,0,0,0-1,.48l-2.76,1.46-9.44,5.14.32.16c-.23-1.79-.49-3.72-.75-5.72-.75-5.69-1.46-10.83-2-14.55-.27-1.8-.49-3.29-.66-4.4-.08-.48-.14-.87-.2-1.19A1.34,1.34,0,0,0,120.81,286.6Z" style="fill:#455a64"></path><path d="M129.11,254.65c-.14,0-.48-12.33-.74-27.54s-.37-27.56-.22-27.56.47,12.33.74,27.55S129.25,254.65,129.11,254.65Z" style="fill:#455a64"></path><path d="M60.12,191.64s-6.85,3-9.43,13.65c-2,8.45-11.62,51.82-11.39,57.79s3,41,3.75,41,18.27-1,18.27-1L60,261.79l5.28-22.49,1.93-15Z" style="fill:#263238"></path><path d="M43.05,304a8.16,8.16,0,0,1,1.34-.15l3.77-.28,13.15-.83-.23.25c-.11-3.39-.23-7.1-.35-11l-.54-20.72c0-2.6-.08-4.72-.1-6.27,0-.7,0-1.27,0-1.71a2.58,2.58,0,0,1,0-.6,2.49,2.49,0,0,1,.07.59l.1,1.71c.07,1.55.16,3.68.27,6.27.18,5.36.42,12.65.69,20.71.11,3.89.22,7.6.31,11v.24h-.24l-13.16.64L44.4,304A7.72,7.72,0,0,1,43.05,304Z" style="fill:#455a64"></path><path d="M62.2,209.61c.14,0,1.39,10.18,2.78,22.78s2.4,22.83,2.26,22.84-1.39-10.18-2.78-22.78S62.06,209.63,62.2,209.61Z" style="fill:#455a64"></path><rect x="25.7" y="314.13" width="57.68" height="41.17" rx="2.71" style="fill:#455a64"></rect><path d="M61,314.16a1.1,1.1,0,0,0-1.4,1.11c0,1.15.93,8.92.93,8.92s2.43,8.63,1.77,9.6a1.58,1.58,0,0,1-2.47.11c-.33-.45-3.06-7.67-3.06-7.67l-.7-3.92s1.41,12.43.62,13.4a1.35,1.35,0,0,1-2.18.1c-.54-.49-1.11-6-1.11-6l-1.28-7.34.18,11.91s-.15,1.33-1.19,1.37c-1.43.06-1.73-1.48-1.73-1.48L48,322s.48,8-.05,8.42c-.72.56-1.38.38-1.61-.23-.49-1.25-1.19-8.45-1.19-8.45L44.44,308l-.5-3.79,13.16-.67,0,.93s5.07,3.82,6.18,5.33a17.15,17.15,0,0,1,2,4.34Z" style="fill:#ffbf9d"></path><rect x="80.27" y="323.39" width="6.23" height="18.35" transform="translate(166.77 665.12) rotate(180)" style="fill:#455a64"></rect><polygon points="84.81 331.3 89.84 329.77 89.87 335.87 84.99 334.74 84.81 331.3" style="fill:#455a64"></polygon><path d="M83.56,341.73a20.42,20.42,0,0,0-3.29-.19l.19.19c.06-2.27.09-5.61.09-9.32,0-3.54,0-6.75-.08-9l-.2.19a24.71,24.71,0,0,0,3.59-.19,22.13,22.13,0,0,0-3.59-.2h-.19v.2c0,2.27-.09,5.48-.09,9,0,3.71,0,7,.1,9.32v.19h.18A20.42,20.42,0,0,0,83.56,341.73Z" style="fill:#263238"></path></g></svg>
