<svg xmlns="http://www.w3.org/2000/svg" viewBox="0 0 500 500"><g id="freepik--background-complete--inject-34"><rect x="59.69" y="416.14" width="50.96" height="50.96" style="fill:#e0e0e0"></rect><path d="M110.4,429.23c0,.33-11.25.59-25.12.59s-25.13-.26-25.13-.59,11.25-.6,25.13-.6S110.4,428.9,110.4,429.23Z" style="fill:#ebebeb"></path><path d="M87.11,436s.18,0,.52.08a4.35,4.35,0,0,1,1.35.64,7.25,7.25,0,0,1,2.79,4.69,10.64,10.64,0,0,1-1.31,8,7.43,7.43,0,0,1-4,3,9.61,9.61,0,0,1-5.29-.05c-3.48-.89-6.5-3.57-7.08-6.81a8.11,8.11,0,0,1,2.39-7.71,8,8,0,0,1,5.07-2.05,3.47,3.47,0,0,1,2,.33c0,.1-.72,0-1.94.13a8.09,8.09,0,0,0-4.53,2.2,7.34,7.34,0,0,0-1.9,6.86c.55,2.76,3.15,5.07,6.32,5.9a8.53,8.53,0,0,0,4.64.08,6.33,6.33,0,0,0,3.4-2.51A10.09,10.09,0,0,0,91,441.51,7.19,7.19,0,0,0,88.7,437C87.77,436.26,87.06,436.07,87.11,436Z" style="fill:#ebebeb"></path><rect x="103.06" y="434.93" width="32.38" height="32.38" style="fill:#ebebeb"></rect><path d="M135.28,443.25c0,.21-7.14.38-16,.38s-16-.17-16-.38,7.15-.38,16-.38S135.28,443,135.28,443.25Z" style="fill:#fff"></path><path d="M120.48,447.52s.12,0,.33.05a2.72,2.72,0,0,1,.86.4,4.65,4.65,0,0,1,1.78,3,6.81,6.81,0,0,1-.83,5.09A4.71,4.71,0,0,1,120.1,458a6.13,6.13,0,0,1-3.37,0,6,6,0,0,1-4.5-4.33,5.16,5.16,0,0,1,1.53-4.9,5.11,5.11,0,0,1,3.22-1.3,2.13,2.13,0,0,1,1.25.21c0,.07-.45,0-1.23.09a5.06,5.06,0,0,0-2.88,1.39,4.68,4.68,0,0,0-1.21,4.36,5.34,5.34,0,0,0,4,3.75,5.49,5.49,0,0,0,2.95.05,4.06,4.06,0,0,0,2.16-1.59,6.37,6.37,0,0,0,.88-4.6,4.5,4.5,0,0,0-1.43-2.84C120.9,447.71,120.46,447.59,120.48,447.52Z" style="fill:#fff"></path><rect x="20.26" y="355.18" width="26.22" height="26.22" style="fill:#f5f5f5"></rect><rect x="51.03" y="355.18" width="26.22" height="26.22" style="fill:#f5f5f5"></rect><rect x="82.59" y="355.18" width="26.22" height="26.22" style="fill:#f5f5f5"></rect><rect x="114.15" y="355.18" width="26.22" height="26.22" style="fill:#f5f5f5"></rect><rect x="145.71" y="355.18" width="26.22" height="26.22" style="fill:#f5f5f5"></rect><rect x="177.27" y="355.18" width="26.22" height="26.22" style="fill:#f5f5f5"></rect><rect x="208.83" y="355.18" width="26.22" height="26.22" style="fill:#f5f5f5"></rect><rect x="240.39" y="355.18" width="26.22" height="26.22" style="fill:#f5f5f5"></rect><rect x="271.95" y="355.18" width="26.22" height="26.22" style="fill:#f5f5f5"></rect><rect x="303.51" y="355.18" width="26.22" height="26.22" style="fill:#f5f5f5"></rect><rect x="335.07" y="355.18" width="26.22" height="26.22" style="fill:#f5f5f5"></rect><rect x="367.97" y="355.18" width="26.22" height="26.22" style="fill:#f5f5f5"></rect><rect x="398.74" y="355.18" width="26.22" height="26.22" style="fill:#f5f5f5"></rect><rect x="430.3" y="355.18" width="26.22" height="26.22" style="fill:#f5f5f5"></rect><rect x="461.86" y="355.18" width="26.22" height="26.22" style="fill:#f5f5f5"></rect><rect x="20.26" y="323.45" width="26.22" height="26.22" style="fill:#f5f5f5"></rect><rect x="51.03" y="323.45" width="26.22" height="26.22" style="fill:#f5f5f5"></rect><rect x="82.59" y="323.45" width="26.22" height="26.22" style="fill:#f5f5f5"></rect><rect x="114.15" y="323.45" width="26.22" height="26.22" style="fill:#f5f5f5"></rect><rect x="145.71" y="323.45" width="26.22" height="26.22" style="fill:#f5f5f5"></rect><rect x="177.27" y="323.45" width="26.22" height="26.22" style="fill:#f5f5f5"></rect><rect x="208.83" y="323.45" width="26.22" height="26.22" style="fill:#f5f5f5"></rect><rect x="240.39" y="323.45" width="26.22" height="26.22" style="fill:#f5f5f5"></rect><rect x="271.95" y="323.45" width="26.22" height="26.22" style="fill:#f5f5f5"></rect><rect x="303.51" y="323.45" width="26.22" height="26.22" style="fill:#f5f5f5"></rect><rect x="335.07" y="323.45" width="26.22" height="26.22" style="fill:#f5f5f5"></rect><rect x="367.97" y="323.45" width="26.22" height="26.22" style="fill:#f5f5f5"></rect><rect x="398.74" y="323.45" width="26.22" height="26.22" style="fill:#f5f5f5"></rect><rect x="430.3" y="323.45" width="26.22" height="26.22" style="fill:#f5f5f5"></rect><rect x="461.86" y="323.45" width="26.22" height="26.22" style="fill:#f5f5f5"></rect><rect x="318.16" y="68.33" width="147.55" height="213.87" style="fill:#e0e0e0"></rect><rect x="310.77" y="68.33" width="147.55" height="213.87" style="fill:#f5f5f5"></rect><rect x="329.1" y="91.49" width="110.89" height="167.55" style="fill:#fff"></rect><path d="M440,259s0-.28,0-.82,0-1.34,0-2.37c0-2.11,0-5.19-.05-9.19,0-8,0-19.74-.1-34.52,0-29.54-.1-71.38-.18-120.65l.37.37-110.88,0h0l.4-.41c0,63.21-.06,121.49-.08,167.55l-.32-.32,80.71.17,22.3.08,5.86,0,2,0-2,0-5.79,0-22.23.08-80.91.17h-.32V259c0-46.06,0-104.34-.08-167.55v-.4h.41l110.88,0h.37v.36c-.08,49.37-.14,91.29-.18,120.89-.05,14.75-.08,26.42-.1,34.43,0,4,0,7-.05,9.12,0,1,0,1.79,0,2.33S440,259,440,259Z" style="fill:#e0e0e0"></path><path d="M458.74,68.33a26.3,26.3,0,0,1-2.63,3.82c-1.72,2.29-4.15,5.41-6.93,8.78s-5.37,6.36-7.29,8.48a25.38,25.38,0,0,1-3.25,3.32A28.09,28.09,0,0,1,441.46,89l7.1-8.62,7.1-8.62A27.54,27.54,0,0,1,458.74,68.33Z" style="fill:#e0e0e0"></path><path d="M440.55,258.5a137.07,137.07,0,0,0,19.35,24.19" style="fill:#fff"></path><path d="M459.9,282.69a22.13,22.13,0,0,1-3.38-3.07,103.81,103.81,0,0,1-7.29-8.23,105.08,105.08,0,0,1-6.42-8.92,22.64,22.64,0,0,1-2.26-4,30,30,0,0,1,2.73,3.65c1.62,2.28,3.91,5.4,6.58,8.74s5.21,6.26,7.08,8.34A31.15,31.15,0,0,1,459.9,282.69Z" style="fill:#e0e0e0"></path><path d="M310.75,282l19.32-23.85" style="fill:#fff"></path><path d="M330.07,258.19c.18.14-4,5.59-9.35,12.17s-9.8,11.82-10,11.68,4-5.59,9.35-12.18S329.9,258.05,330.07,258.19Z" style="fill:#e0e0e0"></path><path d="M310.77,68.33c.17-.14,4.37,4.88,9.38,11.21s8.92,11.58,8.75,11.72-4.37-4.89-9.38-11.22S310.59,68.47,310.77,68.33Z" style="fill:#e0e0e0"></path><path d="M329.49,116.72c7.69-8.29,22.21-12,32.63-7.63a28.49,28.49,0,0,1,16.88,27c10.56,1.75,18.7,11.27,21.15,21.69s.06,21.46-4.13,31.31c-1.71,4-3.74,8-4.54,12.26s-.17,9.13,2.85,12.27c3.61,3.75,9.37,4.1,14.19,6.07,7,2.88,12.08,9.41,14.89,16.48s3.65,14.75,4.48,22.31H330.07Z" style="fill:#ebebeb"></path><path d="M335.12,237.57c-.1-.1,21.4-24.17,48-53.75s48.3-53.51,48.4-53.42-21.39,24.16-48,53.76S335.23,237.66,335.12,237.57Z" style="fill:#fafafa"></path><path d="M421.29,124.68c.1.09-13.44,15.17-30.24,33.68s-30.52,33.44-30.63,33.35,13.44-15.18,30.25-33.69S421.18,124.58,421.29,124.68Z" style="fill:#fafafa"></path><path d="M415.09,170.24a5,5,0,0,1-.52.57c-.38.4-.9.92-1.54,1.57l-5.7,5.73c-4.81,4.84-11.38,11.6-18.46,19.23s-13.32,14.71-17.79,19.86c-2.21,2.56-4,4.64-5.29,6.12L364.35,225a5.65,5.65,0,0,1-.53.55,5,5,0,0,1,.45-.62l1.37-1.72c1.2-1.48,3-3.61,5.16-6.22,4.41-5.22,10.61-12.33,17.7-20s13.7-14.36,18.57-19.15c2.44-2.39,4.43-4.31,5.82-5.61l1.61-1.5A4.46,4.46,0,0,1,415.09,170.24Z" style="fill:#fafafa"></path><path d="M103.11,160.63H100.7V156a2.57,2.57,0,0,0-2.37-2.73H80A2.57,2.57,0,0,0,77.66,156v4.63H75.25V156A5,5,0,0,1,80,150.82h18.3a5,5,0,0,1,4.78,5.18Z" style="fill:#ebebeb"></path><rect x="41.65" y="160.63" width="94.69" height="64.5" rx="9.13" style="fill:#ebebeb"></rect><rect x="86.34" y="179.86" width="5.68" height="25.93" style="fill:#f5f5f5"></rect><rect x="86.29" y="180.1" width="5.79" height="25.45" transform="translate(-103.64 282) rotate(-90)" style="fill:#f5f5f5"></rect><path d="M110.32,192.88a1.14,1.14,0,0,1,0-.35c0-.25,0-.59-.08-1,0-.23,0-.48,0-.75s-.09-.58-.13-.91a18.21,18.21,0,0,0-.45-2.22,21,21,0,0,0-2.36-5.72,21.44,21.44,0,0,0-5.37-6.08A20.68,20.68,0,0,0,82,172.78,23,23,0,0,0,79.21,174a21.06,21.06,0,0,0-2.57,1.69,24.32,24.32,0,0,0-2.39,2.06,26,26,0,0,0-2,2.48,20.85,20.85,0,0,0-3,5.89,21.63,21.63,0,0,0,0,13.5,20.91,20.91,0,0,0,3,5.9,26,26,0,0,0,2,2.48,25.43,25.43,0,0,0,2.38,2.06,22,22,0,0,0,2.58,1.69A23,23,0,0,0,82,213a20.63,20.63,0,0,0,19.89-3.06,21.18,21.18,0,0,0,5.37-6.08,20.94,20.94,0,0,0,2.36-5.71,18.33,18.33,0,0,0,.45-2.23c0-.32.1-.62.13-.9s0-.52,0-.75c0-.43.06-.77.08-1a1.22,1.22,0,0,1,0-.35,3.09,3.09,0,0,1,0,.35c0,.26,0,.6,0,1l0,.76c0,.28-.08.58-.12.91a16.21,16.21,0,0,1-.41,2.25,21,21,0,0,1-2.31,5.81,21.58,21.58,0,0,1-5.39,6.2,21.21,21.21,0,0,1-23,1.94,20.73,20.73,0,0,1-2.63-1.71,24.05,24.05,0,0,1-2.43-2.1,24.6,24.6,0,0,1-2.11-2.53,21.51,21.51,0,0,1-3.07-6,23.65,23.65,0,0,1-1.1-6.89A23.32,23.32,0,0,1,68.78,186a21.3,21.3,0,0,1,3.06-6A26,26,0,0,1,74,177.45a25.2,25.2,0,0,1,2.43-2.1A22,22,0,0,1,79,173.63a22.33,22.33,0,0,1,2.8-1.24A20.93,20.93,0,0,1,102,175.58a21.28,21.28,0,0,1,5.39,6.2,20.68,20.68,0,0,1,2.32,5.81,16.21,16.21,0,0,1,.41,2.25c0,.32.09.63.12.9l0,.76c0,.44,0,.78,0,1A3,3,0,0,1,110.32,192.88Z" style="fill:#f5f5f5"></path><path d="M164.68,165.38v-9.75h-6.74v9.75h-6.77v55.79H171V165.38Z" style="fill:#ebebeb"></path><rect x="30.74" y="221.17" width="163.35" height="8.49" style="fill:#e0e0e0"></rect><rect x="62.67" y="229.66" width="4.76" height="20.07" style="fill:#e0e0e0"></rect><rect x="157.78" y="229.66" width="4.76" height="20.07" style="fill:#e0e0e0"></rect><path d="M127.84,180.39v-7.13h-4.93v7.13h-5v40.78h14.48V180.39Z" style="fill:#fafafa"></path><path d="M144.27,180.39v-7.13h-4.93v7.13h-5v40.78h14.48V180.39Z" style="fill:#f5f5f5"></path><rect x="36.67" y="194.67" width="26.01" height="26.5" style="fill:#e0e0e0"></rect><path d="M62.54,201.48c0,.17-5.74.31-12.82.31s-12.82-.14-12.82-.31,5.74-.31,12.82-.31S62.54,201.31,62.54,201.48Z" style="fill:#ebebeb"></path><path d="M50.66,205s.09,0,.26,0a2,2,0,0,1,.69.33A3.77,3.77,0,0,1,53,207.79a5.67,5.67,0,0,1-.67,4.16,3.75,3.75,0,0,1-2,1.56,4.9,4.9,0,0,1-2.71,0A4.83,4.83,0,0,1,44,209.94a4.27,4.27,0,0,1,1.22-4,4.09,4.09,0,0,1,2.59-1.07,1.7,1.7,0,0,1,1,.17c0,.06-.37,0-1,.07a4.09,4.09,0,0,0-2.31,1.15,3.82,3.82,0,0,0-1,3.56,4.29,4.29,0,0,0,3.22,3.07,4.35,4.35,0,0,0,2.37,0,3.26,3.26,0,0,0,1.74-1.3,5.27,5.27,0,0,0,.7-3.76,3.78,3.78,0,0,0-1.14-2.33C51,205.14,50.63,205,50.66,205Z" style="fill:#ebebeb"></path></g><g id="freepik--Shelf--inject-34"><path d="M144.89,88.29H69.25a4.89,4.89,0,0,1-4.89-4.89h0a4.89,4.89,0,0,1,4.89-4.89h75.64a4.89,4.89,0,0,1,4.89,4.89h0A4.89,4.89,0,0,1,144.89,88.29Z" style="fill:#FF725E"></path><g style="opacity:0.2"><path d="M144.89,88.29H69.25a4.89,4.89,0,0,1-4.89-4.89h0a4.89,4.89,0,0,1,4.89-4.89h75.64a4.89,4.89,0,0,1,4.89,4.89h0A4.89,4.89,0,0,1,144.89,88.29Z" style="fill:#fff"></path></g><path d="M144.89,78.51H69.25a4.89,4.89,0,0,1-4.89-4.89h0a4.89,4.89,0,0,1,4.89-4.89h75.64a4.89,4.89,0,0,1,4.89,4.89h0A4.89,4.89,0,0,1,144.89,78.51Z" style="fill:#FF725E"></path><g style="opacity:0.2"><path d="M144.89,78.51H69.25a4.89,4.89,0,0,1-4.89-4.89h0a4.89,4.89,0,0,1,4.89-4.89h75.64a4.89,4.89,0,0,1,4.89,4.89h0A4.89,4.89,0,0,1,144.89,78.51Z" style="fill:#fff"></path></g><path d="M146.19,78.51c0,.17-15.44.3-34.48.3s-34.48-.13-34.48-.3,15.44-.3,34.48-.3S146.19,78.35,146.19,78.51Z" style="fill:#263238"></path><path d="M171.35,111.46H49a5.83,5.83,0,0,1-5.82-5.83h0A5.83,5.83,0,0,1,49,99.81H171.35a5.82,5.82,0,0,1,5.82,5.82h0A5.82,5.82,0,0,1,171.35,111.46Z" style="fill:#FF725E"></path><path d="M171.35,99.81H49A5.83,5.83,0,0,1,43.14,94h0A5.83,5.83,0,0,1,49,88.16H171.35A5.82,5.82,0,0,1,177.17,94h0A5.82,5.82,0,0,1,171.35,99.81Z" style="fill:#FF725E"></path><path d="M171.54,99.81c0,.16-24.22.3-54.1.3s-54.11-.14-54.11-.3,24.22-.3,54.11-.3S171.54,99.64,171.54,99.81Z" style="fill:#263238"></path><rect x="49.7" y="119.69" width="7.85" height="14.77" style="fill:#455a64"></rect><rect x="160.39" y="119.69" width="7.85" height="14.77" style="fill:#455a64"></rect><rect x="25.04" y="111.46" width="168.03" height="9.76" style="fill:#455a64"></rect><path d="M194.45,120.64c0,.16-37.83.3-84.48.3s-84.48-.14-84.48-.3,37.82-.3,84.48-.3S194.45,120.47,194.45,120.64Z" style="fill:#263238"></path></g><g id="freepik--Plant--inject-34"><polygon points="385.83 420.5 392.93 467.18 434.2 467.18 443.78 421.18 385.83 420.5" style="fill:#FF725E"></polygon><path d="M438,450.42c0,.13-10.58.24-23.62.24s-23.61-.11-23.61-.24,10.57-.25,23.61-.25S438,450.28,438,450.42Z" style="fill:#fafafa"></path><path d="M438.17,448.12c0,.13-10.65.24-23.78.24s-23.77-.11-23.77-.24,10.64-.24,23.77-.24S438.17,448,438.17,448.12Z" style="fill:#fafafa"></path><path d="M438.09,445.53c0,.13-10.65.24-23.78.24s-23.78-.11-23.78-.24,10.65-.24,23.78-.24S438.09,445.39,438.09,445.53Z" style="fill:#fafafa"></path><path d="M397.67,464.52a75.83,75.83,0,0,1-2.05-11.84,75.83,75.83,0,0,1,2.05,11.84Z" style="fill:#fafafa"></path><path d="M400.48,464a137.37,137.37,0,0,1-.78-11.49,46.12,46.12,0,0,1,.78,11.49Z" style="fill:#fafafa"></path><path d="M405.6,464a28.31,28.31,0,0,1-1.08-5.88,29.17,29.17,0,0,1-.31-6,50.43,50.43,0,0,1,.79,5.91A54.34,54.34,0,0,1,405.6,464Z" style="fill:#fafafa"></path><path d="M409.19,464.26a28.77,28.77,0,0,1-.57-6,29.42,29.42,0,0,1,.18-6,50.82,50.82,0,0,1,.3,6A49.56,49.56,0,0,1,409.19,464.26Z" style="fill:#fafafa"></path><path d="M415.55,464a32.86,32.86,0,0,1-.44-5.67,34.86,34.86,0,0,1,.05-5.69,33,33,0,0,1,.44,5.67A34.8,34.8,0,0,1,415.55,464Z" style="fill:#fafafa"></path><path d="M420.19,464.27a36.19,36.19,0,0,1-.19-5.87,34.07,34.07,0,0,1,.29-5.86,35.93,35.93,0,0,1,.19,5.86A36.86,36.86,0,0,1,420.19,464.27Z" style="fill:#fafafa"></path><path d="M424.54,463.64a39.83,39.83,0,0,1,.36-6.13,38.81,38.81,0,0,1,.83-6.08,39,39,0,0,1-.35,6.13A37.83,37.83,0,0,1,424.54,463.64Z" style="fill:#fafafa"></path><path d="M430.16,463a20.56,20.56,0,0,1,.69-5.21,20.34,20.34,0,0,1,1.54-5,46.91,46.91,0,0,1-1.06,5.13A45.9,45.9,0,0,1,430.16,463Z" style="fill:#fafafa"></path><path d="M426.19,328.4a1.35,1.35,0,0,1-.06.23l-.19.66-.78,2.52c-.36,1.08-.78,2.42-1.21,4s-1,3.33-1.49,5.32-1.09,4.15-1.61,6.5-1.05,4.87-1.59,7.52c-1,5.32-1.89,11.2-2.53,17.42s-.88,12.16-1,17.58c0,2.7,0,5.27.07,7.68s.17,4.65.29,6.69.28,3.89.41,5.51.27,3,.4,4.15.2,2,.27,2.63c0,.27,0,.5.06.68a.73.73,0,0,1,0,.24,1.16,1.16,0,0,1,0-.23c0-.18-.06-.4-.11-.68q-.14-1-.36-2.61c-.16-1.14-.34-2.53-.48-4.15s-.37-3.47-.48-5.52-.29-4.29-.35-6.7-.11-5-.12-7.7c.06-5.42.32-11.39.93-17.62s1.55-12.13,2.57-17.46c.55-2.65,1.05-5.18,1.64-7.52s1.12-4.52,1.67-6.5,1.09-3.75,1.56-5.31.91-2.89,1.29-4l.87-2.5c.1-.26.17-.47.24-.64S426.18,328.39,426.19,328.4Z" style="fill:#455a64"></path><path d="M418.74,357.3a15.24,15.24,0,0,1,6.41-8.1,3.67,3.67,0,0,1,3.4-.63c1.44.7,1.55,2.72,1.12,4.26A11.25,11.25,0,0,1,425,359.2a9.5,9.5,0,0,1-7,1.77" style="fill:#455a64"></path><path d="M416.23,376.82c1.07-4,4.28-9.76,7.62-12.25a4.93,4.93,0,0,1,1.73-.93,2,2,0,0,1,1.85.4,2.86,2.86,0,0,1,.42,2.68,16.28,16.28,0,0,1-12,12.12" style="fill:#455a64"></path><path d="M415.54,394a23.53,23.53,0,0,1,7.68-9.67,3.64,3.64,0,0,1,2.69-.95c1.45.26,2.11,2,2,3.52-.27,3-2.59,5.47-5,7.36a31,31,0,0,1-7.1,3.65" style="fill:#455a64"></path><path d="M415.93,406.34a22.51,22.51,0,0,1,6.54-7.44,4.64,4.64,0,0,1,2-.88,2,2,0,0,1,1.92.73c.66,1,0,2.27-.67,3.2a18.63,18.63,0,0,1-9.33,6.84" style="fill:#455a64"></path><path d="M415.6,401.33a72.58,72.58,0,0,0-9.35-9.53c-.53-.45-1.2-.92-1.86-.7a1.41,1.41,0,0,0-.86,1.26,3.6,3.6,0,0,0,.36,1.56,18.11,18.11,0,0,0,12,10.12" style="fill:#455a64"></path><path d="M415.9,385.26l-7.34-9a8.86,8.86,0,0,0-2.39-2.26,3,3,0,0,0-3.13,0,3,3,0,0,0-1,3,7.6,7.6,0,0,0,1.43,2.94,21.65,21.65,0,0,0,5.35,5.69c2.16,1.48,4.12,2.45,6.71,2.06" style="fill:#455a64"></path><path d="M416.92,367.16a25.52,25.52,0,0,0-7.39-11.09,4.28,4.28,0,0,0-1.92-1.13,3.24,3.24,0,0,0-3.37,2.37,6,6,0,0,0,.67,4.86,12.76,12.76,0,0,0,3.45,3.65,29.38,29.38,0,0,0,8.17,4.41" style="fill:#455a64"></path><path d="M419.86,351c-.71-5.19-3.42-9.51-6.55-13.71-.66-.89-1.58-1.83-2.67-1.66a2.12,2.12,0,0,0-1.53,1.32,4.83,4.83,0,0,0-.29,2.07,16,16,0,0,0,10.4,14.33" style="fill:#455a64"></path><path d="M421.91,342.79a43,43,0,0,1-.26-8,14.37,14.37,0,0,1,2.66-7.48,6.18,6.18,0,0,1,2.67-2.13,3.38,3.38,0,0,1,3.27.44,3.55,3.55,0,0,1,1.12,2.88,8.93,8.93,0,0,1-.83,3.07c-2,4.71-5.22,9.93-8.63,11.24" style="fill:#455a64"></path><path d="M389.92,349a4.28,4.28,0,0,1,0,.66c0,.48,0,1.1,0,1.88s0,1.82,0,3,.05,2.48.15,3.94c.12,2.92.41,6.39.85,10.23s1.13,8,2,12.4,2,8.46,3.12,12.17,2.27,7,3.33,9.71c.5,1.37,1,2.58,1.45,3.66s.83,2,1.16,2.75.55,1.29.74,1.73a2.82,2.82,0,0,1,.22.62,3.64,3.64,0,0,1-.31-.58l-.82-1.69c-.36-.74-.78-1.65-1.24-2.72s-1-2.28-1.52-3.65c-1.1-2.72-2.27-6-3.43-9.7s-2.24-7.83-3.17-12.21-1.55-8.59-2-12.44-.67-7.33-.76-10.26c-.07-1.47-.06-2.79-.07-4s0-2.16,0-3,0-1.41.07-1.89A2.74,2.74,0,0,1,389.92,349Z" style="fill:#263238"></path><path d="M391.07,370.26a10.93,10.93,0,0,1,2.62-6.9,2.61,2.61,0,0,1,2.18-1.15c1.13.16,1.64,1.52,1.68,2.66a8,8,0,0,1-1.81,5.34,6.81,6.81,0,0,1-4.39,2.71" style="fill:#263238"></path><path d="M393.56,384.09c-.14-3,.81-7.57,2.55-10a3.46,3.46,0,0,1,1-1,1.42,1.42,0,0,1,1.35-.13,2.06,2.06,0,0,1,.86,1.73,11.62,11.62,0,0,1-5.59,10.85" style="fill:#263238"></path><path d="M396.79,395.93a16.75,16.75,0,0,1,3.15-8.23,2.64,2.64,0,0,1,1.62-1.23c1.05-.13,1.88.94,2.11,2,.48,2.13-.58,4.28-1.8,6.08a22.08,22.08,0,0,1-4.06,4" style="fill:#263238"></path><path d="M399.71,404.26a16.23,16.23,0,0,1,2.85-6.48,3.41,3.41,0,0,1,1.15-1,1.42,1.42,0,0,1,1.46.08c.66.52.51,1.54.23,2.32a13.3,13.3,0,0,1-4.88,6.67" style="fill:#263238"></path><path d="M398.41,400.91a52.18,52.18,0,0,0-8.42-4.47,1.5,1.5,0,0,0-1.42-.08,1,1,0,0,0-.31,1,2.56,2.56,0,0,0,.58,1,12.92,12.92,0,0,0,10.37,4.3" style="fill:#263238"></path><path d="M395.15,389.9l-6.92-4.51a6.37,6.37,0,0,0-2.11-1A2.18,2.18,0,0,0,384,385a2.13,2.13,0,0,0,0,2.23,5.33,5.33,0,0,0,1.61,1.7,15.76,15.76,0,0,0,4.86,2.72c1.79.54,3.33.78,5,0" style="fill:#263238"></path><path d="M392,377.37a18.29,18.29,0,0,0-7.43-6,3.14,3.14,0,0,0-1.55-.35,2.31,2.31,0,0,0-1.78,2.34,4.31,4.31,0,0,0,1.5,3.16,9.07,9.07,0,0,0,3.14,1.75,21.22,21.22,0,0,0,6.51,1.24" style="fill:#263238"></path><path d="M390.48,365.75c-1.6-3.38-4.37-5.74-7.41-7.93a2.23,2.23,0,0,0-2.17-.55,1.5,1.5,0,0,0-.76,1.23,3.53,3.53,0,0,0,.24,1.47,11.48,11.48,0,0,0,10.17,7.52" style="fill:#263238"></path><path d="M390.11,359.7a30,30,0,0,1-1.91-5.41,10.27,10.27,0,0,1,.2-5.66,4.4,4.4,0,0,1,1.36-2,2.42,2.42,0,0,1,2.32-.41,2.51,2.51,0,0,1,1.38,1.72,6.4,6.4,0,0,1,.1,2.27c-.32,3.63-1.42,7.88-3.45,9.51" style="fill:#263238"></path><path d="M442.09,348.53a3.65,3.65,0,0,1,.06.65c0,.48,0,1.11.07,1.89s0,1.82,0,3,0,2.49-.07,3.95c-.08,2.93-.33,6.42-.75,10.27s-1.1,8.06-2,12.44-2,8.5-3.17,12.2-2.34,7-3.44,9.71c-.52,1.37-1.06,2.58-1.52,3.65s-.87,2-1.23,2.71l-.82,1.7a3.11,3.11,0,0,1-.32.58,3.37,3.37,0,0,1,.23-.62c.19-.44.43-1,.74-1.73s.72-1.67,1.15-2.75,1-2.29,1.45-3.67c1.06-2.72,2.2-6,3.33-9.71S438,385,439,380.61s1.56-8.56,2-12.39.72-7.31.85-10.23c.09-1.46.1-2.78.14-3.94s0-2.16,0-3,0-1.41,0-1.89A3,3,0,0,1,442.09,348.53Z" style="fill:#455a64"></path><path d="M440.94,369.81a10.94,10.94,0,0,0-2.63-6.9,2.62,2.62,0,0,0-2.17-1.16c-1.13.17-1.65,1.52-1.69,2.66a8.08,8.08,0,0,0,1.81,5.34,6.76,6.76,0,0,0,4.39,2.71" style="fill:#455a64"></path><path d="M438.44,383.63c.15-3-.81-7.56-2.55-10a3.37,3.37,0,0,0-1-1,1.42,1.42,0,0,0-1.34-.12,2,2,0,0,0-.86,1.73,11.6,11.6,0,0,0,5.59,10.84" style="fill:#455a64"></path><path d="M435.22,395.48a16.86,16.86,0,0,0-3.16-8.23,2.58,2.58,0,0,0-1.62-1.23c-1-.14-1.88.93-2.11,2-.47,2.12.58,4.28,1.81,6.08a22.16,22.16,0,0,0,4.05,4" style="fill:#455a64"></path><path d="M432.29,403.8a16.11,16.11,0,0,0-2.85-6.47,3.27,3.27,0,0,0-1.14-1,1.43,1.43,0,0,0-1.47.08c-.65.52-.51,1.54-.23,2.32a13.3,13.3,0,0,0,4.88,6.67" style="fill:#455a64"></path><path d="M433.59,400.46A51.81,51.81,0,0,1,442,396a1.48,1.48,0,0,1,1.42-.08,1,1,0,0,1,.31,1,2.46,2.46,0,0,1-.58,1,12.93,12.93,0,0,1-10.37,4.31" style="fill:#455a64"></path><path d="M436.85,389.45l6.93-4.51a6.37,6.37,0,0,1,2.11-1,1.9,1.9,0,0,1,2.19,2.88,5.63,5.63,0,0,1-1.61,1.69,15.3,15.3,0,0,1-4.87,2.72,6.4,6.4,0,0,1-5,0" style="fill:#455a64"></path><path d="M440.05,376.91a18.38,18.38,0,0,1,7.42-6,3,3,0,0,1,1.55-.35,2.31,2.31,0,0,1,1.79,2.34,4.32,4.32,0,0,1-1.51,3.16,9,9,0,0,1-3.13,1.74,21,21,0,0,1-6.51,1.25" style="fill:#455a64"></path><path d="M441.52,365.3c1.61-3.38,4.38-5.74,7.41-7.93a2.25,2.25,0,0,1,2.18-.55,1.5,1.5,0,0,1,.76,1.22,3.61,3.61,0,0,1-.25,1.48A11.45,11.45,0,0,1,441.45,367" style="fill:#455a64"></path><path d="M441.9,359.25a30.78,30.78,0,0,0,1.91-5.41,10.18,10.18,0,0,0-.21-5.66,4.36,4.36,0,0,0-1.36-2,2.39,2.39,0,0,0-2.32-.4,2.54,2.54,0,0,0-1.38,1.72,6.64,6.64,0,0,0-.1,2.27c.32,3.62,1.42,7.88,3.46,9.51" style="fill:#455a64"></path><path d="M381.1,411.26V420a3.43,3.43,0,0,0,3.43,3.44h59.76a3.44,3.44,0,0,0,3.44-3.44v-8.73Z" style="fill:#FF725E"></path><g style="opacity:0.4"><polygon points="386.28 423.43 386.77 426.21 441.91 430.14 443.31 423.43 386.28 423.43"></polygon></g></g><g id="freepik--Character--inject-34"><path d="M198.28,364.32l1.14-100.61c43.83-9.24,61-13.59,122.31,4,0,0,5.63,44.83,5.64,48.76,0,10-18.66,98.55-18.66,98.55l16.49,44.39c-44.13,2.54-89.41,9.85-133.49-6l10.7-37.18Z" style="fill:#c78976"></path><path d="M214.31,307.18s33.18-2.75,61.17,0a127.73,127.73,0,0,1,42.39,11.59A15.84,15.84,0,0,1,326.61,336l-2.7,75.26,7.31,55.88h-153L193,417.31s2.27-70.54,3.16-84.94S207.37,307.51,214.31,307.18Z" style="fill:#ebebeb"></path><path d="M310.54,315.57a2.09,2.09,0,0,1,0,.4l-.05,1.15c-.07,1-.16,2.52-.27,4.42-.24,3.86-.58,9.41-1,16.25-.74,13.72-1.74,32.73-.45,53.66.64,10.47,1.94,20.39,2.78,29.44.43,4.53.76,8.84.93,12.89s.13,7.82.11,11.25.15,6.54.15,9.28a55.76,55.76,0,0,1-.36,7,34.87,34.87,0,0,1-1.13,5.87,1.87,1.87,0,0,1,.06-.39c.05-.28.13-.65.22-1.13.18-1,.46-2.46.65-4.37a57.39,57.39,0,0,0,.27-7c0-2.73-.2-5.83-.23-9.28s0-7.2-.17-11.23-.54-8.34-1-12.86c-.86-9-2.18-19-2.82-29.45-1.29-21-.23-40,.6-53.72.44-6.86.86-12.41,1.16-16.25.15-1.89.28-3.37.36-4.41.05-.48.08-.86.11-1.15A3.33,3.33,0,0,1,310.54,315.57Z" style="fill:#263238"></path><path d="M242.8,414a35.46,35.46,0,0,0,10.86,10.68c4.42,2.58,9.82,3.76,14.75,2.41,3.27-.9,6.19-2.83,9.49-3.6,4-.94,8.31-.06,12.19,1.4s7.54,3.5,11.42,5a43.32,43.32,0,0,0,21.92,2.35,4.06,4.06,0,0,0,3-1.49,3.76,3.76,0,0,0,.2-2.61A20,20,0,0,0,319.55,417a49.72,49.72,0,0,0-11.61-6.72c-7.71-3.46-16-6.47-24.4-5.58-7.48.8-14.26,4.61-21.48,6.75a49,49,0,0,1-18.69,1.77l.33,1.22" style="fill:#e0e0e0"></path><path d="M290.85,358.17c-.1.11-1-.61-2.09-1.6s-1.83-1.87-1.74-2a6.79,6.79,0,0,1,2.09,1.6C290.17,357.18,291,358.07,290.85,358.17Z" style="fill:#263238"></path><path d="M292.51,356c-.08.12-1-.37-2.06-1.1s-1.84-1.41-1.76-1.53,1,.38,2.06,1.1S292.59,355.91,292.51,356Z" style="fill:#263238"></path><path d="M293.46,353.41c0,.14-.82,0-1.74-.23s-1.64-.59-1.6-.73.82,0,1.74.23S293.5,353.27,293.46,353.41Z" style="fill:#263238"></path><path d="M214.62,444.19c-.1-.1.42-.78.93-1.69s.84-1.69,1-1.65,0,.94-.53,1.91S214.72,444.3,214.62,444.19Z" style="fill:#263238"></path><path d="M217.76,444.69c-.12-.07.15-.77.62-1.56s.94-1.37,1.06-1.3-.15.77-.62,1.56S217.88,444.76,217.76,444.69Z" style="fill:#263238"></path><path d="M221.07,445.87c-.14,0-.31-.73-.38-1.66s0-1.68.14-1.69.32.73.38,1.66S221.22,445.86,221.07,445.87Z" style="fill:#263238"></path><path d="M283.42,441.81c-.12.07-.59-.52-1.06-1.31s-.73-1.49-.61-1.56.6.51,1.06,1.3S283.55,441.73,283.42,441.81Z" style="fill:#263238"></path><path d="M286.05,439.66c-.11.08-.64-.44-1.16-1.17s-.86-1.38-.75-1.46.64.43,1.17,1.16S286.17,439.57,286.05,439.66Z" style="fill:#263238"></path><path d="M288.2,438.94c-.07.12-.83-.21-1.69-.74S285,437.15,285.1,437s.83.2,1.69.73S288.28,438.82,288.2,438.94Z" style="fill:#263238"></path><path d="M319.74,452.79c-.08.13-.4.07-.73-.13s-.54-.46-.47-.58.4-.07.73.13S319.81,452.67,319.74,452.79Z" style="fill:#263238"></path><path d="M320.69,450.64c-.06.13-.65,0-1.31-.36s-1.14-.7-1.08-.83.65,0,1.31.36S320.76,450.52,320.69,450.64Z" style="fill:#263238"></path><path d="M321.89,449.69c0,.14-.86.09-1.85-.1s-1.76-.48-1.74-.62.86-.09,1.85.1S321.92,449.55,321.89,449.69Z" style="fill:#263238"></path><path d="M187.15,439.89c0,.14-.7.1-1.5-.1s-1.4-.47-1.37-.61.71-.09,1.5.1S187.19,439.75,187.15,439.89Z" style="fill:#263238"></path><path d="M188.56,438.54a4.88,4.88,0,0,1-2.12-.49,4.82,4.82,0,0,1-1.94-1,4.63,4.63,0,0,1,2.12.48C187.74,438,188.61,438.4,188.56,438.54Z" style="fill:#263238"></path><path d="M188.82,436.79c-.08.12-.89-.26-1.81-.86s-1.61-1.17-1.53-1.29.89.26,1.81.85S188.9,436.67,188.82,436.79Z" style="fill:#263238"></path><path d="M270.82,304a11,11,0,0,1,1.45,4.53,5.88,5.88,0,0,1-1-2.19A5.45,5.45,0,0,1,270.82,304Z" style="fill:#263238"></path><path d="M274.59,303.49a5.72,5.72,0,0,1,.26,2.38,5.79,5.79,0,0,1-.26,2.39,5.6,5.6,0,0,1-.26-2.39A5.53,5.53,0,0,1,274.59,303.49Z" style="fill:#263238"></path><path d="M277.51,305.41c.14,0,.1.85-.09,1.84S277,309,276.81,309s-.1-.85.09-1.84S277.36,305.38,277.51,305.41Z" style="fill:#263238"></path><path d="M311.26,455.06l-.32.12-.93.31c-.83.27-2.05.63-3.63,1.09-3.16.92-7.77,2.15-13.52,3.4s-12.67,2.48-20.4,3.39a163.31,163.31,0,0,1-25.29,1.21,109.26,109.26,0,0,1-13.07-1.25,107.21,107.21,0,0,1-11.93-2.68,160.54,160.54,0,0,1-19.43-7.08c-5.4-2.35-9.7-4.4-12.66-5.82l-3.41-1.65-.88-.45a1.91,1.91,0,0,1-.29-.16l.31.11.9.4,3.45,1.57c3,1.36,7.32,3.36,12.73,5.66a165.86,165.86,0,0,0,19.41,6.95,104.68,104.68,0,0,0,11.88,2.64,108.07,108.07,0,0,0,13,1.24,166.39,166.39,0,0,0,25.21-1.16c7.72-.89,14.63-2.09,20.38-3.28s10.37-2.38,13.54-3.23l3.66-1,.95-.26A1.74,1.74,0,0,1,311.26,455.06Z" style="fill:#FF725E"></path><path d="M310.51,429.11a1.1,1.1,0,0,1-.3.08l-.89.16-3.43.57c-1.49.26-3.32.54-5.45.81s-4.54.63-7.23.88L289,432c-1.47.15-3,.24-4.58.36-3.17.28-6.56.41-10.13.58-7.14.24-15,.26-23.23-.11S235,431.71,227.9,430.8c-3.54-.5-6.91-.95-10-1.52-1.57-.27-3.08-.51-4.53-.79l-4.16-.83c-2.66-.49-5-1.08-7.12-1.55s-3.89-.92-5.35-1.31l-3.36-.89-.87-.25a1,1,0,0,1-.29-.1l.3.05.89.2,3.38.79c1.47.37,3.26.79,5.36,1.23s4.48,1,7.13,1.47l4.16.8c1.45.27,3,.49,4.53.76,3.12.55,6.48,1,10,1.47,7.08.88,14.89,1.62,23.11,2s16.07.36,23.2.15c3.56-.16,6.94-.27,10.11-.53,1.58-.11,3.11-.19,4.57-.33l4.22-.4c2.69-.22,5.11-.56,7.24-.8s4-.49,5.45-.72l3.44-.47.9-.12Z" style="fill:#FF725E"></path><path d="M237.41,406a9.45,9.45,0,0,1-2.42-.35,46.5,46.5,0,0,1-5.66-1.58,48.69,48.69,0,0,1-5.44-2.26,10.21,10.21,0,0,1-2.11-1.23,14.75,14.75,0,0,1,2.27.89c1.38.58,3.29,1.36,5.45,2.11s4.14,1.32,5.58,1.71A14.66,14.66,0,0,1,237.41,406Z" style="fill:#FF725E"></path><path d="M308.17,372.31a3.89,3.89,0,0,1-.72.18l-2.09.4c-.91.18-2,.38-3.32.57s-2.78.45-4.42.63c-3.28.43-7.2.79-11.57,1s-9.18.28-14.22.11-9.84-.61-14.19-1.14-8.22-1.2-11.46-1.86c-1.63-.3-3.08-.66-4.36-.95s-2.38-.56-3.27-.8l-2.05-.56a3.26,3.26,0,0,1-.71-.23,3.91,3.91,0,0,1,.73.13l2.08.46c.9.21,2,.46,3.28.72s2.74.59,4.37.86c3.24.62,7.12,1.22,11.45,1.76s9.12.9,14.15,1.09,9.82.11,14.18-.07,8.27-.54,11.55-.93c1.64-.15,3.11-.38,4.41-.55s2.42-.33,3.33-.48l2.11-.31A4,4,0,0,1,308.17,372.31Z" style="fill:#FF725E"></path><path d="M309.74,337a2.5,2.5,0,0,1-.62.06l-1.79.06-6.58.16c-5.55.12-13.23.31-21.71.32s-16.16-.28-21.71-.68c-2.77-.2-5-.4-6.56-.57l-1.78-.2a3.11,3.11,0,0,1-.61-.11,2.43,2.43,0,0,1,.62,0l1.79.11c1.55.11,3.79.25,6.56.4,5.55.3,13.22.53,21.69.53l21.71-.17c2.78,0,5,0,6.58,0l1.79,0A3.69,3.69,0,0,1,309.74,337Z" style="fill:#FF725E"></path><path d="M323.72,356.29a11.6,11.6,0,0,1-2.29-.47c-1.4-.34-3.33-.8-5.48-1.24s-4.1-.78-5.52-1a12.49,12.49,0,0,1-2.29-.46,9.12,9.12,0,0,1,2.34.1,53.9,53.9,0,0,1,5.58.87c2.16.44,4.09,1,5.47,1.39A9.08,9.08,0,0,1,323.72,356.29Z" style="fill:#FF725E"></path><path d="M324.36,386.72a57.64,57.64,0,0,1-7.88.16,57.6,57.6,0,0,1-7.88-.36,61.87,61.87,0,0,1,7.89-.16A61.47,61.47,0,0,1,324.36,386.72Z" style="fill:#FF725E"></path><path d="M328,440.2a11.38,11.38,0,0,1-2.3.48c-1.42.24-3.39.59-5.54,1s-4.09.93-5.5,1.28a11.85,11.85,0,0,1-2.29.49,9.89,9.89,0,0,1,2.19-.84,54.06,54.06,0,0,1,5.49-1.43,55.82,55.82,0,0,1,5.6-.9A10,10,0,0,1,328,440.2Z" style="fill:#FF725E"></path><path d="M321.31,267.72s20.3,3.61,25.71,21.65,18.78,106.48,17.76,121.22c-.32,4.7-2.38,9.05-4.4,10.65-9.61,7.57-22.43,14.11-42.23,7.51A154.28,154.28,0,0,1,275.52,406l12.67-17.21s34.47,8.61,42.59,5.91L324,357.07Z" style="fill:#c78976"></path><path d="M266.63,382.09l1.7,5.06s4.82,1,5.58,2.54,3,11.4,3,11.4l-31.68,8.11-3.55-9.12,1.78-4.44-1.57-5.49S255.85,382.45,266.63,382.09Z" style="fill:#FF725E"></path><path d="M268.33,387.15c0,.08-1.43.37-3.74.92s-5.48,1.41-8.93,2.53-6.52,2.3-8.72,3.21a37.65,37.65,0,0,1-3.57,1.43,3.85,3.85,0,0,1,.89-.53c.58-.32,1.45-.74,2.54-1.24a86.2,86.2,0,0,1,17.71-5.76c1.17-.24,2.12-.39,2.79-.48A4.67,4.67,0,0,1,268.33,387.15Z" style="fill:#263238"></path><path d="M268,386c0,.07-1.43.36-3.74.91s-5.48,1.41-8.93,2.54-6.52,2.3-8.72,3.2-3.54,1.51-3.57,1.44a3.29,3.29,0,0,1,.89-.54c.58-.32,1.45-.74,2.54-1.24a85,85,0,0,1,8.7-3.36,82.15,82.15,0,0,1,9-2.4c1.17-.23,2.12-.39,2.79-.47A3.49,3.49,0,0,1,268,386Z" style="fill:#263238"></path><path d="M267.67,384.76c0,.08-1.43.36-3.74.92s-5.48,1.4-8.93,2.53-6.52,2.3-8.72,3.2-3.54,1.51-3.57,1.44a3.63,3.63,0,0,1,.89-.54c.58-.32,1.45-.74,2.54-1.24a85,85,0,0,1,8.7-3.36,79.61,79.61,0,0,1,9-2.39c1.17-.24,2.12-.39,2.79-.48A3.49,3.49,0,0,1,267.67,384.76Z" style="fill:#263238"></path><path d="M267.08,383.42c0,.08-1.42.36-3.71.93s-5.43,1.44-8.83,2.59-6.44,2.36-8.62,3.27-3.51,1.51-3.54,1.44a3.79,3.79,0,0,1,.88-.54c.58-.31,1.44-.74,2.51-1.24a89.76,89.76,0,0,1,8.6-3.42,75.86,75.86,0,0,1,8.92-2.46c1.16-.25,2.11-.4,2.76-.49A4.67,4.67,0,0,1,267.08,383.42Z" style="fill:#263238"></path><polygon points="253.93 395.64 256.26 401.63 272.06 396.63 269.34 390 253.93 395.64" style="fill:#e0e0e0"></polygon><path d="M276.67,383.94s6-1.23,8.57,1.42,8.45,8.16,8.45,8.16l-8.45,15.37h-3.09s-1.77,2.62-3,3.15l-2.48,4.25-6.89,4.06-17.68.89-11.84-7.78-3.53-10.08s.35-.35,1.77.36l-.36-4.24s3.54-2.12,6,1.06l-.71-4.42s2.13-1.77,6.37,2.47l10.95,5.13,10.61-2.83,3.9-5.4s-8.09,4.34-10.06,2.75-2.5-5.3-2.5-5.3S273.13,384.22,276.67,383.94Z" style="fill:#c78976"></path><path d="M281.81,391.68c0,.07-.88.45-2.25,1.24s-3.19,2-5.3,3.22a17.2,17.2,0,0,1-5.84,2.24,8.36,8.36,0,0,1-1.91.09,1.67,1.67,0,0,1-.69-.12c0-.09,1,0,2.53-.33a19.51,19.51,0,0,0,5.65-2.33c2.08-1.21,3.94-2.41,5.39-3.1A8,8,0,0,1,281.81,391.68Z" style="fill:#aa6550"></path><path d="M268.25,410.15a9.32,9.32,0,0,1-1.11.2,20.3,20.3,0,0,0-2.89.93,8.58,8.58,0,0,1-4.55.72,9.51,9.51,0,0,1-2.55-1l-2.54-1.36-4.89-2.67a15.39,15.39,0,0,1-3.84-2.52,7.85,7.85,0,0,1-1.5-2.72,4.69,4.69,0,0,1-.3-1.09,4.83,4.83,0,0,1,.49,1,8.4,8.4,0,0,0,1.58,2.54,16.07,16.07,0,0,0,3.8,2.36l4.91,2.63,2.53,1.37a9.25,9.25,0,0,0,2.4,1,8.45,8.45,0,0,0,4.34-.6,16,16,0,0,1,3-.78A3.06,3.06,0,0,1,268.25,410.15Z" style="fill:#aa6550"></path><path d="M266.1,416.29a10.27,10.27,0,0,1-1.28.08,27.32,27.32,0,0,0-3.44.61,15,15,0,0,1-5.24.52c-2.06-.27-3.89-1.64-5.76-2.87l-5.3-3.55a44,44,0,0,1-4.25-3.05,7.83,7.83,0,0,1-2-3,4.66,4.66,0,0,1-.39-1.24,9,9,0,0,1,.57,1.16,8.5,8.5,0,0,0,2,2.77c1.1.94,2.66,1.82,4.28,2.92l5.32,3.52c1.88,1.25,3.64,2.56,5.55,2.82a15.23,15.23,0,0,0,5.09-.4,20.42,20.42,0,0,1,3.5-.45,7.46,7.46,0,0,1,1,.05C266,416.25,266.1,416.27,266.1,416.29Z" style="fill:#aa6550"></path><path d="M285.12,402.78a9.88,9.88,0,0,1-1,2.11c-.71,1.27-1.73,3-2.93,4.84s-2.36,3.48-3.23,4.64a9.68,9.68,0,0,1-1.51,1.8,11.2,11.2,0,0,1,1.21-2l3.09-4.72c1.14-1.76,2.16-3.36,3-4.74A11,11,0,0,1,285.12,402.78Z" style="fill:#aa6550"></path><path d="M295.75,409.18a8.93,8.93,0,0,1-2.17.53c-1.36.25-3.25.51-5.34.68s-4,.18-5.38.15a8.65,8.65,0,0,1-2.23-.2c0-.15,3.4-.15,7.57-.47S295.72,409,295.75,409.18Z" style="fill:#aa6550"></path><path d="M352,389.62c0,.06-.88.06-2.44.26a42.45,42.45,0,0,0-6.53,1.37c-2.72.76-5.89,1.88-9.48,3a36,36,0,0,1-12,1.77,66.78,66.78,0,0,1-12.1-1.58c-3.66-.78-6.92-1.64-9.66-2.37l-6.46-1.74-1.76-.47a2.73,2.73,0,0,1-.61-.2,4.18,4.18,0,0,1,.63.1l1.78.37c1.55.35,3.77.89,6.52,1.58s6,1.51,9.66,2.26a69.27,69.27,0,0,0,12,1.53,36.5,36.5,0,0,0,11.91-1.71c3.57-1.05,6.77-2.14,9.51-2.86a37.73,37.73,0,0,1,6.6-1.21,14.89,14.89,0,0,1,1.83-.08A4.49,4.49,0,0,1,352,389.62Z" style="fill:#aa6550"></path><path d="M315.49,303.87a3,3,0,0,1,.75.47,13.25,13.25,0,0,1,1.82,1.59,18.25,18.25,0,0,1,2.25,2.79,20.53,20.53,0,0,1,2,3.92,22.14,22.14,0,0,1,1.07,4.26,19.66,19.66,0,0,1,.13,3.59,14.58,14.58,0,0,1-.33,2.39,2.85,2.85,0,0,1-.26.84c-.1,0,.18-1.24.22-3.25a20.63,20.63,0,0,0-.24-3.5,23,23,0,0,0-1.08-4.15,23.29,23.29,0,0,0-1.91-3.84,21.41,21.41,0,0,0-2.12-2.8C316.44,304.69,315.43,304,315.49,303.87Z" style="fill:#aa6550"></path><path d="M329.52,435.58c.08.12-.65.75-1.64,1.42s-1.86,1.1-1.94,1,.66-.76,1.65-1.42S329.44,435.46,329.52,435.58Z" style="fill:#263238"></path><path d="M329.53,439.18c.06.13-.64.56-1.57.95s-1.72.61-1.77.48.64-.56,1.57-1S329.47,439.05,329.53,439.18Z" style="fill:#263238"></path><path d="M331.22,440.41c0,.13-.66.51-1.58.85s-1.71.49-1.76.35.66-.51,1.58-.84S331.17,440.27,331.22,440.41Z" style="fill:#263238"></path><path d="M279.61,142.85,272,142l-29,11.71a8.1,8.1,0,0,0-7.66,7.85l.25,94.64c0,6.42,1.25,12,5.13,17.09l4.08,5.39c9.3,12.28,28.43,11.27,35.8-2.26a10.9,10.9,0,0,0,1-2.45,21,21,0,0,0,.43-2.12,67.61,67.61,0,0,0,.91-14.21c.52-8.36.69-11.79.69-11.72s17.79-2,22.6-24.88c2.39-11.36,2.76-30.16,2.56-45.55C308.6,161.64,296.72,142.83,279.61,142.85Z" style="fill:#c78976"></path><path d="M283.22,208.13c0-.18,2-.42,5.21-.67.82-.05,1.59-.17,1.76-.72a4.19,4.19,0,0,0-.42-2.43c-.67-2-1.36-4.1-2.09-6.29-2.89-9-4.94-16.32-4.58-16.43s3,7.06,5.89,16l2,6.33a4.67,4.67,0,0,1,.26,3.2,2,2,0,0,1-1.39,1.12,5,5,0,0,1-1.39.12C285.23,208.4,283.23,208.31,283.22,208.13Z" style="fill:#263238"></path><path d="M283.53,245.83a58.57,58.57,0,0,1-30.41-9.76s6.95,16.32,30.1,15.32Z" style="fill:#aa6550"></path><path d="M281.5,215.72a5.72,5.72,0,0,0-5-2.38,5.23,5.23,0,0,0-3.71,1.75,3.33,3.33,0,0,0-.44,3.77,3.87,3.87,0,0,0,4.12,1.27,12.24,12.24,0,0,0,4.18-2.22,3.55,3.55,0,0,0,.95-.9,1.08,1.08,0,0,0,.06-1.18" style="fill:#aa6550"></path><path d="M273.76,209.86c.52,0,.36,3.44,3.18,6s6.52,2.4,6.53,2.88c0,.22-.86.63-2.41.6a8.63,8.63,0,0,1-5.45-2.22,7.48,7.48,0,0,1-2.45-5C273.1,210.66,273.53,209.83,273.76,209.86Z" style="fill:#263238"></path><path d="M275.44,175.19c-.45.8-3.52-.13-7.27-.3s-6.9.34-7.26-.51c-.16-.4.49-1.12,1.83-1.74a12.67,12.67,0,0,1,11.07.61C275.07,174,275.64,174.81,275.44,175.19Z" style="fill:#263238"></path><path d="M304.9,178.33c-.59.69-2.75-.17-5.37-.33s-4.89.24-5.36-.54c-.21-.38.18-1.09,1.18-1.72a7.82,7.82,0,0,1,8.65.7C304.9,177.23,305.16,178,304.9,178.33Z" style="fill:#263238"></path><path d="M300.28,190.89a3,3,0,0,1-3.06,2.89,2.88,2.88,0,0,1-3-2.87,3,3,0,0,1,3.06-2.9A2.9,2.9,0,0,1,300.28,190.89Z" style="fill:#263238"></path><path d="M304.72,185.07c-.4.37-2.6-1.43-5.84-1.59s-5.7,1.35-6,.94c-.16-.19.26-.88,1.33-1.58A8.38,8.38,0,0,1,299,181.6a8,8,0,0,1,4.62,1.76C304.61,184.17,304.91,184.9,304.72,185.07Z" style="fill:#263238"></path><path d="M269.22,189.68a2.92,2.92,0,0,1-2.71,3.06,2.8,2.8,0,0,1-3.12-2.52,2.93,2.93,0,0,1,2.7-3.07A2.82,2.82,0,0,1,269.22,189.68Z" style="fill:#263238"></path><path d="M273.13,183c-.34.39-2.63-1.16-5.78-1s-5.4,1.8-5.76,1.42c-.17-.16.17-.86,1.15-1.64a8.08,8.08,0,0,1,4.59-1.6,7.61,7.61,0,0,1,4.62,1.3C273,182.15,273.31,182.83,273.13,183Z" style="fill:#263238"></path><path d="M307.93,208.39s3.2-6.75,7.41-18.44-1.87-32-5.35-38.72a50.16,50.16,0,0,0-7.24-10.63s-.3-21.2-3.12-27.21-31.89-24.21-40.71-25.46-26,5.58-26,5.58-12.47,21.6-17.82,31.5-2.65,36.59-2.65,36.59-13.37,22.17-12.95,25.58,12.7,17.25,12.7,17.25-5.24,23.5-1.94,26.26,12.14,5.38,12.14,5.38l13.1-10.82s.32-8.4,0-15.39c-.37-7.21,6.49-22.39,6.29-21.85,0,0,10-21.85,15.76-26.09s18.12-19.79,18.12-19.79S297.4,153.4,300.8,161s7.91,13.87,7.08,27A128.38,128.38,0,0,0,307.93,208.39Z" style="fill:#FF725E"></path><path d="M220.17,223.52c-.09-.11.58-.8,1.5-1.55s1.74-1.26,1.83-1.15-.58.81-1.5,1.56S220.26,223.63,220.17,223.52Z" style="fill:#263238"></path><path d="M219.36,221.16c-.09-.11.41-.71,1.13-1.35s1.38-1.07,1.48-1-.41.71-1.13,1.35S219.46,221.26,219.36,221.16Z" style="fill:#263238"></path><path d="M218.05,217.71c0-.14.78-.37,1.8-.52s1.85-.16,1.88,0-.79.38-1.81.52S218.07,217.86,218.05,217.71Z" style="fill:#263238"></path><path d="M281.15,95.51c.1.1-.28.66-.85,1.25s-1.12,1-1.23.89.28-.66.85-1.25S281.05,95.41,281.15,95.51Z" style="fill:#263238"></path><path d="M279.1,93.72c.13.07-.07.71-.44,1.45s-.79,1.27-.91,1.21.07-.72.44-1.45S279,93.66,279.1,93.72Z" style="fill:#263238"></path><path d="M276.87,91.3a4.67,4.67,0,0,1-.13,2.22,4.81,4.81,0,0,1-.64,2.12,5,5,0,0,1,.13-2.22A4.81,4.81,0,0,1,276.87,91.3Z" style="fill:#263238"></path><g style="opacity:0.30000000000000004"><path d="M236.07,221.54A11.64,11.64,0,0,0,235,216.7c-1.11-2.13-3.12-3.61-4.78-5.35-4.08-4.27-5.75-9.47-5.88-15.38s2.25-12.85,4.59-18.27c-9.38,13.27-8.43,29.6-2.33,44.3a10.94,10.94,0,0,0,2.69,4.27,4.31,4.31,0,0,0,4.72.8C235.78,226.06,236.17,223.62,236.07,221.54Z"></path></g><path d="M239.8,200.36c.08-1.71-1.7-5.85-3.38-6.2-4.48-.93-12.65-1-13.3,10.5-.89,15.69,15,13.35,15.1,12.9S239.52,206.28,239.8,200.36Z" style="fill:#c78976"></path><path d="M233.76,211.34c-.06-.05-.28.18-.75.36a2.76,2.76,0,0,1-2-.07c-1.62-.7-2.87-3.41-2.79-6.25a9.18,9.18,0,0,1,1-3.87,3.16,3.16,0,0,1,2.18-2,1.4,1.4,0,0,1,1.57.84c.18.45.06.76.15.79s.35-.24.26-.9a1.76,1.76,0,0,0-.56-1,2.07,2.07,0,0,0-1.49-.49,3.87,3.87,0,0,0-3,2.27,9.38,9.38,0,0,0-1.19,4.32c-.08,3.17,1.37,6.22,3.6,7a3,3,0,0,0,2.53-.27C233.71,211.72,233.82,211.37,233.76,211.34Z" style="fill:#aa6550"></path><path d="M255.76,197.78a1.26,1.26,0,1,1-1.55,1.54,1.33,1.33,0,0,1,1.55-1.54" style="fill:#fafafa"></path><path d="M260.72,197.84a1.26,1.26,0,1,1-1.56,1.54,1.33,1.33,0,0,1,1.56-1.54" style="fill:#fafafa"></path><path d="M301.87,199.51a1.27,1.27,0,1,1-1.56,1.54,1.34,1.34,0,0,1,1.56-1.54" style="fill:#fafafa"></path><path d="M298.24,199.51a1.26,1.26,0,1,1-1.56,1.54,1.33,1.33,0,0,1,1.56-1.54" style="fill:#fafafa"></path><path d="M224.32,198.22a1.64,1.64,0,0,1,0-.32c0-.24,0-.54-.05-.92a34.17,34.17,0,0,1,.09-3.57,43.17,43.17,0,0,1,3.05-12.73,71.06,71.06,0,0,1,9.9-16.71,186.1,186.1,0,0,1,15.82-17.78c3-3,6-5.81,9-8.48a42.17,42.17,0,0,1,9.33-6.74,18.73,18.73,0,0,1,10.19-1.89,25,25,0,0,1,8.7,2.53,36.7,36.7,0,0,1,6.32,4c1.73,1.36,3.14,2.63,4.27,3.69s2,1.91,2.54,2.5c.27.27.48.49.64.67a2,2,0,0,1,.21.24l-.25-.21-.67-.63-2.61-2.42A45.79,45.79,0,0,0,290.1,132a24.71,24.71,0,0,0-8.58-2.44,18.22,18.22,0,0,0-9.94,1.9,40.78,40.78,0,0,0-9.19,6.68c-2.95,2.67-5.95,5.49-8.93,8.47a190.61,190.61,0,0,0-15.81,17.7,71.78,71.78,0,0,0-9.94,16.56,45,45,0,0,0-3.19,12.61c-.15,1.53-.17,2.73-.18,3.54,0,.39,0,.69,0,.93A1.57,1.57,0,0,1,224.32,198.22Z" style="fill:#263238"></path><path d="M302.64,142.38a2.7,2.7,0,0,1,0-.42l-.05-1.23a33.56,33.56,0,0,0-.61-4.69,40.42,40.42,0,0,0-7.15-15.73,45.66,45.66,0,0,0-3.68-4.43,45.72,45.72,0,0,0-16.35-11.26,37.85,37.85,0,0,0-14.85-2.75,37.21,37.21,0,0,0-15.74,3.75A30.26,30.26,0,0,0,232,116.17a24.75,24.75,0,0,0-3.11,7,19.24,19.24,0,0,0-.4,7.34c.34,2.38,1.43,4.54,1.81,6.88a8.61,8.61,0,0,1-.12,3.47A13.09,13.09,0,0,1,229,144c-1,1.94-2.28,3.63-3.18,5.41a23.2,23.2,0,0,0-2.06,5.35,27,27,0,0,0-.69,9.81,26.57,26.57,0,0,0,1.83,7.22,11,11,0,0,0,.59,1.33c.2.41.37.8.56,1.15.4.68.72,1.27,1,1.72l.68,1a1.49,1.49,0,0,1,.22.36l-.26-.33-.73-1c-.32-.44-.64-1-1.06-1.71-.2-.34-.38-.73-.59-1.14a12.65,12.65,0,0,1-.62-1.33,26.54,26.54,0,0,1-1.93-7.27,27.14,27.14,0,0,1,.62-9.94,23.77,23.77,0,0,1,2.07-5.44c.9-1.82,2.15-3.51,3.15-5.42a9.67,9.67,0,0,0,1.28-6.32c-.37-2.24-1.47-4.41-1.83-6.88a19.22,19.22,0,0,1,.39-7.53,25.23,25.23,0,0,1,3.16-7.19,30.71,30.71,0,0,1,12.35-10.75,37.51,37.51,0,0,1,16-3.79,38.46,38.46,0,0,1,15,2.81,44.39,44.39,0,0,1,11.9,7.1,45.31,45.31,0,0,1,4.58,4.33,47.52,47.52,0,0,1,3.68,4.5,40.14,40.14,0,0,1,7.05,15.9,32.76,32.76,0,0,1,.52,4.73c0,.54,0,1,0,1.23S302.64,142.38,302.64,142.38Z" style="fill:#263238"></path><path d="M229.5,141.61a1.53,1.53,0,0,1,0-.47,6.49,6.49,0,0,1,.29-1.33,9.37,9.37,0,0,1,2.83-4.07,30.48,30.48,0,0,1,6.29-3.81,43.75,43.75,0,0,0,7.37-5c2.46-2,4.72-4,6.88-5.75a40.47,40.47,0,0,1,6.07-4.15,25.77,25.77,0,0,1,2.56-1.21c.78-.3,1.47-.51,2-.69l1.31-.28a2.4,2.4,0,0,1,.47-.07,28.83,28.83,0,0,0-6.19,2.57,43.62,43.62,0,0,0-5.94,4.2c-2.14,1.74-4.38,3.77-6.86,5.79a43.42,43.42,0,0,1-7.48,5,31.46,31.46,0,0,0-6.27,3.66,9.67,9.67,0,0,0-2.88,3.86A11.22,11.22,0,0,0,229.5,141.61Z" style="fill:#263238"></path><path d="M212.59,156.3a1.61,1.61,0,0,1,0,.5l0,1.41c0,1.31-.09,3.07-.16,5.21-.15,4.4-.39,10.47-.53,17.17s-.1,12.79,0,17.18c.07,2.2.14,4,.19,5.2,0,.57,0,1,.05,1.42a1.43,1.43,0,0,1,0,.49,2.62,2.62,0,0,1-.08-.49l-.15-1.41c-.12-1.22-.24-3-.36-5.2-.23-4.39-.33-10.48-.19-17.2s.44-12.78.69-17.18c.13-2.13.24-3.89.32-5.2,0-.56.08-1,.11-1.41A2,2,0,0,1,212.59,156.3Z" style="fill:#263238"></path><path d="M220.66,126.43a1.86,1.86,0,0,1,.7.08,8.08,8.08,0,0,1,1.81.58,11.89,11.89,0,0,1,2.46,1.42,14.3,14.3,0,0,1,2.46,2.46,13.67,13.67,0,0,1,1.71,3,11.23,11.23,0,0,1,.73,2.74,8.25,8.25,0,0,1,.08,1.91,2.16,2.16,0,0,1-.11.69c-.1,0,0-1-.33-2.54a13.47,13.47,0,0,0-.81-2.62,13.59,13.59,0,0,0-4-5.29,13.07,13.07,0,0,0-2.31-1.47C221.61,126.73,220.64,126.53,220.66,126.43Z" style="fill:#263238"></path><path d="M219.11,137a4,4,0,0,1,1.66-1.12,7.43,7.43,0,0,1,8.84,2.23,3.79,3.79,0,0,1,.92,1.77c-.08,0-.4-.65-1.2-1.53a7.72,7.72,0,0,0-8.43-2.12C219.78,136.61,219.16,137.06,219.11,137Z" style="fill:#263238"></path><path d="M284.7,129.49a3.74,3.74,0,0,1,.08,2.56,7.61,7.61,0,0,1-1.17,2.56,16.19,16.19,0,0,1-2.28,2.56c-1.75,1.65-3.35,3.1-4.53,4.14a12.93,12.93,0,0,1-2,1.61,11.49,11.49,0,0,1,1.73-1.88c1.11-1.1,2.68-2.61,4.42-4.25a17.78,17.78,0,0,0,2.24-2.45,8,8,0,0,0,1.21-2.38A8.58,8.58,0,0,0,284.7,129.49Z" style="fill:#263238"></path><path d="M214.78,152.78c.09-.11.85.33,1.86.72s1.86.58,1.84.73a2.89,2.89,0,0,1-2-.25C215.37,153.57,214.69,152.89,214.78,152.78Z" style="fill:#263238"></path><path d="M215.68,149.94c.06-.12.74.09,1.52.48s1.35.82,1.28,1-.74-.09-1.52-.48S215.61,150.07,215.68,149.94Z" style="fill:#263238"></path><path d="M216.13,147.27c.08-.12.8.23,1.6.79s1.39,1.1,1.31,1.22-.8-.24-1.6-.79S216.05,147.38,216.13,147.27Z" style="fill:#263238"></path><path d="M199.71,178.65c.07-.13.68.06,1.37.41s1.2.75,1.13.88-.68-.06-1.37-.41S199.64,178.78,199.71,178.65Z" style="fill:#263238"></path><path d="M312.53,156.27c0-.14.77-.24,1.71-.23s1.7.15,1.7.3-.77.24-1.71.22S312.53,156.42,312.53,156.27Z" style="fill:#263238"></path><path d="M311.27,154.62c0-.14.65-.36,1.51-.48s1.56-.1,1.58,0-.66.36-1.51.48S311.29,154.76,311.27,154.62Z" style="fill:#263238"></path><path d="M310.64,153.28c-.1-.11.3-.63.88-1.17s1.15-.89,1.24-.78-.3.62-.88,1.16S310.73,153.38,310.64,153.28Z" style="fill:#263238"></path><path d="M250.49,119.93c.14,0,.43.76.64,1.75s.26,1.82.12,1.85-.42-.75-.63-1.75S250.35,120,250.49,119.93Z" style="fill:#263238"></path><path d="M248.77,122.22c.13-.06.47.36.76.94s.42,1.1.29,1.17-.46-.36-.75-.94S248.65,122.29,248.77,122.22Z" style="fill:#263238"></path><path d="M246.69,124c.08-.12.58.1,1.11.48s.89.79.8.91-.58-.1-1.11-.49S246.6,124.15,246.69,124Z" style="fill:#263238"></path><g style="opacity:0.30000000000000004"><path d="M222.42,127.68c3.25,1.63,4.8,5.6,4.53,9.23s-2,7-3.9,10.08-4,6.12-5.2,9.57a19.67,19.67,0,0,0,6.69,21.56,2.5,2.5,0,0,0,1.85.68,1.86,1.86,0,0,0,1.25-2.14,6.37,6.37,0,0,0-1.17-2.45,24.62,24.62,0,0,1-.58-25.17c1.65-2.84,3.93-5.48,4.38-8.73a10.74,10.74,0,0,0-1.85-7.18,24.76,24.76,0,0,0-5.22-5.45"></path></g><g style="opacity:0.30000000000000004"><path d="M275.23,142.25A19.63,19.63,0,0,0,285,129.42a8.48,8.48,0,0,1-9.54,12.72l2.57.35"></path></g><g style="opacity:0.30000000000000004"><path d="M212.42,161.6a127.88,127.88,0,0,0-4.52,31.45,23,23,0,0,0,.58,6.09,8.56,8.56,0,0,0,3.34,5c-.36-14.08,1-28.44.6-42.53"></path></g><g style="opacity:0.30000000000000004"><path d="M231,138.4c.32-3.54.86-7.48,3.66-9.66,1.48-1.15,3.37-1.6,5-2.46,3.25-1.68,5.47-4.79,8-7.43a22.09,22.09,0,0,1,9.46-6.18,12.76,12.76,0,0,1,10.95,1.49,29.85,29.85,0,0,0-16.58,8c-3.21,3.08-5.78,6.93-9.64,9.13-2.14,1.22-4.55,1.87-6.8,2.88s-4.43,2.53-5.37,4.8"></path></g><g style="opacity:0.30000000000000004"><path d="M241.92,158.73c4.76-7.61,6.16-10.68,12.46-17.07s14.29-11.49,23.18-12.71c-7.31,1.64-13.12,7.11-18.74,12.07a228.29,228.29,0,0,0-16.5,17.14"></path></g><path d="M245.1,169c0,.14-.86,0-1.8-.38s-1.68-.74-1.63-.88.86,0,1.8.39S245.15,168.9,245.1,169Z" style="fill:#263238"></path><path d="M246.65,167.46c-.1.11-.85-.39-1.83-.89s-1.83-.83-1.79-1a3.12,3.12,0,0,1,2,.51C246.1,166.64,246.74,167.36,246.65,167.46Z" style="fill:#263238"></path><path d="M247.25,165.55c-.12.08-.56-.36-1-1s-.67-1.2-.55-1.28.56.36,1,1S247.37,165.47,247.25,165.55Z" style="fill:#263238"></path><path d="M274.08,144.62c.25,4.11,1.55,8.47,4.84,11,6.11,4.63,15.88.77,21.94,5.46-4.57-6.38-11-11.11-17.38-15.72a13.43,13.43,0,0,0-4.94-2.63,4.62,4.62,0,0,0-5,1.81" style="fill:#263238"></path><path d="M314,223.18c-1.26-3.5-2.48-7.22-1.79-10.87.46-2.44,1.76-4.77,1.51-7.23-.21-2-1.42-3.76-2.34-5.56-2.47-4.83-3.07-10.76-3.46-16.17h0c0,13.46-1,27.51-1,41,0,1.9,0,3.92,1.11,5.47.87,1.24,2.28,2,3.22,3.16a5.57,5.57,0,0,1-2.29,8.29c3.72.14,6.68-3.52,7.16-7.21S315.28,226.68,314,223.18Z" style="fill:#263238"></path><path d="M238.49,196.1c.61,2.34,2.76,2.88,3.84,1a27.73,27.73,0,0,0,1.87-4.86,24.54,24.54,0,0,0,.83-11.48,116.57,116.57,0,0,0-6.54,15.32" style="fill:#263238"></path><path d="M192.09,420.11c7.22,5.19,17.79,2.89,24.57-2.86S227.32,403.13,231,395c9.45-20.84,18.95-41.81,24.65-64,2.18-8.48,3.76-17.63.73-25.85-8.21,20.34-16.45,40.72-26.78,60.07S206.74,403,190.85,418.11" style="fill:#e0e0e0"></path><path d="M199.42,263.71s-19.53,7.41-23.29,31.66S178,393.24,178,401.5s8.27,25.54,30.05,15,55.46-127.87,55.46-127.87l-19.76-5.19-30.13,59,.5-44.8Z" style="fill:#c78976"></path><path d="M241.72,287.74a.77.77,0,0,1-.08.22l-.3.64L240.16,291l-4.42,8.84c-3.76,7.46-9,17.73-14.84,29s-11.18,21.55-15.13,28.9c-2,3.68-3.6,6.64-4.77,8.67-.58,1-1,1.79-1.38,2.3-.17.26-.31.45-.41.58a.47.47,0,0,1-.14.12c-.07,0,0-.06,0,0s.2-.2.5-.71.74-1.32,1.3-2.35l4.61-8.74,15-29c5.84-11.29,11.12-21.52,15-29,1.92-3.67,3.47-6.66,4.57-8.77l1.27-2.37.34-.61C241.67,287.8,241.71,287.73,241.72,287.74Z" style="fill:#aa6550"></path><path d="M213,295.36a6.42,6.42,0,0,1,.16,1.24c.08.8.16,1.95.24,3.38.17,2.86.32,6.82.35,11.18s-.07,8.33-.2,11.19c-.06,1.43-.13,2.59-.19,3.39a6.06,6.06,0,0,1-.15,1.24,5.69,5.69,0,0,1,0-1.25c0-.91,0-2,0-3.39,0-2.86.07-6.81,0-11.17s-.11-8.31-.19-11.17c0-1.35-.05-2.48-.07-3.39A5.4,5.4,0,0,1,213,295.36Z" style="fill:#aa6550"></path><path d="M265.22,220.45c-.82-1-.85-2.47-1.24-3.73s-1.59-2.55-2.84-2.12-1.49,2.14-2.61,2.79c-.86.5-1.94.23-2.94.16s-2.23.29-2.4,1.27c-.07.44.11.88.07,1.31-.1,1.06-1.32,1.63-1.78,2.59a2,2,0,0,0,2.68,2.57l8.18,2c-.11.8,1.08,1.24,1.74.77a2.64,2.64,0,0,0,.83-2.16,5.14,5.14,0,0,1,.34-2.35c.31-.56.89-1,.86-1.68S265.57,220.9,265.22,220.45Z" style="fill:#fafafa"></path><path d="M241,288.71s5.4-6.66,4.26-14.23-1.8-18.25-2-20.34a52.37,52.37,0,0,1,0-5.68L241,237.67l5.68-16.28s3-.19,2.27,5.3-1.7,12.5-1.7,12.5l8.14-16.66a2.69,2.69,0,0,1,3.27,1.74l2.14-4.89s3.3,3.15,1.78,6.55-8,21.59-8,21.59l1.71,7s9.93,22.53,8.75,28.4-2.7,7.76-2.7,7.76l-6,21" style="fill:#c78976"></path><path d="M256.44,311.65s0-.13.08-.36l.28-1.06c.27-1,.64-2.33,1.13-4.12,1-3.61,2.48-8.85,4.33-15.47v0l0,0a13.76,13.76,0,0,0,1.55-3.45,37.88,37.88,0,0,0,1-4,11.76,11.76,0,0,0-.21-4.32c-.27-1.48-.67-3-1.11-4.52a180.91,180.91,0,0,0-7.42-19.69v0c-.54-2.19-1.12-4.58-1.71-7l0-.07,0-.06,4.94-13.75c.88-2.37,1.76-4.79,2.74-7.21a8.19,8.19,0,0,0,.6-1.79,4.87,4.87,0,0,0-.13-1.86,7.66,7.66,0,0,0-1.93-3.26l.41-.09-2.13,4.9-.24.53-.24-.53a3.12,3.12,0,0,0-1.16-1.38,2.38,2.38,0,0,0-1.79-.23l.15-.13-.1.22-8,16.44-.7,1.43.21-1.58c.45-3.28.9-6.51,1.33-9.67a38.28,38.28,0,0,0,.5-4.66,4.74,4.74,0,0,0-.49-2.14,2,2,0,0,0-1.63-1.05l.21-.16-5.7,16.28v-.12q1.19,5.7,2.25,10.79v.05c-.08,1.58-.12,3.12-.07,4.62s.21,3,.31,4.38c.21,2.86.42,5.55.66,8.07s.48,4.86.76,7c.14,1.08.3,2.1.37,3.11,0,.5,0,1,0,1.47s-.08.93-.11,1.38a21.11,21.11,0,0,1-2.77,7.8c-.48.82-.9,1.42-1.18,1.81a5.29,5.29,0,0,1-.47.58l.42-.61c.27-.41.67-1,1.13-1.84a21.74,21.74,0,0,0,2.64-7.76c0-.45.08-.9.09-1.37s0-.95,0-1.45c-.08-1-.24-2-.39-3.08-.29-2.16-.56-4.51-.81-7s-.48-5.22-.7-8.07c-.1-1.43-.25-2.87-.33-4.4s0-3.06.05-4.65v.06c-.72-3.41-1.48-7-2.29-10.79v-.06l0-.06,5.66-16.29.06-.16h.16a2.42,2.42,0,0,1,2.08,1.29,5,5,0,0,1,.56,2.36,37.47,37.47,0,0,1-.49,4.75c-.43,3.16-.87,6.39-1.32,9.67l-.48-.15,8-16.44.11-.22,0-.1.1,0a2.83,2.83,0,0,1,2.21.27,3.61,3.61,0,0,1,1.38,1.61h-.48l2.14-4.9.15-.35.26.27a8.08,8.08,0,0,1,2.08,3.51,5.5,5.5,0,0,1,.14,2.06,7.94,7.94,0,0,1-.64,1.91c-1,2.41-1.86,4.82-2.73,7.19q-2.58,7.14-5,13.74v-.14c.59,2.43,1.16,4.82,1.69,7v0a178.18,178.18,0,0,1,7.37,19.77c.44,1.54.84,3.06,1.11,4.56a12.22,12.22,0,0,1,.18,4.46,34.21,34.21,0,0,1-1.07,4,14.09,14.09,0,0,1-1.62,3.54l0-.06c-1.91,6.61-3.42,11.84-4.47,15.44l-1.2,4.09-.32,1.05C256.49,311.53,256.44,311.65,256.44,311.65Z" style="fill:#aa6550"></path><path d="M250.21,261.55a5,5,0,0,1-.23-.84l-.49-2.37c-.42-2.13-1-5-1.63-8.43v-.06l0-.07c1.12-2.72,2.39-5.84,3.74-9.15,1-2.39,1.94-4.68,2.82-6.78l.09-.22.22.09a2.54,2.54,0,0,1,1.25,1.12,4.88,4.88,0,0,1,.52,1.47,11.23,11.23,0,0,1,.11,2.81,27.69,27.69,0,0,1-.75,4.53c-.3,1.24-.6,2.21-.82,2.87a4.7,4.7,0,0,1-.4,1,6.23,6.23,0,0,1,.24-1.05c.17-.67.42-1.65.69-2.89a31.54,31.54,0,0,0,.63-4.48,11.3,11.3,0,0,0-.15-2.7,2.83,2.83,0,0,0-1.5-2.23l.32-.13c-.86,2.1-1.8,4.4-2.79,6.79L248.3,250v-.13c.59,3.42,1.08,6.32,1.45,8.46.15,1,.27,1.77.37,2.4A3.9,3.9,0,0,1,250.21,261.55Z" style="fill:#aa6550"></path><path d="M254.15,234.75c-.06,0,.32-.88.74-2.33.23-.73.47-1.6.82-2.55s.88-2,1.35-3c1-2.1,1.88-4,2.56-5.34a11,11,0,0,1,1.2-2.15,11.72,11.72,0,0,1-.87,2.3c-.6,1.4-1.45,3.32-2.43,5.42-.47,1.07-1,2-1.36,2.94s-.65,1.78-.92,2.49A6.52,6.52,0,0,1,254.15,234.75Z" style="fill:#aa6550"></path><path d="M247.43,238.85a18.93,18.93,0,0,1-.85,3.13,8.86,8.86,0,0,0-.3,3.44c.07,1.32.17,2.78.29,4.3.24,3.05.54,5.81.76,7.81a25.77,25.77,0,0,1,.28,3.24,17,17,0,0,1-.65-3.19c-.31-2-.66-4.75-.91-7.82-.12-1.53-.2-3-.25-4.32a8.7,8.7,0,0,1,.42-3.55A21.84,21.84,0,0,1,247.43,238.85Z" style="fill:#aa6550"></path></g><g id="freepik--Sink--inject-34"><path d="M445.92,467.18c0,.14-87.05.26-194.41.26s-194.43-.12-194.43-.26,87-.26,194.43-.26S445.92,467,445.92,467.18Z" style="fill:#263238"></path></g><g id="freepik--Stars--inject-34"><path d="M201.18,183.1l-2.15,0" style="fill:#FF725E"></path><path d="M201.65,182l-2.36-1.22" style="fill:#FF725E"></path><polygon points="224.67 239.86 225.79 242.51 228.17 244.14 225.52 245.26 223.89 247.64 222.77 244.99 220.39 243.36 223.04 242.24 224.67 239.86" style="fill:#FF725E"></polygon><polygon points="184.48 205.35 188.12 206.67 191.88 205.82 190.56 209.46 191.41 213.23 187.78 211.9 184 212.75 185.33 209.12 184.48 205.35" style="fill:#FF725E"></polygon><polygon points="338.97 182.96 342.58 184.28 346.33 183.44 345.02 187.05 345.86 190.81 342.24 189.49 338.49 190.33 339.81 186.72 338.97 182.96" style="fill:#FF725E"></polygon><polygon points="188.59 229.24 189.42 230.51 190.81 231.13 189.54 231.97 188.92 233.35 188.08 232.08 186.69 231.46 187.96 230.63 188.59 229.24" style="fill:#FF725E"></polygon><polygon points="331.05 164.47 331.89 165.74 333.28 166.36 332 167.2 331.38 168.59 330.55 167.31 329.16 166.69 330.43 165.86 331.05 164.47" style="fill:#FF725E"></polygon></g></svg>