<svg xmlns="http://www.w3.org/2000/svg" viewBox="0 0 750 500"><g id="freepik--background-simple--inject-4"><path d="M626.79,143.81S499.34,64.87,399.48,64.87,220.46,201,177.89,235.11s-127.45,19-150.27,104.62S61.86,445.3,147.45,466.22,350,426.28,452.74,440.54,623,490,680.05,419.62,748.52,233.21,626.79,143.81Z" style="fill:#FF725E"></path><path d="M626.79,143.81S499.34,64.87,399.48,64.87,220.46,201,177.89,235.11s-127.45,19-150.27,104.62S61.86,445.3,147.45,466.22,350,426.28,452.74,440.54,623,490,680.05,419.62,748.52,233.21,626.79,143.81Z" style="fill:#fff;opacity:0.7000000000000001"></path></g><g id="freepik--Window--inject-4"><rect x="78.02" y="47.62" width="158.64" height="229.08" style="fill:#fff;stroke:#263238;stroke-miterlimit:10"></rect><path d="M151,220.25c0,18.27-12.23,33.08-27.31,33.08s-27.32-14.81-27.32-33.08,12.23-68.68,27.32-68.68S151,202,151,220.25Z" style="fill:#FF725E"></path><path d="M151,220.25c0,18.27-12.23,33.08-27.31,33.08s-27.32-14.81-27.32-33.08,12.23-68.68,27.32-68.68S151,202,151,220.25Z" style="fill:#fff;opacity:0.7000000000000001"></path><polygon points="118.95 272.12 124.97 272.12 124.06 237.4 133.82 215.82 123.13 227.08 120.35 178.76 119.42 213.47 111.06 204.56 118.95 218.63 118.95 272.12" style="fill:#b8b8b8"></polygon><path d="M235.23,232.15c0,14.08-9.42,25.49-21,25.49s-21.06-11.41-21.06-25.49,9.43-52.93,21.06-52.93S235.23,218.06,235.23,232.15Z" style="fill:#FF725E"></path><path d="M235.23,232.15c0,14.08-9.42,25.49-21,25.49s-21.06-11.41-21.06-25.49,9.43-52.93,21.06-52.93S235.23,218.06,235.23,232.15Z" style="fill:#fff;opacity:0.7000000000000001"></path><polygon points="210.57 272.12 215.2 272.12 214.51 245.36 222.02 228.73 213.79 237.41 211.64 200.17 210.93 226.93 204.49 220.06 210.57 230.9 210.57 272.12" style="fill:#b8b8b8"></polygon><path d="M78,47.62V279.47H239.94V47.62Zm154.2,224.89H85.74V54.58H232.22Z" style="fill:#ababab;stroke:#263238;stroke-miterlimit:10"></path><rect x="85.74" y="159.36" width="146.48" height="8.36" style="fill:#ababab;stroke:#263238;stroke-miterlimit:10"></rect><line x1="224.48" y1="77.21" x2="186.03" y2="115.66" style="fill:none;stroke:#263238;stroke-miterlimit:10"></line><line x1="203.16" y1="109.95" x2="162.43" y2="150.69" style="fill:none;stroke:#263238;stroke-miterlimit:10"></line><circle cx="134.87" cy="101.17" r="23.04" transform="translate(-15.29 24.5) rotate(-9.83)" style="fill:none;stroke:#263238;stroke-miterlimit:10"></circle><line x1="134.87" y1="129.97" x2="134.87" y2="141.49" style="fill:none;stroke:#263238;stroke-miterlimit:10"></line><line x1="134.87" y1="60.21" x2="134.87" y2="71.73" style="fill:none;stroke:#263238;stroke-miterlimit:10"></line><line x1="105.75" y1="100.85" x2="94.23" y2="100.85" style="fill:none;stroke:#263238;stroke-miterlimit:10"></line><line x1="175.51" y1="100.85" x2="163.99" y2="100.85" style="fill:none;stroke:#263238;stroke-miterlimit:10"></line><line x1="114.28" y1="121.44" x2="106.14" y2="129.58" style="fill:none;stroke:#263238;stroke-miterlimit:10"></line><line x1="163.61" y1="72.11" x2="155.46" y2="80.26" style="fill:none;stroke:#263238;stroke-miterlimit:10"></line><line x1="155.46" y1="121.44" x2="163.61" y2="129.58" style="fill:none;stroke:#263238;stroke-miterlimit:10"></line><line x1="106.14" y1="72.11" x2="114.28" y2="80.26" style="fill:none;stroke:#263238;stroke-miterlimit:10"></line></g><g id="freepik--Picture--inject-4"><rect x="524.57" y="58.16" width="115.59" height="138.56" style="fill:#fff;stroke:#263238;stroke-miterlimit:10"></rect><rect x="528.28" y="62.61" width="108.18" height="129.68" style="fill:#fff;stroke:#263238;stroke-miterlimit:10"></rect><path d="M565.19,93.39l-1.39,1.4-6.29,6.3-7.7-7.7a4.45,4.45,0,0,1,6.3-6.29l1.4,1.4,1.39-1.4a4.45,4.45,0,1,1,6.29,6.29Z" style="fill:#FF725E"></path><path d="M565.19,116.06l-1.39,1.4-6.29,6.29-7.7-7.69a4.45,4.45,0,0,1,6.3-6.29l1.4,1.4,1.39-1.4a4.45,4.45,0,1,1,6.29,6.29Z" style="fill:#FF725E"></path><path d="M565.19,138.73l-1.39,1.4-6.29,6.29-7.7-7.69a4.45,4.45,0,0,1,6.3-6.29l1.4,1.4,1.39-1.4a4.45,4.45,0,1,1,6.29,6.29Z" style="fill:#FF725E"></path><path d="M565.19,161.4l-1.39,1.4-6.29,6.29-7.7-7.69a4.45,4.45,0,0,1,6.3-6.29l1.4,1.4,1.39-1.4a4.45,4.45,0,1,1,6.29,6.29Z" style="fill:#FF725E"></path><path d="M590.05,93.39l-1.39,1.4-6.29,6.3-7.69-7.7A4.45,4.45,0,0,1,581,87.1l1.4,1.4,1.4-1.4a4.44,4.44,0,0,1,6.28,6.29Z" style="fill:#FF725E"></path><path d="M590.05,116.06l-1.39,1.4-6.29,6.29-7.69-7.69a4.45,4.45,0,0,1,6.29-6.29l1.4,1.4,1.4-1.4a4.44,4.44,0,1,1,6.28,6.29Z" style="fill:#FF725E"></path><path d="M590.05,138.73l-1.39,1.4-6.29,6.29-7.69-7.69a4.45,4.45,0,0,1,6.29-6.29l1.4,1.4,1.4-1.4a4.44,4.44,0,1,1,6.28,6.29Z" style="fill:#FF725E"></path><path d="M590.05,161.4l-1.39,1.4-6.29,6.29-7.69-7.69a4.45,4.45,0,0,1,6.29-6.29l1.4,1.4,1.4-1.4a4.44,4.44,0,1,1,6.28,6.29Z" style="fill:#FF725E"></path><path d="M614.92,93.39l-1.4,1.4-6.29,6.3-7.69-7.7a4.45,4.45,0,0,1,6.29-6.29l1.4,1.4,1.4-1.4a4.45,4.45,0,0,1,6.29,0A4.46,4.46,0,0,1,614.92,93.39Z" style="fill:#FF725E"></path><path d="M614.92,116.06l-1.4,1.4-6.29,6.29-7.69-7.69a4.45,4.45,0,0,1,6.29-6.29l1.4,1.4,1.4-1.4a4.45,4.45,0,0,1,6.29,0A4.46,4.46,0,0,1,614.92,116.06Z" style="fill:#FF725E"></path><path d="M614.92,138.73l-1.4,1.4-6.29,6.29-7.69-7.69a4.45,4.45,0,0,1,6.29-6.29l1.4,1.4,1.4-1.4a4.45,4.45,0,0,1,6.29,0A4.46,4.46,0,0,1,614.92,138.73Z" style="fill:#FF725E"></path><path d="M614.92,161.4l-1.4,1.4-6.29,6.29-7.69-7.69a4.45,4.45,0,0,1,6.29-6.29l1.4,1.4,1.4-1.4a4.45,4.45,0,0,1,6.29,0A4.46,4.46,0,0,1,614.92,161.4Z" style="fill:#FF725E"></path></g><g id="freepik--Floor--inject-4"><line x1="709.53" y1="451.18" x2="21.71" y2="451.18" style="fill:#fff;stroke:#263238;stroke-miterlimit:10"></line></g><g id="freepik--nightstand-2--inject-4"><rect x="522.74" y="309.14" width="111.08" height="142.04" style="fill:#fff;stroke:#263238;stroke-miterlimit:10"></rect><rect x="522.74" y="309.14" width="111.08" height="11.56" style="fill:#263238;stroke:#263238;stroke-miterlimit:10"></rect><rect x="519.88" y="309.14" width="116.79" height="9.18" style="fill:#fff;stroke:#263238;stroke-miterlimit:10"></rect><rect x="527.13" y="323.57" width="103.17" height="30.65" style="fill:#fff;stroke:#263238;stroke-miterlimit:10"></rect><rect x="569.57" y="337.29" width="18.3" height="3.2" style="fill:#263238;stroke:#263238;stroke-miterlimit:10"></rect><rect x="527.13" y="362.29" width="103.17" height="30.65" style="fill:#fff;stroke:#263238;stroke-miterlimit:10"></rect><rect x="569.57" y="376.01" width="18.3" height="3.2" style="fill:#263238;stroke:#263238;stroke-miterlimit:10"></rect><rect x="527.13" y="401" width="103.17" height="30.65" style="fill:#fff;stroke:#263238;stroke-miterlimit:10"></rect><rect x="569.57" y="414.72" width="18.3" height="3.2" style="fill:#263238;stroke:#263238;stroke-miterlimit:10"></rect></g><g id="freepik--nightstand-1--inject-4"><rect x="93.01" y="309.14" width="111.08" height="142.04" style="fill:#fff;stroke:#263238;stroke-miterlimit:10"></rect><rect x="93.01" y="309.14" width="111.08" height="11.56" style="fill:#263238;stroke:#263238;stroke-miterlimit:10"></rect><rect x="90.16" y="309.14" width="116.79" height="9.18" style="fill:#fff;stroke:#263238;stroke-miterlimit:10"></rect><rect x="97.41" y="323.57" width="103.17" height="30.65" style="fill:#fff;stroke:#263238;stroke-miterlimit:10"></rect><rect x="139.84" y="337.29" width="18.3" height="3.2" style="fill:#263238;stroke:#263238;stroke-miterlimit:10"></rect><rect x="97.41" y="362.29" width="103.17" height="30.65" style="fill:#fff;stroke:#263238;stroke-miterlimit:10"></rect><rect x="139.84" y="376.01" width="18.3" height="3.2" style="fill:#263238;stroke:#263238;stroke-miterlimit:10"></rect><rect x="97.41" y="401" width="103.17" height="30.65" style="fill:#fff;stroke:#263238;stroke-miterlimit:10"></rect><rect x="139.84" y="414.72" width="18.3" height="3.2" style="fill:#263238;stroke:#263238;stroke-miterlimit:10"></rect></g><g id="freepik--Lamp--inject-4"><rect x="581.67" y="232.15" width="2.45" height="31.28" style="fill:#263238;stroke:#263238;stroke-miterlimit:10"></rect><polygon points="590.01 239.99 575.79 239.99 578.63 251.28 587.16 251.28 590.01 239.99" style="fill:#ababab;stroke:#263238;stroke-miterlimit:10"></polygon><polygon points="606.98 235.2 558.82 235.2 572.78 203.15 593.01 203.15 606.98 235.2" style="fill:#fff;stroke:#263238;stroke-miterlimit:10"></polygon><rect x="580.69" y="250.78" width="4.41" height="12.66" style="fill:#263238;stroke:#263238;stroke-miterlimit:10"></rect><rect x="578.63" y="250.78" width="8.53" height="7.36" style="fill:#ababab;stroke:#263238;stroke-miterlimit:10"></rect><rect x="579.76" y="267.01" width="6.27" height="30.55" style="fill:#ababab;stroke:#263238;stroke-miterlimit:10"></rect><rect x="578.37" y="294.82" width="9.06" height="2.75" style="fill:#ababab;stroke:#263238;stroke-miterlimit:10"></rect><polygon points="587.8 262.39 578 262.39 579.96 267.15 585.84 267.15 587.8 262.39" style="fill:#ababab;stroke:#263238;stroke-miterlimit:10"></polygon><polygon points="588.81 297.4 576.99 297.4 566.49 308.88 599.31 308.88 588.81 297.4" style="fill:#ababab;stroke:#263238;stroke-miterlimit:10"></polygon></g><g id="freepik--Clock--inject-4"><path d="M182.47,266.82l-1.19-3.41a10.62,10.62,0,0,1-.59-3.91v-.14a4.55,4.55,0,0,0-3.49-4.58l-3.32-.82a4.57,4.57,0,0,0-5.21,2.46l-.06.13a10.75,10.75,0,0,1-2.33,3.19l-2.63,2.47" style="fill:none;stroke:#263238;stroke-miterlimit:10"></path><path d="M164.27,273.65l-2.25.41-2.74-15.13a1.12,1.12,0,0,1,.91-1.32h0a1.14,1.14,0,0,1,1.33.91Z" style="fill:#fff;stroke:#263238;stroke-miterlimit:10"></path><path d="M157.59,261.48h7.66a3.48,3.48,0,0,1,3.48,3.48v2.22a0,0,0,0,1,0,0H154.1a0,0,0,0,1,0,0V265A3.48,3.48,0,0,1,157.59,261.48Z" transform="translate(-44.66 33.12) rotate(-10.3)" style="fill:#FF725E;stroke:#263238;stroke-miterlimit:10"></path><path d="M175.7,276.45l1.8,1.4,9.43-12.15a1.13,1.13,0,0,0-.2-1.6h0a1.15,1.15,0,0,0-1.6.2Z" style="fill:none;stroke:#263238;stroke-miterlimit:10"></path><path d="M175.23,266.65h14.62a0,0,0,0,1,0,0v2.22a3.48,3.48,0,0,1-3.48,3.48h-7.66a3.48,3.48,0,0,1-3.48-3.48v-2.22A0,0,0,0,1,175.23,266.65Z" transform="translate(161.52 594.33) rotate(-142.19)" style="fill:#FF725E;stroke:#263238;stroke-miterlimit:10"></path><line x1="156.73" y1="296.09" x2="153.26" y2="301.5" style="fill:none;stroke:#263238;stroke-linecap:round;stroke-miterlimit:10;stroke-width:2px"></line><line x1="173.14" y1="300.11" x2="173.73" y2="306.51" style="fill:none;stroke:#263238;stroke-linecap:round;stroke-miterlimit:10;stroke-width:2px"></line><path d="M183.55,290.34a16.52,16.52,0,1,0-20,12.12A16.52,16.52,0,0,0,183.55,290.34Z" style="fill:#FF725E;stroke:#263238;stroke-miterlimit:10"></path><path d="M179.79,289.42a12.65,12.65,0,1,0-15.29,9.28A12.65,12.65,0,0,0,179.79,289.42Z" style="fill:#fff;stroke:#263238;stroke-miterlimit:10"></path><polyline points="166.1 292.13 167.5 286.42 175.99 288.49" style="fill:none;stroke:#263238;stroke-miterlimit:10"></polyline><path d="M168.29,286.61a.8.8,0,0,0-.59-1,.82.82,0,0,0-1,.59.81.81,0,0,0,1.58.39Z" style="fill:none;stroke:#263238;stroke-miterlimit:10"></path><path d="M144.31,285a18.24,18.24,0,0,0,2.12,10" style="fill:none;stroke:#263238;stroke-miterlimit:10"></path><path d="M189,281.66s1.83,3,0,8.8" style="fill:none;stroke:#263238;stroke-miterlimit:10"></path></g><g id="freepik--Character--inject-4"><rect x="263.44" y="253.84" width="5.06" height="69.36" style="fill:#ababab;stroke:#263238;stroke-miterlimit:10"></rect><rect x="276.46" y="253.84" width="5.06" height="69.36" style="fill:#ababab;stroke:#263238;stroke-miterlimit:10"></rect><rect x="289.47" y="253.84" width="5.06" height="69.36" style="fill:#ababab;stroke:#263238;stroke-miterlimit:10"></rect><rect x="302.48" y="253.84" width="5.06" height="69.36" style="fill:#ababab;stroke:#263238;stroke-miterlimit:10"></rect><rect x="315.49" y="253.84" width="5.06" height="69.36" style="fill:#ababab;stroke:#263238;stroke-miterlimit:10"></rect><rect x="328.51" y="253.84" width="5.06" height="69.36" style="fill:#ababab;stroke:#263238;stroke-miterlimit:10"></rect><rect x="341.52" y="253.84" width="5.06" height="69.36" style="fill:#ababab;stroke:#263238;stroke-miterlimit:10"></rect><rect x="354.53" y="253.84" width="5.06" height="69.36" style="fill:#ababab;stroke:#263238;stroke-miterlimit:10"></rect><rect x="367.55" y="253.84" width="5.06" height="69.36" style="fill:#ababab;stroke:#263238;stroke-miterlimit:10"></rect><rect x="380.56" y="253.84" width="5.06" height="69.36" style="fill:#ababab;stroke:#263238;stroke-miterlimit:10"></rect><rect x="393.57" y="253.84" width="5.06" height="69.36" style="fill:#ababab;stroke:#263238;stroke-miterlimit:10"></rect><rect x="406.59" y="253.84" width="5.06" height="69.36" style="fill:#ababab;stroke:#263238;stroke-miterlimit:10"></rect><rect x="419.6" y="253.84" width="5.06" height="69.36" style="fill:#ababab;stroke:#263238;stroke-miterlimit:10"></rect><rect x="432.61" y="253.84" width="5.06" height="69.36" style="fill:#ababab;stroke:#263238;stroke-miterlimit:10"></rect><rect x="445.62" y="253.84" width="5.06" height="69.36" style="fill:#ababab;stroke:#263238;stroke-miterlimit:10"></rect><rect x="250.79" y="247.79" width="211.46" height="9.54" style="fill:#ababab;stroke:#263238;stroke-miterlimit:10"></rect><rect x="248.32" y="242.64" width="7.96" height="79.73" style="fill:#ababab;stroke:#263238;stroke-miterlimit:10"></rect><rect x="457.97" y="242.64" width="7.96" height="79.73" style="fill:#ababab;stroke:#263238;stroke-miterlimit:10"></rect><path d="M212.08,391.51l-11.45,58.94a92.55,92.55,0,0,1,10.74,5c7.23,3.78,29.87,4,47.43,1.21s29.28-4.41,47.18,2.21,43.06,6,54.42,2.52,30,.95,42.36.95,38.23-1.26,51.32-6.31,24.45-3.15,35.47-.63,26.52.63,31-1.58,6.54-3.46,6.54-3.46L511.6,377.25S508,335.68,503,326.14c-6.69-12.82-17.9-16.63-35.47-17.26s-39.95,3-71.29,7.46-73.71,2.26-113.66-6.79c-35.32-8-53.12,7.54-58.07,16.59C218.72,336.71,212.08,391.51,212.08,391.51Z" style="fill:#FF725E;stroke:#263238;stroke-miterlimit:10"></path><line x1="257.16" y1="411.96" x2="251.79" y2="347.43" style="fill:#ababab;stroke:#263238;stroke-miterlimit:10"></line><line x1="258.88" y1="432.57" x2="258.06" y2="422.65" style="fill:#ababab;stroke:#263238;stroke-miterlimit:10"></line><line x1="453.29" y1="348.14" x2="448.32" y2="391.42" style="fill:#ababab;stroke:#263238;stroke-miterlimit:10"></line><path d="M238.14,342.53s-4.14-.94-5.17,6.62-10,46.67-10,46.67" style="fill:none;stroke:#263238;stroke-miterlimit:10"></path><line x1="233.29" y1="394.96" x2="232.28" y2="404.97" style="fill:none;stroke:#263238;stroke-miterlimit:10"></line><line x1="238.14" y1="346.63" x2="233.94" y2="388.5" style="fill:none;stroke:#263238;stroke-miterlimit:10"></line><path d="M484,341s2.41,18.28,5.17,41.3" style="fill:none;stroke:#263238;stroke-miterlimit:10"></path><line x1="480" y1="389.29" x2="479.91" y2="396.45" style="fill:none;stroke:#263238;stroke-miterlimit:10"></line><line x1="480.6" y1="341.9" x2="480.1" y2="381.5" style="fill:none;stroke:#263238;stroke-miterlimit:10"></line><path d="M270.55,98.08a1.48,1.48,0,0,0-2.18.51c-1,1.42-5.05,6.07-4.65,7.28s5.66,6.47,5.66,6.47l6.68-7.88-3.89-5.63Z" style="fill:#fff;stroke:#263238;stroke-miterlimit:10"></path><path d="M320.51,176.17s-5.3-10.13-11.05-16.57S277,126.45,275.62,124.84s-3-5.07-3-6,8.05-10.13,8.05-12.2-7.13-6.9-8.51-7.82a3.58,3.58,0,0,0-1.62-.75c-.15-.09-.77-.26-1.87,1.93-1.27,2.54-3.6,4-2.54,5.3s3.5,4.1,3.5,4.1l.33-.32-.33.32c-1.85,1.62-7.37,7.14-6.91,11.28a5,5,0,0,0,4.14,4.61s30.62,45.11,34.3,50,8.29,9.67,8.75,10.36,12.2,14.27,12.2,14.27l6.67-14.73Z" style="fill:#fff;stroke:#263238;stroke-miterlimit:10"></path><path d="M266.64,114a23,23,0,0,0,2.07-6.45c.7-3.91,4.61-7.59,6.22-8.51s1.38.69.23,2.53a15.54,15.54,0,0,0-1.84,4.6c-.23.92,0,4.84-.46,5.76" style="fill:#fff;stroke:#263238;stroke-miterlimit:10"></path><path d="M435.34,96.46s2.43-.92,3.62-.2,5.25,6,5.25,6.92-2.38,1.43-2.38,1.43,2.38,1.91,1.43,2.63-5.73,1.67-5.73,1.67L433,100.32Z" style="fill:#fff;stroke:#263238;stroke-miterlimit:10"></path><path d="M447.11,117.24c-.32-4.16-6.78-8.55-8.89-9.79a7.18,7.18,0,0,1-2.38-2.86l.91.4.81-3.79s2.71,2.17,3.79,1.08-1.89-3-3-4.32a5.13,5.13,0,0,0-3-1.63l-.06.13c-.41,0-1,.46-1.58,1.06-1.18,1.16-7.29,7.24-6.91,9.28s10,9.57,10.2,10.48-.77,4.6-1.83,6.44-25.17,36.14-29.62,43.54-7.76,18.35-7.76,18.35L391.37,196l9.31,13.23s9-15.53,9.32-16.3,3.95-6.37,6.66-11.81S443,123.46,443,123.46,447.43,121.4,447.11,117.24Z" style="fill:#fff;stroke:#263238;stroke-miterlimit:10"></path><path d="M442,111.41a23.09,23.09,0,0,1-3.24-5.94c-1.4-3.72-5.94-6.61-7.69-7.21s-1.23.94.25,2.53A15.35,15.35,0,0,1,434,105c.4.86.91,4.75,1.53,5.57" style="fill:#fff;stroke:#263238;stroke-miterlimit:10"></path><path d="M393,222.9l8.05-11.28-9-17.73H361.25l-3,6s-6.45,0-7.6-.46-20.25-13.58-20.25-13.58l-8.75,18.41L329,216.91l6,41.67L333,267s-10.83,33-10.33,35.44,8.86,11.38,23.62,13.35,37.9-1.48,41.35-3,11.32-.49,16.24-7.87-12.43-46.41-12.43-46.41Z" style="fill:#fff;stroke:#263238;stroke-miterlimit:10"></path><polygon points="389.56 197.12 400.61 221.29 404.99 216.45 394.68 191.01 389.56 197.12" style="fill:#FF725E;stroke:#263238;stroke-miterlimit:10"></polygon><path d="M384.56,151.12s-7.44-5.53-16-4.58-27.48,15.65-28.43,18.7,3.43,2.29,3.43,2.29-5.72,3.82-4,7.07,3.63,2.67,3.63,2.67-5.73,1.14-3,6.87,6.1,4.2,6.1,4.2-2.67,9.16,1,10.49,6.1-2.86,6.1-2.86,1.53,3.44,3.44,3.44a5.29,5.29,0,0,0,3.43-1.72l5.73-6.11s8.4,10.12,12.21,10.12,8.78-6.49,12.6-10.31,4.39-5.53,4.39-5.53l1.91-6.11s.19,8,2.67,7.44a5.11,5.11,0,0,0,3.82-5.15,51.78,51.78,0,0,0-1-7.06s3.25,7.44,5.73,4.77,2.67-5.35,1.14-7.83-7.63-7.82-7.63-7.82,6.49-1.15,4.2-6.11-15.65-5.91-15.65-5.91,4-9.35-.38-7.26S384.18,146.54,384.56,151.12Z" style="fill:#263238;stroke:#263238;stroke-miterlimit:10"></path><path d="M363.57,177.46s.38.95,2.48-1.72,6.49-.76,6.11-6.49,7.06-8.2,13.55-6.68,12.78,9.35,13.36,14.51-4.39,11.83-4.39,13.93.38,4.39-1.34,7.25-9.16,7.82-13,8-7.63-2.68-7.63-2.68-2.1,6.3-2.1,7.07,1.91,3.62-3.82,5.72-10.3-1.53-11.07-5.92a60.4,60.4,0,0,1-.76-9s2.29-1.71,4.39-9a49.29,49.29,0,0,0,2.1-12.4Z" style="fill:#fff;stroke:#263238;stroke-miterlimit:10"></path><path d="M366.05,179.56s-2.48-6.87-5.34-4.77-2.68,7.63-1.34,9.54,3.82.76,3.82.76" style="fill:none;stroke:#263238;stroke-miterlimit:10"></path><path d="M378.26,176.12s4.58-2.1,8.4,1" style="fill:none;stroke:#263238;stroke-miterlimit:10"></path><path d="M396.2,184.33a3.83,3.83,0,0,0-3.81-3.82" style="fill:none;stroke:#263238;stroke-miterlimit:10"></path><path d="M391.43,182s-1.72,1.72-1.52,3.05.76,6.3.76,6.3l-5,.76" style="fill:none;stroke:#263238;stroke-miterlimit:10"></path><path d="M386.66,196.54s-4.77-.76-6.49-2.48a8.06,8.06,0,0,1-1.91-4.58" style="fill:none;stroke:#263238;stroke-miterlimit:10"></path><path d="M379,180.51s2.48,2.67,5.72,1.53" style="fill:none;stroke:#263238;stroke-miterlimit:10"></path><path d="M391.24,185.47a3,3,0,0,0,3.25,2.1" style="fill:none;stroke:#263238;stroke-miterlimit:10"></path><polygon points="372.73 203.6 366.62 198.45 370.63 210.66 372.73 203.6" style="fill:#263238;stroke:#263238;stroke-miterlimit:10"></polygon><polygon points="328.1 181.46 318.21 207.94 322.81 212.08 333.4 184.69 328.1 181.46" style="fill:#FF725E;stroke:#263238;stroke-miterlimit:10"></polygon><path d="M355,201.5a25.56,25.56,0,0,0-.17,18.64" style="fill:none;stroke:#263238;stroke-miterlimit:10"></path><path d="M375.06,207.71a27.16,27.16,0,0,1-1.15,16.34" style="fill:none;stroke:#263238;stroke-miterlimit:10"></path><path d="M350.66,199.42a31.88,31.88,0,0,0-3.22,12.89" style="fill:none;stroke:#263238;stroke-miterlimit:10"></path><path d="M440.67,278.5s-9.8,13.87-17,22.14-16.9,14.17-33.64,17.15-50.14-.13-62.43-2.87-28.73-11.79-28.73-11.79L327,286.59s25.91,17.64,71.12-.55C398.13,286,430.84,265.44,440.67,278.5Z" style="fill:#6b6b6b;stroke:#263238;stroke-miterlimit:10"></path><path d="M338,282.73s17.79,4.23,31.42,5.51" style="fill:none;stroke:#263238;stroke-miterlimit:10"></path><path d="M382.06,281.31a77.45,77.45,0,0,1-24.18,2.52" style="fill:none;stroke:#263238;stroke-miterlimit:10"></path><path d="M392.06,277.77a46.21,46.21,0,0,1-4.39,1.8" style="fill:none;stroke:#263238;stroke-miterlimit:10"></path><path d="M365.94,307s-28.5-1.69-38.88-14.77-36.36-32.06-44.73-28.62-12,7.46-4.05,24.89,57.31,25.42,68.3,27.87,37.08,2.44,43.48,1.46,22.64-1.48,24.61-8.37-1-9.84-9.35-9.84-13.78,4.92-21.66,5.9A133.42,133.42,0,0,1,365.94,307Z" style="fill:#fff;stroke:#263238;stroke-miterlimit:10"></path><path d="M352.65,309.42a12.27,12.27,0,0,0,2.39-3.93c-9.19-1.76-21.8-5.51-28-13.3-10.39-13.08-36.36-32.06-44.73-28.62s-12,7.46-4.05,24.89c7.09,15.49,46.81,23.52,63.3,26.84C345.42,314.38,349.8,312.66,352.65,309.42Z" style="fill:#6b6b6b;stroke:#263238;stroke-miterlimit:10"></path><path d="M405.32,299.58c-8.37,0-13.78,4.92-21.66,5.9A133.42,133.42,0,0,1,365.94,307s4.58,5.5,2.64,11.35c9.24.24,18.1,0,21.48-.52,6.4-1,22.64-1.48,24.61-8.37S413.69,299.58,405.32,299.58Z" style="fill:#fff;stroke:#263238;stroke-miterlimit:10"></path><path d="M355.51,306.29s28.15-4.74,37.07-18.85,32.71-35.79,41.4-33.26,12.76,6.12,6.69,24.32-54.25,31.42-64.91,35-32.66,5.21-39.13,4.92-26.65-.29-29.35-6.93,0-7.45,8.28-8.34,14.23,3.41,22.17,3.54A133.59,133.59,0,0,0,355.51,306.29Z" style="fill:#fff;stroke:#263238;stroke-miterlimit:10"></path><path d="M369,307.31a12.22,12.22,0,0,1-2.8-3.65c8.95-2.73,21.09-7.81,26.4-16.22,8.92-14.12,32.71-35.79,41.4-33.26s12.76,6.12,6.69,24.32c-5.39,16.16-44,28.4-60.05,33.47C376.7,311.47,372.16,310.23,369,307.31Z" style="fill:#6b6b6b;stroke:#263238;stroke-miterlimit:10"></path><path d="M315.56,303.18c8.32-.9,14.23,3.41,22.17,3.54a133.59,133.59,0,0,0,17.78-.43s-4,6-1.41,11.57a80.88,80.88,0,0,1-17.47.59c-6.47-.3-26.65-.29-29.35-6.93S307.24,304.07,315.56,303.18Z" style="fill:#fff;stroke:#263238;stroke-miterlimit:10"></path><path d="M515,318.36c-4.92-11.26-14.75-17.26-19.67-18.76,0-3.23-22.65-10.93-32-17.1s-5.91-20.44-24.28-28.66c-18-8.06-40.32,13.38-41.18,14.22-1.31,1.27-18.22-2.32-21.12-2.39a188.44,188.44,0,0,0-38.87,3.15c-3.71.69-19.48,6.46-22.59,4.56L292,259.22a19.93,19.93,0,0,0-20.49,2.55c-10.22,8.06-24,24.21-27,24.7-4.51.75-21.31,23.63-23.77,26.26S200.7,323.23,201.11,330,206,350.24,206,350.24s-18.43,25.14-12.7,30,20.08,11.25,20.08,11.25,7.37-38.64,11.88-45.39,30.32-9.38,36.88-9.76,49.27,8.23,73.75,10.88c38.11,4.13,72.12,0,106.12-7.5s47.42-3,51.4-.76c7.06,4,12.93,14.64,12.93,14.64l6.56,23.63s11.47-5.62,14.34-8.25S519.88,329.61,515,318.36Z" style="fill:#fff;stroke:#263238;stroke-miterlimit:10"></path><path d="M394.51,272.82s-22.16,9.87-44.17,11.32" style="fill:none;stroke:#263238;stroke-miterlimit:10"></path><path d="M420.18,293.55c7.92-3.22,14.48-6,14.48-6" style="fill:none;stroke:#263238;stroke-miterlimit:10"></path><path d="M295.76,291l25-1.13s68,14.64,72.52,13.89c2.12-.36,11.38-3.94,20.61-7.64" style="fill:none;stroke:#263238;stroke-miterlimit:10"></path><path d="M469,301.54c3.63-.8,5.78-1.19,5.78-1.19" style="fill:none;stroke:#263238;stroke-miterlimit:10"></path><path d="M323.3,321.61c5.88.7,13.82,1.6,24.49,2.75,34.83,3.75,52.86,1.12,76.63-9A254.41,254.41,0,0,1,462.86,303" style="fill:none;stroke:#263238;stroke-miterlimit:10"></path><path d="M307.23,319.48s1.2.24,5.83.85" style="fill:none;stroke:#263238;stroke-miterlimit:10"></path><path d="M220.77,312.73s-11.47,18.76-13.11,21.38,1.23,7.51,4.92,9.38" style="fill:none;stroke:#263238;stroke-miterlimit:10"></path><path d="M258.88,334.86s-25.81-2.62-31.55-.37-.82,3.75,4.92,3" style="fill:none;stroke:#263238;stroke-miterlimit:10"></path><path d="M263.81,298.1a36.73,36.73,0,0,0-24.19,3.37c-9,4.88-18,13.51-18,13.51" style="fill:none;stroke:#263238;stroke-miterlimit:10"></path><path d="M297.4,315.73S278.14,303,269.12,299.6" style="fill:none;stroke:#263238;stroke-miterlimit:10"></path><path d="M509.23,355.5s8.2,5.62,7.38,9.38-3.28,1.87-5.33-2.26" style="fill:none;stroke:#263238;stroke-miterlimit:10"></path></g></svg>
