<svg xmlns="http://www.w3.org/2000/svg" xmlns:xlink="http://www.w3.org/1999/xlink" viewBox="0 0 500 500"><defs><clipPath id="freepik--clip-path--inject-10"><path d="M233.83,267.6S241.24,252.76,244,250s9.56,1.36,10.15,2.93-6.44,15.81-9.37,20.49-4.87,2.58-6.83.39A37.94,37.94,0,0,1,233.83,267.6Z" style="fill:#FF725E"></path></clipPath><clipPath id="freepik--clip-path-2--inject-10"><path d="M220,315s-3.32-15.61-5.08-23-2.93-11.13-4.29-12.69-7.42,1.56-8.4,6.83S216.65,313.47,220,315Z" style="fill:#FF725E"></path></clipPath><clipPath id="freepik--clip-path-3--inject-10"><rect x="149.64" y="143.28" width="130.93" height="229.45" style="fill:none"></rect></clipPath><clipPath id="freepik--clip-path-4--inject-10"><path d="M241.37,276.76c-1.49,0-2.67-1.31-3.82-2.58a38.41,38.41,0,0,1-4.17-6.35.53.53,0,0,1,0-.46c.3-.61,7.48-14.94,10.24-17.7,1-1,2.54-1.29,4.46-.88,2.89.63,6,2.75,6.52,4,.72,1.94-6.93,17-9.42,20.94-1.21,1.94-2.38,2.93-3.59,3Zm-7-9.17a35.87,35.87,0,0,0,3.91,5.92c1,1.15,2.1,2.32,3.2,2.25.86-.08,1.82-.94,2.83-2.57,3.35-5.36,9.68-18.66,9.33-20.07-.29-.76-3.09-2.77-5.79-3.35a3.87,3.87,0,0,0-3.54.61C241.87,252.84,235.34,265.7,234.39,267.59Z" style="fill:#263238;clip-path:url(#freepik--clip-path--inject-10)"></path></clipPath><clipPath id="freepik--clip-path-5--inject-10"><path d="M220,315.53a.42.42,0,0,1-.22,0c-3.62-1.7-19-24.14-18-29.43a10.21,10.21,0,0,1,6.69-7.48A2.43,2.43,0,0,1,211,279c1.37,1.56,2.52,4.94,4.41,12.9,1.74,7.34,5,22.89,5.08,23.05a.49.49,0,0,1-.18.49A.45.45,0,0,1,220,315.53Zm-10.46-36.12a3.53,3.53,0,0,0-.85.12,9.16,9.16,0,0,0-6,6.7c-.83,4.49,11.9,23.49,16.52,27.64-.83-3.87-3.36-15.66-4.81-21.76-1.82-7.69-3-11.07-4.18-12.47A.92.92,0,0,0,209.51,279.41Z" style="fill:#263238;clip-path:url(#freepik--clip-path-2--inject-10)"></path></clipPath></defs><g id="freepik--background-simple--inject-10"><path d="M406.67,136.33s-24-54-77-62-90,31-129,51c-20.43,10.48-43.76,6.41-65.44,11.48C65.9,153,39.79,254.58,68.67,312.33c25,50,69,76,136,82s114,13,174-36S434.67,207.33,406.67,136.33Z" style="fill:#FF725E"></path><path d="M406.67,136.33s-24-54-77-62-90,31-129,51c-20.43,10.48-43.76,6.41-65.44,11.48C65.9,153,39.79,254.58,68.67,312.33c25,50,69,76,136,82s114,13,174-36S434.67,207.33,406.67,136.33Z" style="fill:#fff;opacity:0.7000000000000001"></path></g><g id="freepik--Wall--inject-10"><path d="M435,210.17H399.67a.5.5,0,0,1-.5-.5V201a.5.5,0,0,1,.5-.5.5.5,0,0,1,.5.5v8.17H435a.5.5,0,0,1,.5.5A.5.5,0,0,1,435,210.17Z" style="fill:#263238"></path><path d="M417,222.17H395a.5.5,0,0,1-.5-.5.5.5,0,0,1,.5-.5h21.5v-9.5a.5.5,0,1,1,1,0v10A.5.5,0,0,1,417,222.17Z" style="fill:#263238"></path><path d="M429,233.5H400.33a.5.5,0,0,1-.5-.5v-8a.5.5,0,0,1,.5-.5.5.5,0,0,1,.5.5v7.5H429a.5.5,0,0,1,0,1Z" style="fill:#263238"></path><path d="M442.33,222.83h-16a.5.5,0,0,1-.5-.5.51.51,0,0,1,.5-.5h16a.5.5,0,0,1,.5.5A.5.5,0,0,1,442.33,222.83Z" style="fill:#263238"></path><path d="M417,248.83a.5.5,0,0,1-.5-.5V237a.5.5,0,0,1,1,0v11.33A.5.5,0,0,1,417,248.83Z" style="fill:#263238"></path><path d="M439,208.83a.5.5,0,0,1-.5-.5v-8.66a.5.5,0,1,1,1,0v8.66A.5.5,0,0,1,439,208.83Z" style="fill:#263238"></path><path d="M418.33,197.5a.5.5,0,0,1-.5-.5v-9.33a.5.5,0,0,1,.5-.5.5.5,0,0,1,.5.5V197A.5.5,0,0,1,418.33,197.5Z" style="fill:#263238"></path><path d="M451,198.83H430.33a.5.5,0,0,1-.5-.5.51.51,0,0,1,.5-.5H451a.5.5,0,0,1,.5.5A.5.5,0,0,1,451,198.83Z" style="fill:#263238"></path><path d="M403,115.5H374.33a.5.5,0,0,1,0-1H403a.5.5,0,0,1,0,1Z" style="fill:#263238"></path><path d="M385,127.5H373a.5.5,0,0,1,0-1h11.5V117a.5.5,0,0,1,1,0v10A.5.5,0,0,1,385,127.5Z" style="fill:#263238"></path><path d="M397,138.83H373a.5.5,0,0,1-.5-.5.5.5,0,0,1,.5-.5h24a.5.5,0,0,1,.5.5A.5.5,0,0,1,397,138.83Z" style="fill:#263238"></path><path d="M410.33,128.17h-16a.51.51,0,0,1-.5-.5.5.5,0,0,1,.5-.5h16a.5.5,0,0,1,.5.5A.5.5,0,0,1,410.33,128.17Z" style="fill:#263238"></path><path d="M385,154.17a.5.5,0,0,1-.5-.5V142.33a.5.5,0,0,1,1,0v11.34A.5.5,0,0,1,385,154.17Z" style="fill:#263238"></path><path d="M407,114.17a.5.5,0,0,1-.5-.5V105a.5.5,0,0,1,1,0v8.67A.5.5,0,0,1,407,114.17Z" style="fill:#263238"></path><path d="M386.33,102.83a.5.5,0,0,1-.5-.5V93a.5.5,0,0,1,.5-.5.5.5,0,0,1,.5.5v9.33A.5.5,0,0,1,386.33,102.83Z" style="fill:#263238"></path><path d="M419,104.17H398.33a.51.51,0,0,1-.5-.5.5.5,0,0,1,.5-.5H419a.5.5,0,0,1,.5.5A.5.5,0,0,1,419,104.17Z" style="fill:#263238"></path><path d="M137.67,297.5H102.33a.5.5,0,0,1-.5-.5v-8.67a.51.51,0,0,1,.5-.5.5.5,0,0,1,.5.5v8.17h34.84a.5.5,0,0,1,0,1Z" style="fill:#263238"></path><path d="M119.67,309.5h-22a.5.5,0,0,1,0-1h21.5V299a.5.5,0,0,1,.5-.5.5.5,0,0,1,.5.5v10A.5.5,0,0,1,119.67,309.5Z" style="fill:#263238"></path><path d="M131.67,320.83H103a.5.5,0,0,1-.5-.5v-8a.5.5,0,0,1,1,0v7.5h28.17a.51.51,0,0,1,.5.5A.5.5,0,0,1,131.67,320.83Z" style="fill:#263238"></path><path d="M145,310.17H129a.5.5,0,0,1-.5-.5.5.5,0,0,1,.5-.5h16a.5.5,0,0,1,.5.5A.5.5,0,0,1,145,310.17Z" style="fill:#263238"></path><path d="M119.67,336.17a.5.5,0,0,1-.5-.5V324.33a.5.5,0,0,1,.5-.5.51.51,0,0,1,.5.5v11.34A.51.51,0,0,1,119.67,336.17Z" style="fill:#263238"></path><path d="M141.67,296.17a.5.5,0,0,1-.5-.5V287a.5.5,0,0,1,.5-.5.5.5,0,0,1,.5.5v8.67A.51.51,0,0,1,141.67,296.17Z" style="fill:#263238"></path><path d="M121,284.83a.5.5,0,0,1-.5-.5V275a.5.5,0,0,1,1,0v9.33A.5.5,0,0,1,121,284.83Z" style="fill:#263238"></path><path d="M147,286.17H133a.5.5,0,0,1-.5-.5.5.5,0,0,1,.5-.5h14a.5.5,0,0,1,.5.5A.5.5,0,0,1,147,286.17Z" style="fill:#263238"></path><path d="M101.67,210.17H66.33a.51.51,0,0,1-.5-.5V201a.5.5,0,0,1,.5-.5.5.5,0,0,1,.5.5v8.17h34.84a.5.5,0,0,1,.5.5A.51.51,0,0,1,101.67,210.17Z" style="fill:#263238"></path><path d="M83.67,222.17h-22a.5.5,0,0,1-.5-.5.5.5,0,0,1,.5-.5h21.5v-9.5a.5.5,0,0,1,.5-.5.5.5,0,0,1,.5.5v10A.51.51,0,0,1,83.67,222.17Z" style="fill:#263238"></path><path d="M95.67,233.5H67a.5.5,0,0,1-.5-.5v-8a.5.5,0,0,1,1,0v7.5H95.67a.5.5,0,1,1,0,1Z" style="fill:#263238"></path><path d="M109,222.83H93a.5.5,0,0,1-.5-.5.5.5,0,0,1,.5-.5h16a.5.5,0,0,1,.5.5A.5.5,0,0,1,109,222.83Z" style="fill:#263238"></path><path d="M83.67,248.83a.5.5,0,0,1-.5-.5V237a.5.5,0,0,1,.5-.5.5.5,0,0,1,.5.5v11.33A.5.5,0,0,1,83.67,248.83Z" style="fill:#263238"></path><path d="M105.67,208.83a.5.5,0,0,1-.5-.5v-8.66a.5.5,0,0,1,.5-.5.5.5,0,0,1,.5.5v8.66A.5.5,0,0,1,105.67,208.83Z" style="fill:#263238"></path><path d="M85,197.5a.5.5,0,0,1-.5-.5v-9.33a.5.5,0,1,1,1,0V197A.5.5,0,0,1,85,197.5Z" style="fill:#263238"></path><path d="M117.67,198.83H97a.5.5,0,0,1-.5-.5.5.5,0,0,1,.5-.5h20.67a.51.51,0,0,1,.5.5A.5.5,0,0,1,117.67,198.83Z" style="fill:#263238"></path><path d="M145.67,147.5H110.33a.5.5,0,0,1-.5-.5v-8.67a.51.51,0,0,1,.5-.5.5.5,0,0,1,.5.5v8.17h34.84a.5.5,0,0,1,0,1Z" style="fill:#263238"></path><path d="M127.67,159.5h-22a.5.5,0,0,1,0-1h21.5V149a.5.5,0,0,1,.5-.5.5.5,0,0,1,.5.5v10A.5.5,0,0,1,127.67,159.5Z" style="fill:#263238"></path><path d="M139.67,170.83H111a.5.5,0,0,1-.5-.5v-8a.5.5,0,0,1,1,0v7.5h28.17a.51.51,0,0,1,.5.5A.5.5,0,0,1,139.67,170.83Z" style="fill:#263238"></path><path d="M146.33,160.17H137a.5.5,0,0,1-.5-.5.5.5,0,0,1,.5-.5h9.33a.5.5,0,0,1,.5.5A.5.5,0,0,1,146.33,160.17Z" style="fill:#263238"></path><path d="M127.67,186.17a.5.5,0,0,1-.5-.5V174.33a.5.5,0,0,1,.5-.5.51.51,0,0,1,.5.5v11.34A.51.51,0,0,1,127.67,186.17Z" style="fill:#263238"></path><path d="M129,134.83a.5.5,0,0,1-.5-.5V125a.5.5,0,0,1,1,0v9.33A.5.5,0,0,1,129,134.83Z" style="fill:#263238"></path><path d="M145,136.17h-4a.5.5,0,0,1-.5-.5.5.5,0,0,1,.5-.5h4a.5.5,0,0,1,.5.5A.5.5,0,0,1,145,136.17Z" style="fill:#263238"></path><path d="M425.67,324.83H390.33a.5.5,0,0,1-.5-.5v-8.66a.5.5,0,0,1,.5-.5.5.5,0,0,1,.5.5v8.16h34.84a.51.51,0,0,1,.5.5A.5.5,0,0,1,425.67,324.83Z" style="fill:#263238"></path><path d="M407.67,336.83h-22a.5.5,0,0,1-.5-.5.5.5,0,0,1,.5-.5h21.5v-9.5a.5.5,0,0,1,.5-.5.51.51,0,0,1,.5.5v10A.5.5,0,0,1,407.67,336.83Z" style="fill:#263238"></path><path d="M419.67,348.17H391a.5.5,0,0,1-.5-.5v-8a.5.5,0,0,1,1,0v7.5h28.17a.5.5,0,0,1,.5.5A.51.51,0,0,1,419.67,348.17Z" style="fill:#263238"></path><path d="M433,337.5H417a.5.5,0,0,1,0-1h16a.5.5,0,0,1,0,1Z" style="fill:#263238"></path><path d="M407.67,363.5a.5.5,0,0,1-.5-.5V351.67a.5.5,0,0,1,.5-.5.5.5,0,0,1,.5.5V363A.5.5,0,0,1,407.67,363.5Z" style="fill:#263238"></path><path d="M429.67,323.5a.5.5,0,0,1-.5-.5v-8.67a.5.5,0,0,1,.5-.5.51.51,0,0,1,.5.5V323A.5.5,0,0,1,429.67,323.5Z" style="fill:#263238"></path><path d="M409,312.17a.5.5,0,0,1-.5-.5v-9.34a.5.5,0,1,1,1,0v9.34A.5.5,0,0,1,409,312.17Z" style="fill:#263238"></path><path d="M441.67,313.5H421a.5.5,0,0,1,0-1h20.67a.5.5,0,1,1,0,1Z" style="fill:#263238"></path><rect x="148.67" y="102" width="219.33" height="282.33" style="fill:#263238"></rect></g><g id="freepik--Character--inject-10"><g style="clip-path:url(#freepik--clip-path-3--inject-10)"><path d="M163.55,238.9s-4.68,2.15-5.07,4.88-6.64,27.14-4.88,28.89,14.05,1.95,14.83,1.56,7.42-24.2,8.79-29.08S173.51,234,163.55,238.9Z" style="fill:#FF725E"></path><path d="M165.58,274.89c-4.11,0-11-.49-12.34-1.86s.28-9.44,3.6-24c.59-2.58,1-4.62,1.14-5.27.42-2.94,5.09-5.13,5.36-5.26,4.89-2.4,9.33-2.42,12.16-.06a6.66,6.66,0,0,1,2.2,6.89l-.19.67c-7.91,28.26-8.48,28.54-8.85,28.73A12.81,12.81,0,0,1,165.58,274.89Zm4.66-37.25a15,15,0,0,0-6.47,1.71h0c-1.23.56-4.5,2.48-4.79,4.49-.1.7-.54,2.65-1.15,5.35-1.36,6-5,21.81-3.87,23.12,1.46,1.46,12.72,1.77,14.19,1.48.43-.77,2.11-5.63,8.41-28.12l.19-.67a5.67,5.67,0,0,0-1.88-5.85A7,7,0,0,0,170.24,237.64Zm-2.15,36.24Zm-4.54-35h0Z" style="fill:#263238"></path><path d="M173.75,317s-7.25,19.25-9.5,31.5-2.25,41-2.25,41h83.25s.75-38.5-1.5-53.25a158,158,0,0,0-5.25-23.75Z" style="fill:#FF725E"></path><path d="M245.25,390H162a.5.5,0,0,1-.5-.5c0-.29,0-28.94,2.26-41.09s9.45-31.39,9.52-31.59a.5.5,0,0,1,.44-.32l64.75-4.5a.49.49,0,0,1,.5.34,160.21,160.21,0,0,1,5.27,23.83c2.24,14.63,1.52,52.95,1.51,53.34A.51.51,0,0,1,245.25,390Zm-82.75-1h82.26c.07-4.53.58-39-1.5-52.67a164.2,164.2,0,0,0-5.12-23.3l-64,4.45c-.93,2.49-7.3,19.88-9.37,31.11S162.52,385.12,162.5,389Z" style="fill:#263238"></path><path d="M231,180.5s1.82-1.3,1.3-7.29-10.16-15.62-18.49-17.71-25.52,3.91-31,14.85-4.94,71.34-4.94,71.34l45.57-2.6s-.26-24.48-.26-31.77S231,180.5,231,180.5Z" style="fill:#263238"></path><path d="M177.9,242.19a.47.47,0,0,1-.34-.13.48.48,0,0,1-.16-.36c0-2.47-.46-60.66,5-71.58C188,158.84,205.53,152.91,214,155c8.26,2.06,18.31,11.73,18.87,18.15.47,5.4-.92,7.19-1.38,7.63-.64,1.61-7.73,19.69-7.73,26.52,0,7.21.25,31.52.26,31.76a.51.51,0,0,1-.48.51l-45.56,2.6ZM210,155.58c-8.75,0-22,5.56-26.74,15-5.08,10.17-4.93,64.63-4.9,70.6L223,238.62c0-3.46-.25-24.65-.25-31.3,0-7.3,7.52-26.2,7.84-27a.52.52,0,0,1,.17-.22s1.58-1.38,1.1-6.85-9.69-15.16-18.11-17.26A15.4,15.4,0,0,0,210,155.58Z" style="fill:#fff"></path><path d="M179.4,227.92a.49.49,0,0,1-.5-.49c0-.86-.26-21.16,1.65-28.51,2-7.7,11.11-14.66,20.67-21s13.51-10.79,13.55-10.83a.49.49,0,0,1,.7-.05.51.51,0,0,1,.05.71c-.16.18-4,4.49-13.74,11-9.4,6.26-18.35,13.07-20.26,20.45-1.88,7.22-1.63,28-1.62,28.25a.5.5,0,0,1-.5.5Z" style="fill:#fff"></path><path d="M180.49,203.36h-.09a.51.51,0,0,1-.41-.58c.07-.41.13-1,.19-1.63.49-4.84,1.5-14.91,11.19-22.42A95,95,0,0,0,202.23,169a.48.48,0,0,1,.7,0,.5.5,0,0,1,0,.71,94.36,94.36,0,0,1-11,9.86c-9.35,7.24-10.33,17-10.8,21.73-.07.69-.13,1.27-.2,1.69A.49.49,0,0,1,180.49,203.36Z" style="fill:#fff"></path><path d="M205,167.06a.51.51,0,0,1-.32-.12.5.5,0,0,1-.07-.7,23.32,23.32,0,0,0,1.62-2.13.51.51,0,0,1,.7-.14.5.5,0,0,1,.14.69s-.54.82-1.68,2.21A.52.52,0,0,1,205,167.06Z" style="fill:#fff"></path><path d="M229,231.5s7.75,1.75,9.5,2.5,3.5,4.75,3.25,6.75-5,35-5.5,40.5,3.75,21.5,4.5,24.5,1.25,6-3.25,8.25-24,3.75-28.25,4.25-31.5,1.75-35.5,1.25-8-38.13-8-49.13-1.63-22.77,2.87-26.27S196,234,203.25,232,229,231.5,229,231.5Z" style="fill:#FF725E"></path><path d="M177.28,320.11c-1.68,0-2.94,0-3.59-.11-4.67-.59-8.48-40.11-8.48-49.63,0-2.35-.07-4.76-.15-7.08-.28-9-.52-16.68,3.22-19.58,5-3.89,31.8-11.35,34.84-12.19,7.25-2,25.16-.58,25.92-.52h.07c.32.07,7.82,1.77,9.59,2.53,2,.86,3.82,5.07,3.55,7.27-.07.51-.42,3-.93,6.6-1.47,10.41-4.2,29.8-4.57,33.88-.45,5,3.08,18.81,4.23,23.35l.25,1c.83,3.31,1.19,6.47-3.51,8.82-3.77,1.88-17.47,3.22-24.84,3.93-1.56.16-2.81.28-3.57.37C205.72,319.17,186,320.11,177.28,320.11Zm38.14-88.65c-4.56,0-9.2.24-12,1-3,.84-29.65,8.25-34.49,12-3.33,2.59-3.09,10.44-2.83,18.76.08,2.33.15,4.74.15,7.11,0,12.76,4.31,48.22,7.6,48.63,4,.5,31.12-.75,35.38-1.25.77-.09,2-.21,3.6-.36,6.77-.66,20.88-2,24.49-3.84,4-2,3.76-4.56,3-7.68l-.25-1c-1.17-4.59-4.73-18.55-4.27-23.68.38-4.12,3.11-23.52,4.58-33.94.51-3.56.86-6.07.92-6.58.22-1.75-1.42-5.58-2.95-6.23s-8.81-2.34-9.38-2.46S222,231.46,215.42,231.46Z" style="fill:#263238"></path><path d="M236.5,315.5s1.5,15,2.5,27.5-2.75,32.5-1.25,32.25,9.75,2.24,10.25-4-.5-44-2.75-48a103.64,103.64,0,0,1-5-11.5S237,310.5,236.5,315.5Z" style="fill:#FF725E"></path><path d="M242.19,376a28.31,28.31,0,0,1-2.86-.19,8.76,8.76,0,0,0-1.5-.1.66.66,0,0,1-.56-.17c-.59-.55-.48-2.47.23-9.78.66-6.72,1.55-15.91,1-22.75-1-12.35-2.48-27.34-2.5-27.49v-.1c.2-2,.83-3.28,1.87-3.92a3.1,3.1,0,0,1,2.56-.25.51.51,0,0,1,.29.3,103.18,103.18,0,0,0,5,11.42c2.36,4.2,3.26,42.66,2.81,48.28a4.79,4.79,0,0,1-1.63,3.45A7.34,7.34,0,0,1,242.19,376Zm-4.16-1.3c.36,0,.82,0,1.4.11,1.9.21,5.08.55,6.8-.88a3.76,3.76,0,0,0,1.27-2.76c.53-6.57-.58-44-2.69-47.7a100.67,100.67,0,0,1-4.94-11.34,2.06,2.06,0,0,0-1.48.23c-.74.46-1.22,1.54-1.39,3.11.1,1,1.54,15.46,2.5,27.46.55,6.93-.35,16.17-1,22.92-.38,3.88-.77,7.88-.56,8.85Z" style="fill:#263238"></path><path d="M240.75,305.75s-11,6-13.5,8.25-2.5,2.25,1.5,2.25,11.25.5,13.75-3.5S243.75,302.75,240.75,305.75Z" style="fill:#FF725E"></path><path d="M231.47,316.77h-2.72c-2.63,0-3.43,0-3.67-.64s.33-1.12,1.84-2.48c2.44-2.2,12.55-7.75,13.53-8.29,1.41-1.37,2.41-.84,2.78-.55,1.46,1.16,1.6,5.18-.31,8.22C240.79,316.43,235.56,316.77,231.47,316.77Zm-5.28-1.08c.48.06,1.46.06,2.56.06H230c4,.05,10,.11,12.11-3.27,1.66-2.66,1.51-6.14.53-6.92-.45-.36-1.07.1-1.51.53a.31.31,0,0,1-.11.09c-.11.06-11,6-13.41,8.18C227,314.89,226.46,315.38,226.19,315.69Zm14.56-9.94h0Z" style="fill:#263238"></path><path d="M233.75,310.25s-9.75-4.75-13.25-4,0,77.5,0,77.5h14.75s-9.75-58-9.75-62.25S233.75,310.25,233.75,310.25Z" style="fill:#FF725E"></path><path d="M235.25,384.25H220.5a.5.5,0,0,1-.5-.48c0-.19-.88-19.41-1.31-38.48-.89-39,.86-39.35,1.71-39.53,3.63-.76,13.16,3.84,13.57,4a.49.49,0,0,1,.1.83c-.08.07-8.07,6.9-8.07,10.87,0,4.16,9.65,61.59,9.74,62.17a.46.46,0,0,1-.11.4A.46.46,0,0,1,235.25,384.25Zm-14.27-1h13.68c-1.08-6.43-9.66-57.69-9.66-61.75,0-3.79,5.93-9.41,7.85-11.12-2.26-1.05-9.47-4.25-12.25-3.64C218.46,308.72,219.68,354.51,221,383.25Z" style="fill:#263238"></path><path d="M202,209.62s.58,15.42.19,17.18S188.73,234,188.73,234l21.48,32.6L219,229.14s-4.88-1-5.07-2.54,1.17-8,1.17-8Z" style="fill:#fff"></path><path d="M210.21,267.12a.5.5,0,0,1-.42-.22l-21.47-32.6a.45.45,0,0,1-.06-.42.47.47,0,0,1,.28-.32c6.1-2.55,12.87-5.9,13.18-6.87.3-1.39-.05-12.78-.21-17.05a.5.5,0,0,1,.78-.43l13.08,9a.49.49,0,0,1,.21.51c-.38,1.77-1.32,6.63-1.17,7.84.09.72,2.49,1.67,4.68,2.11a.51.51,0,0,1,.39.61l-8.79,37.48a.48.48,0,0,1-.4.37Zm-20.73-32.87L210,265.38l8.41-35.86c-1.57-.35-4.77-1.27-5-2.85s.81-6.42,1.11-7.85l-12-8.22c.13,3.62.5,14.74.15,16.31C202.3,228.67,193.11,232.72,189.48,234.25Z" style="fill:#263238"></path><path d="M200.29,233.87a.53.53,0,0,1-.27-.08.5.5,0,0,1-.14-.7c1.48-2.22,1.82-6.29,1.82-6.33a.52.52,0,0,1,.54-.46.5.5,0,0,1,.46.54c0,.18-.36,4.37-2,6.81A.52.52,0,0,1,200.29,233.87Z" style="fill:#263238"></path><path d="M208.17,242.54l-.13,0-12.2-3.15a.5.5,0,1,1,.25-1l12.2,3.15a.5.5,0,0,1-.12,1Z" style="fill:#263238"></path><path d="M214.33,162.23s5.9,6.55,4.26,8.85-21,9.83-21,13.1,1,7.21-1,7.87-4.59-.33-5.57-1-3.61,3.27-3.28,8.19,5.9,7.21,8.19,7.21h3.28a35.8,35.8,0,0,0,3.6,8.85c2.3,3.6,18.36,8.19,20,6.88s7.87-13.11,9.18-18.68-2-14.42-1.64-17,1.64-3.93,1.31-7.21-10.16-8.52-10.16-8.52S215.64,160.92,214.33,162.23Z" style="fill:#fff"></path><path d="M221.69,222.93a14.58,14.58,0,0,1-2.3-.24c-4.72-.78-15-4-16.95-7.11a34.9,34.9,0,0,1-3.57-8.61H196c-2.33,0-8.33-2.28-8.69-7.68-.28-4.13,1.5-7.8,2.9-8.61a1,1,0,0,1,1.15,0c.92.61,3.37,1.51,5.14.93,1.09-.37.94-2.51.77-4.77-.06-.87-.13-1.77-.13-2.63,0-2.11,5.2-4.88,13.13-8.87,3.61-1.82,7.35-3.71,7.94-4.52,1-1.44-2.05-5.81-4.23-8.23a.5.5,0,0,1,0-.69.91.91,0,0,1,.78-.25c1.86.22,5.84,6.6,7.14,8.75,1.48.8,10,5.52,10.3,8.85a10.49,10.49,0,0,1-.67,4.8,12.55,12.55,0,0,0-.64,2.52,21.07,21.07,0,0,0,.7,4.87c.79,3.84,1.77,8.62.93,12.22-1.33,5.62-7.61,17.56-9.35,19A2.28,2.28,0,0,1,221.69,222.93Zm-30.9-31.45a1.58,1.58,0,0,0-.48.39,10.72,10.72,0,0,0-2,7.36C188.6,203.9,194,206,196,206h3.28a.48.48,0,0,1,.48.38,35.54,35.54,0,0,0,3.55,8.7c1.58,2.49,10.69,5.69,16.05,6.62,2.72.48,3.2.14,3.2.14,1.46-1.17,7.67-12.75,9-18.41.8-3.38-.16-8-.93-11.79a20.36,20.36,0,0,1-.71-5.19,13.4,13.4,0,0,1,.68-2.71,9.35,9.35,0,0,0,.62-4.39c-.24-2.47-7.22-6.71-9.89-8.13a.58.58,0,0,1-.2-.18c-1.13-1.9-2.31-3.67-3.35-5.09,1.23,2,2.15,4.17,1.24,5.45-.69,1-3.61,2.47-8.3,4.83-5,2.52-12.58,6.33-12.58,8,0,.83.07,1.7.13,2.55.19,2.67.38,5.18-1.45,5.79C194.58,193.26,191.74,192.12,190.79,191.48Z" style="fill:#263238"></path><path d="M223.87,194.5a.5.5,0,0,1-.43-.24c-3.47-5.79-.09-9.33.35-9.76.79-1,2.79-2.6,4.88-1.41a.51.51,0,0,1,.19.69.49.49,0,0,1-.68.18c-1.89-1.07-3.6,1.16-3.62,1.18l-.07.08c-.14.12-3.43,3.12-.19,8.53a.5.5,0,0,1-.17.68A.48.48,0,0,1,223.87,194.5Z" style="fill:#263238"></path><path d="M206.47,188.62a.5.5,0,0,1-.24-.06.51.51,0,0,1-.2-.68c2.12-3.89,8.77-2.6,9.06-2.55a.51.51,0,0,1,.39.59.5.5,0,0,1-.59.39c-.06,0-6.22-1.19-8,2.05A.51.51,0,0,1,206.47,188.62Z" style="fill:#263238"></path><path d="M214.66,193.86a.49.49,0,0,1-.48-.36l-.66-2.3a.5.5,0,0,1,1-.27l.65,2.29a.5.5,0,0,1-.34.62Z" style="fill:#263238"></path><path d="M210.86,194.55c-.66,0-1.1,0-1.16,0a.49.49,0,0,1-.45-.54.5.5,0,0,1,.54-.45s3.8.29,5.93-.92a.51.51,0,0,1,.69.18.52.52,0,0,1-.19.69A11.66,11.66,0,0,1,210.86,194.55Z" style="fill:#263238"></path><path d="M228.72,191.91a.51.51,0,0,1-.49-.36l-.65-2.3a.5.5,0,1,1,1-.27l.66,2.29a.51.51,0,0,1-.35.62Z" style="fill:#263238"></path><path d="M224.92,192.6c-.66,0-1.11,0-1.16,0a.5.5,0,1,1,.08-1s3.81.29,5.94-.92a.49.49,0,1,1,.49.86A11.61,11.61,0,0,1,224.92,192.6Z" style="fill:#263238"></path><path d="M193.62,201.92a.51.51,0,0,1-.39-.19c-.46-.57-.57-1.08-.32-1.51.42-.71,1.81-.76,3-.67-.87-1.14-2.53-3-4.29-3-.41,0-.93.07-1.11.38s.1,1.37.31,1.75a.5.5,0,0,1-.87.49c-.09-.17-.92-1.67-.3-2.74a2.09,2.09,0,0,1,2-.88c3.12,0,5.66,4.17,5.76,4.35a.5.5,0,0,1,0,.54.51.51,0,0,1-.5.21c-1.35-.22-2.83-.2-3,0a1.54,1.54,0,0,0,.23.37.5.5,0,0,1-.39.82Z" style="fill:#263238"></path><path d="M233.83,267.6S241.24,252.76,244,250s9.56,1.36,10.15,2.93-6.44,15.81-9.37,20.49-4.87,2.58-6.83.39A37.94,37.94,0,0,1,233.83,267.6Z" style="fill:#FF725E"></path><path d="M241.37,276.76c-1.49,0-2.67-1.31-3.82-2.58a38.41,38.41,0,0,1-4.17-6.35.53.53,0,0,1,0-.46c.3-.61,7.48-14.94,10.24-17.7,1-1,2.54-1.29,4.46-.88,2.89.63,6,2.75,6.52,4,.72,1.94-6.93,17-9.42,20.94-1.21,1.94-2.38,2.93-3.59,3Zm-7-9.17a35.87,35.87,0,0,0,3.91,5.92c1,1.15,2.1,2.32,3.2,2.25.86-.08,1.82-.94,2.83-2.57,3.35-5.36,9.68-18.66,9.33-20.07-.29-.76-3.09-2.77-5.79-3.35a3.87,3.87,0,0,0-3.54.61C241.87,252.84,235.34,265.7,234.39,267.59Z" style="fill:#263238"></path><g style="clip-path:url(#freepik--clip-path-4--inject-10)"><path d="M233.83,267.6S241.24,252.76,244,250s9.56,1.36,10.15,2.93-6.44,15.81-9.37,20.49-4.87,2.58-6.83.39A37.94,37.94,0,0,1,233.83,267.6Z" style="opacity:0.30000000000000004"></path></g><path d="M237.54,208.64s6.83-4.29,8.58-4.29,5.67,14.84,5.47,16.2-8,15.81-8,15.81,10.15,16.79,10.54,18.35-7.42,14.45-8.4,14.45-6.44-29.67-7-32.6a47.15,47.15,0,0,1-1.17-10.74c.19-3.32.78-11.71.78-11.71S236.17,208.84,237.54,208.64Z" style="fill:#fff"></path><path d="M245.73,269.66c-.69,0-1.24,0-7-30.14-.26-1.42-.46-2.43-.54-2.86A44.76,44.76,0,0,1,237,225.79c.18-3.09.7-10.58.77-11.6-.46-1.15-1.68-4.44-1-5.57a1,1,0,0,1,.57-.45c1-.62,7-4.32,8.78-4.32a1.21,1.21,0,0,1,.9.5c2,2.3,5.27,14.84,5.06,16.27s-6.35,12.82-7.92,15.73c1.56,2.58,10.07,16.71,10.45,18.24.43,1.72-5.57,11.44-7.48,13.9C246.36,269.47,246.05,269.66,245.73,269.66Zm-.13-1Zm-8-59.56c-.25.42.29,2.67,1.15,4.79a.45.45,0,0,1,0,.23s-.58,8.39-.78,11.7a44.84,44.84,0,0,0,1.17,10.61c.08.43.28,1.45.55,2.87,3.29,17.33,5.35,27.11,6.13,29.13,1.84-1.83,7.93-12.4,7.76-13.63s-6.42-11.49-10.48-18.21a.48.48,0,0,1,0-.49c3-5.56,7.81-14.72,7.94-15.65.19-1.36-3.52-15-5-15.64-1.13,0-5.68,2.6-8.28,4.23A.49.49,0,0,1,237.63,209.13Zm-.09-.49Z" style="fill:#263238"></path><path d="M245.15,223.79a11.59,11.59,0,0,1-4.09-.43c-1.16-.46-1.58-3.12-1.68-3.92a.49.49,0,0,1,.32-.52l9-3.52a.5.5,0,0,1,.65.29.49.49,0,0,1-.28.64l-8.61,3.37c.2,1.25.63,2.58,1,2.73a11,11,0,0,0,3.72.36c1,0,1.06-1,1.06-1.26a.46.46,0,0,1,.5-.5.5.5,0,0,1,.5.5A2.11,2.11,0,0,1,245.15,223.79Z" style="fill:#263238"></path><path d="M244.17,222.42a.48.48,0,0,1-.46-.32.5.5,0,0,1,.28-.65l4.49-1.75a.49.49,0,0,1,.65.28.5.5,0,0,1-.29.65l-4.49,1.75A.39.39,0,0,1,244.17,222.42Z" style="fill:#263238"></path><path d="M239.4,216.94a.48.48,0,0,1-.45-.28.5.5,0,0,1,.24-.67l9.65-4.48a.5.5,0,0,1,.67.24.52.52,0,0,1-.25.67l-9.65,4.48A.49.49,0,0,1,239.4,216.94Z" style="fill:#263238"></path><path d="M237.73,212.85a.48.48,0,0,1-.45-.28.5.5,0,0,1,.24-.67l9.95-4.68a.5.5,0,0,1,.67.24.49.49,0,0,1-.24.66l-10,4.69A.52.52,0,0,1,237.73,212.85Z" style="fill:#263238"></path><path d="M215.15,214l9.76,11.85a9.24,9.24,0,0,0,11.5,2.28h0a9.24,9.24,0,0,0,4.28-11.44l-5.09-13.38A11,11,0,0,0,219.85,197l-1.16.63A11,11,0,0,0,215.15,214Z" style="fill:#fff"></path><path d="M232.06,229.69a9.76,9.76,0,0,1-7.54-3.55l-9.76-11.85v0a11.53,11.53,0,0,1,3.7-17.05l1.16-.63a11.53,11.53,0,0,1,16.47,6.54l5.08,13.35a9.77,9.77,0,0,1-4.51,12.06A9.64,9.64,0,0,1,232.06,229.69Zm-16.52-16,9.75,11.85a8.76,8.76,0,0,0,14.94-8.68l-5.09-13.37a10.53,10.53,0,0,0-15.06-6l-1.15.64a10.52,10.52,0,0,0-3.39,15.56Z" style="fill:#263238"></path><path d="M239.4,216.44c2.26,3.23,1,8-2.76,10.63s-8.67,2.18-10.93-1-1-8,2.76-10.63S237.15,213.22,239.4,216.44Z" style="fill:#fff"></path><path d="M231.39,229.29a7.56,7.56,0,0,1-.83,0,6.92,6.92,0,0,1-6.22-8.88,9.93,9.93,0,0,1,10.22-7.15,7.07,7.07,0,0,1,5.25,2.94c2.41,3.44,1.12,8.52-2.88,11.32A9.69,9.69,0,0,1,231.39,229.29Zm2.34-15.11a8.7,8.7,0,0,0-5,1.63,8.58,8.58,0,0,0-3.45,4.81,5.91,5.91,0,0,0,5.34,7.63,8.59,8.59,0,0,0,5.71-1.59c3.54-2.48,4.73-6.94,2.63-9.93h0a6.06,6.06,0,0,0-4.53-2.51A6,6,0,0,0,233.73,214.18Z" style="fill:#263238"></path><path d="M220,315s-3.32-15.61-5.08-23-2.93-11.13-4.29-12.69-7.42,1.56-8.4,6.83S216.65,313.47,220,315Z" style="fill:#FF725E"></path><path d="M220,315.53a.42.42,0,0,1-.22,0c-3.62-1.7-19-24.14-18-29.43a10.21,10.21,0,0,1,6.69-7.48A2.43,2.43,0,0,1,211,279c1.37,1.56,2.52,4.94,4.41,12.9,1.74,7.34,5,22.89,5.08,23.05a.49.49,0,0,1-.18.49A.45.45,0,0,1,220,315.53Zm-10.46-36.12a3.53,3.53,0,0,0-.85.12,9.16,9.16,0,0,0-6,6.7c-.83,4.49,11.9,23.49,16.52,27.64-.83-3.87-3.36-15.66-4.81-21.76-1.82-7.69-3-11.07-4.18-12.47A.92.92,0,0,0,209.51,279.41Z" style="fill:#263238"></path><g style="clip-path:url(#freepik--clip-path-5--inject-10)"><path d="M220,315s-3.32-15.61-5.08-23-2.93-11.13-4.29-12.69-7.42,1.56-8.4,6.83S216.65,313.47,220,315Z" style="opacity:0.30000000000000004"></path></g><path d="M167.07,242.81c2.14.58,44.5,37.08,45.87,35.13s18.15-44.7,18.93-46.46-8.39-3.12-11.32-3.31-2.54.39-2.54.39l-8.58,34.94-20.7-34.75a6.54,6.54,0,0,0-4.68-.39c-2.54.78-23.43,12.1-23.43,12.1" style="fill:#FF725E"></path><path d="M212.79,278.52c-1.93,0-11.07-7.2-30.52-23.1-7.13-5.82-14.5-11.84-15.34-12.13a.51.51,0,0,1-.33-.63.49.49,0,0,1,.6-.34c.84.23,5.2,3.75,15.7,12.33,10.92,8.92,27.31,22.32,29.72,22.85,1.36-2.45,10.35-25.05,15.24-37.35,1.94-4.86,3.34-8.38,3.56-8.87-.14-.91-6.62-2.33-10.9-2.62a7.43,7.43,0,0,0-2,.05l-8.58,34.91a.5.5,0,0,1-.41.37.48.48,0,0,1-.5-.24l-20.62-34.62a6.16,6.16,0,0,0-4.18-.29c-2.47.76-23.13,11.95-23.34,12.06a.51.51,0,0,1-.68-.2.5.5,0,0,1,.21-.68c.85-.46,21-11.35,23.51-12.14a7,7,0,0,1,5.07.43.44.44,0,0,1,.19.19l20.07,33.69,8.27-33.64a.67.67,0,0,1,.08-.38c.21-.35.71-.66,3-.5,1.59.1,10.5,1.12,11.67,3.05a1,1,0,0,1,.07,1c-.21.46-1.6,4-3.54,8.83-7,17.54-14.49,36.35-15.44,37.71a.72.72,0,0,1-.48.28Z" style="fill:#263238"></path><path d="M253.93,252.18l-12.1,22.44s-7-4.29-8-7c0,0,4.1,19.13,7.22,25.57s5.07,11.13,8.2,12.69,10.73,2.93,13.27.58,11.91-17.76,12.1-21.86S253.93,252.18,253.93,252.18Z" style="fill:#FF725E"></path><path d="M257.84,308.19A22.3,22.3,0,0,1,249,306.3c-2.93-1.46-4.82-5.4-7.43-10.85l-1-2.06c-3.11-6.43-7.09-24.9-7.26-25.69a.49.49,0,0,1,.35-.58.49.49,0,0,1,.61.31c.7,2,5.18,5.11,7.34,6.49l11.85-22a.5.5,0,0,1,.41-.26.47.47,0,0,1,.43.2c2.15,2.91,21,28.57,20.79,32.72s-9.76,19.91-12.26,22.21C261.78,307.81,259.91,308.19,257.84,308.19Zm-23-38.29c1.21,5.35,4.25,18.09,6.65,23.05l1,2.07c2.53,5.27,4.35,9.08,7,10.39,3,1.49,10.4,2.8,12.71.67s11.76-17.55,11.95-21.52c.13-2.83-11.79-20.11-20.13-31.45l-11.73,21.75a.55.55,0,0,1-.31.25.54.54,0,0,1-.39-.06A40,40,0,0,1,234.85,269.9Z" style="fill:#263238"></path><path d="M222.71,241.15l-2.11,29.61a2.76,2.76,0,0,0,3.19,2.91l12.17-2a2.75,2.75,0,0,0,2.3-2.54l1.79-28.43a3.09,3.09,0,0,0-3.32-3.27l-11.19.88A3.08,3.08,0,0,0,222.71,241.15Z" style="fill:#263238"></path><path d="M223.34,274.2a3.23,3.23,0,0,1-3.23-3.48l2.1-29.6a3.56,3.56,0,0,1,3.29-3.32l11.19-.88a3.58,3.58,0,0,1,3.85,3.8l-1.78,28.43a3.26,3.26,0,0,1-2.72,3l-12.16,2A3.27,3.27,0,0,1,223.34,274.2ZM237,237.91h-.2l-11.19.88a2.56,2.56,0,0,0-2.37,2.39h0l-2.11,29.6a2.24,2.24,0,0,0,2.61,2.38l12.17-2a2.25,2.25,0,0,0,1.88-2.08l1.79-28.44a2.63,2.63,0,0,0-.77-2A2.59,2.59,0,0,0,237,237.91Zm-14.26,3.24h0Z" style="fill:#263238"></path><path d="M202.79,278.33s5.27-2.73,7.42-6.24,7.41-16,8-17.18,18.93-3.71,20.69-2.73-.78,2.73-.78,2.73-13.08,2-14.05,2.54-2.93,4.1-2.93,4.1,8-2.15,10.73-2.35,8.4-.78,8.59.2-1.36,2-3.51,2.73-6.25,1-10,2.15a19,19,0,0,0-5.85,2.93s9.17-2.15,12.88-2.35,7.42-.58,6.64.78-5.66,1.37-8.79,2.54-9.56,3.32-9.56,3.32,15-3.12,13.86-1.76-5.08,2.15-7.81,2.74-5.66,1.75-6.64,3.12-3.32,5.47-5.66,7.22-6.05,1.95-6.63,1.95-4.88,2.74-4.88,2.74Z" style="fill:#fff"></path><path d="M204.55,288a.65.65,0,0,1-.2,0,.56.56,0,0,1-.3-.37l-1.75-9.17a.5.5,0,0,1,.26-.54c.05,0,5.17-2.71,7.22-6.06,1.58-2.59,4.93-10.23,6.73-14.33.66-1.51,1.1-2.5,1.25-2.82s.41-.47,1.39-.77c3.58-1.11,18.17-3.19,20-2.17A1.47,1.47,0,0,1,240,253c.06,1.13-1.34,2.16-1.61,2.35a.58.58,0,0,1-.22.08c-5,.75-13.14,2.07-13.87,2.48a11.57,11.57,0,0,0-2.14,2.88,81.24,81.24,0,0,1,9.66-2.06l1.13-.08c5.45-.43,7.76-.43,8,.68s-1,2.29-3.83,3.3a24.76,24.76,0,0,1-4.13.89,44.57,44.57,0,0,0-5.85,1.26,22.88,22.88,0,0,0-3.22,1.32,82.25,82.25,0,0,1,10.08-1.7l1.27-.08c3.5-.2,5.35-.27,5.86.57a.94.94,0,0,1,0,1c-.57,1-2.42,1.33-4.75,1.75a25.71,25.71,0,0,0-4.29,1c-.77.29-1.75.64-2.78,1,6.89-1.18,7.22-.62,7.38-.35a.65.65,0,0,1-.1.77c-1.23,1.43-4.83,2.2-7.72,2.82l-.37.08c-3,.64-5.54,1.81-6.33,2.92-.2.29-.47.69-.78,1.18-1.22,1.88-3.07,4.72-5,6.15-2.66,2-6.89,2.06-6.93,2.06a38,38,0,0,0-4.62,2.65A.5.5,0,0,1,204.55,288Zm-1.2-9.41,1.55,8.09c1.88-1.18,4-2.41,4.53-2.41,0,0,3.93-.06,6.33-1.86,1.78-1.33,3.57-4.08,4.75-5.9.32-.5.6-.92.81-1.21,1.14-1.6,4.33-2.76,6.94-3.32l.36-.08c2.11-.45,5.14-1.1,6.6-2a111.82,111.82,0,0,0-12.81,2.1.49.49,0,0,1-.58-.36.49.49,0,0,1,.32-.6c.07,0,6.47-2.16,9.55-3.32a26,26,0,0,1,4.46-1c1.75-.31,3.72-.67,4.06-1.26-.3-.38-3.06-.22-4.89-.11l-1.28.07c-3.62.19-12.71,2.31-12.8,2.33a.49.49,0,0,1-.56-.26.51.51,0,0,1,.13-.61,19.62,19.62,0,0,1,6-3,44.52,44.52,0,0,1,6-1.29,25.28,25.28,0,0,0,3.95-.85c2.22-.81,3.19-1.62,3.2-2.09-.73-.44-5.06-.1-6.93,0l-1.14.09c-2.65.19-10.56,2.31-10.64,2.33a.51.51,0,0,1-.53-.18.5.5,0,0,1,0-.55c.34-.6,2.07-3.66,3.11-4.28s11.66-2.22,14.12-2.59c.48-.36,1.11-1,1.09-1.41,0-.05,0-.21-.36-.41-1.48-.82-18.72,1.4-20,2.59-.1.22-.58,1.31-1.18,2.7-1.81,4.13-5.18,11.81-6.8,14.45C208.73,275.46,204.56,277.93,203.35,278.6Z" style="fill:#263238"></path><path d="M167.76,245.74s-5,2.53-5.18,6.44-.39,43.72-2,51.92-2.14,12.49,0,15,16.6,20.11,24.4,21.47S220,315,220,315s-9-14.25-11.52-20.89-5.08-16.59-5.08-16.59-6.44,2.34-8.19,3.13-6.25-9-6.64-12.69-.39-6.25-.39-6.25" style="fill:#FF725E"></path><path d="M185.6,341.15a4.65,4.65,0,0,1-.66,0c-5-.88-13.41-8.21-24.33-21.21l-.37-.44c-2.25-2.66-1.76-6.75-.11-15.44,1.19-6.24,1.58-30.85,1.79-44.08.06-4,.11-6.86.16-7.78.2-4.15,5.24-6.74,5.46-6.85a.49.49,0,0,1,.67.22.51.51,0,0,1-.22.67c-.05,0-4.74,2.45-4.91,6-.05.91-.1,3.78-.16,7.75-.21,13.25-.6,37.92-1.8,44.24-1.56,8.19-2.08,12.29-.11,14.62l.36.43c10.62,12.64,19,20.05,23.74,20.87a3.45,3.45,0,0,0,.57.05c7.7,0,30.81-22.42,33.65-25.2-1.41-2.26-9-14.52-11.35-20.64-2.18-5.71-4.39-13.95-4.95-16.11-1.56.57-6.22,2.29-7.65,2.92a1.15,1.15,0,0,1-1.11-.12c-2.28-1.31-5.89-9.76-6.23-13-.39-3.69-.39-6.27-.39-6.3a.5.5,0,0,1,.5-.5.5.5,0,0,1,.5.5s0,2.56.39,6.19c.33,3.19,3.87,11.14,5.73,12.22.13.07.2.08.2.07,1.76-.78,8-3,8.23-3.14a.49.49,0,0,1,.41,0,.54.54,0,0,1,.25.32c0,.1,2.56,10,5.06,16.54s11.38,20.65,11.47,20.8a.5.5,0,0,1-.07.62C219.23,316.47,194.27,341.15,185.6,341.15Z" style="fill:#263238"></path><path d="M167.34,313.35a.86.86,0,0,1-.24,0,.79.79,0,0,1-.47-.72c-.19-1.6,1.93-7.11,5.42-9.49a.51.51,0,0,1,.7.13.5.5,0,0,1-.13.7c-3,2-4.76,6.43-5,8.06,1.71-1.8,6.25-7.77,8.6-10.92,4.83-7.74,17.69-20.24,17.82-20.36a.5.5,0,0,1,.69.72c-.13.12-12.89,12.54-17.69,20.2-.32.44-7.49,10.05-9.07,11.44A1,1,0,0,1,167.34,313.35Z" style="fill:#263238"></path><path d="M170.78,294.64a.5.5,0,0,1-.46-.29.5.5,0,0,1,.25-.66A50.29,50.29,0,0,1,185,289.94a.5.5,0,0,1,.54.46.49.49,0,0,1-.45.53A49.46,49.46,0,0,0,171,294.6.51.51,0,0,1,170.78,294.64Z" style="fill:#263238"></path></g></g><g id="freepik--Window--inject-10"><g style="opacity:0.5"><polygon points="369.67 258.5 369.67 240.16 199.32 378.95 203.7 384.33 215.21 384.33 369.67 258.5" style="fill:#fff"></polygon><polygon points="256.52 102 234.02 102 147 172.9 147 191.23 256.52 102" style="fill:#fff"></polygon><polygon points="147 126.81 147 162.34 221.06 102 177.46 102 147 126.81" style="fill:#fff"></polygon><polygon points="369.67 352.46 369.67 275.45 236.02 384.33 330.55 384.33 369.67 352.46" style="fill:#fff"></polygon></g><path d="M369.56,100H149a2,2,0,0,0-2,2V372a2,2,0,0,0,2,2H369.56a2,2,0,0,0,2-2V102A2,2,0,0,0,369.56,100Zm-2,210.35H266V104H367.56ZM258.33,104V310.35H151V104ZM151,314.35H258.33V370H151ZM266,370V314.35H367.56V370Z" style="fill:#fff"></path><rect x="131.2" y="383.52" width="261.13" height="27.97" style="fill:#263238"></rect><rect x="131.2" y="373.96" width="261.13" height="27.97" style="fill:#FF725E"></rect><path d="M392.33,402.43H131.21a.5.5,0,0,1-.5-.5V374a.5.5,0,0,1,.5-.5H392.33a.5.5,0,0,1,.5.5v28A.5.5,0,0,1,392.33,402.43Zm-260.62-1H391.83v-27H131.71Z" style="fill:#263238"></path><path d="M145.59,379.34H131.31a.5.5,0,0,1,0-1h14.28a.5.5,0,0,1,0,1Z" style="fill:#263238"></path><path d="M150.9,383H135.3a.5.5,0,0,1-.5-.5.5.5,0,0,1,.5-.5h15.6a.5.5,0,0,1,.5.5A.5.5,0,0,1,150.9,383Z" style="fill:#263238"></path><path d="M153.56,395.61H137a.5.5,0,0,1,0-1h16.6a.5.5,0,1,1,0,1Z" style="fill:#263238"></path><path d="M156.88,393H135.63a.5.5,0,0,1-.5-.5.5.5,0,0,1,.5-.5h21.25a.51.51,0,0,1,.5.5A.5.5,0,0,1,156.88,393Z" style="fill:#263238"></path><path d="M144.26,398.27h-7a.5.5,0,0,1-.5-.5.5.5,0,0,1,.5-.5h7a.5.5,0,0,1,.5.5A.5.5,0,0,1,144.26,398.27Z" style="fill:#263238"></path><path d="M154.22,388.31H142.6a.51.51,0,0,1-.5-.5.5.5,0,0,1,.5-.5h11.62a.5.5,0,0,1,.5.5A.5.5,0,0,1,154.22,388.31Z" style="fill:#263238"></path><path d="M144.26,385.32H139a.5.5,0,0,1-.5-.5.5.5,0,0,1,.5-.5h5.31a.5.5,0,0,1,.5.5A.5.5,0,0,1,144.26,385.32Z" style="fill:#263238"></path><path d="M156.88,378.34h-5a.5.5,0,0,1-.5-.5.5.5,0,0,1,.5-.5h5a.51.51,0,0,1,.5.5A.5.5,0,0,1,156.88,378.34Z" style="fill:#263238"></path><rect x="157.67" y="373.96" width="234.67" height="27.97" style="fill:#FF725E"></rect><path d="M392.33,402.43H157.67a.5.5,0,0,1-.5-.5V374a.5.5,0,0,1,.5-.5H392.33a.5.5,0,0,1,.5.5v28A.5.5,0,0,1,392.33,402.43Zm-234.16-1H391.83v-27H158.17Z" style="fill:#263238"></path><path d="M171.41,382.77h-13a.5.5,0,0,1-.5-.5.51.51,0,0,1,.5-.5h13a.51.51,0,0,1,.5.5A.5.5,0,0,1,171.41,382.77Z" style="fill:#263238"></path><path d="M167.42,386.76h-9.78a.5.5,0,0,1-.5-.5.5.5,0,0,1,.5-.5h9.78a.5.5,0,0,1,.5.5A.5.5,0,0,1,167.42,386.76Z" style="fill:#263238"></path><path d="M391.73,389.66h-25a.5.5,0,0,1-.5-.5.5.5,0,0,1,.5-.5h25a.5.5,0,0,1,.5.5A.5.5,0,0,1,391.73,389.66Z" style="fill:#263238"></path><path d="M372.16,392.56h-6.52a.5.5,0,0,1-.5-.5.5.5,0,0,1,.5-.5h6.52a.5.5,0,0,1,.5.5A.5.5,0,0,1,372.16,392.56Z" style="fill:#263238"></path><path d="M225,398.72h-39.5a.5.5,0,0,1-.5-.5.5.5,0,0,1,.5-.5H225a.5.5,0,0,1,.5.5A.51.51,0,0,1,225,398.72Z" style="fill:#263238"></path><path d="M191.34,394.37H181.19a.51.51,0,0,1-.5-.5.5.5,0,0,1,.5-.5h10.15a.5.5,0,0,1,.5.5A.51.51,0,0,1,191.34,394.37Z" style="fill:#263238"></path></g><g id="freepik--Plant--inject-10"><path d="M334.32,336.43a.49.49,0,0,1-.49-.45c0-.16-1.94-16.82-13.07-29.27C309.43,294,306.13,276.17,306.09,276a.5.5,0,0,1,.41-.58.51.51,0,0,1,.58.4c0,.18,3.29,17.75,14.43,30.23,11.34,12.7,13.29,29.67,13.31,29.84a.5.5,0,0,1-.44.55Z" style="fill:#263238"></path><path d="M338.42,338.25a.5.5,0,0,1-.49-.38c-.07-.3-1.81-7.55.45-22.93s15.92-29.25,16.05-29.39a.51.51,0,0,1,.71,0,.5.5,0,0,1,0,.71c-.13.14-13.55,13.71-15.77,28.82s-.49,22.48-.47,22.55a.48.48,0,0,1-.36.6Z" style="fill:#263238"></path><path d="M338.42,344.62a.51.51,0,0,1-.49-.39c0-.18-4.58-18.88-7.28-37.79s-1.38-29.14-1.37-29.24a.51.51,0,0,1,.56-.43.5.5,0,0,1,.43.56c0,.1-1.32,10.18,1.37,29s7.22,37.51,7.26,37.7a.49.49,0,0,1-.36.6Z" style="fill:#263238"></path><path d="M307.49,280s-5.45,1.36-5.91-8.64S308,254.53,308,254.53s0,5.46,2.73,9.55S313,280.91,307.49,280Z" style="fill:#FF725E"></path><path d="M329.78,281.82s-5.46,1.36-5.91-8.65,6.36-16.82,6.36-16.82,0,5.46,2.73,9.55S335.23,282.72,329.78,281.82Z" style="fill:#FF725E"></path><path d="M352.29,291s-5.32-1.85-.22-10.47,14.55-10.59,14.55-10.59-3,4.57-2.95,9.49S356.35,294.71,352.29,291Z" style="fill:#FF725E"></path><path d="M336.14,333.66s3.64-16.37,11.37-24.11a24.79,24.79,0,0,1,17.28-7.27s-9.09,3.64-11.82,10.91-2.73,23.2-2.73,23.2H319.32s.91-5.92-6.82-12.74S292,312.28,292,312.28s14.1-5,24.1-.91,17.29,21.38,17.29,21.38Z" style="fill:#FF725E"></path><polygon points="349.8 373.68 318.85 373.68 315.23 338.66 353.42 338.66 349.8 373.68" style="fill:#fff"></polygon><path d="M349.79,374.17H318.85a.49.49,0,0,1-.49-.44l-3.63-35a.51.51,0,0,1,.12-.39.52.52,0,0,1,.37-.16h38.2a.49.49,0,0,1,.37.16.48.48,0,0,1,.13.39l-3.63,35A.49.49,0,0,1,349.79,374.17Zm-30.49-1h30l3.53-34H315.78Z" style="fill:#263238"></path><polygon points="315.94 345.53 352.71 345.53 353.42 338.66 315.23 338.66 315.94 345.53" style="fill:#263238"></polygon><path d="M352.71,346H315.94a.5.5,0,0,1-.5-.45l-.71-6.87a.51.51,0,0,1,.12-.39.52.52,0,0,1,.37-.16h38.2a.49.49,0,0,1,.37.16.48.48,0,0,1,.13.39l-.71,6.87A.5.5,0,0,1,352.71,346Zm-36.32-1h35.87l.61-5.87H315.78Z" style="fill:#263238"></path><rect x="311.59" y="331.84" width="45.48" height="8.19" style="fill:#fff"></rect><path d="M357.06,340.52H311.59a.5.5,0,0,1-.5-.5v-8.18a.5.5,0,0,1,.5-.5h45.47a.5.5,0,0,1,.5.5V340A.5.5,0,0,1,357.06,340.52Zm-45-1h44.47v-7.18H312.09Z" style="fill:#263238"></path></g></svg>