<svg xmlns="http://www.w3.org/2000/svg" viewBox="0 0 500 500"><g id="freepik--background-simple--inject-2"><path d="M454,338.36C488,257.81,492.29,144,433.66,73.28c-32.34-39-83.22-52-131.79-54.86-43.53-2.6-90.13-1.56-129.67,19-67,34.91-68.69,117.94-118.91,166.92C12.81,243.88-4,300.17,30.58,374.22s98.75,90.85,161.94,67.15,91.83-28.64,167.87-16.79c34.94,5.45,60.3-20.78,75.63-49C442.6,363.44,448.62,351,454,338.36Z" style="fill:#FF725E"></path><path d="M454,338.36C488,257.81,492.29,144,433.66,73.28c-32.34-39-83.22-52-131.79-54.86-43.53-2.6-90.13-1.56-129.67,19-67,34.91-68.69,117.94-118.91,166.92C12.81,243.88-4,300.17,30.58,374.22s98.75,90.85,161.94,67.15,91.83-28.64,167.87-16.79c34.94,5.45,60.3-20.78,75.63-49C442.6,363.44,448.62,351,454,338.36Z" style="fill:#fff;opacity:0.7000000000000001"></path></g><g id="freepik--Clouds--inject-2"><path d="M107.79,60s-7.33-13.07-14.65-16.73S78,40.09,72.75,48.46,66,64.67,62.81,61s-11-6.28-16.21-3.14-5.23,8.37-8.37,9.94-8.37-5.23-13.6-2.09a23.66,23.66,0,0,0-7.85,7.84H131.84A38.07,38.07,0,0,0,124,58.92C118.25,52.64,110.92,62.05,107.79,60Z" style="fill:none;stroke:#263238;stroke-linecap:round;stroke-linejoin:round"></path><path d="M393.74,136.52s-7.33-13.07-14.65-16.73-15.16-3.14-20.39,5.23-6.8,16.21-9.94,12.55-11-6.28-16.21-3.14-5.23,8.37-8.37,9.94-8.37-5.23-13.6-2.1a23.74,23.74,0,0,0-7.85,7.85H417.79A38.07,38.07,0,0,0,410,135.48C404.2,129.2,396.87,138.61,393.74,136.52Z" style="fill:none;stroke:#263238;stroke-linecap:round;stroke-linejoin:round"></path></g><g id="freepik--floor-2--inject-2"><path d="M108.12,304.68c-50.1,1.73-87.68,8.81-87.68,8.81" style="fill:none;stroke:#263238;stroke-linecap:round;stroke-linejoin:round"></path><path d="M478.49,383s-225.22-70.29-304.35-77a546.91,546.91,0,0,0-56.85-1.66" style="fill:none;stroke:#263238;stroke-linecap:round;stroke-linejoin:round"></path></g><g id="freepik--floor-1--inject-2"><line x1="468.67" y1="443.37" x2="488.96" y2="443.37" style="fill:none;stroke:#263238;stroke-linecap:round;stroke-linejoin:round"></line><line x1="15.21" y1="443.37" x2="459.51" y2="443.37" style="fill:none;stroke:#263238;stroke-linecap:round;stroke-linejoin:round"></line></g><g id="freepik--Trees--inject-2"><path d="M475.54,259.3l-9.75,4.48,17.51-27.49c.3-1.75.57-3.52.79-5.32l.75-23s-10.19,9.78-11.52,10.19c-1.16.35,7.19-31.48,9.28-39.39-.63-5.78-1.37-11.89-2.22-18.22l-12.82,6.68,9.75-15.08-3.55-30.56-6.64,2.85,4.82-14.86c-2.1-10.59-4.41-21-6.9-30.95l-6.34-14.9-3.1,13-.42-31.15c-7.36-20.27-15.67-33.8-24.47-33.8-10.63,0-20.55,19.71-28.93,47.2l-.23,17.75-2.22-9.32C395,83,391.15,100.35,387.88,117.82l2.15,6.61-3.11-1.33c-2,10.88-3.69,21.7-5.14,32l7.8,12.08-8.82-4.6c-1.33,10.07-2.38,19.55-3.13,28,3.11,12.08,7,27.8,6.19,27.55s-4.47-3.58-7.47-6.38c0,1.15-.05,2.25-.05,3.29a121.47,121.47,0,0,0,4.07,31.47l11,17.25-5.92-2.72c9.75,22.27,26.38,36.94,45.27,36.94,19.11,0,35.9-15,45.61-37.76Z" style="fill:#FF725E"></path><polygon points="461.21 216.03 444.74 222.12 448.04 212.2 440.17 223.81 432.3 226.72 431.74 194.16 460.36 156.13 445.02 171.47 447.62 160.81 440.28 176.21 431.58 184.91 430.7 134.04 427.59 208.24 400.47 179.5 415.37 199.75 401.32 198.19 418.67 204.24 427.26 215.92 425.76 251.69 415.76 244.91 425.45 259.1 420.86 443.37 434.75 443.37 432.39 231.91 461.21 216.03" style="fill:#263238"></polygon><path d="M460.63,134.2s.51,5-2.23,8.67-7.66,4.62-7.66,4.62-.5-5,2.23-8.67S460.63,134.2,460.63,134.2Z" style="fill:#fff"></path><path d="M477,157.24s.5,5-2.23,8.66-7.66,4.62-7.66,4.62-.51-5,2.22-8.66S477,157.24,477,157.24Z" style="fill:#fff"></path><path d="M477,202.09s-1.21,4.88-5,7.41-8.78,1.77-8.78,1.77,1.21-4.87,5-7.41S477,202.09,477,202.09Z" style="fill:#fff"></path><path d="M387,202.09s1.2,4.88,5,7.41,8.77,1.77,8.77,1.77-1.21-4.87-5-7.41S387,202.09,387,202.09Z" style="fill:#fff"></path><path d="M458.08,183.47s.51,5-2.22,8.67-7.67,4.62-7.67,4.62-.5-5,2.23-8.67S458.08,183.47,458.08,183.47Z" style="fill:#fff"></path><path d="M453.84,109.14s.5,5-2.23,8.67-7.67,4.62-7.67,4.62-.5-5,2.23-8.67S453.84,109.14,453.84,109.14Z" style="fill:#fff"></path><path d="M444.07,128.25s.5,5-2.23,8.67-7.67,4.62-7.67,4.62-.5-5,2.23-8.67S444.07,128.25,444.07,128.25Z" style="fill:#fff"></path><path d="M467.26,114.34s.5,5-2.23,8.66-7.66,4.62-7.66,4.62-.51-5,2.23-8.66S467.26,114.34,467.26,114.34Z" style="fill:#fff"></path><path d="M391.9,114.34s-.51,5,2.23,8.66,7.66,4.62,7.66,4.62.5-5-2.23-8.66S391.9,114.34,391.9,114.34Z" style="fill:#fff"></path><path d="M456,85.78s.5,5-2.23,8.67-7.66,4.62-7.66,4.62-.51-5,2.23-8.67S456,85.78,456,85.78Z" style="fill:#fff"></path><path d="M451.16,61s1.74,4.72,0,8.95-6.26,6.4-6.26,6.4-1.74-4.71,0-9S451.16,61,451.16,61Z" style="fill:#fff"></path><path d="M416.76,54.48s4.45,2.33,6,6.63-.36,8.94-.36,8.94-4.45-2.33-6-6.63S416.76,54.48,416.76,54.48Z" style="fill:#fff"></path><path d="M432.8,84.15s3.17,3.9,2.91,8.47-3.86,8.07-3.86,8.07-3.17-3.9-2.91-8.46S432.8,84.15,432.8,84.15Z" style="fill:#fff"></path><path d="M432,40s3.17,3.9,2.91,8.46S431,56.52,431,56.52s-3.17-3.9-2.91-8.47S432,40,432,40Z" style="fill:#fff"></path><path d="M396,134.2s-.51,5,2.23,8.67,7.66,4.62,7.66,4.62.5-5-2.23-8.67S396,134.2,396,134.2Z" style="fill:#fff"></path><path d="M386.6,161.39s-.5,5,2.23,8.66,7.67,4.62,7.67,4.62.5-5-2.23-8.67S386.6,161.39,386.6,161.39Z" style="fill:#fff"></path><path d="M411.41,171.25s-.51,5,2.23,8.67,7.66,4.62,7.66,4.62.5-5-2.23-8.67S411.41,171.25,411.41,171.25Z" style="fill:#fff"></path><path d="M418.19,133.59s-1.91,4.64-.35,8.94,6,6.62,6,6.62,1.92-4.64.35-8.94S418.19,133.59,418.19,133.59Z" style="fill:#fff"></path><path d="M400.62,233.82s5,.09,8.46-2.93,4-8,4-8-5-.09-8.46,2.93S400.62,233.82,400.62,233.82Z" style="fill:#fff"></path><path d="M448.82,228.32s1.36,4.84,5.25,7.25,8.82,1.49,8.82,1.49-1.36-4.84-5.25-7.25S448.82,228.32,448.82,228.32Z" style="fill:#fff"></path><path d="M406.23,109.14s-.51,5,2.23,8.67,7.66,4.62,7.66,4.62.5-5-2.23-8.67S406.23,109.14,406.23,109.14Z" style="fill:#fff"></path><path d="M406.14,87.05s-.5,5,2.23,8.67,7.66,4.62,7.66,4.62.51-5-2.22-8.67S406.14,87.05,406.14,87.05Z" style="fill:#fff"></path><path d="M106.34,225.27l-5.42,2.5,9.74-15.3c.17-1,.32-2,.45-3l.41-12.81s-5.67,5.45-6.41,5.67,4-17.51,5.16-21.91c-.35-3.22-.76-6.62-1.23-10.14L101.91,174l5.42-8.39-2-17-3.7,1.59,2.68-8.27c-1.16-5.89-2.45-11.71-3.84-17.22L97,116.45l-1.73,7.25L95,106.37C90.92,95.09,86.3,87.56,81.4,87.56c-5.92,0-11.43,11-16.09,26.27l-.14,9.87-1.23-5.19c-2.41,8.63-4.55,18.32-6.37,28l1.19,3.68L57,149.49c-1.09,6-2.05,12.07-2.86,17.83L58.52,174l-4.91-2.56c-.74,5.61-1.33,10.88-1.74,15.57,1.73,6.73,3.9,15.47,3.44,15.33a34.29,34.29,0,0,1-4.16-3.54c0,.63,0,1.25,0,1.82a67.77,67.77,0,0,0,2.26,17.52l6.11,9.6-3.29-1.52c5.43,12.39,14.68,20.56,25.19,20.56s20-8.37,25.38-21Z" style="fill:#FF725E"></path><polygon points="98.37 201.19 89.2 204.58 91.04 199.06 86.66 205.52 82.29 207.14 81.97 189.02 97.9 167.87 89.36 176.4 90.81 170.47 86.73 179.04 81.89 183.88 81.4 155.57 79.66 196.86 64.57 180.87 72.86 192.13 65.05 191.27 74.7 194.63 79.48 201.13 78.65 221.04 73.08 217.26 78.47 225.16 75.92 327.69 83.65 327.69 82.34 210.03 98.37 201.19" style="fill:#263238"></polygon><path d="M98.05,155.66a6.58,6.58,0,0,1-5.5,7.4,6.58,6.58,0,0,1,5.5-7.4Z" style="fill:#fff"></path><path d="M107.17,168.48a6.57,6.57,0,0,1-5.5,7.39,6.57,6.57,0,0,1,5.5-7.39Z" style="fill:#fff"></path><path d="M107.17,193.44a6.58,6.58,0,0,1-7.67,5.11,6.56,6.56,0,0,1,7.67-5.11Z" style="fill:#fff"></path><path d="M57.07,193.44a7.71,7.71,0,0,0,2.79,4.12,7.75,7.75,0,0,0,4.88,1A7.72,7.72,0,0,0,62,194.42,7.71,7.71,0,0,0,57.07,193.44Z" style="fill:#fff"></path><path d="M96.63,183.08a6.57,6.57,0,0,1-5.5,7.39,6.57,6.57,0,0,1,5.5-7.39Z" style="fill:#fff"></path><path d="M94.27,141.72a6.57,6.57,0,0,1-5.51,7.39,6.57,6.57,0,0,1,5.51-7.39Z" style="fill:#fff"></path><path d="M88.83,152.35a6.58,6.58,0,0,1-5.5,7.4,6.58,6.58,0,0,1,5.5-7.4Z" style="fill:#fff"></path><path d="M101.74,144.61A6.57,6.57,0,0,1,96.23,152a6.57,6.57,0,0,1,5.51-7.39Z" style="fill:#fff"></path><path d="M59.8,144.61A6.57,6.57,0,0,0,65.31,152a6.57,6.57,0,0,0-5.51-7.39Z" style="fill:#fff"></path><path d="M95.45,128.72a6.57,6.57,0,0,1-5.5,7.39,6.57,6.57,0,0,1,5.5-7.39Z" style="fill:#fff"></path><path d="M92.78,114.91a6.58,6.58,0,0,1-3.47,8.54,6.58,6.58,0,0,1,3.47-8.54Z" style="fill:#fff"></path><path d="M73.64,111.3A6.58,6.58,0,0,1,76.78,120a6.58,6.58,0,0,1-3.14-8.67Z" style="fill:#fff"></path><path d="M82.56,127.82A6.58,6.58,0,0,1,82,137a6.58,6.58,0,0,1,.52-9.2Z" style="fill:#fff"></path><path d="M82.09,103.24a6.57,6.57,0,0,1-.53,9.2,6.57,6.57,0,0,1,.53-9.2Z" style="fill:#fff"></path><path d="M62.06,155.66a6.58,6.58,0,0,0,5.5,7.4,6.58,6.58,0,0,0-5.5-7.4Z" style="fill:#fff"></path><path d="M56.86,170.79a6.57,6.57,0,0,0,5.5,7.39,6.57,6.57,0,0,0-5.5-7.39Z" style="fill:#fff"></path><path d="M70.66,176.28a6.57,6.57,0,0,0,5.51,7.39,6.57,6.57,0,0,0-5.51-7.39Z" style="fill:#fff"></path><path d="M74.43,155.32A6.58,6.58,0,0,0,77.59,164a6.58,6.58,0,0,0-3.16-8.66Z" style="fill:#fff"></path><path d="M64.66,211.09a7.75,7.75,0,0,0,4.71-1.63A7.71,7.71,0,0,0,71.58,205a6.57,6.57,0,0,0-6.92,6.09Z" style="fill:#fff"></path><path d="M91.48,208a6.58,6.58,0,0,0,7.83,4.86A6.56,6.56,0,0,0,91.48,208Z" style="fill:#fff"></path><path d="M67.78,141.72a6.57,6.57,0,0,0,5.5,7.39,6.57,6.57,0,0,0-5.5-7.39Z" style="fill:#fff"></path><path d="M67.73,129.43a6.57,6.57,0,0,0,5.51,7.39,6.59,6.59,0,0,0-5.51-7.39Z" style="fill:#fff"></path></g><g id="freepik--Plant--inject-2"><path d="M97.83,459.14H69.59a2.65,2.65,0,0,1-2.65-2.65L64,409.69h39.45l-3,46.8A2.65,2.65,0,0,1,97.83,459.14Z" style="fill:#263238"></path><path d="M80.64,372.85a.47.47,0,0,1-.48-.45A50.06,50.06,0,0,0,74.84,352a.47.47,0,0,1,.17-.65.48.48,0,0,1,.65.18,50.73,50.73,0,0,1,5.45,20.81.47.47,0,0,1-.45.5Z" style="fill:#FF725E"></path><path d="M103.46,374.12a.47.47,0,0,1-.32-.82c8.52-7.89,12.34-9.54,12.5-9.6a.47.47,0,0,1,.62.25.49.49,0,0,1-.25.63c-.05,0-3.88,1.69-12.23,9.42A.49.49,0,0,1,103.46,374.12Z" style="fill:#FF725E"></path><path d="M61.17,379.94s-.5,1.95-1.45,2.27l-1,.31,1.59,1.9-5.86-1.66s2.37,3.57,3.48,4,2.06-.16,1.11.48-7.93-.13-7.93-.13a9.14,9.14,0,0,0,7,4.56s11.41,18.07,20.6,18.55,19.34-5.87,21.88-13.47S86,368.58,79.05,367.62,61.17,379.94,61.17,379.94Z" style="fill:#FF725E"></path><path d="M69.49,350.14a51.71,51.71,0,0,1-9.37-4.68C54.33,342,41.65,342,41.65,342s9.82,6.34,15.85,8.87a30.91,30.91,0,0,0,13,1.91Z" style="fill:#FF725E"></path><path d="M75.06,370.51a51.88,51.88,0,0,1-5.75-8.76c-3.25-5.94-14.21-12.3-14.21-12.3s5.31,10.41,9.25,15.63a30.85,30.85,0,0,0,10.28,8.17Z" style="fill:#FF725E"></path><path d="M91.34,361.34a50.93,50.93,0,0,1,6-8.59c4.31-5.22,6.15-17.77,6.15-17.77s-7.7,8.8-11.08,14.39A31,31,0,0,0,88.63,362Z" style="fill:#FF725E"></path><path d="M102.65,378.22a51.27,51.27,0,0,1,10,2.94c6.33,2.41,18.8.15,18.8.15s-10.8-4.48-17.18-5.9a30.89,30.89,0,0,0-13.12.45Z" style="fill:#FF725E"></path><path d="M101.65,373.5a51.7,51.7,0,0,1,7.53-7.28c5.23-4.3,9.44-16.26,9.44-16.26s-9.24,7.17-13.63,12a30.91,30.91,0,0,0-6.11,11.62Z" style="fill:#FF725E"></path><path d="M69.34,377.05c-.06-.06-2.08-1.71-5-4.26l-6.57,3.55c-3.55,1.93-5.39,2.52-1.65-1.8-3.56,1.92-5.4,2.51-1.66-1.81,2.87-3.31,5.51-3.09,6.58-2.81-.8-.7-1.64-1.44-2.49-2.21l1.22,1.34L53,372.67c-3.55,1.92-5.4,2.51-1.66-1.81s7.1-2.63,7.1-2.63l-.07-.61-2.16-1.94.74.8-6.69,3.62c-3.56,1.92-5.4,2.51-1.66-1.81s7.1-2.63,7.1-2.63l-.06-.51L54,363.64l.59.73s-10.79,3.54-8.9,1a5.25,5.25,0,0,1,2.94-1.66c-2.69.67-5.41,1.1-4.39-.26,1.5-2,5.71-2.13,7.38-2.1l-1.35-1.3L47,361c-2.38.61-4.36.2-2.59-1,1.27-.88,3.73-.82,5-.71l-.8-.8a11.18,11.18,0,0,0-1.71.42c-1.16.35-6.32.31-4.51-1.35,1.5-1.37,4-.62,5.09-.21-.29-.3-.59-.6-.87-.9-.53,0-1.58,0-2.24,0a3.91,3.91,0,0,1-2.79-.92c-.45-.57,1.2-.52,1.2-.52a5.87,5.87,0,0,1-1.46-.7c-.65-.45,1-.56,1-.56a4.38,4.38,0,0,1-1.42-1.13,19,19,0,0,1-1.32-4.68c0-.95.41-.24.86.34a30.15,30.15,0,0,1,2.76,3.1,11.19,11.19,0,0,1,1.15,2c.34.38.68.76,1,1.14a2,2,0,0,1,1.47-.08c.92.45,1.73,2.44,2,2.7s.68-2,1.8-.43a7.11,7.11,0,0,1,.8,1.61c0-.29-.1-.59-.14-.89-.35-2.65-.12-5.21,1.69-1.86a8.67,8.67,0,0,1,.44.92c.13-1.16.65-1.42,1.8.71a9.81,9.81,0,0,1,.59,1.31c-.82-4.08-1.46-6,.74-2.85,2.07,2.94,3.27,11.1,3.52,13l1.14,1A46.24,46.24,0,0,1,59,361.73c-.89-4.65-1.77-7,.57-3.69,2.13,3,3.34,11.58,3.55,13.1.4.35.78.69,1.16,1a44.71,44.71,0,0,1-2.38-8.07c-.9-4.65-1.77-7,.57-3.69,2.22,3.16,3.44,12.32,3.56,13.26,2.16,1.84,3.56,3,3.62,3Zm-7.82-5.47a3.94,3.94,0,0,1,1.64.33v-.11l-.78-.67Zm-12.7-7.87a18.66,18.66,0,0,1,4.88-.38l-.83-.78C52.2,362.76,50.53,363.28,48.82,363.71Zm3.52-2.31h0l0-.07Zm4.77,2.16c.17,1.19.25,2.13.27,2.51l.85.76C58,366.12,57.54,365,57.11,363.56Z" style="fill:#FF725E"></path><path d="M49.11,402c-.09,0-2.5-1-6.16-2.42v-7.47c0-4-.35-5.94-2.37-.59,0-4-.36-6-2.38-.6-1.55,4.1-.1,6.31.67,7.12l-3.14-1.14,1.76.44v-7.61c0-4-.36-5.94-2.38-.59s1.07,7.49,1.07,7.49l-.57.23-2.74-1,1.05.26v-7.6c0-4.05-.36-5.95-2.38-.6s1.07,7.49,1.07,7.49l-.48.19-2.1-.71L31,395s-2-11.17-3.33-8.32a5.25,5.25,0,0,0-.05,3.38c-.69-2.69-1.62-5.29-2.33-3.73-1,2.26.85,6,1.67,7.48l-1.78-.57-.84-3.35c-.59-2.38-1.9-3.92-2.14-1.78-.17,1.53,1.06,3.67,1.78,4.76l-1.09-.33a11.75,11.75,0,0,1-.45-1.7c-.24-1.19-2.73-5.7-3.33-3.33-.49,2,1.39,3.87,2.25,4.59l-1.22-.34c-.26-.46-.77-1.38-1-2a3.88,3.88,0,0,0-2.14-2c-.71-.12.12,1.31.12,1.31a5.78,5.78,0,0,0-1.31-1c-.71-.36,0,1.19,0,1.19a4.46,4.46,0,0,0-1.66-.72,19.33,19.33,0,0,0-4.74,1.07c-.83.48,0,.48.7.6a30.07,30.07,0,0,0,4,.95,11.13,11.13,0,0,0,2.27.08l1.5.37a2,2,0,0,0,.63,1.33c.83.6,3,.36,3.33.48s-1.43,1.54.47,1.78a7,7,0,0,0,1.81-.06c-.29.09-.57.19-.86.3-2.49,1-4.63,2.38-.83,2.38a9,9,0,0,0,1-.06c-1,.67-.94,1.24,1.48,1.24a10.36,10.36,0,0,0,1.44-.1c-4,1.22-5.95,1.56-2.16,2,3.58.42,11.32-2.41,13.07-3.07l1.43.52a46,46,0,0,0-8,1.71c-4.52,1.43-7,1.79-3,2.26,3.68.44,11.78-2.57,13.21-3.12l1.44.54a45.76,45.76,0,0,0-8.23,1.75c-4.52,1.43-7,1.78-3,2.26,3.83.45,12.47-2.84,13.35-3.18,2.65,1,4.32,1.71,4.39,1.74Zm-8.53-4.28A4.13,4.13,0,0,0,41.65,399l-.1,0-1-.37Zm-13-7.43a18.68,18.68,0,0,0,2,4.48l-1.09-.36C28.38,393.68,28,392,27.61,390.25Zm-.36,4.2H27.2Zm4.17,3.17c1.13-.42,2-.8,2.34-1l1.07.39C34.08,397.14,32.88,397.32,31.42,397.62Z" style="fill:#FF725E"></path><path d="M112.52,398c.07.06,2.1,1.68,5.1,4.19l6.52-3.64c3.53-2,5.37-2.58,1.68,1.79,3.53-2,5.37-2.59,1.68,1.79-2.82,3.34-5.46,3.16-6.54,2.88l2.52,2.19-1.24-1.32,6.65-3.71c3.52-2,5.36-2.59,1.67,1.78s-7.06,2.72-7.06,2.72l.08.61,2.18,1.92-.74-.79,6.64-3.71c3.53-2,5.36-2.58,1.68,1.79s-7.06,2.72-7.06,2.72l.07.51,1.65,1.49-.6-.73s10.74-3.68,8.89-1.15a5.29,5.29,0,0,1-2.92,1.7c2.68-.71,5.4-1.17,4.39.21-1.47,2-5.68,2.2-7.35,2.19.46.42.92.85,1.36,1.28l3.34-.91c2.37-.64,4.35-.25,2.6,1-1.26.9-3.72.87-5,.78l.81.79a12.48,12.48,0,0,0,1.71-.44c1.15-.37,6.31-.4,4.53,1.28-1.49,1.4-4.05.67-5.1.28.3.3.6.59.89.89.52,0,1.58,0,2.23-.07a3.92,3.92,0,0,1,2.81.89c.45.56-1.2.53-1.2.53a5.8,5.8,0,0,1,1.47.68c.66.45-1,.58-1,.58a4.32,4.32,0,0,1,1.43,1.1,18.89,18.89,0,0,1,1.38,4.67c0,1-.4.25-.86-.33a29.63,29.63,0,0,1-2.8-3.06,11.91,11.91,0,0,1-1.18-1.95l-1.05-1.13a2,2,0,0,1-1.47.11c-.92-.44-1.76-2.42-2-2.68s-.65,2-1.79.46a7.14,7.14,0,0,1-.82-1.61c.06.29.11.59.15.89.39,2.65.19,5.21-1.67,1.89a8.67,8.67,0,0,1-.44-.92c-.12,1.16-.63,1.43-1.81-.68a10.49,10.49,0,0,1-.61-1.31c.88,4.07,1.53,5.95-.7,2.86-2.11-2.92-3.42-11.06-3.69-12.91l-1.15-1a46.41,46.41,0,0,1,2.38,7.78c1,4.64,1.86,7-.53,3.7-2.17-3-3.49-11.54-3.71-13.06l-1.17-1a47,47,0,0,1,2.48,8c1,4.64,1.86,7-.52,3.69-2.27-3.12-3.61-12.27-3.74-13.2-2.18-1.82-3.59-2.94-3.65-3Zm7.89,5.36a4.15,4.15,0,0,1-1.65-.3l0,.1.79.67Zm12.8,7.71a18.65,18.65,0,0,1-4.87.44l.84.77C129.84,412.07,131.5,411.53,133.21,411.08Zm-3.49,2.36h0l0,.06Zm-4.8-2.1c-.19-1.19-.27-2.13-.3-2.51l-.86-.75C124.05,408.79,124.47,409.92,124.92,411.34Z" style="fill:#FF725E"></path><path d="M52.71,419.29a18.86,18.86,0,0,0-1.26-1.85l-1,.9A10.41,10.41,0,0,1,52,416.59a.25.25,0,0,0,.06-.36.28.28,0,0,0-.38-.07,4.6,4.6,0,0,0-.57.51l.21-.3s-1.56-2.06-2.82-1.84-1.34,1.35-.38,2.13a6,6,0,0,0,2.08,1c-.24.29-.51.62-.8,1a2.4,2.4,0,0,0-2.39-1c-1.78.22-1.19,1-.6,1.43a4.09,4.09,0,0,0,2.16.49.58.58,0,0,0,.19,0c-.31.43-.65.91-1,1.46a4.49,4.49,0,0,0-3.18-1.14c-1.64.28-.6,2,.37,2.2a5.6,5.6,0,0,0,2.25-.23q-.39.59-.81,1.26a4.57,4.57,0,0,0-3.22-1.17c-1.64.28-.6,2,.37,2.2a5.78,5.78,0,0,0,2.36-.26c-.26.42-.54.87-.82,1.34a3.24,3.24,0,0,0-2.31-.81c-1.21.21-.44,1.47.27,1.63a4,4,0,0,0,1.65-.17l-.36.61c-.5-.06-2.86-.27-2.73.43s1.34.71,1.34.71-2.23.71-1.71,1.14a3.06,3.06,0,0,0,1.12.57,1,1,0,0,0-.82.85c-.15.78-.85,2.1-.28,2.3l.13,0a.27.27,0,0,0,.25-.15h0a7.16,7.16,0,0,0,1.24-1.82s0,1,.52.35a4.53,4.53,0,0,0,.74-1.35s.22,1.21.67.43a3.13,3.13,0,0,0,.45-1.42s.37,1.06.66.21a5.26,5.26,0,0,0-.44-2.63l-.1-.34.54-.88c0,.38-.3,2.58.45,2.64s.89-1.21.82-2.06a7.76,7.76,0,0,0-.5-1.82c.14-.23.28-.44.42-.65,0,.82.14,2.25.82,2.4,1,.21,1.49.07,1-1.7a17.08,17.08,0,0,0-.8-2.22c.38-.56.73-1.05,1-1.5a4.24,4.24,0,0,0,.12,2.79c.67,1.35,1.63.93,1.56-.43a6.87,6.87,0,0,0-1.26-2.94l.41-.53c.11.72.69,3.77,2.2,3.33C53.9,421.7,53.31,420.28,52.71,419.29Z" style="fill:#FF725E"></path><path d="M63.56,422.62a20.55,20.55,0,0,0-2-1l-.48,1.29a11.22,11.22,0,0,1,.58-2.31.26.26,0,0,0-.11-.36.29.29,0,0,0-.37.13,6,6,0,0,0-.26.73l0-.37s-2.36-1-3.37-.26-.52,1.83.7,2.05a6.07,6.07,0,0,0,2.31-.1c-.07.36-.15.78-.22,1.26a2.37,2.37,0,0,0-2.59.25c-1.46,1-.56,1.44.16,1.53a4,4,0,0,0,2.13-.6.44.44,0,0,0,.15-.12c-.07.53-.13,1.11-.19,1.77a4.45,4.45,0,0,0-3.34.53c-1.3,1,.43,2,1.38,1.75A5.58,5.58,0,0,0,60,427.48c0,.48-.08,1-.11,1.5a4.55,4.55,0,0,0-3.39.52c-1.3,1,.43,2,1.38,1.76a6,6,0,0,0,1.95-1.37c0,.5,0,1-.08,1.57a3.21,3.21,0,0,0-2.41.4c-1,.76.32,1.5,1,1.3a4,4,0,0,0,1.36-.94c0,.23,0,.46,0,.7-.47.2-2.63,1.15-2.18,1.69s1.51,0,1.51,0-1.61,1.69-1,1.81a3.06,3.06,0,0,0,1.25,0,1,1,0,0,0-.31,1.14c.25.76.27,2.25.86,2.14a.28.28,0,0,0,.13,0,.29.29,0,0,0,.14-.24h0a6.89,6.89,0,0,0,.22-2.19s.47.87.62.06a4.65,4.65,0,0,0,0-1.54s.77,1,.79.05a3.25,3.25,0,0,0-.29-1.46s.83.76.69-.13-1.66-2.1-1.66-2.1l-.25-.25c0-.35,0-.69,0-1,.14.36,1,2.4,1.67,2.1s.2-1.49-.28-2.2a7.68,7.68,0,0,0-1.31-1.36c0-.27,0-.52.06-.77.4.71,1.2,1.91,1.87,1.71.95-.27,1.34-.65,0-2a17.52,17.52,0,0,0-1.76-1.56c.07-.67.13-1.27.2-1.81a4.32,4.32,0,0,0,1.44,2.38c1.24.87,1.88,0,1.17-1.12a7,7,0,0,0-2.52-2c0-.23.07-.45.1-.66.45.57,2.42,3,3.54,1.86S64.56,423.2,63.56,422.62Z" style="fill:#FF725E"></path><path d="M74.8,338.94s-2.26-3.87-4.42-4.05-2.25,2.43-1.8,3.51.63,1.62.63,1.62-2.79-2-5.23-.81-1,2.62.19,4.24a18.31,18.31,0,0,0,2.52,2.79s-5.32-2.43-6.85-1.35S64,348.22,64,348.22s-4.32.36-2.88,1.26a7.79,7.79,0,0,0,2.79,1.08s-5.13.36-2.61,2.17,9.19,1.44,9.19,1.44-4,3.42-3.15,4.77,5.13-1.26,5.13-1.26-1,4.42,1.63,3.61,4.23-4.78,4.23-4.78,1.71,6.94,3.42,5.23,1.27-4.6,1.27-4.6,7.38,4.78,7.74,2.43-2.52-6.21-2.52-6.21,6.67-.45,6.67-1.62a3.38,3.38,0,0,0-1.17-2.17s1.62-.81,1.44-1.44-1.44-1.35-1.44-1.35,1.17-.63.72-1.44a3,3,0,0,0-1.35-1.17s1.35-1.8.36-2.52a3,3,0,0,0-1.54-.73s1-1.62.28-2.52-3.07-.18-3.07-.18.72-1.89-.63-2.07a6.43,6.43,0,0,0-3.15.81s.72-2.52-.72-2.7-3.07,2-3.07,2-.63-3.33-1.8-3.42a2.48,2.48,0,0,0-1.53.18S74.89,330.74,74.8,338.94Z" style="fill:#fff;stroke:#263238;stroke-linecap:round;stroke-linejoin:round"></path><path d="M84.53,349.26c0,2.66-2.79,4.82-6.22,4.82s-6.22-2.16-6.22-4.82,2.79-4.82,6.22-4.82S84.53,346.6,84.53,349.26Z" style="fill:#fff;stroke:#263238;stroke-linecap:round;stroke-linejoin:round"></path><path d="M81.2,339.78l0-.72" style="fill:#fff;stroke:#263238;stroke-linecap:round;stroke-linejoin:round"></path><path d="M80.5,344.73a33.62,33.62,0,0,0,.63-4.05" style="fill:#fff;stroke:#263238;stroke-linecap:round;stroke-linejoin:round"></path><line x1="75.83" y1="344.64" x2="74.64" y2="340.62" style="fill:#fff;stroke:#263238;stroke-linecap:round;stroke-linejoin:round"></line><line x1="71.51" y1="343.95" x2="71.01" y2="343.37" style="fill:#fff;stroke:#263238;stroke-linecap:round;stroke-linejoin:round"></line><line x1="73.35" y1="346.07" x2="72.01" y2="344.52" style="fill:#fff;stroke:#263238;stroke-linecap:round;stroke-linejoin:round"></line><path d="M78.31,354.08a7.09,7.09,0,0,0-.28,1.27" style="fill:#fff;stroke:#263238;stroke-linecap:round;stroke-linejoin:round"></path><line x1="68.79" y1="350.58" x2="68.42" y2="350.59" style="fill:#fff;stroke:#263238;stroke-linecap:round;stroke-linejoin:round"></line><line x1="71.99" y1="350.5" x2="69.39" y2="350.56" style="fill:#fff;stroke:#263238;stroke-linecap:round;stroke-linejoin:round"></line><path d="M88.83,348.12a7.32,7.32,0,0,1,.91.18" style="fill:#fff;stroke:#263238;stroke-linecap:round;stroke-linejoin:round"></path><path d="M84.43,348.3a14.68,14.68,0,0,1,3.71-.25" style="fill:#fff;stroke:#263238;stroke-linecap:round;stroke-linejoin:round"></path><path d="M83,345.92a26.88,26.88,0,0,1,4.48-2.56" style="fill:#fff;stroke:#263238;stroke-linecap:round;stroke-linejoin:round"></path><line x1="73.09" y1="355.44" x2="74.83" y2="353.24" style="fill:#fff;stroke:#263238;stroke-linecap:round;stroke-linejoin:round"></line><line x1="81.87" y1="353.52" x2="82.6" y2="354.89" style="fill:#fff;stroke:#263238;stroke-linecap:round;stroke-linejoin:round"></line><line x1="86.63" y1="351.87" x2="84.06" y2="351.14" style="fill:#fff;stroke:#263238;stroke-linecap:round;stroke-linejoin:round"></line><path d="M73.6,371.08s3-2.86,1.66-2.9a5.27,5.27,0,0,0-2.7.86s.9-3.71-.33-3.43-2.78,2.16-2.78,2.16.41-3.1-1-2.27-1.58,1.4-1.58,1.4-.39-4-1.55-3.35a1.47,1.47,0,0,0-.91,1.59s-.62-1.56-1.11-.94,0,2.2,0,2.2-2-2.73-2.58-1.81a2.47,2.47,0,0,0,0,2.05s-.92-.74-1-.11.78,1.67.78,1.67-2.22-.81-2.41.24S60,371.57,60,371.57s-5.33-2.09-5.21-.79a2.93,2.93,0,0,0,1.12,2s-1.13-.35-.64.3a4.18,4.18,0,0,0,1.82,1s-3.76-.59-4.27.81,4.39,1.55,4.39,1.55-3,1.68-1.64,2.11,6.26-1.34,6.26-1.34-5.13,3.15-4,4.28,5.7-2.74,5.7-2.74,1.66,3.79,2.88,3.51.83-3.86.83-3.86,3,4.89,5.36,4.88-.84-4.94-1.14-5.39,3.37-.88,5.13-1.88,0-1.85,0-1.85,3.08-1.52,1.87-1.83a11.29,11.29,0,0,0-3.55.09s2.37-1.58,1.13-2A2.83,2.83,0,0,0,73.6,371.08Z" style="fill:#fff;stroke:#263238;stroke-linecap:round;stroke-miterlimit:10"></path><path d="M66.19,376.73a2.62,2.62,0,1,1,1.66-3.62A2.83,2.83,0,0,1,66.19,376.73Z" style="fill:#fff;stroke:#263238;stroke-linecap:round;stroke-miterlimit:10"></path><line x1="67.34" y1="372.42" x2="69.06" y2="370.27" style="fill:none;stroke:#263238;stroke-linecap:round;stroke-miterlimit:10"></line><line x1="66.29" y1="369.7" x2="66.38" y2="369.29" style="fill:none;stroke:#263238;stroke-linecap:round;stroke-miterlimit:10"></line><line x1="65.91" y1="371.63" x2="66.17" y2="370.32" style="fill:none;stroke:#263238;stroke-linecap:round;stroke-miterlimit:10"></line><line x1="62.28" y1="373.21" x2="60.96" y2="372.66" style="fill:none;stroke:#263238;stroke-linecap:round;stroke-miterlimit:10"></line><line x1="67.81" y1="375.11" x2="69.51" y2="376.26" style="fill:none;stroke:#263238;stroke-linecap:round;stroke-miterlimit:10"></line><line x1="71.09" y1="372.37" x2="71.68" y2="372.16" style="fill:none;stroke:#263238;stroke-linecap:round;stroke-miterlimit:10"></line><line x1="68.02" y1="373.46" x2="69.93" y2="372.78" style="fill:none;stroke:#263238;stroke-linecap:round;stroke-miterlimit:10"></line><line x1="60" y1="374.85" x2="59.33" y2="374.77" style="fill:none;stroke:#263238;stroke-linecap:round;stroke-miterlimit:10"></line><line x1="61.99" y1="375.09" x2="60.8" y2="374.95" style="fill:none;stroke:#263238;stroke-linecap:round;stroke-miterlimit:10"></line><line x1="65.47" y1="377.16" x2="65.6" y2="377.87" style="fill:none;stroke:#263238;stroke-linecap:round;stroke-miterlimit:10"></line><line x1="64.01" y1="372.03" x2="63.16" y2="370.29" style="fill:none;stroke:#263238;stroke-linecap:round;stroke-miterlimit:10"></line><path d="M113.6,388.33s1-4-.95-5.55-5.55,1.58-5.55,1.58-3-4.43-4.59-1.9a10.85,10.85,0,0,0-1.75,4.12s-3.48-3.64-5.07-1.74-.63,2.85-.63,2.85-4.76-.32-5.08,1.11a2.46,2.46,0,0,0,.48,2.22s-2.38.16-2.69,1.9a3.1,3.1,0,0,0,.63,2.7s-1.58,2.06-.79,2.53,2.85,1.43,2.85,1.43-4,2.06-3.49,3.8a3.59,3.59,0,0,0,2.54,2.22s-1.74,1.74-.63,2.38a3,3,0,0,0,1.9.47s-1.11,1.59.47,2.06a5.17,5.17,0,0,0,2.7.16s-.64,1.9.31,2.38a4.23,4.23,0,0,0,2.38.16,1.76,1.76,0,0,0,.79,2.53,3.68,3.68,0,0,0,3.17,0s.16,2.38,1.27,2.07a6.38,6.38,0,0,0,2.22-1.43s-.47,1.11,1.27,1.11,2.38-2.06,2.38-2.06,1.58,2.06,2.85,1.58a1.79,1.79,0,0,0,1.27-1.58s1,1.42,2.06.95a3.31,3.31,0,0,0,1.42-.95s.32,1.11,1.91,0,1.58-2.22,1.58-2.22,1.74,0,2.22-1.27a3.64,3.64,0,0,0,.16-2.22s2.22-1.74,2.06-3.8-.64-2.22-.64-2.22,1.91-2.54,1.75-3.65l-.16-1.11s1.58-1.9.32-3.32-2.22-1.43-2.22-1.43,1.42-2.85,0-3.33-4.12.64-4.12.64S119.94,383.57,113.6,388.33Z" style="fill:#fff;stroke:#263238;stroke-linecap:round;stroke-miterlimit:10"></path><path d="M94.6,397.76c-.3,0-2.22.11-1.41,1.12a6.68,6.68,0,0,0,3,1.51s-3.94,1.11-3.23,2.53,3.94.91,3.94.91" style="fill:none;stroke:#263238;stroke-linecap:round;stroke-miterlimit:10"></path><path d="M97.74,405.65s-3.14,3.54-1.42,4.75,4.35-1.92,4.35-1.92-.91,1.11.1.91,2.73-2.63,2.73-2.63-2.53,7.18-.4,7.58,2.83-4.34,2.83-4.34.4,4.64,2.52,3.43,1.42-4.95,1.42-4.95" style="fill:#fff;stroke:#263238;stroke-linecap:round;stroke-miterlimit:10"></path><path d="M115,404.44s7.79.7,7.48-1.52-4.24-2.53-4.24-2.53,5.86-.71,4.95-2.73" style="fill:none;stroke:#263238;stroke-linecap:round;stroke-miterlimit:10"></path><path d="M110.17,409s5.16,7.89,7.38,3.85-2.83-7.38-2.83-7.38" style="fill:none;stroke:#263238;stroke-linecap:round;stroke-miterlimit:10"></path><path d="M98.55,397.56s-5.56-2.93-5.06-3.74,3.84-.1,3.84-.1-4.24-5.05-3.64-5.56,5.26,2,5.26,2S95.72,386,96.73,386s4.34,4.45,4.34,4.45" style="fill:none;stroke:#263238;stroke-linecap:round;stroke-miterlimit:10"></path><line x1="106.3" y1="389.06" x2="106.33" y2="388.06" style="fill:none;stroke:#263238;stroke-linecap:round;stroke-miterlimit:10"></line><line x1="106.13" y1="395.03" x2="106.27" y2="390.18" style="fill:none;stroke:#263238;stroke-linecap:round;stroke-miterlimit:10"></line><line x1="113.67" y1="394.09" x2="114.11" y2="393.62" style="fill:none;stroke:#263238;stroke-linecap:round;stroke-miterlimit:10"></line><line x1="111.18" y1="396.75" x2="113.13" y2="394.67" style="fill:none;stroke:#263238;stroke-linecap:round;stroke-miterlimit:10"></line><line x1="115.45" y1="402.33" x2="116.24" y2="402.51" style="fill:none;stroke:#263238;stroke-linecap:round;stroke-miterlimit:10"></line><line x1="111.99" y1="401.5" x2="114.81" y2="402.17" style="fill:none;stroke:#263238;stroke-linecap:round;stroke-miterlimit:10"></line><line x1="107.75" y1="405.35" x2="107.75" y2="407.87" style="fill:none;stroke:#263238;stroke-linecap:round;stroke-miterlimit:10"></line><line x1="101.07" y1="403.42" x2="99.76" y2="405.35" style="fill:none;stroke:#263238;stroke-linecap:round;stroke-miterlimit:10"></line><line x1="99.13" y1="394.87" x2="98.75" y2="394.63" style="fill:none;stroke:#263238;stroke-linecap:round;stroke-miterlimit:10"></line><line x1="101.58" y1="396.45" x2="99.93" y2="395.39" style="fill:none;stroke:#263238;stroke-linecap:round;stroke-miterlimit:10"></line><line x1="103.6" y1="394.93" x2="102.69" y2="391.8" style="fill:none;stroke:#263238;stroke-linecap:round;stroke-miterlimit:10"></line><path d="M113.31,400.54c0,3-2.83,5.51-6.32,5.51s-6.32-2.46-6.32-5.51S103.5,395,107,395,113.31,397.5,113.31,400.54Z" style="fill:#fff;stroke:#263238;stroke-linecap:round;stroke-miterlimit:10"></path><path d="M50.53,373.88s-1.32-4-1.93-2.73a5.24,5.24,0,0,0-.35,2.82s-3-2.38-3.25-1.15.79,3.43.79,3.43-2.64-1.67-2.46-.09a3.61,3.61,0,0,0,.61,2s-3.78-1.32-3.69,0a1.47,1.47,0,0,0,1,1.49s-1.67-.09-1.31.62,2,.87,2,.87-3.34.71-2.73,1.59a2.46,2.46,0,0,0,1.85.88s-1.06.52-.53.87,1.85,0,1.85,0-1.67,1.67-.79,2.29,3.6-.35,3.6-.35-4.13,3.95-2.9,4.39a2.92,2.92,0,0,0,2.28-.17s-.79.88,0,.7a4,4,0,0,0,1.67-1.23s-2.11,3.16-1.05,4.22S48.51,391,48.51,391s.27,3.43,1.23,2.37,1.41-6.24,1.41-6.24.7,6,2.2,5.45-.09-6.33-.09-6.33,4.13.09,4.39-1.14-3.16-2.37-3.16-2.37,5.71-.71,6.68-2.82-4.84-1.31-5.36-1.23.61-3.42.44-5.45-1.67-.79-1.67-.79S54.49,369,53.7,370a11.62,11.62,0,0,0-1.41,3.25s-.44-2.81-1.32-1.84A2.82,2.82,0,0,0,50.53,373.88Z" style="fill:#FF725E;stroke:#263238;stroke-linecap:round;stroke-miterlimit:10"></path><ellipse cx="49.96" cy="382.98" rx="2.59" ry="3.03" style="fill:#fff;stroke:#263238;stroke-linecap:round;stroke-miterlimit:10"></ellipse><line x1="49.13" y1="380.12" x2="47.9" y2="377.66" style="fill:none;stroke:#263238;stroke-linecap:round;stroke-miterlimit:10"></line><line x1="46.21" y1="379.93" x2="45.87" y2="379.68" style="fill:none;stroke:#263238;stroke-linecap:round;stroke-miterlimit:10"></line><line x1="47.81" y1="381.09" x2="46.73" y2="380.3" style="fill:none;stroke:#263238;stroke-linecap:round;stroke-miterlimit:10"></line><line x1="47.72" y1="385.04" x2="46.67" y2="386.01" style="fill:none;stroke:#263238;stroke-linecap:round;stroke-miterlimit:10"></line><line x1="51.76" y1="380.82" x2="53.52" y2="379.77" style="fill:none;stroke:#263238;stroke-linecap:round;stroke-miterlimit:10"></line><line x1="50.65" y1="376.69" x2="50.71" y2="376.08" style="fill:none;stroke:#263238;stroke-linecap:round;stroke-miterlimit:10"></line><line x1="50.36" y1="379.94" x2="50.54" y2="377.92" style="fill:none;stroke:#263238;stroke-linecap:round;stroke-miterlimit:10"></line><line x1="48.25" y1="387.8" x2="47.9" y2="388.38" style="fill:none;stroke:#263238;stroke-linecap:round;stroke-miterlimit:10"></line><line x1="49.3" y1="386.1" x2="48.67" y2="387.12" style="fill:none;stroke:#263238;stroke-linecap:round;stroke-miterlimit:10"></line><line x1="52.64" y1="383.81" x2="53.35" y2="383.99" style="fill:none;stroke:#263238;stroke-linecap:round;stroke-miterlimit:10"></line><line x1="47.37" y1="382.98" x2="45.44" y2="383.02" style="fill:none;stroke:#263238;stroke-linecap:round;stroke-miterlimit:10"></line><path d="M123.48,368.61s3.26,1,2.72,0a4.32,4.32,0,0,0-1.71-1.55s3-.88,2.29-1.63a6,6,0,0,0-2.66-1.08s2.35-1,1.21-1.6a2.92,2.92,0,0,0-1.64-.54s2.65-1.9,1.73-2.46a1.19,1.19,0,0,0-1.49,0s.84-1.07.21-1.17-1.54.94-1.54.94,1.1-2.56.22-2.56a2,2,0,0,0-1.45.82s.15-.95-.34-.76-.86,1.23-.86,1.23-.33-1.9-1.15-1.6-1.46,2.57-1.46,2.57-.7-4.61-1.57-4a2.39,2.39,0,0,0-1,1.6s-.21-.93-.46-.32a3.32,3.32,0,0,0,0,1.69s-1.12-2.89-2.32-2.68.71,3.73.71,3.73-2.41-1.43-2.16-.29,3.5,3.86,3.5,3.86-4.31-2.33-4.66-1.08,4.26,2.9,4.26,2.9-2,2.72-1.29,3.47,3.06-1,3.06-1-2.2,4.14-1.25,5.77,3.14-2.6,3.33-3,2,2,3.43,2.85,1.31-.75,1.31-.75,2.33,1.55,2.06.57a9.53,9.53,0,0,0-1.51-2.46s2.08,1,1.85,0A2.3,2.3,0,0,0,123.48,368.61Z" style="fill:#FF725E;stroke:#263238;stroke-linecap:round;stroke-miterlimit:10"></path><path d="M116.46,365.7a2.14,2.14,0,1,1,3.24-.31A2.31,2.31,0,0,1,116.46,365.7Z" style="fill:#fff;stroke:#263238;stroke-linecap:round;stroke-miterlimit:10"></path><line x1="119.97" y1="364.75" x2="122.19" y2="365.08" style="fill:none;stroke:#263238;stroke-linecap:round;stroke-miterlimit:10"></line><line x1="121.47" y1="362.89" x2="121.79" y2="362.78" style="fill:none;stroke:#263238;stroke-linecap:round;stroke-miterlimit:10"></line><line x1="119.95" y1="363.41" x2="120.98" y2="363.06" style="fill:none;stroke:#263238;stroke-linecap:round;stroke-miterlimit:10"></line><line x1="117.35" y1="361.5" x2="117.2" y2="360.35" style="fill:none;stroke:#263238;stroke-linecap:round;stroke-miterlimit:10"></line><line x1="118.27" y1="366.18" x2="118.15" y2="367.84" style="fill:none;stroke:#263238;stroke-linecap:round;stroke-miterlimit:10"></line><line x1="121.54" y1="367.37" x2="121.93" y2="367.7" style="fill:none;stroke:#263238;stroke-linecap:round;stroke-miterlimit:10"></line><line x1="119.51" y1="365.65" x2="120.78" y2="366.72" style="fill:none;stroke:#263238;stroke-linecap:round;stroke-miterlimit:10"></line><line x1="115.26" y1="360.56" x2="115.04" y2="360.06" style="fill:none;stroke:#263238;stroke-linecap:round;stroke-miterlimit:10"></line><line x1="115.9" y1="362.06" x2="115.51" y2="361.16" style="fill:none;stroke:#263238;stroke-linecap:round;stroke-miterlimit:10"></line><line x1="115.86" y1="365.36" x2="115.42" y2="365.75" style="fill:none;stroke:#263238;stroke-linecap:round;stroke-miterlimit:10"></line><line x1="118.89" y1="362.24" x2="119.77" y2="360.92" style="fill:none;stroke:#263238;stroke-linecap:round;stroke-miterlimit:10"></line><path d="M109.7,352.75s2.25-2.54,1.13-2.48a4.29,4.29,0,0,0-2.13.91s.45-3.08-.52-2.76-2.1,2-2.1,2,.1-2.55-.94-1.78-1.18,1.27-1.18,1.27-.61-3.21-1.51-2.61a1.2,1.2,0,0,0-.62,1.36s-.62-1.22-1-.68.21,1.78.21,1.78-1.87-2.06-2.23-1.27a2,2,0,0,0,.13,1.66s-.8-.53-.84,0,.76,1.3.76,1.3-1.86-.49-1.94.38,1.73,2.39,1.73,2.39-4.48-1.29-4.29-.24a2.4,2.4,0,0,0,1.06,1.54s-.94-.2-.5.28a3.36,3.36,0,0,0,1.55.68s-3.09-.19-3.4,1,3.68.93,3.68.93-2.31,1.59-1.17,1.84,5-1.56,5-1.56-3.93,2.94-3,3.77,4.43-2.65,4.43-2.65,1.63,2.95,2.61,2.64.37-3.21.37-3.21,2.84,3.74,4.72,3.56-1-3.94-1.33-4.28,2.67-1,4-1.92-.13-1.5-.13-1.5,2.38-1.47,1.38-1.63a9.43,9.43,0,0,0-2.87.34s1.8-1.46.76-1.68A2.28,2.28,0,0,0,109.7,352.75Z" style="fill:#fff;stroke:#263238;stroke-linecap:round;stroke-miterlimit:10"></path><path d="M104.11,357.9a2.14,2.14,0,1,1,1.08-3.07A2.32,2.32,0,0,1,104.11,357.9Z" style="fill:#fff;stroke:#263238;stroke-linecap:round;stroke-miterlimit:10"></path><line x1="104.72" y1="354.31" x2="105.95" y2="352.44" style="fill:none;stroke:#263238;stroke-linecap:round;stroke-miterlimit:10"></line><line x1="103.67" y1="352.18" x2="103.7" y2="351.84" style="fill:none;stroke:#263238;stroke-linecap:round;stroke-miterlimit:10"></line><line x1="103.5" y1="353.78" x2="103.61" y2="352.69" style="fill:none;stroke:#263238;stroke-linecap:round;stroke-miterlimit:10"></line><line x1="100.67" y1="355.34" x2="99.56" y2="354.99" style="fill:none;stroke:#263238;stroke-linecap:round;stroke-miterlimit:10"></line><line x1="105.3" y1="356.46" x2="106.77" y2="357.27" style="fill:none;stroke:#263238;stroke-linecap:round;stroke-miterlimit:10"></line><line x1="107.76" y1="353.99" x2="108.22" y2="353.78" style="fill:none;stroke:#263238;stroke-linecap:round;stroke-miterlimit:10"></line><line x1="105.35" y1="355.11" x2="106.85" y2="354.41" style="fill:none;stroke:#263238;stroke-linecap:round;stroke-miterlimit:10"></line><line x1="98.94" y1="356.84" x2="98.39" y2="356.83" style="fill:none;stroke:#263238;stroke-linecap:round;stroke-miterlimit:10"></line><line x1="100.58" y1="356.88" x2="99.6" y2="356.86" style="fill:none;stroke:#263238;stroke-linecap:round;stroke-miterlimit:10"></line><line x1="103.56" y1="358.3" x2="103.72" y2="358.87" style="fill:none;stroke:#263238;stroke-linecap:round;stroke-miterlimit:10"></line><line x1="101.99" y1="354.24" x2="101.17" y2="352.9" style="fill:none;stroke:#263238;stroke-linecap:round;stroke-miterlimit:10"></line><path d="M77.12,400.15s-2.06,3.62-.73,3.26a5.31,5.31,0,0,0,2.32-1.62S79,405.6,80,405s2-2.88,2-2.88.52,3.08,1.58,1.89,1.09-1.81,1.09-1.81,1.55,3.7,2.47,2.75a1.46,1.46,0,0,0,.4-1.78s1.06,1.3,1.34.56-.69-2.09-.69-2.09,2.75,2,3,1a2.43,2.43,0,0,0-.58-2s1.1.43,1-.19-1.23-1.38-1.23-1.38,2.35.13,2.22-.94S90,395.67,90,395.67s5.71.43,5.21-.78a2.89,2.89,0,0,0-1.66-1.58s1.19,0,.53-.47a4.06,4.06,0,0,0-2-.42s3.77-.55,3.85-2-4.66-.19-4.66-.19,2.37-2.48.94-2.5-5.58,3.13-5.58,3.13,4-4.52,2.58-5.28-4.64,4.3-4.64,4.3-2.7-3.13-3.79-2.51.35,3.94.35,3.94-4.34-3.78-6.56-3.08,2.25,4.47,2.67,4.81-3,1.83-4.35,3.31.53,1.77.53,1.77-2.49,2.36-1.24,2.3a11.54,11.54,0,0,0,3.36-1.13s-1.8,2.21-.49,2.22A2.82,2.82,0,0,0,77.12,400.15Z" style="fill:#fff;stroke:#263238;stroke-linecap:round;stroke-miterlimit:10"></path><path d="M82.53,392.56a2.63,2.63,0,1,1-.52,4A2.83,2.83,0,0,1,82.53,392.56Z" style="fill:#fff;stroke:#263238;stroke-linecap:round;stroke-miterlimit:10"></path><line x1="82.7" y1="397.02" x2="81.69" y2="399.58" style="fill:none;stroke:#263238;stroke-linecap:round;stroke-miterlimit:10"></line><line x1="84.51" y1="399.32" x2="84.55" y2="399.74" style="fill:none;stroke:#263238;stroke-linecap:round;stroke-miterlimit:10"></line><line x1="84.3" y1="397.36" x2="84.44" y2="398.69" style="fill:none;stroke:#263238;stroke-linecap:round;stroke-miterlimit:10"></line><line x1="87.3" y1="394.78" x2="88.73" y2="394.92" style="fill:none;stroke:#263238;stroke-linecap:round;stroke-miterlimit:10"></line><line x1="81.46" y1="394.59" x2="79.5" y2="393.99" style="fill:none;stroke:#263238;stroke-linecap:round;stroke-miterlimit:10"></line><line x1="79.13" y1="398.18" x2="78.64" y2="398.55" style="fill:none;stroke:#263238;stroke-linecap:round;stroke-miterlimit:10"></line><line x1="81.75" y1="396.23" x2="80.12" y2="397.44" style="fill:none;stroke:#263238;stroke-linecap:round;stroke-miterlimit:10"></line><line x1="89" y1="392.54" x2="89.67" y2="392.42" style="fill:none;stroke:#263238;stroke-linecap:round;stroke-miterlimit:10"></line><line x1="87.03" y1="392.9" x2="88.21" y2="392.68" style="fill:none;stroke:#263238;stroke-linecap:round;stroke-miterlimit:10"></line><line x1="83.1" y1="391.94" x2="82.76" y2="391.3" style="fill:none;stroke:#263238;stroke-linecap:round;stroke-miterlimit:10"></line><line x1="86" y1="396.42" x2="87.33" y2="397.83" style="fill:none;stroke:#263238;stroke-linecap:round;stroke-miterlimit:10"></line><path d="M71,391.4s1-4-1-5.55-5.55,1.59-5.55,1.59-3-4.44-4.6-1.91a10.91,10.91,0,0,0-1.74,4.12s-3.49-3.64-5.07-1.74-.64,2.85-.64,2.85-4.75-.31-5.07,1.11a2.46,2.46,0,0,0,.48,2.22s-2.38.16-2.7,1.9a3.12,3.12,0,0,0,.64,2.7s-1.59,2.06-.79,2.53,2.85,1.43,2.85,1.43-4,2.06-3.49,3.8a3.59,3.59,0,0,0,2.54,2.22s-1.75,1.75-.64,2.38a3.06,3.06,0,0,0,1.91.48s-1.11,1.58.47,2.06a5.3,5.3,0,0,0,2.7.16s-.64,1.9.31,2.37a4.23,4.23,0,0,0,2.38.16,1.77,1.77,0,0,0,.79,2.54,3.72,3.72,0,0,0,3.17,0s.16,2.37,1.27,2.06a6.38,6.38,0,0,0,2.22-1.43s-.48,1.11,1.27,1.11,2.37-2.06,2.37-2.06,1.59,2.06,2.86,1.58a1.79,1.79,0,0,0,1.26-1.58s1,1.43,2.07.95a3.3,3.3,0,0,0,1.42-.95s.32,1.11,1.9,0,1.59-2.22,1.59-2.22,1.74,0,2.22-1.27a3.64,3.64,0,0,0,.16-2.22s2.21-1.74,2.06-3.8-.64-2.22-.64-2.22,1.9-2.53,1.75-3.64L81.59,402s1.58-1.91.31-3.33-2.21-1.43-2.21-1.43,1.42-2.85,0-3.33-4.13.64-4.13.64S77.31,386.64,71,391.4Z" style="fill:#fff;stroke:#263238;stroke-linecap:round;stroke-miterlimit:10"></path><path d="M52,400.84c-.3,0-2.22.1-1.41,1.11a6.68,6.68,0,0,0,3,1.51s-3.94,1.12-3.23,2.53,3.94.91,3.94.91" style="fill:none;stroke:#263238;stroke-linecap:round;stroke-miterlimit:10"></path><path d="M55.11,408.72s-3.14,3.54-1.42,4.75S58,411.55,58,411.55s-.91,1.11.1.91,2.73-2.63,2.73-2.63-2.53,7.18-.41,7.58,2.83-4.34,2.83-4.34.41,4.65,2.53,3.43,1.42-4.95,1.42-4.95" style="fill:none;stroke:#263238;stroke-linecap:round;stroke-miterlimit:10"></path><path d="M72.39,407.51s7.79.71,7.48-1.52-4.24-2.53-4.24-2.53,5.86-.7,5-2.72" style="fill:none;stroke:#263238;stroke-linecap:round;stroke-miterlimit:10"></path><path d="M67.54,412.06s5.15,7.88,7.38,3.84-2.83-7.38-2.83-7.38" style="fill:#fff;stroke:#263238;stroke-linecap:round;stroke-miterlimit:10"></path><path d="M55.92,400.63s-5.56-2.93-5.06-3.74,3.84-.1,3.84-.1-4.24-5.05-3.64-5.56,5.26,2,5.26,2-3.24-4.14-2.22-4.14,4.34,4.45,4.34,4.45" style="fill:none;stroke:#263238;stroke-linecap:round;stroke-miterlimit:10"></path><line x1="63.67" y1="392.14" x2="63.7" y2="391.13" style="fill:none;stroke:#263238;stroke-linecap:round;stroke-miterlimit:10"></line><line x1="63.5" y1="398.11" x2="63.64" y2="393.25" style="fill:none;stroke:#263238;stroke-linecap:round;stroke-miterlimit:10"></line><line x1="71.04" y1="397.16" x2="71.48" y2="396.69" style="fill:none;stroke:#263238;stroke-linecap:round;stroke-miterlimit:10"></line><line x1="68.55" y1="399.83" x2="70.5" y2="397.74" style="fill:none;stroke:#263238;stroke-linecap:round;stroke-miterlimit:10"></line><line x1="72.82" y1="405.4" x2="73.6" y2="405.59" style="fill:none;stroke:#263238;stroke-linecap:round;stroke-miterlimit:10"></line><line x1="69.36" y1="404.58" x2="72.17" y2="405.25" style="fill:none;stroke:#263238;stroke-linecap:round;stroke-miterlimit:10"></line><line x1="65.11" y1="408.42" x2="65.11" y2="410.94" style="fill:none;stroke:#263238;stroke-linecap:round;stroke-miterlimit:10"></line><line x1="58.44" y1="406.5" x2="57.13" y2="408.42" style="fill:none;stroke:#263238;stroke-linecap:round;stroke-miterlimit:10"></line><line x1="56.5" y1="397.95" x2="56.12" y2="397.7" style="fill:none;stroke:#263238;stroke-linecap:round;stroke-miterlimit:10"></line><line x1="58.95" y1="399.52" x2="57.3" y2="398.46" style="fill:none;stroke:#263238;stroke-linecap:round;stroke-miterlimit:10"></line><line x1="60.97" y1="398.01" x2="60.06" y2="394.87" style="fill:none;stroke:#263238;stroke-linecap:round;stroke-miterlimit:10"></line><ellipse cx="64.36" cy="403.62" rx="6.32" ry="5.51" style="fill:#fff;stroke:#263238;stroke-linecap:round;stroke-miterlimit:10"></ellipse><path d="M124.08,388.9s4.06-1,2.89-1.68a5.29,5.29,0,0,0-2.77-.6s2.63-2.77,1.43-3.14-3.49.48-3.49.48,1.9-2.48.31-2.44a3.61,3.61,0,0,0-2.07.43s1.66-3.65.33-3.68a1.46,1.46,0,0,0-1.58.92s.24-1.66-.49-1.37-1.06,1.93-1.06,1.93-.4-3.39-1.33-2.85a2.44,2.44,0,0,0-1,1.76s-.43-1.1-.83-.61-.17,1.84-.17,1.84-1.51-1.81-2.2-1,0,3.62,0,3.62-3.56-4.47-4.11-3.29a2.93,2.93,0,0,0,0,2.3s-.81-.87-.7-.07a4.09,4.09,0,0,0,1.07,1.78s-3-2.39-4.1-1.43,3,3.54,3,3.54-3.44-.05-2.47,1,6.09,2,6.09,2-6,.16-5.63,1.7,6.31.48,6.31.48-.46,4.11.74,4.48,2.65-2.94,2.65-2.94.19,5.76,2.2,6.91,1.75-4.7,1.71-5.23,3.36.92,5.39.93.94-1.6.94-1.6,3.42.22,2.53-.65a11.3,11.3,0,0,0-3.12-1.69s2.85-.19,2-1.15A2.83,2.83,0,0,0,124.08,388.9Z" style="fill:#fff;stroke:#263238;stroke-linecap:round;stroke-miterlimit:10"></path><path d="M114.84,390.1a2.63,2.63,0,1,1,3.25-2.31A2.84,2.84,0,0,1,114.84,390.1Z" style="fill:#fff;stroke:#263238;stroke-linecap:round;stroke-miterlimit:10"></path><line x1="117.99" y1="386.94" x2="120.55" y2="385.93" style="fill:none;stroke:#263238;stroke-linecap:round;stroke-miterlimit:10"></line><line x1="118.44" y1="384.06" x2="118.72" y2="383.74" style="fill:none;stroke:#263238;stroke-linecap:round;stroke-miterlimit:10"></line><line x1="117.15" y1="385.54" x2="118.03" y2="384.53" style="fill:none;stroke:#263238;stroke-linecap:round;stroke-miterlimit:10"></line><line x1="113.21" y1="385.1" x2="112.35" y2="383.96" style="fill:none;stroke:#263238;stroke-linecap:round;stroke-miterlimit:10"></line><line x1="117.05" y1="389.5" x2="117.95" y2="391.35" style="fill:none;stroke:#263238;stroke-linecap:round;stroke-miterlimit:10"></line><line x1="121.26" y1="388.77" x2="121.88" y2="388.88" style="fill:none;stroke:#263238;stroke-linecap:round;stroke-miterlimit:10"></line><line x1="118.06" y1="388.18" x2="120.05" y2="388.54" style="fill:none;stroke:#263238;stroke-linecap:round;stroke-miterlimit:10"></line><line x1="110.42" y1="385.38" x2="109.87" y2="384.97" style="fill:none;stroke:#263238;stroke-linecap:round;stroke-miterlimit:10"></line><line x1="112.02" y1="386.58" x2="111.06" y2="385.86" style="fill:none;stroke:#263238;stroke-linecap:round;stroke-miterlimit:10"></line><line x1="114" y1="390.11" x2="113.76" y2="390.79" style="fill:none;stroke:#263238;stroke-linecap:round;stroke-miterlimit:10"></line><line x1="115.3" y1="384.93" x2="115.43" y2="383" style="fill:none;stroke:#263238;stroke-linecap:round;stroke-miterlimit:10"></line><path d="M98.11,365.33s1-4-1-5.55-5.54,1.59-5.54,1.59-3-4.44-4.6-1.91a10.69,10.69,0,0,0-1.74,4.12s-3.49-3.64-5.08-1.74-.63,2.85-.63,2.85-4.75-.31-5.07,1.11A2.44,2.44,0,0,0,75,368s-2.37.16-2.69,1.9a3.1,3.1,0,0,0,.63,2.7s-1.58,2.06-.79,2.53S75,376.58,75,376.58s-4,2.06-3.48,3.8A3.57,3.57,0,0,0,74,382.6s-1.74,1.75-.63,2.38a3,3,0,0,0,1.9.48s-1.11,1.58.48,2.06a5.19,5.19,0,0,0,2.69.15s-.63,1.91.32,2.38a4.23,4.23,0,0,0,2.38.16,1.77,1.77,0,0,0,.79,2.54,3.73,3.73,0,0,0,3.17,0s.16,2.37,1.27,2.06a6.41,6.41,0,0,0,2.21-1.43s-.47,1.11,1.27,1.11,2.38-2.06,2.38-2.06,1.58,2.06,2.85,1.58a1.79,1.79,0,0,0,1.27-1.58s.95,1.43,2.06.95a3.3,3.3,0,0,0,1.43-.95s.31,1.11,1.9,0,1.58-2.22,1.58-2.22,1.75,0,2.22-1.27a3.55,3.55,0,0,0,.16-2.22s2.22-1.74,2.06-3.8-.63-2.22-.63-2.22,1.9-2.53,1.74-3.64l-.16-1.11s1.59-1.91.32-3.33-2.22-1.43-2.22-1.43,1.43-2.85,0-3.33-4.12.64-4.12.64S104.45,360.57,98.11,365.33Z" style="fill:#FF725E;stroke:#263238;stroke-linecap:round;stroke-miterlimit:10"></path><path d="M79.12,374.77c-.31,0-2.23.1-1.42,1.11a6.7,6.7,0,0,0,3,1.51s-3.95,1.12-3.24,2.53,3.94.91,3.94.91" style="fill:none;stroke:#263238;stroke-linecap:round;stroke-miterlimit:10"></path><path d="M82.25,382.65s-3.13,3.54-1.41,4.75,4.34-1.92,4.34-1.92-.91,1.11.1.91S88,383.76,88,383.76s-2.52,7.18-.4,7.58S90.44,387,90.44,387s.4,4.65,2.53,3.43,1.41-4.95,1.41-4.95" style="fill:none;stroke:#263238;stroke-linecap:round;stroke-miterlimit:10"></path><path d="M99.54,381.44s7.78.71,7.48-1.52-4.25-2.53-4.25-2.53,5.86-.7,5-2.73" style="fill:none;stroke:#263238;stroke-linecap:round;stroke-miterlimit:10"></path><path d="M94.69,386s5.15,7.88,7.37,3.84-2.83-7.38-2.83-7.38" style="fill:none;stroke:#263238;stroke-linecap:round;stroke-miterlimit:10"></path><path d="M83.06,374.56s-5.56-2.93-5-3.74,3.84-.1,3.84-.1-4.25-5.05-3.64-5.56,5.25,2,5.25,2S80.23,363,81.24,363s4.35,4.45,4.35,4.45" style="fill:none;stroke:#263238;stroke-linecap:round;stroke-miterlimit:10"></path><line x1="90.81" y1="366.07" x2="90.84" y2="365.06" style="fill:none;stroke:#263238;stroke-linecap:round;stroke-miterlimit:10"></line><line x1="90.64" y1="372.04" x2="90.78" y2="367.18" style="fill:none;stroke:#263238;stroke-linecap:round;stroke-miterlimit:10"></line><line x1="98.19" y1="371.09" x2="98.63" y2="370.62" style="fill:none;stroke:#263238;stroke-linecap:round;stroke-miterlimit:10"></line><line x1="95.7" y1="373.76" x2="97.65" y2="371.67" style="fill:none;stroke:#263238;stroke-linecap:round;stroke-miterlimit:10"></line><line x1="99.96" y1="379.33" x2="100.75" y2="379.52" style="fill:none;stroke:#263238;stroke-linecap:round;stroke-miterlimit:10"></line><line x1="96.5" y1="378.51" x2="99.32" y2="379.18" style="fill:none;stroke:#263238;stroke-linecap:round;stroke-miterlimit:10"></line><line x1="92.26" y1="382.35" x2="92.26" y2="384.87" style="fill:none;stroke:#263238;stroke-linecap:round;stroke-miterlimit:10"></line><line x1="85.59" y1="380.43" x2="84.27" y2="382.35" style="fill:none;stroke:#263238;stroke-linecap:round;stroke-miterlimit:10"></line><line x1="83.64" y1="371.88" x2="83.26" y2="371.63" style="fill:none;stroke:#263238;stroke-linecap:round;stroke-miterlimit:10"></line><line x1="86.09" y1="373.45" x2="84.44" y2="372.39" style="fill:none;stroke:#263238;stroke-linecap:round;stroke-miterlimit:10"></line><line x1="88.11" y1="371.94" x2="87.2" y2="368.8" style="fill:none;stroke:#263238;stroke-linecap:round;stroke-miterlimit:10"></line><path d="M97.82,377.55c0,3-2.83,5.5-6.32,5.5s-6.32-2.46-6.32-5.5S88,372,91.5,372,97.82,374.5,97.82,377.55Z" style="fill:#fff;stroke:#263238;stroke-linecap:round;stroke-miterlimit:10"></path></g><g id="freepik--Glasses--inject-2"><path d="M208.86,281.25H195.58a2.69,2.69,0,0,1-2.7-2.69l.94-34.23h16.81l.93,34.23A2.69,2.69,0,0,1,208.86,281.25Z" style="fill:#fff;stroke:#263238;stroke-linecap:round;stroke-linejoin:round"></path><line x1="194.97" y1="278.97" x2="209.73" y2="278.97" style="fill:none;stroke:#263238;stroke-linecap:round;stroke-linejoin:round"></line><line x1="208.52" y1="271.83" x2="208.64" y2="276.6" style="fill:none;stroke:#263238;stroke-linecap:round;stroke-linejoin:round"></line><line x1="207.85" y1="246.58" x2="208.44" y2="268.85" style="fill:none;stroke:#263238;stroke-linecap:round;stroke-linejoin:round"></line><path d="M187,281.25H173.71a2.69,2.69,0,0,1-2.7-2.69l.94-34.23h16.81l.93,34.23A2.68,2.68,0,0,1,187,281.25Z" style="fill:#fff;stroke:#263238;stroke-linecap:round;stroke-linejoin:round"></path><line x1="173.1" y1="278.97" x2="187.86" y2="278.97" style="fill:none;stroke:#263238;stroke-linecap:round;stroke-linejoin:round"></line><line x1="185.97" y1="256.32" x2="186.37" y2="276.6" style="fill:none;stroke:#263238;stroke-linecap:round;stroke-linejoin:round"></line><line x1="185.78" y1="246.98" x2="185.9" y2="253.14" style="fill:none;stroke:#263238;stroke-linecap:round;stroke-linejoin:round"></line><path d="M165.13,281.25H151.84a2.68,2.68,0,0,1-2.69-2.69l.93-34.23h16.81l.94,34.23A2.69,2.69,0,0,1,165.13,281.25Z" style="fill:#fff;stroke:#263238;stroke-linecap:round;stroke-linejoin:round"></path><line x1="151.24" y1="278.97" x2="166" y2="278.97" style="fill:none;stroke:#263238;stroke-linecap:round;stroke-linejoin:round"></line><line x1="164.28" y1="260.91" x2="164.7" y2="276.6" style="fill:none;stroke:#263238;stroke-linecap:round;stroke-linejoin:round"></line><line x1="163.91" y1="246.98" x2="164.15" y2="255.92" style="fill:none;stroke:#263238;stroke-linecap:round;stroke-linejoin:round"></line></g><g id="freepik--lemonade-pitcher--inject-2"><path d="M319.6,213.13a9.65,9.65,0,0,0-3.12-1.09c-1.08,0-6.1.68-5,2.44s3.25,2.44,4.74,3.53,2.17,4.34,2,10,0,7.05-2,10.3-6.51,8-8.13,13,2.16,17.22,4.47,22.23a13.91,13.91,0,0,0,7.32,7.46,19.52,19.52,0,0,0,5,1.09H343.6s1.89.27,5.56-3.26,6.91-13.69,7.45-17.22.27-7.72-2.44-13.42-8.13-13-8-16.4-.13-6.92.68-9.9,2.31-6,1.9-6.1-13.69-2-15.05-1.9-4.75,2.85-8.27,2.31A10.83,10.83,0,0,1,319.6,213.13Z" style="fill:none;stroke:#263238;stroke-linecap:round;stroke-linejoin:round"></path><path d="M344.81,232.6c.05-1.25,0-2.51.06-3.76H319.52c0,.11,0,.21,0,.32-.12,5.16,0,6.39-1.84,9.34s-6.69,8.11-8.24,12.9,1.84,16.18,4,21a13.25,13.25,0,0,0,7,7.11,18.27,18.27,0,0,0,4.78,1h17.84s1.81.26,5.3-3.1S355,264.35,355.48,261s.26-6.84-2.33-12.27S344.69,235.67,344.81,232.6Z" style="fill:#FF725E"></path><path d="M365.42,233.6a11.57,11.57,0,0,0-9.62-10.71c-4.11-.65-8,1.46-9.46,2.34-.16,2.13-.08,4.4-.17,6.61a5.37,5.37,0,0,0,.27,1.7l.41-.75c.95-1.77.41-3.8,2.71-6s6.1-1.9,9.36.54,4.47,7.6,2,15c-1.61,4.92-4.34,6.83-6,7.56a22.61,22.61,0,0,1,1.9,9,27.38,27.38,0,0,0,4.52-5.94C363.8,248.65,366,239.29,365.42,233.6Z" style="fill:none;stroke:#263238;stroke-linecap:round;stroke-linejoin:round"></path><line x1="317.29" y1="278.61" x2="347.8" y2="278.61" style="fill:none;stroke:#263238;stroke-linecap:round;stroke-linejoin:round"></line><path d="M332.85,250.38c0,1.73-4,3.13-9,3.13s-9-1.4-9-3.13,4-3.14,9-3.14S332.85,248.64,332.85,250.38Z" style="fill:#fff"></path><path d="M344,251.39c0,.61-1.09,1.11-2.43,1.11s-2.43-.5-2.43-1.11,1.09-1.12,2.43-1.12S344,250.77,344,251.39Z" style="fill:#fff"></path><path d="M346.82,242.6a24.68,24.68,0,0,1,6,18.3c-.58,8.33-7,15.5-7,15.5" style="fill:none;stroke:#263238;stroke-linecap:round;stroke-linejoin:round"></path><path d="M345,240.22a10,10,0,0,1-1.59-3.78" style="fill:none;stroke:#263238;stroke-linecap:round;stroke-linejoin:round"></path></g><g id="freepik--Character--inject-2"><path d="M238.58,147.26a25.82,25.82,0,0,0-4.84,3.39,47.65,47.65,0,0,0-7.16,7.18c-.3.4-.59.8-.87,1.21a17.13,17.13,0,0,0-1.61,2.9c-3,7.26-.44,15.43-.6,18.47s-.34,5.41-1.52,6.93-4.9,3.54-5.07,6.41,4.73,2.87,4.22,4.73-2.87,2.2-3.21,4.05a6.66,6.66,0,0,0,.68,4.9c.84,1.18,54.2,12,54.2,12a6.41,6.41,0,0,0,1.19-5.91c-1-3.55-2.88-5.74-2.71-6.42s6.76-1.69,6.42-5.57-3.21-5.74-3.71-7.94-2.54-15.7-3.21-24.31-1.26-11.45-6.16-16.85c-3.63-4-9.61-5.83-14.81-6.44a25.68,25.68,0,0,0-7.73.05A13,13,0,0,0,238.58,147.26Z" style="fill:#263238;stroke:#263238;stroke-linecap:round;stroke-linejoin:round"></path><path d="M231.64,160.8s1.87-11,14.57-12.9,18.53,13.53,18.53,13.53-7.29-12.08-18.32-10.41S231.64,160.8,231.64,160.8Z" style="fill:#fff;stroke:#263238;stroke-linecap:round;stroke-linejoin:round"></path><path d="M284.07,275.42s2.52,8.19,2.33,13.34-.19,25.37-.19,25.37a34.6,34.6,0,0,1,1.91,7.44c.19,2.86-3.05,11.63-3.43,12.21s-3.06-5.53-4.39-11.45-8.58-34.33-9.16-38.15a46.08,46.08,0,0,1-.44-7.46Z" style="fill:#fff;stroke:#263238;stroke-linecap:round;stroke-linejoin:round"></path><path d="M285.83,321.19a37.23,37.23,0,0,1,.19,5.34c-.19,1.52-1.33,7.25-1.33,7.25s-2.29-.58-2.1-2.67a28.1,28.1,0,0,1,.76-4.2s-1.91-3.81-1.91-6.29" style="fill:#fff;stroke:#263238;stroke-linecap:round;stroke-linejoin:round"></path><path d="M272.19,216.49s9.33.5,11.18,11.09.7,33.54.52,34.47.18,13.37.18,13.37-4.27,2-6.31,2-7.06-.74-7.06-.74l-2-60.79Z" style="fill:#FF725E;stroke:#263238;stroke-linecap:round;stroke-linejoin:round"></path><path d="M219.48,377.88A144.31,144.31,0,0,0,219,403.7c1.09,13.45,3.48,25.17,3.69,27.78s-.86,3.9-3.69,7.59-9.11,6.51-10,11.28,3.26-.39,9.33-.39,9.12,4.3,11.07,1.91,7.16-4.12,8-7.16-.43-9.11-.65-11.28-.87-21.7.87-28,1.73-18,1.73-21.92v-5Z" style="fill:#fff;stroke:#263238;stroke-linecap:round;stroke-linejoin:round"></path><path d="M237.49,444.71c.67-2.36,0-6.55-.38-9.32a8.67,8.67,0,0,1-3.74,1.94,30.46,30.46,0,0,0-5.65-5c-3.25-2.17-5.42,2.17-5.42,2.17h-.11a28.4,28.4,0,0,1-3.15,4.56c-2.82,3.69-9.11,6.51-10,11.28s2.15,7.67,8.22,7.67,10.23-3.76,12.18-6.15S236.62,447.75,237.49,444.71Z" style="fill:#FF725E;stroke:#263238;stroke-linecap:round;stroke-linejoin:round"></path><path d="M237.66,443.86a11,11,0,0,1-3.21,1.5c-3,.65-7.81,8.9-14.75,10.64-6.28,1.57-10.06-3.05-10.74-4,.28,3.84,3,6,8.32,6,6.08,0,10.23-3.76,12.18-6.15s7.16-4.12,8-7.16A6.72,6.72,0,0,0,237.66,443.86Z" style="fill:#fff;stroke:#263238;stroke-linecap:round;stroke-linejoin:round"></path><path d="M269.28,377.88a143.79,143.79,0,0,1,.43,25.82c-1.08,13.45-3.47,25.17-3.69,27.78s.87,3.9,3.69,7.59,9.11,6.51,10,11.28-3.25-.39-9.33-.39-9.11,4.3-11.07,1.91-7.16-4.12-8-7.16.43-9.11.65-11.28.86-21.7-.87-28-1.74-18-1.74-21.92v-5Z" style="fill:#fff;stroke:#263238;stroke-linecap:round;stroke-linejoin:round"></path><path d="M251.27,444.71c-.68-2.36,0-6.55.38-9.32a8.61,8.61,0,0,0,3.74,1.94,30.59,30.59,0,0,1,5.64-5c3.26-2.17,5.43,2.17,5.43,2.17h.1a29.81,29.81,0,0,0,3.15,4.56c2.82,3.69,9.11,6.51,10,11.28s-3.1,7.39-8.06,7.39a16.29,16.29,0,0,1-12.34-5.87C257.34,449.49,252.13,447.75,251.27,444.71Z" style="fill:#FF725E;stroke:#263238;stroke-linecap:round;stroke-linejoin:round"></path><path d="M251.09,443.86a11.15,11.15,0,0,0,3.21,1.5c3,.65,7.82,8.9,14.76,10.64,6.27,1.57,10.06-3.05,10.73-4-.27,3.84-3.82,5.84-9.15,5.84-6.07,0-9.39-3.62-11.35-6s-7.16-4.12-8-7.16A6.69,6.69,0,0,1,251.09,443.86Z" style="fill:#fff;stroke:#263238;stroke-linecap:round;stroke-linejoin:round"></path><path d="M273.69,225s-2.2,37.78-2.2,39.83a17.62,17.62,0,0,0,.58,5.25c.58,2.48,21.89,106,21.89,106s-2.92,3.5-6,4.67-7.15-1.17-7.59-1-2,2.91-11.82,4.23-15-1.17-15.76-1.32-3.07.88-9.05,2.34-16-1.61-17.8-1.75-3.8,1.6-10.8,0C201.77,380.11,195,373.12,195,373.12s.14-1.9.29-3.07,1.17-12.84,2.62-26.41,20.44-83,20.44-83S218,233,218,232s-1.9-3.35-1.9-3.35-13.1,1.25-13.69,1.1-4.81-1-6.27-4.08,2-17.37,2.7-17.66,13-1.62,13-1.62,1.71-.39,5.43-1.57c5.43-1.74,12.13.07,12.13.07s6.5.2,7.52-1.7.94-12.31.94-12.31a37.6,37.6,0,0,0,11.24,2.77c5.54.29,8.17-1,8.17-1s-.84,9.39-.7,12.6,2.57,2.84,5.81,5.06a110.37,110.37,0,0,0,11.56,6.6" style="fill:#FF725E;stroke:#263238;stroke-linecap:round;stroke-linejoin:round"></path><path d="M207.93,213.9s.67,6.66-1.78,12" style="fill:none;stroke:#263238;stroke-linecap:round;stroke-linejoin:round"></path><path d="M256.54,204.3c-.15-3.21.79-11.68.79-11.68s-2.63,1.31-8.17,1a37.6,37.6,0,0,1-11.24-2.77s.08,10.42-.94,12.31c-.76,1.42-4.95,1.13-6.6,1.5a20.94,20.94,0,0,1,1.7,6.47c.59,5.26,2.22,13.55,2.22,13.55l28.27,4.49a134.14,134.14,0,0,0,1-14.54c0-1.23-.12-2.46-.22-3.61-.36-.27-.69-.53-.95-.76C259.52,207.65,256.68,207.51,256.54,204.3Z" style="fill:#fff;stroke:#263238;stroke-linecap:round;stroke-linejoin:round"></path><path d="M233.21,206.79s8.74,2.6,9.86,3.35" style="fill:none;stroke:#263238;stroke-linecap:round;stroke-linejoin:round"></path><line x1="261.47" y1="212.85" x2="254.21" y2="212.85" style="fill:none;stroke:#263238;stroke-linecap:round;stroke-linejoin:round"></line><path d="M232.14,173.5s-2.78-.8-2.92,2.39,4,5.7,4,5.7Z" style="fill:#fff;stroke:#263238;stroke-linecap:round;stroke-linejoin:round"></path><path d="M262.76,173.41s2.75-.91,3,2.27-3.76,5.86-3.76,5.86Z" style="fill:#fff;stroke:#263238;stroke-linecap:round;stroke-linejoin:round"></path><path d="M242.63,156.4s-10.07,6.74-10.73,9.52.69,20.13,2.79,23.15c4.12,5.94,9,8.87,12.1,9.23a5.24,5.24,0,0,0,4-.69c1.19-.53,9.22-4.09,11.08-9,1.09-2.9,2.14-16.82,2.14-16.82a86.38,86.38,0,0,0-7.72-6.64C252.92,162.63,242.63,156.4,242.63,156.4Z" style="fill:#fff;stroke:#263238;stroke-linecap:round;stroke-linejoin:round"></path><path d="M237,170.16a6.63,6.63,0,0,1,7-.53" style="fill:none;stroke:#263238;stroke-linecap:round;stroke-linejoin:round"></path><path d="M251.78,169.77a6.89,6.89,0,0,1,7,.94" style="fill:none;stroke:#263238;stroke-linecap:round;stroke-linejoin:round"></path><path d="M245.55,180.19s2.11,3.49,5.77-.16" style="fill:none;stroke:#263238;stroke-linecap:round;stroke-linejoin:round"></path><path d="M253.93,184.06a10.1,10.1,0,0,1-11.49-.31s.81,5.39,5.84,5.41C253,189.18,253.93,184.06,253.93,184.06Z" style="fill:#fff;stroke:#263238;stroke-linecap:round;stroke-linejoin:round"></path><ellipse cx="242.22" cy="174.54" rx="1.06" ry="1.53" style="fill:#263238"></ellipse><path d="M255.14,174.79c0,.85-.48,1.53-1.06,1.53s-1.07-.68-1.07-1.53.48-1.52,1.07-1.52S255.14,174,255.14,174.79Z" style="fill:#263238"></path><path d="M186.38,201.14s.15,14.16,1.46,19.12,8.32,9.63,11.09,9.19,7.44-7.59,6.86-12S200.1,199,200.1,199Z" style="fill:#fff;stroke:#263238;stroke-linecap:round;stroke-linejoin:round"></path><polygon points="191.24 187.19 189.3 186.69 199.69 147.43 201.62 147.92 191.24 187.19" style="fill:#fff;stroke:#263238;stroke-linecap:round;stroke-linejoin:round"></polygon><polygon points="195.28 187.5 193.37 186.91 204.15 151.05 206.06 151.64 195.28 187.5" style="fill:#FF725E;stroke:#263238;stroke-linecap:round;stroke-linejoin:round"></polygon><path d="M198.86,208H185.58a2.7,2.7,0,0,1-2.7-2.7l.93-34.22h16.81l.94,34.22A2.7,2.7,0,0,1,198.86,208Z" style="fill:#fff;stroke:#263238;stroke-linecap:round;stroke-linejoin:round"></path><path d="M184.44,175.05,183.65,204a2.48,2.48,0,0,0,2.48,2.47h12.18a2.48,2.48,0,0,0,2.48-2.47L200,175.05Z" style="fill:#FF725E"></path><line x1="183.65" y1="204" x2="200.79" y2="204" style="fill:none;stroke:#263238;stroke-linecap:round;stroke-linejoin:round"></line><path d="M182.92,183.92s-3-.72-4,.44-.54,2.94.44,3.3a9.51,9.51,0,0,0,4.72-.18,2.53,2.53,0,0,0,.62-2.85C184.26,183.92,182.92,183.92,182.92,183.92Z" style="fill:#fff;stroke:#263238;stroke-linecap:round;stroke-linejoin:round"></path><path d="M182.28,188.39s-3-.71-4,.44-.54,2.94.44,3.3a9.39,9.39,0,0,0,4.72-.18,2.55,2.55,0,0,0,.63-2.85C183.62,188.39,182.28,188.39,182.28,188.39Z" style="fill:#fff;stroke:#263238;stroke-linecap:round;stroke-linejoin:round"></path><path d="M182.92,193s-3-.71-4,.44-.54,2.94.44,3.3a9.51,9.51,0,0,0,4.72-.18,2.53,2.53,0,0,0,.62-2.85C184.26,193,182.92,193,182.92,193Z" style="fill:#fff;stroke:#263238;stroke-linecap:round;stroke-linejoin:round"></path><path d="M183,197.12s-2.31-.54-3.06.34a1.65,1.65,0,0,0,.34,2.52,7.36,7.36,0,0,0,3.61-.13,2,2,0,0,0,.47-2.18C184,197.12,183,197.12,183,197.12Z" style="fill:#fff;stroke:#263238;stroke-linecap:round;stroke-linejoin:round"></path><path d="M201.57,184.35a1.9,1.9,0,0,1,2-.26c1,.53,1.44,1.84,1.57,3.15s.26,3.4-1.31,3.79a1.92,1.92,0,0,1-2.23-.91Z" style="fill:#fff;stroke:#263238;stroke-linecap:round;stroke-linejoin:round"></path><circle cx="248.56" cy="277.4" r="1.53" style="fill:#263238;stroke:#263238;stroke-linecap:round;stroke-linejoin:round"></circle><path d="M250.58,290.36a1.54,1.54,0,1,1-1.59-1.47A1.53,1.53,0,0,1,250.58,290.36Z" style="fill:#263238;stroke:#263238;stroke-linecap:round;stroke-linejoin:round"></path><path d="M251.06,303.39a1.53,1.53,0,1,1-1.59-1.48A1.53,1.53,0,0,1,251.06,303.39Z" style="fill:#263238;stroke:#263238;stroke-linecap:round;stroke-linejoin:round"></path><path d="M251.54,316.41a1.53,1.53,0,1,1-1.58-1.48A1.53,1.53,0,0,1,251.54,316.41Z" style="fill:#263238;stroke:#263238;stroke-linecap:round;stroke-linejoin:round"></path><path d="M252,329.43a1.53,1.53,0,1,1-1.59-1.47A1.53,1.53,0,0,1,252,329.43Z" style="fill:#263238;stroke:#263238;stroke-linecap:round;stroke-linejoin:round"></path><path d="M252.51,342.45a1.53,1.53,0,1,1-1.58-1.47A1.52,1.52,0,0,1,252.51,342.45Z" style="fill:#263238;stroke:#263238;stroke-linecap:round;stroke-linejoin:round"></path><path d="M253,355.48a1.53,1.53,0,1,1-1.59-1.48A1.53,1.53,0,0,1,253,355.48Z" style="fill:#263238;stroke:#263238;stroke-linecap:round;stroke-linejoin:round"></path><circle cx="251.95" cy="368.56" r="1.53" style="fill:#263238;stroke:#263238;stroke-linecap:round;stroke-linejoin:round"></circle><path d="M233.22,263.87c10.33,1.95,24.16,4,35.07,3.46" style="fill:none;stroke:#263238;stroke-linecap:round;stroke-linejoin:round"></path><path d="M218.34,260.65s4.43,1.13,11,2.46" style="fill:none;stroke:#263238;stroke-linecap:round;stroke-linejoin:round"></path><line x1="222.45" y1="300.46" x2="222.09" y2="304.97" style="fill:none;stroke:#263238;stroke-linecap:round;stroke-linejoin:round"></line><line x1="222.71" y1="297.34" x2="225.34" y2="265.04" style="fill:none;stroke:#263238;stroke-linecap:round;stroke-linejoin:round"></line><line x1="227.51" y1="265.48" x2="227.73" y2="291.3" style="fill:none;stroke:#263238;stroke-linecap:round;stroke-linejoin:round"></line><line x1="263.02" y1="307.36" x2="263.1" y2="315.38" style="fill:none;stroke:#263238;stroke-linecap:round;stroke-linejoin:round"></line><line x1="262.67" y1="270.25" x2="262.99" y2="303.81" style="fill:none;stroke:#263238;stroke-linecap:round;stroke-linejoin:round"></line><line x1="265.05" y1="270.25" x2="266.79" y2="295.2" style="fill:none;stroke:#263238;stroke-linecap:round;stroke-linejoin:round"></line><path d="M206.65,210.69a33.34,33.34,0,0,1,3.72,16" style="fill:none;stroke:#263238;stroke-linecap:round;stroke-linejoin:round"></path><line x1="198.58" y1="184.15" x2="199.3" y2="201.25" style="fill:none;stroke:#263238;stroke-linecap:round;stroke-linejoin:round"></line><line x1="198.1" y1="172.82" x2="198.42" y2="180.37" style="fill:none;stroke:#263238;stroke-linecap:round;stroke-linejoin:round"></line></g><g id="freepik--Stand--inject-2"><rect x="132.4" y="92.23" width="10.82" height="189.22" style="fill:#a8a8a8;stroke:#263238;stroke-linecap:round;stroke-linejoin:round"></rect><rect x="375.22" y="92.23" width="10.82" height="189.22" style="fill:#a8a8a8;stroke:#263238;stroke-linecap:round;stroke-linejoin:round"></rect><rect x="132.4" y="92.23" width="10.82" height="31.59" style="fill:#263238;stroke:#263238;stroke-linecap:round;stroke-linejoin:round"></rect><rect x="375.22" y="92.23" width="10.82" height="31.59" style="fill:#263238;stroke:#263238;stroke-linecap:round;stroke-linejoin:round"></rect><polygon points="153.63 37.39 133.32 37.39 111.85 87.7 135.75 87.7 153.63 37.39" style="fill:#FF725E;stroke:#263238;stroke-linecap:round;stroke-linejoin:round"></polygon><polygon points="173.9 37.39 153.59 37.39 135.7 87.7 159.59 87.7 173.9 37.39" style="fill:#fff;stroke:#263238;stroke-linecap:round;stroke-linejoin:round"></polygon><polygon points="194.16 37.39 173.85 37.39 159.54 87.7 183.44 87.7 194.16 37.39" style="fill:#FF725E;stroke:#263238;stroke-linecap:round;stroke-linejoin:round"></polygon><polygon points="214.43 37.39 194.12 37.39 183.39 87.7 207.28 87.7 214.43 37.39" style="fill:#fff;stroke:#263238;stroke-linecap:round;stroke-linejoin:round"></polygon><polygon points="234.7 37.39 214.39 37.39 207.23 87.7 231.13 87.7 234.7 37.39" style="fill:#FF725E;stroke:#263238;stroke-linecap:round;stroke-linejoin:round"></polygon><polygon points="254.97 37.39 234.66 37.39 231.07 87.7 254.97 87.7 254.97 37.39" style="fill:#fff;stroke:#263238;stroke-linecap:round;stroke-linejoin:round"></polygon><polygon points="275.24 37.39 254.92 37.39 254.92 87.7 278.81 87.7 275.24 37.39" style="fill:#FF725E;stroke:#263238;stroke-linecap:round;stroke-linejoin:round"></polygon><polygon points="295.5 37.39 275.19 37.39 278.76 87.7 302.66 87.7 295.5 37.39" style="fill:#fff;stroke:#263238;stroke-linecap:round;stroke-linejoin:round"></polygon><polygon points="315.77 37.39 295.46 37.39 302.61 87.7 326.5 87.7 315.77 37.39" style="fill:#FF725E;stroke:#263238;stroke-linecap:round;stroke-linejoin:round"></polygon><polygon points="336.04 37.39 315.73 37.39 326.45 87.7 350.35 87.7 336.04 37.39" style="fill:#fff;stroke:#263238;stroke-linecap:round;stroke-linejoin:round"></polygon><polygon points="356.31 37.39 335.99 37.39 350.3 87.7 374.19 87.7 356.31 37.39" style="fill:#FF725E;stroke:#263238;stroke-linecap:round;stroke-linejoin:round"></polygon><polygon points="376.57 37.39 356.26 37.39 374.14 87.7 398.04 87.7 376.57 37.39" style="fill:#fff;stroke:#263238;stroke-linecap:round;stroke-linejoin:round"></polygon><path d="M111.85,87.25h23.9a0,0,0,0,1,0,0V99.32a10.32,10.32,0,0,1-10.32,10.32h-3.25a10.32,10.32,0,0,1-10.32-10.32V87.25A0,0,0,0,1,111.85,87.25Z" style="fill:#FF725E;stroke:#263238;stroke-linecap:round;stroke-linejoin:round"></path><path d="M135.7,87.25h23.9a0,0,0,0,1,0,0V99.32a10.32,10.32,0,0,1-10.32,10.32H146A10.32,10.32,0,0,1,135.7,99.32V87.25A0,0,0,0,1,135.7,87.25Z" style="fill:#cfcfcf;stroke:#263238;stroke-linecap:round;stroke-linejoin:round"></path><path d="M159.54,87.25h23.9a0,0,0,0,1,0,0V99.32a10.32,10.32,0,0,1-10.32,10.32h-3.25a10.32,10.32,0,0,1-10.32-10.32V87.25A0,0,0,0,1,159.54,87.25Z" style="fill:#FF725E;stroke:#263238;stroke-linecap:round;stroke-linejoin:round"></path><path d="M183.39,87.25h23.9a0,0,0,0,1,0,0V99.32A10.32,10.32,0,0,1,197,109.65h-3.25a10.32,10.32,0,0,1-10.32-10.32V87.25A0,0,0,0,1,183.39,87.25Z" style="fill:#cfcfcf;stroke:#263238;stroke-linecap:round;stroke-linejoin:round"></path><path d="M207.23,87.25h23.9a0,0,0,0,1,0,0V99.32a10.32,10.32,0,0,1-10.32,10.32h-3.25a10.32,10.32,0,0,1-10.32-10.32V87.25A0,0,0,0,1,207.23,87.25Z" style="fill:#FF725E;stroke:#263238;stroke-linecap:round;stroke-linejoin:round"></path><path d="M231.07,87.25H255a0,0,0,0,1,0,0V99.32a10.32,10.32,0,0,1-10.32,10.32H241.4a10.32,10.32,0,0,1-10.32-10.32V87.25A0,0,0,0,1,231.07,87.25Z" style="fill:#cfcfcf;stroke:#263238;stroke-linecap:round;stroke-linejoin:round"></path><path d="M254.92,87.25h23.9a0,0,0,0,1,0,0V99.32a10.32,10.32,0,0,1-10.32,10.32h-3.25a10.32,10.32,0,0,1-10.32-10.32V87.25a0,0,0,0,1,0,0Z" style="fill:#FF725E;stroke:#263238;stroke-linecap:round;stroke-linejoin:round"></path><path d="M278.76,87.25h23.9a0,0,0,0,1,0,0V99.32a10.32,10.32,0,0,1-10.32,10.32h-3.25a10.32,10.32,0,0,1-10.32-10.32V87.25A0,0,0,0,1,278.76,87.25Z" style="fill:#cfcfcf;stroke:#263238;stroke-linecap:round;stroke-linejoin:round"></path><path d="M302.61,87.25h23.9a0,0,0,0,1,0,0V99.32a10.32,10.32,0,0,1-10.32,10.32h-3.25a10.32,10.32,0,0,1-10.32-10.32V87.25A0,0,0,0,1,302.61,87.25Z" style="fill:#FF725E;stroke:#263238;stroke-linecap:round;stroke-linejoin:round"></path><path d="M326.45,87.25h23.9a0,0,0,0,1,0,0V99.32A10.32,10.32,0,0,1,340,109.65h-3.25a10.32,10.32,0,0,1-10.32-10.32V87.25A0,0,0,0,1,326.45,87.25Z" style="fill:#cfcfcf;stroke:#263238;stroke-linecap:round;stroke-linejoin:round"></path><path d="M350.3,87.25h23.9a0,0,0,0,1,0,0V99.32a10.32,10.32,0,0,1-10.32,10.32h-3.25A10.32,10.32,0,0,1,350.3,99.32V87.25A0,0,0,0,1,350.3,87.25Z" style="fill:#FF725E;stroke:#263238;stroke-linecap:round;stroke-linejoin:round"></path><path d="M374.14,87.25H398a0,0,0,0,1,0,0V99.32a10.32,10.32,0,0,1-10.32,10.32h-3.25a10.32,10.32,0,0,1-10.32-10.32V87.25A0,0,0,0,1,374.14,87.25Z" style="fill:#cfcfcf;stroke:#263238;stroke-linecap:round;stroke-linejoin:round"></path><rect x="131.15" y="285.59" width="21.4" height="176.18" style="fill:#fff;stroke:#263238;stroke-linecap:round;stroke-linejoin:round"></rect><rect x="152.55" y="285.59" width="21.4" height="176.18" style="fill:#FF725E;stroke:#263238;stroke-linecap:round;stroke-linejoin:round"></rect><rect x="173.95" y="285.59" width="21.4" height="176.18" style="fill:#fff;stroke:#263238;stroke-linecap:round;stroke-linejoin:round"></rect><rect x="195.35" y="285.59" width="21.4" height="176.18" style="fill:#FF725E;stroke:#263238;stroke-linecap:round;stroke-linejoin:round"></rect><rect x="216.75" y="285.59" width="21.4" height="176.18" style="fill:#fff;stroke:#263238;stroke-linecap:round;stroke-linejoin:round"></rect><rect x="238.16" y="285.59" width="21.4" height="176.18" style="fill:#FF725E;stroke:#263238;stroke-linecap:round;stroke-linejoin:round"></rect><rect x="259.56" y="285.59" width="21.4" height="176.18" style="fill:#fff;stroke:#263238;stroke-linecap:round;stroke-linejoin:round"></rect><rect x="280.96" y="285.59" width="21.4" height="176.18" style="fill:#FF725E;stroke:#263238;stroke-linecap:round;stroke-linejoin:round"></rect><rect x="302.36" y="285.59" width="21.4" height="176.18" style="fill:#fff;stroke:#263238;stroke-linecap:round;stroke-linejoin:round"></rect><rect x="323.76" y="285.59" width="21.4" height="176.18" style="fill:#FF725E;stroke:#263238;stroke-linecap:round;stroke-linejoin:round"></rect><rect x="345.16" y="285.59" width="21.4" height="176.18" style="fill:#fff;stroke:#263238;stroke-linecap:round;stroke-linejoin:round"></rect><rect x="366.57" y="285.59" width="21.4" height="176.18" style="fill:#FF725E;stroke:#263238;stroke-linecap:round;stroke-linejoin:round"></rect><rect x="131.24" y="286.76" width="256.34" height="3.06" style="fill:#263238;stroke:#263238;stroke-linecap:round;stroke-linejoin:round"></rect><rect x="125.17" y="281.27" width="268.78" height="5.05" style="fill:#fff;stroke:#263238;stroke-linecap:round;stroke-linejoin:round"></rect><circle cx="335.88" cy="421.17" r="31.23" style="fill:#FF725E;stroke:#263238;stroke-linecap:round;stroke-linejoin:round"></circle><path d="M330.87,393.31a3.24,3.24,0,0,0-1.17.84c-1.25,1.45-.41,3.79-.13,5.45a70.35,70.35,0,0,0,3.13,11.85c.51,1.42,2.42,8.73,4.62,5.32,1.84-2.86,2.85-6.48,3.83-9.7,1.11-3.65,2.33-7.62,2.33-11.47,0-1.42-1.44-2.14-2.63-2.49a17.66,17.66,0,0,0-6.87-.42A11.08,11.08,0,0,0,330.87,393.31Z" style="fill:#fff;stroke:#263238;stroke-linecap:round;stroke-linejoin:round"></path><path d="M312.64,405a3.3,3.3,0,0,0-.24,1.42c.14,1.92,2.39,3,3.77,3.95a69.82,69.82,0,0,0,10.58,6.16c1.37.65,7.88,4.47,7,.5-.72-3.33-2.56-6.59-4.15-9.56-1.79-3.37-3.73-7-6.46-9.77-1-1-2.53-.49-3.62.1a17.69,17.69,0,0,0-5.15,4.56A11.26,11.26,0,0,0,312.64,405Z" style="fill:#fff;stroke:#263238;stroke-linecap:round;stroke-linejoin:round"></path><path d="M308,426.18a3.3,3.3,0,0,0,.83,1.17c1.46,1.25,3.79.4,5.46.13a70,70,0,0,0,11.84-3.13c1.42-.51,8.73-2.42,5.32-4.62-2.86-1.84-6.47-2.85-9.69-3.83-3.65-1.11-7.62-2.33-11.47-2.33-1.42,0-2.14,1.44-2.5,2.63a17.66,17.66,0,0,0-.42,6.87A11.1,11.1,0,0,0,308,426.18Z" style="fill:#fff;stroke:#263238;stroke-linecap:round;stroke-linejoin:round"></path><path d="M319.72,444.41a3.23,3.23,0,0,0,1.41.24c1.92-.14,3-2.39,3.95-3.77a69.49,69.49,0,0,0,6.17-10.59c.64-1.36,4.46-7.88.5-7-3.33.71-6.6,2.56-9.57,4.15-3.36,1.79-7,3.73-9.76,6.46-1,1-.5,2.53.09,3.62a17.72,17.72,0,0,0,4.57,5.15A10.86,10.86,0,0,0,319.72,444.41Z" style="fill:#fff;stroke:#263238;stroke-linecap:round;stroke-linejoin:round"></path><path d="M340.88,449a3.13,3.13,0,0,0,1.17-.83c1.26-1.46.41-3.79.13-5.46a69.06,69.06,0,0,0-3.13-11.84c-.5-1.42-2.41-8.73-4.61-5.32-1.85,2.85-2.85,6.47-3.83,9.69-1.11,3.65-2.34,7.62-2.34,11.47,0,1.42,1.44,2.14,2.63,2.5a17.67,17.67,0,0,0,6.87.41A11.08,11.08,0,0,0,340.88,449Z" style="fill:#fff;stroke:#263238;stroke-linecap:round;stroke-linejoin:round"></path><path d="M359.11,437.33a3.09,3.09,0,0,0,.24-1.41c-.14-1.92-2.39-3-3.76-3.95A69.15,69.15,0,0,0,345,425.8c-1.36-.64-7.88-4.46-7-.5.72,3.33,2.57,6.6,4.15,9.57,1.8,3.36,3.74,7,6.46,9.76,1,1,2.53.5,3.62-.1a17.58,17.58,0,0,0,5.16-4.56A10.83,10.83,0,0,0,359.11,437.33Z" style="fill:#fff;stroke:#263238;stroke-linecap:round;stroke-linejoin:round"></path><path d="M363.73,416.17a3.13,3.13,0,0,0-.83-1.17c-1.45-1.26-3.79-.41-5.45-.13A68.5,68.5,0,0,0,345.6,418c-1.42.5-8.73,2.41-5.32,4.61,2.86,1.85,6.47,2.85,9.7,3.83,3.64,1.11,7.62,2.34,11.47,2.34,1.42,0,2.14-1.44,2.49-2.63a17.68,17.68,0,0,0,.42-6.87A11.1,11.1,0,0,0,363.73,416.17Z" style="fill:#fff;stroke:#263238;stroke-linecap:round;stroke-linejoin:round"></path><path d="M352,397.93a3.29,3.29,0,0,0-1.42-.23c-1.92.14-3,2.39-3.95,3.76a69.09,69.09,0,0,0-6.16,10.59c-.65,1.36-4.47,7.88-.5,7,3.33-.72,6.59-2.57,9.56-4.15,3.37-1.8,7-3.74,9.77-6.46,1-1,.49-2.53-.1-3.62a17.73,17.73,0,0,0-4.56-5.16A11.58,11.58,0,0,0,352,397.93Z" style="fill:#fff;stroke:#263238;stroke-linecap:round;stroke-linejoin:round"></path><circle cx="207.94" cy="395.89" r="51.16" style="fill:#FF725E;stroke:#263238;stroke-linecap:round;stroke-linejoin:round"></circle><path d="M199.74,350.25a5.38,5.38,0,0,0-1.91,1.37c-2.06,2.38-.67,6.2-.21,8.94a113.13,113.13,0,0,0,5.12,19.4c.83,2.33,4,14.3,7.56,8.72,3-4.69,4.67-10.61,6.28-15.89,1.82-6,3.82-12.48,3.82-18.79,0-2.33-2.36-3.51-4.3-4.09a29.07,29.07,0,0,0-11.26-.68A18.48,18.48,0,0,0,199.74,350.25Z" style="fill:#fff;stroke:#263238;stroke-linecap:round;stroke-linejoin:round"></path><path d="M169.87,369.42a5.24,5.24,0,0,0-.39,2.32c.24,3.14,3.92,4.86,6.18,6.47A114.48,114.48,0,0,0,193,388.31c2.23,1.05,12.91,7.31,11.51.81-1.17-5.45-4.2-10.8-6.8-15.67-2.94-5.51-6.12-11.53-10.58-16-1.64-1.65-4.15-.81-5.93.16a28.9,28.9,0,0,0-8.45,7.47A18.45,18.45,0,0,0,169.87,369.42Z" style="fill:#fff;stroke:#263238;stroke-linecap:round;stroke-linejoin:round"></path><path d="M162.3,404.09a5.33,5.33,0,0,0,1.37,1.92c2.38,2.05,6.21.67,8.94.21a113.16,113.16,0,0,0,19.4-5.13c2.33-.83,14.3-3.95,8.72-7.56-4.68-3-10.61-4.66-15.89-6.27-6-1.82-12.48-3.83-18.79-3.83-2.32,0-3.51,2.36-4.08,4.31a28.86,28.86,0,0,0-.69,11.26A18.48,18.48,0,0,0,162.3,404.09Z" style="fill:#fff;stroke:#263238;stroke-linecap:round;stroke-linejoin:round"></path><path d="M181.47,434a5.26,5.26,0,0,0,2.32.39c3.14-.23,4.86-3.91,6.47-6.17a113.65,113.65,0,0,0,10.1-17.34c1-2.24,7.31-12.91.82-11.51-5.46,1.17-10.8,4.19-15.67,6.79-5.52,2.94-11.54,6.12-16,10.59-1.64,1.64-.81,4.14.16,5.93a28.86,28.86,0,0,0,7.47,8.44A18.15,18.15,0,0,0,181.47,434Z" style="fill:#fff;stroke:#263238;stroke-linecap:round;stroke-linejoin:round"></path><path d="M216.14,441.53a5.3,5.3,0,0,0,1.92-1.36c2.06-2.39.67-6.21.21-8.94a113.24,113.24,0,0,0-5.12-19.41c-.83-2.32-4-14.3-7.56-8.71-3,4.68-4.67,10.6-6.28,15.88-1.82,6-3.82,12.49-3.82,18.8,0,2.32,2.35,3.5,4.3,4.08a28.86,28.86,0,0,0,11.26.69A18.07,18.07,0,0,0,216.14,441.53Z" style="fill:#fff;stroke:#263238;stroke-linecap:round;stroke-linejoin:round"></path><path d="M246,422.37a5.28,5.28,0,0,0,.38-2.32c-.23-3.14-3.91-4.87-6.17-6.47a112.83,112.83,0,0,0-17.34-10.1c-2.23-1.06-12.91-7.31-11.51-.82,1.17,5.45,4.2,10.8,6.79,15.67,2.94,5.51,6.13,11.53,10.59,16,1.64,1.65,4.15.82,5.93-.15a28.93,28.93,0,0,0,8.45-7.48A18.71,18.71,0,0,0,246,422.37Z" style="fill:#fff;stroke:#263238;stroke-linecap:round;stroke-linejoin:round"></path><path d="M253.58,387.69a5.07,5.07,0,0,0-1.36-1.91c-2.39-2.06-6.21-.67-8.94-.22a114.09,114.09,0,0,0-19.4,5.13c-2.33.83-14.3,4-8.72,7.56,4.68,3,10.61,4.67,15.88,6.27,6,1.82,12.49,3.83,18.8,3.83,2.32,0,3.5-2.36,4.08-4.31a28.83,28.83,0,0,0,.69-11.25A18.14,18.14,0,0,0,253.58,387.69Z" style="fill:#fff;stroke:#263238;stroke-linecap:round;stroke-linejoin:round"></path><path d="M234.42,357.82a5.26,5.26,0,0,0-2.32-.39c-3.14.23-4.86,3.92-6.47,6.17A112.93,112.93,0,0,0,215.53,381c-1.06,2.23-7.31,12.91-.82,11.51,5.45-1.18,10.8-4.2,15.67-6.8,5.52-2.94,11.54-6.12,16-10.58,1.64-1.65.81-4.15-.16-5.94a28.88,28.88,0,0,0-7.48-8.44A18.09,18.09,0,0,0,234.42,357.82Z" style="fill:#fff;stroke:#263238;stroke-linecap:round;stroke-linejoin:round"></path><rect x="185.12" y="292.05" width="148.88" height="46.13" style="fill:#fff;stroke:#263238;stroke-linecap:round;stroke-linejoin:round"></rect><path d="M203.36,329.75a1.13,1.13,0,0,1-.47-.9,2.7,2.7,0,0,1,.18-.87,3.84,3.84,0,0,0,.13-.83q0-3.54-.44-13.58-.45-8.58-.45-13.54a.7.7,0,0,1,.31-.58,1.26,1.26,0,0,1,.76-.22,1.37,1.37,0,0,1,.93.34,1,1,0,0,1,.4.81q0,2.39.27,7.15.22,5.28.22,7.15l0,.47v1q.13,3.45.14,10.32v1h3.42c.62.4.93.8.93,1.19a1.15,1.15,0,0,1-1.11,1.12,3.09,3.09,0,0,1-.49-.08l-.18,0a7.6,7.6,0,0,1-.84,0h-.75a5.2,5.2,0,0,0-.72,0,1.59,1.59,0,0,1-1.24.47A1.62,1.62,0,0,1,203.36,329.75Z" style="fill:#263238"></path><path d="M214.53,329.73a1,1,0,0,1-.76-1.12V305.55a12.06,12.06,0,0,0-.26-2,8.5,8.5,0,0,1-.31-2v-.12a8.87,8.87,0,0,1,1.1-1.43,12.14,12.14,0,0,0,1.65-.16,9.5,9.5,0,0,1,1.64-.16A2.82,2.82,0,0,1,219,300a1.07,1.07,0,0,1,.66.89c0,.79-.68,1.19-2,1.19H217a3.87,3.87,0,0,0-.62,0,1.55,1.55,0,0,0-.49,0c0,.9.06,2,.18,3.26l.09,1.11.08,2.18c0,.51,0,1.27-.13,2.31l-.09,2.22.62-.12a6,6,0,0,1,1.47-.24,1.32,1.32,0,0,1,.89.34,1,1,0,0,1,.4.77,1.23,1.23,0,0,1-.34.86,1,1,0,0,1-.82.37l-.53,0h-.58a1.29,1.29,0,0,0-.93.28v12.27l2.49-.12c1.69,0,2.53.35,2.53,1v.15a1.94,1.94,0,0,1-1,.78,4.89,4.89,0,0,1-1.38.37l-1.46,0H216A4.88,4.88,0,0,1,214.53,329.73Z" style="fill:#263238"></path><path d="M237.89,330.32a2,2,0,0,1-.27-1.15l0-5.88c0-.5-.05-1.33-.05-2.5q-.09-3.69-.09-8.34v-2q-.39,1.9-1.37,5.36c-.66,2.38-1.11,4.34-1.38,5.88v.23l-.13.76a6.81,6.81,0,0,1-.45,1.79,1.45,1.45,0,0,1-1.38.95c-1.06,0-1.59-1.25-1.59-3.73a23,23,0,0,0-.47-4.43q-.46-2.37-1.49-5.82L227.85,307l-.09,4.77c0,1.43.08,4.16.22,8.18l.09,2.7.09,5.44a2.12,2.12,0,0,1-.66,1.51A1.73,1.73,0,0,1,226,329a3.19,3.19,0,0,1-.42-1.8l.09-3.26c.09-1.43.13-2.5.13-3.22l-.09-7.66-.09-7.7q0-1.71.09-5.13l1.2-.63a1.14,1.14,0,0,1,.71.46,6,6,0,0,1,.8,1.33,65.93,65.93,0,0,1,2.89,9.84,14.8,14.8,0,0,1,.36,1.71c.35,1.54.6,2.7.75,3.49l.67,3.06.31-1.31.84-3.25c.47-1.91.87-3.58,1.18-5s.61-3,.91-4.64c.32-2,.53-3.64.62-5V300a1.21,1.21,0,0,1,.53-.82,1.87,1.87,0,0,1,1.07-.3,1,1,0,0,1,.71.32,1,1,0,0,1,.31.68c0,3.17.13,7.93.4,14.25q.23,4.65.31,9.09.09,2,.09,5.13a2.64,2.64,0,0,1-.53,1.62,1.52,1.52,0,0,1-1.2.72A.81.81,0,0,1,237.89,330.32Z" style="fill:#263238"></path><path d="M249.57,330.08a6.09,6.09,0,0,1-1.69-1.94,16.82,16.82,0,0,1-1.91-5.88,57.16,57.16,0,0,1-.67-5.95l0-2.11v-2.14c0-.69,0-1.52,0-2.5a34.63,34.63,0,0,1,.23-4.21,13.85,13.85,0,0,1,.89-3.78,4.43,4.43,0,0,1,2-2.3A4.31,4.31,0,0,1,250,299a4.59,4.59,0,0,1,3.73,1.67,10,10,0,0,1,2,4.17,25.33,25.33,0,0,1,.8,5.32c.11,1.88.17,3.65.17,5.32v2.27a25.43,25.43,0,0,1-.22,2.54,21,21,0,0,0-.18,2.5v.16a11.78,11.78,0,0,0-.26,2.62,5.54,5.54,0,0,1-.54,2.3,5.72,5.72,0,0,1-1.51,2,3.11,3.11,0,0,1-2.22.95A3.56,3.56,0,0,1,249.57,330.08Zm3.77-2.93a12.7,12.7,0,0,0,.78-3.2c.16-1.26.3-2.68.42-4.27.06-.69.09-1.57.09-2.66l0-3.65c-.06-1.43-.24-3.22-.54-5.36a16.4,16.4,0,0,0-1.33-4.85,4.41,4.41,0,0,0-1.11-1.55,2.17,2.17,0,0,0-1.42-.55c-.74,0-1.29.51-1.65,1.55a13.53,13.53,0,0,0-.88,3.57,38.64,38.64,0,0,0-.31,4l0,1.31c0,.37,0,.87,0,1.51v.16a42,42,0,0,0,.62,6.55q.7,5.28,2.09,7.5c.59.93,1.21,1.39,1.86,1.39S252.93,328.13,253.34,327.15Z" style="fill:#263238"></path><path d="M269,322.1q-3.11-9.57-5.37-17.59v13c0,1.11.11,3,.35,5.68.21,2.91.31,4.79.31,5.63,0,.24-.16.45-.49.62a2.33,2.33,0,0,1-1.11.26c-.62,0-.93-.22-.93-.64l.09-1.15c.06-.85.09-1.4.09-1.67q0-2.1-.27-6.67c-.18-3.1-.26-5-.26-5.64v-5.08c0-.82,0-2,.13-3.65.12-1.41.18-2.62.18-3.66v-.23c0-1.33.32-2,1-2,.39,0,.88.58,1.47,1.75a70.83,70.83,0,0,1,3.73,10.24q1.29,4.29,3,11c0-.1.21.81.71,2.74l0,.2q0-3.85.09-6.91l.09-6.91V299.75c.12-.66.59-1,1.42-1s1.2.51,1.2,1.54v.24a2.3,2.3,0,0,0-.26,1.15c0,1.62-.05,4.05-.14,7.31s-.13,5.74-.13,7.38V328.5a2.21,2.21,0,0,1-.38,1.21,1.08,1.08,0,0,1-.91.57C272.07,330.28,270.85,327.56,269,322.1Z" style="fill:#263238"></path><path d="M287.74,329.45a.91.91,0,0,1-.33-.8v-5.2a7,7,0,0,0-2.18-.63,24.7,24.7,0,0,0-3-.36,6.21,6.21,0,0,0-.71,2l-.18.79q0,.29-.27,1.23a12.4,12.4,0,0,1-.48,1.65,5.5,5.5,0,0,1-.54,1.09c-1.12,0-1.77-.26-1.95-.79a12.47,12.47,0,0,0,1.11-3.74l1.46-7.26q1-5.16,1.8-8.82a46.83,46.83,0,0,1,1.76-6.11c.68-1.83,1.33-2.74,2-2.74a2.53,2.53,0,0,1,1.42.32,76.7,76.7,0,0,0,.85,7.66,67.4,67.4,0,0,1,.89,8.14,53.64,53.64,0,0,0,.48,6,60.59,60.59,0,0,1,.45,6.4q0,1.35-1.47,1.35A1.79,1.79,0,0,1,287.74,329.45Zm-.38-8.42c-.09-1.16-.24-2.61-.44-4.33q-1-9-1-11v-.31c-.3.26-.71,1.46-1.23,3.59s-1,4.41-1.44,6.85a44.46,44.46,0,0,0-.71,4.84,15.77,15.77,0,0,0,4,.48A4.13,4.13,0,0,0,287.36,321Z" style="fill:#263238"></path><path d="M296.26,329.41a1.11,1.11,0,0,1-.64-1c.65-.59,1-2.13,1-4.65,0-1.51-.14-3.71-.4-6.59a63.58,63.58,0,0,1-.45-6.51l.09-2.19c0-.63.05-1.36.05-2.18a11.54,11.54,0,0,0-.45-2.82,10.63,10.63,0,0,1-.53-2.5c0-.93,1.14-1.39,3.42-1.39H299a6.84,6.84,0,0,1,4.17,1.31,8.47,8.47,0,0,1,2.4,3.22,17.37,17.37,0,0,1,1.15,4,30.64,30.64,0,0,1,.27,3.49v3.14a.62.62,0,0,0-.09.32,1.75,1.75,0,0,0,.05.47,1.54,1.54,0,0,1,0,.4,13.46,13.46,0,0,1-.42,3,21.75,21.75,0,0,1-1.22,3.59,15.44,15.44,0,0,1-4.49,6.19,5.25,5.25,0,0,1-3.06,1A3.13,3.13,0,0,1,296.26,329.41Zm5.36-4.59a13.87,13.87,0,0,0,1.91-3.83,26.49,26.49,0,0,0,1.2-7.86,27.11,27.11,0,0,0-.45-4.69,10,10,0,0,0-2.09-4.44,5.13,5.13,0,0,0-1.91-1.49,6.1,6.1,0,0,0-2.62-.54v0q0,3.57.54,10.8t.53,10.88v3.77A8.89,8.89,0,0,0,301.62,324.82Z" style="fill:#263238"></path><path d="M313.43,329.73a1,1,0,0,1-.75-1.12V305.55a11.3,11.3,0,0,0-.27-2,8.5,8.5,0,0,1-.31-2v-.12a8.2,8.2,0,0,1,1.11-1.43,12.16,12.16,0,0,0,1.64-.16,9.52,9.52,0,0,1,1.65-.16,2.75,2.75,0,0,1,1.37.38,1.06,1.06,0,0,1,.67.89c0,.79-.68,1.19-2,1.19h-.63a3.72,3.72,0,0,0-.62,0,1.55,1.55,0,0,0-.49,0c0,.9.06,2,.18,3.26l.09,1.11.09,2.18c0,.51-.05,1.27-.14,2.31l-.08,2.22.62-.12a5.84,5.84,0,0,1,1.46-.24,1.32,1.32,0,0,1,.89.34,1,1,0,0,1,.4.77,1.27,1.27,0,0,1-.33.86,1.05,1.05,0,0,1-.82.37l-.54,0H316a1.3,1.3,0,0,0-.94.28v12.27l2.49-.12c1.69,0,2.53.35,2.53,1v.15a1.87,1.87,0,0,1-1,.78,5.08,5.08,0,0,1-1.38.37l-1.47,0H314.9A5,5,0,0,1,313.43,329.73Z" style="fill:#263238"></path><circle cx="304.56" cy="358.31" r="26.96" transform="translate(-164.16 320.31) rotate(-45)" style="fill:#263238;stroke:#263238;stroke-linecap:round;stroke-linejoin:round"></circle><path d="M287.22,375.88a1.22,1.22,0,0,1-.48-1v-.19a12.54,12.54,0,0,0,1.83-3.65,12.84,12.84,0,0,1,.69-1.78,69.37,69.37,0,0,0,3.93-10.79,40.71,40.71,0,0,0,1.23-10.14q0-5.72-2.19-5.85c-.49.24-.83,1-1,2.15a2.39,2.39,0,0,1-.46,1.21,1.09,1.09,0,0,1-.91.48c-.73,0-1.1-.47-1.1-1.42a5.31,5.31,0,0,1,1.28-3.61,2.18,2.18,0,0,1,1.65-.73v0a4.64,4.64,0,0,1,2.6.68,4.24,4.24,0,0,1,1.46,1.74,9.46,9.46,0,0,1,.69,2.42c.06.55.1,1.06.11,1.53s0,.81.07,1v1.23a33.47,33.47,0,0,1-.75,6.74,44.81,44.81,0,0,1-1.81,6.47c-.79,2.16-1.58,4.22-2.37,6.16-.95,2.38-1.63,4.21-2.06,5.49a30.63,30.63,0,0,1,5.39-.46c.64.46,1,.88,1,1.28a1.3,1.3,0,0,1-.59,1c-.58,0-1.4,0-2.47.13l-1,.05a30.6,30.6,0,0,1-3.52.23A1.8,1.8,0,0,1,287.22,375.88Z" style="fill:#fff"></path><path d="M305.66,375.49a.89.89,0,0,1,.41-.78,1.69,1.69,0,0,1,1-.27,1.74,1.74,0,0,1,1.19.41c.67-.24,1.23-1,1.69-2.4a12.14,12.14,0,0,0,.68-3.81c0-1.53,0-2.82,0-3.89a30.36,30.36,0,0,0-.46-3.7,11.13,11.13,0,0,0-.41-1.6A7.86,7.86,0,0,0,309,358a4,4,0,0,0-2.1-1.74,5.43,5.43,0,0,0-1.51-.23,1.38,1.38,0,0,1-1.41-.87,5.29,5.29,0,0,1-.23-1.73,7.18,7.18,0,0,1,.14-1.19l.09-1.14a31.2,31.2,0,0,0-.23-3.89l-.59-3.79-.28-1.87.78-.83h3.7c1.28,0,1.92.4,1.92,1.19v.23l-.87.69h-1.14v-.14h-1.92c0,1.52.32,5.15.87,10.87l.91.09A14.24,14.24,0,0,1,309,354a2.71,2.71,0,0,1,.87.42,5.88,5.88,0,0,1,1.69,3,24,24,0,0,1,1,4.87c.15,1.62.23,2.92.23,3.93,0,1.4,0,2.56-.1,3.47a8.68,8.68,0,0,1-.18,1.53q-.13.57-.45,1.53a6.81,6.81,0,0,1-.67,1.38,9.43,9.43,0,0,1-1,1.27c-.42.43-.91.87-1.46,1.33h-.77C306.48,376.77,305.66,376.34,305.66,375.49Z" style="fill:#fff"></path><path d="M320.84,373.35a4.7,4.7,0,0,1-1.1-.42q-2-1.26-1.95-6.85V363.7c0-.78,0-1.48,0-2.09s.06-1.27.12-2a11.71,11.71,0,0,1,.26-1.85,10.09,10.09,0,0,1,.58-1.62,3.73,3.73,0,0,1,.86-1.31,4.14,4.14,0,0,1,1.33-.78,4.33,4.33,0,0,1,1.8-.32,1,1,0,0,1,.67.2.65.65,0,0,1,.23.52.85.85,0,0,1-.18.53.7.7,0,0,1-.46.26h-1.36a1.22,1.22,0,0,0-1,.73,5,5,0,0,0-.61,1.89,20.38,20.38,0,0,0-.38,3.5v.14l-.06,2.8q-.06,1.24-.06,2.82a14.76,14.76,0,0,0,.09,1.81,5.45,5.45,0,0,0,.49,1.74,2.14,2.14,0,0,0,1.2,1.14,2.49,2.49,0,0,0,1,.17,1.07,1.07,0,0,0,.64-.23,1.08,1.08,0,0,1,.62.16.53.53,0,0,1,.25.48c0,.76-.53,1.14-1.6,1.14A5.49,5.49,0,0,1,320.84,373.35Z" style="fill:#fff"></path><rect x="320.62" y="350.49" width="1.05" height="4.76" rx="0.43" style="fill:#fff"></rect><rect x="320.62" y="372.21" width="1.05" height="4.76" rx="0.43" style="fill:#fff"></rect></g></svg>
