<svg xmlns="http://www.w3.org/2000/svg" viewBox="0 0 750 500"><g id="freepik--background-complete--inject-4"><path d="M477.67,67a2,2,0,0,1,0-.3c0-.21,0-.49,0-.83,0-.76,0-1.82-.05-3.19,0-2.8-.06-6.82-.1-11.89l.19.19-61.27.12.31-.31h0V67l-.31-.31,43.66.14L473,67l3.48,0,.92,0a1.27,1.27,0,0,1,.32,0l-.28,0-.88,0-3.42,0-12.81.08-43.88.14h-.31V50.84h0c.62-.63.17-.17.31-.31l61.27.12h.19v.19c-.05,5.12-.08,9.18-.11,12,0,1.35,0,2.4,0,3.15,0,.33,0,.59,0,.8A1.21,1.21,0,0,1,477.67,67Z" style="fill:#e0e0e0"></path><path d="M486,50.83a1.41,1.41,0,0,1,0-.31c0-.23,0-.51,0-.86,0-.8,0-1.88-.06-3.25,0-2.84-.07-6.85-.12-11.79l.23.22-36.81.09.31-.31h0v2.11c0,.71,0,1.41,0,2.1V43c0,2.71,0,5.34,0,7.86l-.3-.3,26.34.14,7.67.09,2.07,0a6,6,0,0,1,.74,0,6.35,6.35,0,0,1-.67,0l-2,0-7.6.08-26.54.15h-.29v-.3c0-2.52,0-5.15,0-7.86,0-1.36,0-2.73,0-4.13V34.63h0c-.07.07.59-.59.32-.31L486,34.4h.22v.22c-.05,5-.09,9.05-.12,11.93,0,1.35,0,2.41-.06,3.2A10.73,10.73,0,0,1,486,50.83Z" style="fill:#e0e0e0"></path><path d="M105.38,100.23a1.11,1.11,0,0,1,0-.3c0-.21,0-.49,0-.83,0-.76,0-1.83,0-3.19,0-2.8-.06-6.82-.1-11.89l.19.19-61.27.12.31-.31h0v8.22c0,2.71,0,5.37,0,8l-.3-.31,43.66.14,12.89.09,3.48,0,.91,0a1.32,1.32,0,0,1,.33,0l-.29,0-.87,0-3.42,0L88,100.39l-43.87.14H43.8V84h0l.31-.31,61.27.12h.19V84c0,5.12-.08,9.18-.11,12,0,1.35,0,2.4,0,3.15,0,.33,0,.59,0,.8S105.38,100.23,105.38,100.23Z" style="fill:#e0e0e0"></path><path d="M113.68,84s0-.11,0-.31,0-.51,0-.86c0-.8,0-1.88-.06-3.25,0-2.84-.07-6.85-.12-11.79l.22.22-36.81.09.31-.31h0v8.34c0,2.71,0,5.34,0,7.86l-.3-.3,26.34.14,7.67.08,2.06,0a5.6,5.6,0,0,1,.74,0,4.89,4.89,0,0,1-.66,0l-2,0-7.6.08-26.54.15h-.3V84c0-2.52,0-5.15,0-7.86V67.82h0l.31-.31,36.81.09h.23v.22c0,5-.09,9-.12,11.93,0,1.34,0,2.41-.06,3.2A8.6,8.6,0,0,1,113.68,84Z" style="fill:#e0e0e0"></path><path d="M242.18,267.46a.94.94,0,0,1,0-.29c0-.22,0-.49,0-.83,0-.76,0-1.83,0-3.19,0-2.8-.06-6.82-.1-11.89l.19.19-61.27.12.31-.31h0v8.21q0,4.06,0,8l-.3-.3,43.66.14,12.89.08,3.48.05h.91l.33,0a.88.88,0,0,1-.29,0l-.87,0-3.42,0-12.82.09-43.87.14h-.31V251.28h0l.31-.32,61.27.13h.19v.19c-.05,5.12-.08,9.18-.11,12,0,1.35,0,2.4,0,3.15,0,.33,0,.59,0,.8S242.18,267.47,242.18,267.46Z" style="fill:#e0e0e0"></path><path d="M250.48,251.26s0-.12,0-.31,0-.52,0-.86c0-.8,0-1.88-.06-3.25,0-2.84-.07-6.86-.12-11.79l.22.22-36.81.09.31-.31h0v8.34c0,2.71,0,5.34,0,7.86l-.3-.3,26.34.14,7.67.08,2.07,0a4,4,0,0,1,.73,0,4.89,4.89,0,0,1-.66,0l-2,0-7.6.08-26.54.14h-.29v-.29c0-2.52,0-5.15,0-7.86v-8.34h0c-.07.06.59-.59.31-.32l36.81.09h.23v.23c-.05,5-.09,9-.12,11.92,0,1.35,0,2.42-.06,3.2A6.72,6.72,0,0,1,250.48,251.26Z" style="fill:#e0e0e0"></path><path d="M42.65,369.65a22.16,22.16,0,0,0-1.85,8.86c0,9.49,6,17.95,15.24,21.54a27.56,27.56,0,0,0,9,1.83,27.56,27.56,0,0,0,9-1.83C83.32,396.46,89.3,388,89.3,378.51a22,22,0,0,0-1.85-8.86Z" style="fill:#ebebeb"></path><path d="M65.05,402.38a27.85,27.85,0,0,1-9.19-1.87c-9.45-3.66-15.56-12.3-15.56-22a22.51,22.51,0,0,1,1.9-9.06l.13-.3H87.77l.13.3a22.51,22.51,0,0,1,1.9,9.06c0,9.7-6.11,18.34-15.56,22A27.85,27.85,0,0,1,65.05,402.38ZM43,370.15a21.67,21.67,0,0,0-1.68,8.36,22.72,22.72,0,0,0,14.92,21.07,26.71,26.71,0,0,0,8.83,1.8,26.56,26.56,0,0,0,8.82-1.8c9.07-3.51,14.93-11.79,14.93-21.07a21.67,21.67,0,0,0-1.68-8.36Z" style="fill:#e0e0e0"></path><path d="M65.05,401.41a28,28,0,0,1-9-1.82c-9.26-3.6-15.24-12-15.24-21.54a22.16,22.16,0,0,1,1.85-8.86H41.28a22.47,22.47,0,0,0-1.84,8.86c0,10.05,6.56,18.66,15.9,22.28,4.69,1.82,7.57,5.09,7.57,8.61v21.85c0,1.78-2,3.3-4.82,3.54l-12.77,1.14c-.5,0-.87.34-.83.66s.46.58,1,.58H84.64c.51,0,.94-.25,1-.58s-.33-.61-.83-.66L72,434.33c-2.76-.24-4.82-1.76-4.82-3.54V408.94c0-3.52,2.88-6.79,7.58-8.61,9.33-3.62,15.89-12.23,15.89-22.28a22.47,22.47,0,0,0-1.84-8.86H87.45a22,22,0,0,1,1.85,8.86c0,9.49-6,17.94-15.24,21.54A28,28,0,0,1,65.05,401.41Z" style="fill:#e0e0e0"></path><path d="M99.66,437.12a4.06,4.06,0,0,1-4-4.07V416.59a4.05,4.05,0,0,1,3.06-3.92l2.52-75.81a4.06,4.06,0,0,1-2.35-4.07l1.55-16.46a4.08,4.08,0,0,1,4-3.68h2.67a9.85,9.85,0,0,0,9.36-6.76A9.39,9.39,0,0,0,117,303l.75-28.66.15-6.06h19l.14,6.06.75,28.66a9.1,9.1,0,0,0,.51,2.86,9.83,9.83,0,0,0,9.35,6.76h2.67a4.07,4.07,0,0,1,4.05,3.68l1.55,16.46a4.06,4.06,0,0,1-2.35,4.07L156,412.67a4.05,4.05,0,0,1,3.06,3.92v16.46a4.06,4.06,0,0,1-4.05,4.07Z" style="fill:#e0e0e0"></path><path d="M102.24,316.62,100.7,333a2.17,2.17,0,0,0,1.27,2.19l1.13.52-2.61,78.45-1.35.34a2.19,2.19,0,0,0-1.66,2.12v16.46a2.2,2.2,0,0,0,2.18,2.21,66.17,66.17,0,0,1,27.69-6.39A66.17,66.17,0,0,1,155,435.26a2.2,2.2,0,0,0,2.18-2.21V416.59a2.19,2.19,0,0,0-1.65-2.12l-1.36-.34-2.61-78.45,1.13-.52A2.17,2.17,0,0,0,154,333l-1.54-16.35Z" style="fill:#ebebeb"></path><path d="M117.63,274.37a1.63,1.63,0,0,1-1.64-1.63h0a1.63,1.63,0,0,1,1.64-1.63h19.45a1.63,1.63,0,0,1,1.63,1.63h0a1.63,1.63,0,0,1-1.63,1.63Z" style="fill:#e0e0e0"></path><path d="M119.34,258.81a3,3,0,0,0-2.72,3.17v7.88h21.47V262a3,3,0,0,0-2.73-3.17Z" style="fill:#e0e0e0"></path><path d="M116.47,305.89a8.32,8.32,0,0,0,.46-2.28c0-.2,0-.39,0-.58l.06-1.88.28-11,.31-12.08.06-2.44,0-1.24H137l0,1.24.06,2.44.32,12.08.28,11,0,1.88c0,.19,0,.38,0,.58a8.34,8.34,0,0,0,.47,2.28Z" style="fill:#ebebeb"></path><polygon points="117.62 278.05 117.68 275.61 137.02 275.61 137.08 278.05 117.62 278.05" style="fill:#fafafa"></polygon><path d="M116.93,303.61c0-.2,0-.39,0-.58l.06-1.88h20.65l0,1.88c0,.19,0,.38,0,.58Z" style="fill:#fafafa"></path><polygon points="109.48 407.56 110.91 341.59 143.79 341.59 145.22 407.56 109.48 407.56" style="fill:#fff"></polygon><path d="M659,437.58a6.19,6.19,0,0,1-6.19-6.19v-97.5a25.9,25.9,0,0,1,5.79-16.29l3-3.7a23.76,23.76,0,0,0,5.36-15V263.71a.4.4,0,0,0-.38-.39.82.82,0,0,1-.83-.81v-3.17a.71.71,0,0,1,.71-.71.49.49,0,0,0,.5-.47v-1.41a.48.48,0,0,0-.48-.47.73.73,0,0,1-.73-.71v-5a1.2,1.2,0,0,1,1.21-1.2h18.11a1.2,1.2,0,0,1,1.21,1.2v5a.73.73,0,0,1-.74.71.48.48,0,0,0-.47.47v1.41a.49.49,0,0,0,.49.47.71.71,0,0,1,.72.71v3.17a.82.82,0,0,1-.83.81.4.4,0,0,0-.38.39v35.16a23.76,23.76,0,0,0,5.36,15l3,3.7a25.85,25.85,0,0,1,5.8,16.29v97.5a6.19,6.19,0,0,1-6.19,6.19Z" style="fill:#ebebeb"></path><rect x="657.48" y="347.94" width="37.08" height="50.42" style="fill:#f5f5f5"></rect><rect x="657.48" y="341.27" width="37.08" height="6.67" style="fill:#e0e0e0"></rect><rect x="657.48" y="398.37" width="37.08" height="6.67" style="fill:#e0e0e0"></rect><path d="M667,289.54V263.71a.4.4,0,0,0-.38-.39.82.82,0,0,1-.83-.81v-3.17a.71.71,0,0,1,.71-.71.49.49,0,0,0,.5-.47v-1.41a.48.48,0,0,0-.48-.47.73.73,0,0,1-.73-.71v-5a1.2,1.2,0,0,1,1.21-1.2h18.11a1.2,1.2,0,0,1,1.21,1.2v5a.73.73,0,0,1-.74.71.48.48,0,0,0-.47.47v1.41a.49.49,0,0,0,.49.47.71.71,0,0,1,.72.71v3.17a.82.82,0,0,1-.83.81.4.4,0,0,0-.38.39v25.83Z" style="fill:#e0e0e0"></path><path d="M653.08,424.7c-.14,0-.26-19.58-.26-43.73s.12-43.74.26-43.74.26,19.58.26,43.74S653.23,424.7,653.08,424.7Z" style="fill:#fff"></path><path d="M684.83,263.72a158.16,158.16,0,0,1-18.13,0,158.16,158.16,0,0,1,18.13,0Z" style="fill:#fff"></path><path d="M683.86,258.74a130.54,130.54,0,0,1-16.47,0,130.54,130.54,0,0,1,16.47,0Z" style="fill:#fff"></path><path d="M683.31,256.39a128.34,128.34,0,0,1-16.33,0,128.34,128.34,0,0,1,16.33,0Z" style="fill:#fff"></path><rect x="639.12" y="61.29" width="55.72" height="14.74" style="fill:#f5f5f5"></rect><path d="M671.28,91.56s0-.09,0-.27,0-.44,0-.75c0-.7,0-1.66,0-2.9,0-2.55-.05-6.21-.09-10.82l.17.17-55.72.11c.13-.12-.29.29.28-.28h0V91.56l-.28-.28,39.71.13,11.72.08,3.17,0H671a1.64,1.64,0,0,1,.29,0,1.1,1.1,0,0,1-.26,0l-.79,0-3.11,0-11.66.08-39.9.13h-.28v-15h0c.57-.57.16-.16.29-.28l55.72.11h.18v.17c0,4.66-.07,8.35-.09,10.92,0,1.22,0,2.18,0,2.86,0,.3,0,.54,0,.73S671.29,91.57,671.28,91.56Z" style="fill:#e0e0e0"></path><rect x="75.83" y="183.08" width="55.72" height="14.74" style="fill:#f5f5f5"></rect><path d="M108,213.35s0-.09,0-.26,0-.45,0-.76c0-.69,0-1.66,0-2.9,0-2.55-.06-6.2-.1-10.82l.17.17-55.72.12.28-.29h0v14.73l-.28-.27L92,213.2l11.72.08,3.17,0,.83,0H108s-.08,0-.25,0l-.8,0-3.11,0-11.66.08-39.9.12H52v-15h0c.56-.57.16-.16.28-.28l55.72.11h.18v.17c0,4.66-.08,8.35-.1,10.92,0,1.22,0,2.18,0,2.86,0,.3,0,.54,0,.73S108,213.36,108,213.35Z" style="fill:#e0e0e0"></path><path d="M700.23,198.89a1.11,1.11,0,0,1,0-.3c0-.22,0-.49,0-.83,0-.76,0-1.83-.05-3.19,0-2.8-.06-6.82-.1-11.89l.19.19L639,183l.31-.31h0v8.22c0,2.71,0,5.37,0,8l-.3-.31,43.66.14,12.89.09,3.48,0,.91,0a1.32,1.32,0,0,1,.33,0l-.29,0-.87,0-3.42,0-12.82.08-43.87.14h-.31v-16.5h0l.31-.32,61.27.13h.19v.19c0,5.12-.08,9.18-.11,12,0,1.35,0,2.4,0,3.15,0,.33,0,.59,0,.8S700.23,198.89,700.23,198.89Z" style="fill:#e0e0e0"></path><path d="M708.53,182.68s0-.12,0-.31,0-.52,0-.86c0-.8,0-1.88-.06-3.25,0-2.84-.07-6.86-.12-11.79l.22.22-36.81.09.31-.31h0v8.34c0,2.71,0,5.34,0,7.86l-.3-.3,26.34.14,7.67.08,2.06,0a4,4,0,0,1,.74,0,4.89,4.89,0,0,1-.66,0l-2,0-7.6.08-26.54.14h-.3v-.3c0-2.52,0-5.15,0-7.86v-8.34h0l.31-.31,36.81.08h.23v.23c0,5-.09,9.05-.12,11.93,0,1.34,0,2.41-.06,3.2A8.6,8.6,0,0,1,708.53,182.68Z" style="fill:#e0e0e0"></path></g><g id="freepik--Table--inject-4"><path d="M721.59,437.56c0,.14-155.19.26-346.57.26s-346.61-.12-346.61-.26,155.15-.26,346.61-.26S721.59,437.41,721.59,437.56Z" style="fill:#263238"></path></g><g id="freepik--Shelf--inject-4"><path d="M443.23,101a21.59,21.59,0,0,0-1.82,8.71c0,9.33,5.88,17.64,15,21.17a22.68,22.68,0,0,0,17.71,0c9.11-3.53,15-11.84,15-21.17a21.6,21.6,0,0,0-1.83-8.71Z" style="fill:#ebebeb"></path><path d="M465.25,133.17a27.87,27.87,0,0,1-9-1.83c-9.3-3.61-15.3-12.11-15.3-21.64a22.07,22.07,0,0,1,1.86-8.91l.13-.3h44.69l.13.3a22.08,22.08,0,0,1,1.87,8.91c0,9.53-6,18-15.31,21.63A27.33,27.33,0,0,1,465.25,133.17Zm-21.69-31.68a21.08,21.08,0,0,0-1.65,8.21,22.31,22.31,0,0,0,14.66,20.7,22.18,22.18,0,0,0,17.34,0c8.92-3.46,14.68-11.59,14.68-20.71a21.09,21.09,0,0,0-1.66-8.21Z" style="fill:#e0e0e0"></path><path d="M465.25,132.21a27.06,27.06,0,0,1-8.86-1.8c-9.1-3.53-15-11.84-15-21.17a21.63,21.63,0,0,1,1.82-8.71h-1.35a22.15,22.15,0,0,0-1.81,8.71c0,9.88,6.45,18.35,15.63,21.91,4.61,1.79,7.45,5,7.45,8.46v21.48c0,1.75-2,3.24-4.75,3.48l-12.55,1.13c-.49,0-.85.32-.82.64s.45.57,1,.57h38.53c.5,0,.92-.25.95-.57s-.32-.6-.82-.64l-12.55-1.13c-2.72-.24-4.74-1.73-4.74-3.48V139.61c0-3.46,2.83-6.67,7.45-8.46,9.17-3.56,15.63-12,15.63-21.91a22.32,22.32,0,0,0-1.81-8.71h-1.36a21.64,21.64,0,0,1,1.83,8.71c0,9.33-5.88,17.64-15,21.17A27,27,0,0,1,465.25,132.21Z" style="fill:#e0e0e0"></path><path d="M276.78,101A21.6,21.6,0,0,0,275,109.7c0,9.33,5.89,17.64,15,21.17a22.68,22.68,0,0,0,17.71,0c9.1-3.53,15-11.84,15-21.17a21.59,21.59,0,0,0-1.82-8.71Z" style="fill:#ebebeb"></path><path d="M298.79,133.17a27.64,27.64,0,0,1-9-1.83c-9.3-3.61-15.31-12.11-15.31-21.64a22.08,22.08,0,0,1,1.87-8.91l.13-.3h44.69l.13.3a22.07,22.07,0,0,1,1.86,8.91,23.3,23.3,0,0,1-15.3,21.63A27.35,27.35,0,0,1,298.79,133.17Zm-21.68-31.68a21.09,21.09,0,0,0-1.66,8.21c0,9.12,5.76,17.25,14.67,20.7a22.18,22.18,0,0,0,17.34,0c8.92-3.46,14.67-11.59,14.67-20.71a21.08,21.08,0,0,0-1.65-8.21Z" style="fill:#e0e0e0"></path><path d="M298.79,132.21a27,27,0,0,1-8.85-1.8c-9.1-3.53-15-11.84-15-21.17a21.64,21.64,0,0,1,1.83-8.71h-1.36a22.32,22.32,0,0,0-1.81,8.71c0,9.88,6.46,18.35,15.63,21.91,4.62,1.79,7.45,5,7.45,8.46v21.48c0,1.75-2,3.24-4.74,3.48L279.4,165.7c-.5,0-.86.32-.82.64s.45.57.95.57h38.53c.5,0,.91-.25.95-.57s-.33-.6-.82-.64l-12.55-1.13c-2.72-.24-4.74-1.73-4.74-3.48V139.61c0-3.46,2.83-6.67,7.44-8.46,9.18-3.56,15.63-12,15.63-21.91a22.32,22.32,0,0,0-1.8-8.71h-1.36a21.63,21.63,0,0,1,1.82,8.71c0,9.33-5.88,17.64-15,21.17A27.06,27.06,0,0,1,298.79,132.21Z" style="fill:#e0e0e0"></path><path d="M404.06,101a21.6,21.6,0,0,0-1.83,8.71c0,9.33,5.88,17.64,15,21.17a22.68,22.68,0,0,0,17.71,0c9.1-3.53,15-11.84,15-21.17a21.59,21.59,0,0,0-1.82-8.71Z" style="fill:#ebebeb"></path><path d="M426.07,133.17a27.71,27.71,0,0,1-9-1.83c-9.3-3.61-15.31-12.11-15.31-21.64a22.08,22.08,0,0,1,1.87-8.91l.13-.3h44.69l.13.3a22.24,22.24,0,0,1,1.86,8.91,23.3,23.3,0,0,1-15.3,21.63A27.49,27.49,0,0,1,426.07,133.17Zm-21.68-31.68a21.09,21.09,0,0,0-1.66,8.21c0,9.12,5.76,17.25,14.67,20.7a26.2,26.2,0,0,0,8.67,1.77,26.5,26.5,0,0,0,8.67-1.76c8.92-3.46,14.67-11.59,14.67-20.71a21.08,21.08,0,0,0-1.65-8.21Z" style="fill:#e0e0e0"></path><path d="M426.07,132.21a27,27,0,0,1-8.85-1.8c-9.11-3.53-15-11.84-15-21.17a21.64,21.64,0,0,1,1.83-8.71H402.7a22.32,22.32,0,0,0-1.81,8.71c0,9.88,6.46,18.35,15.63,21.91,4.62,1.79,7.45,5,7.45,8.46v21.48c0,1.75-2,3.24-4.74,3.48l-12.55,1.13c-.5,0-.86.32-.82.64s.45.57.95.57h38.52c.51,0,.92-.25,1-.57s-.33-.6-.82-.64l-12.56-1.13c-2.71-.24-4.74-1.73-4.74-3.48V139.61c0-3.46,2.84-6.67,7.45-8.46,9.18-3.56,15.63-12,15.63-21.91a22.15,22.15,0,0,0-1.81-8.71h-1.35a21.63,21.63,0,0,1,1.82,8.71c0,9.33-5.88,17.64-15,21.17A27.06,27.06,0,0,1,426.07,132.21Z" style="fill:#e0e0e0"></path><rect x="161.94" y="167.4" width="421.77" height="14.37" style="fill:#455a64"></rect><path d="M255,165.51l-12.78-1.78a5.6,5.6,0,0,1-4.83-5.55V124A15.74,15.74,0,0,1,245,110.54c9.34-5.66,15.92-19.14,15.92-34.86A53.17,53.17,0,0,0,259,61.82H211.41a53.17,53.17,0,0,0-1.84,13.86c0,15.72,6.58,29.2,15.92,34.86A15.74,15.74,0,0,1,233.08,124v34.18a5.6,5.6,0,0,1-4.83,5.55l-12.78,1.78a1,1,0,0,0,.13,1.94h39.25a1,1,0,0,0,.13-1.94Z" style="fill:#f5f5f5"></path><path d="M255,165.51a.89.89,0,0,1,.73.46,1,1,0,0,1-.58,1.49,3.61,3.61,0,0,1-.81,0l-9.91.05-15.69,0-9.8,0h-3.31a1.12,1.12,0,0,1-.73-.25,1.15,1.15,0,0,1,.32-2,4.42,4.42,0,0,1,.72-.13l1.39-.19,2.82-.4,5.86-.83,1.5-.21a9.11,9.11,0,0,0,1.49-.27,5.38,5.38,0,0,0,3.82-4.3,30.78,30.78,0,0,0,.08-3.21c0-2.19,0-4.41,0-6.68q0-6.8,0-14,0-3.62,0-7.34c0-2.49.19-5-.45-7.46a15.64,15.64,0,0,0-6.43-9.2,31.16,31.16,0,0,1-3.27-2.3,33.87,33.87,0,0,1-9.5-13.24,50.34,50.34,0,0,1-3.77-16.5,53,53,0,0,1,1.73-17.35l.05-.19h48l0,.18a53.67,53.67,0,0,1,.47,26,46.2,46.2,0,0,1-4.29,11.52,33.13,33.13,0,0,1-7.27,9.15c-1.42,1.27-3.11,2.2-4.55,3.26a15.65,15.65,0,0,0-5.64,8.66,18.61,18.61,0,0,0-.45,5c0,6.63,0,12.76,0,18.32s0,10.55,0,14.92a5.49,5.49,0,0,0,3.24,4.63,9.53,9.53,0,0,0,2.57.58l2.38.34,6.9,1,1.78.27.6.1s-.2,0-.6-.06l-1.79-.23-6.91-.92-2.39-.32a9.8,9.8,0,0,1-2.62-.57,5.74,5.74,0,0,1-3.41-4.81c0-4.38,0-9.38,0-14.94s0-11.69,0-18.32a19.14,19.14,0,0,1,.44-5.08,16.35,16.35,0,0,1,2.07-4.86,16.07,16.07,0,0,1,3.7-4c1.51-1.12,3.11-2,4.52-3.26a32.38,32.38,0,0,0,7.15-9,45.82,45.82,0,0,0,4.23-11.41,53.11,53.11,0,0,0-.5-25.79l.25.19H211.41l.26-.19a52.54,52.54,0,0,0-1.73,17.18,50.13,50.13,0,0,0,3.73,16.34,33.43,33.43,0,0,0,9.34,13,31.83,31.83,0,0,0,3.23,2.28,16.37,16.37,0,0,1,3,2.62,16.15,16.15,0,0,1,3.61,6.88,16,16,0,0,1,.46,3.82v3.75c0,2.48,0,4.93,0,7.34q0,7.25,0,14c0,2.27,0,4.49,0,6.68v1.63a10.12,10.12,0,0,1-.08,1.64,5.76,5.76,0,0,1-1.42,2.93,5.7,5.7,0,0,1-2.71,1.69,12.37,12.37,0,0,1-1.53.28l-1.51.2-5.86.81-2.82.39-1.39.19a4.69,4.69,0,0,0-.64.11.79.79,0,0,0-.23,1.37.78.78,0,0,0,.51.18h3.31l9.8,0,15.69,0,9.91.05a3.92,3.92,0,0,0,.78,0,.92.92,0,0,0,.53-.38.94.94,0,0,0,0-1A1.08,1.08,0,0,0,255,165.51Z" style="fill:#263238"></path><path d="M223.82,165.51,211,163.73a5.6,5.6,0,0,1-4.83-5.55V124a15.74,15.74,0,0,1,7.59-13.46c9.34-5.66,15.92-19.14,15.92-34.86a53.17,53.17,0,0,0-1.84-13.86H180.25a53.17,53.17,0,0,0-1.84,13.86c0,15.72,6.58,29.2,15.93,34.86A15.75,15.75,0,0,1,201.92,124v34.18a5.6,5.6,0,0,1-4.83,5.55l-12.78,1.78a1,1,0,0,0,.13,1.94h39.25a1,1,0,0,0,.13-1.94Z" style="fill:#f5f5f5"></path><path d="M223.82,165.51a.89.89,0,0,1,.73.46,1,1,0,0,1-.58,1.49,3.61,3.61,0,0,1-.81,0l-9.91.05-15.69,0-9.8,0h-3.3a1.13,1.13,0,0,1-.74-.25,1.15,1.15,0,0,1-.28-1.45,1.12,1.12,0,0,1,.61-.52,4.13,4.13,0,0,1,.71-.13l1.39-.19,2.82-.4,5.86-.83,1.5-.21a8.92,8.92,0,0,0,1.49-.27,5.38,5.38,0,0,0,3.82-4.3,30.78,30.78,0,0,0,.08-3.21c0-2.19,0-4.41,0-6.68q0-6.8,0-14,0-3.62,0-7.34c-.05-2.49.19-5-.45-7.46a15.57,15.57,0,0,0-3.52-6.66,15.34,15.34,0,0,0-2.91-2.54,31.16,31.16,0,0,1-3.27-2.3A33.87,33.87,0,0,1,182,95.6a50.34,50.34,0,0,1-3.77-16.5A53,53,0,0,1,180,61.75l.06-.19h48l.05.18a53.67,53.67,0,0,1,.47,26,46.2,46.2,0,0,1-4.29,11.52,32.77,32.77,0,0,1-7.27,9.15c-1.42,1.27-3.11,2.2-4.55,3.26a15.56,15.56,0,0,0-3.6,3.92,15.24,15.24,0,0,0-2,4.74,18.21,18.21,0,0,0-.45,5c0,6.63,0,12.76,0,18.32s0,10.55,0,14.92a5.49,5.49,0,0,0,3.24,4.63,9.53,9.53,0,0,0,2.57.58l2.38.34,6.9,1,1.78.27.6.1s-.2,0-.6-.06l-1.79-.23-6.91-.92-2.39-.32a9.88,9.88,0,0,1-2.62-.57,5.76,5.76,0,0,1-3.41-4.81c0-4.38,0-9.38,0-14.94s0-11.69,0-18.32a19.14,19.14,0,0,1,.44-5.08,16.35,16.35,0,0,1,2.07-4.86,16.07,16.07,0,0,1,3.7-4c1.51-1.12,3.11-2,4.52-3.26a32.38,32.38,0,0,0,7.15-9,45.82,45.82,0,0,0,4.23-11.41,53.11,53.11,0,0,0-.5-25.79l.25.19H180.25l.26-.19a52.81,52.81,0,0,0-1.73,17.18,50.13,50.13,0,0,0,3.73,16.34,33.43,33.43,0,0,0,9.34,13,31.83,31.83,0,0,0,3.23,2.28,16.37,16.37,0,0,1,3,2.62,16.15,16.15,0,0,1,3.61,6.88,16,16,0,0,1,.46,3.82v3.75q0,3.72,0,7.34,0,7.25,0,14c0,2.27,0,4.49,0,6.68v1.63a10.12,10.12,0,0,1-.08,1.64,5.76,5.76,0,0,1-1.42,2.93,5.7,5.7,0,0,1-2.71,1.69,12.37,12.37,0,0,1-1.53.28l-1.51.2L189,165l-2.83.39-1.39.19a4.69,4.69,0,0,0-.64.11.79.79,0,0,0-.23,1.37.78.78,0,0,0,.52.18h3.3l9.8,0,15.69,0,9.91.05a3.88,3.88,0,0,0,.78,0,.92.92,0,0,0,.53-.38.94.94,0,0,0,0-1A1.08,1.08,0,0,0,223.82,165.51Z" style="fill:#263238"></path><path d="M292.44,165.51l-12.79-1.78a5.6,5.6,0,0,1-4.83-5.55V124a15.76,15.76,0,0,1,7.59-13.46c9.35-5.66,15.92-19.14,15.92-34.86a52.75,52.75,0,0,0-1.84-13.86H248.87A52.74,52.74,0,0,0,247,75.68c0,15.72,6.58,29.2,15.93,34.86A15.76,15.76,0,0,1,270.54,124v34.18a5.6,5.6,0,0,1-4.83,5.55l-12.79,1.78a1,1,0,0,0,.13,1.94H292.3a1,1,0,0,0,1-.9A1,1,0,0,0,292.44,165.51Z" style="fill:#f5f5f5"></path><path d="M292.44,165.51a.91.91,0,0,1,.73.46,1,1,0,0,1-.59,1.49,3.61,3.61,0,0,1-.81,0l-9.91.05-15.69,0-9.79,0h-3.31a1.08,1.08,0,0,1-.73-.25,1.15,1.15,0,0,1-.29-1.45,1.12,1.12,0,0,1,.61-.52,4.24,4.24,0,0,1,.72-.13l1.38-.19,2.83-.4,5.85-.83,1.51-.21a8.8,8.8,0,0,0,1.48-.27A5.32,5.32,0,0,0,269,161.8a5.45,5.45,0,0,0,1.31-2.73,30.83,30.83,0,0,0,.07-3.21c0-2.19,0-4.41,0-6.68q0-6.8,0-14,0-3.62,0-7.34c-.05-2.49.2-5-.45-7.46a15.53,15.53,0,0,0-6.43-9.2,32.24,32.24,0,0,1-3.27-2.3,34,34,0,0,1-9.5-13.24,50.34,50.34,0,0,1-3.77-16.5,53.05,53.05,0,0,1,1.74-17.35l0-.19h48l.05.18a53.68,53.68,0,0,1,.48,26,46.22,46.22,0,0,1-4.3,11.52,32.92,32.92,0,0,1-7.26,9.15c-1.43,1.27-3.11,2.2-4.55,3.26a15.51,15.51,0,0,0-5.64,8.66,18.61,18.61,0,0,0-.45,5c0,6.63,0,12.76,0,18.32s0,10.55,0,14.92a5.48,5.48,0,0,0,3.25,4.63,9.38,9.38,0,0,0,2.56.58l2.39.34,6.9,1,1.78.27.6.1s-.21,0-.61-.06l-1.79-.23-6.91-.92-2.39-.32a10,10,0,0,1-2.62-.57,5.75,5.75,0,0,1-3.4-4.81c0-4.38,0-9.38-.06-14.94s0-11.69,0-18.32a19.15,19.15,0,0,1,.45-5.08,15.85,15.85,0,0,1,2.07-4.86,16,16,0,0,1,3.69-4c1.51-1.12,3.12-2,4.53-3.26a32.35,32.35,0,0,0,7.14-9,45.84,45.84,0,0,0,4.24-11.41,53.35,53.35,0,0,0-.5-25.79l.24.19H248.87l.25-.19a52.53,52.53,0,0,0-1.72,17.18,49.87,49.87,0,0,0,3.72,16.34,33.43,33.43,0,0,0,9.34,13,31.83,31.83,0,0,0,3.23,2.28,15.74,15.74,0,0,1,3,2.62,16.06,16.06,0,0,1,3.62,6.88,17.05,17.05,0,0,1,.46,3.82c0,1.26,0,2.51,0,3.75v7.34q0,7.25,0,14v8.31a8.27,8.27,0,0,1-.08,1.64,5.82,5.82,0,0,1-4.12,4.62A12.52,12.52,0,0,1,265,164l-1.5.2-5.86.81-2.83.39-1.38.19a4.86,4.86,0,0,0-.65.11.74.74,0,0,0-.42.36.8.8,0,0,0,.19,1,.82.82,0,0,0,.52.18h3.31l9.79,0,15.69,0,9.91.05a4,4,0,0,0,.79,0,.9.9,0,0,0,.52-.38.94.94,0,0,0,0-1A1.1,1.1,0,0,0,292.44,165.51Z" style="fill:#263238"></path><path d="M546.13,128H521a2.34,2.34,0,0,0-2.24,3,111.66,111.66,0,0,1,4.38,34,2.35,2.35,0,0,0,2.34,2.41h16.17A2.35,2.35,0,0,0,544,165a111.35,111.35,0,0,1,4.38-34A2.34,2.34,0,0,0,546.13,128Z" style="fill:#e0e0e0"></path><path d="M546.13,128a1.37,1.37,0,0,1,.33,0,2.31,2.31,0,0,1,.91.3,2.35,2.35,0,0,1,1,1.2,2.52,2.52,0,0,1,.16,1,6.69,6.69,0,0,1-.26,1.12,107.17,107.17,0,0,0-2.82,13.22,119.2,119.2,0,0,0-1.25,20,2.64,2.64,0,0,1-1.42,2.59,3.08,3.08,0,0,1-1.53.28H525.86a2.93,2.93,0,0,1-1.68-.35,2.63,2.63,0,0,1-1.13-1.35,2.42,2.42,0,0,1-.17-.88v-.83a115.1,115.1,0,0,0-2.17-24.4c-.37-1.85-.77-3.64-1.22-5.37q-.33-1.31-.69-2.55c-.11-.43-.25-.8-.34-1.28a2.63,2.63,0,0,1,.18-1.36,2.55,2.55,0,0,1,2.08-1.53c.85,0,1.61,0,2.4,0l4.49,0,13.54.08,3.68,0,1,0a1.39,1.39,0,0,1,.33,0,1.39,1.39,0,0,1-.33,0l-1,0-3.68,0-13.54.09h-4.49c-.77,0-1.59,0-2.36,0a2.13,2.13,0,0,0-1.72,1.29,2.07,2.07,0,0,0-.14,1.13c.06.36.22.81.33,1.22.24.83.48,1.68.7,2.55.46,1.74.87,3.54,1.26,5.39a114.83,114.83,0,0,1,2.21,24.51,4.35,4.35,0,0,0,.12,1.52,2.14,2.14,0,0,0,.91,1.08,2.47,2.47,0,0,0,1.42.28h15.41a2.54,2.54,0,0,0,1.31-.21,2.16,2.16,0,0,0,1.16-2.15,116.8,116.8,0,0,1,1.37-20.05,100.09,100.09,0,0,1,3-13.22,6.21,6.21,0,0,0,.27-1.07,2.26,2.26,0,0,0-.13-.95,2.32,2.32,0,0,0-.92-1.16A3,3,0,0,0,546.13,128Z" style="fill:#263238"></path><path d="M520.29,133.72a109.13,109.13,0,0,1,3.06,17.21,10,10,0,0,0,9.9,9h.63a9.94,9.94,0,0,0,9.9-9,109.13,109.13,0,0,1,3.06-17.21Z" style="fill:#ebebeb"></path><g style="opacity:0.6000000000000001"><path d="M542.27,165.44c-.25.29-1.22-.18-2.73-.74a19.46,19.46,0,0,0-2.66-.79,17.76,17.76,0,0,0-3.3-.39,17.08,17.08,0,0,0-3.31.34,20.58,20.58,0,0,0-2.68.75c-1.51.53-2.49,1-2.73.7s.37-1.26,1.88-2.33a11.36,11.36,0,0,1,2.9-1.44,13.2,13.2,0,0,1,4-.62,13.35,13.35,0,0,1,3.94.68,11.36,11.36,0,0,1,2.88,1.49C541.91,164.18,542.49,165.19,542.27,165.44Z" style="fill:#ebebeb"></path></g><path d="M542.07,155.61s-.1.24-.38.6a8.7,8.7,0,0,1-1.37,1.37,10.67,10.67,0,0,1-12.06,1,8.89,8.89,0,0,1-1.58-1.12c-.34-.31-.5-.51-.47-.53s.8.61,2.22,1.33a11.07,11.07,0,0,0,11.67-1C541.38,156.35,542,155.55,542.07,155.61Z" style="fill:#263238"></path><path d="M547.47,129a3.92,3.92,0,0,1-1,.38c-.67.21-1.65.47-2.87.75a52.21,52.21,0,0,1-19.46.55c-1.24-.21-2.23-.41-2.91-.59a4.79,4.79,0,0,1-1-.31c0-.09,1.53.22,4,.53a62.71,62.71,0,0,0,9.69.49,64.8,64.8,0,0,0,9.65-1C546,129.34,547.45,129,547.47,129Z" style="fill:#263238"></path><path d="M576.85,128H551.72a2.33,2.33,0,0,0-2.23,3,111.66,111.66,0,0,1,4.38,34,2.34,2.34,0,0,0,2.33,2.41h16.17a2.35,2.35,0,0,0,2.34-2.41,111.66,111.66,0,0,1,4.38-34A2.33,2.33,0,0,0,576.85,128Z" style="fill:#e0e0e0"></path><path d="M576.85,128a1.37,1.37,0,0,1,.33,0,2.3,2.3,0,0,1,.92.3,2.33,2.33,0,0,1,1,1.2,2.36,2.36,0,0,1,.16,1,6.65,6.65,0,0,1-.25,1.12,106.85,106.85,0,0,0-2.83,13.22,119.29,119.29,0,0,0-1.24,20,2.64,2.64,0,0,1-1.43,2.59,3.08,3.08,0,0,1-1.53.28h-15.4a2.94,2.94,0,0,1-1.69-.35,2.63,2.63,0,0,1-1.13-1.35,2.41,2.41,0,0,1-.16-.88v-.83a115.78,115.78,0,0,0-2.16-24.4c-.38-1.85-.78-3.64-1.23-5.37q-.33-1.31-.69-2.55c-.11-.43-.25-.8-.33-1.28a2.53,2.53,0,0,1,.18-1.36,2.55,2.55,0,0,1,2.07-1.53c.85,0,1.62,0,2.41,0l4.49,0,13.54.08,3.68,0,1,0a1.34,1.34,0,0,1,.32,0l-.32,0-1,0-3.68,0-13.54.09h-4.49c-.77,0-1.6,0-2.37,0a2.15,2.15,0,0,0-1.72,1.29,2.27,2.27,0,0,0-.14,1.13c.07.36.22.81.33,1.22.25.83.48,1.68.7,2.55q.69,2.61,1.26,5.39a114.83,114.83,0,0,1,2.21,24.51,4.12,4.12,0,0,0,.13,1.52,2.1,2.1,0,0,0,.91,1.08,2.46,2.46,0,0,0,1.42.28H572a2.54,2.54,0,0,0,1.31-.21,2.18,2.18,0,0,0,1.17-2.15,115.89,115.89,0,0,1,1.36-20.05,100.09,100.09,0,0,1,3-13.22,5.41,5.41,0,0,0,.27-1.07,2.25,2.25,0,0,0-1.05-2.11A3,3,0,0,0,576.85,128Z" style="fill:#263238"></path><path d="M551,133.72a108,108,0,0,1,3.05,17.21,10,10,0,0,0,9.9,9h.63a10,10,0,0,0,9.91-9,108,108,0,0,1,3-17.21Z" style="fill:#ebebeb"></path><g style="opacity:0.6000000000000001"><path d="M573,165.44c-.25.29-1.22-.18-2.72-.74a19.9,19.9,0,0,0-2.66-.79,17.87,17.87,0,0,0-3.31-.39,17.25,17.25,0,0,0-3.31.34,20,20,0,0,0-2.67.75c-1.52.53-2.49,1-2.74.7s.38-1.26,1.89-2.33a11,11,0,0,1,2.9-1.44,13.19,13.19,0,0,1,4-.62,13.42,13.42,0,0,1,3.95.68,11.46,11.46,0,0,1,2.87,1.49C572.63,164.18,573.21,165.19,573,165.44Z" style="fill:#ebebeb"></path></g><path d="M572.79,155.61s-.1.24-.38.6a9,9,0,0,1-1.36,1.37,10.69,10.69,0,0,1-12.07,1,8.75,8.75,0,0,1-1.57-1.12c-.34-.31-.5-.51-.48-.53s.8.61,2.22,1.33a11.07,11.07,0,0,0,11.67-1C572.11,156.35,572.72,155.55,572.79,155.61Z" style="fill:#263238"></path><path d="M578.2,129a4.13,4.13,0,0,1-1,.38c-.67.21-1.65.47-2.87.75a52.27,52.27,0,0,1-19.47.55c-1.23-.21-2.22-.41-2.9-.59a4.79,4.79,0,0,1-1-.31c0-.09,1.53.22,4,.53a62.56,62.56,0,0,0,9.69.49,64.5,64.5,0,0,0,9.64-1C576.68,129.34,578.17,129,578.2,129Z" style="fill:#263238"></path><path d="M515.49,128H490.37a2.33,2.33,0,0,0-2.24,3,111.66,111.66,0,0,1,4.38,34,2.35,2.35,0,0,0,2.34,2.41H511a2.34,2.34,0,0,0,2.33-2.41,111.66,111.66,0,0,1,4.38-34A2.33,2.33,0,0,0,515.49,128Z" style="fill:#e0e0e0"></path><path d="M515.49,128a1.41,1.41,0,0,1,.33,0,2.3,2.3,0,0,1,.92.3,2.35,2.35,0,0,1,1,1.2,2.53,2.53,0,0,1,.15,1,5.8,5.8,0,0,1-.25,1.12,107.17,107.17,0,0,0-2.82,13.22,119.2,119.2,0,0,0-1.25,20,2.63,2.63,0,0,1-1.43,2.59,3.08,3.08,0,0,1-1.53.28h-15.4a2.93,2.93,0,0,1-1.68-.35,2.59,2.59,0,0,1-1.3-2.23v-.83a116.43,116.43,0,0,0-2.17-24.4q-.55-2.78-1.23-5.37c-.22-.87-.44-1.72-.68-2.55-.12-.43-.25-.8-.34-1.28a2.53,2.53,0,0,1,.18-1.36,2.55,2.55,0,0,1,2.07-1.53c.86,0,1.62,0,2.41,0l4.49,0,13.54.08,3.68,0,1,0a1.34,1.34,0,0,1,.32,0l-.32,0-1,0-3.68,0-13.54.09H492.5c-.77,0-1.6,0-2.36,0a2.12,2.12,0,0,0-1.72,1.29,2.17,2.17,0,0,0-.15,1.13c.07.36.22.81.33,1.22.25.83.48,1.68.71,2.55.46,1.74.87,3.54,1.25,5.39a114.8,114.8,0,0,1,2.22,24.51,3.92,3.92,0,0,0,.12,1.52,2.1,2.1,0,0,0,.91,1.08,2.46,2.46,0,0,0,1.42.28h15.4A2.6,2.6,0,0,0,512,167a2.16,2.16,0,0,0,1.16-2.15,115.89,115.89,0,0,1,1.36-20.05,100.09,100.09,0,0,1,3-13.22,5.41,5.41,0,0,0,.27-1.07,2.26,2.26,0,0,0-.12-.95,2.32,2.32,0,0,0-.92-1.16A3,3,0,0,0,515.49,128Z" style="fill:#263238"></path><path d="M489.66,133.72a108,108,0,0,1,3,17.21,10,10,0,0,0,9.91,9h.63a9.94,9.94,0,0,0,9.9-9,108,108,0,0,1,3.05-17.21Z" style="fill:#ebebeb"></path><g style="opacity:0.6000000000000001"><path d="M511.63,165.44c-.25.29-1.21-.18-2.72-.74a19.9,19.9,0,0,0-2.66-.79,17.77,17.77,0,0,0-3.31-.39,17.25,17.25,0,0,0-3.31.34,20.4,20.4,0,0,0-2.67.75c-1.52.53-2.49,1-2.74.7s.38-1.26,1.89-2.33a11.19,11.19,0,0,1,2.9-1.44,13.19,13.19,0,0,1,3.95-.62,13.42,13.42,0,0,1,4,.68,11.36,11.36,0,0,1,2.88,1.49C511.28,164.18,511.86,165.19,511.63,165.44Z" style="fill:#ebebeb"></path></g><path d="M511.44,155.61a1.85,1.85,0,0,1-.38.6,9.16,9.16,0,0,1-1.37,1.37,10.69,10.69,0,0,1-12.07,1,8.75,8.75,0,0,1-1.57-1.12c-.34-.31-.5-.51-.48-.53s.8.61,2.22,1.33a11.09,11.09,0,0,0,11.68-1C510.75,156.35,511.37,155.55,511.44,155.61Z" style="fill:#263238"></path><path d="M516.84,129a3.92,3.92,0,0,1-1,.38c-.67.21-1.65.47-2.87.75a52.22,52.22,0,0,1-19.46.55c-1.24-.21-2.23-.41-2.91-.59a4.79,4.79,0,0,1-1-.31c0-.09,1.53.22,4,.53a62.71,62.71,0,0,0,9.69.49,64.8,64.8,0,0,0,9.65-1C515.32,129.34,516.82,129,516.84,129Z" style="fill:#263238"></path><rect x="215.65" y="179.46" width="16.1" height="18.9" style="fill:#455a64"></rect><rect x="532.49" y="179.46" width="16.1" height="18.9" style="fill:#455a64"></rect></g><g id="freepik--Glass--inject-4"><path d="M524.42,407.89c8.48-4.74,8.24-16.31,8.3-19.48a4.77,4.77,0,0,1,2.13-3.9c17.41-9.6,16.7-24.16,16.7-24.16H480.86s-.71,14.56,16.69,24.16a4.76,4.76,0,0,1,2.14,3.9c.2,3.17-.18,14.74,8.3,19.48a26.92,26.92,0,0,1,5.06,11.37c1.27,7.51.6,29.16.46,32.24-.18,3.95-1.58,8.62-7.74,10.05-2.39.56-10.41,1.65-10.47,5-.07,3.82,6.44,6.56,20.85,6.08,14.16,0,21-2.26,21-6.08-.06-3.37-8.09-4.46-10.47-5-6.16-1.43-7.56-6.1-7.74-10.05-.14-3.08-.81-24.73.46-32.24A26.92,26.92,0,0,1,524.42,407.89Z" style="fill:#ebebeb"></path><path d="M524.42,407.89a2,2,0,0,1-.14.2l-.41.59c-.36.53-.88,1.32-1.49,2.41a25.32,25.32,0,0,0-3.19,10.3c-.44,4.71-.49,10.51-.43,17.23,0,3.36.1,7,.23,10.76a20,20,0,0,0,.69,5.78,8.58,8.58,0,0,0,3.53,4.78c1.74,1.19,3.9,1.51,6.07,2a19.67,19.67,0,0,1,6.44,2.26,6.33,6.33,0,0,1,.71.57,3.37,3.37,0,0,1,.56.73,2.65,2.65,0,0,1,.25,1.85,4.68,4.68,0,0,1-2.37,2.75,14.05,14.05,0,0,1-3.43,1.34,33.53,33.53,0,0,1-3.64.75,114.4,114.4,0,0,1-15.43.77,56.64,56.64,0,0,1-8.07-.56c-2.68-.46-5.54-1-7.81-2.87a6.43,6.43,0,0,1-.75-.81,3.75,3.75,0,0,1-.5-1,3.86,3.86,0,0,1-.18-1.12l.09-.58a3.25,3.25,0,0,1,.23-.54,4.47,4.47,0,0,1,1.62-1.53,11.46,11.46,0,0,1,2-.92,32.25,32.25,0,0,1,4.2-1.16,25.28,25.28,0,0,0,4.2-1,8.72,8.72,0,0,0,3.5-2.4,9.26,9.26,0,0,0,1.94-3.84,19.63,19.63,0,0,0,.49-4.42l.12-4.54c.13-6.08.2-12.28,0-18.56a51,51,0,0,0-1-9.38,26.74,26.74,0,0,0-4-8.62c-.23-.33-.47-.66-.71-1l.08.07a14.31,14.31,0,0,1-5.33-5.37,21.81,21.81,0,0,1-2.46-7.07,52.51,52.51,0,0,1-.65-7.34,4.88,4.88,0,0,0-1.36-3.11,3.83,3.83,0,0,0-.65-.51l-.78-.48-1.56-.94a12.69,12.69,0,0,1-1.5-1l-1.46-1.06c-1-.72-1.83-1.56-2.74-2.33a32.76,32.76,0,0,1-4.53-5.47,24.8,24.8,0,0,1-4.23-13.09v-.24h.25l70.69.06h.19v.18a24.62,24.62,0,0,1-3.65,12.12,31.76,31.76,0,0,1-7.53,8.45l-2.11,1.54c-.69.52-1.44.89-2.14,1.34l-1,.63a4,4,0,0,0-.94.68A4.71,4.71,0,0,0,533.1,387a6.23,6.23,0,0,0-.27,2.15c0,.72,0,1.43-.07,2.13a33.29,33.29,0,0,1-.44,3.92,22.85,22.85,0,0,1-2,6.32,15.36,15.36,0,0,1-2.76,4,12.68,12.68,0,0,1-1.29,1.16,7.3,7.3,0,0,1-1,.72l-.87.53s.27-.2.83-.58a6.35,6.35,0,0,0,1-.74,11.73,11.73,0,0,0,1.26-1.17,15.26,15.26,0,0,0,2.7-4,22.71,22.71,0,0,0,1.9-6.28,35.55,35.55,0,0,0,.41-3.91c0-.68.05-1.39.06-2.11a6.44,6.44,0,0,1,.27-2.24,4.94,4.94,0,0,1,2.26-2.71l1-.63c.69-.44,1.44-.82,2.11-1.34l2.1-1.53a31.83,31.83,0,0,0,7.42-8.4,24.48,24.48,0,0,0,3.57-11.92l.19.18-70.69.06.25-.24a24.32,24.32,0,0,0,4.16,12.79,30.8,30.8,0,0,0,4.46,5.38c.89.76,1.74,1.58,2.69,2.29l1.44,1.05a14.9,14.9,0,0,0,1.49,1l1.53.93.77.46a3.91,3.91,0,0,1,.77.61,5.32,5.32,0,0,1,1.51,3.42,54,54,0,0,0,.65,7.3,21.23,21.23,0,0,0,2.4,6.9,13.69,13.69,0,0,0,5.13,5.17l.05,0,0,0c.24.33.49.66.72,1a27.29,27.29,0,0,1,4,8.79,50.93,50.93,0,0,1,1,9.48c.21,6.3.14,12.5,0,18.59,0,1.52-.08,3-.13,4.55a19.76,19.76,0,0,1-.5,4.52,9.75,9.75,0,0,1-2,4,9.14,9.14,0,0,1-3.7,2.54,27.91,27.91,0,0,1-4.28,1.07,29.94,29.94,0,0,0-4.13,1.13,10.59,10.59,0,0,0-1.9.88,4,4,0,0,0-1.44,1.34,2.44,2.44,0,0,0-.19.44l-.08.46a3.45,3.45,0,0,0,.16,1,3.21,3.21,0,0,0,.43.87,5.88,5.88,0,0,0,.68.73c2.09,1.74,4.92,2.32,7.56,2.76a54.2,54.2,0,0,0,8,.57,113,113,0,0,0,15.36-.74,30.19,30.19,0,0,0,3.6-.73,14,14,0,0,0,3.33-1.29,4.3,4.3,0,0,0,2.18-2.48,2.26,2.26,0,0,0-.2-1.56,3.46,3.46,0,0,0-.49-.65,5.2,5.2,0,0,0-.65-.51,19.27,19.27,0,0,0-6.3-2.22c-2.13-.45-4.39-.79-6.19-2a9,9,0,0,1-3.67-5,21.28,21.28,0,0,1-.69-5.86q-.17-5.73-.19-10.78c0-6.72.06-12.52.53-17.25a25,25,0,0,1,3.3-10.33A22,22,0,0,1,524.42,407.89Z" style="fill:#263238"></path><path d="M522.73,461.16a4.71,4.71,0,0,1-1.61,1.38,9.73,9.73,0,0,1-9.89.22,4.76,4.76,0,0,1-1.67-1.3c.05-.07.68.43,1.84,1a10.47,10.47,0,0,0,9.54-.22C522.07,461.63,522.67,461.1,522.73,461.16Z" style="fill:#263238"></path><path d="M522,407.67a15.13,15.13,0,0,1-11.57-.06,46.57,46.57,0,0,0,5.78.66A48,48,0,0,0,522,407.67Z" style="fill:#263238"></path><path d="M531.23,385.76a6.69,6.69,0,0,1-1.18.31c-.76.17-1.88.38-3.26.58a70.26,70.26,0,0,1-21.79-.26c-1.38-.24-2.48-.47-3.24-.67a4.76,4.76,0,0,1-1.17-.34,5.89,5.89,0,0,1,1.21.15c.77.13,1.88.3,3.26.49a86.2,86.2,0,0,0,10.83.83,87.34,87.34,0,0,0,10.85-.56c1.38-.16,2.5-.31,3.27-.42A5.52,5.52,0,0,1,531.23,385.76Z" style="fill:#263238"></path></g><g id="freepik--Bottle--inject-4"><path d="M621.91,423.34l.77,4.47c0,5.62-3.27,9.49-7.33,9.49h-43.2c-4.06,0-7.33-3.87-7.33-9.49l.76-4.47V363.65l-.76-1.31a17,17,0,0,1,6.06-13.08l9-7.47a5.14,5.14,0,0,0,1.81-4.68,82,82,0,0,1-.57-8.21c0-1.59-.07-3.18,0-4.81.09-3.43.33-6.92.75-10.38,0-.12,0-.27,0-.41.14-1.07.28-2.12.46-3.17a1.24,1.24,0,0,1,0-.27c.4-2.58.89-5.11,1.46-7.57a1.8,1.8,0,0,0-.64-1.81,2.18,2.18,0,0,1-.82-1.88l.82-10.76h21.1l.82,10.76a2.21,2.21,0,0,1-.82,1.88,1.82,1.82,0,0,0-.65,1.81c.19.79.37,1.61.53,2.42.22,1.07.41,2.15.6,3.24.13.61.23,1.24.34,1.9h0a2.48,2.48,0,0,1,0,.27c.09.53.17,1.05.23,1.6s.15,1,.22,1.57v0a2.87,2.87,0,0,1,0,.39c.14,1.27.28,2.55.38,3.82.05.6.11,1.21.16,1.81s.07,1.33.1,2c.05.92.09,1.83.11,2.75.05,1.63,0,3.22,0,4.81a79.1,79.1,0,0,1-.58,8.21,5.19,5.19,0,0,0,1.81,4.68l9,7.47a17,17,0,0,1,6.06,13.08l-.77,1.31Z" style="fill:#FF725E"></path><path d="M583.56,278.28a1.28,1.28,0,0,0-1.26,1.3v6.95a1.28,1.28,0,0,0,1.26,1.3h20.38a1.28,1.28,0,0,0,1.26-1.3v-6.95a1.28,1.28,0,0,0-1.26-1.3Z" style="fill:#263238"></path><path d="M606.39,324.09H581.11c.09-3.43.33-6.92.75-10.38,0-.12,0-.27,0-.41.14-1.07.28-2.12.46-3.17a1.24,1.24,0,0,1,0-.27c.4-2.58.89-5.11,1.46-7.57a1.8,1.8,0,0,0-.64-1.81,2.18,2.18,0,0,1-.82-1.88l.82-10.76h21.1l.82,10.76a2.21,2.21,0,0,1-.82,1.88,1.82,1.82,0,0,0-.65,1.81c.19.79.37,1.61.53,2.42.22,1.07.41,2.15.6,3.24.13.61.23,1.24.34,1.9h0a2.48,2.48,0,0,1,0,.27c.09.53.17,1.05.23,1.6s.15,1,.22,1.57v0a2.87,2.87,0,0,1,0,.39c.14,1.27.28,2.55.38,3.82.05.6.11,1.21.16,1.81s.07,1.33.1,2C606.33,322.26,606.37,323.17,606.39,324.09Z" style="fill:#455a64"></path><path d="M593.75,366.57l-26-.7L566.44,362l-.08-.14a15.25,15.25,0,0,1,5.48-11.39l7-5.84H608.6l7.06,5.84a15.31,15.31,0,0,1,5.48,11.39l-.09.14-1.35,3.83Z" style="fill:#FF725E"></path><path d="M593.75,432.19a67.84,67.84,0,0,0-21.61,3.51c-3.26,0-5.74-3.32-5.79-7.75l1.35-7.88,26,2.4,26-2.4,1.35,7.88c0,4.43-2.52,7.75-5.78,7.75A67.89,67.89,0,0,0,593.75,432.19Z" style="fill:#FF725E"></path><rect x="565.58" y="363.64" width="56.33" height="59.71" style="fill:#455a64"></rect><path d="M593.75,389.23a66,66,0,0,0-15.92,1.95c-.68-3-1.37-5.93-2.05-8.89a74.16,74.16,0,0,1,35.94,0c-.68,3-1.37,5.93-2.05,8.89A66.08,66.08,0,0,0,593.75,389.23Z" style="fill:#fff"></path><path d="M570.33,420.07c-.15,0-.26-11.76-.26-26.27s.11-26.27.26-26.27.26,11.76.26,26.27S570.47,420.07,570.33,420.07Z" style="fill:#fff"></path><path d="M584.75,341.7a3,3,0,0,1-.32.9,12.16,12.16,0,0,1-1.38,2.23,36.92,36.92,0,0,1-6.28,5.83,23.26,23.26,0,0,0-5.73,6.17,17.29,17.29,0,0,0-1.31,3.24,2.9,2.9,0,0,1,.09-1,9.69,9.69,0,0,1,.9-2.46,21.38,21.38,0,0,1,5.72-6.39,43.7,43.7,0,0,0,6.32-5.67A28.28,28.28,0,0,0,584.75,341.7Z" style="fill:#fff"></path><path d="M587.09,302.05a6.33,6.33,0,0,1-.29,1.33c-.23.84-.53,2.07-.87,3.59a71.25,71.25,0,0,0-1.15,24.19c.2,1.54.38,2.79.53,3.65a6.12,6.12,0,0,1,.16,1.35,7.4,7.4,0,0,1-.36-1.31c-.21-.85-.45-2.09-.69-3.64A63.14,63.14,0,0,1,583.8,319a62,62,0,0,1,1.78-12.11c.38-1.52.74-2.73,1-3.56A7.48,7.48,0,0,1,587.09,302.05Z" style="fill:#fff"></path><path d="M604.9,288c0,.14-5,.26-11.15.26s-11.15-.12-11.15-.26,5-.26,11.15-.26S604.9,287.82,604.9,288Z" style="fill:#fafafa"></path><path d="M603.77,301.28c0,.14-4.63.26-10.35.26s-10.36-.12-10.36-.26a206.33,206.33,0,0,1,20.71,0Z" style="fill:#263238"></path><path d="M617.68,435.14a2,2,0,0,1-.58.05l-1.67.05-6.13.08-20.23.05-11.13,0h-2.5c-.81,0-1.6.06-2.37,0A6.19,6.19,0,0,1,569,434a6.7,6.7,0,0,1-1.87-3,11.85,11.85,0,0,1-.47-2.62c0-.72,0-1.29,0-1.67a2.9,2.9,0,0,1,0-.58c.05,0,.07.8.22,2.23a12.28,12.28,0,0,0,.55,2.55,6.47,6.47,0,0,0,1.83,2.82,5.88,5.88,0,0,0,3.82,1.24c.75,0,1.53,0,2.35-.05h13.64l20.23.1,6.13.09,1.67,0A2.65,2.65,0,0,1,617.68,435.14Z" style="fill:#fff"></path><rect x="578.47" y="395.04" width="30.57" height="5.61" style="fill:#fff"></rect></g><g id="freepik--Umbrellas--inject-4"><path d="M652.79,400.84a.6.6,0,0,1-.39-.76l21.09-67.88a.6.6,0,0,1,1.15.35l-21.1,67.89A.6.6,0,0,1,652.79,400.84Z" style="fill:#ae7461"></path><path d="M672.84,336.29l-24.55,2.83c3.94,0,6.87.92,8.7,2.71,3.61-.38,6.51.37,8.44,2.64a11.08,11.08,0,0,1,4.75.36,11.19,11.19,0,0,1,4.12,2.4c2.87-.76,5.68.27,8.44,2.64,2.52-.44,5.43.49,8.7,2.71Z" style="fill:#FF725E"></path><path d="M648.17,339.5a.39.39,0,0,1-.28-.33.4.4,0,0,1,.35-.45L673,335.87l18.73,16.41a.4.4,0,1,1-.53.6l-18.46-16.17-24.38,2.81A.44.44,0,0,1,648.17,339.5Z" style="fill:#ae7461"></path><path d="M682.62,350.25a.51.51,0,0,1-.21-.15l-9.71-13.33-15.58,5.44a.39.39,0,0,1-.51-.24.4.4,0,0,1,.25-.51L673,335.81l10.07,13.82a.4.4,0,0,1-.09.56A.37.37,0,0,1,682.62,350.25Z" style="fill:#ae7461"></path><path d="M664.94,345.26a.6.6,0,0,1-.15-.09.42.42,0,0,1,0-.57l8.37-9.22,1.63,12.34a.4.4,0,0,1-.79.11l-1.41-10.63-7.2,7.94A.42.42,0,0,1,664.94,345.26Z" style="fill:#ae7461"></path><path d="M656,413.09a.6.6,0,0,1-.75-.39l-20.88-68a.6.6,0,0,1,.4-.75.61.61,0,0,1,.75.4l20.88,67.95A.59.59,0,0,1,656,413.09Z" style="fill:#6f4439"></path><path d="M636.12,348.49l-18.67,16.19c3.27-2.2,6.19-3.12,8.71-2.67,2.77-2.35,5.58-3.36,8.45-2.58a11.28,11.28,0,0,1,4.13-2.39,11.15,11.15,0,0,1,4.76-.33c1.94-2.26,4.84-3,8.45-2.59,1.84-1.79,4.77-2.66,8.71-2.67Z" style="fill:#455a64"></path><path d="M617.56,365.07a.4.4,0,0,1-.38-.69L636,348.07l24.72,3a.4.4,0,0,1-.09.8l-24.37-2.94L617.71,365A.6.6,0,0,1,617.56,365.07Z" style="fill:#6f4439"></path><path d="M652.07,354.5a.43.43,0,0,1-.25,0L636.27,349l-9.79,13.28a.4.4,0,1,1-.64-.47L636,348l16.1,5.73a.4.4,0,0,1,.25.51A.43.43,0,0,1,652.07,354.5Z" style="fill:#6f4439"></path><path d="M634.66,360.35a.33.33,0,0,1-.17,0,.4.4,0,0,1-.35-.45l1.7-12.33,8.32,9.27a.4.4,0,0,1-.6.53l-7.16-8L634.94,360A.42.42,0,0,1,634.66,360.35Z" style="fill:#6f4439"></path><path d="M664.15,425.69a.6.6,0,0,1-.68-.51l-9.91-70.4a.59.59,0,0,1,.51-.67.6.6,0,0,1,.68.51L664.66,425A.59.59,0,0,1,664.15,425.69Z" style="fill:#ae7461"></path><path d="M654.72,358.76l-21,13.05c3.59-1.66,6.61-2.11,9-1.26,3.1-1.89,6-2.45,8.76-1.22A10.55,10.55,0,0,1,660.7,368c2.28-1.92,5.26-2.19,8.76-1.22,2.1-1.48,5.13-1.87,9-1.26Z" style="fill:#FF725E"></path><path d="M633.78,372.21a.42.42,0,0,1-.4-.19.4.4,0,0,1,.13-.55l21.15-13.14,23.94,6.84a.4.4,0,0,1,.27.5.4.4,0,0,1-.49.27l-23.6-6.74-20.85,12.95A.39.39,0,0,1,633.78,372.21Z" style="fill:#ae7461"></path><path d="M669.52,367.21a.43.43,0,0,1-.25,0l-14.48-7.91L643,370.83a.4.4,0,0,1-.57,0,.41.41,0,0,1,0-.57l12.18-12,15,8.19a.4.4,0,0,1,.16.55A.38.38,0,0,1,669.52,367.21Z" style="fill:#ae7461"></path><path d="M651.4,370.25a.52.52,0,0,1-.17,0,.41.41,0,0,1-.27-.5l3.63-11.91,6.75,10.46a.4.4,0,0,1-.68.44l-5.81-9L651.73,370A.43.43,0,0,1,651.4,370.25Z" style="fill:#ae7461"></path><polygon points="677.64 380.15 632.24 380.15 636.02 437.56 673.45 437.56 677.64 380.15" style="fill:#263238"></polygon></g><g id="freepik--cocktail-shaker--inject-4"><path d="M157.68,319.67l4.45,1.59a20.43,20.43,0,0,0,11.12,1.16,8,8,0,0,0,2.8-.93c.84-.52,1.75-.85,1.94-1.82C171.37,317.69,164.18,317.34,157.68,319.67Z" style="fill:#263238"></path><path d="M191.84,344.75v-6.07c0-6.8-9.62-11.13-9.62-11.13V325.2H177.9l.09-5.53a42.4,42.4,0,0,1-20.31,0l.11,5.53h-5.48v2.35s-9.62,4.33-9.62,11.13v6.07s-4.35,2.59-4,6.06c.29,2.5.16,34.68.07,52.32-.05,8.9,1,17.53,5.11,25.56,0,.05,0-.05.05,0,3.8,7.42,12.86,12.42,21.63,12.42h3.35A23.07,23.07,0,0,0,189.57,429l.07-.14a55.81,55.81,0,0,0,6.09-25.74c-.09-17.64-.22-49.82.07-52.32C196.19,347.34,191.84,344.75,191.84,344.75Z" style="fill:#455a64"></path><path d="M182.22,327.55a4.76,4.76,0,0,1-1.13.34c-.74.19-1.81.42-3.15.63a73.71,73.71,0,0,1-10.54.89,59.45,59.45,0,0,1-10.57-.69,27.15,27.15,0,0,1-3.13-.69,4.61,4.61,0,0,1-1.11-.41c0-.08,1.63.39,4.3.74a74.12,74.12,0,0,0,10.5.53,96.46,96.46,0,0,0,10.5-.73c1.34-.17,2.41-.34,3.16-.47A5.8,5.8,0,0,1,182.22,327.55Z" style="fill:#263238"></path><path d="M182.22,325.28a6,6,0,0,1-1.15.29c-.75.13-1.84.3-3.19.46-2.7.3-6.46.58-10.61.62a78.37,78.37,0,0,1-10.62-.49,27.94,27.94,0,0,1-3.18-.54,6,6,0,0,1-1.14-.34c0-.09,1.66.28,4.36.52a104.06,104.06,0,0,0,10.57.33c4.14,0,7.88-.26,10.58-.47,1.36-.11,2.45-.22,3.2-.29A4.37,4.37,0,0,1,182.22,325.28Z" style="fill:#263238"></path><path d="M191.55,345.12a1.37,1.37,0,0,1-.47.16l-1.39.36c-1.2.31-3,.68-5.15,1.06s-4.81.75-7.73,1-6.16.42-9.55.41-6.62-.22-9.54-.51-5.55-.69-7.73-1.1-3.94-.79-5.14-1.11l-1.38-.37a1.64,1.64,0,0,1-.47-.17,3,3,0,0,1,.5.06l1.4.28c1.21.26,3,.59,5.16.95s4.79.7,7.7,1,6.13.44,9.5.46,6.59-.14,9.51-.37,5.53-.57,7.71-.91,4-.65,5.17-.9l1.4-.26A3.14,3.14,0,0,1,191.55,345.12Z" style="fill:#263238"></path><path d="M193.56,351.58a3.09,3.09,0,0,1-.51.23l-1.51.56c-.65.24-1.46.53-2.41.8s-2,.64-3.24.92-2.54.64-4,.91-3,.53-4.62.78a81.26,81.26,0,0,1-10.73.7,83.76,83.76,0,0,1-10.72-.8c-1.63-.27-3.19-.5-4.62-.83s-2.77-.62-4-1S145,353.24,144,353s-1.75-.57-2.4-.82l-1.5-.58a2.62,2.62,0,0,1-.51-.23,2.24,2.24,0,0,1,.54.13l1.53.48c.66.23,1.47.49,2.43.74s2,.61,3.24.88,2.53.62,4,.88,3,.52,4.6.77a86.84,86.84,0,0,0,10.65.76,88,88,0,0,0,10.66-.65c1.63-.24,3.18-.44,4.61-.74s2.77-.55,4-.84,2.29-.58,3.25-.84,1.77-.5,2.43-.71l1.53-.47A2.36,2.36,0,0,1,193.56,351.58Z" style="fill:#263238"></path><path d="M184.19,440.39c-8.6,5.2-23.53,4.08-33.53,0v-6.57h33.53Z" style="fill:#455a64"></path><path d="M188,431.09a2,2,0,0,1-.18.42,7.28,7.28,0,0,1-.64,1.13,14.55,14.55,0,0,1-3.27,3.49,26.44,26.44,0,0,1-14.71,5.2,24.78,24.78,0,0,1-4.51-.2,35.74,35.74,0,0,1-4.13-.74,34.75,34.75,0,0,1-6.7-2.3,16.85,16.85,0,0,1-4-2.57,6,6,0,0,1-.87-1,1.76,1.76,0,0,1-.24-.38,1.65,1.65,0,0,1,.33.32,7.34,7.34,0,0,0,.92.88,17.84,17.84,0,0,0,4,2.39,36.18,36.18,0,0,0,6.66,2.17,37.6,37.6,0,0,0,4.08.71,25.78,25.78,0,0,0,4.42.18,27,27,0,0,0,14.51-5A17.08,17.08,0,0,0,188,431.09Z" style="fill:#263238"></path><g style="opacity:0.30000000000000004"><path d="M152.71,357.21l-6.63-1c-.33,16.14-1.06,37.66-1.39,53.8-.08,3.83-.15,7.73.95,11.37s3.57,7.06,7.07,8.15C151.92,406.68,152.6,380.1,152.71,357.21Z" style="fill:#fff"></path></g></g><g id="freepik--Character--inject-4"><path d="M446,237.25s11.27.46,17.53,2.2,82,29.71,82,29.71,11.28,10.79,11.9,21.58-.94,18.89-7.52,23.54-31.27,4.54-40.41,2.21c-1.39-.36-59.25-11.07-59.25-11.07l-13.44-45.31Z" style="fill:#ebebeb"></path><path d="M472.32,271.37s-.06.16-.22.42-.44.68-.72,1.13c-.65,1-1.55,2.38-2.65,4.15A147.52,147.52,0,0,0,461,291.3a144.65,144.65,0,0,0-6.07,15c-.67,2-1.18,3.56-1.52,4.67l-.42,1.28c-.1.29-.16.44-.18.43a2,2,0,0,1,.08-.46c.09-.36.19-.79.32-1.3.28-1.13.75-2.75,1.37-4.74a121.48,121.48,0,0,1,13.87-29.35c1.14-1.75,2.1-3.13,2.79-4.07l.8-1.07A2.16,2.16,0,0,1,472.32,271.37Z" style="fill:#263238"></path><path d="M538.19,316a2.63,2.63,0,0,1-.64,0c-.43,0-1.06,0-1.86,0a33.39,33.39,0,0,1-6.74-1.11,35.08,35.08,0,0,1-24.56-23,35.69,35.69,0,0,1-1.83-10,33,33,0,0,1,.39-6.82c.1-.8.28-1.4.36-1.82a2.59,2.59,0,0,1,.17-.62,3,3,0,0,1-.07.64c-.05.43-.19,1-.26,1.83a36.94,36.94,0,0,0,1.7,16.6,35.93,35.93,0,0,0,24.2,22.81,36.6,36.6,0,0,0,6.66,1.27c.79.1,1.42.09,1.84.14A4.09,4.09,0,0,1,538.19,316Z" style="fill:#263238"></path><path d="M335.22,235.24s-44.88,8.7-46.28,11.49S297,319.15,297,319.15l18.61,69.19L297,437.49H455.45L439.74,406.1l15.6-98.32L447,237.25l-34.55-1.31L400.26,221.6l-53.19-.86Z" style="fill:#263238"></path><path d="M411.2,456.49a16.94,16.94,0,0,0-7.4,1.46,10,10,0,0,0-4.33,4.32A30.22,30.22,0,0,0,397.2,468c3.16-.06,6.5-.19,9.14-1.92,3.11-2.05,4.54-5.92,4.86-9.63" style="fill:#455a64"></path><path d="M397.2,467.93s0-.06.07-.17l.22-.49.16-.36c.06-.13.14-.26.21-.41s.33-.64.56-1l.35-.56c.12-.19.26-.38.41-.58.27-.41.61-.82.95-1.25a22,22,0,0,1,2.56-2.55,22.54,22.54,0,0,1,2.95-2.08c.48-.27.94-.53,1.39-.74.22-.11.43-.22.64-.31l.61-.26c.38-.17.74-.29,1.05-.4l.44-.16.37-.11.52-.15.19,0-.18.07-.51.17-.37.12-.43.16c-.31.13-.67.25-1.05.42l-.6.27c-.21.09-.42.2-.64.31-.44.21-.89.48-1.37.75a24.09,24.09,0,0,0-2.94,2.07,23.35,23.35,0,0,0-2.54,2.53c-.35.43-.68.83-1,1.24-.14.2-.29.39-.41.58l-.36.55c-.23.35-.4.68-.57,1l-.22.41-.17.35-.24.48Z" style="fill:#263238"></path><path d="M410.85,456.32l-.14.12-.42.32-1.53,1.18c-1.29,1-3.05,2.4-4.94,4s-3.55,3.13-4.74,4.25l-1.4,1.33-.38.36-.14.12.12-.14.37-.38c.32-.32.79-.79,1.37-1.35,1.18-1.14,2.83-2.67,4.72-4.29s3.67-3,5-4c.65-.49,1.18-.89,1.55-1.15l.43-.3Z" style="fill:#263238"></path><path d="M411.28,456.62s0,.05-.09.16a5,5,0,0,1-.29.45,15.34,15.34,0,0,1-1.2,1.54,24.93,24.93,0,0,1-2.06,2.05c-.81.74-1.75,1.49-2.73,2.28s-1.93,1.53-2.82,2.18a26.71,26.71,0,0,1-2.43,1.59,17.15,17.15,0,0,1-1.75.89l-.49.2-.18.06.17-.09c.11-.05.28-.11.48-.22a18.23,18.23,0,0,0,1.73-.91c.71-.42,1.53-1,2.41-1.61s1.82-1.4,2.8-2.19,1.92-1.54,2.73-2.26a25.25,25.25,0,0,0,2.07-2,16.92,16.92,0,0,0,1.23-1.51l.31-.44C411.24,456.66,411.28,456.61,411.28,456.62Z" style="fill:#263238"></path><path d="M411.32,456.9a1,1,0,0,1-.08.18l-.23.49c-.21.43-.52,1.05-.92,1.8a22.34,22.34,0,0,1-1.61,2.52,16.06,16.06,0,0,1-2.54,2.64,16.71,16.71,0,0,1-3.08,2,16.09,16.09,0,0,1-2.8,1.06,5,5,0,0,1-.59.14l-.53.12-.86.14-.54.06h-.19l.18,0,.55-.08c.23,0,.51-.09.85-.16l.52-.12a4.6,4.6,0,0,0,.58-.16,15.39,15.39,0,0,0,2.78-1.08,16.45,16.45,0,0,0,3.05-2,15.85,15.85,0,0,0,2.53-2.61,21.58,21.58,0,0,0,1.62-2.5c.42-.74.73-1.35,1-1.77l.25-.48Z" style="fill:#263238"></path><path d="M303.65,452a10,10,0,0,0,2.06,4,6,6,0,0,0,3.18,1.73,17.77,17.77,0,0,0,3.65.32c-.57-1.78-1.2-3.65-2.62-4.86-1.68-1.42-4.12-1.58-6.27-1.14" style="fill:#455a64"></path><path d="M312.48,458h-.12l-.31,0-.5-.08c-.19,0-.42-.08-.65-.15a6.74,6.74,0,0,1-.78-.23c-.28-.09-.57-.21-.87-.34a12.08,12.08,0,0,1-1.88-1,13,13,0,0,1-1.67-1.33c-.24-.23-.46-.44-.65-.66a5.67,5.67,0,0,1-.53-.62c-.16-.19-.29-.37-.41-.53a4.34,4.34,0,0,1-.28-.42l-.17-.27a.36.36,0,0,1-.05-.1l.07.09.19.25c.08.12.18.25.3.41s.25.33.41.52.34.39.54.6.42.43.66.65a13.72,13.72,0,0,0,1.66,1.31,14.4,14.4,0,0,0,1.85,1c.3.12.59.25.86.34s.53.18.77.25.45.11.64.16a4.75,4.75,0,0,0,.49.1l.32.06Z" style="fill:#263238"></path><path d="M303.61,452.19a2.48,2.48,0,0,1,.35.23l.93.67c.78.55,1.87,1.31,3.1,2.11s2.37,1.49,3.2,2l1,.58a2.58,2.58,0,0,1,.35.23l-.38-.18-1-.55c-.84-.47-2-1.15-3.22-1.95s-2.32-1.58-3.09-2.15l-.91-.7Z" style="fill:#263238"></path><path d="M303.71,451.89l.1,0a2.81,2.81,0,0,1,.31.09,9.75,9.75,0,0,1,1.08.41,20.88,20.88,0,0,1,3.26,2,23.18,23.18,0,0,1,3,2.35,7.67,7.67,0,0,1,.79.85c.09.1.15.19.2.25a.57.57,0,0,1,.06.09,2.41,2.41,0,0,1-.29-.31,10.38,10.38,0,0,0-.82-.82,27.6,27.6,0,0,0-3-2.31,24,24,0,0,0-3.23-2,10.81,10.81,0,0,0-1.06-.45A2.38,2.38,0,0,1,303.71,451.89Z" style="fill:#263238"></path><path d="M303.86,451.82H304l.32.05c.27,0,.68.11,1.17.21a11.7,11.7,0,0,1,1.7.49,8.68,8.68,0,0,1,1.93,1,9.33,9.33,0,0,1,2.71,2.83,6.29,6.29,0,0,1,.33.59c.09.18.17.34.22.47l.12.3a.82.82,0,0,1,0,.11s0,0-.06-.1l-.14-.29c-.06-.13-.15-.28-.24-.46s-.2-.37-.34-.57a9.62,9.62,0,0,0-2.71-2.78,9.42,9.42,0,0,0-1.9-1,11.3,11.3,0,0,0-1.68-.5c-.49-.12-.89-.2-1.16-.25l-.32-.07Z" style="fill:#263238"></path><path d="M331.16,444.28a12.64,12.64,0,0,0-1.66,5.35,7.58,7.58,0,0,0,1.3,4.35,21.7,21.7,0,0,0,3,3.52c1.07-2.09,2.17-4.32,2-6.65-.24-2.76-2.27-5.06-4.58-6.57" style="fill:#455a64"></path><path d="M333.7,457.46s0,0-.09-.1l-.25-.32a5.78,5.78,0,0,1-.37-.51c-.13-.21-.3-.44-.45-.71l-.24-.43c-.09-.15-.16-.31-.24-.47-.17-.32-.32-.69-.48-1.07a16.94,16.94,0,0,1-.77-2.57,16.36,16.36,0,0,1-.31-2.66c0-.42,0-.81,0-1.18s0-.7.07-1,.08-.59.12-.84a6,6,0,0,1,.11-.62l.09-.39c0-.09,0-.14,0-.14a.72.72,0,0,1,0,.14l-.06.4c0,.17-.07.38-.1.62s-.07.53-.09.84-.05.64-.06,1,0,.75,0,1.16a17.5,17.5,0,0,0,.32,2.65,17,17,0,0,0,.75,2.55c.16.38.3.74.47,1.06s.15.33.23.48l.24.42c.14.28.3.51.43.72s.25.39.35.53l.23.32C333.68,457.42,333.71,457.46,333.7,457.46Z" style="fill:#263238"></path><path d="M330.93,444.44l0,.14.07.38c.05.35.13.83.23,1.42.2,1.19.5,2.84.89,4.64s.79,3.43,1.1,4.6c.15.57.28,1,.37,1.39l.1.38c0,.08,0,.13,0,.13a1.11,1.11,0,0,1-.05-.13l-.12-.37c-.1-.32-.24-.79-.4-1.38-.33-1.16-.75-2.78-1.14-4.59s-.68-3.46-.86-4.66c-.09-.6-.15-1.09-.19-1.42l-.05-.39C330.93,444.49,330.92,444.44,330.93,444.44Z" style="fill:#263238"></path><path d="M331.28,444.26a.86.86,0,0,1,.07.12c0,.08.12.19.2.34a13,13,0,0,1,.59,1.34,26.89,26.89,0,0,1,1.14,4.66c.17.92.32,1.8.43,2.61a18.27,18.27,0,0,1,.18,2.15c0,.61,0,1.11,0,1.45,0,.18,0,.31-.05.4s0,.13,0,.13,0,0,0-.13,0-.23,0-.4a13.75,13.75,0,0,0,0-1.45,21.32,21.32,0,0,0-.2-2.14c-.12-.8-.27-1.68-.44-2.6a29.06,29.06,0,0,0-1.11-4.65,12.51,12.51,0,0,0-.55-1.35l-.17-.35C331.29,444.31,331.27,444.26,331.28,444.26Z" style="fill:#263238"></path><path d="M331.48,444.34l.09.11.24.33c.21.28.51.7.85,1.23a15.82,15.82,0,0,1,1.09,1.94,11.75,11.75,0,0,1,.74,7.52c-.06.31-.16.58-.22.83s-.15.44-.22.61l-.16.37-.06.13a1.31,1.31,0,0,1,0-.14l.14-.38c.05-.17.11-.37.19-.61s.15-.52.2-.83a12.06,12.06,0,0,0,.06-4.88,12.3,12.3,0,0,0-.81-2.57,17.49,17.49,0,0,0-1.06-1.94c-.34-.54-.62-1-.82-1.26l-.22-.34C331.5,444.39,331.47,444.34,331.48,444.34Z" style="fill:#263238"></path><path d="M325.22,455.8a2.38,2.38,0,0,1,.49-1.77,3.54,3.54,0,0,0-.77.38l-.43.33s-.07-.28-.13-.59a.72.72,0,0,0-.22-.44l-.57,1a1.83,1.83,0,0,0-1.27-.82,2.09,2.09,0,0,1,.56,1.69,4.93,4.93,0,1,0,2.34.19Z" style="fill:#FF725E"></path><g style="opacity:0.4"><path d="M324.12,457.29a1.19,1.19,0,0,0-1.27-.81,3.12,3.12,0,0,0-2.19,1.16,5.44,5.44,0,0,0-1.06,2.3,2.77,2.77,0,0,0,.14,2,1.21,1.21,0,0,0,1.72.46,1.72,1.72,0,0,0,.42-1.43,2.16,2.16,0,0,1,.32-1.49c.38-.43,1.05-.46,1.5-.82A1.27,1.27,0,0,0,324.12,457.29Z" style="fill:#fff"></path></g><g style="opacity:0.4"><path d="M327.9,457.94a4.74,4.74,0,0,1,.53,2.18,4.93,4.93,0,0,1-9,2.82,4.92,4.92,0,0,0,9.14-2.51A4.79,4.79,0,0,0,327.9,457.94Z"></path></g><path d="M360.28,465.94a2.36,2.36,0,0,1-1.79-.36,2.89,2.89,0,0,0,.43.74l.36.41s-.27.09-.58.16a.71.71,0,0,0-.42.26l1.06.49a1.82,1.82,0,0,0-.73,1.33,2,2,0,0,1,1.64-.67,4.92,4.92,0,1,0,0-2.36Z" style="fill:#FF725E"></path><g style="opacity:0.4"><path d="M361.84,466.94a1.19,1.19,0,0,0-.71,1.33,3.17,3.17,0,0,0,1.31,2.11,5.39,5.39,0,0,0,2.36.89,2.75,2.75,0,0,0,2-.28,1.21,1.21,0,0,0,.34-1.74,1.79,1.79,0,0,0-1.46-.33,2.07,2.07,0,0,1-1.5-.21c-.46-.35-.54-1-.92-1.44A1.29,1.29,0,0,0,361.84,466.94Z" style="fill:#fff"></path></g><g style="opacity:0.4"><path d="M362.24,463.12a5,5,0,0,1,2.14-.67,4.93,4.93,0,0,1,3.42,8.75,4.9,4.9,0,1,0-5.56-8.08Z"></path></g><path d="M288.94,246.73s-13.51,6.53-20.83,18.13-35,53.16-35,53.16a235.13,235.13,0,0,0-16.83,30S197,363.1,211.74,382.82c4.88,6.52,34.29,13.5,45.25-4.3,3.84-6.25,13.8-4.06,16-11,2.49-7.67-2.43-10.27-2.43-10.27L297,319.15Z" style="fill:#ebebeb"></path><path d="M266,353.27s-.58-.55-1.61-1.53a37.93,37.93,0,0,0-4.69-3.76A36.57,36.57,0,0,0,222,345.54a38.87,38.87,0,0,0-5.14,3.14c-1.15.84-1.76,1.33-1.79,1.3a2.71,2.71,0,0,1,.41-.4c.29-.25.69-.64,1.26-1.06a33.48,33.48,0,0,1,5.09-3.3,36.05,36.05,0,0,1,38.06,2.45,34,34,0,0,1,4.62,3.93c.52.5.86.94,1.12,1.21A2.27,2.27,0,0,1,266,353.27Z" style="fill:#263238"></path><path d="M271.72,348c-.06.06-1.15-.92-3-2.38a64.84,64.84,0,0,0-7.59-5.15,66,66,0,0,0-8.27-4c-2.19-.86-3.58-1.31-3.56-1.39a4.07,4.07,0,0,1,1,.21c.64.16,1.56.45,2.67.84a50.92,50.92,0,0,1,16,9.19c.9.77,1.61,1.42,2.07,1.89A3.89,3.89,0,0,1,271.72,348Z" style="fill:#263238"></path><path d="M281.12,289.33c.13-.07,4,7.06,8.63,15.91s8.3,16.08,8.17,16.15-4-7.05-8.63-15.91S281,289.4,281.12,289.33Z" style="fill:#263238"></path><polygon points="320.37 238.12 380.69 363.36 428.93 236.56 412.48 235.94 400.26 221.6 346.39 220.74 334.54 235.24 320.37 238.12" style="fill:#ebebeb"></polygon><path d="M412.47,235.94s0,.06-.08.16l-.27.44-1.1,1.71c-1,1.49-2.4,3.66-4.25,6.38s-4.12,6-6.93,9.5a68.48,68.48,0,0,1-10.48,10.81l-.19.15-.15-.2a89.47,89.47,0,0,0-7.59-8.75,95.49,95.49,0,0,1-8.25-9.43l-.12-.16h.42c-2.47,3.41-5.13,6.55-7.7,9.56s-5,6-7.15,8.89l-.18.25-.19-.23L340.77,244.5c-2.11-2.5-3.79-4.49-5-5.89L334.5,237l-.33-.41-.1-.15.13.12.36.39,1.36,1.53,5.07,5.8c4.35,5,10.45,12.09,17.63,20.39l-.38,0c2.15-3,4.58-5.92,7.15-8.94s5.21-6.14,7.67-9.54l.21-.28.21.28.12.16a96.56,96.56,0,0,0,8.2,9.39,85.74,85.74,0,0,1,7.6,8.82l-.34-.05a68.39,68.39,0,0,0,10.47-10.68c2.82-3.51,5.12-6.74,7-9.42l4.35-6.29,1.16-1.67.31-.43Z" style="fill:#263238"></path><polygon points="362.7 259.38 369.09 270.7 379.37 270.7 384.81 259.38 373.27 246.4 362.7 259.38" style="fill:#263238"></polygon><polygon points="379.37 270.7 369.09 270.7 368.89 272.1 364.59 323.02 392.32 323.25 379.37 270.7" style="fill:#263238"></polygon><path d="M379,270.64a24.14,24.14,0,0,1-4.91.16,23.21,23.21,0,0,1-4.89-.36,23.18,23.18,0,0,1,4.9-.16A22.49,22.49,0,0,1,379,270.64Z" style="fill:#455a64"></path><path d="M366.45,264.75a12,12,0,0,1,1.44-2L371.6,258l3.67-4.77a13.59,13.59,0,0,1,1.57-2,10.85,10.85,0,0,1-1.27,2.17c-.85,1.29-2.11,3-3.56,4.88s-2.82,3.51-3.83,4.67A11.6,11.6,0,0,1,366.45,264.75Z" style="fill:#455a64"></path><path d="M363.72,77.08c12.59-2.14,23.66,2.7,34.28,9.8s18.61,17.81,23.23,29.72c4.86,12.54,6,26.65,2.31,39.58S411,180.67,399,186.76c-16.38,8.32-37.33,5.42-52-5.66s-23-29.4-23.74-47.76c-.48-12.64,2.54-25.58,9.61-36.08s18.35-18.35,30.87-20.18" style="fill:#263238"></path><path d="M399.53,119.89c-1.85-4.82-1.13-10.19-1.86-15.3C396.07,93.35,387,84.34,376.53,80c-9.74-4.08-21.65-3.19-33.39.61-8.05,2.6-15.62,7.14-21,13.67a35.33,35.33,0,0,0-6.5,31.72l57.52-8.38c5.39,4.45,10.9,9,17.43,11.47a11.91,11.91,0,0,0,6,1,5.37,5.37,0,0,0,4.47-3.7C401.62,124.13,400.33,122,399.53,119.89Z" style="fill:#263238"></path><path d="M400.3,221l.58-104.72a9.37,9.37,0,0,0-8.75-9.18L341.91,96.44c-16-1.07-25.82,19-26.2,35-.43,17.8-.26,39.55,2.36,52.71,5.27,26.48,25.82,29.08,25.82,29.08s-.24-.9.25,8.78l29.09,24.41Z" style="fill:#ffbf9d"></path><path d="M327.07,154.32a3.41,3.41,0,0,0,3.43,3.32,3.27,3.27,0,0,0,3.4-3.21,3.41,3.41,0,0,0-3.42-3.32A3.27,3.27,0,0,0,327.07,154.32Z" style="fill:#263238"></path><path d="M320.86,142.53c.44.43,2.95-1.58,6.63-1.72s6.44,1.61,6.82,1.14c.19-.21-.27-1-1.48-1.8a9.33,9.33,0,0,0-5.48-1.46,9,9,0,0,0-5.26,1.92C321,141.52,320.64,142.34,320.86,142.53Z" style="fill:#263238"></path><path d="M359.73,153.62a3.41,3.41,0,0,0,3.43,3.31,3.27,3.27,0,0,0,3.4-3.21,3.41,3.41,0,0,0-3.43-3.32A3.27,3.27,0,0,0,359.73,153.62Z" style="fill:#263238"></path><path d="M355.77,141.64c.44.43,3-1.59,6.64-1.72s6.44,1.6,6.82,1.13c.19-.2-.27-1-1.48-1.8a9.37,9.37,0,0,0-5.49-1.46,9.07,9.07,0,0,0-5.26,1.92C355.91,140.63,355.56,141.45,355.77,141.64Z" style="fill:#263238"></path><path d="M344.74,169.6c0-.21-2.29-.51-6-.84-1-.06-1.84-.22-2-.85a4.88,4.88,0,0,1,.52-2.81q1.2-3.45,2.5-7.25c3.46-10.33,5.93-18.81,5.51-18.95s-3.56,8.13-7,18.46l-2.38,7.29c-.31,1.08-.88,2.32-.34,3.71a2.37,2.37,0,0,0,1.59,1.31,6.44,6.44,0,0,0,1.61.16C342.42,169.89,344.73,169.81,344.74,169.6Z" style="fill:#263238"></path><path d="M343.89,213.21a67.83,67.83,0,0,0,35.31-10.9s-8.26,18.79-35,17.33Z" style="fill:#ff9a6c"></path><path d="M346.64,178.4a6.61,6.61,0,0,1,5.84-2.69,6.08,6.08,0,0,1,4.27,2.08,3.84,3.84,0,0,1,.46,4.37c-.94,1.44-3,1.84-4.77,1.41a14,14,0,0,1-4.81-2.62,4.24,4.24,0,0,1-1.1-1,1.23,1.23,0,0,1,0-1.37" style="fill:#ff9a6c"></path><path d="M355.66,171.73c-.6,0-.45,4-3.76,6.94s-7.57,2.69-7.58,3.25c-.05.25,1,.74,2.77.72a9.92,9.92,0,0,0,6.34-2.49,8.69,8.69,0,0,0,2.9-5.81C356.41,172.66,355.93,171.69,355.66,171.73Z" style="fill:#263238"></path><path d="M356,130.73c.4,1,4,.36,8.38.72s7.87,1.39,8.41.47c.24-.44-.4-1.36-1.85-2.27a14.64,14.64,0,0,0-12.79-.91C356.57,129.44,355.8,130.26,356,130.73Z" style="fill:#263238"></path><path d="M321.3,126.41c.68.81,3.18-.15,6.22-.31s5.65.34,6.21-.55c.24-.44-.2-1.26-1.35-2a9,9,0,0,0-10,.7C321.32,125.14,321,126,321.3,126.41Z" style="fill:#263238"></path><path d="M408.73,112.14c-5.2-15.29-27.94-36.13-44-34.68L339.29,93.4a24.85,24.85,0,0,0,17.22,18.66c4.57,1.29,10.06,1.56,12.84,5.42s1.35,9.79,4,13.86c3.68,5.64,13.41,5.17,16.21,11.3,1.22,2.67.67,5.91,1.94,8.56,1.69,3.53,10.81,7.88,14.52,6.62s3.6-7.62,4.75-11c2-5.73,1.06-8.66.31-11.83C409.3,127.51,411.21,119.43,408.73,112.14Z" style="fill:#263238"></path><path d="M395.07,161.19c-.08-2,2-6.75,4-7.14,5.2-1,14.65-1,15.25,12.32.83,18.16-17.57,15.25-17.63,14.73S395.32,168,395.07,161.19Z" style="fill:#ffbf9d"></path><path d="M401.91,174c.07-.06.32.21.87.43a3.14,3.14,0,0,0,2.37-.06c1.88-.79,3.36-3.91,3.3-7.18a10.51,10.51,0,0,0-1.09-4.49,3.64,3.64,0,0,0-2.49-2.32,1.62,1.62,0,0,0-1.83.95c-.22.52-.09.87-.18.91s-.41-.29-.29-1a1.93,1.93,0,0,1,.66-1.17,2.38,2.38,0,0,1,1.73-.55,4.48,4.48,0,0,1,3.43,2.67,10.77,10.77,0,0,1,1.33,5c0,3.67-1.67,7.18-4.26,8a3.39,3.39,0,0,1-2.92-.35C402,174.4,401.85,174,401.91,174Z" style="fill:#ff9a6c"></path><path d="M344.56,87.91c-1.67,7.39-12.91,16.87-17.84,22.63-9.41,11-11.27,14.63-11.18,39.18-4.44-8.48-7.84-16.79-7.5-26.35s3.86-19.16,10.52-26,16.53-10.8,26-9.42" style="fill:#263238"></path><path d="M442.29,84.63c-.66-7.71-5.57-14.9-12.49-19.22a36.67,36.67,0,0,0-24-4.77c-5.8.77-11.51,2.86-15.77,6.58s-6.91,11.68-6.26,17.07c7.9,13.39,14.7,21.24,27.55,30.79l10.86-4.42a33.66,33.66,0,0,0,17.94-16.78A19.06,19.06,0,0,0,442.29,84.63Z" style="fill:#263238"></path><path d="M396.28,181.58a6.76,6.76,0,1,0,6.76-6.75A6.76,6.76,0,0,0,396.28,181.58Z" style="fill:#263238"></path><path d="M415.45,108.26C407,92.37,395.06,83,383.7,79.25" style="fill:#263238"></path><path d="M383.7,79.25a10.4,10.4,0,0,0,1.59.69c1,.42,2.51,1.06,4.28,2a55.27,55.27,0,0,1,12.55,9A69.52,69.52,0,0,1,412,102.8c1.07,1.68,1.94,3,2.49,4a10.79,10.79,0,0,0,.93,1.46,12.34,12.34,0,0,0-.75-1.56c-.5-1-1.32-2.39-2.35-4.1a63.28,63.28,0,0,0-9.86-12.08,51.31,51.31,0,0,0-12.75-9,40.62,40.62,0,0,0-4.37-1.83A10.89,10.89,0,0,0,383.7,79.25Z" style="fill:#455a64"></path><path d="M426.07,122.21s-.08,0-.24,0l-.68.19c-.59.19-1.48.41-2.63.67a41.29,41.29,0,0,1-9.91.88,53.52,53.52,0,0,1-14.51-2.57,95.86,95.86,0,0,1-16.57-7.29c-5.65-3.09-10.95-6.21-15.65-9.21A99.1,99.1,0,0,1,354,96.11,63.66,63.66,0,0,1,347,89c-.77-.89-1.31-1.63-1.69-2.12l-.45-.55a1.22,1.22,0,0,0-.16-.18s0,.08.12.21l.4.59c.35.51.87,1.27,1.62,2.19a58.89,58.89,0,0,0,6.9,7.27,95.94,95.94,0,0,0,11.87,8.94c4.71,3,10,6.16,15.67,9.26A93.15,93.15,0,0,0,398,121.89a52.56,52.56,0,0,0,14.65,2.48,39.15,39.15,0,0,0,10-1.06,25.6,25.6,0,0,0,2.61-.77l.67-.24A1,1,0,0,0,426.07,122.21Z" style="fill:#455a64"></path><path d="M418.32,225.94c-8.9,2.71-15.09,14.23-18.5,22.83a232.33,232.33,0,0,0-7.77,23.91c-2.43,8.78-4.62,17.62-6.8,26.47q-1.8,7.29-3.59,14.57c-.13.53-.07,1.34.48,1.33.31,0,.52-.31.68-.58,4.64-8.26,9.37-16.81,10.33-26.23.41-4.07.15-8.38,2-12,1.46-2.84,4.11-5,5.09-8.07a32.15,32.15,0,0,0,.78-5.38,32.88,32.88,0,0,1,2.2-7.2A194.56,194.56,0,0,1,411,237.62c1.57-3.07,3.54-6.27,6.75-7.5" style="fill:#FF725E"></path><path d="M401.08,231.51c-.72.79-1.42,1.88-1,2.85a2.06,2.06,0,0,0,2.36.95,6.17,6.17,0,0,0,2.34-1.42c3.15-2.64,4.9-6.79,9.39-8.63A19.66,19.66,0,0,0,401.08,231.51Z" style="fill:#FF725E"></path><path d="M392.79,279.42l-3.49,4.16a29.1,29.1,0,0,1-7.54,15,62.09,62.09,0,0,0-4.34,4.55,8.58,8.58,0,0,0-2.06,5.78c.31,3.71,4.33,6.39,8,6s6.82-3.19,8.47-6.53,2.07-7.14,2.2-10.86A84.88,84.88,0,0,0,392.79,279.42Z" style="fill:#FF725E"></path><path d="M511.4,225.26s28.12,26.5,37.62,37.63,23.93,36.74,4.9,46-37.24-4-45.28-27.26-18.51-39.5-26.14-42.28c-7.91-2.88-3.76-7.41-3.76-7.41Z" style="fill:#ffbf9d"></path><path d="M507.16,223.87c.09.1-.71.78-1.94.79s-2-.63-2-.74.89.24,2,.22S507.08,223.74,507.16,223.87Z" style="fill:#ffbf9d"></path><path d="M499.76,202.63a43.7,43.7,0,0,0,4.12,4.77c1.72,1.54,5.43,3,6.29,6.4s1.72,13.68,1.72,13.68-7.86,14.88-9.58,16.73c-1.23,1.33-16.56.09-25.13-.71a20.32,20.32,0,0,1-9.09-3.09,19,19,0,0,0-7.33-3c-5.29-.72-12-1.14-12-4.29s-.57-3.14,4.43-4.57,16-1.57,16-1.57l24.56-22.13,3.33-7.16Z" style="fill:#ffbf9d"></path><path d="M507,220.48a60,60,0,0,1-8.67,7,60,60,0,0,1,8.67-7Z" style="fill:#ffbf9d"></path><polygon points="505.3 211.78 477.39 215.47 424.14 202.01 419.8 230.98 476.17 229.75 501.7 239.45 505.3 211.78" style="fill:#e0e0e0"></polygon><rect x="403.53" y="215.4" width="34.69" height="2.81" rx="1.36" transform="translate(153.65 607.62) rotate(-82.89)" style="fill:#e0e0e0"></rect><path d="M418.69,234a1.06,1.06,0,0,1-.71-.24,1.43,1.43,0,0,1-.52-.76,3.79,3.79,0,0,1,0-1.25c.22-1.88.52-4.51.88-7.73s.86-7.17,1.38-11.47q.39-3.24.83-6.77c.15-1.17.29-2.37.44-3.58l.12-.91a4.3,4.3,0,0,1,.17-1,1.68,1.68,0,0,1,3.21.51c0,.72-.14,1.25-.2,1.88-.16,1.21-.31,2.41-.45,3.58q-.45,3.52-.86,6.77c-.56,4.3-1.07,8.17-1.49,11.45s-.79,5.84-1,7.72a2.8,2.8,0,0,1-.31,1.2,1.33,1.33,0,0,1-.73.56,1,1,0,0,1-.74,0,2.63,2.63,0,0,0,.7-.11,1.31,1.31,0,0,0,.64-.55,2.81,2.81,0,0,0,.24-1.15c.22-1.88.52-4.51.88-7.74s.86-7.16,1.38-11.46c.26-2.16.54-4.43.83-6.77.15-1.18.29-2.37.44-3.58.07-.59.18-1.27.2-1.79a1.15,1.15,0,0,0-2.2-.34,3.73,3.73,0,0,0-.15.84l-.11.92q-.24,1.82-.45,3.57-.45,3.52-.86,6.77c-.56,4.3-1.07,8.17-1.49,11.45s-.79,5.84-1.05,7.72a3.57,3.57,0,0,0-.08,1.18,1.28,1.28,0,0,0,.44.71A2.22,2.22,0,0,0,418.69,234Z" style="fill:#263238"></path><rect x="489.07" y="224.49" width="29.65" height="2.81" rx="1.36" transform="translate(217.37 697.96) rotate(-82.89)" style="fill:#e0e0e0"></rect><path d="M502,240.6a1,1,0,0,1-.62-.18,1.35,1.35,0,0,1-.53-.59,1.76,1.76,0,0,1-.1-1.08c.19-1.64.44-3.9.75-6.67s.74-6.17,1.18-9.87c.23-1.86.47-3.81.71-5.83.13-1,.25-2,.38-3.09l.1-.78a1.83,1.83,0,0,1,.27-.86,1.69,1.69,0,0,1,3,.47,2.23,2.23,0,0,1,0,.89l-.1.78q-.19,1.58-.39,3.09c-.26,2-.51,4-.74,5.82-.49,3.7-.92,7-1.29,9.87s-.69,5-.92,6.64a1.59,1.59,0,0,1-.4,1,1.42,1.42,0,0,1-.69.4,1,1,0,0,1-.64,0,2.47,2.47,0,0,0,.61-.08,1.34,1.34,0,0,0,.92-1.33c.19-1.64.44-3.9.75-6.67s.74-6.17,1.18-9.88c.23-1.86.47-3.81.71-5.83.13-1,.25-2,.38-3.08l.1-.79a1.6,1.6,0,0,0,0-.69,1.09,1.09,0,0,0-.92-.8,1.1,1.1,0,0,0-1.15.48,4.06,4.06,0,0,0-.29,1.43c-.13,1-.26,2.07-.39,3.08-.26,2-.51,4-.74,5.83-.49,3.69-.92,7-1.29,9.86s-.69,5-.92,6.64a1.4,1.4,0,0,0,.49,1.56A2.4,2.4,0,0,0,502,240.6Z" style="fill:#263238"></path><rect x="468.73" y="221.16" width="16.05" height="2.81" rx="1.36" transform="translate(196.97 668.15) rotate(-82.9)" style="fill:#e0e0e0"></rect><path d="M475.72,230.52a.66.66,0,0,1-.37,0,1.39,1.39,0,0,1-.79-.71,1.5,1.5,0,0,1-.15-.78c0-.28.06-.57.09-.89.07-.65.15-1.36.23-2.14.19-1.63.4-3.51.64-5.59.13-1.05.26-2.16.4-3.3,0-.28.07-.57.1-.86l.06-.44a1.57,1.57,0,0,1,.14-.5,1.68,1.68,0,0,1,3.17.5,5.3,5.3,0,0,1-.07.94c0,.29-.08.58-.11.86-.15,1.14-.29,2.24-.43,3.3-.28,2.07-.53,3.95-.75,5.57-.11.78-.22,1.49-.31,2.14-.05.31-.09.6-.14.88a1.47,1.47,0,0,1-.37.7,1.4,1.4,0,0,1-1,.43.72.72,0,0,1-.36-.07,2.15,2.15,0,0,1,.35,0,1.35,1.35,0,0,0,.84-.45,1.31,1.31,0,0,0,.28-.62q0-.41.09-.87c.07-.65.15-1.36.23-2.15.19-1.62.4-3.51.64-5.58.13-1.06.26-2.16.4-3.3,0-.29.07-.58.11-.87a5,5,0,0,0,.06-.81,1.16,1.16,0,0,0-2.18-.35,1.54,1.54,0,0,0-.1.35l-.05.44c0,.29-.08.58-.11.87-.15,1.14-.29,2.24-.43,3.29-.28,2.07-.53,3.95-.75,5.57-.11.78-.22,1.49-.31,2.14l-.13.88a1.3,1.3,0,0,0,.73,1.36C475.6,230.48,475.72,230.5,475.72,230.52Z" style="fill:#263238"></path><path d="M478.26,194.49s-3.81-2.89-7.23-2.1-23,9.3-25.76,13c-2.26,3.09,1.31,6.44,5.26,6.31s11.22-2.89,11.22-2.89-5.83,7.65-4,10.86a6,6,0,0,0,8.19,2c2.06-1.45,17.47-19.7,18.12-19.7s-.07.68-1.08,2.09c-.87,1.21-11.43,14.32-7.62,17.48s8.81-2.1,11.83-5.13,10.52-11.56,10.52-11.56,1.44-6.45-1.84-8.42a5.66,5.66,0,0,0-5.79-.39s-3.59-2.61-6.08-2.78A9.1,9.1,0,0,0,478.26,194.49Z" style="fill:#ffbf9d"></path><path d="M478.26,194.49s-.08,0-.23.1l-.27.08-.36.17a17.1,17.1,0,0,0-2.16,1.33,67.25,67.25,0,0,0-6.5,5.34,70.13,70.13,0,0,0-5.87,6c-1.4,1.64-2.15,2.74-2.22,2.7a3.13,3.13,0,0,1,.45-.83,23.8,23.8,0,0,1,1.48-2.11,55.08,55.08,0,0,1,5.81-6.18,50.89,50.89,0,0,1,6.65-5.26,12.26,12.26,0,0,1,2.29-1.2l.38-.14.31,0Q478.26,194.46,478.26,194.49Z" style="fill:#ff9a6c"></path><path d="M490.6,195.83c.09.13-1.68,1.31-3.45,3.19s-2.87,3.69-3,3.61a10.64,10.64,0,0,1,2.63-4A10.48,10.48,0,0,1,490.6,195.83Z" style="fill:#ff9a6c"></path><path d="M498.3,203.91a14.5,14.5,0,0,1-1.62,2.46,66.06,66.06,0,0,1-4.54,5.46,63.84,63.84,0,0,1-5.09,4.95,13.57,13.57,0,0,1-2.33,1.8,19.54,19.54,0,0,1,2.08-2.07c1.31-1.25,3.09-3,5-5s3.48-3.94,4.63-5.34A18.44,18.44,0,0,1,498.3,203.91Z" style="fill:#ff9a6c"></path><path d="M467.32,229.58c.06,0,.15.46.08,1.22a7.24,7.24,0,0,1-2.93,5c-.62.43-1.07.59-1.1.53a14.93,14.93,0,0,0,2.64-3A15.29,15.29,0,0,0,467.32,229.58Z" style="fill:#ff9a6c"></path><path d="M211.74,382.82c-4.25-18.37,12.28-35.13,30.49-30.22.33.09.66.18,1,.29,18.66,5.74,44.29,23.33,55.43,29.09S335,397.57,335,397.57l-4,33.31s-83.46-24.56-101.58-29.32C218.45,398.67,213.66,391.1,211.74,382.82Z" style="fill:#ffbf9d"></path><path d="M342.48,316.72h0a.78.78,0,0,1-1.07-.24l-13.73-21.59a.77.77,0,0,1,.24-1.07h0a.78.78,0,0,1,1.07.24l13.73,21.59A.77.77,0,0,1,342.48,316.72Z" style="fill:#f5f5f5"></path><path d="M342.48,316.72a.83.83,0,0,0,.32-.46.77.77,0,0,0-.13-.63l-.51-.79-3.25-5-4.8-7.5-2.83-4.44-1.49-2.34-.77-1.2c-.13-.22-.24-.39-.45-.46a.67.67,0,0,0-.6.06.66.66,0,0,0-.31.52.91.91,0,0,0,.22.6l.77,1.2,1.49,2.35L333,303l4.76,7.52,3.2,5.09.5.8a.81.81,0,0,0,.52.38,1,1,0,0,0,.54-.09.7.7,0,0,1-.54.13.79.79,0,0,1-.57-.39l-.52-.79-3.25-5.05-4.8-7.5L330,298.68l-1.49-2.34-.77-1.2c-.06-.11-.13-.2-.19-.33a.89.89,0,0,1-.06-.4.84.84,0,0,1,.4-.67.88.88,0,0,1,.79-.08.94.94,0,0,1,.33.23,2.43,2.43,0,0,1,.21.31l.77,1.2,1.49,2.35,2.82,4.44,4.76,7.52,3.2,5.08c.18.3.35.57.5.8a.79.79,0,0,1,.1.68A.66.66,0,0,1,342.48,316.72Z" style="fill:#263238"></path><path d="M339.71,302.64a6.36,6.36,0,1,1-8.91,1.24A6.36,6.36,0,0,1,339.71,302.64Z" style="fill:#FF725E"></path><g style="opacity:0.2"><path d="M330.39,306.06a4.73,4.73,0,0,0,.1,3.6,5.2,5.2,0,0,0,2.57,2.77,3.11,3.11,0,0,0,2.66.16,1.79,1.79,0,0,0,.91-2.3c-.44-.81-1.51-1-2.24-1.55a2.53,2.53,0,0,1-.78-2.81c.22-.54.63-1,.59-1.62a1.1,1.1,0,0,0-1.22-1.05,2.43,2.43,0,0,0-1.74,1.07,5.93,5.93,0,0,0-.85,1.73" style="fill:#fff"></path></g><path d="M338.45,302.58a2.51,2.51,0,0,1,.91.5,5.11,5.11,0,0,1,2,4.43,2.58,2.58,0,0,1-.21,1s.06-.4.07-1a5.62,5.62,0,0,0-.5-2.38,5.54,5.54,0,0,0-1.49-1.93C338.79,302.79,338.43,302.61,338.45,302.58Z" style="fill:#fff"></path><path d="M402.69,324.05a267.92,267.92,0,0,0-57,.49s-12.24,31.24-1.15,46.81c7.08,9.93,14.1,12.28,22.2,15.83l.26.1a6.63,6.63,0,0,1,4.56,6.35l-.3,34.45s.11,8.6-3.46,9.77-14.65,2.62-15.1,6.19c-.39,3.14,2.71,7.42,16.76,8.64a51.15,51.15,0,0,0,9.26,0c15.32-1.44,17.76-5.41,17.37-8.6-.45-3.57-11.35-5.38-15.1-6.19-3.24-.7-3.47-9.77-3.47-9.77s-.3-29.45-.3-34.45a6.64,6.64,0,0,1,4.57-6.35l.26-.1c8.1-3.55,14.09-5.75,22.19-15.83C416.42,356.2,402.69,324.05,402.69,324.05Z" style="fill:#ebebeb"></path><path d="M402.69,324.05s.15.32.41,1,.64,1.59,1.09,2.85a98.67,98.67,0,0,1,3.33,11.26,62.64,62.64,0,0,1,1.77,18.45,35.91,35.91,0,0,1-.9,5.56,24.55,24.55,0,0,1-2.19,5.59,27.75,27.75,0,0,1-3.79,5.1,49,49,0,0,1-4.72,4.73,38.72,38.72,0,0,1-5.7,4.11,65.55,65.55,0,0,1-6.55,3.27c-1.14.5-2.28,1-3.47,1.51a6.92,6.92,0,0,0-3.06,2.05,6.09,6.09,0,0,0-1.41,3.44c-.08,1.28,0,2.64,0,4q.08,8,.15,16.6c0,2.85.06,5.75.09,8.68,0,1.47,0,2.95,0,4.43a28.75,28.75,0,0,0,.27,4.45,17.93,17.93,0,0,0,1,4.35,4.69,4.69,0,0,0,1.19,1.8,1.91,1.91,0,0,0,.92.43l1.13.24a64.78,64.78,0,0,1,9.09,2.31,11.13,11.13,0,0,1,4.21,2.38,2.92,2.92,0,0,1,.66,1.12,2.5,2.5,0,0,1,.1.64,2.66,2.66,0,0,1,0,.63,4.71,4.71,0,0,1-.84,2.37,9.74,9.74,0,0,1-4,2.87,26.78,26.78,0,0,1-4.71,1.47,57.5,57.5,0,0,1-20,1,47.92,47.92,0,0,1-5-.9,22.93,22.93,0,0,1-4.9-1.69,13,13,0,0,1-2.23-1.39,7.25,7.25,0,0,1-1.73-2,4.41,4.41,0,0,1-.49-2.67,3.44,3.44,0,0,1,1.68-2.17,19.32,19.32,0,0,1,5-2c1.7-.49,3.42-.89,5.12-1.28.85-.2,1.71-.39,2.54-.61a3.79,3.79,0,0,0,2.14-1.11,6.15,6.15,0,0,0,1.18-2.18,14.83,14.83,0,0,0,.6-2.47A30,30,0,0,0,371,427c0-1.71,0-3.41,0-5.11q0-5.09.09-10.1c0-3.33.06-6.64.09-9.91,0-1.64,0-3.27,0-4.89,0-.81,0-1.61,0-2.42a10.7,10.7,0,0,0-.13-2.35,6,6,0,0,0-2.42-3.78,7.47,7.47,0,0,0-2-1l-2.17-.94a77,77,0,0,1-8.38-4A37,37,0,0,1,343.45,370a26.06,26.06,0,0,1-3-8,42.16,42.16,0,0,1-.78-8.24,73.78,73.78,0,0,1,1.83-15.52,101,101,0,0,1,4-13.77l0-.1h.11a262.38,262.38,0,0,1,41.77-1.45c4.92.22,8.73.52,11.31.74l2.93.29,1,.11s-.35,0-1-.06l-2.92-.23c-2.58-.19-6.39-.46-11.3-.65a266.76,266.76,0,0,0-41.73,1.61l.15-.12a101.43,101.43,0,0,0-4,13.73,73.77,73.77,0,0,0-1.78,15.43,41.14,41.14,0,0,0,.79,8.15,25.68,25.68,0,0,0,2.92,7.89,36.61,36.61,0,0,0,12.57,12.25,76.33,76.33,0,0,0,8.34,4l2.15.93a7.74,7.74,0,0,1,2.16,1.1,6.49,6.49,0,0,1,2.62,4.07,11.31,11.31,0,0,1,.14,2.45c0,.81,0,1.61,0,2.42,0,1.62,0,3.25,0,4.89,0,3.27-.05,6.58-.08,9.91s-.06,6.71-.08,10.1c0,1.7,0,3.4-.05,5.11a29.11,29.11,0,0,1-.35,5.18,14.46,14.46,0,0,1-.62,2.56,6.64,6.64,0,0,1-1.28,2.36,3.24,3.24,0,0,1-1.12.84,6.38,6.38,0,0,1-1.28.42c-.84.23-1.7.42-2.55.62-1.7.39-3.41.78-5.1,1.27a18.78,18.78,0,0,0-4.81,2A2.92,2.92,0,0,0,353,444a3.88,3.88,0,0,0,.43,2.36,6.8,6.8,0,0,0,1.6,1.87,11.7,11.7,0,0,0,2.13,1.33,22.43,22.43,0,0,0,4.79,1.65,47.28,47.28,0,0,0,5,.9,57.44,57.44,0,0,0,19.78-1,26.39,26.39,0,0,0,4.62-1.44,9.11,9.11,0,0,0,3.8-2.71,4.11,4.11,0,0,0,.75-2.1,1.82,1.82,0,0,0,0-.57,1.79,1.79,0,0,0-.07-.53,2.36,2.36,0,0,0-.55-.92,10.69,10.69,0,0,0-4-2.25,63.45,63.45,0,0,0-9-2.3l-1.13-.24a2.41,2.41,0,0,1-1.14-.54,5.15,5.15,0,0,1-1.32-2,19,19,0,0,1-1.07-4.46,31.19,31.19,0,0,1-.27-4.51c0-1.49,0-3,0-4.43,0-2.94-.05-5.83-.07-8.69q-.07-8.55-.13-16.6c0-1.35-.07-2.65,0-4a6.51,6.51,0,0,1,1.52-3.68,7.38,7.38,0,0,1,3.24-2.17l3.44-1.49a63,63,0,0,0,6.53-3.24,38.23,38.23,0,0,0,5.65-4.05,47.18,47.18,0,0,0,4.69-4.69,27.23,27.23,0,0,0,3.77-5,24.22,24.22,0,0,0,2.18-5.51,36.45,36.45,0,0,0,.91-5.5,62.69,62.69,0,0,0-1.68-18.39,102,102,0,0,0-3.23-11.27c-.43-1.26-.79-2.22-1-2.86Z" style="fill:#263238"></path><path d="M406.5,346.27l-64.1,2.9c-.42,6.91.67,14.19,4.73,20a32.45,32.45,0,0,0,27.6,14.55h0a31.32,31.32,0,0,0,14.62-3.55c4.22-2.22,8.26-5.2,13-11S407.43,354.09,406.5,346.27Z" style="fill:#FF725E"></path><g style="opacity:0.4"><path d="M366.71,354.32c1.56.58,2.66,2.41,4.05,3.34a11.84,11.84,0,0,0,5.91,1.64,5.86,5.86,0,0,0,3.59-2.4,27.06,27.06,0,0,1,3.44-3.74Z" style="fill:#fff"></path></g><path d="M342.65,349.1c1.86-3.09,5.62-4.67,9.26-4.88s7.22.77,10.73,1.73,7.09,1.94,10.72,1.75c3.84-.2,7.46-1.68,11.17-2.67a45.27,45.27,0,0,1,13.66-1.52c3.1.13,6.46.71,8.53,3-10.57.53-19.73,7.41-30.08,9.59a46.11,46.11,0,0,1-34-6.7" style="fill:#FF725E"></path><g style="opacity:0.30000000000000004"><path d="M342.65,349.1c1.86-3.09,5.62-4.67,9.26-4.88s7.22.77,10.73,1.73,7.09,1.94,10.72,1.75c3.84-.2,7.5-1.57,11.17-2.67a37.79,37.79,0,0,1,13.66-1.52c3.1.13,6.46.71,8.53,3-10.57.53-19.73,7.41-30.08,9.59a46.11,46.11,0,0,1-34-6.7"></path></g><g style="opacity:0.30000000000000004"><path d="M404.94,360.26c1.44-6,1.21-11.77.45-17.86S403,330,400,325.25a50,50,0,0,1-7.64,2.46c3.37,7.13,5.84,15.77,5.16,23.62a67.12,67.12,0,0,0-1.23,9.07C396.09,363.16,403.66,365.59,404.94,360.26Z" style="fill:#fff"></path></g><path d="M395.16,376.46a7.4,7.4,0,0,1-1.06,1,28.21,28.21,0,0,1-3.19,2.19,32.23,32.23,0,0,1-24.74,3.49,29.3,29.3,0,0,1-3.67-1.22,6.65,6.65,0,0,1-1.28-.62,7.79,7.79,0,0,1,1.35.43c.86.29,2.11.68,3.69,1.05a33.82,33.82,0,0,0,24.47-3.45,35.43,35.43,0,0,0,3.25-2A9.1,9.1,0,0,1,395.16,376.46Z" style="fill:#263238"></path><g style="opacity:0.30000000000000004"><path d="M372.82,361a.87.87,0,1,1-.86-.87A.87.87,0,0,1,372.82,361Z" style="fill:#fff"></path></g><g style="opacity:0.30000000000000004"><path d="M392.69,370.84a.87.87,0,1,1-.86-.87A.87.87,0,0,1,392.69,370.84Z" style="fill:#fff"></path></g><g style="opacity:0.30000000000000004"><path d="M363,374.82a.43.43,0,1,1-.43-.43A.43.43,0,0,1,363,374.82Z" style="fill:#fff"></path></g><g style="opacity:0.30000000000000004"><path d="M391.79,367.19a.44.44,0,1,1-.44-.43A.44.44,0,0,1,391.79,367.19Z" style="fill:#fff"></path></g><g style="opacity:0.4"><path d="M388.7,375.45l-3-12.16a1.57,1.57,0,0,0-1.42-1.23l-6.78-.28a1.43,1.43,0,0,0-.75.18l-8.27,4.54a1.7,1.7,0,0,0-.78,1.94l.72,2.64,1.82,6.48a21.6,21.6,0,0,0,1.09,3.28c.48.31,5.75,1.44,7.51,1.81a1.38,1.38,0,0,0,1.06-.2l8.11-5.14A1.72,1.72,0,0,0,388.7,375.45Z" style="fill:#fff"></path></g><path d="M375.45,368.44a9.43,9.43,0,0,1-3.14-.25,9.23,9.23,0,0,1-3.05-.77,19.62,19.62,0,0,1,6.19,1Z" style="fill:#fff"></path><path d="M382.87,364.14c.08.11-.8.87-2,1.69a6.63,6.63,0,0,1-2.26,1.27c-.08-.12.8-.88,2-1.7A6.69,6.69,0,0,1,382.87,364.14Z" style="fill:#fff"></path><path d="M379.21,377.91a21.29,21.29,0,0,1-1-4.06,20.75,20.75,0,0,1-.71-4.12,24.2,24.2,0,0,1,1.73,8.18Z" style="fill:#fff"></path><g style="opacity:0.30000000000000004"><path d="M360.63,370l3.37.24a1.37,1.37,0,0,0,1.38-.87l1.52-3.9a1.26,1.26,0,0,0,.08-.69l-.79-5.78a1.38,1.38,0,0,0-1.29-1.19c-2.36-.11-7.58-.34-7.76-.19s-2,3.13-2.64,4.26a1.41,1.41,0,0,0-.16,1l1.16,5.78a1.36,1.36,0,0,0,1.25,1.1l2.78.2" style="fill:#fff"></path></g><path d="M363.33,362.51a13,13,0,0,1-4.16.33,12.77,12.77,0,0,1-4.14-.52,25.18,25.18,0,0,1,4.15,0A23.58,23.58,0,0,1,363.33,362.51Z" style="fill:#fff"></path><path d="M365.4,358.6c.13.08-.19.81-.63,1.68s-.85,1.55-1,1.5.07-.85.52-1.73S365.28,358.53,365.4,358.6Z" style="fill:#fff"></path><path d="M364.36,368.46a8.17,8.17,0,0,1-.48-2.54,8,8,0,0,1-.18-2.57,5.64,5.64,0,0,1,.69,2.51A5.53,5.53,0,0,1,364.36,368.46Z" style="fill:#fff"></path><g style="opacity:0.2"><path d="M391.29,351.76a2.09,2.09,0,0,0-2.42,1c-1.27,2.27-3.55,6.45-3.36,7.06a32.59,32.59,0,0,0,2.75,4.17,2.05,2.05,0,0,0,1.43.84l5.89.72a2.08,2.08,0,0,0,2.08-1.07l2.9-5.31a2.07,2.07,0,0,0-.33-2.45l-2.68-2.76a2.12,2.12,0,0,0-.89-.55Z" style="fill:#fff"></path></g><path d="M392.52,356.16a15.58,15.58,0,0,1-1.72,3.56c-1.05,1.89-1.65,3.54-1.8,3.5a8.89,8.89,0,0,1,1.34-3.75A14.78,14.78,0,0,1,392.52,356.16Z" style="fill:#fff"></path><path d="M392.57,355.9c-.14.05-.56-.79-1.3-1.63s-1.5-1.38-1.43-1.51,1,.23,1.82,1.17S392.7,355.86,392.57,355.9Z" style="fill:#fff"></path><path d="M398.91,357.88c-.06.05-.31-.13-.78-.2a10.82,10.82,0,0,1-2-.23c-.84-.36-1.23-.95-1.67-1.12s-.72-.15-.74-.22.31-.3.87-.13,1.11.74,1.72,1,1.41.16,1.93.36S399,357.84,398.91,357.88Z" style="fill:#fff"></path><g style="opacity:0.8"><path d="M365.83,352a8.94,8.94,0,0,0,7.28,2.54c4-.5,11-3.23,14-4.43l.84-2a3.13,3.13,0,0,0-.87-3.63l-4.43-3.75a3.18,3.18,0,0,0-1.42-.68l-8.31-1.63a3.12,3.12,0,0,0-3.47,1.81c-1.58,3.59-4.37,10.22-4,11.1A3.4,3.4,0,0,0,365.83,352Z" style="fill:#fff"></path></g><path d="M375.42,344.87a26.7,26.7,0,0,1-1.87,4.87,17.1,17.1,0,0,0-1.26,3.41,4.16,4.16,0,0,1-.48,1.46,4.92,4.92,0,0,1,.12-1.53,12.05,12.05,0,0,1,1.14-3.54A25.83,25.83,0,0,1,375.42,344.87Z" style="fill:#fff"></path><path d="M375.45,344.47c-.13.08-.84-1.17-2.1-2.34s-2.53-1.82-2.46-2a6.65,6.65,0,0,1,4.56,4.3Z" style="fill:#fff"></path><path d="M385.26,346.5a8.52,8.52,0,0,0-1.18-.27,8.38,8.38,0,0,0-1.32,0,4.12,4.12,0,0,1-3.26-.88,5,5,0,0,0-1.14-.61,4,4,0,0,0-1.18-.13c-.05,0,.44-.41,1.27-.23s1.7,1,2.72,1.26,2.17,0,3,.21S385.31,346.46,385.26,346.5Z" style="fill:#fff"></path><g style="opacity:0.8"><path d="M364.17,350.59a5.67,5.67,0,0,1-4.4,2c-2.55-.06-7.1-1.33-9-1.9l-.65-1.18a2,2,0,0,1,.32-2.32L353,344.6a1.87,1.87,0,0,1,.84-.51l5.09-1.54a2,2,0,0,1,2.29.92c1.21,2.15,3.37,6.11,3.19,6.69A2.46,2.46,0,0,1,364.17,350.59Z" style="fill:#fff"></path></g><path d="M357.73,346.72a10.5,10.5,0,0,1,1.84,2.72,7.22,7.22,0,0,1,.92,2.17c.11.58.17.95.1,1s-.25-.31-.46-.87a12.54,12.54,0,0,0-1-2A10.43,10.43,0,0,1,357.73,346.72Z" style="fill:#fff"></path><path d="M357.68,346.47c-.13,0,.08-1,.85-1.88s1.68-1.22,1.74-1.1-.66.64-1.35,1.44S357.82,346.52,357.68,346.47Z" style="fill:#fff"></path><path d="M351.67,348.34c-.05,0,.14-.35.65-.53s1.23-.14,1.83-.34,1.08-.81,1.63-.93.87.07.83.13-.31,0-.7.21-.78.73-1.58,1.07a9.7,9.7,0,0,1-1.92.22C352,348.23,351.73,348.4,351.67,348.34Z" style="fill:#fff"></path><path d="M367.23,326c-.24-.37-7.56-21.66-25.65-13.9s-11.52,25.43-11.52,25.43Z" style="fill:#FF725E"></path><g style="opacity:0.7000000000000001"><path d="M332,336.88l33-10.25s-8.53-18.85-23.29-12.15S332,336.88,332,336.88Z" style="fill:#fff"></path></g><path d="M333.22,333.38a2.65,2.65,0,0,0,2.33.38,74.46,74.46,0,0,0,11.06-2.53l0-.45a30.93,30.93,0,0,0-8.91-4.65,3.67,3.67,0,0,0-3.09,0,3.38,3.38,0,0,0-1.25,2,13.57,13.57,0,0,0-.61,3.4A2.49,2.49,0,0,0,333.22,333.38Z" style="fill:#FF725E"></path><path d="M335.69,322.66c.12.81.92,1.32,1.64,1.71a75.51,75.51,0,0,0,10.38,4.57l.24-.38a30.53,30.53,0,0,0-4.36-9.05,3.7,3.7,0,0,0-2.46-1.87,3.41,3.41,0,0,0-2.18.83,13.49,13.49,0,0,0-2.52,2.37A2.47,2.47,0,0,0,335.69,322.66Z" style="fill:#FF725E"></path><path d="M345.57,316.11a2.67,2.67,0,0,0,0,2.36A76.55,76.55,0,0,0,349.76,329l.44-.1a30.89,30.89,0,0,0,3.22-9.52,3.73,3.73,0,0,0-.45-3.06,3.36,3.36,0,0,0-2.14-.93,13.36,13.36,0,0,0-3.46-.07A2.45,2.45,0,0,0,345.57,316.11Z" style="fill:#FF725E"></path><path d="M351,329.84a25.28,25.28,0,0,0,8.49-2.56,3.81,3.81,0,0,0,2.09-2.08,3.75,3.75,0,0,0-.19-2.27,5.94,5.94,0,0,0-2-2.41,3.14,3.14,0,0,0-1.83-.56c-.69,0-1.3.86-1.78,1.5a61.92,61.92,0,0,0-5,8.08Z" style="fill:#FF725E"></path><g style="opacity:0.30000000000000004"><path d="M341.12,321.63a11.19,11.19,0,0,1,1.59,1.38c.55.53,1,1,1.26,1.27l-.06.08c-.16-.12-.24-.2-.23-.22a1,1,0,0,1,.29.14l-.07.08c-.28-.23-.78-.68-1.33-1.2A11.28,11.28,0,0,1,341.12,321.63Z" style="fill:#fff"></path></g><g style="opacity:0.30000000000000004"><path d="M340.88,322.78A10.78,10.78,0,0,1,342.4,324a10.54,10.54,0,0,1,1.39,1.4,9.94,9.94,0,0,1-1.53-1.25A9.42,9.42,0,0,1,340.88,322.78Z" style="fill:#fff"></path></g><g style="opacity:0.30000000000000004"><path d="M337.47,328.55a3.32,3.32,0,0,1,1.16.26,3.15,3.15,0,0,1,1.09.45,3.57,3.57,0,0,1-1.16-.26A3.67,3.67,0,0,1,337.47,328.55Z" style="fill:#fff"></path></g><g style="opacity:0.30000000000000004"><path d="M335.48,330.58a11.71,11.71,0,0,1,2.21-.12,11.35,11.35,0,0,1,2.21.09,11.71,11.71,0,0,1-2.21.12A12.38,12.38,0,0,1,335.48,330.58Z" style="fill:#fff"></path></g><g style="opacity:0.30000000000000004"><path d="M350.36,320.32a5,5,0,0,1,.12,1.16,4.89,4.89,0,0,1,0,1.17,2.77,2.77,0,0,1-.25-1.15A2.6,2.6,0,0,1,350.36,320.32Z" style="fill:#fff"></path></g><g style="opacity:0.30000000000000004"><path d="M348.74,319.57a14,14,0,0,1,.41,2.28,14.36,14.36,0,0,1,.21,2.32,12.79,12.79,0,0,1-.41-2.29A11.94,11.94,0,0,1,348.74,319.57Z" style="fill:#fff"></path></g><g style="opacity:0.30000000000000004"><path d="M354.59,325.86a3.84,3.84,0,0,1,.89-.79,3.6,3.6,0,0,1,1-.63,3.77,3.77,0,0,1-.9.79A3.23,3.23,0,0,1,354.59,325.86Z" style="fill:#fff"></path></g><g style="opacity:0.30000000000000004"><path d="M355.9,326.43a12.56,12.56,0,0,1,1.19-.87,8.67,8.67,0,0,1,1.19-.85,4.07,4.07,0,0,1-1.07,1A3.73,3.73,0,0,1,355.9,326.43Z" style="fill:#fff"></path></g><g style="opacity:0.30000000000000004"><path d="M357,327.47a3,3,0,0,1,.91-.64,3.46,3.46,0,0,1,1-.48,3.08,3.08,0,0,1-.91.65A3,3,0,0,1,357,327.47Z" style="fill:#fff"></path></g><g style="opacity:0.30000000000000004"><path d="M356,314.13a.14.14,0,0,0,.06-.28.14.14,0,0,0-.06.28Z"></path></g><g style="opacity:0.30000000000000004"><path d="M358.07,314.65a.15.15,0,0,0,.05-.29c-.18,0-.24.25-.05.29Z"></path></g><g style="opacity:0.30000000000000004"><path d="M358.83,317c.18,0,.24-.26.05-.29s-.24.25-.05.29Z"></path></g><g style="opacity:0.30000000000000004"><path d="M360.73,317a.14.14,0,0,0,.06-.28.14.14,0,0,0-.06.28Z"></path></g><g style="opacity:0.30000000000000004"><path d="M348.22,311.74c.18,0,.24-.25,0-.29a.15.15,0,0,0,0,.29Z"></path></g><g style="opacity:0.7000000000000001"><path d="M342.69,334.19l3-9.65s7.83,3.5,13.43,4.23Z" style="fill:#ebebeb"></path></g><g style="opacity:0.30000000000000004"><path d="M358.22,373.9a45,45,0,0,1-8-22c-.68-7.86,1.79-16.82,5.16-23.95l-7.57-2.24c-3,4.7-4.74,11.2-5.5,17.26s-1.11,11.92.45,17.85a33.26,33.26,0,0,0,10.07,16,6.47,6.47,0,0,0,3.53,1.81,2.69,2.69,0,0,0,3-2.1A4.32,4.32,0,0,0,358.22,373.9Z" style="fill:#fff"></path></g><path d="M377.91,388a11.41,11.41,0,0,1-7.19-.07,6.31,6.31,0,0,1,2.1,3.42c.35,1.32.41,12.82.47,14.18a4.35,4.35,0,0,0,2.15,0c-.09-1.23.06-12.61.42-13.79A10.07,10.07,0,0,1,377.91,388Z" style="fill:#fff"></path><path d="M375.76,409.19a1.1,1.1,0,1,1-1.1-1.1A1.09,1.09,0,0,1,375.76,409.19Z" style="fill:#fff"></path><path d="M388.05,447.33a1,1,0,0,0-.85-.77,3.3,3.3,0,0,0-1.21.07A35.29,35.29,0,0,1,367.53,445a7.86,7.86,0,0,1-2.26-1.18,5.29,5.29,0,0,1-1.57-2.92h0c-1.7.59-2.75.69-4.11,1.1s-2.75,1.56-2.57,3a3.31,3.31,0,0,0,1.11,1.85c2.35,2.26,5.65,3.23,8.88,3.59a47.41,47.41,0,0,0,9.1.59c4.13-.27,7.69-.59,11.18-2.42A1.3,1.3,0,0,0,388.05,447.33Z" style="fill:#fff"></path><path d="M393.77,444.21s0,.13-.2.36a8.71,8.71,0,0,1-.72.92,13.09,13.09,0,0,1-3.36,2.68,19.56,19.56,0,0,1-6,2.15,46.43,46.43,0,0,1-7.76.75,58,58,0,0,1-7.78-.38,22.1,22.1,0,0,1-6.2-1.5,12.45,12.45,0,0,1-3.64-2.29,9.32,9.32,0,0,1-.81-.85c-.16-.21-.24-.33-.22-.34s.39.4,1.16,1a13.51,13.51,0,0,0,3.65,2.1c3.32,1.34,8.36,1.75,13.83,1.7a48.76,48.76,0,0,0,7.68-.7,20,20,0,0,0,5.92-2A15.54,15.54,0,0,0,393.77,444.21Z" style="fill:#263238"></path><path d="M371.8,433.13a4,4,0,0,1-.28,1.92,8.58,8.58,0,0,1-6.84,5.86,4,4,0,0,1-1.94,0c0-.09.74-.08,1.87-.34a9.23,9.23,0,0,0,6.57-5.62C371.61,433.85,371.72,433.12,371.8,433.13Z" style="fill:#263238"></path><path d="M383.67,440.71a3,3,0,0,1-1.59-.22,7.27,7.27,0,0,1-3.24-2.17,7.19,7.19,0,0,1-1.63-3.53,3,3,0,0,1,0-1.61,15.13,15.13,0,0,1,.34,1.53,7.89,7.89,0,0,0,4.64,5.43C383.08,440.52,383.68,440.63,383.67,440.71Z" style="fill:#263238"></path><path d="M379.46,386.86c0,.05-.38.45-1.21.89a8.77,8.77,0,0,1-7.09.42,3.08,3.08,0,0,1-1.3-.74,15.6,15.6,0,0,0,4.86.76A15.3,15.3,0,0,0,379.46,386.86Z" style="fill:#263238"></path><path d="M402.81,324.14a2.07,2.07,0,0,1-.53.27l-1.57.68c-.68.3-1.52.64-2.51,1s-2.12.79-3.4,1.15-2.66.82-4.18,1.17-3.16.71-4.88,1.05a77.21,77.21,0,0,1-11.38,1.1,72.72,72.72,0,0,1-11.4-.79c-1.73-.3-3.38-.57-4.9-.95s-2.92-.75-4.2-1.13-2.4-.8-3.4-1.14-1.83-.7-2.51-1l-1.56-.69a2.07,2.07,0,0,1-.53-.27,2.84,2.84,0,0,1,.57.18l1.59.6c.69.27,1.54.6,2.54.91s2.12.74,3.41,1.06,2.66.75,4.19,1.05,3.15.63,4.87.91a77.2,77.2,0,0,0,11.33.74,80.7,80.7,0,0,0,11.3-1.06c1.71-.32,3.35-.6,4.86-1s2.91-.73,4.18-1.1,2.4-.76,3.4-1.08,1.85-.63,2.54-.9l1.6-.59Z" style="fill:#263238"></path><path d="M330.44,399.57s4.71-13,9.6-14.31,14.67,1.45,19,2,31.55,5.65,34.42,10.7c2.32,4.1-3.27,7.05-3.27,7.05a4.47,4.47,0,0,1,4,4.35c.18,4-4.71,5.79-4.71,5.79s3.26,4.86-1.63,7.87-33.5,1-33.5,1-2,3.26,2,3.44,21.55-.73,23.9,0,1.81,4.89-1.26,6.34-17.93,4.16-22.1,3.62-13.58-2.72-13.58-2.72a18.27,18.27,0,0,1-9.39-.8c-4.89-1.81-7.52-3.16-9.69-10.41S330.44,399.57,330.44,399.57Z" style="fill:#ffbf9d"></path><path d="M387.19,405.16c0,.14-9.18-1.36-20.45-3.35s-20.39-3.72-20.36-3.86,9.18,1.36,20.45,3.35S387.22,405,387.19,405.16Z" style="fill:#ff9a6c"></path><path d="M331.55,410.77a3.88,3.88,0,0,1-1.31-1.86,8,8,0,0,1-.13-5.47,11,11,0,0,1,3.05-4.54,6.37,6.37,0,0,1,1.84-1.33,21.86,21.86,0,0,1-1.58,1.59,12.05,12.05,0,0,0-2.81,4.45,8.18,8.18,0,0,0,0,5.17A16.2,16.2,0,0,0,331.55,410.77Z" style="fill:#ff9a6c"></path><path d="M387.91,415a9.23,9.23,0,0,1-1.65-.1l-4.47-.4c-3.78-.33-9-.67-14.78-.79s-11,0-14.8.21l-4.49.23a10.88,10.88,0,0,1-1.65,0,9.51,9.51,0,0,1,1.64-.24c1.05-.12,2.58-.26,4.47-.39,3.79-.28,9-.48,14.84-.37s11,.52,14.8.94c1.89.21,3.42.41,4.46.57A11.38,11.38,0,0,1,387.91,415Z" style="fill:#ff9a6c"></path><path d="M362.32,409.47c-.07,0-.22-.35-.38-1a7.5,7.5,0,0,1-.24-2.53,4.19,4.19,0,0,1,1-2.38c.46-.5.87-.63.9-.58s-.27.31-.61.81a4.82,4.82,0,0,0-.75,2.2,12.08,12.08,0,0,0,.08,2.41C362.37,409.06,362.39,409.46,362.32,409.47Z" style="fill:#ff9a6c"></path><path d="M355.11,424a26.87,26.87,0,0,1-6,0,27.18,27.18,0,0,1-5.93-.82,48,48,0,0,1,6,.3A49.69,49.69,0,0,1,355.11,424Z" style="fill:#ff9a6c"></path><path d="M334.66,423.49s-.46-.31-.9-1.06a6.52,6.52,0,0,1,0-6.51c.44-.75.85-1.11.9-1.07a8.64,8.64,0,0,1-.57,1.24,7.34,7.34,0,0,0,0,6.17C334.42,423,334.73,423.44,334.66,423.49Z" style="fill:#ff9a6c"></path><path d="M342.83,434.66a12.94,12.94,0,0,1-6.17-2.7,17.9,17.9,0,0,1,3.12,1.28A17.37,17.37,0,0,1,342.83,434.66Z" style="fill:#ff9a6c"></path><path d="M358,431.78c0-.06.34,0,.7.33a2,2,0,0,1,.57,1.78,2,2,0,0,1-1.19,1.45c-.46.18-.77.1-.76,0s.26-.14.59-.37a2,2,0,0,0,.85-1.22,2,2,0,0,0-.34-1.44C358.22,432,358,431.85,358,431.78Z" style="fill:#ff9a6c"></path><path d="M339.17,386.24a16.88,16.88,0,0,0-2,3.42,16.37,16.37,0,0,0-.61,3.9c-.06,0-.22-.43-.28-1.18a7,7,0,0,1,.4-2.9,7.13,7.13,0,0,1,1.5-2.5C338.73,386.43,339.13,386.19,339.17,386.24Z" style="fill:#ff9a6c"></path><path d="M364.24,396.29a4.68,4.68,0,0,1-.55-2.87,4.8,4.8,0,0,1,.79-2.82c.15,0-.21,1.29-.27,2.84S364.39,396.25,364.24,396.29Z" style="fill:#ff9a6c"></path><path d="M411.55,416.53c-4.57,2.39-6.66,5-9.21,8.86a18.61,18.61,0,0,0-3.26,13.11c1.1,6.55,6.81,11.76,13.25,13.36s15.67.5,20.56-4.12Z" style="fill:#FF725E"></path><g style="opacity:0.30000000000000004"><path d="M411.55,416.53c-4.57,2.39-6.66,5-9.21,8.86a18.61,18.61,0,0,0-3.26,13.11c1.1,6.55,6.81,11.76,13.25,13.36s15.67.5,20.56-4.12Z"></path></g><path d="M433.94,422.92c-12.33-14.9-24.25-5.22-24.25-5.22h0c-3.16,2.7-11.75,11.59-2.43,25.13,11,15.95,24.16,6.26,24.16,6.26C431.64,448.79,446.28,437.82,433.94,422.92Z" style="fill:#FF725E"></path><g style="opacity:0.7000000000000001"><path d="M432,423.51c-7.26-8.46-14.63-7-18.39-5.3a10.65,10.65,0,0,0-4.07,3.19c-3.13,4-7.52,12.1-.37,20.91,4.3,5.31,8.82,7,12.59,7.19a12.71,12.71,0,0,0,12-6.61C436.32,438.36,438.46,431,432,423.51Z" style="fill:#fff"></path></g><path d="M427.23,446.83a2.86,2.86,0,0,0-.41-2.21,90.06,90.06,0,0,0-5.49-9.7L421,435a28.21,28.21,0,0,0-1,9,4.15,4.15,0,0,0,.93,2.84,3.39,3.39,0,0,0,2,.81,10.53,10.53,0,0,0,3,0A1.7,1.7,0,0,0,427.23,446.83Z" style="fill:#FF725E"></path><path d="M417.73,446.41c.62-.25.79-1.07.88-1.8a70.24,70.24,0,0,0,.51-10.3l-.38-.16a21,21,0,0,0-6,5.56,3.07,3.07,0,0,0-.76,2.58,4,4,0,0,0,1.35,1.86,15.05,15.05,0,0,0,2.71,1.9A2.22,2.22,0,0,0,417.73,446.41Z" style="fill:#FF725E"></path><path d="M409.32,438.48a2,2,0,0,0,1.94-.39,50.35,50.35,0,0,0,7.27-5.67l-.21-.39a26.55,26.55,0,0,0-8.76-1.31,2.6,2.6,0,0,0-2.36.94,3.3,3.3,0,0,0-.1,2.12,15.29,15.29,0,0,0,1,3.18A2.92,2.92,0,0,0,409.32,438.48Z" style="fill:#FF725E"></path><path d="M418.84,431.16a29.73,29.73,0,0,0-4.72-7.33,4.1,4.1,0,0,0-2.34-1.57,2.65,2.65,0,0,0-1.79.57,4.4,4.4,0,0,0-1.33,2.29,3,3,0,0,0,.11,1.77c.19.64,1.1,1,1.77,1.37a60.24,60.24,0,0,0,8.14,3.19Z" style="fill:#FF725E"></path><g style="opacity:0.30000000000000004"><path d="M415.2,441.61a10.72,10.72,0,0,1,.65-1.69c.26-.6.5-1.11.64-1.38l.07,0a.87.87,0,0,1-.1.25,1,1,0,0,1,0-.28l.07,0c-.1.3-.32.83-.58,1.43A9.92,9.92,0,0,1,415.2,441.61Z" style="fill:#fff"></path></g><g style="opacity:0.30000000000000004"><path d="M416.22,441.64a18.46,18.46,0,0,1,1.25-3.13,8.84,8.84,0,0,1-.56,1.6A8.41,8.41,0,0,1,416.22,441.64Z" style="fill:#fff"></path></g><g style="opacity:0.30000000000000004"><path d="M422,443.77a4.41,4.41,0,0,1-.13-1.11,4.24,4.24,0,0,1,0-1.08,4.55,4.55,0,0,1,.14,1.1A3.61,3.61,0,0,1,422,443.77Z" style="fill:#fff"></path></g><g style="opacity:0.30000000000000004"><path d="M424.25,445.24a16.6,16.6,0,0,1-.77-2,17.25,17.25,0,0,1-.63-2,16.83,16.83,0,0,1,.77,2A19.6,19.6,0,0,1,424.25,445.24Z" style="fill:#fff"></path></g><g style="opacity:0.30000000000000004"><path d="M411.27,433.36a5,5,0,0,1,.92-.29,3.92,3.92,0,0,1,.93-.25,2.28,2.28,0,0,1-.87.41A2.11,2.11,0,0,1,411.27,433.36Z" style="fill:#fff"></path></g><g style="opacity:0.30000000000000004"><path d="M411.16,435a10.58,10.58,0,0,1,1.75-.75,11.09,11.09,0,0,1,1.81-.61,11.23,11.23,0,0,1-1.74.76A11.9,11.9,0,0,1,411.16,435Z" style="fill:#fff"></path></g><g style="opacity:0.30000000000000004"><path d="M414.48,428.53a5.22,5.22,0,0,1-.92-.69,5.35,5.35,0,0,1-.83-.81,4.46,4.46,0,0,1,.91.69A5.17,5.17,0,0,1,414.48,428.53Z" style="fill:#fff"></path></g><g style="opacity:0.30000000000000004"><path d="M414.54,427.23s-.48-.43-1.07-1-1.09-.89-1.08-.93a4.55,4.55,0,0,1,1.16.82A5.26,5.26,0,0,1,414.54,427.23Z" style="fill:#fff"></path></g><g style="opacity:0.30000000000000004"><path d="M415.06,426.09a3.91,3.91,0,0,1-.8-.73,4.36,4.36,0,0,1-.71-.84,3.91,3.91,0,0,1,.8.73A4.73,4.73,0,0,1,415.06,426.09Z" style="fill:#fff"></path></g><g style="opacity:0.30000000000000004"><path d="M404.27,429.31c0,.14.25.11.2,0s-.25-.1-.2,0Z"></path></g><g style="opacity:0.30000000000000004"><path d="M404,427.29c.05.14.25.11.2,0s-.24-.11-.2,0Z"></path></g><g style="opacity:0.30000000000000004"><path d="M405.71,426.19c.05.14.25.11.2,0s-.24-.11-.2,0Z"></path></g><g style="opacity:0.30000000000000004"><path d="M405.15,424.44c.05.14.25.11.2,0s-.24-.11-.2,0Z"></path></g><g style="opacity:0.30000000000000004"><path d="M404.72,436.82c0,.14.24.11.2,0s-.25-.1-.2,0Z"></path></g><path d="M414,419.63a2.87,2.87,0,0,0,.48,2.2,88.32,88.32,0,0,0,5.76,9.55l.35-.12a28.54,28.54,0,0,0,.74-9.05,4.15,4.15,0,0,0-1-2.82,3.21,3.21,0,0,0-2-.74,9.91,9.91,0,0,0-2.94.14A1.7,1.7,0,0,0,414,419.63Z" style="fill:#FF725E"></path><path d="M423.43,419.7c-.61.28-.75,1.11-.82,1.84a71.71,71.71,0,0,0-.17,10.38l.38.15a21.14,21.14,0,0,0,5.81-5.81,3.09,3.09,0,0,0,.67-2.63,4,4,0,0,0-1.4-1.81,14,14,0,0,0-2.76-1.81A2.13,2.13,0,0,0,423.43,419.7Z" style="fill:#FF725E"></path><path d="M432,427.37a1.93,1.93,0,0,0-1.91.46,50.73,50.73,0,0,0-7.05,6l.23.38a25.81,25.81,0,0,0,8.74,1,2.6,2.6,0,0,0,2.31-1,3.32,3.32,0,0,0,0-2.14,15.43,15.43,0,0,0-1.11-3.16A2.91,2.91,0,0,0,432,427.37Z" style="fill:#FF725E"></path><path d="M422.81,435.07a30,30,0,0,0,4.93,7.21,4,4,0,0,0,2.38,1.48,2.6,2.6,0,0,0,1.75-.63,4.5,4.5,0,0,0,1.25-2.35A3.14,3.14,0,0,0,433,439c-.22-.63-1.14-1-1.81-1.31a57.72,57.72,0,0,0-8.18-2.91Z" style="fill:#FF725E"></path><g style="opacity:0.30000000000000004"><path d="M426.09,424.44a10.38,10.38,0,0,1-.58,1.72c-.24.61-.46,1.13-.6,1.41l-.07,0a.9.9,0,0,1,.09-.25s0,.11,0,.28l-.08,0c.1-.3.29-.84.53-1.45A11.07,11.07,0,0,1,426.09,424.44Z" style="fill:#fff"></path></g><g style="opacity:0.30000000000000004"><path d="M425.08,424.45a8.81,8.81,0,0,1-.5,1.63,8.71,8.71,0,0,1-.64,1.55,8.81,8.81,0,0,1,.5-1.63A9.14,9.14,0,0,1,425.08,424.45Z" style="fill:#fff"></path></g><g style="opacity:0.30000000000000004"><path d="M419.3,422.51a5,5,0,0,1,.17,1.11,4.16,4.16,0,0,1,0,1.09,8.19,8.19,0,0,1-.19-2.2Z" style="fill:#fff"></path></g><g style="opacity:0.30000000000000004"><path d="M417,421.12a16,16,0,0,1,.83,2,15.74,15.74,0,0,1,.69,2,16,16,0,0,1-.83-2A20.68,20.68,0,0,1,417,421.12Z" style="fill:#fff"></path></g><g style="opacity:0.30000000000000004"><path d="M430.26,432.58a3.84,3.84,0,0,1-.9.33,4.44,4.44,0,0,1-.92.29,2,2,0,0,1,.85-.44A2.2,2.2,0,0,1,430.26,432.58Z" style="fill:#fff"></path></g><g style="opacity:0.30000000000000004"><path d="M430.32,431a11.62,11.62,0,0,1-1.71.83,11.17,11.17,0,0,1-1.78.67,10.52,10.52,0,0,1,1.71-.82A10.7,10.7,0,0,1,430.32,431Z" style="fill:#fff"></path></g><g style="opacity:0.30000000000000004"><path d="M427.23,437.56a4.58,4.58,0,0,1,.93.66,4.81,4.81,0,0,1,.86.79,4.91,4.91,0,0,1-.93-.67A5,5,0,0,1,427.23,437.56Z" style="fill:#fff"></path></g><g style="opacity:0.30000000000000004"><path d="M427.22,438.87s.48.42,1.09.91a13.86,13.86,0,0,1,1.09.9,4.34,4.34,0,0,1-1.17-.78A4.56,4.56,0,0,1,427.22,438.87Z" style="fill:#fff"></path></g><g style="opacity:0.30000000000000004"><path d="M426.74,440a4,4,0,0,1,.81.7,4.4,4.4,0,0,1,.73.82,4.17,4.17,0,0,1-.82-.71A4.24,4.24,0,0,1,426.74,440Z" style="fill:#fff"></path></g><g style="opacity:0.30000000000000004"><path d="M437.35,436.4c-.05-.14-.25-.1-.2.05s.25.1.2-.05Z"></path></g><g style="opacity:0.30000000000000004"><path d="M437.65,438.43c0-.15-.25-.1-.2,0s.25.1.2,0Z"></path></g><g style="opacity:0.30000000000000004"><path d="M436,439.59c0-.14-.25-.09-.2.05s.25.1.2-.05Z"></path></g><g style="opacity:0.30000000000000004"><path d="M436.63,441.33c-.05-.14-.25-.1-.2.05s.25.1.2-.05Z"></path></g><g style="opacity:0.30000000000000004"><path d="M436.66,428.87c-.05-.15-.24-.1-.19,0s.24.1.19,0Z"></path></g></g></svg>
