<svg width="208" height="114" viewBox="0 0 208 114" fill="none" xmlns="http://www.w3.org/2000/svg">
<path d="M18.4815 102.001C18.0139 102.139 16.9375 101.979 16.9375 101.979C16.9375 101.979 17.2513 101.301 17.2827 101.26C17.5965 100.796 18.4345 100.071 19.0339 100.231C19.1326 100.26 19.2242 100.309 19.3026 100.376C19.381 100.443 19.4444 100.526 19.4888 100.618C19.5332 100.711 19.5575 100.813 19.5603 100.916C19.563 101.019 19.544 101.121 19.5046 101.216C19.4012 101.413 19.2561 101.586 19.0795 101.721C18.9028 101.856 18.6988 101.952 18.4815 102.001Z" fill="#263238"/>
<path d="M8.42115 101.553C8.42115 101.553 8.31445 100.809 8.31445 100.762C8.31445 100.209 8.62828 99.1329 9.20258 98.9352C9.30134 98.9041 9.40555 98.8943 9.50837 98.9064C9.6112 98.9184 9.71031 98.952 9.79921 99.0051C9.88812 99.0581 9.9648 99.1294 10.0242 99.2141C10.0837 99.2989 10.1245 99.3953 10.1441 99.497C10.1669 99.7188 10.1411 99.9429 10.0684 100.154C9.99581 100.365 9.87812 100.557 9.72354 100.718C9.41285 101.091 8.42115 101.553 8.42115 101.553Z" fill="#263238"/>
<path d="M6.11944 99.5658C6.53088 99.7227 6.96356 99.8168 7.40299 99.8451C7.50028 99.9737 7.59757 100.115 7.71682 100.272C7.90198 100.551 8.10911 100.865 8.31309 101.213C8.36644 101.308 8.41979 101.414 8.47628 101.527C8.34761 101.377 8.16246 101.173 8.16246 101.154C7.80469 100.84 6.90715 100.397 6.44582 100.664C6.36815 100.711 6.30115 100.773 6.24919 100.847C6.19724 100.921 6.16151 101.005 6.14433 101.094C6.12715 101.183 6.12891 101.275 6.1495 101.363C6.17009 101.451 6.20904 101.534 6.2638 101.606C6.39528 101.751 6.55692 101.866 6.73742 101.942C6.91793 102.019 7.11294 102.055 7.30885 102.048C7.74868 101.999 8.17837 101.882 8.58298 101.703C8.6991 101.926 8.81522 102.161 8.92192 102.412C9.10947 102.862 9.25651 103.327 9.36128 103.802H9.33303C9.23261 103.649 9.0192 103.332 8.9941 103.31C8.68027 102.943 7.84235 102.418 7.34023 102.635C7.258 102.673 7.18467 102.728 7.12504 102.796C7.0654 102.864 7.0208 102.944 6.99414 103.03C6.96748 103.117 6.95937 103.208 6.97034 103.297C6.98131 103.387 7.0111 103.474 7.05778 103.551C7.17241 103.71 7.32026 103.841 7.49101 103.937C7.66176 104.032 7.85128 104.089 8.04634 104.104C8.49904 104.099 8.94852 104.027 9.3801 103.89C9.48177 104.372 9.55201 104.859 9.59037 105.35C9.61861 105.711 9.63431 106.081 9.64686 106.451C9.58096 106.341 9.29537 105.924 9.27027 105.896C8.95644 105.528 8.11852 105.008 7.6164 105.221C7.53417 105.259 7.46084 105.313 7.4012 105.382C7.34157 105.45 7.29696 105.529 7.27031 105.616C7.24365 105.702 7.23554 105.794 7.24651 105.883C7.25748 105.973 7.28727 106.06 7.33395 106.137C7.44841 106.296 7.59616 106.428 7.7669 106.524C7.93763 106.62 8.12725 106.678 8.32251 106.693C8.77318 106.688 9.22065 106.616 9.65 106.479C9.65 106.649 9.65 106.815 9.65 106.985C9.65 107.534 9.6751 108.086 9.70335 108.629C9.70335 108.817 9.72845 109.003 9.74414 109.188C9.63744 109.028 9.43032 108.739 9.43032 108.717C9.11649 108.35 8.27857 107.826 7.77645 108.042C7.69422 108.08 7.62089 108.135 7.56126 108.203C7.50162 108.271 7.45702 108.351 7.43036 108.437C7.4037 108.524 7.39559 108.615 7.40656 108.705C7.41753 108.795 7.44732 108.881 7.494 108.959C7.60863 109.117 7.75648 109.249 7.92723 109.344C8.09798 109.439 8.2875 109.496 8.48256 109.511C8.91806 109.512 9.35106 109.445 9.76611 109.313C9.79436 109.627 9.82888 109.941 9.87909 110.226C9.90106 110.355 9.91675 110.487 9.94813 110.609C9.97952 110.732 10.0015 110.857 10.0297 110.977C10.0925 111.228 10.1521 111.457 10.218 111.689C10.2525 111.805 10.2839 111.915 10.3184 112.028C10.2337 111.849 10.0988 111.567 10.0831 111.541C9.8226 111.13 9.07883 110.487 8.54846 110.625C8.46077 110.649 8.37935 110.692 8.30984 110.751C8.24033 110.809 8.18439 110.882 8.14589 110.965C8.10739 111.047 8.08724 111.137 8.08685 111.228C8.08646 111.319 8.10583 111.408 8.14363 111.491C8.23299 111.668 8.36034 111.823 8.51658 111.945C8.67282 112.067 8.8541 112.153 9.04745 112.197C9.49059 112.264 9.94121 112.264 10.3844 112.197C10.4659 112.47 10.5475 112.74 10.6323 112.988C10.717 113.236 10.7609 113.384 10.8268 113.566H11.1846C11.103 113.352 11.0214 113.126 10.9367 112.885C10.852 112.643 10.7766 112.423 10.6982 112.178C11.1032 112.023 11.4845 111.812 11.8311 111.551C12.0632 111.699 12.3031 111.834 12.5498 111.956C12.465 112.229 12.3866 112.499 12.3175 112.753C12.2485 113.007 12.17 113.308 12.1073 113.559H12.4587C12.509 113.33 12.5654 113.092 12.6314 112.834C12.6973 112.577 12.7537 112.361 12.8228 112.113C13.2588 112.213 13.7073 112.247 14.1534 112.213C14.3465 112.183 14.5307 112.111 14.6933 112.003C14.8559 111.894 14.9929 111.752 15.0949 111.585C15.1347 111.504 15.157 111.415 15.1604 111.325C15.1637 111.234 15.148 111.144 15.1143 111.06C15.0806 110.976 15.0296 110.9 14.9646 110.837C14.8996 110.774 14.8221 110.725 14.7371 110.694C14.2193 110.521 13.4316 111.111 13.146 111.504C13.1272 111.529 12.942 111.849 12.851 112.015C12.8918 111.865 12.9358 111.717 12.9797 111.56C13.0456 111.337 13.1209 111.102 13.1962 110.873C13.237 110.757 13.2778 110.638 13.3218 110.518C13.3657 110.399 13.4159 110.286 13.463 110.167C13.5352 109.997 13.6199 109.825 13.7015 109.649C14.1026 109.808 14.5263 109.902 14.9568 109.928C15.1479 109.922 15.3354 109.875 15.507 109.791C15.6785 109.706 15.8301 109.586 15.9516 109.439C16.0044 109.364 16.0407 109.279 16.0582 109.19C16.0758 109.1 16.0741 109.008 16.0533 108.919C16.0326 108.83 15.9932 108.746 15.9378 108.674C15.8824 108.601 15.8123 108.541 15.732 108.497C15.2487 108.249 14.3794 108.711 14.0373 109.056C14.0373 109.056 13.9588 109.147 13.8835 109.244C13.9693 109.077 14.0572 108.91 14.1471 108.745C14.4108 108.274 14.6963 107.804 14.9788 107.33L15.1514 107.035C15.559 107.195 15.9886 107.292 16.4255 107.324C16.6214 107.323 16.8148 107.279 16.992 107.195C17.1693 107.112 17.3262 106.991 17.4517 106.84C17.5045 106.766 17.5408 106.681 17.5583 106.591C17.5758 106.501 17.5742 106.409 17.5534 106.32C17.5327 106.231 17.4933 106.148 17.4379 106.075C17.3825 106.002 17.3124 105.942 17.2321 105.899C16.7456 105.651 15.8795 106.112 15.5343 106.457L15.3585 106.674C15.5091 106.417 15.6723 106.156 15.7916 105.893C16.0312 105.442 16.2409 104.977 16.4192 104.499C16.8368 104.67 17.2782 104.776 17.7279 104.813C17.9238 104.812 18.1172 104.768 18.2944 104.685C18.4716 104.601 18.6285 104.48 18.7541 104.33C18.8069 104.255 18.8432 104.17 18.8607 104.081C18.8782 103.991 18.8766 103.899 18.8558 103.81C18.835 103.721 18.7957 103.637 18.7403 103.564C18.6849 103.492 18.6147 103.432 18.5344 103.388C18.048 103.14 17.1818 103.605 16.8366 103.947C16.8115 103.972 16.5228 104.32 16.4412 104.449C16.6016 103.976 16.7192 103.49 16.7927 102.996C16.8624 102.555 16.9054 102.111 16.9214 101.665C16.9402 101.251 16.9214 100.871 16.9214 100.535C16.9214 100.353 16.9057 100.19 16.8963 100.033C16.8963 100.033 17.1316 99.4057 17.1411 99.3743C17.2572 98.9036 17.2007 97.9213 16.7362 97.6357C16.6567 97.591 16.5687 97.5636 16.4778 97.5554C16.387 97.5471 16.2955 97.5582 16.2092 97.5878C16.123 97.6175 16.044 97.665 15.9774 97.7274C15.9108 97.7897 15.8582 97.8654 15.823 97.9496C15.7603 98.135 15.7387 98.3318 15.7599 98.5264C15.781 98.721 15.8443 98.9086 15.9454 99.0762C16.2001 99.4357 16.5092 99.7534 16.8617 100.018C16.8617 100.178 16.8617 100.35 16.8774 100.542C16.8774 100.874 16.8774 101.254 16.8492 101.665C16.8492 101.775 16.8304 101.891 16.8178 102.007C16.7958 101.81 16.7613 101.543 16.755 101.518C16.6389 101.044 16.1274 100.2 15.5907 100.162C15.5005 100.158 15.4105 100.174 15.3265 100.207C15.2425 100.24 15.1664 100.291 15.1032 100.355C15.0399 100.42 14.9908 100.497 14.9591 100.581C14.9274 100.666 14.9138 100.756 14.9192 100.846C14.9492 101.039 15.0209 101.223 15.1293 101.386C15.2377 101.549 15.3801 101.686 15.5468 101.788C15.9417 101.989 16.365 102.129 16.8021 102.202C16.777 102.453 16.7425 102.713 16.6923 102.98C16.608 103.467 16.4809 103.946 16.3125 104.411H16.2812C16.2812 104.226 16.2812 103.84 16.2812 103.809C16.2153 103.329 15.8104 102.431 15.2738 102.334C15.1843 102.32 15.093 102.326 15.0057 102.35C14.9185 102.374 14.8373 102.416 14.7673 102.474C14.6972 102.531 14.64 102.602 14.5991 102.683C14.5583 102.764 14.5347 102.852 14.53 102.943C14.5387 103.138 14.5899 103.33 14.6798 103.503C14.7697 103.677 14.8964 103.83 15.051 103.95C15.4306 104.197 15.8453 104.385 16.2812 104.509C16.1003 104.965 15.8906 105.409 15.6535 105.839C15.4809 106.153 15.2895 106.467 15.0949 106.781C15.0949 106.652 15.0949 106.153 15.0949 106.112C15.0321 105.629 14.6242 104.735 14.0875 104.637C13.9977 104.621 13.9054 104.624 13.8171 104.647C13.7287 104.67 13.6464 104.712 13.5759 104.77C13.5054 104.828 13.4484 104.9 13.4088 104.983C13.3693 105.065 13.3481 105.155 13.3469 105.246C13.3548 105.442 13.4055 105.634 13.4955 105.808C13.5855 105.982 13.7126 106.134 13.8678 106.253C14.2448 106.498 14.6563 106.686 15.0886 106.809L14.825 107.236C14.5331 107.703 14.2381 108.177 13.962 108.639C13.8647 108.802 13.7768 108.952 13.6858 109.128C13.6858 108.934 13.6858 108.582 13.6858 108.554C13.623 108.07 13.2151 107.176 12.6784 107.079C12.5886 107.062 12.4964 107.066 12.408 107.089C12.3196 107.111 12.2373 107.153 12.1668 107.211C12.0963 107.269 12.0393 107.342 11.9997 107.424C11.9602 107.506 11.939 107.596 11.9378 107.688C11.946 107.883 11.9965 108.074 12.0859 108.248C12.1753 108.422 12.3015 108.575 12.4556 108.695C12.8188 108.935 13.2168 109.117 13.6356 109.235C13.4881 109.511 13.35 109.784 13.2245 110.06C13.1743 110.179 13.1146 110.299 13.0707 110.418C13.0268 110.537 12.9828 110.653 12.9358 110.769C12.8542 111.014 12.7757 111.24 12.7035 111.466C12.6659 111.582 12.6345 111.692 12.6 111.805C12.6282 111.607 12.669 111.297 12.669 111.268C12.669 110.782 12.4148 109.837 11.9001 109.658C11.8136 109.631 11.7222 109.622 11.632 109.633C11.5418 109.643 11.4548 109.672 11.3766 109.718C11.2985 109.765 11.2309 109.827 11.1784 109.901C11.1258 109.975 11.0895 110.059 11.0716 110.148C11.0623 110.195 11.056 110.242 11.0528 110.289C10.8061 110.646 10.6558 111.06 10.6166 111.491C10.6166 111.519 10.6354 111.89 10.6542 112.078C10.604 111.931 10.557 111.783 10.5099 111.629C10.4408 111.403 10.3749 111.168 10.309 110.936C10.2808 110.816 10.2494 110.694 10.2212 110.572C10.1929 110.449 10.1709 110.324 10.1458 110.201C10.1113 110.016 10.0862 109.828 10.058 109.636C10.4752 109.546 10.8756 109.39 11.2442 109.175C11.4074 109.066 11.5448 108.923 11.6467 108.756C11.7486 108.588 11.8126 108.4 11.8342 108.205C11.839 108.114 11.8237 108.023 11.7896 107.938C11.7555 107.854 11.7033 107.777 11.6366 107.715C11.57 107.653 11.4905 107.605 11.4038 107.577C11.317 107.548 11.2251 107.539 11.1344 107.55C10.5946 107.609 10.127 108.472 10.0297 108.949C10.0297 108.965 10.0297 109.068 10.0046 109.191C9.98579 109.003 9.96382 108.817 9.95127 108.629C9.91047 108.089 9.8885 107.54 9.8634 106.991L9.84457 106.646C10.2727 106.557 10.6845 106.402 11.0654 106.188C11.229 106.078 11.3669 105.935 11.4694 105.767C11.5718 105.599 11.6363 105.41 11.6585 105.215C11.6606 105.124 11.6435 105.034 11.6086 104.95C11.5736 104.867 11.5214 104.791 11.4554 104.729C11.3894 104.667 11.3111 104.62 11.2255 104.59C11.1399 104.56 11.049 104.548 10.9587 104.556C10.4189 104.615 9.95127 105.481 9.85398 105.958C9.85398 105.974 9.85398 106.097 9.82574 106.235C9.80691 105.936 9.78494 105.638 9.75356 105.343C9.70458 104.837 9.62069 104.335 9.5025 103.84C9.94202 103.748 10.3652 103.59 10.7578 103.372C10.92 103.263 11.0564 103.119 11.1577 102.952C11.259 102.785 11.3228 102.597 11.3447 102.403C11.3472 102.312 11.3306 102.222 11.296 102.139C11.2613 102.055 11.2094 101.98 11.1437 101.917C11.0779 101.855 10.9998 101.808 10.9144 101.778C10.8289 101.748 10.7382 101.736 10.648 101.744C10.105 101.803 9.63744 102.67 9.54016 103.147C9.54016 103.181 9.49308 103.624 9.48681 103.774C9.48681 103.774 9.48681 103.774 9.48681 103.758C9.36079 103.275 9.1917 102.803 8.98154 102.349C8.79614 101.944 8.58655 101.55 8.35389 101.169C8.14363 100.815 7.92709 100.501 7.72624 100.228C7.61954 100.077 7.52225 99.9455 7.4281 99.82C7.4281 99.82 7.28688 99.1766 7.27119 99.1358C7.108 98.6776 6.518 97.8805 5.97194 97.9119C5.88165 97.9176 5.79358 97.9423 5.71347 97.9843C5.63336 98.0264 5.56302 98.0849 5.50705 98.1559C5.45108 98.227 5.41072 98.3091 5.38863 98.3968C5.36653 98.4846 5.36318 98.576 5.37881 98.6651C5.42664 98.8612 5.51806 99.0441 5.64629 99.2C5.77451 99.3559 5.93624 99.4809 6.11944 99.5658Z" fill="#263238"/>
<path d="M194.564 106.928C194.27 106.973 193.97 106.973 193.676 106.928C193.676 106.928 193.861 106.539 193.877 106.517C194.046 106.25 194.536 105.833 194.881 105.924C194.935 105.942 194.984 105.97 195.027 106.007C195.07 106.044 195.105 106.09 195.13 106.141C195.155 106.191 195.169 106.247 195.172 106.303C195.175 106.36 195.167 106.417 195.148 106.47C195.089 106.584 195.007 106.684 194.906 106.763C194.805 106.843 194.689 106.899 194.564 106.928Z" fill="#263238"/>
<path d="M188.795 106.671C188.795 106.671 188.732 106.244 188.732 106.219C188.732 105.905 188.905 105.277 189.244 105.17C189.3 105.153 189.359 105.147 189.417 105.154C189.475 105.161 189.531 105.179 189.582 105.209C189.632 105.238 189.676 105.278 189.71 105.326C189.744 105.373 189.768 105.427 189.781 105.484C189.794 105.612 189.779 105.74 189.737 105.861C189.696 105.982 189.628 106.092 189.539 106.184C189.317 106.382 189.066 106.546 188.795 106.671Z" fill="#263238"/>
<path d="M187.47 105.529C187.707 105.617 187.956 105.671 188.208 105.689C188.261 105.761 188.321 105.843 188.38 105.934C188.487 106.094 188.606 106.276 188.723 106.48L188.817 106.652L188.632 106.439C188.424 106.251 187.919 106.006 187.646 106.16C187.601 106.186 187.563 106.222 187.533 106.264C187.503 106.307 187.483 106.355 187.473 106.406C187.463 106.457 187.464 106.51 187.476 106.56C187.488 106.611 187.511 106.658 187.543 106.699C187.618 106.783 187.711 106.849 187.814 106.893C187.918 106.937 188.03 106.957 188.142 106.954C188.393 106.924 188.639 106.856 188.87 106.753C188.942 106.885 189.007 107.021 189.065 107.161C189.18 107.421 189.271 107.691 189.338 107.967H189.319C189.262 107.879 189.137 107.697 189.124 107.682C188.942 107.471 188.465 107.173 188.183 107.296C188.135 107.317 188.093 107.349 188.059 107.388C188.024 107.427 187.999 107.473 187.983 107.523C187.968 107.572 187.963 107.625 187.969 107.677C187.976 107.728 187.993 107.778 188.02 107.823C188.086 107.913 188.171 107.988 188.269 108.042C188.367 108.096 188.476 108.129 188.588 108.137C188.848 108.135 189.106 108.093 189.353 108.014C189.411 108.29 189.451 108.568 189.473 108.849C189.491 109.059 189.501 109.27 189.507 109.477L189.291 109.163C189.105 108.949 188.628 108.651 188.349 108.774C188.302 108.795 188.26 108.827 188.225 108.866C188.191 108.905 188.165 108.951 188.15 109.001C188.134 109.051 188.13 109.103 188.136 109.155C188.142 109.206 188.159 109.256 188.186 109.301C188.252 109.391 188.337 109.466 188.435 109.52C188.533 109.575 188.642 109.607 188.754 109.615C189.012 109.613 189.268 109.572 189.513 109.492V109.784C189.513 110.098 189.529 110.412 189.545 110.726C189.545 110.836 189.545 110.942 189.567 111.04C189.507 110.949 189.391 110.782 189.382 110.77C189.196 110.559 188.719 110.258 188.44 110.384C188.393 110.405 188.351 110.436 188.316 110.475C188.282 110.514 188.256 110.56 188.241 110.609C188.226 110.659 188.222 110.711 188.228 110.763C188.235 110.814 188.253 110.864 188.28 110.908C188.346 110.999 188.431 111.074 188.529 111.128C188.627 111.182 188.736 111.214 188.848 111.222C189.097 111.223 189.345 111.185 189.582 111.109C189.582 111.287 189.617 111.46 189.645 111.633C189.661 111.708 189.67 111.783 189.686 111.852L189.733 112.063C189.771 112.207 189.805 112.339 189.843 112.471C189.862 112.54 189.881 112.602 189.899 112.665C189.852 112.562 189.774 112.402 189.764 112.386C189.614 112.15 189.187 111.783 188.886 111.862C188.836 111.876 188.789 111.901 188.749 111.934C188.709 111.967 188.677 112.009 188.654 112.056C188.631 112.103 188.619 112.154 188.617 112.206C188.615 112.258 188.624 112.309 188.644 112.358C188.695 112.458 188.768 112.545 188.857 112.614C188.946 112.683 189.049 112.732 189.159 112.756C189.413 112.793 189.671 112.793 189.925 112.756C189.972 112.913 190.019 113.07 190.066 113.211C190.113 113.352 190.141 113.437 190.179 113.525H190.383C190.339 113.403 190.289 113.274 190.241 113.136C190.194 112.998 190.15 112.869 190.103 112.728C190.336 112.64 190.556 112.521 190.756 112.373C190.889 112.458 191.026 112.535 191.167 112.606C191.12 112.762 191.073 112.919 191.035 113.061C190.998 113.202 190.948 113.374 190.913 113.525H191.114C191.142 113.393 191.177 113.258 191.214 113.108C191.252 112.957 191.283 112.838 191.324 112.693C191.574 112.752 191.831 112.772 192.087 112.753C192.198 112.735 192.303 112.693 192.397 112.63C192.49 112.567 192.568 112.485 192.627 112.389C192.65 112.342 192.663 112.292 192.665 112.24C192.667 112.188 192.658 112.136 192.639 112.088C192.619 112.04 192.59 111.996 192.553 111.96C192.516 111.923 192.471 111.895 192.423 111.877C192.124 111.78 191.673 112.116 191.509 112.342C191.509 112.358 191.39 112.54 191.34 112.637C191.365 112.549 191.387 112.464 191.415 112.376C191.443 112.289 191.494 112.113 191.538 111.981C191.56 111.912 191.585 111.846 191.61 111.777C191.635 111.708 191.663 111.645 191.691 111.576C191.72 111.507 191.779 111.378 191.829 111.278C192.056 111.369 192.295 111.423 192.539 111.438C192.651 111.437 192.762 111.412 192.864 111.364C192.966 111.317 193.056 111.248 193.129 111.162C193.158 111.119 193.178 111.07 193.187 111.019C193.196 110.968 193.195 110.916 193.183 110.865C193.171 110.815 193.148 110.767 193.117 110.726C193.085 110.685 193.045 110.65 193 110.625C192.724 110.484 192.225 110.748 192.027 110.939L191.939 111.046C191.99 110.952 192.04 110.854 192.093 110.76C192.244 110.49 192.407 110.22 192.57 109.951L192.667 109.778C192.901 109.871 193.148 109.927 193.399 109.944C193.511 109.944 193.622 109.919 193.724 109.871C193.826 109.824 193.916 109.754 193.989 109.668C194.018 109.625 194.038 109.577 194.047 109.526C194.057 109.475 194.056 109.423 194.044 109.372C194.032 109.322 194.01 109.274 193.979 109.233C193.948 109.191 193.908 109.157 193.863 109.131C193.584 108.99 193.085 109.254 192.887 109.445L192.787 109.571C192.874 109.42 192.956 109.273 193.035 109.122C193.172 108.864 193.291 108.596 193.392 108.322C193.632 108.418 193.885 108.477 194.142 108.498C194.254 108.497 194.365 108.472 194.466 108.424C194.568 108.376 194.657 108.307 194.729 108.221C194.759 108.179 194.78 108.13 194.79 108.079C194.8 108.028 194.8 107.975 194.788 107.925C194.776 107.874 194.753 107.826 194.722 107.785C194.69 107.744 194.65 107.709 194.604 107.685C194.328 107.54 193.829 107.807 193.631 107.999C193.631 107.999 193.458 108.212 193.405 108.284C193.496 108.013 193.563 107.735 193.606 107.452C193.645 107.2 193.67 106.945 193.681 106.69C193.681 106.451 193.681 106.235 193.681 106.04C193.681 105.937 193.681 105.843 193.681 105.755C193.681 105.755 193.819 105.4 193.822 105.378C193.888 105.105 193.857 104.543 193.59 104.38C193.545 104.355 193.495 104.339 193.443 104.334C193.391 104.329 193.339 104.335 193.29 104.351C193.241 104.367 193.195 104.393 193.157 104.428C193.118 104.463 193.087 104.505 193.066 104.553C193.03 104.659 193.018 104.772 193.031 104.884C193.043 104.996 193.08 105.103 193.138 105.199C193.284 105.405 193.461 105.587 193.662 105.739C193.662 105.831 193.662 105.936 193.662 106.053C193.662 106.244 193.662 106.461 193.662 106.696L193.643 106.891C193.643 106.781 193.612 106.627 193.609 106.611C193.54 106.342 193.251 105.855 192.94 105.833C192.888 105.831 192.836 105.84 192.788 105.859C192.739 105.878 192.695 105.907 192.659 105.944C192.622 105.982 192.594 106.026 192.576 106.075C192.558 106.124 192.551 106.177 192.554 106.229C192.572 106.339 192.614 106.445 192.676 106.538C192.738 106.631 192.82 106.71 192.915 106.768C193.141 106.884 193.384 106.964 193.634 107.007C193.618 107.151 193.599 107.299 193.571 107.452C193.524 107.733 193.452 108.008 193.355 108.275H193.336C193.336 108.168 193.336 107.961 193.336 107.93C193.298 107.653 193.066 107.139 192.758 107.085C192.707 107.077 192.655 107.08 192.604 107.094C192.554 107.107 192.508 107.131 192.467 107.164C192.427 107.197 192.394 107.238 192.371 107.285C192.347 107.331 192.334 107.382 192.332 107.434C192.339 107.547 192.371 107.657 192.425 107.757C192.479 107.857 192.554 107.943 192.645 108.011C192.864 108.15 193.102 108.255 193.352 108.325C193.248 108.587 193.127 108.841 192.991 109.088C192.89 109.273 192.783 109.452 192.677 109.634C192.677 109.561 192.677 109.27 192.677 109.251C192.642 108.971 192.407 108.46 192.099 108.403C192.048 108.396 191.996 108.399 191.946 108.413C191.897 108.427 191.85 108.451 191.81 108.484C191.77 108.517 191.738 108.557 191.715 108.603C191.691 108.65 191.678 108.7 191.676 108.752C191.682 108.865 191.713 108.976 191.767 109.076C191.821 109.176 191.897 109.262 191.99 109.329C192.206 109.468 192.442 109.574 192.689 109.643L192.539 109.888C192.369 110.158 192.2 110.424 192.043 110.694C191.986 110.785 191.936 110.879 191.886 110.974C191.886 110.864 191.886 110.66 191.886 110.644C191.848 110.368 191.616 109.853 191.309 109.797C191.257 109.789 191.204 109.793 191.154 109.807C191.104 109.821 191.057 109.845 191.017 109.878C190.977 109.911 190.944 109.952 190.921 109.999C190.898 110.045 190.884 110.096 190.882 110.148C190.889 110.261 190.921 110.372 190.975 110.471C191.029 110.571 191.105 110.658 191.196 110.726C191.404 110.864 191.633 110.97 191.873 111.04C191.789 111.196 191.707 111.353 191.638 111.51C191.605 111.578 191.575 111.647 191.55 111.717C191.522 111.786 191.497 111.852 191.472 111.918C191.425 112.059 191.378 112.188 191.337 112.32C191.318 112.386 191.299 112.449 191.277 112.511C191.296 112.398 191.318 112.223 191.318 112.198C191.318 111.921 191.17 111.378 190.875 111.275C190.826 111.259 190.774 111.254 190.722 111.26C190.671 111.266 190.621 111.283 190.576 111.309C190.532 111.335 190.493 111.371 190.463 111.413C190.433 111.455 190.412 111.503 190.402 111.554C190.399 111.581 190.399 111.609 190.402 111.636C190.263 111.839 190.179 112.075 190.157 112.32C190.157 112.339 190.157 112.549 190.179 112.659C190.154 112.574 190.125 112.489 190.097 112.398L189.984 112.003L189.931 111.793C189.912 111.721 189.903 111.651 189.887 111.579C189.871 111.507 189.855 111.366 189.84 111.265C190.079 111.215 190.308 111.129 190.521 111.008C190.613 110.945 190.691 110.863 190.749 110.767C190.807 110.671 190.844 110.564 190.857 110.453C190.858 110.401 190.849 110.349 190.829 110.301C190.809 110.253 190.779 110.21 190.742 110.174C190.704 110.138 190.66 110.111 190.611 110.093C190.562 110.076 190.51 110.069 190.458 110.073C190.144 110.107 189.877 110.603 189.83 110.876C189.83 110.876 189.83 110.945 189.83 111.014C189.83 110.908 189.808 110.801 189.799 110.701C189.777 110.387 189.764 110.073 189.749 109.759V109.561C189.995 109.511 190.231 109.422 190.449 109.298C190.542 109.235 190.62 109.153 190.678 109.057C190.736 108.961 190.773 108.854 190.784 108.742C190.786 108.691 190.776 108.639 190.757 108.591C190.737 108.543 190.707 108.5 190.67 108.465C190.632 108.429 190.587 108.402 190.538 108.385C190.489 108.368 190.437 108.361 190.386 108.366C190.072 108.4 189.805 108.896 189.758 109.169C189.758 109.169 189.758 109.251 189.758 109.329C189.758 109.157 189.733 108.987 189.717 108.818C189.688 108.527 189.639 108.239 189.573 107.955C189.765 107.9 189.951 107.823 190.125 107.726C190.219 107.663 190.297 107.581 190.356 107.485C190.414 107.389 190.451 107.282 190.464 107.17C190.465 107.118 190.456 107.067 190.435 107.019C190.415 106.971 190.385 106.928 190.347 106.892C190.309 106.857 190.265 106.83 190.215 106.813C190.166 106.796 190.114 106.789 190.063 106.793C189.749 106.828 189.482 107.324 189.435 107.597C189.435 107.616 189.407 107.873 189.404 107.964C189.331 107.687 189.233 107.417 189.112 107.157C189.006 106.926 188.887 106.7 188.754 106.483C188.632 106.279 188.509 106.097 188.396 105.94L188.227 105.708C188.227 105.708 188.145 105.34 188.136 105.315C188.042 105.055 187.703 104.603 187.392 104.612C187.34 104.616 187.29 104.63 187.244 104.655C187.198 104.679 187.158 104.713 187.125 104.753C187.093 104.794 187.07 104.841 187.057 104.891C187.044 104.942 187.041 104.994 187.05 105.045C187.082 105.151 187.136 105.249 187.208 105.332C187.281 105.416 187.37 105.483 187.47 105.529Z" fill="#263238"/>
<path d="M204.621 101.597C204.141 101.741 203.023 101.575 203.023 101.575C203.023 101.575 203.356 100.872 203.381 100.831C203.695 100.348 204.574 99.5975 205.195 99.7638C205.297 99.7944 205.392 99.846 205.472 99.9153C205.553 99.9845 205.619 100.07 205.664 100.166C205.71 100.262 205.735 100.367 205.738 100.473C205.741 100.579 205.722 100.685 205.682 100.784C205.575 100.989 205.425 101.168 205.242 101.309C205.059 101.449 204.847 101.548 204.621 101.597Z" fill="#263238"/>
<path d="M194.206 101.135C194.206 101.135 194.096 100.366 194.096 100.316C194.096 99.7419 194.41 98.631 195.015 98.4333C195.117 98.4018 195.224 98.3921 195.33 98.4049C195.436 98.4176 195.538 98.4525 195.63 98.5073C195.721 98.562 195.8 98.6355 195.861 98.7227C195.922 98.81 195.965 98.9092 195.985 99.0139C196.007 99.2419 195.979 99.472 195.905 99.6885C195.83 99.9051 195.71 100.103 195.552 100.269C195.238 100.652 194.206 101.135 194.206 101.135Z" fill="#263238"/>
<path d="M191.831 99.0636C192.256 99.227 192.704 99.3233 193.159 99.3492L193.473 99.7917C193.664 100.08 193.881 100.419 194.1 100.78C194.157 100.878 194.213 100.987 194.27 101.094C194.138 100.94 193.956 100.727 193.934 100.708C193.564 100.366 192.647 99.9266 192.158 100.203C192.077 100.251 192.007 100.315 191.953 100.392C191.899 100.469 191.862 100.556 191.845 100.649C191.827 100.741 191.829 100.836 191.85 100.927C191.872 101.018 191.912 101.104 191.969 101.179C192.106 101.329 192.273 101.447 192.46 101.526C192.647 101.605 192.849 101.641 193.052 101.634C193.507 101.584 193.952 101.463 194.37 101.276C194.489 101.508 194.609 101.75 194.722 102.01C194.925 102.48 195.088 102.966 195.208 103.463H195.18L194.828 102.952C194.496 102.572 193.636 102.032 193.115 102.255C193.031 102.294 192.956 102.351 192.895 102.421C192.834 102.491 192.788 102.573 192.76 102.661C192.733 102.75 192.724 102.843 192.735 102.936C192.746 103.028 192.776 103.117 192.823 103.197C192.942 103.361 193.095 103.497 193.271 103.597C193.448 103.696 193.644 103.755 193.846 103.771C194.315 103.766 194.78 103.691 195.227 103.548C195.332 104.046 195.404 104.55 195.443 105.058C195.475 105.434 195.491 105.814 195.503 106.197C195.434 106.084 195.139 105.654 195.114 105.626C194.781 105.246 193.921 104.703 193.4 104.926C193.317 104.965 193.242 105.022 193.181 105.092C193.12 105.162 193.075 105.244 193.047 105.332C193.02 105.421 193.011 105.514 193.022 105.606C193.032 105.698 193.062 105.787 193.109 105.867C193.227 106.031 193.38 106.167 193.557 106.266C193.734 106.364 193.93 106.423 194.132 106.439C194.598 106.435 195.062 106.36 195.506 106.219C195.506 106.395 195.506 106.567 195.506 106.743C195.506 107.311 195.531 107.882 195.56 108.444C195.56 108.638 195.588 108.833 195.604 109.024C195.494 108.858 195.29 108.557 195.268 108.535C194.935 108.155 194.075 107.612 193.554 107.835C193.47 107.875 193.396 107.931 193.335 108.001C193.274 108.071 193.229 108.153 193.201 108.242C193.174 108.33 193.165 108.423 193.176 108.515C193.186 108.608 193.216 108.696 193.262 108.777C193.381 108.94 193.534 109.076 193.711 109.175C193.888 109.274 194.084 109.333 194.285 109.348C194.736 109.349 195.184 109.28 195.613 109.144C195.644 109.458 195.679 109.771 195.729 110.085C195.754 110.217 195.77 110.355 195.801 110.481L195.886 110.863C195.952 111.121 196.015 111.359 196.084 111.598C196.115 111.717 196.15 111.83 196.184 111.949C196.099 111.764 195.958 111.472 195.939 111.447C195.673 111.02 194.901 110.355 194.37 110.506C194.28 110.532 194.197 110.576 194.125 110.637C194.053 110.697 193.995 110.772 193.954 110.856C193.914 110.941 193.891 111.033 193.888 111.126C193.885 111.22 193.902 111.313 193.937 111.4C194.03 111.58 194.161 111.738 194.32 111.863C194.48 111.988 194.665 112.076 194.863 112.122C195.322 112.192 195.788 112.192 196.247 112.122C196.332 112.408 196.416 112.687 196.501 112.944C196.586 113.202 196.639 113.352 196.705 113.54H197.075C196.994 113.321 196.906 113.085 196.818 112.834C196.73 112.583 196.655 112.357 196.57 112.103C196.988 111.949 197.383 111.738 197.744 111.475C197.984 111.628 198.232 111.767 198.488 111.893C198.403 112.175 198.321 112.455 198.249 112.718C198.177 112.982 198.095 113.293 198.029 113.553H198.393C198.447 113.318 198.503 113.07 198.572 112.803C198.641 112.536 198.698 112.313 198.77 112.056C199.221 112.159 199.686 112.194 200.148 112.16C200.348 112.127 200.539 112.051 200.707 111.938C200.875 111.825 201.018 111.677 201.124 111.504C201.165 111.419 201.187 111.327 201.19 111.234C201.193 111.14 201.177 111.047 201.142 110.96C201.106 110.873 201.053 110.794 200.986 110.729C200.919 110.664 200.838 110.613 200.75 110.581C200.217 110.402 199.401 111.011 199.103 111.419C199.084 111.444 198.892 111.777 198.789 111.949C198.833 111.792 198.877 111.636 198.924 111.479C198.993 111.246 199.071 111.002 199.147 110.766L199.278 110.399C199.319 110.273 199.376 110.161 199.423 110.038C199.498 109.859 199.586 109.68 199.671 109.501C200.081 109.662 200.514 109.76 200.954 109.79C201.157 109.789 201.357 109.743 201.54 109.656C201.723 109.57 201.885 109.444 202.015 109.288C202.069 109.211 202.106 109.124 202.124 109.032C202.142 108.94 202.14 108.845 202.118 108.754C202.097 108.663 202.057 108.577 202 108.503C201.943 108.428 201.871 108.366 201.789 108.321C201.287 108.064 200.389 108.541 200.035 108.899C200.035 108.899 199.953 108.993 199.875 109.094C199.966 108.921 200.054 108.748 200.151 108.576C200.424 108.089 200.716 107.603 201.008 107.113C201.07 107.01 201.127 106.906 201.19 106.799C201.61 106.969 202.053 107.075 202.505 107.113C202.708 107.112 202.908 107.066 203.092 106.98C203.276 106.893 203.438 106.767 203.568 106.611C203.622 106.534 203.658 106.447 203.676 106.355C203.694 106.263 203.692 106.169 203.67 106.078C203.649 105.986 203.609 105.901 203.552 105.826C203.496 105.752 203.424 105.69 203.342 105.645C202.84 105.387 201.943 105.864 201.585 106.222L201.403 106.445C201.557 106.178 201.717 105.908 201.852 105.635C202.093 105.169 202.302 104.688 202.479 104.195C202.913 104.367 203.37 104.473 203.835 104.508C204.038 104.507 204.238 104.461 204.421 104.375C204.604 104.288 204.766 104.162 204.896 104.006C204.95 103.93 204.987 103.842 205.005 103.75C205.023 103.658 205.021 103.564 204.999 103.472C204.978 103.381 204.938 103.296 204.881 103.221C204.824 103.146 204.752 103.085 204.67 103.04C204.168 102.782 203.27 103.259 202.913 103.617C202.887 103.642 202.599 104.003 202.501 104.138C202.503 104.132 202.503 104.126 202.501 104.119C202.668 103.63 202.791 103.127 202.869 102.616C202.939 102.16 202.983 101.7 203 101.238C203.022 100.812 203 100.419 203 100.071C203 99.8827 202.985 99.7101 202.975 99.55C202.975 99.55 203.22 98.9224 203.23 98.8722C203.349 98.3826 203.289 97.3658 202.809 97.0739C202.728 97.0279 202.637 96.9994 202.544 96.9904C202.451 96.9814 202.357 96.992 202.268 97.0216C202.18 97.0512 202.098 97.0991 202.029 97.1621C201.96 97.2252 201.905 97.3021 201.867 97.3878C201.802 97.5792 201.78 97.7827 201.801 97.9838C201.823 98.1849 201.888 98.3789 201.993 98.5521C202.254 98.9238 202.572 99.2521 202.935 99.5249C202.935 99.6944 202.935 99.8701 202.95 100.068C202.95 100.416 202.95 100.805 202.919 101.232C202.919 101.345 202.9 101.468 202.891 101.584C202.865 101.383 202.828 101.103 202.822 101.078C202.702 100.589 202.194 99.7164 201.62 99.6756C201.526 99.6719 201.433 99.6879 201.346 99.7224C201.259 99.7569 201.18 99.8092 201.114 99.876C201.049 99.9428 200.998 100.023 200.965 100.11C200.932 100.198 200.918 100.291 200.923 100.385C200.954 100.585 201.028 100.777 201.14 100.946C201.252 101.115 201.4 101.257 201.572 101.364C201.982 101.571 202.42 101.715 202.872 101.791C202.843 102.051 202.809 102.321 202.759 102.597C202.672 103.102 202.54 103.598 202.363 104.079H202.332C202.332 103.89 202.332 103.492 202.332 103.451C202.266 102.952 201.842 102.026 201.29 101.926C201.198 101.912 201.103 101.917 201.013 101.942C200.923 101.966 200.839 102.009 200.766 102.069C200.694 102.128 200.634 102.201 200.592 102.285C200.55 102.368 200.526 102.46 200.521 102.553C200.53 102.755 200.583 102.953 200.675 103.133C200.768 103.313 200.899 103.471 201.058 103.595C201.451 103.85 201.881 104.045 202.332 104.173C202.144 104.645 201.926 105.106 201.679 105.55C201.5 105.864 201.303 106.209 201.102 106.536C201.102 106.401 201.102 105.877 201.102 105.839C201.036 105.34 200.615 104.414 200.06 104.314C199.967 104.3 199.873 104.305 199.783 104.33C199.692 104.354 199.608 104.398 199.536 104.457C199.463 104.516 199.404 104.59 199.362 104.673C199.32 104.757 199.296 104.848 199.291 104.942C199.3 105.144 199.352 105.342 199.445 105.522C199.537 105.701 199.668 105.859 199.828 105.983C200.215 106.237 200.638 106.431 201.083 106.558C200.992 106.705 200.901 106.856 200.807 107.003C200.493 107.487 200.201 107.967 199.915 108.453C199.815 108.623 199.724 108.792 199.63 108.959C199.63 108.761 199.63 108.397 199.63 108.365C199.564 107.866 199.143 106.941 198.588 106.84C198.495 106.826 198.401 106.831 198.31 106.855C198.22 106.879 198.136 106.923 198.063 106.982C197.99 107.041 197.931 107.115 197.889 107.199C197.847 107.283 197.823 107.374 197.819 107.468C197.828 107.671 197.88 107.869 197.973 108.049C198.065 108.23 198.196 108.388 198.356 108.513C198.732 108.761 199.143 108.949 199.577 109.072C199.426 109.354 199.282 109.64 199.153 109.925C199.1 110.051 199.037 110.173 198.993 110.295C198.949 110.418 198.902 110.54 198.855 110.66C198.767 110.911 198.685 111.146 198.613 111.381C198.572 111.501 198.541 111.614 198.503 111.73C198.535 111.529 198.579 111.206 198.579 111.177C198.579 110.672 198.312 109.693 197.778 109.511C197.689 109.483 197.595 109.474 197.502 109.484C197.409 109.495 197.319 109.525 197.239 109.573C197.158 109.62 197.088 109.684 197.034 109.761C196.98 109.837 196.943 109.924 196.925 110.016C196.912 110.064 196.906 110.114 196.906 110.164C196.656 110.529 196.505 110.953 196.467 111.394C196.467 111.428 196.489 111.811 196.507 112.006C196.457 111.852 196.407 111.692 196.36 111.538C196.288 111.306 196.219 111.061 196.15 110.823C196.121 110.697 196.09 110.572 196.059 110.443C196.027 110.314 196.008 110.189 195.98 110.06C195.946 109.872 195.917 109.674 195.892 109.476C196.323 109.385 196.737 109.227 197.119 109.009C197.287 108.896 197.429 108.748 197.534 108.575C197.639 108.402 197.705 108.209 197.728 108.008C197.731 107.914 197.713 107.821 197.677 107.734C197.642 107.647 197.588 107.569 197.52 107.505C197.452 107.44 197.371 107.391 197.282 107.359C197.194 107.328 197.1 107.316 197.006 107.324C196.445 107.386 195.961 108.281 195.861 108.777C195.861 108.792 195.861 108.899 195.836 109.024C195.814 108.83 195.795 108.638 195.779 108.444C195.738 107.885 195.713 107.317 195.688 106.746L195.669 106.391C196.11 106.298 196.533 106.137 196.925 105.914C197.093 105.802 197.235 105.654 197.34 105.481C197.445 105.308 197.511 105.114 197.534 104.913C197.536 104.82 197.519 104.727 197.483 104.64C197.447 104.554 197.393 104.476 197.325 104.411C197.257 104.347 197.176 104.298 197.088 104.267C196.999 104.236 196.905 104.224 196.812 104.232C196.25 104.292 195.767 105.174 195.666 105.682C195.666 105.698 195.666 105.827 195.638 105.968C195.619 105.654 195.597 105.34 195.563 105.045C195.512 104.522 195.426 104.003 195.305 103.492C195.762 103.396 196.201 103.232 196.608 103.005C196.776 102.892 196.917 102.745 197.022 102.572C197.127 102.399 197.194 102.205 197.217 102.004C197.219 101.91 197.202 101.817 197.166 101.73C197.13 101.644 197.076 101.566 197.008 101.501C196.94 101.437 196.859 101.387 196.771 101.356C196.682 101.325 196.588 101.312 196.495 101.32C195.933 101.383 195.45 102.277 195.349 102.773C195.349 102.808 195.302 103.266 195.293 103.432C195.293 103.432 195.293 103.432 195.293 103.413C195.164 102.913 194.988 102.425 194.769 101.957C194.577 101.538 194.36 101.13 194.119 100.736C193.903 100.369 193.68 100.046 193.491 99.7603C193.382 99.6065 193.281 99.4684 193.178 99.3398C193.178 99.3398 193.03 98.6713 193.014 98.6305C192.842 98.1566 192.233 97.3438 191.668 97.3752C191.574 97.3797 191.481 97.4041 191.397 97.4468C191.313 97.4896 191.239 97.5497 191.179 97.6233C191.12 97.6968 191.077 97.7821 191.053 97.8735C191.029 97.9649 191.025 98.0603 191.04 98.1535C191.096 98.3546 191.196 98.5408 191.333 98.6983C191.469 98.8558 191.64 98.9806 191.831 99.0636Z" fill="#263238"/>
<path d="M207.579 113.405H0.980469V113.719H207.579V113.405Z" fill="#263238"/>
<path d="M107.525 16.9948H44.7403C44.7109 16.9948 44.682 16.9866 44.6571 16.9711C44.6321 16.9555 44.612 16.9333 44.5991 16.9069C44.5865 16.8801 44.5817 16.8504 44.585 16.8211C44.5883 16.7917 44.5997 16.7639 44.6179 16.7406L45.8983 15.1401C46.7111 14.1264 47.979 14.5124 49.0962 14.8702C49.8682 15.1087 50.5963 15.3378 51.0765 15.0961C51.6664 14.8011 52.1309 14.0385 52.6676 13.1567C53.2419 12.2152 53.8946 11.1419 54.8895 10.3134C55.9784 9.40329 57.9493 10.4578 59.8542 11.4777C61.5081 12.3627 63.2216 13.2791 64.2195 12.8523C65.161 12.4537 65.4309 11.8323 65.7573 11.1137C66.1872 10.1722 66.6737 9.10516 68.7104 8.36453C70.3266 7.77453 71.9554 8.49006 73.3896 9.12399C75.1878 9.91483 76.7444 10.599 77.9212 8.7474C78.4823 7.80853 78.9581 6.82126 79.3429 5.79742C80.4569 3.07654 81.5114 0.503158 86.0462 0.0261404C92.0089 -0.601514 99.2897 10.2726 99.9331 11.2549C100.834 11.445 101.77 11.3985 102.648 11.1199C103.605 10.8751 104.509 10.646 106.006 11.5813C108.635 13.2257 107.685 16.8441 107.675 16.8818C107.666 16.9144 107.646 16.943 107.619 16.9634C107.592 16.9838 107.558 16.9948 107.525 16.9948ZM45.0729 16.6809H107.399C107.531 16.0721 108.027 13.2069 105.83 11.848C104.446 10.985 103.683 11.1764 102.714 11.4243C101.767 11.7199 100.76 11.7621 99.7918 11.5467C99.7516 11.5374 99.7166 11.5126 99.6946 11.4777C99.6192 11.3616 91.9932 -0.284549 86.0682 0.336829C81.7217 0.795016 80.7017 3.28366 79.6222 5.91667C79.2317 6.95846 78.7475 7.96265 78.1754 8.91686C76.8542 10.9944 75.1062 10.2255 73.2546 9.40957C71.8047 8.78192 70.3078 8.11347 68.8077 8.65952C66.8933 9.35308 66.4571 10.3134 66.0335 11.2423C65.6945 11.9892 65.3744 12.6922 64.3325 13.1253C63.1965 13.6149 61.5081 12.7048 59.6973 11.7413C57.8865 10.7779 56.0098 9.76733 55.0809 10.5393C54.152 11.3114 53.4898 12.3847 52.928 13.3073C52.3663 14.23 51.8799 15.0302 51.2083 15.366C50.6151 15.661 49.8274 15.4162 48.9926 15.1557C47.9194 14.8231 46.8115 14.4747 46.1337 15.3221L45.0729 16.6809Z" fill="#263238"/>
<path d="M158.762 10.4768H127.398C127.369 10.4767 127.34 10.4683 127.315 10.4526C127.29 10.4369 127.27 10.4145 127.258 10.388C127.245 10.3615 127.24 10.3319 127.243 10.3027C127.246 10.2734 127.258 10.2457 127.276 10.2226L127.904 9.42235C128.343 8.87315 129.033 9.08969 129.586 9.2623C129.956 9.37841 130.304 9.48511 130.527 9.37841C130.8 9.24347 131.029 8.87001 131.29 8.43693C131.582 7.89311 131.964 7.40283 132.42 6.98705C133.003 6.50062 133.967 7.01529 134.987 7.56135C135.796 7.99443 136.634 8.44321 137.099 8.24236C137.273 8.16487 137.428 8.05071 137.553 7.90771C137.679 7.76472 137.772 7.59625 137.827 7.41385C137.951 7.07533 138.153 6.7709 138.417 6.52545C138.681 6.28001 138.999 6.10051 139.346 6.00163C140.184 5.68781 141.012 6.06126 141.743 6.38136C142.741 6.82072 143.382 7.04981 143.909 6.22445C144.187 5.76792 144.424 5.28804 144.618 4.79026C145.183 3.40942 145.72 2.1039 148.029 1.85912C151.011 1.54529 154.601 6.83641 155.021 7.47662C155.451 7.56245 155.895 7.53652 156.311 7.4013C156.599 7.29736 156.908 7.26504 157.21 7.30714C157.513 7.34925 157.801 7.4645 158.05 7.64295C159.415 8.49342 158.925 10.3576 158.919 10.3764C158.907 10.4077 158.885 10.4343 158.857 10.4524C158.829 10.4705 158.796 10.479 158.762 10.4768ZM127.725 10.163H158.634C158.709 9.77383 158.863 8.50911 157.877 7.89401C157.665 7.73889 157.417 7.63903 157.156 7.60343C156.895 7.56782 156.63 7.59758 156.383 7.69002C155.899 7.8441 155.382 7.86577 154.886 7.75279C154.847 7.74457 154.812 7.72087 154.789 7.68688C154.752 7.62726 151.158 2.1447 148.284 2.1447C148.208 2.14001 148.133 2.14001 148.058 2.1447C145.933 2.36751 145.456 3.53181 144.901 4.88127C144.705 5.40576 144.461 5.91107 144.172 6.39078C143.476 7.48603 142.531 7.07178 141.615 6.67008C140.905 6.35626 140.174 6.04243 139.452 6.29663C139.145 6.38381 138.863 6.54324 138.63 6.76162C138.397 6.97999 138.219 7.25098 138.112 7.55194C138.043 7.7727 137.928 7.9763 137.774 8.14937C137.621 8.32244 137.432 8.46108 137.221 8.55618C136.619 8.81352 135.756 8.3522 134.839 7.86263C133.923 7.37306 133.044 6.90232 132.62 7.2538C132.195 7.6466 131.836 8.10674 131.56 8.61581C131.274 9.08655 131.026 9.49453 130.668 9.67341C130.311 9.85229 129.937 9.70793 129.504 9.57298C128.877 9.37841 128.447 9.25916 128.161 9.62947L127.725 10.163Z" fill="#263238"/>
<path d="M177.147 27.3226H144.788C144.758 27.3232 144.729 27.3148 144.704 27.2986C144.679 27.2824 144.659 27.2591 144.647 27.2316C144.634 27.205 144.628 27.1752 144.632 27.1457C144.635 27.1161 144.647 27.0882 144.666 27.0653L145.325 26.2399C145.777 25.6782 146.455 25.8884 147.054 26.0767C147.437 26.196 147.798 26.309 148.021 26.1991C148.303 26.0579 148.538 25.6719 148.808 25.2263C149.11 24.6699 149.502 24.1681 149.97 23.7419C150.572 23.2397 151.564 23.7732 152.615 24.335C153.45 24.7806 154.319 25.2451 154.796 25.038C154.976 24.9576 155.137 24.8395 155.267 24.6917C155.398 24.5439 155.495 24.3698 155.553 24.1812C155.68 23.8316 155.889 23.5173 156.162 23.2641C156.435 23.011 156.764 22.8262 157.122 22.7251C157.985 22.4112 158.838 22.7878 159.591 23.1173C160.627 23.5724 161.289 23.8078 161.832 22.9542C162.118 22.4733 162.36 21.9682 162.557 21.4446C163.141 20.0199 163.693 18.6736 166.075 18.4225C169.148 18.093 172.857 23.5661 173.293 24.2189C173.738 24.3061 174.198 24.2802 174.63 24.1436C174.926 24.0351 175.243 24.0009 175.555 24.0442C175.867 24.0874 176.164 24.2067 176.419 24.3915C177.822 25.2671 177.316 27.1877 177.313 27.2159C177.302 27.2501 177.279 27.2793 177.249 27.2987C177.219 27.3182 177.183 27.3266 177.147 27.3226ZM145.115 27.0088H177.021C177.097 26.6102 177.26 25.2953 176.24 24.6551C176.02 24.4948 175.763 24.392 175.493 24.3558C175.223 24.3197 174.948 24.3513 174.693 24.448C174.194 24.6037 173.662 24.6253 173.152 24.5107C173.132 24.5066 173.113 24.4984 173.096 24.4865C173.079 24.4746 173.065 24.4593 173.055 24.4417C173.014 24.3821 169.1 18.4194 166.103 18.7363C163.907 18.9654 163.414 20.1705 162.843 21.5608C162.639 22.1053 162.387 22.6305 162.09 23.1299C161.374 24.2565 160.401 23.8297 159.46 23.4155C158.725 23.1017 157.966 22.7596 157.225 23.0295C156.908 23.1187 156.617 23.2822 156.376 23.5065C156.134 23.7309 155.95 24.0095 155.838 24.3193C155.764 24.5431 155.645 24.7491 155.487 24.9241C155.329 25.0992 155.137 25.2395 154.922 25.3361C154.294 25.6029 153.409 25.1258 152.464 24.6206C151.52 24.1153 150.61 23.6257 150.17 23.9929C149.73 24.3974 149.361 24.8726 149.078 25.3989C148.764 25.8853 148.526 26.3058 148.159 26.4878C147.792 26.6699 147.406 26.5255 146.963 26.3874C146.313 26.1834 145.865 26.0736 145.57 26.447L145.115 27.0088Z" fill="#263238"/>
<path d="M55.1128 48.1669C60.4886 75.4133 43.6047 64.0654 29.4072 64.0654C15.2097 64.0654 -2.77891 73.3044 3.71104 48.1669C7.4142 33.7999 15.2191 24.8213 29.4166 24.8213C43.6142 24.8213 52.8469 36.6745 55.1128 48.1669Z" fill="#00FEBE"/>
<path opacity="0.3" d="M55.1128 48.1669C60.4886 75.4133 43.6047 64.0654 29.4072 64.0654C15.2097 64.0654 -2.77891 73.3044 3.71104 48.1669C7.4142 33.7999 15.2191 24.8213 29.4166 24.8213C43.6142 24.8213 52.8469 36.6745 55.1128 48.1669Z" fill="white"/>
<path d="M21.3046 61.5931L28.2308 66.8748L27.5215 113.563H31.7048L30.9014 58.2101L40.8027 47.3203L30.779 55.8846L30.415 39.666L29.3229 50.7818L26.7463 48.9114L21.1226 40.9433L24.7379 48.1864L13.1074 43.4947L24.9607 50.1918L28.8615 52.897L28.4128 64.6906L21.3046 61.5931Z" fill="#A1A1A1"/>
<path d="M25.2106 35.1211C25.2106 35.1211 24.8309 36.8754 25.6186 38.3315C26.1124 39.2306 26.7411 40.0488 27.4827 40.7574C27.4827 40.7574 28.2673 37.9863 25.2106 35.1211Z" fill="white"/>
<path d="M10.4922 50.6274C10.4922 50.6274 11.8479 51.8074 13.5018 51.8231C14.5278 51.8245 15.5481 51.6689 16.5271 51.3617C16.5271 51.3617 14.4778 49.3533 10.4922 50.6274Z" fill="white"/>
<path d="M8.41797 57.9027C8.41797 57.9027 10.0624 58.6308 11.6472 58.1507C12.6277 57.8486 13.556 57.3977 14.3995 56.8138C14.3995 56.8138 11.8701 55.4894 8.41797 57.9027Z" fill="white"/>
<path d="M18.2441 58.6617C18.2441 58.6617 20.0424 58.6366 21.2851 57.5445C22.0504 56.8615 22.7056 56.0644 23.2277 55.1814C23.2277 55.1814 20.3436 55.0402 18.2441 58.6617Z" fill="white"/>
<path d="M14.1035 36.9355C14.1035 36.9355 14.5115 38.6867 15.8453 39.6658C16.6763 40.2675 17.5951 40.7375 18.5693 41.0592C18.5693 41.0592 18.0923 38.2191 14.1035 36.9355Z" fill="white"/>
<path d="M43.3882 35.6396C43.3882 35.6396 41.6088 35.8907 40.5135 37.1335C39.8422 37.9087 39.293 38.7818 38.8848 39.7225C38.8848 39.7225 41.7563 39.4997 43.3882 35.6396Z" fill="white"/>
<path d="M49.5473 44.8812C49.5473 44.8812 47.793 44.5014 46.3368 45.2923C45.4378 45.7861 44.6206 46.416 43.9141 47.1596C43.9141 47.1596 46.6852 47.9378 49.5473 44.8812Z" fill="white"/>
<path d="M48.9463 55.3794C48.9463 55.3794 47.691 54.1052 46.0309 53.9734C45.0077 53.8964 43.9788 53.9779 42.9805 54.2151C42.9805 54.2151 44.8791 56.3805 48.9463 55.3794Z" fill="white"/>
<path d="M42.0687 61.0093C42.0687 61.0093 41.3375 59.368 39.8437 58.6587C38.9145 58.223 37.9237 57.933 36.9062 57.7988C36.9062 57.7988 37.9168 60.4977 42.0687 61.0093Z" fill="white"/>
<path d="M38.4495 43.9775C38.4495 43.9775 36.6732 44.2286 35.578 45.4714C34.9067 46.2466 34.3574 47.1197 33.9492 48.0604C33.9492 48.0604 36.8207 47.8376 38.4495 43.9775Z" fill="white"/>
<path d="M9.3125 41.6621C9.3125 41.6621 10.1033 43.2752 11.6254 43.9279C12.5701 44.3262 13.5703 44.577 14.5911 44.6717C14.5911 44.6717 13.4864 42.0136 9.3125 41.6621Z" fill="white"/>
<path d="M34.6707 33.1631C34.6707 33.1631 33.2302 34.2395 32.8693 35.8526C32.6502 36.8547 32.5867 37.8846 32.681 38.9061C32.681 38.9061 35.0944 37.3338 34.6707 33.1631Z" fill="white"/>
<path d="M29.2399 28.082C29.2399 28.082 28.4208 29.6825 28.81 31.2925C29.0551 32.2892 29.4531 33.242 29.9899 34.1169C29.9899 34.1169 31.4587 31.6377 29.2399 28.082Z" fill="white"/>
<path d="M17.4844 29.793C17.4844 29.793 17.4844 31.5881 18.5639 32.8465C19.2364 33.6204 20.0239 34.2862 20.8988 34.8205C20.8988 34.8205 21.0777 31.9458 17.4844 29.793Z" fill="white"/>
<path d="M172.464 55.2571C177.256 79.5505 162.193 69.439 149.545 69.439C136.898 69.439 120.846 77.6769 126.636 55.2634C129.937 42.4561 136.898 34.4473 149.545 34.4473C162.193 34.4473 170.443 45.0107 172.464 55.2571Z" fill="#00FEBE"/>
<path opacity="0.3" d="M172.464 55.2571C177.256 79.5505 162.193 69.439 149.545 69.439C136.898 69.439 120.846 77.6769 126.636 55.2634C129.937 42.4561 136.898 34.4473 149.545 34.4473C162.193 34.4473 170.443 45.0107 172.464 55.2571Z" fill="white"/>
<path d="M142.322 67.226L148.495 71.9366L147.861 113.563H151.592L150.874 64.2101L159.702 54.5003L150.767 62.1358L150.444 47.6777L149.468 57.5884L147.171 55.922L142.159 48.8169L145.382 55.2755L135.01 51.089L145.579 57.0612L149.057 59.4714L148.655 69.9877L142.322 67.226Z" fill="#A1A1A1"/>
<path d="M145.802 43.623C145.802 43.623 145.463 45.1922 146.166 46.4883C146.607 47.29 147.168 48.0193 147.83 48.6506C147.83 48.6506 148.526 46.1807 145.802 43.623Z" fill="white"/>
<path d="M132.693 57.4507C132.693 57.4507 133.902 58.502 135.377 58.5145C136.291 58.5168 137.2 58.3781 138.072 58.1034C138.072 58.1034 136.233 56.2989 132.693 57.4507Z" fill="white"/>
<path d="M130.842 63.9372C130.842 63.9372 132.307 64.5836 133.72 64.16C134.594 63.8902 135.422 63.4869 136.174 62.9643C136.174 62.9643 133.895 61.7843 130.842 63.9372Z" fill="white"/>
<path d="M139.598 64.612C139.598 64.612 141.201 64.5932 142.309 63.6172C142.991 63.0085 143.576 62.2982 144.041 61.5114C144.041 61.5114 141.481 61.3859 139.598 64.612Z" fill="white"/>
<path d="M135.9 45.2422C135.9 45.2422 136.264 46.8113 137.454 47.6775C138.193 48.2177 139.012 48.6411 139.88 48.9328C139.88 48.9328 139.456 46.3877 135.9 45.2422Z" fill="white"/>
<path d="M162.008 44.0879C162.008 44.0879 160.439 44.3107 159.447 45.4217C158.847 46.1113 158.357 46.8893 157.994 47.7283C157.994 47.7283 160.555 47.5274 162.008 44.0879Z" fill="white"/>
<path d="M167.503 52.3253C167.503 52.3253 165.934 51.9895 164.638 52.6925C163.837 53.1338 163.108 53.6958 162.479 54.3589C162.479 54.3589 164.948 55.0524 167.503 52.3253Z" fill="white"/>
<path d="M166.963 61.687C166.963 61.687 165.836 60.5509 164.364 60.4317C163.452 60.3654 162.536 60.4395 161.646 60.6514C161.646 60.6514 163.338 62.5814 166.963 61.687Z" fill="white"/>
<path d="M160.835 66.7078C160.835 66.7078 160.185 65.2454 158.852 64.6083C158.024 64.221 157.141 63.9638 156.234 63.8457C156.234 63.8457 157.126 66.2496 160.835 66.7078Z" fill="white"/>
<path d="M157.606 51.5225C157.606 51.5225 156.037 51.7453 155.046 52.8562C154.447 53.5464 153.958 54.3244 153.596 55.1629C153.596 55.1629 156.153 54.962 157.606 51.5225Z" fill="white"/>
<path d="M131.627 49.457C131.627 49.457 132.333 50.8944 133.689 51.4781C134.532 51.8322 135.424 52.0555 136.334 52.1403C136.334 52.1403 135.349 49.7709 131.627 49.457Z" fill="white"/>
<path d="M154.238 41.8818C154.238 41.8818 152.955 42.839 152.628 44.2795C152.434 45.1725 152.378 46.0902 152.462 47.0004C152.462 47.0004 154.612 45.5881 154.238 41.8818Z" fill="white"/>
<path d="M149.396 37.3496C149.396 37.3496 148.668 38.7775 149.013 40.2117C149.233 41.0973 149.588 41.9439 150.064 42.7223C150.064 42.7223 151.373 40.5193 149.396 37.3496Z" fill="white"/>
<path d="M138.918 38.875C138.918 38.875 138.918 40.4755 139.878 41.5959C140.477 42.286 141.179 42.8798 141.959 43.3565C141.959 43.3565 142.11 40.7956 138.918 38.875Z" fill="white"/>
<path d="M200.076 65.5065C204.027 85.5287 191.602 77.1903 181.187 77.1903C170.771 77.1903 157.533 83.9815 162.297 65.5065C165.018 54.9494 170.755 48.3496 181.187 48.3496C191.618 48.3496 198.412 57.0614 200.076 65.5065Z" fill="#00FEBE"/>
<path opacity="0.3" d="M200.076 65.5065C204.027 85.5287 191.602 77.1903 181.187 77.1903C170.771 77.1903 157.533 83.9815 162.297 65.5065C165.018 54.9494 170.755 48.3496 181.187 48.3496C191.618 48.3496 198.412 57.0614 200.076 65.5065Z" fill="white"/>
<path d="M175.233 75.3726L180.32 79.2547L179.799 113.562H182.871L182.281 72.8871L189.559 64.8845L182.193 71.1768L181.926 59.2607L181.123 67.4265L179.231 66.0551L175.098 60.1959L177.753 65.5216L169.207 62.0726L177.919 66.9934L180.784 68.98L180.455 77.6479L175.233 75.3726Z" fill="#A1A1A1"/>
<path d="M178.101 55.9189C177.953 56.719 178.063 57.5454 178.415 58.2789C178.779 58.9395 179.241 59.5406 179.786 60.0615C179.786 60.0615 180.348 58.0247 178.101 55.9189Z" fill="white"/>
<path d="M167.287 67.3139C167.909 67.8304 168.677 68.1379 169.484 68.1926C170.238 68.1938 170.987 68.0795 171.706 67.8536C171.706 67.8536 170.215 66.3661 167.287 67.3139Z" fill="white"/>
<path d="M165.771 72.6616C166.523 72.9712 167.354 73.0349 168.144 72.8436C168.864 72.6221 169.546 72.2908 170.165 71.8613C170.165 71.8613 168.288 70.8853 165.771 72.6616Z" fill="white"/>
<path d="M172.984 73.2043C173.797 73.1743 174.579 72.8876 175.219 72.3853C175.781 71.8831 176.262 71.2978 176.647 70.6498C176.647 70.6498 174.535 70.5588 172.984 73.2043Z" fill="white"/>
<path d="M169.941 57.2529C170.145 58.0401 170.593 58.7423 171.222 59.2583C171.831 59.7015 172.506 60.0477 173.221 60.2845C173.221 60.2845 172.863 58.1975 169.941 57.2529Z" fill="white"/>
<path d="M191.458 56.3018C190.657 56.4362 189.919 56.8207 189.349 57.4002C188.855 57.9692 188.451 58.6106 188.15 59.3019C188.15 59.3019 190.262 59.1356 191.458 56.3018Z" fill="white"/>
<path d="M195.987 63.0899C195.187 62.9428 194.361 63.0527 193.627 63.4037C192.967 63.7669 192.367 64.2295 191.848 64.7752C191.848 64.7752 193.891 65.34 195.987 63.0899Z" fill="white"/>
<path d="M195.544 70.8073C194.957 70.244 194.207 69.8814 193.401 69.7716C192.649 69.7163 191.893 69.7777 191.16 69.9537C191.16 69.9537 192.557 71.5416 195.544 70.8073Z" fill="white"/>
<path d="M190.491 74.9434C190.147 74.2077 189.579 73.5993 188.869 73.2048C188.186 72.8874 187.459 72.6758 186.713 72.5771C186.713 72.5771 187.435 74.57 190.491 74.9434Z" fill="white"/>
<path d="M187.831 62.4277C187.03 62.5622 186.292 62.9467 185.722 63.5261C185.228 64.0952 184.824 64.7366 184.523 65.4279C184.523 65.4279 186.635 65.2647 187.831 62.4277Z" fill="white"/>
<path d="M166.418 60.7266C166.796 61.4461 167.391 62.0282 168.119 62.3899C168.818 62.6864 169.559 62.8717 170.316 62.939C170.316 62.939 169.487 60.9839 166.418 60.7266Z" fill="white"/>
<path d="M185.054 54.4814C184.415 54.9846 183.952 55.6765 183.73 56.4586C183.569 57.195 183.522 57.9518 183.592 58.7024C183.592 58.7024 185.365 57.5444 185.054 54.4814Z" fill="white"/>
<path d="M181.064 50.7471C180.714 51.4813 180.604 52.307 180.75 53.1071C180.932 53.839 181.225 54.5387 181.62 55.1814C181.62 55.1814 182.693 53.3581 181.064 50.7471Z" fill="white"/>
<path d="M172.428 52.002C172.448 52.8146 172.725 53.6 173.219 54.2458C173.712 54.8161 174.291 55.3063 174.935 55.6988C174.935 55.6988 175.061 53.5868 172.428 52.002Z" fill="white"/>
<path d="M109.097 31.3368C114.47 58.5864 97.5891 47.2353 83.3916 47.2353C69.1941 47.2353 51.2055 56.4775 57.6892 31.3368C61.3923 16.9729 69.1972 7.99121 83.3947 7.99121C97.5923 7.99121 106.831 19.8539 109.097 31.3368Z" fill="#00FEBE"/>
<path opacity="0.3" d="M109.097 31.3368C114.47 58.5864 97.5891 47.2353 83.3916 47.2353C69.1941 47.2353 51.2055 56.4775 57.6892 31.3368C61.3923 16.9729 69.1972 7.99121 83.3947 7.99121C97.5923 7.99121 106.831 19.8539 109.097 31.3368Z" fill="white"/>
<path d="M75.2882 44.7619L82.2112 50.0467L81.502 113.562H85.6853L84.8819 41.3819L94.7831 30.4921L84.7626 39.0533L84.3986 22.8379L83.3065 33.9536L80.73 32.0832L75.1062 24.112L78.7215 31.3583L67.0879 26.6634L78.9443 33.3637L82.8452 36.0657L82.3932 47.8593L75.2882 44.7619Z" fill="#A1A1A1"/>
<path d="M79.197 18.2852C79.197 18.2852 78.8172 20.0426 79.6049 21.4987C80.0983 22.3972 80.727 23.2144 81.4691 23.9215C81.4691 23.9215 82.2505 21.1567 79.197 18.2852Z" fill="white"/>
<path d="M64.4766 33.8007C64.4766 33.8007 65.8292 34.9807 67.4862 34.9933C68.5124 34.9965 69.5329 34.8409 70.5115 34.532C70.5115 34.532 68.4622 32.5078 64.4766 33.8007Z" fill="white"/>
<path d="M62.416 41.0744C62.416 41.0744 64.0605 41.7993 65.6453 41.3223C66.6248 41.0189 67.552 40.5669 68.3944 39.9823C68.3944 39.9823 65.8493 38.6579 62.416 41.0744Z" fill="white"/>
<path d="M72.2285 41.8216C72.2285 41.8216 74.0236 41.7996 75.2664 40.7043C76.0316 40.0216 76.6878 39.2258 77.2121 38.3444C77.2121 38.3444 74.3374 38.2126 72.2285 41.8216Z" fill="white"/>
<path d="M68.0898 20.1084C68.0898 20.1084 68.4978 21.8564 69.8316 22.8356C70.6611 23.4385 71.5789 23.9096 72.5525 24.2321C72.5525 24.2321 72.0754 21.392 68.0898 20.1084Z" fill="white"/>
<path d="M97.3694 18.8086C97.3694 18.8086 95.5932 19.0628 94.4979 20.3056C93.826 21.0803 93.2767 21.9535 92.8691 22.8946C92.8691 22.8946 95.7407 22.6781 97.3694 18.8086Z" fill="white"/>
<path d="M103.534 28.0509C103.534 28.0509 101.776 27.6743 100.32 28.462C99.4229 28.9574 98.6069 29.5871 97.9004 30.3293C97.9004 30.3293 100.684 31.1107 103.534 28.0509Z" fill="white"/>
<path d="M102.931 38.5482C102.931 38.5482 101.675 37.274 100.012 37.1422C98.9898 37.0669 97.962 37.1495 96.9648 37.387C96.9648 37.387 98.8635 39.5524 102.931 38.5482Z" fill="white"/>
<path d="M96.0519 44.1821C96.0519 44.1821 95.3238 42.5408 93.83 41.8284C92.9008 41.3933 91.91 41.1043 90.8926 40.9717C90.8926 40.9717 91.8968 43.6706 96.0519 44.1821Z" fill="white"/>
<path d="M92.4339 27.1475C92.4339 27.1475 90.6545 27.4017 89.5624 28.6444C88.889 29.4182 88.3396 30.2915 87.9336 31.2335C87.9336 31.2335 90.8051 31.0075 92.4339 27.1475Z" fill="white"/>
<path d="M63.2969 24.834C63.2969 24.834 64.0877 26.4439 65.6098 27.0998C66.5543 27.4984 67.5546 27.7493 68.5754 27.8436C68.5754 27.8436 67.4708 25.1886 63.2969 24.834Z" fill="white"/>
<path d="M88.6555 16.3359C88.6555 16.3359 87.215 17.4092 86.851 19.0254C86.6337 20.0279 86.5713 21.0576 86.6658 22.079C86.6658 22.079 89.0729 20.5036 88.6555 16.3359Z" fill="white"/>
<path d="M83.2262 11.2549C83.2262 11.2549 82.4071 12.8523 82.7963 14.4622C83.0421 15.4587 83.4401 16.4114 83.9763 17.2866C83.9763 17.2866 85.4418 14.8074 83.2262 11.2549Z" fill="white"/>
<path d="M71.4707 12.9492C71.4707 12.9492 71.4707 14.7443 72.5503 16.0028C73.2221 16.7781 74.0097 17.445 74.8851 17.9799C74.8851 17.9799 75.064 15.1178 71.4707 12.9492Z" fill="white"/>
<path d="M172.321 102.297V82.1836H71.9492V102.297H113.55C113.585 108.479 117.878 113.475 123.169 113.475H128.366C132.424 113.475 135.898 110.535 137.307 106.373H159.997V103.646H137.919C137.966 103.207 137.991 102.758 137.994 102.303L172.321 102.297Z" fill="#263238"/>
<path d="M128.376 113.632H123.179C117.869 113.632 113.513 108.633 113.403 102.453H71.793V82.0264H172.478V102.453H138.152C138.152 102.795 138.123 103.141 138.092 103.483H160.164V106.53H137.43C135.92 110.864 132.38 113.632 128.376 113.632ZM72.1068 102.14H113.714V102.296C113.749 108.375 117.995 113.318 123.176 113.318H128.373C132.271 113.318 135.723 110.572 137.16 106.323L137.195 106.216H159.84V103.797H137.744L137.763 103.624C137.81 103.181 137.835 102.736 137.838 102.296V102.14H172.164V82.3402H72.1068V102.14Z" fill="#263238"/>
<path d="M58.5209 102.218C58.5209 96.001 54.2121 90.9609 48.899 90.9609H43.702C38.3889 90.9609 34.0801 96.001 34.0801 102.218C34.0801 108.435 38.3889 113.475 43.702 113.475H48.9021C52.9599 113.475 56.434 110.534 57.8431 106.373H80.5328V103.646H58.4425C58.4944 103.172 58.5206 102.695 58.5209 102.218Z" fill="#263238"/>
<path d="M48.9028 113.632H43.7027C38.3111 113.632 33.9238 108.513 33.9238 102.218C33.9238 95.9222 38.3174 90.8037 43.7027 90.8037H48.9028C54.2943 90.8037 58.6817 95.9222 58.6817 102.218C58.6817 102.626 58.6597 103.049 58.6189 103.473H80.6903V106.52H57.9536C56.4346 110.864 52.901 113.632 48.9028 113.632ZM43.7058 91.1175C38.4869 91.1175 34.2408 96.098 34.2408 102.218C34.2408 108.337 38.4869 113.318 43.7058 113.318H48.9028C52.8005 113.318 56.2526 110.572 57.69 106.322L57.7276 106.216H80.3702V103.796H58.2674L58.2862 103.624C58.3381 103.157 58.3643 102.687 58.3647 102.218C58.3647 96.098 54.1186 91.1175 48.8997 91.1175H43.7058Z" fill="#263238"/>
<path d="M95.5896 102.218C95.5896 98.2417 93.8259 94.7488 91.1646 92.7435V90.9609H85.9676C80.6545 90.9609 76.3457 96.001 76.3457 102.218C76.3457 108.435 80.6545 113.475 85.9676 113.475H91.1646V111.692C93.8259 109.687 95.5896 106.194 95.5896 102.218Z" fill="#263238"/>
<path d="M91.3222 113.632H85.9683C80.5767 113.632 76.1895 108.513 76.1895 102.218C76.1895 95.9222 80.583 90.8037 85.9683 90.8037H91.3222V92.6616C94.0933 94.7799 95.7472 98.345 95.7472 102.211C95.7472 106.078 94.0933 109.643 91.3222 111.761V113.632ZM85.9683 91.1175C80.7494 91.1175 76.519 96.1137 76.519 102.218C76.519 108.322 80.7651 113.318 85.984 113.318H91.0241V111.614L91.0837 111.567C93.8171 109.511 95.449 106.015 95.449 102.218C95.449 98.4203 93.8171 94.9243 91.0837 92.8687L91.0241 92.8216V91.1175H85.9683Z" fill="#263238"/>
<path d="M91.1649 113.475C96.479 113.475 100.787 108.435 100.787 102.218C100.787 96.0009 96.479 90.9609 91.1649 90.9609C85.8509 90.9609 81.543 96.0009 81.543 102.218C81.543 108.435 85.8509 113.475 91.1649 113.475Z" fill="white"/>
<path d="M91.1656 113.632C85.7709 113.632 81.3867 108.513 81.3867 102.218C81.3867 95.9222 85.7803 90.8037 91.1656 90.8037C96.5508 90.8037 100.944 95.9222 100.944 102.218C100.944 108.513 96.5571 113.632 91.1656 113.632ZM91.1656 91.1175C85.9435 91.1175 81.7005 96.098 81.7005 102.218C81.7005 108.337 85.9435 113.318 91.1656 113.318C96.3877 113.318 100.631 108.34 100.631 102.218C100.631 96.0948 96.3845 91.1175 91.1656 91.1175Z" fill="#263238"/>
<path d="M91.166 109.766C94.7277 109.766 97.6151 106.387 97.6151 102.218C97.6151 98.0501 94.7277 94.6709 91.166 94.6709C87.6042 94.6709 84.7168 98.0501 84.7168 102.218C84.7168 106.387 87.6042 109.766 91.166 109.766Z" fill="#263238"/>
<path d="M91.1658 109.923C87.5223 109.923 84.5566 106.47 84.5566 102.218C84.5566 97.9658 87.5223 94.5137 91.1658 94.5137C94.8094 94.5137 97.7719 97.9658 97.7719 102.218C97.7719 106.47 94.8062 109.923 91.1658 109.923ZM91.1658 94.8275C87.6949 94.8275 84.8705 98.1447 84.8705 102.218C84.8705 106.292 87.6949 109.609 91.1658 109.609C94.6368 109.609 97.4581 106.292 97.4581 102.218C97.4581 98.1447 94.6336 94.8275 91.1658 94.8275Z" fill="#263238"/>
<path d="M91.1656 108.796C94.2698 108.796 96.7862 105.851 96.7862 102.218C96.7862 98.5856 94.2698 95.6406 91.1656 95.6406C88.0614 95.6406 85.5449 98.5856 85.5449 102.218C85.5449 105.851 88.0614 108.796 91.1656 108.796Z" fill="#BABABA"/>
<path d="M91.1655 108.953C87.977 108.953 85.3848 105.93 85.3848 102.218C85.3848 98.5053 87.977 95.4863 91.1655 95.4863C94.3539 95.4863 96.943 98.5085 96.943 102.221C96.943 105.934 94.3508 108.953 91.1655 108.953ZM91.1655 95.797C88.1527 95.797 85.6986 98.678 85.6986 102.218C85.6986 105.758 88.1527 108.639 91.1655 108.639C94.1782 108.639 96.6292 105.758 96.6292 102.218C96.6292 98.678 94.1782 95.8002 91.1655 95.8002V95.797Z" fill="#263238"/>
<path d="M163.038 102.218C163.038 98.2417 161.275 94.7488 158.613 92.7435V90.9609H153.407C148.091 90.9609 143.785 96.001 143.785 102.218C143.785 108.435 148.091 113.475 153.407 113.475H158.604V111.692C161.275 109.687 163.038 106.194 163.038 102.218Z" fill="#263238"/>
<path d="M158.771 113.632H153.408C148.016 113.632 143.629 108.513 143.629 102.218C143.629 95.9222 148.022 90.8037 153.408 90.8037H158.762V92.6616C161.533 94.7799 163.187 98.345 163.187 102.211C163.187 106.078 161.533 109.643 158.762 111.761L158.771 113.632ZM153.408 91.1175C148.189 91.1175 143.943 96.098 143.943 102.218C143.943 108.337 148.198 113.318 153.408 113.318H158.448V111.614L158.507 111.567C161.241 109.511 162.873 106.015 162.873 102.218C162.873 98.4203 161.241 94.9243 158.507 92.8687L158.448 92.8216V91.1175H153.408Z" fill="#263238"/>
<path d="M158.612 113.475C163.926 113.475 168.234 108.435 168.234 102.218C168.234 96.0009 163.926 90.9609 158.612 90.9609C153.298 90.9609 148.99 96.0009 148.99 102.218C148.99 108.435 153.298 113.475 158.612 113.475Z" fill="white"/>
<path d="M158.612 113.632C153.217 113.632 148.83 108.513 148.83 102.218C148.83 95.9222 153.224 90.8037 158.612 90.8037C164 90.8037 168.391 95.9222 168.391 102.218C168.391 108.513 164.004 113.632 158.612 113.632ZM158.612 91.1175C153.39 91.1175 149.144 96.098 149.144 102.218C149.144 108.337 153.39 113.318 158.612 113.318C163.834 113.318 168.077 108.34 168.077 102.218C168.077 96.0948 163.831 91.1175 158.612 91.1175Z" fill="#263238"/>
<path d="M158.613 109.766C162.175 109.766 165.062 106.387 165.062 102.218C165.062 98.0501 162.175 94.6709 158.613 94.6709C155.051 94.6709 152.164 98.0501 152.164 102.218C152.164 106.387 155.051 109.766 158.613 109.766Z" fill="#263238"/>
<path d="M158.613 109.923C154.97 109.923 152.004 106.47 152.004 102.218C152.004 97.9658 154.976 94.5137 158.613 94.5137C162.25 94.5137 165.203 97.9658 165.203 102.218C165.203 106.47 162.253 109.923 158.613 109.923ZM158.613 94.8275C155.142 94.8275 152.318 98.1447 152.318 102.218C152.318 106.292 155.142 109.609 158.613 109.609C162.084 109.609 164.89 106.292 164.89 102.218C164.89 98.1447 162.081 94.8275 158.613 94.8275Z" fill="#263238"/>
<path d="M158.613 108.796C161.717 108.796 164.233 105.851 164.233 102.218C164.233 98.5856 161.717 95.6406 158.613 95.6406C155.509 95.6406 152.992 98.5856 152.992 102.218C152.992 105.851 155.509 108.796 158.613 108.796Z" fill="#BABABA"/>
<path d="M158.613 108.953C155.424 108.953 152.832 105.93 152.832 102.218C152.832 98.5053 155.424 95.4863 158.613 95.4863C161.801 95.4863 164.39 98.5053 164.39 102.218C164.39 105.93 161.798 108.953 158.613 108.953ZM158.613 95.797C155.597 95.797 153.146 98.678 153.146 102.218C153.146 105.758 155.597 108.639 158.613 108.639C161.629 108.639 164.076 105.758 164.076 102.218C164.076 98.678 161.625 95.8002 158.613 95.8002V95.797Z" fill="#263238"/>
<path d="M77.1471 98.6L79.03 91.2659C79.3388 90.0706 80.0359 89.0118 81.0118 88.2557C81.9877 87.4997 83.1871 87.0892 84.4216 87.0888H94.759C95.8824 87.0887 96.9794 87.4286 97.9059 88.0638C98.8324 88.699 99.5449 89.5998 99.9497 90.6476L104.45 102.275H130.833V74.5357L127.243 69.4925H45.2842C44.1238 69.4834 42.9692 69.6581 41.8635 70.0103C40.7055 70.3869 39.4282 71.0366 38.6562 72.1381C36.9772 74.5451 36.9772 75.7471 36.9772 75.7471C36.9772 75.7471 27.1481 76.4689 24.7379 77.9125C22.3278 79.3561 24.0161 80.5581 25.2181 83.6838C26.4201 86.8095 26.9002 88.0146 26.9002 90.18C26.9002 92.3454 25.4598 98.6 25.4598 98.6H77.1471Z" fill="#00FEBE"/>
<path d="M130.986 102.432H104.339L99.8042 90.704C99.4058 89.6898 98.7121 88.8186 97.8129 88.2031C96.9138 87.5876 95.8506 87.2563 94.761 87.2519H84.4235C83.224 87.2515 82.0585 87.65 81.1103 88.3846C80.1621 89.1192 79.4851 90.1482 79.1857 91.3097L77.2651 98.7631H25.264L25.3079 98.5716C25.3079 98.5089 26.7452 92.2951 26.7452 90.1862C26.7452 88.0773 26.2808 86.8816 25.151 83.9473L25.0725 83.7465C24.7944 83.0486 24.4801 82.3656 24.131 81.7003C23.2931 80.0339 22.7376 78.9323 24.652 77.7837C26.9367 76.4123 35.5889 75.7031 36.8222 75.6058C36.8724 75.2135 37.136 74.0366 38.52 72.0533C39.1916 71.0961 40.2963 70.3617 41.8058 69.8565C42.9279 69.5 44.0993 69.3231 45.2767 69.3324H127.321L130.986 74.4823V102.432ZM104.556 102.118H130.672V74.5858L127.157 69.6493H45.283C44.1388 69.6412 43.0004 69.8128 41.9093 70.1577C40.4689 70.6316 39.4144 71.3283 38.7711 72.229C37.1486 74.5482 37.1172 75.7345 37.1172 75.747V75.8914H36.9728C36.8756 75.8914 27.1563 76.6257 24.8089 78.0348C23.1456 79.0328 23.5536 79.8173 24.4072 81.5403C24.7561 82.2152 25.0704 82.9076 25.3487 83.6147L25.424 83.8155C26.5695 86.7906 27.0402 88.0208 27.0402 90.1674C27.0402 92.1382 25.8853 97.3446 25.6374 98.4304H77.0234L78.8813 91.2124C79.1986 89.9837 79.9151 88.8953 80.9183 88.1182C81.9215 87.341 83.1545 86.9193 84.4235 86.9193H94.761C95.9147 86.9234 97.0405 87.2747 97.992 87.9273C98.9435 88.5799 99.6766 89.5036 100.096 90.5785L104.556 102.118Z" fill="#263238"/>
<path d="M130.83 74.5352V102.306H142.206L143.107 98.5994L144.99 91.2653C145.298 90.0703 145.995 89.0116 146.97 88.2555C147.945 87.4994 149.144 87.0888 150.378 87.0882H160.735C161.858 87.089 162.954 87.4293 163.881 88.0644C164.807 88.6994 165.52 89.5997 165.925 90.647L170.171 102.306H182.376C183.195 102.305 183.98 101.979 184.559 101.4C185.138 100.821 185.463 100.036 185.464 99.2177L183.183 77.2843C183.183 76.5593 182.895 75.8641 182.382 75.3515C181.87 74.8388 181.174 74.5509 180.449 74.5509L130.83 74.5352Z" fill="#00FEBE"/>
<path d="M182.367 102.462H170.04L165.757 90.7001C165.358 89.6861 164.664 88.8151 163.765 88.1997C162.866 87.5843 161.803 87.2528 160.713 87.248H150.357C149.158 87.2478 147.993 87.6464 147.045 88.381C146.098 89.1156 145.421 90.1445 145.122 91.3058L143.239 98.6399L142.298 102.465H130.674V74.3779H180.45C181.216 74.3788 181.951 74.6835 182.493 75.2254C183.035 75.7673 183.339 76.502 183.34 77.2683L185.612 99.1985C185.614 99.6259 185.531 100.049 185.368 100.445C185.206 100.84 184.967 101.199 184.666 101.502C184.365 101.806 184.006 102.046 183.612 102.211C183.218 102.376 182.795 102.461 182.367 102.462ZM170.273 102.148H182.367C183.145 102.148 183.89 101.839 184.439 101.289C184.989 100.74 185.298 99.9945 185.299 99.2174L183.026 77.284C183.028 76.9445 182.962 76.6082 182.833 76.2941C182.704 75.9801 182.515 75.6945 182.276 75.4538C182.036 75.213 181.752 75.0218 181.439 74.8911C181.125 74.7603 180.789 74.6926 180.45 74.6918H130.988V102.148H142.085L142.957 98.5614L144.84 91.2242C145.156 89.9955 145.872 88.9068 146.875 88.1296C147.878 87.3523 149.11 86.9307 150.379 86.931H160.735C161.889 86.9356 163.015 87.287 163.966 87.9396C164.917 88.5921 165.651 89.5157 166.07 90.5902L170.273 102.148Z" fill="#263238"/>
<path d="M62.3 85.2966H61.5091H33.7511L33.7072 85.2118C33.7072 85.2118 33.2396 84.2986 32.7657 83.1029C32.2291 81.7597 33.3526 80.0745 33.7229 79.519C34.2031 78.8003 36.7513 75.7845 36.8612 75.6589L37.0997 75.8598C37.0714 75.8912 34.4541 78.9981 33.9834 79.6948C33.635 80.2157 32.5806 81.7974 33.0576 82.9868C33.4467 83.9565 33.8233 84.7348 33.9489 84.9827H61.5154H61.983C61.9316 84.6685 61.8254 84.3658 61.6692 84.0883C61.5307 83.8375 61.405 83.5798 61.2926 83.3163C61.0698 82.7954 60.8533 82.3372 60.665 81.9355C59.8082 80.1278 59.3783 79.2177 61.029 77.7992C61.7916 77.1402 63.5396 76.5816 66.2699 76.1422C68.5863 75.772 70.9288 75.5894 73.2745 75.5962H92.2579L90.5664 70.1262L90.8802 70.0352L92.6942 75.91H73.2651C70.9363 75.9043 68.6107 76.0848 66.3107 76.4498C63.6902 76.8766 61.9328 77.4258 61.2236 78.0377C59.7549 79.2931 60.1032 80.0337 60.938 81.8037C61.1294 82.2085 61.3491 82.6698 61.5656 83.1971C61.6733 83.4515 61.7948 83.6997 61.9297 83.9408C62.1431 84.3087 62.2678 84.7214 62.2937 85.1459L62.3 85.2966Z" fill="#263238"/>
<path d="M65.8739 87.0314C67.0577 87.0314 68.0173 85.4718 68.0173 83.5479C68.0173 81.6241 67.0577 80.0645 65.8739 80.0645C64.6901 80.0645 63.7305 81.6241 63.7305 83.5479C63.7305 85.4718 64.6901 87.0314 65.8739 87.0314Z" fill="white"/>
<path d="M65.8746 87.189C64.6193 87.189 63.5742 85.5571 63.5742 83.5486C63.5742 81.5401 64.6067 79.9082 65.8746 79.9082C67.1424 79.9082 68.1749 81.5401 68.1749 83.5486C68.1749 85.5571 67.1424 87.189 65.8746 87.189ZM65.8746 80.222C64.7793 80.222 63.888 81.7127 63.888 83.5486C63.888 85.3845 64.7793 86.8752 65.8746 86.8752C66.9698 86.8752 67.8611 85.3813 67.8611 83.5486C67.8611 81.7158 66.9698 80.222 65.8746 80.222Z" fill="#263238"/>
<path d="M67.4555 88.6044C67.1707 88.6116 66.8904 88.5317 66.6521 88.3753L66.8342 88.118C67.0391 88.2284 67.2682 88.2862 67.501 88.2862C67.7338 88.2862 67.963 88.2284 68.1679 88.118C68.7516 87.8355 69.1094 87.2393 69.1345 86.4421C69.2255 84.5027 67.0821 79.7608 66.4764 79.4156C65.8707 79.0703 62.7387 79.1645 62.2303 79.6729C61.9353 79.9679 62.858 81.8697 63.8622 83.4577L63.5986 83.6271C63.0714 82.7986 61.4018 80.0589 62.0106 79.4501C62.6195 78.8413 65.8864 78.7157 66.6333 79.1362C67.3802 79.5568 69.5393 84.5027 69.4577 86.4484C69.3981 87.7037 68.7171 88.1996 68.3154 88.3941C68.0486 88.5288 67.7544 88.6008 67.4555 88.6044Z" fill="#263238"/>
<path d="M28.6005 87.0314C29.7843 87.0314 30.7439 85.4718 30.7439 83.5479C30.7439 81.6241 29.7843 80.0645 28.6005 80.0645C27.4167 80.0645 26.457 81.6241 26.457 83.5479C26.457 85.4718 27.4167 87.0314 28.6005 87.0314Z" fill="white"/>
<path d="M28.6011 87.189C27.3458 87.189 26.3008 85.5571 26.3008 83.5486C26.3008 81.5401 27.3333 79.9082 28.6011 79.9082C29.869 79.9082 30.9015 81.5401 30.9015 83.5486C30.9015 85.5571 29.869 87.189 28.6011 87.189ZM28.6011 80.222C27.5059 80.222 26.6146 81.7127 26.6146 83.5486C26.6146 85.3845 27.5059 86.8752 28.6011 86.8752C29.6964 86.8752 30.5877 85.3813 30.5877 83.5486C30.5877 81.7158 29.6964 80.222 28.6011 80.222Z" fill="#263238"/>
<path d="M30.1821 88.6044C29.8972 88.6116 29.6169 88.5317 29.3787 88.3753L29.5607 88.118C29.7659 88.2276 29.995 88.2849 30.2276 88.2849C30.4602 88.2849 30.6893 88.2276 30.8945 88.118C31.4782 87.8355 31.836 87.2393 31.8611 86.4421C31.9521 84.5027 29.8086 79.7608 29.203 79.4156C28.5973 79.0703 25.4653 79.1676 24.9569 79.6729C24.6619 79.9679 25.5845 81.8697 26.5888 83.4577L26.3252 83.6271C25.7979 82.7986 24.1284 80.0589 24.7372 79.4501C25.346 78.8413 28.613 78.7157 29.3599 79.1362C30.1068 79.5568 32.2659 84.5027 32.1843 86.4484C32.1247 87.7037 31.4437 88.1996 31.042 88.3941C30.7751 88.5288 30.481 88.6008 30.1821 88.6044Z" fill="#263238"/>
<path d="M39.5468 95.7939H45.0733L43.796 87.4932H38.2695L39.5468 95.7939Z" fill="#263238"/>
<path d="M45.2588 95.9511H39.4122L38.0879 87.3271H43.9314L45.2588 95.9511ZM39.6821 95.6373H44.8917L43.6615 87.641H38.4551L39.6821 95.6373Z" fill="#263238"/>
<path d="M50.2765 87.4932H44.75L46.0273 95.7939H51.5538L50.2765 87.4932Z" fill="#263238"/>
<path d="M51.7279 95.9511H45.8939L44.5664 87.3271H50.413L51.7279 95.9511ZM46.1544 95.6373H51.3608L50.1588 87.641H44.9493L46.1544 95.6373Z" fill="#263238"/>
<path d="M37.3194 87.4932H35.6091C35.1921 87.4938 34.7872 87.6328 34.4578 87.8884C34.1284 88.144 33.8931 88.5017 33.7889 88.9054L32.6277 93.4496C32.5576 93.727 32.5516 94.0167 32.6103 94.2967C32.6689 94.5768 32.7905 94.8397 32.966 95.0657C33.1414 95.2917 33.3661 95.4747 33.6229 95.6009C33.8796 95.7271 34.1618 95.7931 34.4479 95.7939H38.5967L37.3194 87.4932Z" fill="#263238"/>
<path d="M38.7778 95.9505H34.447C34.1368 95.9505 33.8306 95.8797 33.5519 95.7433C33.2733 95.607 33.0294 95.4088 32.839 95.1639C32.6486 94.919 32.5166 94.6338 32.4532 94.3301C32.3897 94.0264 32.3965 93.7123 32.473 93.4116L33.6373 88.8674C33.7489 88.4294 34.0033 88.0411 34.3602 87.7638C34.7171 87.4864 35.1562 87.3359 35.6082 87.3359H37.4535L38.7778 95.9505ZM35.6082 87.6404C35.2258 87.6404 34.8544 87.7679 34.5527 88.0026C34.2509 88.2373 34.0359 88.5659 33.9417 88.9365L32.7774 93.4807C32.7123 93.735 32.7062 94.0008 32.7597 94.2578C32.8132 94.5148 32.9247 94.7561 33.0859 94.9633C33.2471 95.1705 33.4535 95.3381 33.6894 95.4532C33.9254 95.5683 34.1845 95.6278 34.447 95.6273H38.4106L37.1836 87.6404H35.6082Z" fill="#263238"/>
<path d="M56.755 87.4932H51.2285L52.5058 95.7939H58.0323L56.755 87.4932Z" fill="#263238"/>
<path d="M58.2127 95.9511H52.3693L51.0449 87.3271H56.8884L58.2127 95.9511ZM52.6392 95.6373H57.8487L56.6185 87.641H51.4121L52.6392 95.6373Z" fill="#263238"/>
<path d="M64.2786 93.3115L62.7283 88.7642C62.601 88.394 62.3616 88.0726 62.0432 87.8448C61.7249 87.617 61.3435 87.4941 60.952 87.4932H57.707L58.9843 95.8002H62.496C62.7953 95.8001 63.0902 95.7287 63.3564 95.592C63.6225 95.4552 63.8522 95.2569 64.0265 95.0137C64.2007 94.7704 64.3145 94.4891 64.3583 94.1931C64.4022 93.8971 64.3748 93.5949 64.2786 93.3115Z" fill="#263238"/>
<path d="M62.4976 95.9511H58.8509L57.5234 87.3271H60.9504C61.3747 87.3274 61.7883 87.4604 62.1333 87.7074C62.4783 87.9545 62.7373 88.3032 62.8742 88.7049L64.4245 93.2491C64.5295 93.5555 64.5597 93.8826 64.5127 94.203C64.4658 94.5235 64.3429 94.8282 64.1544 95.0916C63.9659 95.355 63.7172 95.5696 63.429 95.7174C63.1408 95.8653 62.8215 95.9422 62.4976 95.9417V95.9511ZM59.1208 95.6373H62.4976C62.7712 95.6375 63.041 95.5724 63.2844 95.4474C63.5278 95.3224 63.7379 95.1411 63.8972 94.9186C64.0564 94.6961 64.1603 94.4388 64.2002 94.1681C64.2401 93.8973 64.2147 93.621 64.1264 93.362L62.5792 88.8178C62.4633 88.4777 62.244 88.1823 61.952 87.973C61.6599 87.7636 61.3098 87.6508 60.9504 87.6504H57.8906L59.1208 95.6373Z" fill="#263238"/>
<path d="M78.2482 99.0827C78.1007 97.9216 76.858 97.0084 76.2083 96.6035H25.2554C24.6089 97.0084 23.3724 97.9216 23.2155 99.0827C23.0147 100.652 23.6235 102.011 24.838 102.685H76.6195C77.8434 102.011 78.4522 100.658 78.2482 99.0827Z" fill="#BABABA"/>
<path d="M76.6691 102.842H24.7966L24.759 102.823C23.4848 102.114 22.8509 100.708 23.0612 99.0575C23.2149 97.8524 24.4514 96.9172 25.1732 96.4685L25.2109 96.4434H76.2549L76.2925 96.4685C77.0143 96.9172 78.2508 97.8524 78.4046 99.0575C78.6148 100.705 77.9809 102.111 76.7068 102.823L76.6691 102.842ZM24.8876 102.528H76.5875C77.7236 101.879 78.2853 100.602 78.0939 99.1015C77.9589 98.0439 76.8386 97.1903 76.1638 96.7603H25.3019C24.6209 97.1903 23.5068 98.0439 23.3719 99.1015C23.1679 100.602 23.7422 101.879 24.8782 102.528H24.8876Z" fill="#263238"/>
<path d="M129.166 75.4453H96.8887V75.7591H129.166V75.4453Z" fill="#263238"/>
<path d="M127.239 69.4918L122.905 53.54C122.485 51.9917 121.689 50.571 120.589 49.4037C119.316 48.0564 117.593 47.2233 115.747 47.0626L111.701 46.7174C95.8845 46.1337 82.3993 46.8492 73.0598 48.1484C72.8451 48.2284 72.6407 48.3337 72.451 48.4623C70.8657 49.4139 69.6491 50.8739 68.9989 52.6048L62.6094 69.3474L127.239 69.4918Z" fill="#00FEBE"/>
<path d="M127.443 69.649H127.239L62.3711 69.4858L68.8391 52.5391C69.5051 50.7755 70.7469 49.2883 72.3634 48.3182C72.5676 48.1857 72.788 48.0802 73.0192 48.0043C83.4979 46.5293 97.231 46.0272 111.698 46.5607L115.747 46.9091C117.634 47.0695 119.396 47.9197 120.696 49.2973C121.814 50.4837 122.623 51.9267 123.053 53.4994L127.443 69.649ZM62.8261 69.1751L127.032 69.3352L122.755 53.581C122.342 52.0538 121.558 50.6523 120.473 49.5013C119.226 48.1787 117.536 47.362 115.725 47.2072L111.667 46.8746C97.231 46.341 83.5105 46.8494 73.0663 48.3025C72.875 48.3783 72.6911 48.4718 72.5171 48.5818C70.9594 49.5203 69.7649 50.9581 69.1278 52.6615L62.8261 69.1751Z" fill="#263238"/>
<path d="M65.0903 65.5407L70.5571 51.5503C71.0028 50.4142 71.9756 49.6861 73.0489 49.6861L77.9509 49.3723C81.0956 49.161 84.2503 49.1442 87.3971 49.3221L94.0942 49.6987C96.0744 49.6987 97.8601 51.136 98.5348 53.3014L101.789 63.5824C102.036 64.3467 102.079 65.1622 101.914 65.9482C101.749 66.7342 101.381 67.4635 100.848 68.0639C100.496 68.459 100.052 68.7618 99.5558 68.9456C99.0596 69.1294 98.5258 69.1887 98.0013 69.1183C94.3954 68.588 85.5141 67.408 78.7417 67.6339C74.8443 67.7668 70.9584 68.1336 67.105 68.7323C65.6049 68.9583 64.4563 67.1632 65.0903 65.5407Z" fill="#263238"/>
<path d="M98.4679 69.3006C98.3093 69.2999 98.151 69.2884 97.994 69.2661C94.4729 68.7451 85.5476 67.5557 78.7627 67.7817C74.8738 67.9156 70.9964 68.2813 67.1511 68.8769C66.807 68.9276 66.4557 68.8843 66.1342 68.7518C65.8127 68.6192 65.5329 68.4022 65.3246 68.1237C65.0361 67.7554 64.8497 67.3175 64.7841 66.8542C64.7185 66.3909 64.7761 65.9184 64.9511 65.4845L70.4306 51.4972C70.8982 50.3046 71.9338 49.5326 73.0667 49.5326L77.9593 49.2188C81.1103 49.0091 84.2712 48.9923 87.4243 49.1686L94.1182 49.5452C96.1518 49.5452 97.994 51.039 98.697 53.2578L101.939 63.5262C102.2 64.3137 102.251 65.156 102.086 65.9693C101.921 66.7825 101.545 67.5383 100.997 68.1614C100.677 68.5159 100.287 68.8002 99.8521 68.9963C99.4167 69.1923 98.9454 69.296 98.4679 69.3006ZM80.5358 67.4396C87.0477 67.4396 94.8118 68.4784 98.0411 68.9554C98.5409 69.0213 99.0493 68.964 99.5219 68.7884C99.9945 68.6128 100.417 68.3243 100.753 67.948C101.268 67.3681 101.621 66.6633 101.779 65.904C101.936 65.1446 101.892 64.3572 101.65 63.6203L98.3957 53.3394C97.7335 51.2493 96.0106 49.8465 94.1057 49.8465L87.3992 49.4699C84.2629 49.2941 81.1187 49.3109 77.9844 49.5201L73.0855 49.8339C72.5602 49.8557 72.0537 50.0362 71.633 50.3517C71.2123 50.6671 70.897 51.1026 70.7287 51.6008L65.2493 65.5849C65.0962 65.9676 65.0446 66.3835 65.0996 66.792C65.1546 67.2006 65.3143 67.588 65.5631 67.9166C65.7386 68.1498 65.9739 68.3313 66.244 68.4417C66.5141 68.5522 66.8091 68.5877 67.0977 68.5443C70.9576 67.947 74.8497 67.5802 78.7533 67.4459C79.3433 67.449 79.9301 67.4396 80.5358 67.4396Z" fill="#263238"/>
<path d="M98.5466 53.2919C97.9943 51.5471 96.7327 50.2729 95.2232 49.8398L70.707 68.227C73.0074 67.9571 75.7502 67.7186 78.7598 67.6182C81.9723 67.552 85.1859 67.6694 88.3849 67.9696L100.31 58.8687L98.5466 53.2919Z" fill="white"/>
<path d="M70.1484 68.4568L95.1918 49.668L95.2672 49.6899C96.852 50.1387 98.1324 51.4662 98.6941 53.2393L100.492 58.9133L100.404 58.9792L88.4446 68.1367H88.3849C85.1912 67.8345 81.9828 67.7171 78.7755 67.7852C76.13 67.8731 73.4405 68.0771 70.7384 68.394L70.1484 68.4568ZM95.2546 50.0195L71.2657 68.0112C73.7763 67.735 76.2869 67.5498 78.7536 67.4682C81.9524 67.3988 85.1525 67.5151 88.3379 67.8166L100.125 58.8035L98.396 53.3397C97.8751 51.6953 96.7045 50.4588 95.2546 50.0195Z" fill="#263238"/>
<path d="M66.9512 60.7961L82.1184 49.2002C80.7313 49.2169 79.3463 49.2713 77.9634 49.3634L74.1378 49.6176L70.08 52.8061L66.9512 60.7961Z" fill="white"/>
<path d="M66.5996 61.279L69.9513 52.721L74.0781 49.4791L77.9539 49.2218C79.3033 49.1308 80.7061 49.0774 82.1152 49.0586H82.5891L66.5996 61.279ZM70.2118 52.8998L67.2994 60.3375L81.6445 49.3536C80.3892 49.3787 79.1684 49.4289 77.9727 49.5105L74.2068 49.7616L70.2118 52.8998Z" fill="#263238"/>
<path d="M117.775 49.9375H105.96C105.388 49.9377 104.824 50.0712 104.312 50.3272C103.801 50.5832 103.356 50.9548 103.013 51.4125C102.662 51.8795 102.427 52.4234 102.328 52.9992C102.23 53.575 102.269 54.1661 102.445 54.7234L105.96 65.9866C106.22 66.8137 106.737 67.5364 107.435 68.0499C108.134 68.5634 108.978 68.841 109.845 68.8424H122.734C122.998 68.8421 123.259 68.7804 123.496 68.662C123.732 68.5437 123.938 68.372 124.097 68.1605C124.256 67.949 124.363 67.7035 124.411 67.4433C124.459 67.1832 124.445 66.9155 124.372 66.6613L120.022 51.6353C119.882 51.1471 119.587 50.7176 119.182 50.4114C118.777 50.1052 118.283 49.9389 117.775 49.9375Z" fill="#263238"/>
<path d="M122.733 68.9896H109.844C108.943 68.9927 108.065 68.7061 107.339 68.1722C106.613 67.6382 106.077 66.8852 105.812 66.024L102.294 54.7701C102.114 54.1949 102.072 53.5856 102.172 52.9913C102.271 52.397 102.509 51.8343 102.865 51.3487C103.222 50.8631 103.688 50.4681 104.225 50.1957C104.763 49.9232 105.357 49.7809 105.959 49.7803H117.775C118.315 49.7826 118.84 49.9591 119.272 50.2836C119.704 50.6082 120.02 51.0634 120.172 51.5816L124.535 66.614C124.614 66.8913 124.629 67.1833 124.576 67.467C124.524 67.7507 124.406 68.0184 124.233 68.249C124.059 68.4796 123.835 68.6668 123.577 68.7959C123.319 68.9249 123.034 68.9923 122.746 68.9928L122.733 68.9896ZM105.959 50.0941C105.404 50.094 104.857 50.2246 104.362 50.4754C103.868 50.7262 103.439 51.0901 103.111 51.5376C102.783 51.9851 102.565 52.5036 102.475 53.051C102.385 53.5985 102.425 54.1595 102.592 54.6885L106.11 65.9424C106.356 66.7398 106.852 67.4371 107.524 67.9315C108.197 68.4258 109.01 68.6912 109.844 68.6883H122.733C122.973 68.688 123.21 68.632 123.425 68.5245C123.64 68.4171 123.827 68.2612 123.971 68.0692C124.115 67.8772 124.213 67.6543 124.256 67.4181C124.3 67.1819 124.287 66.9388 124.221 66.7081L119.868 51.6821C119.734 51.2307 119.457 50.8345 119.081 50.5519C118.704 50.2694 118.246 50.1155 117.775 50.1129L105.959 50.0941Z" fill="#263238"/>
<path d="M121.293 56.0195L106.766 67.424C107.148 67.8656 107.621 68.2199 108.152 68.463C108.683 68.7061 109.26 68.8323 109.844 68.8331H112.069L122.652 60.7395L121.293 56.0195Z" fill="white"/>
<path d="M112.122 68.9902H109.844C109.237 68.9898 108.637 68.859 108.086 68.6067C107.534 68.3544 107.043 67.9864 106.646 67.5277L106.539 67.4022L121.377 55.7529L122.839 60.7993L112.122 68.9902ZM106.994 67.443C107.359 67.8326 107.801 68.143 108.291 68.3551C108.781 68.5673 109.31 68.6766 109.844 68.6763H112.018L122.478 60.68L121.204 56.2864L106.994 67.443Z" fill="#263238"/>
<path d="M185.031 93.8165H182.652C182.652 93.8165 182.731 100.576 180.77 102.274H185.264C185.264 102.274 186.707 101.982 187.429 100.225V100.209C187.707 99.4871 187.744 98.6946 187.536 97.9496L186.547 94.1837C186.548 94.1343 186.54 94.0853 186.522 94.0393C186.504 93.9933 186.477 93.9513 186.443 93.9157C186.409 93.8801 186.368 93.8516 186.323 93.8319C186.278 93.8122 186.229 93.8016 186.18 93.8008L185.031 93.8165Z" fill="#BABABA"/>
<path d="M180.762 102.432H180.342L180.656 102.155C182.539 100.524 182.488 93.883 182.488 93.8171V93.6602H186.176C186.314 93.6618 186.446 93.7171 186.544 93.8143C186.641 93.9116 186.697 94.0432 186.7 94.1811L187.685 97.9094C187.901 98.6881 187.86 99.5155 187.569 100.269C186.819 102.099 185.344 102.416 185.281 102.428L180.762 102.432ZM181.136 102.118H185.237C185.391 102.08 186.628 101.747 187.277 100.166C187.547 99.4713 187.584 98.7084 187.384 97.991L186.389 94.2251V94.1999C186.391 94.1716 186.386 94.1432 186.376 94.1168C186.365 94.0903 186.35 94.0662 186.33 94.0462C186.31 94.0258 186.287 94.0094 186.261 93.9981C186.235 93.9868 186.207 93.9807 186.179 93.9803H182.808C182.808 94.9782 182.727 100.219 181.136 102.118Z" fill="#263238"/>
<path d="M129.126 99.8268H104.562V99.6762C104.562 99.5161 103.756 83.4105 103.163 79.8517C102.588 76.3996 100.699 75.9728 100.677 75.9697L100.567 75.9477V75.8316L99.9961 69.9787H100.172C100.2 69.9787 103.116 69.963 104.06 68.8333C105.005 67.7035 104.829 66.9723 104.829 66.966C104.66 66.5015 100.567 55.1724 100.567 52.9662C100.567 50.6941 102.764 49.4701 102.852 49.4199L103.003 49.6961C102.981 49.6961 100.881 50.8824 100.881 52.9662C100.881 55.119 105.086 66.7589 105.13 66.875C105.13 66.9252 105.341 67.7851 104.299 69.0341C103.392 70.12 101.01 70.2706 100.344 70.2894L100.869 75.6935C101.32 75.841 102.946 76.5817 103.483 79.7984C104.048 83.1909 104.798 97.8654 104.882 99.513H128.831V77.6549L127.23 74.2436C127.23 74.2154 126.627 71.2843 125.68 70.5279L125.877 70.2831C126.882 71.0834 127.475 73.8796 127.534 74.162L129.144 77.6141L129.126 99.8268Z" fill="#263238"/>
<path d="M126.763 74.2117H121.151C120.992 74.2117 120.839 74.1487 120.726 74.0364C120.614 73.924 120.55 73.7716 120.549 73.6123C120.549 73.4525 120.612 73.2992 120.725 73.1862C120.838 73.0732 120.992 73.0098 121.151 73.0098H126.763C126.921 73.0114 127.073 73.0756 127.185 73.1884C127.296 73.3013 127.359 73.4536 127.359 73.6123C127.358 73.7705 127.295 73.922 127.184 74.0342C127.072 74.1463 126.921 74.2101 126.763 74.2117Z" fill="white"/>
<path d="M126.763 74.3689H121.152C121.048 74.3756 120.944 74.3609 120.847 74.3259C120.749 74.2908 120.659 74.2361 120.584 74.165C120.508 74.094 120.448 74.0082 120.406 73.9129C120.365 73.8176 120.344 73.7149 120.344 73.611C120.344 73.5072 120.365 73.4044 120.406 73.3092C120.448 73.2139 120.508 73.1281 120.584 73.057C120.659 72.986 120.749 72.9313 120.847 72.8962C120.944 72.8611 121.048 72.8465 121.152 72.8531H126.763C126.867 72.8465 126.971 72.8611 127.068 72.8962C127.166 72.9313 127.256 72.986 127.332 73.057C127.407 73.1281 127.468 73.2139 127.509 73.3092C127.55 73.4044 127.571 73.5072 127.571 73.611C127.571 73.7149 127.55 73.8176 127.509 73.9129C127.468 74.0082 127.407 74.094 127.332 74.165C127.256 74.2361 127.166 74.2908 127.068 74.3259C126.971 74.3609 126.867 74.3756 126.763 74.3689ZM121.152 73.167C121.091 73.1618 121.029 73.1694 120.97 73.1894C120.912 73.2094 120.858 73.2412 120.813 73.283C120.768 73.3247 120.731 73.3754 120.707 73.4319C120.682 73.4884 120.669 73.5494 120.669 73.611C120.669 73.6727 120.682 73.7337 120.707 73.7902C120.731 73.8466 120.768 73.8973 120.813 73.9391C120.858 73.9808 120.912 74.0127 120.97 74.0326C121.029 74.0526 121.091 74.0603 121.152 74.0551H126.763C126.825 74.0603 126.887 74.0526 126.945 74.0326C127.003 74.0127 127.057 73.9808 127.102 73.9391C127.148 73.8973 127.184 73.8466 127.209 73.7902C127.233 73.7337 127.246 73.6727 127.246 73.611C127.246 73.5494 127.233 73.4884 127.209 73.4319C127.184 73.3754 127.148 73.3247 127.102 73.283C127.057 73.2412 127.003 73.2094 126.945 73.1894C126.887 73.1694 126.825 73.1618 126.763 73.167H121.152Z" fill="#263238"/>
<path d="M101.138 82.8428H85.7607L83.9185 83.4045C83.8604 83.4213 83.8093 83.4566 83.7729 83.505C83.7365 83.5534 83.7168 83.6123 83.7168 83.6729C83.7168 83.7334 83.7365 83.7923 83.7729 83.8407C83.8093 83.8891 83.8604 83.9244 83.9185 83.9412L85.7513 84.437H101.129C101.288 84.4362 101.441 84.3723 101.553 84.2594C101.665 84.1465 101.728 83.9937 101.728 83.8345V83.4422C101.728 83.2848 101.666 83.1338 101.556 83.0216C101.446 82.9095 101.296 82.8452 101.138 82.8428Z" fill="white"/>
<path d="M101.138 84.5932H85.7226L83.8898 84.0973C83.7985 84.0721 83.718 84.0176 83.6607 83.9422C83.6033 83.8668 83.5723 83.7747 83.5723 83.68C83.5723 83.5852 83.6033 83.4931 83.6607 83.4177C83.718 83.3423 83.7985 83.2878 83.8898 83.2626L85.7728 82.6914H101.15C101.25 82.6914 101.348 82.711 101.44 82.749C101.532 82.787 101.615 82.8427 101.685 82.9129C101.755 82.9832 101.811 83.0665 101.849 83.1583C101.887 83.2501 101.907 83.3484 101.907 83.4477V83.84C101.906 83.94 101.885 84.0389 101.846 84.1309C101.807 84.2229 101.75 84.3063 101.679 84.3763C101.607 84.4463 101.523 84.5015 101.43 84.5387C101.337 84.5759 101.238 84.5944 101.138 84.5932ZM85.7853 84.2794H101.138C101.255 84.2785 101.368 84.2312 101.451 84.1477C101.534 84.0643 101.58 83.9514 101.58 83.8337V83.4414C101.58 83.3241 101.534 83.2115 101.451 83.1286C101.368 83.0456 101.255 82.999 101.138 82.999H85.7885L83.9683 83.5544C83.9423 83.561 83.9195 83.5766 83.904 83.5985C83.8885 83.6203 83.8812 83.647 83.8836 83.6737C83.8828 83.7002 83.891 83.7261 83.907 83.7472C83.923 83.7684 83.9457 83.7834 83.9714 83.7898L85.7853 84.2794Z" fill="#263238"/>
<path d="M37.9395 76.6885H51.2489C51.2489 76.6885 50.3325 77.8936 49.799 77.8936H47.6618L46.7046 79.0924C46.5035 79.3437 46.2485 79.5467 45.9585 79.6863C45.6684 79.8259 45.3507 79.8985 45.0288 79.8989H42.7818C42.3652 79.8983 41.9578 79.7762 41.6095 79.5477C41.2611 79.3192 40.9869 78.9941 40.8204 78.6122L40.4469 77.7586H39.7126C39.4075 77.7602 39.1063 77.6897 38.8336 77.5528C38.5609 77.416 38.3244 77.2166 38.1434 76.9709L37.9395 76.6885Z" fill="white"/>
<path d="M45.0266 80.0557H42.7796C42.3323 80.0552 41.895 79.9243 41.521 79.679C41.147 79.4338 40.8526 79.0848 40.6738 78.6749L40.3411 77.9123H39.7135C39.3853 77.9117 39.0618 77.8345 38.7687 77.6869C38.4755 77.5392 38.2209 77.3252 38.0251 77.0618L37.6328 76.5283H51.5699L51.3784 76.7825C51.2812 76.9112 50.3993 78.0378 49.8093 78.0378H47.7475L46.8342 79.1802C46.6187 79.4533 46.3441 79.674 46.031 79.8257C45.7179 79.9773 45.3745 80.056 45.0266 80.0557ZM38.2511 76.8453L38.2762 76.8798C38.4426 77.1034 38.6589 77.285 38.9079 77.4103C39.1569 77.5356 39.4316 77.6011 39.7104 77.6016H40.5483L40.9625 78.5431C41.1165 78.8972 41.3704 79.1986 41.6932 79.4104C42.0159 79.6222 42.3935 79.7353 42.7796 79.7356H45.0266C45.3251 79.7363 45.6198 79.6694 45.8888 79.5401C46.1578 79.4107 46.3941 79.2222 46.58 78.9887L47.5874 77.7334H49.7999C50.0729 77.7334 50.5688 77.2564 50.9234 76.8421L38.2511 76.8453Z" fill="#263238"/>
<path d="M41.4041 77.5986H46.2873C46.2873 77.5986 45.9515 78.8539 45.2768 79.1144C44.602 79.3749 42.2483 79.1144 42.2483 79.1144C41.9725 78.9747 41.7448 78.7558 41.5943 78.4857C41.4439 78.2156 41.3777 77.9067 41.4041 77.5986Z" fill="#263238"/>
<path d="M44.1947 79.3936C43.3129 79.3936 42.3117 79.29 42.2458 79.2837L42.1988 79.268C41.8936 79.1149 41.641 78.8743 41.4733 78.5769C41.3056 78.2795 41.2304 77.9388 41.2573 77.5985V77.4541H46.4888L46.4386 77.6518C46.4386 77.7052 46.0714 78.995 45.3308 79.2743C44.96 79.3698 44.5772 79.41 44.1947 79.3936ZM42.3117 78.973C42.9802 79.0421 44.7251 79.1739 45.2429 78.973C45.654 78.8192 45.9553 78.1633 46.0965 77.7616H41.5586C41.5615 78.0108 41.6312 78.2546 41.7603 78.4676C41.8895 78.6807 42.0734 78.8552 42.2929 78.973H42.3117Z" fill="#263238"/>
<path d="M69.9982 101.136C59.8427 101.914 53.789 99.5664 37.9721 99.5664C29.7499 99.5664 25.645 100.508 23.5957 101.427C23.883 101.959 24.3193 102.395 24.851 102.683H76.6325C77.0716 102.436 77.4465 102.089 77.7267 101.67C78.0069 101.251 78.1847 100.773 78.2456 100.273C76.2684 100.549 73.5884 100.85 69.9982 101.136Z" fill="white"/>
<path d="M76.6699 102.842H24.7974L24.7597 102.823C24.2073 102.516 23.7551 102.056 23.4574 101.499L23.3789 101.348L23.5327 101.282C25.4533 100.426 29.5174 99.3994 37.9687 99.3994C43.896 99.4094 49.8179 99.7541 55.7062 100.432C60.5705 100.931 64.7727 101.373 69.9822 100.962C73.1205 100.721 75.8979 100.435 78.217 100.112L78.4242 100.084L78.3959 100.291C78.3314 100.815 78.1447 101.316 77.8509 101.755C77.5571 102.194 77.1644 102.558 76.7044 102.817L76.6699 102.842ZM24.8884 102.528H76.5883C76.9668 102.309 77.2934 102.011 77.5458 101.654C77.7983 101.297 77.9705 100.89 78.0507 100.46C75.7692 100.774 73.064 101.044 70.0105 101.279C64.7696 101.684 60.558 101.251 55.678 100.749C49.7999 100.074 43.8885 99.7304 37.9719 99.7195C29.8124 99.7195 25.7734 100.661 23.8183 101.499C24.0779 101.927 24.4431 102.282 24.879 102.528H24.8884Z" fill="#263238"/>
<path d="M96.785 102.218C96.785 102.046 96.785 101.876 96.763 101.71C94.9742 101.048 92.6833 100.69 91.1643 102.218C89.8494 103.533 87.7781 104.233 85.9297 104.606C86.7456 107.054 88.7792 108.796 91.1643 108.796C94.2681 108.796 96.785 105.843 96.785 102.218Z" fill="#263238"/>
<path d="M91.1652 108.953C88.7644 108.953 86.6524 107.265 85.783 104.654L85.7266 104.487L85.8992 104.453C88.234 103.979 89.9789 103.197 91.0522 102.108C92.3326 100.828 94.3254 100.64 96.8172 101.562L96.9114 101.597V101.697C96.9114 101.87 96.9333 102.043 96.9333 102.218C96.9427 105.931 94.3505 108.953 91.1652 108.953ZM86.144 104.723C87.0038 107.108 88.9684 108.639 91.1652 108.639C94.1779 108.639 96.6289 105.758 96.6289 102.218C96.6289 102.083 96.6289 101.952 96.6132 101.823C94.9688 101.23 92.7437 100.859 91.2782 102.328C90.1735 103.43 88.4443 104.236 86.1377 104.723H86.144Z" fill="#263238"/>
<path d="M164.205 102.852C161.973 101.408 158.719 101.446 156.698 103.479C155.855 104.352 154.725 104.892 153.516 104.998C154.41 107.245 156.34 108.808 158.612 108.808C161.531 108.796 163.932 106.188 164.205 102.852Z" fill="#263238"/>
<path d="M158.612 108.952C156.372 108.952 154.316 107.418 153.371 105.042L153.293 104.848L153.503 104.829C154.675 104.726 155.771 104.203 156.588 103.357C158.534 101.411 161.845 101.138 164.289 102.729L164.368 102.783V102.874C164.076 106.335 161.603 108.952 158.612 108.952ZM153.742 105.117C154.683 107.264 156.566 108.639 158.612 108.639C161.412 108.639 163.734 106.191 164.038 102.933C161.726 101.483 158.631 101.753 156.82 103.58C155.999 104.428 154.913 104.971 153.742 105.117Z" fill="#263238"/>
</svg>
