<svg xmlns="http://www.w3.org/2000/svg" xmlns:xlink="http://www.w3.org/1999/xlink" width="500" zoomAndPan="magnify" viewBox="0 0 375 374.999991" height="500" preserveAspectRatio="xMidYMid meet" version="1.0"><defs><g/><clipPath id="16748068d9"><path d="M 18.277344 162.953125 L 359.875 162.953125 L 359.875 188.101562 L 18.277344 188.101562 Z M 18.277344 162.953125 " clip-rule="nonzero"/></clipPath></defs><g fill="#ffffff" fill-opacity="1"><g transform="translate(12.022083, 224.078079)"><g><path d="M 83.621094 -15.355469 L 59.363281 -103.238281 L 33.421875 -103.238281 C 34.585938 -99.496094 34.328125 -97.6875 33.421875 -94.074219 L 11.484375 -13.9375 C 10.195312 -9.164062 9.550781 -6.324219 6.453125 0 L 11.484375 0 C 11.871094 -6.066406 13.035156 -9.164062 14.324219 -14.066406 L 20.519531 -36.90625 L 54.585938 -36.90625 L 60.523438 -15.355469 C 62.199219 -9.164062 63.105469 -6.453125 63.363281 0 L 89.6875 0 C 86.847656 -5.160156 85.429688 -8.515625 83.621094 -15.355469 Z M 21.292969 -39.617188 L 37.421875 -98.722656 L 53.8125 -39.617188 Z M 21.292969 -39.617188 "/></g></g></g><g fill="#ffffff" fill-opacity="1"><g transform="translate(101.708859, 224.078079)"><g><path d="M 83.621094 -15.355469 L 59.363281 -103.238281 L 33.421875 -103.238281 C 34.585938 -99.496094 34.328125 -97.6875 33.421875 -94.074219 L 11.484375 -13.9375 C 10.195312 -9.164062 9.550781 -6.324219 6.453125 0 L 11.484375 0 C 11.871094 -6.066406 13.035156 -9.164062 14.324219 -14.066406 L 20.519531 -36.90625 L 54.585938 -36.90625 L 60.523438 -15.355469 C 62.199219 -9.164062 63.105469 -6.453125 63.363281 0 L 89.6875 0 C 86.847656 -5.160156 85.429688 -8.515625 83.621094 -15.355469 Z M 21.292969 -39.617188 L 37.421875 -98.722656 L 53.8125 -39.617188 Z M 21.292969 -39.617188 "/></g></g></g><g fill="#ffffff" fill-opacity="1"><g transform="translate(191.395634, 224.078079)"><g><path d="M 9.292969 -103.238281 C 10.324219 -93.429688 10.710938 -87.625 10.710938 -75.621094 L 10.710938 -27.617188 C 10.710938 -15.613281 10.195312 -9.808594 9.035156 0 L 75.105469 0 L 79.878906 -10.066406 C 62.71875 -3.613281 54.972656 -2.710938 41.554688 -2.710938 L 32.390625 -2.710938 L 32.390625 -75.621094 C 32.390625 -87.625 32.777344 -93.429688 33.808594 -103.238281 Z M 9.292969 -103.238281 "/></g></g></g><g fill="#ffffff" fill-opacity="1"><g transform="translate(269.984475, 224.078079)"><g><path d="M 83.621094 -15.355469 L 59.363281 -103.238281 L 33.421875 -103.238281 C 34.585938 -99.496094 34.328125 -97.6875 33.421875 -94.074219 L 11.484375 -13.9375 C 10.195312 -9.164062 9.550781 -6.324219 6.453125 0 L 11.484375 0 C 11.871094 -6.066406 13.035156 -9.164062 14.324219 -14.066406 L 20.519531 -36.90625 L 54.585938 -36.90625 L 60.523438 -15.355469 C 62.199219 -9.164062 63.105469 -6.453125 63.363281 0 L 89.6875 0 C 86.847656 -5.160156 85.429688 -8.515625 83.621094 -15.355469 Z M 21.292969 -39.617188 L 37.421875 -98.722656 L 53.8125 -39.617188 Z M 21.292969 -39.617188 "/></g></g></g><g clip-path="url(#16748068d9)"><path fill="#181a20" d="M 18.277344 162.953125 L 359.808594 162.953125 L 359.808594 188.105469 L 18.277344 188.105469 Z M 18.277344 162.953125 " fill-opacity="1" fill-rule="nonzero"/></g><g fill="#00febe" fill-opacity="1"><g transform="translate(42.821717, 180.53405)"><g><path d="M 1.390625 -10.53125 L 5.578125 -10.53125 C 6.898438 -10.53125 7.925781 -10.21875 8.65625 -9.59375 C 9.382812 -8.96875 9.75 -8.082031 9.75 -6.9375 C 9.75 -5.738281 9.382812 -4.8125 8.65625 -4.15625 C 7.925781 -3.5 6.898438 -3.171875 5.578125 -3.171875 L 3.15625 -3.171875 L 3.15625 0 L 1.390625 0 Z M 3.15625 -8.9375 L 3.15625 -4.765625 L 5.5 -4.765625 C 7.195312 -4.765625 8.046875 -5.472656 8.046875 -6.890625 C 8.046875 -8.253906 7.195312 -8.9375 5.5 -8.9375 Z M 3.15625 -8.9375 "/></g></g></g><g fill="#00febe" fill-opacity="1"><g transform="translate(64.988306, 180.53405)"><g><path d="M 8.0625 0 L 6.140625 -3.1875 C 6.035156 -3.175781 5.875 -3.171875 5.65625 -3.171875 L 3.15625 -3.171875 L 3.15625 0 L 1.390625 0 L 1.390625 -10.53125 L 5.65625 -10.53125 C 7 -10.53125 8.039062 -10.21875 8.78125 -9.59375 C 9.53125 -8.96875 9.90625 -8.082031 9.90625 -6.9375 C 9.90625 -6.09375 9.710938 -5.378906 9.328125 -4.796875 C 8.953125 -4.210938 8.414062 -3.785156 7.71875 -3.515625 L 10.078125 0 Z M 3.15625 -4.765625 L 5.65625 -4.765625 C 7.363281 -4.765625 8.21875 -5.472656 8.21875 -6.890625 C 8.21875 -8.253906 7.363281 -8.9375 5.65625 -8.9375 L 3.15625 -8.9375 Z M 3.15625 -4.765625 "/></g></g></g><g fill="#00febe" fill-opacity="1"><g transform="translate(87.906771, 180.53405)"><g><path d="M 8.90625 -8.9375 L 3.15625 -8.9375 L 3.15625 -6.09375 L 8.3125 -6.09375 L 8.3125 -4.5 L 3.15625 -4.5 L 3.15625 -1.59375 L 9.09375 -1.59375 L 9.09375 0 L 1.390625 0 L 1.390625 -10.53125 L 8.90625 -10.53125 Z M 8.90625 -8.9375 "/></g></g></g><g fill="#00febe" fill-opacity="1"><g transform="translate(109.817732, 180.53405)"><g><path d="M 12.515625 0 L 10.875 0 L 10.859375 -7.875 L 7.53125 -1.09375 L 6.375 -1.09375 L 3.046875 -7.875 L 3.046875 0 L 1.390625 0 L 1.390625 -10.53125 L 3.484375 -10.53125 L 6.96875 -3.53125 L 10.421875 -10.53125 L 12.515625 -10.53125 Z M 12.515625 0 "/></g></g></g><g fill="#00febe" fill-opacity="1"><g transform="translate(135.773761, 180.53405)"><g><path d="M 3.15625 0 L 1.390625 0 L 1.390625 -10.53125 L 3.15625 -10.53125 Z M 3.15625 0 "/></g></g></g><g fill="#00febe" fill-opacity="1"><g transform="translate(152.361456, 180.53405)"><g><path d="M 10.34375 -10.53125 L 10.34375 -4.359375 C 10.34375 -2.984375 9.9375 -1.898438 9.125 -1.109375 C 8.3125 -0.316406 7.191406 0.078125 5.765625 0.078125 C 4.335938 0.078125 3.210938 -0.316406 2.390625 -1.109375 C 1.578125 -1.898438 1.171875 -2.984375 1.171875 -4.359375 L 1.171875 -10.53125 L 2.953125 -10.53125 L 2.953125 -4.359375 C 2.953125 -3.484375 3.203125 -2.789062 3.703125 -2.28125 C 4.210938 -1.769531 4.90625 -1.515625 5.78125 -1.515625 C 6.644531 -1.515625 7.320312 -1.765625 7.8125 -2.265625 C 8.3125 -2.773438 8.5625 -3.472656 8.5625 -4.359375 L 8.5625 -10.53125 Z M 10.34375 -10.53125 "/></g></g></g><g fill="#00febe" fill-opacity="1"><g transform="translate(175.896462, 180.53405)"><g><path d="M 12.515625 0 L 10.875 0 L 10.859375 -7.875 L 7.53125 -1.09375 L 6.375 -1.09375 L 3.046875 -7.875 L 3.046875 0 L 1.390625 0 L 1.390625 -10.53125 L 3.484375 -10.53125 L 6.96875 -3.53125 L 10.421875 -10.53125 L 12.515625 -10.53125 Z M 12.515625 0 "/></g></g></g><g fill="#00febe" fill-opacity="1"><g transform="translate(201.85249, 180.53405)"><g/></g></g><g fill="#00febe" fill-opacity="1"><g transform="translate(217.778545, 180.53405)"><g><path d="M 1.390625 -10.53125 L 5.953125 -10.53125 C 7.046875 -10.53125 7.910156 -10.296875 8.546875 -9.828125 C 9.179688 -9.367188 9.5 -8.726562 9.5 -7.90625 C 9.5 -7.3125 9.332031 -6.804688 9 -6.390625 C 8.664062 -5.972656 8.210938 -5.691406 7.640625 -5.546875 C 8.347656 -5.429688 8.898438 -5.132812 9.296875 -4.65625 C 9.703125 -4.1875 9.90625 -3.597656 9.90625 -2.890625 C 9.90625 -1.984375 9.5625 -1.273438 8.875 -0.765625 C 8.195312 -0.253906 7.257812 0 6.0625 0 L 1.390625 0 Z M 3.15625 -8.953125 L 3.15625 -6.171875 L 5.875 -6.171875 C 6.425781 -6.171875 6.863281 -6.296875 7.1875 -6.546875 C 7.507812 -6.796875 7.671875 -7.140625 7.671875 -7.578125 C 7.671875 -8.023438 7.507812 -8.363281 7.1875 -8.59375 C 6.875 -8.832031 6.4375 -8.953125 5.875 -8.953125 Z M 3.15625 -4.609375 L 3.15625 -1.578125 L 5.875 -1.578125 C 6.570312 -1.578125 7.113281 -1.707031 7.5 -1.96875 C 7.882812 -2.238281 8.078125 -2.617188 8.078125 -3.109375 C 8.078125 -3.578125 7.878906 -3.941406 7.484375 -4.203125 C 7.097656 -4.472656 6.5625 -4.609375 5.875 -4.609375 Z M 3.15625 -4.609375 "/></g></g></g><g fill="#00febe" fill-opacity="1"><g transform="translate(240.441375, 180.53405)"><g><path d="M 5.703125 -3.5 L 5.703125 0 L 3.9375 0 L 3.9375 -3.453125 L 0.015625 -10.53125 L 1.8125 -10.53125 L 4.8125 -5.40625 L 7.765625 -10.53125 L 9.5625 -10.53125 Z M 5.703125 -3.5 "/></g></g></g><g fill="#00febe" fill-opacity="1"><g transform="translate(262.06662, 180.53405)"><g/></g></g><g fill="#00febe" fill-opacity="1"><g transform="translate(277.992688, 180.53405)"><g><path d="M 5.703125 -3.5 L 5.703125 0 L 3.9375 0 L 3.9375 -3.453125 L 0.015625 -10.53125 L 1.8125 -10.53125 L 4.8125 -5.40625 L 7.765625 -10.53125 L 9.5625 -10.53125 Z M 5.703125 -3.5 "/></g></g></g><g fill="#00febe" fill-opacity="1"><g transform="translate(299.617934, 180.53405)"><g><path d="M 2.125 -9.046875 C 3.195312 -10.066406 4.519531 -10.578125 6.09375 -10.578125 C 7.664062 -10.578125 8.988281 -10.066406 10.0625 -9.046875 C 11.132812 -8.023438 11.671875 -6.765625 11.671875 -5.265625 C 11.671875 -3.765625 11.132812 -2.5 10.0625 -1.46875 C 8.988281 -0.4375 7.664062 0.078125 6.09375 0.078125 C 4.519531 0.078125 3.195312 -0.4375 2.125 -1.46875 C 1.050781 -2.5 0.515625 -3.765625 0.515625 -5.265625 C 0.515625 -6.765625 1.050781 -8.023438 2.125 -9.046875 Z M 6.109375 -8.984375 C 5.066406 -8.984375 4.171875 -8.625 3.421875 -7.90625 C 2.679688 -7.1875 2.3125 -6.304688 2.3125 -5.265625 C 2.3125 -4.222656 2.6875 -3.335938 3.4375 -2.609375 C 4.1875 -1.878906 5.078125 -1.515625 6.109375 -1.515625 C 7.140625 -1.515625 8.019531 -1.878906 8.75 -2.609375 C 9.488281 -3.335938 9.859375 -4.222656 9.859375 -5.265625 C 9.859375 -6.304688 9.488281 -7.1875 8.75 -7.90625 C 8.019531 -8.625 7.140625 -8.984375 6.109375 -8.984375 Z M 6.109375 -8.984375 "/></g></g></g><g fill="#00febe" fill-opacity="1"><g transform="translate(323.844671, 180.53405)"><g><path d="M 10.34375 -10.53125 L 10.34375 -4.359375 C 10.34375 -2.984375 9.9375 -1.898438 9.125 -1.109375 C 8.3125 -0.316406 7.191406 0.078125 5.765625 0.078125 C 4.335938 0.078125 3.210938 -0.316406 2.390625 -1.109375 C 1.578125 -1.898438 1.171875 -2.984375 1.171875 -4.359375 L 1.171875 -10.53125 L 2.953125 -10.53125 L 2.953125 -4.359375 C 2.953125 -3.484375 3.203125 -2.789062 3.703125 -2.28125 C 4.210938 -1.769531 4.90625 -1.515625 5.78125 -1.515625 C 6.644531 -1.515625 7.320312 -1.765625 7.8125 -2.265625 C 8.3125 -2.773438 8.5625 -3.472656 8.5625 -4.359375 L 8.5625 -10.53125 Z M 10.34375 -10.53125 "/></g></g></g></svg>