<svg width="209" height="126" viewBox="0 0 209 126" fill="none" xmlns="http://www.w3.org/2000/svg">
<path d="M53.5885 23.215C50.8731 23.215 5.1974 23.5264 2.32944 23.4236C2.28111 23.4234 2.23419 23.4074 2.19586 23.3779C2.15752 23.3485 2.12988 23.3073 2.11717 23.2607C2.10445 23.2141 2.10736 23.1646 2.12545 23.1198C2.14354 23.075 2.17581 23.0373 2.21733 23.0126C4.02655 22.1189 6.07866 22.2964 7.95949 21.6642C9.06495 21.2906 9.7438 20.5681 10.5129 19.7367C11.1483 19.0109 11.9699 18.4725 12.8889 18.1797C13.7291 17.9254 14.6212 17.8954 15.4766 18.0925C16.4108 18.3136 17.208 18.843 18.0924 19.1793C20.2877 20.0076 22.4177 19.2198 23.984 17.5974C25.2763 16.2584 26.5468 14.9941 28.3031 14.2748C29.776 13.6707 31.417 13.5461 32.8806 14.2125C34.5559 14.9692 35.705 16.4982 37.2775 17.4137C39.1459 18.5067 41.3755 18.2482 43.4338 18.5752C45.4922 18.9021 47.0772 20.6397 48.8833 21.6393C49.4714 22.0224 50.153 22.2377 50.8544 22.2621C51.2566 22.2264 51.6568 22.1703 52.0533 22.094C52.6761 22.0161 53.2677 22.0348 53.685 22.5517C53.7878 22.6794 53.766 23.215 53.5885 23.215Z" fill="#EBEBEB"/>
<path d="M208.593 26.4064C206.612 26.4064 173.265 26.6244 171.169 26.559C171.02 26.559 170.939 26.3317 171.088 26.2476C172.409 25.5937 173.906 25.7245 175.28 25.2636C176.089 24.9896 176.584 24.4633 177.148 23.8561C177.612 23.328 178.212 22.937 178.883 22.7257C179.496 22.5398 180.148 22.5194 180.773 22.6666C181.448 22.8254 182.037 23.2146 182.682 23.4575C184.282 24.0616 185.839 23.4886 186.985 22.3022C187.919 21.3244 188.853 20.4027 190.136 19.8764C190.66 19.6403 191.227 19.5143 191.802 19.5063C192.377 19.4982 192.947 19.6083 193.478 19.8297C194.702 20.384 195.539 21.4988 196.688 22.1714C198.052 22.9655 199.681 22.7942 201.185 23.0184C202.689 23.2426 203.844 24.5256 205.161 25.2543C205.592 25.5299 206.089 25.6838 206.6 25.6996C206.895 25.6735 207.188 25.6319 207.478 25.575C207.93 25.519 208.362 25.5345 208.668 25.9113C208.739 26.0141 208.724 26.4064 208.593 26.4064Z" fill="#EBEBEB"/>
<path d="M100.133 33.8209C98.1525 33.8209 64.805 34.0389 62.7093 33.9735C62.5598 33.9735 62.4788 33.7461 62.6283 33.6621C63.9486 33.0081 65.4309 33.142 66.8197 32.678C67.6293 32.4071 68.1245 31.8778 68.6881 31.2705C69.1527 30.743 69.7524 30.3522 70.4226 30.1402C71.0364 29.9543 71.6885 29.9339 72.3128 30.081C72.9885 30.2398 73.577 30.6291 74.2216 30.8719C75.8253 31.4761 77.3823 30.9031 78.5251 29.7167C79.4593 28.742 80.3935 27.8171 81.6796 27.2909C82.2031 27.0546 82.7698 26.9288 83.3441 26.9213C83.9185 26.9138 84.4882 27.0247 85.0177 27.2473C86.2415 27.8016 87.0823 28.9133 88.2314 29.5859C89.5922 30.3799 91.2208 30.1931 92.7248 30.4329C94.2289 30.6727 95.3841 31.94 96.7045 32.6687C97.1348 32.9448 97.6321 33.0987 98.1431 33.114C98.4358 33.114 98.7254 33.0268 99.0182 32.9926C99.4728 32.9365 99.9025 32.949 100.208 33.3258C100.279 33.4285 100.264 33.8209 100.133 33.8209Z" fill="#EBEBEB"/>
<path d="M138.027 47.4134C136.046 47.4134 102.699 47.6314 100.603 47.566C100.453 47.566 100.372 47.3387 100.522 47.2546C101.842 46.6007 103.34 46.7315 104.713 46.2675C105.52 45.9966 106.018 45.4672 106.582 44.8631C107.045 44.333 107.645 43.9407 108.316 43.7296C108.93 43.5437 109.582 43.5233 110.206 43.6704C110.882 43.8324 111.471 44.2185 112.115 44.4614C113.716 45.0686 115.273 44.4925 116.419 43.3061C117.353 42.3314 118.287 41.4097 119.57 40.8834C120.094 40.6466 120.661 40.5202 121.236 40.5121C121.811 40.5041 122.381 40.6146 122.911 40.8367C124.135 41.391 124.973 42.5058 126.122 43.1753C127.486 43.9694 129.114 43.7825 130.618 44.0223C132.122 44.2621 133.278 45.5295 134.595 46.2581C135.024 46.5365 135.522 46.6906 136.034 46.7034C136.345 46.7034 136.619 46.6162 136.912 46.582C137.363 46.5259 137.796 46.5384 138.101 46.9152C138.173 47.0211 138.157 47.4134 138.027 47.4134Z" fill="#EBEBEB"/>
<path d="M166.9 11.6869C166.862 11.799 114.342 11.6869 115.005 11.6869C115.317 11.6869 114.545 11.2354 114.84 11.0921C116.55 10.242 118.421 10.2171 120.284 10.0458C121.37 9.94932 122.485 9.7905 123.463 9.2767C124.441 8.76289 125.07 7.85673 125.773 7.0253C126.857 5.74368 128.248 4.7592 129.817 4.16477C131.387 3.57035 133.081 3.3856 134.742 3.62796C138.478 4.21338 141.418 7.05332 145.161 7.5827C147.406 7.89409 149.521 7.0253 151.728 6.72013C153.538 6.4679 155.042 6.81977 156.661 7.62318C157.844 8.2086 158.94 8.70373 160.279 8.79715C161.307 8.86877 162.341 8.75044 163.372 8.74109C165.059 8.7721 166.677 9.41887 167.921 10.5597C168.086 10.706 168.622 11.6869 166.9 11.6869Z" fill="#EBEBEB"/>
<path d="M169.138 15.6699H151.722V106.962H169.138V15.6699Z" fill="#DBDBDB"/>
<path d="M157.81 18.6338H154.425V22.1183H157.81V18.6338Z" fill="#EBEBEB"/>
<path d="M162.142 18.6338H158.757V22.1183H162.142V18.6338Z" fill="#EBEBEB"/>
<path d="M157.81 24.5537H154.425V28.0382H157.81V24.5537Z" fill="#EBEBEB"/>
<path d="M162.142 24.5537H158.757V28.0382H162.142V24.5537Z" fill="#EBEBEB"/>
<path d="M157.81 30.4707H154.425V33.9552H157.81V30.4707Z" fill="#EBEBEB"/>
<path d="M162.142 30.4707H158.757V33.9552H162.142V30.4707Z" fill="#EBEBEB"/>
<path d="M157.81 36.3896H154.425V39.8742H157.81V36.3896Z" fill="#EBEBEB"/>
<path d="M162.142 36.3896H158.757V39.8742H162.142V36.3896Z" fill="#EBEBEB"/>
<path d="M157.81 42.3066H154.425V45.7912H157.81V42.3066Z" fill="#EBEBEB"/>
<path d="M162.142 42.3066H158.757V45.7912H162.142V42.3066Z" fill="#EBEBEB"/>
<path d="M157.81 48.2266H154.425V51.7111H157.81V48.2266Z" fill="#EBEBEB"/>
<path d="M162.142 48.2266H158.757V51.7111H162.142V48.2266Z" fill="#EBEBEB"/>
<path d="M157.81 54.1426H154.425V57.6271H157.81V54.1426Z" fill="#EBEBEB"/>
<path d="M162.142 54.1426H158.757V57.6271H162.142V54.1426Z" fill="#EBEBEB"/>
<path d="M157.81 60.0625H154.425V63.547H157.81V60.0625Z" fill="#EBEBEB"/>
<path d="M162.142 60.0625H158.757V63.547H162.142V60.0625Z" fill="#EBEBEB"/>
<path d="M157.81 65.9785H154.425V69.463H157.81V65.9785Z" fill="#EBEBEB"/>
<path d="M162.142 65.9785H158.757V69.463H162.142V65.9785Z" fill="#EBEBEB"/>
<path d="M157.81 71.8984H154.425V75.383H157.81V71.8984Z" fill="#EBEBEB"/>
<path d="M162.142 71.8984H158.757V75.383H162.142V71.8984Z" fill="#EBEBEB"/>
<path d="M157.81 77.8154H154.425V81.3H157.81V77.8154Z" fill="#EBEBEB"/>
<path d="M162.142 77.8154H158.757V81.3H162.142V77.8154Z" fill="#EBEBEB"/>
<path d="M157.81 83.7344H154.425V87.2189H157.81V83.7344Z" fill="#EBEBEB"/>
<path d="M162.142 83.7344H158.757V87.2189H162.142V83.7344Z" fill="#EBEBEB"/>
<path d="M157.81 89.6514H154.425V93.1359H157.81V89.6514Z" fill="#EBEBEB"/>
<path d="M162.142 89.6514H158.757V93.1359H162.142V89.6514Z" fill="#EBEBEB"/>
<path d="M157.81 95.5713H154.425V99.0558H157.81V95.5713Z" fill="#EBEBEB"/>
<path d="M163.051 99.0557H166.436V95.5711H163.051V99.0557Z" fill="#EBEBEB"/>
<path d="M163.051 93.1387H166.436V89.6541H163.051V93.1387Z" fill="#EBEBEB"/>
<path d="M163.051 87.2197H166.436V83.7352H163.051V87.2197Z" fill="#EBEBEB"/>
<path d="M163.051 81.3027H166.436V77.8182H163.051V81.3027Z" fill="#EBEBEB"/>
<path d="M163.051 75.3828H166.436V71.8983H163.051V75.3828Z" fill="#EBEBEB"/>
<path d="M163.051 69.4668H166.436V65.9823H163.051V69.4668Z" fill="#EBEBEB"/>
<path d="M163.051 63.5469H166.436V60.0623H163.051V63.5469Z" fill="#EBEBEB"/>
<path d="M163.051 57.6309H166.436V54.1463H163.051V57.6309Z" fill="#EBEBEB"/>
<path d="M163.051 51.7109H166.436V48.2264H163.051V51.7109Z" fill="#EBEBEB"/>
<path d="M163.051 45.7939H166.436V42.3094H163.051V45.7939Z" fill="#EBEBEB"/>
<path d="M163.051 39.875H166.436V36.3905H163.051V39.875Z" fill="#EBEBEB"/>
<path d="M163.051 33.958H166.436V30.4735H163.051V33.958Z" fill="#EBEBEB"/>
<path d="M163.051 28.0381H166.436V24.5536H163.051V28.0381Z" fill="#EBEBEB"/>
<path d="M163.051 22.1221H166.436V18.6375H163.051V22.1221Z" fill="#EBEBEB"/>
<path d="M162.142 95.5713H158.757V99.0558H162.142V95.5713Z" fill="#EBEBEB"/>
<path d="M182.871 15.6699H169.139V106.962H182.871V15.6699Z" fill="#A6A6A6"/>
<path d="M178.661 99.0557H181.457V95.5711H178.661V99.0557Z" fill="#C7C7C7"/>
<path d="M175.084 99.0557H177.88V95.5711H175.084V99.0557Z" fill="#C7C7C7"/>
<path d="M178.661 93.1387H181.457V89.6541H178.661V93.1387Z" fill="#C7C7C7"/>
<path d="M175.084 93.1387H177.88V89.6541H175.084V93.1387Z" fill="#C7C7C7"/>
<path d="M178.661 87.2197H181.457V83.7352H178.661V87.2197Z" fill="#C7C7C7"/>
<path d="M175.084 87.2197H177.88V83.7352H175.084V87.2197Z" fill="#C7C7C7"/>
<path d="M178.661 81.3027H181.457V77.8182H178.661V81.3027Z" fill="#C7C7C7"/>
<path d="M175.084 81.3027H177.88V77.8182H175.084V81.3027Z" fill="#C7C7C7"/>
<path d="M178.661 75.3828H181.457V71.8983H178.661V75.3828Z" fill="#C7C7C7"/>
<path d="M175.084 75.3828H177.88V71.8983H175.084V75.3828Z" fill="#C7C7C7"/>
<path d="M178.661 69.4668H181.457V65.9823H178.661V69.4668Z" fill="#C7C7C7"/>
<path d="M175.084 69.4668H177.88V65.9823H175.084V69.4668Z" fill="#C7C7C7"/>
<path d="M178.661 63.5469H181.457V60.0623H178.661V63.5469Z" fill="#C7C7C7"/>
<path d="M175.084 63.5469H177.88V60.0623H175.084V63.5469Z" fill="#C7C7C7"/>
<path d="M178.661 57.6309H181.457V54.1463H178.661V57.6309Z" fill="#C7C7C7"/>
<path d="M175.084 57.6309H177.88V54.1463H175.084V57.6309Z" fill="#C7C7C7"/>
<path d="M178.661 51.7109H181.457V48.2264H178.661V51.7109Z" fill="#C7C7C7"/>
<path d="M175.084 51.7109H177.88V48.2264H175.084V51.7109Z" fill="#C7C7C7"/>
<path d="M178.661 45.7939H181.457V42.3094H178.661V45.7939Z" fill="#C7C7C7"/>
<path d="M175.084 45.7939H177.88V42.3094H175.084V45.7939Z" fill="#C7C7C7"/>
<path d="M178.661 39.875H181.457V36.3905H178.661V39.875Z" fill="#C7C7C7"/>
<path d="M175.084 39.875H177.88V36.3905H175.084V39.875Z" fill="#C7C7C7"/>
<path d="M178.661 33.958H181.457V30.4735H178.661V33.958Z" fill="#C7C7C7"/>
<path d="M175.084 33.958H177.88V30.4735H175.084V33.958Z" fill="#C7C7C7"/>
<path d="M178.661 28.0381H181.457V24.5536H178.661V28.0381Z" fill="#C7C7C7"/>
<path d="M175.084 28.0381H177.88V24.5536H175.084V28.0381Z" fill="#C7C7C7"/>
<path d="M178.661 22.1221H181.457V18.6375H178.661V22.1221Z" fill="#C7C7C7"/>
<path d="M174.332 18.6338H171.536V22.1183H174.332V18.6338Z" fill="#C7C7C7"/>
<path d="M174.332 24.5537H171.536V28.0382H174.332V24.5537Z" fill="#C7C7C7"/>
<path d="M174.332 30.4707H171.536V33.9552H174.332V30.4707Z" fill="#C7C7C7"/>
<path d="M174.332 36.3896H171.536V39.8742H174.332V36.3896Z" fill="#C7C7C7"/>
<path d="M174.332 42.3066H171.536V45.7912H174.332V42.3066Z" fill="#C7C7C7"/>
<path d="M174.332 48.2266H171.536V51.7111H174.332V48.2266Z" fill="#C7C7C7"/>
<path d="M174.332 54.1426H171.536V57.6271H174.332V54.1426Z" fill="#C7C7C7"/>
<path d="M174.332 60.0625H171.536V63.547H174.332V60.0625Z" fill="#C7C7C7"/>
<path d="M174.332 65.9785H171.536V69.463H174.332V65.9785Z" fill="#C7C7C7"/>
<path d="M174.332 71.8984H171.536V75.383H174.332V71.8984Z" fill="#C7C7C7"/>
<path d="M174.332 77.8154H171.536V81.3H174.332V77.8154Z" fill="#C7C7C7"/>
<path d="M174.332 83.7344H171.536V87.2189H174.332V83.7344Z" fill="#C7C7C7"/>
<path d="M174.332 89.6514H171.536V93.1359H174.332V89.6514Z" fill="#C7C7C7"/>
<path d="M174.332 95.5713H171.536V99.0558H174.332V95.5713Z" fill="#C7C7C7"/>
<path d="M175.084 22.1221H177.88V18.6375H175.084V22.1221Z" fill="#C7C7C7"/>
<path d="M45.9966 8.58887H25.0303V106.962H45.9966V8.58887Z" fill="#EBEBEB"/>
<path d="M45.9962 6.62988H24.5254V8.58857H45.9962V6.62988Z" fill="#C7C7C7"/>
<path d="M29.0505 11.4756H26.9268V106.962H29.0505V11.4756Z" fill="white"/>
<path d="M32.8122 11.4756H30.6885V106.962H32.8122V11.4756Z" fill="white"/>
<path d="M36.5739 11.4756H34.4502V106.962H36.5739V11.4756Z" fill="white"/>
<path d="M40.3386 11.4756H38.2148V106.962H40.3386V11.4756Z" fill="white"/>
<path d="M44.1003 11.4756H41.9766V106.962H44.1003V11.4756Z" fill="white"/>
<path d="M29.0505 13.9512H26.9268V17.8187H29.0505V13.9512Z" fill="#EBEBEB"/>
<path d="M32.8122 13.9512H30.6885V17.8187H32.8122V13.9512Z" fill="#EBEBEB"/>
<path d="M36.5739 13.9512H34.4502V17.8187H36.5739V13.9512Z" fill="#EBEBEB"/>
<path d="M40.3386 13.9512H38.2148V17.8187H40.3386V13.9512Z" fill="#EBEBEB"/>
<path d="M44.1003 13.9512H41.9766V17.8187H44.1003V13.9512Z" fill="#EBEBEB"/>
<path d="M29.0505 20.2344H26.9268V24.1019H29.0505V20.2344Z" fill="#EBEBEB"/>
<path d="M32.8122 20.2344H30.6885V24.1019H32.8122V20.2344Z" fill="#EBEBEB"/>
<path d="M36.5739 20.2344H34.4502V24.1019H36.5739V20.2344Z" fill="#EBEBEB"/>
<path d="M40.3386 20.2344H38.2148V24.1019H40.3386V20.2344Z" fill="#EBEBEB"/>
<path d="M44.1003 20.2344H41.9766V24.1019H44.1003V20.2344Z" fill="#EBEBEB"/>
<path d="M29.0505 26.5186H26.9268V30.3861H29.0505V26.5186Z" fill="#EBEBEB"/>
<path d="M32.8122 26.5186H30.6885V30.3861H32.8122V26.5186Z" fill="#EBEBEB"/>
<path d="M36.5739 26.5186H34.4502V30.3861H36.5739V26.5186Z" fill="#EBEBEB"/>
<path d="M40.3386 26.5186H38.2148V30.3861H40.3386V26.5186Z" fill="#EBEBEB"/>
<path d="M44.1003 26.5186H41.9766V30.3861H44.1003V26.5186Z" fill="#EBEBEB"/>
<path d="M29.0505 32.8057H26.9268V36.6732H29.0505V32.8057Z" fill="#EBEBEB"/>
<path d="M32.8122 32.8057H30.6885V36.6732H32.8122V32.8057Z" fill="#EBEBEB"/>
<path d="M36.5739 32.8057H34.4502V36.6732H36.5739V32.8057Z" fill="#EBEBEB"/>
<path d="M40.3386 32.8057H38.2148V36.6732H40.3386V32.8057Z" fill="#EBEBEB"/>
<path d="M44.1003 32.8057H41.9766V36.6732H44.1003V32.8057Z" fill="#EBEBEB"/>
<path d="M29.0505 39.0898H26.9268V42.9574H29.0505V39.0898Z" fill="#EBEBEB"/>
<path d="M32.8122 39.0898H30.6885V42.9574H32.8122V39.0898Z" fill="#EBEBEB"/>
<path d="M36.5739 39.0898H34.4502V42.9574H36.5739V39.0898Z" fill="#EBEBEB"/>
<path d="M40.3386 39.0898H38.2148V42.9574H40.3386V39.0898Z" fill="#EBEBEB"/>
<path d="M44.1003 39.0898H41.9766V42.9574H44.1003V39.0898Z" fill="#EBEBEB"/>
<path d="M29.0505 45.374H26.9268V49.2416H29.0505V45.374Z" fill="#EBEBEB"/>
<path d="M32.8122 45.374H30.6885V49.2416H32.8122V45.374Z" fill="#EBEBEB"/>
<path d="M36.5739 45.374H34.4502V49.2416H36.5739V45.374Z" fill="#EBEBEB"/>
<path d="M40.3386 45.374H38.2148V49.2416H40.3386V45.374Z" fill="#EBEBEB"/>
<path d="M44.1003 45.374H41.9766V49.2416H44.1003V45.374Z" fill="#EBEBEB"/>
<path d="M29.0505 51.6582H26.9268V55.5258H29.0505V51.6582Z" fill="#EBEBEB"/>
<path d="M32.8122 51.6582H30.6885V55.5258H32.8122V51.6582Z" fill="#EBEBEB"/>
<path d="M36.5739 51.6582H34.4502V55.5258H36.5739V51.6582Z" fill="#EBEBEB"/>
<path d="M40.3386 51.6582H38.2148V55.5258H40.3386V51.6582Z" fill="#EBEBEB"/>
<path d="M44.1003 51.6582H41.9766V55.5258H44.1003V51.6582Z" fill="#EBEBEB"/>
<path d="M29.0505 57.9453H26.9268V61.8129H29.0505V57.9453Z" fill="#EBEBEB"/>
<path d="M32.8122 57.9453H30.6885V61.8129H32.8122V57.9453Z" fill="#EBEBEB"/>
<path d="M36.5739 57.9453H34.4502V61.8129H36.5739V57.9453Z" fill="#EBEBEB"/>
<path d="M40.3386 57.9453H38.2148V61.8129H40.3386V57.9453Z" fill="#EBEBEB"/>
<path d="M44.1003 57.9453H41.9766V61.8129H44.1003V57.9453Z" fill="#EBEBEB"/>
<path d="M29.0505 64.2285H26.9268V68.0961H29.0505V64.2285Z" fill="#EBEBEB"/>
<path d="M32.8122 64.2285H30.6885V68.0961H32.8122V64.2285Z" fill="#EBEBEB"/>
<path d="M36.5739 64.2285H34.4502V68.0961H36.5739V64.2285Z" fill="#EBEBEB"/>
<path d="M40.3386 64.2285H38.2148V68.0961H40.3386V64.2285Z" fill="#EBEBEB"/>
<path d="M44.1003 64.2285H41.9766V68.0961H44.1003V64.2285Z" fill="#EBEBEB"/>
<path d="M29.0505 70.5127H26.9268V74.3802H29.0505V70.5127Z" fill="#EBEBEB"/>
<path d="M32.8122 70.5127H30.6885V74.3802H32.8122V70.5127Z" fill="#EBEBEB"/>
<path d="M36.5739 70.5127H34.4502V74.3802H36.5739V70.5127Z" fill="#EBEBEB"/>
<path d="M40.3386 70.5127H38.2148V74.3802H40.3386V70.5127Z" fill="#EBEBEB"/>
<path d="M44.1003 70.5127H41.9766V74.3802H44.1003V70.5127Z" fill="#EBEBEB"/>
<path d="M29.0505 76.7969H26.9268V80.6644H29.0505V76.7969Z" fill="#EBEBEB"/>
<path d="M32.8122 76.7969H30.6885V80.6644H32.8122V76.7969Z" fill="#EBEBEB"/>
<path d="M36.5739 76.7969H34.4502V80.6644H36.5739V76.7969Z" fill="#EBEBEB"/>
<path d="M40.3386 76.7969H38.2148V80.6644H40.3386V76.7969Z" fill="#EBEBEB"/>
<path d="M44.1003 76.7969H41.9766V80.6644H44.1003V76.7969Z" fill="#EBEBEB"/>
<path d="M29.0505 83.0811H26.9268V86.9486H29.0505V83.0811Z" fill="#EBEBEB"/>
<path d="M32.8122 83.0811H30.6885V86.9486H32.8122V83.0811Z" fill="#EBEBEB"/>
<path d="M36.5739 83.0811H34.4502V86.9486H36.5739V83.0811Z" fill="#EBEBEB"/>
<path d="M40.3386 83.0811H38.2148V86.9486H40.3386V83.0811Z" fill="#EBEBEB"/>
<path d="M44.1003 83.0811H41.9766V86.9486H44.1003V83.0811Z" fill="#EBEBEB"/>
<path d="M29.0505 89.3682H26.9268V93.2357H29.0505V89.3682Z" fill="#EBEBEB"/>
<path d="M32.8122 89.3682H30.6885V93.2357H32.8122V89.3682Z" fill="#EBEBEB"/>
<path d="M36.5739 89.3682H34.4502V93.2357H36.5739V89.3682Z" fill="#EBEBEB"/>
<path d="M40.3386 89.3682H38.2148V93.2357H40.3386V89.3682Z" fill="#EBEBEB"/>
<path d="M44.1003 89.3682H41.9766V93.2357H44.1003V89.3682Z" fill="#EBEBEB"/>
<path d="M29.0505 95.6523H26.9268V106.962H29.0505V95.6523Z" fill="#EBEBEB"/>
<path d="M32.8122 95.6523H30.6885V106.962H32.8122V95.6523Z" fill="#EBEBEB"/>
<path d="M36.5739 95.6523H34.4502V106.962H36.5739V95.6523Z" fill="#EBEBEB"/>
<path d="M40.3386 95.6523H38.2148V106.962H40.3386V95.6523Z" fill="#EBEBEB"/>
<path d="M44.1003 95.6523H41.9766V106.962H44.1003V95.6523Z" fill="#EBEBEB"/>
<path d="M59.4556 8.58887H45.9971V106.962H59.4556V8.58887Z" fill="#DBDBDB"/>
<path d="M60.0411 6.62988H45.9971V8.58857H60.0411V6.62988Z" fill="#C7C7C7"/>
<path d="M50.0134 11.4756H47.8896V106.962H50.0134V11.4756Z" fill="#C7C7C7"/>
<path d="M53.778 11.4756H51.6543V106.962H53.778V11.4756Z" fill="#C7C7C7"/>
<path d="M57.5397 11.4756H55.416V106.962H57.5397V11.4756Z" fill="#C7C7C7"/>
<path d="M50.0134 13.9512H47.8896V17.8187H50.0134V13.9512Z" fill="#DBDBDB"/>
<path d="M53.778 13.9512H51.6543V17.8187H53.778V13.9512Z" fill="#DBDBDB"/>
<path d="M57.5397 13.9512H55.416V17.8187H57.5397V13.9512Z" fill="#DBDBDB"/>
<path d="M50.0134 20.2344H47.8896V24.1019H50.0134V20.2344Z" fill="#DBDBDB"/>
<path d="M53.778 20.2344H51.6543V24.1019H53.778V20.2344Z" fill="#DBDBDB"/>
<path d="M57.5397 20.2344H55.416V24.1019H57.5397V20.2344Z" fill="#DBDBDB"/>
<path d="M50.0134 26.5186H47.8896V30.3861H50.0134V26.5186Z" fill="#DBDBDB"/>
<path d="M53.778 26.5186H51.6543V30.3861H53.778V26.5186Z" fill="#DBDBDB"/>
<path d="M57.5397 26.5186H55.416V30.3861H57.5397V26.5186Z" fill="#DBDBDB"/>
<path d="M50.0134 32.8057H47.8896V36.6732H50.0134V32.8057Z" fill="#DBDBDB"/>
<path d="M53.778 32.8057H51.6543V36.6732H53.778V32.8057Z" fill="#DBDBDB"/>
<path d="M57.5397 32.8057H55.416V36.6732H57.5397V32.8057Z" fill="#DBDBDB"/>
<path d="M50.0134 39.0898H47.8896V42.9574H50.0134V39.0898Z" fill="#DBDBDB"/>
<path d="M53.778 39.0898H51.6543V42.9574H53.778V39.0898Z" fill="#DBDBDB"/>
<path d="M57.5397 39.0898H55.416V42.9574H57.5397V39.0898Z" fill="#DBDBDB"/>
<path d="M50.0134 45.374H47.8896V49.2416H50.0134V45.374Z" fill="#DBDBDB"/>
<path d="M53.778 45.374H51.6543V49.2416H53.778V45.374Z" fill="#DBDBDB"/>
<path d="M57.5397 45.374H55.416V49.2416H57.5397V45.374Z" fill="#DBDBDB"/>
<path d="M50.0134 51.6582H47.8896V55.5258H50.0134V51.6582Z" fill="#DBDBDB"/>
<path d="M53.778 51.6582H51.6543V55.5258H53.778V51.6582Z" fill="#DBDBDB"/>
<path d="M57.5397 51.6582H55.416V55.5258H57.5397V51.6582Z" fill="#DBDBDB"/>
<path d="M50.0134 57.9453H47.8896V61.8129H50.0134V57.9453Z" fill="#DBDBDB"/>
<path d="M53.778 57.9453H51.6543V61.8129H53.778V57.9453Z" fill="#DBDBDB"/>
<path d="M57.5397 57.9453H55.416V61.8129H57.5397V57.9453Z" fill="#DBDBDB"/>
<path d="M50.0134 64.2285H47.8896V68.0961H50.0134V64.2285Z" fill="#DBDBDB"/>
<path d="M53.778 64.2285H51.6543V68.0961H53.778V64.2285Z" fill="#DBDBDB"/>
<path d="M57.5397 64.2285H55.416V68.0961H57.5397V64.2285Z" fill="#DBDBDB"/>
<path d="M50.0134 70.5127H47.8896V74.3802H50.0134V70.5127Z" fill="#DBDBDB"/>
<path d="M53.778 70.5127H51.6543V74.3802H53.778V70.5127Z" fill="#DBDBDB"/>
<path d="M57.5397 70.5127H55.416V74.3802H57.5397V70.5127Z" fill="#DBDBDB"/>
<path d="M50.0134 76.7969H47.8896V80.6644H50.0134V76.7969Z" fill="#DBDBDB"/>
<path d="M53.778 76.7969H51.6543V80.6644H53.778V76.7969Z" fill="#DBDBDB"/>
<path d="M57.5397 76.7969H55.416V80.6644H57.5397V76.7969Z" fill="#DBDBDB"/>
<path d="M50.0134 83.0811H47.8896V86.9486H50.0134V83.0811Z" fill="#DBDBDB"/>
<path d="M53.778 83.0811H51.6543V86.9486H53.778V83.0811Z" fill="#DBDBDB"/>
<path d="M57.5397 83.0811H55.416V86.9486H57.5397V83.0811Z" fill="#DBDBDB"/>
<path d="M50.0134 89.3682H47.8896V93.2357H50.0134V89.3682Z" fill="#DBDBDB"/>
<path d="M53.778 89.3682H51.6543V93.2357H53.778V89.3682Z" fill="#DBDBDB"/>
<path d="M57.5397 89.3682H55.416V93.2357H57.5397V89.3682Z" fill="#DBDBDB"/>
<path d="M50.0134 95.6523H47.8896V106.962H50.0134V95.6523Z" fill="#DBDBDB"/>
<path d="M53.778 95.6523H51.6543V106.962H53.778V95.6523Z" fill="#DBDBDB"/>
<path d="M57.5397 95.6523H55.416V106.962H57.5397V95.6523Z" fill="#DBDBDB"/>
<path d="M20.7638 41.6152H3.53418V106.962H20.7638V41.6152Z" fill="#EBEBEB"/>
<path d="M20.7642 37.2842H5.98535V41.6188H20.7642V37.2842Z" fill="#C7C7C7"/>
<path d="M18.8742 43.8789H5.42188V92.7277H18.8742V43.8789Z" fill="#DBDBDB"/>
<path d="M18.8742 48.541H5.42188V49.6963H18.8742V48.541Z" fill="white"/>
<path d="M18.8742 53.3203H5.42188V54.4756H18.8742V53.3203Z" fill="white"/>
<path d="M18.8742 58.1035H5.42188V59.2588H18.8742V58.1035Z" fill="white"/>
<path d="M18.8742 62.8838H5.42188V64.0391H18.8742V62.8838Z" fill="white"/>
<path d="M18.8742 67.667H5.42188V68.8223H18.8742V67.667Z" fill="white"/>
<path d="M18.8742 72.4463H5.42188V73.6016H18.8742V72.4463Z" fill="white"/>
<path d="M18.8742 77.2295H5.42188V78.3848H18.8742V77.2295Z" fill="white"/>
<path d="M18.8742 82.0098H5.42188V83.165H18.8742V82.0098Z" fill="white"/>
<path d="M18.8742 86.793H5.42188V87.9482H18.8742V86.793Z" fill="white"/>
<path d="M18.8742 91.5723H5.42188V92.7275H18.8742V91.5723Z" fill="white"/>
<path d="M31.5567 41.6152H20.7637V106.962H31.5567V41.6152Z" fill="#DBDBDB"/>
<path d="M29.9374 37.2842H20.7637V41.6188H29.9374V37.2842Z" fill="#A6A6A6"/>
<path d="M30.5517 43.8789H22.2529V92.7277H30.5517V43.8789Z" fill="#C7C7C7"/>
<path d="M30.5517 48.541H22.2529V49.6963H30.5517V48.541Z" fill="white"/>
<path d="M30.5517 53.3203H22.2529V54.4756H30.5517V53.3203Z" fill="white"/>
<path d="M30.5517 58.1035H22.2529V59.2588H30.5517V58.1035Z" fill="white"/>
<path d="M30.5517 62.8838H22.2529V64.0391H30.5517V62.8838Z" fill="white"/>
<path d="M30.5517 67.667H22.2529V68.8223H30.5517V67.667Z" fill="white"/>
<path d="M30.5517 72.4463H22.2529V73.6016H30.5517V72.4463Z" fill="white"/>
<path d="M30.5517 77.2295H22.2529V78.3848H30.5517V77.2295Z" fill="white"/>
<path d="M30.5517 82.0098H22.2529V83.165H30.5517V82.0098Z" fill="white"/>
<path d="M30.5517 86.793H22.2529V87.9482H30.5517V86.793Z" fill="white"/>
<path d="M30.5517 91.5723H22.2529V92.7275H30.5517V91.5723Z" fill="white"/>
<path d="M193.076 42.7178H183.874V53.5886H193.076V42.7178Z" fill="#DBDBDB"/>
<path d="M198.911 42.7178H193.075V53.9872H198.911V42.7178Z" fill="#C7C7C7"/>
<path d="M199.301 47.5195H193.509V53.9872H199.301V47.5195Z" fill="#DBDBDB"/>
<path d="M202.913 47.5195H199.301V53.9872H202.913V47.5195Z" fill="#C7C7C7"/>
<path d="M195.224 52.8818H180.343V106.962H195.224V52.8818Z" fill="#EBEBEB"/>
<path d="M186.726 55.208H182.046V57.12H186.726V55.208Z" fill="white"/>
<path d="M192.712 55.208H188.031V57.12H192.712V55.208Z" fill="white"/>
<path d="M186.726 58.4521H182.046V60.3641H186.726V58.4521Z" fill="white"/>
<path d="M192.712 58.4521H188.031V60.3641H192.712V58.4521Z" fill="white"/>
<path d="M186.726 61.6973H182.046V63.6092H186.726V61.6973Z" fill="white"/>
<path d="M192.712 61.6973H188.031V63.6092H192.712V61.6973Z" fill="white"/>
<path d="M186.726 64.9453H182.046V66.8573H186.726V64.9453Z" fill="white"/>
<path d="M192.712 64.9453H188.031V66.8573H192.712V64.9453Z" fill="white"/>
<path d="M186.726 68.1895H182.046V70.1014H186.726V68.1895Z" fill="white"/>
<path d="M192.712 68.1895H188.031V70.1014H192.712V68.1895Z" fill="white"/>
<path d="M186.726 71.4375H182.046V73.3495H186.726V71.4375Z" fill="white"/>
<path d="M192.712 71.4375H188.031V73.3495H192.712V71.4375Z" fill="white"/>
<path d="M186.726 74.6826H182.046V76.5946H186.726V74.6826Z" fill="white"/>
<path d="M192.712 74.6826H188.031V76.5946H192.712V74.6826Z" fill="white"/>
<path d="M186.726 77.9307H182.046V79.8426H186.726V77.9307Z" fill="white"/>
<path d="M192.712 77.9307H188.031V79.8426H192.712V77.9307Z" fill="white"/>
<path d="M186.726 81.1748H182.046V83.0868H186.726V81.1748Z" fill="white"/>
<path d="M192.712 81.1748H188.031V83.0868H192.712V81.1748Z" fill="white"/>
<path d="M186.726 84.4199H182.046V86.3319H186.726V84.4199Z" fill="white"/>
<path d="M192.712 84.4199H188.031V86.3319H192.712V84.4199Z" fill="white"/>
<path d="M186.726 87.668H182.046V89.58H186.726V87.668Z" fill="white"/>
<path d="M192.712 87.668H188.031V89.58H192.712V87.668Z" fill="white"/>
<path d="M186.726 90.9121H182.046V92.8241H186.726V90.9121Z" fill="white"/>
<path d="M192.712 90.9121H188.031V92.8241H192.712V90.9121Z" fill="white"/>
<path d="M186.726 94.1602H182.046V96.0721H186.726V94.1602Z" fill="white"/>
<path d="M192.712 94.1602H188.031V96.0721H192.712V94.1602Z" fill="white"/>
<path d="M186.726 97.4053H182.046V99.3172H186.726V97.4053Z" fill="white"/>
<path d="M192.712 97.4053H188.031V99.3172H192.712V97.4053Z" fill="white"/>
<path d="M207.282 52.8818H195.225V106.962H207.282V52.8818Z" fill="#C7C7C7"/>
<path d="M202.231 99.3174H206.073V97.4054H202.231V99.3174Z" fill="#EBEBEB"/>
<path d="M197.314 99.3174H201.156V97.4054H197.314V99.3174Z" fill="#EBEBEB"/>
<path d="M202.231 96.0693H206.073V94.1574H202.231V96.0693Z" fill="#EBEBEB"/>
<path d="M197.314 96.0693H201.156V94.1574H197.314V96.0693Z" fill="#EBEBEB"/>
<path d="M202.231 92.8242H206.073V90.9122H202.231V92.8242Z" fill="#EBEBEB"/>
<path d="M197.314 92.8242H201.156V90.9122H197.314V92.8242Z" fill="#EBEBEB"/>
<path d="M202.231 89.5801H206.073V87.6681H202.231V89.5801Z" fill="#EBEBEB"/>
<path d="M197.314 89.5801H201.156V87.6681H197.314V89.5801Z" fill="#EBEBEB"/>
<path d="M202.231 86.335H206.073V84.423H202.231V86.335Z" fill="#EBEBEB"/>
<path d="M197.314 86.335H201.156V84.423H197.314V86.335Z" fill="#EBEBEB"/>
<path d="M202.231 83.0869H206.073V81.1749H202.231V83.0869Z" fill="#EBEBEB"/>
<path d="M197.314 83.0869H201.156V81.1749H197.314V83.0869Z" fill="#EBEBEB"/>
<path d="M202.231 79.8389H206.073V77.9269H202.231V79.8389Z" fill="#EBEBEB"/>
<path d="M197.314 79.8389H201.156V77.9269H197.314V79.8389Z" fill="#EBEBEB"/>
<path d="M202.231 76.5947H206.073V74.6828H202.231V76.5947Z" fill="#EBEBEB"/>
<path d="M197.314 76.5947H201.156V74.6828H197.314V76.5947Z" fill="#EBEBEB"/>
<path d="M202.231 73.3467H206.073V71.4347H202.231V73.3467Z" fill="#EBEBEB"/>
<path d="M197.314 73.3467H201.156V71.4347H197.314V73.3467Z" fill="#EBEBEB"/>
<path d="M202.231 70.1045H206.073V68.1925H202.231V70.1045Z" fill="#EBEBEB"/>
<path d="M197.314 70.1045H201.156V68.1925H197.314V70.1045Z" fill="#EBEBEB"/>
<path d="M202.231 66.8574H206.073V64.9454H202.231V66.8574Z" fill="#EBEBEB"/>
<path d="M197.314 66.8574H201.156V64.9454H197.314V66.8574Z" fill="#EBEBEB"/>
<path d="M202.231 63.6123H206.073V61.7003H202.231V63.6123Z" fill="#EBEBEB"/>
<path d="M197.314 63.6123H201.156V61.7003H197.314V63.6123Z" fill="#EBEBEB"/>
<path d="M202.231 60.3643H206.073V58.4523H202.231V60.3643Z" fill="#EBEBEB"/>
<path d="M197.314 60.3643H201.156V58.4523H197.314V60.3643Z" fill="#EBEBEB"/>
<path d="M202.231 57.1162H206.073V55.2042H202.231V57.1162Z" fill="#EBEBEB"/>
<path d="M197.314 57.1162H201.156V55.2042H197.314V57.1162Z" fill="#EBEBEB"/>
<path d="M73.5738 63.9424H55.9893V106.962H73.5738V63.9424Z" fill="#C7C7C7"/>
<path d="M61.8657 67.667H58.7549V70.3014H61.8657V67.667Z" fill="#DBDBDB"/>
<path d="M61.8657 73.2969H58.7549V75.9313H61.8657V73.2969Z" fill="#DBDBDB"/>
<path d="M61.8657 78.9268H58.7549V81.5612H61.8657V78.9268Z" fill="#DBDBDB"/>
<path d="M61.8657 84.5537H58.7549V87.1881H61.8657V84.5537Z" fill="#DBDBDB"/>
<path d="M61.8657 90.1836H58.7549V92.818H61.8657V90.1836Z" fill="#DBDBDB"/>
<path d="M61.8657 95.8135H58.7549V98.4479H61.8657V95.8135Z" fill="#DBDBDB"/>
<path d="M61.8657 101.444H58.7549V104.079H61.8657V101.444Z" fill="#DBDBDB"/>
<path d="M66.3403 67.667H63.2295V70.3014H66.3403V67.667Z" fill="#DBDBDB"/>
<path d="M66.3403 73.2969H63.2295V75.9313H66.3403V73.2969Z" fill="#DBDBDB"/>
<path d="M66.3403 78.9268H63.2295V81.5612H66.3403V78.9268Z" fill="#DBDBDB"/>
<path d="M66.3403 84.5537H63.2295V87.1881H66.3403V84.5537Z" fill="#DBDBDB"/>
<path d="M66.3403 90.1836H63.2295V92.818H66.3403V90.1836Z" fill="#DBDBDB"/>
<path d="M66.3403 95.8135H63.2295V98.4479H66.3403V95.8135Z" fill="#DBDBDB"/>
<path d="M66.3403 101.444H63.2295V104.079H66.3403V101.444Z" fill="#DBDBDB"/>
<path d="M70.8052 67.667H67.6943V70.3014H70.8052V67.667Z" fill="#DBDBDB"/>
<path d="M70.8052 73.2969H67.6943V75.9313H70.8052V73.2969Z" fill="#DBDBDB"/>
<path d="M70.8052 78.9268H67.6943V81.5612H70.8052V78.9268Z" fill="#DBDBDB"/>
<path d="M70.8052 84.5537H67.6943V87.1881H70.8052V84.5537Z" fill="#DBDBDB"/>
<path d="M70.8052 90.1836H67.6943V92.818H70.8052V90.1836Z" fill="#DBDBDB"/>
<path d="M70.8052 95.8135H67.6943V98.4479H70.8052V95.8135Z" fill="#DBDBDB"/>
<path d="M70.8052 101.444H67.6943V104.079H70.8052V101.444Z" fill="#DBDBDB"/>
<path d="M73.5706 59.4619H61.8652V63.9429H73.5706V59.4619Z" fill="#DBDBDB"/>
<path d="M73.571 56.6865H66.1504V59.4611H73.571V56.6865Z" fill="#EBEBEB"/>
<path d="M85.9088 63.9424H73.5713V106.962H85.9088V63.9424Z" fill="#A6A6A6"/>
<path d="M82.1129 103.658H84.6445V101.024H82.1129V103.658Z" fill="#C7C7C7"/>
<path d="M82.1129 98.0312H84.6445V95.3968H82.1129V98.0312Z" fill="#C7C7C7"/>
<path d="M82.1129 92.4014H84.6445V89.767H82.1129V92.4014Z" fill="#C7C7C7"/>
<path d="M82.1129 86.7705H84.6445V84.1361H82.1129V86.7705Z" fill="#C7C7C7"/>
<path d="M82.1129 81.1406H84.6445V78.5062H82.1129V81.1406Z" fill="#C7C7C7"/>
<path d="M82.1129 75.5107H84.6445V72.8763H82.1129V75.5107Z" fill="#C7C7C7"/>
<path d="M82.1129 69.8838H84.6445V67.2494H82.1129V69.8838Z" fill="#C7C7C7"/>
<path d="M78.4693 103.658H81.001V101.024H78.4693V103.658Z" fill="#C7C7C7"/>
<path d="M78.4693 98.0312H81.001V95.3968H78.4693V98.0312Z" fill="#C7C7C7"/>
<path d="M78.4693 92.4014H81.001V89.767H78.4693V92.4014Z" fill="#C7C7C7"/>
<path d="M78.4693 86.7705H81.001V84.1361H78.4693V86.7705Z" fill="#C7C7C7"/>
<path d="M78.4693 81.1406H81.001V78.5062H78.4693V81.1406Z" fill="#C7C7C7"/>
<path d="M78.4693 75.5107H81.001V72.8763H78.4693V75.5107Z" fill="#C7C7C7"/>
<path d="M78.4693 69.8838H81.001V67.2494H78.4693V69.8838Z" fill="#C7C7C7"/>
<path d="M74.8355 103.658H77.3672V101.024H74.8355V103.658Z" fill="#C7C7C7"/>
<path d="M74.8355 98.0312H77.3672V95.3968H74.8355V98.0312Z" fill="#C7C7C7"/>
<path d="M74.8355 92.4014H77.3672V89.767H74.8355V92.4014Z" fill="#C7C7C7"/>
<path d="M74.8355 86.7705H77.3672V84.1361H74.8355V86.7705Z" fill="#C7C7C7"/>
<path d="M74.8355 81.1406H77.3672V78.5062H74.8355V81.1406Z" fill="#C7C7C7"/>
<path d="M74.8355 75.5107H77.3672V72.8763H74.8355V75.5107Z" fill="#C7C7C7"/>
<path d="M74.8355 69.8838H77.3672V67.2494H74.8355V69.8838Z" fill="#C7C7C7"/>
<path d="M84.0405 59.4619H73.5713V63.9429H84.0405V59.4619Z" fill="#C7C7C7"/>
<path d="M79.2449 56.6865H73.5713V59.4611H79.2449V56.6865Z" fill="#DBDBDB"/>
<path d="M3.26953 119.744C68.7034 119.551 142.106 119.551 207.546 119.744C142.112 119.934 68.7096 119.934 3.26953 119.744Z" fill="#263238"/>
<path d="M3.26953 106.962C68.7034 106.772 142.106 106.769 207.546 106.962C142.112 107.155 68.7096 107.152 3.26953 106.962Z" fill="#263238"/>
<path d="M10.7428 92.9304C10.7428 92.9304 14.5387 101.36 8.34191 101.369C2.14511 101.379 6.16213 92.6502 6.16213 92.6502C6.16213 92.6502 4.72659 92.0274 6.38323 87.3128C8.03986 82.5983 8.78721 82.6045 9.47851 82.6045C10.3504 82.6045 11.1663 84.641 10.5746 87.7674C10.5684 87.7674 12.7513 91.6661 10.7428 92.9304Z" fill="#37474F"/>
<path d="M7.7998 106.962L8.38523 94.2568L8.99557 106.962H7.7998Z" fill="#263238"/>
<path d="M8.14551 99.5825L10.3969 96.9512L8.63129 99.9312L8.14551 99.5825Z" fill="#263238"/>
<path d="M86.5864 93.8369C86.5864 93.8369 84.8208 93.1394 83.4195 95.5807C81.9839 98.0719 83.79 99.7316 85.2194 98.7476C85.2194 98.7476 86.3435 101.102 88.5856 100.538C90.8276 99.9745 91.1919 98.1809 91.1919 98.1809C91.1919 98.1809 93.1849 98.3179 93.2378 96.8325C93.2908 95.3472 91.8334 94.03 91.8334 94.03C91.8334 94.03 91.7462 90.3275 89.3422 90.3586C86.9383 90.3897 86.5864 93.8369 86.5864 93.8369Z" fill="#455A64"/>
<path d="M88.2432 106.956L88.7352 95.9385L89.2521 106.956H88.2432Z" fill="#263238"/>
<path d="M88.592 100.08L87.0381 96.9912L88.8442 99.5976L88.592 100.08Z" fill="#263238"/>
<path d="M56.8919 93.8369C56.8919 93.8369 55.1231 93.1394 53.7219 95.5807C52.2894 98.0719 54.0924 99.7316 55.5217 98.7476C55.5217 98.7476 56.6459 101.102 58.891 100.538C61.1362 99.9745 61.4974 98.1809 61.4974 98.1809C61.4974 98.1809 63.4873 98.3179 63.5433 96.8325C63.5994 95.3472 62.1358 94.03 62.1358 94.03C62.1358 94.03 62.0486 90.3275 59.6446 90.3586C57.2406 90.3897 56.8919 93.8369 56.8919 93.8369Z" fill="#455A64"/>
<path d="M58.5449 106.956L59.04 95.9385L59.557 106.956H58.5449Z" fill="#263238"/>
<path d="M58.8945 100.08L57.3438 96.9912L59.1467 99.5976L58.8945 100.08Z" fill="#263238"/>
<path d="M204.784 92.8746C204.784 92.8746 208.58 101.304 202.383 101.31C196.186 101.317 200.203 92.5912 200.203 92.5912C200.203 92.5912 198.768 91.9684 200.427 87.2539C202.087 82.5393 202.819 82.5518 203.498 82.5518C204.373 82.5518 205.186 84.5852 204.594 87.7147C204.606 87.7116 206.792 91.6103 204.784 92.8746Z" fill="#37474F"/>
<path d="M201.841 106.906L202.423 94.1982L203.033 106.903L201.841 106.906Z" fill="#263238"/>
<path d="M202.187 99.5258L204.435 96.8945L202.672 99.8746L202.187 99.5258Z" fill="#263238"/>
<path d="M180.993 92.8746C180.993 92.8746 184.789 101.304 178.592 101.31C172.395 101.317 176.412 92.5912 176.412 92.5912C176.412 92.5912 174.977 91.9684 176.636 87.2539C178.296 82.5393 179.031 82.5518 179.719 82.5518C180.594 82.5518 181.41 84.5852 180.815 87.7147C180.815 87.7116 183.001 91.6103 180.993 92.8746Z" fill="#37474F"/>
<path d="M178.05 106.906L178.632 94.1982L179.246 106.903L178.05 106.906Z" fill="#263238"/>
<path d="M178.396 99.5258L180.644 96.8945L178.881 99.8746L178.396 99.5258Z" fill="#263238"/>
<path d="M78.0641 94.6652C78.0641 94.6652 74.7571 102.058 80.1847 102.052C85.6124 102.045 82.0873 94.4099 82.0873 94.4099C82.0873 94.4099 83.3329 93.8556 81.8787 89.7389C80.4245 85.6222 79.7674 85.6191 79.1602 85.6222C78.3973 85.6222 77.6873 87.4065 78.226 90.1437C78.2105 90.1406 76.3047 93.5629 78.0641 94.6652Z" fill="#37474F"/>
<path d="M80.6703 106.95L80.1347 95.8203L79.624 106.95H80.6703Z" fill="#263238"/>
<path d="M80.3522 100.488L78.3779 98.1836L79.9287 100.793L80.3522 100.488Z" fill="#263238"/>
<path d="M127.012 94.6652C127.012 94.6652 123.705 102.058 129.133 102.052C134.561 102.045 131.032 94.4099 131.032 94.4099C131.032 94.4099 132.278 93.8556 130.827 89.7389C129.376 85.6222 128.716 85.6191 128.108 85.6222C127.346 85.6222 126.636 87.4065 127.174 90.1437C127.159 90.1406 125.253 93.5629 127.012 94.6652Z" fill="#37474F"/>
<path d="M129.619 106.95L129.083 95.8203L128.572 106.95H129.619Z" fill="#263238"/>
<path d="M129.301 100.488L127.327 98.1836L128.878 100.793L129.301 100.488Z" fill="#263238"/>
<path d="M184.393 93.7931C184.393 93.7931 182.624 93.0925 181.223 95.5338C179.788 98.0406 181.594 99.6848 183.023 98.7039C183.023 98.7039 184.147 101.058 186.392 100.494C188.638 99.9308 188.996 98.134 188.996 98.134C188.996 98.134 190.989 98.2741 191.042 96.7857C191.094 95.2972 189.637 93.9831 189.637 93.9831C189.637 93.9831 189.55 90.2806 187.146 90.3117C184.742 90.3429 184.393 93.7931 184.393 93.7931Z" fill="#455A64"/>
<path d="M186.047 106.913L186.539 95.8955L187.056 106.91L186.047 106.913Z" fill="#263238"/>
<path d="M186.389 100.021L184.842 96.9443L186.695 99.5476L186.389 100.021Z" fill="#263238"/>
<path d="M135.844 44.8381C135.602 44.7171 135.352 44.6131 135.096 44.5267C134.835 44.4277 134.562 44.3648 134.284 44.3398C134.199 44.3334 134.113 44.3429 134.031 44.3678C134.005 44.3778 133.979 44.3892 133.954 44.4021L133.904 44.4395C133.873 44.4613 133.848 44.4862 133.817 44.5111C133.707 44.6088 133.603 44.7128 133.505 44.8225C133.325 45.028 133.16 45.2429 132.998 45.464L133.2 45.3923C132.927 45.3143 132.65 45.256 132.369 45.218C132.225 45.198 132.081 45.1876 131.936 45.1868C131.859 45.186 131.782 45.1912 131.705 45.2024C131.663 45.2087 131.621 45.2191 131.581 45.2335C131.537 45.2494 131.496 45.2692 131.456 45.2927C131.332 45.3794 131.222 45.4844 131.129 45.6041C131.039 45.7162 130.961 45.8314 130.883 45.9497C130.736 46.1868 130.607 46.4345 130.497 46.6909C130.678 46.476 130.849 46.2611 131.033 46.0681C131.123 45.9653 131.213 45.8657 131.31 45.7754C131.397 45.6873 131.496 45.6108 131.603 45.548C131.703 45.5154 131.809 45.5048 131.914 45.5169C132.045 45.5256 132.175 45.5432 132.303 45.5698C132.565 45.6165 132.829 45.6819 133.085 45.7504L133.212 45.7847L133.287 45.6788C133.437 45.4671 133.599 45.2553 133.761 45.056C133.838 44.9557 133.921 44.8601 134.01 44.7695L134.075 44.7073L134.103 44.6824C134.149 44.664 134.197 44.6545 134.246 44.6543C134.503 44.6539 134.76 44.6789 135.012 44.7291C135.302 44.7353 135.579 44.7913 135.844 44.8381Z" fill="#263238"/>
<path d="M132.911 52.7609C132.593 52.5107 132.259 52.2818 131.911 52.0758C131.556 51.8542 131.173 51.6814 130.772 51.562C130.648 51.5283 130.519 51.5177 130.392 51.5309C130.349 51.5342 130.307 51.5447 130.267 51.562L130.183 51.5994C130.127 51.6243 130.083 51.6523 130.034 51.6772C129.854 51.7861 129.68 51.9046 129.513 52.0322C129.183 52.2813 128.891 52.5491 128.579 52.8231L128.891 52.7796C128.513 52.5858 128.123 52.4183 127.723 52.2782C127.519 52.2089 127.311 52.1517 127.1 52.1069C126.987 52.085 126.873 52.0715 126.758 52.0665C126.694 52.0619 126.631 52.0619 126.568 52.0665C126.502 52.0665 126.431 52.1007 126.368 52.1163C126.159 52.208 125.966 52.332 125.795 52.4837C125.633 52.6212 125.478 52.7678 125.331 52.9228C125.045 53.2263 124.784 53.5523 124.55 53.8975C124.861 53.6359 125.188 53.3712 125.518 53.1283C125.676 53.0034 125.84 52.887 126.01 52.7796C126.164 52.6751 126.33 52.5913 126.505 52.5304C126.67 52.5109 126.837 52.5279 126.994 52.5803C127.183 52.631 127.368 52.6944 127.549 52.7702C127.916 52.9166 128.29 53.0816 128.645 53.2653L128.822 53.3525L128.962 53.2186C129.243 52.9477 129.541 52.6861 129.84 52.4339C129.984 52.3084 130.135 52.1909 130.292 52.082C130.329 52.0602 130.367 52.0322 130.404 52.0135L130.454 51.9855C130.454 51.9855 130.454 51.9855 130.473 51.9855C130.545 51.9727 130.618 51.9727 130.691 51.9855C131.069 52.0594 131.44 52.1711 131.796 52.3187C132.167 52.4557 132.537 52.6114 132.911 52.7609Z" fill="#263238"/>
<path d="M71.7118 20.864C71.4949 20.7029 71.2671 20.5572 71.0298 20.428C70.7875 20.2901 70.5277 20.1854 70.2575 20.1166C70.1731 20.1017 70.0866 20.1017 70.0022 20.1166C69.9746 20.123 69.9476 20.1313 69.9212 20.1416L69.8652 20.1696C69.8319 20.1864 69.7997 20.2051 69.7686 20.2256C69.6509 20.3011 69.5376 20.3832 69.4292 20.4716C69.2143 20.646 69.0182 20.8297 68.822 21.0197L69.0306 20.9823C68.7744 20.863 68.5114 20.759 68.2428 20.6709C68.1058 20.6336 67.9656 20.5962 67.8193 20.5713C67.7432 20.5576 67.6661 20.5503 67.5889 20.5495C67.5464 20.5466 67.5037 20.5466 67.4612 20.5495C67.4167 20.5586 67.373 20.5711 67.3304 20.5869C67.1923 20.6531 67.0652 20.7403 66.9536 20.8453C66.8493 20.9435 66.7505 21.0475 66.6578 21.1567C66.473 21.3657 66.3043 21.5885 66.1533 21.8231C66.3651 21.6425 66.5706 21.4588 66.7761 21.2875C66.882 21.2034 66.991 21.1193 67.0875 21.0477C67.1833 20.9755 67.2879 20.9158 67.3989 20.8702C67.5082 20.8538 67.6197 20.8613 67.7259 20.892C67.8525 20.9233 67.9773 20.9617 68.0996 21.0072C68.3487 21.0975 68.6009 21.2034 68.8407 21.3186L68.9621 21.3716L69.0524 21.2813C69.233 21.0944 69.4292 20.9107 69.6223 20.7363C69.7153 20.65 69.813 20.569 69.915 20.4934C69.9399 20.4934 69.9648 20.4561 69.9897 20.4436L70.0209 20.4249C70.0209 20.4249 70.0209 20.4249 70.0364 20.4249C70.0838 20.4164 70.1323 20.4164 70.1797 20.4249C70.4334 20.4681 70.6826 20.5348 70.9239 20.6242C71.2073 20.6772 71.4658 20.7737 71.7118 20.864Z" fill="#263238"/>
<path d="M80.6551 19.7772C80.4259 19.4428 80.1741 19.1244 79.9015 18.8244C79.6287 18.5075 79.3145 18.2289 78.9673 17.996C78.8597 17.9273 78.7404 17.8787 78.6154 17.8528C78.5731 17.8463 78.53 17.8463 78.4877 17.8528C78.4566 17.851 78.4254 17.851 78.3943 17.8528L78.2293 17.8871C78.0245 17.9351 77.8227 17.9954 77.6252 18.0677C77.239 18.2078 76.8716 18.3791 76.4979 18.5472L76.8093 18.597C76.5054 18.3014 76.1819 18.0268 75.8409 17.775C75.6665 17.6461 75.4834 17.5296 75.2928 17.4262C75.1923 17.3708 75.0883 17.3219 74.9814 17.2798C74.9202 17.2602 74.8578 17.2446 74.7946 17.2331C74.7261 17.2283 74.6575 17.2283 74.589 17.2331C74.363 17.2588 74.1423 17.3198 73.9351 17.4137C73.7358 17.4978 73.549 17.5943 73.3621 17.694C72.9989 17.9003 72.6522 18.1346 72.3252 18.3946C72.7113 18.2389 73.0943 18.0832 73.4774 17.9462C73.6656 17.8737 73.858 17.8124 74.0534 17.7625C74.2308 17.7059 74.4154 17.6755 74.6015 17.6722C74.7636 17.7 74.9171 17.765 75.0499 17.8621C75.2151 17.9669 75.3732 18.0823 75.5232 18.2078C75.8346 18.4569 76.146 18.7309 76.4232 19.005L76.5664 19.142L76.7408 19.0548C77.0896 18.8804 77.4539 18.7185 77.812 18.5659C77.9865 18.4891 78.1653 18.4225 78.3476 18.3666C78.3895 18.3527 78.4321 18.3412 78.4753 18.3324H78.5313H78.5531C78.6258 18.3426 78.6963 18.3647 78.7618 18.3977C79.0999 18.5762 79.4201 18.7869 79.7178 19.0268C80.0323 19.2634 80.3374 19.5219 80.6551 19.7772Z" fill="#263238"/>
<path d="M144.663 50.8171C144.434 50.4827 144.182 50.1643 143.909 49.8643C143.637 49.5466 143.323 49.2679 142.975 49.0359C142.868 48.9654 142.749 48.9167 142.623 48.8927C142.581 48.8877 142.538 48.8877 142.496 48.8927H142.405C142.343 48.8927 142.293 48.9145 142.237 48.9238C142.034 48.9739 141.833 49.0352 141.636 49.1076C141.247 49.2477 140.879 49.419 140.506 49.5871L140.817 49.6369C140.514 49.3405 140.19 49.0657 139.849 48.8148C139.674 48.6861 139.491 48.5686 139.301 48.463C139.201 48.4073 139.097 48.3594 138.989 48.3197C138.929 48.2991 138.868 48.2834 138.806 48.273C138.737 48.2684 138.668 48.2684 138.6 48.273C138.373 48.2981 138.151 48.3591 137.943 48.4536C137.747 48.5351 137.557 48.6287 137.373 48.7339C137.009 48.9392 136.661 49.1724 136.333 49.4314C136.722 49.2788 137.102 49.12 137.488 48.983C137.678 48.9145 137.871 48.8491 138.061 48.7993C138.239 48.7457 138.424 48.7154 138.609 48.709C138.772 48.7396 138.926 48.8043 139.061 48.8989C139.225 49.0055 139.382 49.122 139.531 49.2477C139.842 49.4937 140.154 49.7708 140.431 50.0449L140.574 50.1819L140.749 50.0947C141.097 49.9203 141.462 49.7584 141.82 49.6058C141.994 49.5285 142.173 49.4609 142.355 49.4034L142.483 49.3722H142.539C142.539 49.3722 142.539 49.3722 142.561 49.3722C142.634 49.381 142.705 49.4032 142.77 49.4376C143.109 49.6213 143.429 49.8383 143.726 50.0853C144.04 50.3033 144.348 50.5618 144.663 50.8171Z" fill="#263238"/>
<path d="M24.516 69.028C20.749 69.2397 16.9731 69.2397 13.2061 69.028C16.9731 68.8162 20.749 68.8162 24.516 69.028Z" fill="#263238"/>
<path d="M15.7878 72.7491C11.9034 72.9608 8.01036 72.9608 4.12598 72.7491C8.01028 72.5342 11.9035 72.5342 15.7878 72.7491Z" fill="#263238"/>
<path d="M13.633 70.4385C9.10213 70.6502 4.53394 70.6502 0 70.4385C4.53394 70.2236 9.10213 70.2236 13.633 70.4385Z" fill="#263238"/>
<path d="M100.737 49.1168C96.9697 49.3286 93.1938 49.3286 89.4268 49.1168C93.1938 48.9051 96.9697 48.9051 100.737 49.1168Z" fill="#263238"/>
<path d="M84.2108 64.276C80.3254 64.4877 76.4313 64.4877 72.5459 64.276C76.4313 64.0643 80.3254 64.0643 84.2108 64.276Z" fill="#263238"/>
<path d="M90.433 61.5514C85.899 61.7631 81.3308 61.7631 76.7969 61.5514C81.3308 61.3396 85.899 61.3396 90.433 61.5514Z" fill="#263238"/>
<g opacity="0.8">
<path d="M3.34473 119.745L5.58678 119.34C5.58678 119.34 3.20148 116.893 4.65259 115.389C6.1037 113.885 8.32708 115.214 8.32708 115.214C8.32708 115.214 7.997 111.636 10.7622 110.889C13.5274 110.142 15.9656 115.491 15.9656 115.491C15.9656 115.491 16.3705 114.246 18.4381 114.729C20.5058 115.211 22.1375 118.036 22.1375 118.036L47.7499 119.748" fill="white"/>
<path d="M3.34473 119.745L5.58367 119.325C5.07614 118.837 4.67164 118.253 4.39413 117.606C3.65301 116.089 4.70553 114.676 6.32168 114.626C7.03832 114.627 7.74224 114.815 8.36444 115.171L8.28348 115.221C8.24699 114.681 8.28259 114.138 8.38936 113.607C8.78794 111.219 11.2449 109.78 13.2254 111.552C14.4709 112.595 15.3211 114.015 16.0279 115.46H15.8971C16.0345 115.137 16.2893 114.878 16.6102 114.735C18.2482 114.071 19.9578 115.196 21.0009 116.407C21.4428 116.883 21.8255 117.411 22.1406 117.98L47.7499 119.739L22.1344 118.076C22.1033 118.076 22.1095 118.076 22.0939 118.051C21.7511 117.497 21.3581 116.976 20.92 116.494C20.0636 115.538 18.9364 114.682 17.5974 114.688C16.9746 114.663 16.2708 114.918 16.0404 115.519L15.9781 115.666L15.9096 115.526C15.2089 114.109 14.3526 112.723 13.1413 111.674C11.8334 110.478 10.0709 110.718 9.09311 112.181C8.55316 113.098 8.31158 114.16 8.40181 115.221V115.317L8.31773 115.27C7.71327 114.922 7.02889 114.735 6.33102 114.729C5.31898 114.729 4.21041 115.495 4.23532 116.581C4.26023 117.668 4.93596 118.584 5.61792 119.359H5.59613L3.35095 119.751L3.34473 119.745Z" fill="#263238"/>
</g>
<g opacity="0.8">
<path d="M9.46973 119.745L11.7087 119.34C11.7087 119.34 9.32337 116.892 10.7745 115.388C12.2256 113.884 14.449 115.214 14.449 115.214C14.449 115.214 14.1064 111.636 16.8747 110.886C19.6431 110.135 22.0751 115.488 22.0751 115.488C22.0751 115.488 22.483 114.242 24.5476 114.725C26.6121 115.208 28.247 118.032 28.247 118.032L53.8594 119.745" fill="white"/>
<path d="M9.46973 119.745L11.7056 119.325C11.2 118.835 10.7958 118.251 10.516 117.606C9.77489 116.089 10.8274 114.676 12.4436 114.626C13.1582 114.628 13.86 114.816 14.4801 115.171L14.4023 115.221C14.3658 114.681 14.4014 114.138 14.5081 113.607C14.9036 111.219 17.3605 109.78 19.341 111.552C20.5866 112.595 21.4398 114.015 22.1436 115.46H22.0159C22.1533 115.137 22.4081 114.878 22.729 114.735C24.367 114.071 26.0734 115.196 27.1166 116.407C27.5585 116.883 27.9412 117.411 28.2563 117.98L53.8656 119.739L28.2501 118.076C28.2189 118.076 28.2252 118.076 28.2127 118.051C27.8678 117.499 27.475 116.978 27.0387 116.494C26.1824 115.538 25.052 114.682 23.7161 114.688C23.0933 114.663 22.3896 114.918 22.1592 115.519L22.1 115.666L22.0315 115.526C21.3277 114.109 20.4745 112.723 19.26 111.674C17.9522 110.478 16.1897 110.718 15.2119 112.181C14.671 113.098 14.4284 114.16 14.5175 115.221V115.317L14.4334 115.27C13.8295 114.92 13.1448 114.733 12.4467 114.729C11.4346 114.729 10.3261 115.495 10.351 116.581C10.3759 117.668 11.0516 118.584 11.7367 119.359H11.7118L9.46973 119.751V119.745Z" fill="#263238"/>
</g>
<path d="M102.203 60.813C100.158 62.6222 98.0027 65.1134 95.2717 65.8296C93.1293 66.3839 90.8779 65.7517 88.9659 64.7615C84.7589 62.5817 80.7699 58.0073 82.2242 52.9502C82.8065 50.9293 85.4689 48.5284 87.7484 49.2757C88.9161 49.6619 89.8067 50.5213 90.7814 51.2344C91.369 51.6965 92.0532 52.0204 92.783 52.1821C93.5129 52.3438 94.2698 52.3392 94.9977 52.1686C98.0431 51.5085 99.4662 50.0106 101.985 48.3291C102.224 48.1462 102.498 48.0147 102.79 47.9429C103.082 47.8711 103.386 47.8605 103.683 47.9118C104.976 48.1821 106.137 48.8931 106.965 49.9234C107.693 51.0538 107.535 52.8257 107.587 54.1117C107.64 55.3978 107.301 56.2915 106.326 57.1852C104.965 58.4152 103.577 59.6048 102.203 60.813Z" fill="#263238"/>
<path d="M101.413 61.878C103.181 60.1093 104.913 58.3063 106.66 56.5158C106.66 56.5158 106.66 56.4846 106.66 56.4971C105.181 57.9295 103.683 59.3401 102.222 60.7912C100.762 62.2424 99.4197 63.7775 97.8627 65.0698C94.3813 67.9752 90.0248 65.4933 87.7859 62.3482C87.6831 62.205 87.4745 62.3825 87.5741 62.5226C89.6293 65.2224 93.0641 67.6544 96.5766 66.1473C98.4855 65.3252 99.9646 63.326 101.413 61.878Z" fill="#263238"/>
<path d="M102.31 48.3442C102.347 48.3131 102.31 48.2602 102.26 48.2882C100.245 49.758 98.0343 51.6637 95.4528 51.916C94.1814 52.0378 92.9029 51.773 91.7845 51.1562C90.9002 50.6642 90.2525 49.9106 89.4895 49.266C86.5095 46.753 82.4551 49.9573 82.6232 53.3858C82.6232 53.4574 82.7509 53.4543 82.7509 53.3858C82.7509 50.8946 84.5508 48.6058 87.1727 48.5498C89.2778 48.5031 90.4019 50.7513 92.1987 51.5516C95.923 53.202 99.5321 50.6704 102.31 48.3442Z" fill="#263238"/>
<path d="M88.9038 73.2934C88.9038 73.2934 88.6765 71.1416 88.689 70.6963C88.7014 70.251 90.9746 68.7158 90.9746 68.7158C90.9746 68.7158 91.5102 64.6054 91.94 63.6774C92.0583 63.419 95.9352 63.0546 96.4396 63.5155C96.9441 63.9764 99.4259 73.4615 99.4259 73.4615L88.9038 73.2934Z" fill="#00FEBE"/>
<path opacity="0.5" d="M88.9038 73.2934C88.9038 73.2934 88.6765 71.1416 88.689 70.6963C88.7014 70.251 90.9746 68.7158 90.9746 68.7158C90.9746 68.7158 91.5102 64.6054 91.94 63.6774C92.0583 63.419 95.9352 63.0546 96.4396 63.5155C96.9441 63.9764 99.4259 73.4615 99.4259 73.4615L88.9038 73.2934Z" fill="white"/>
<path d="M103.268 62.3416C105.448 66.7012 108.979 71.7053 110.119 72.3779C111.58 73.228 118.916 73.1595 119.318 73.1066C120.311 72.9696 120.233 66.2278 119.165 66.3275C117.543 66.4801 113.096 67.1091 112.669 66.8413C112.243 66.5735 109.082 64.1041 105.775 61.2704C103.505 59.3117 101.917 59.6387 103.268 62.3416Z" fill="#D3766A"/>
<path d="M122.171 65.6304C123.347 65.3802 124.573 65.5349 125.649 66.0695C126.655 66.5677 126.864 68.3022 126.683 68.6852C126.503 69.0682 124.989 71.276 123.977 70.7996C122.965 70.3231 124.441 68.7724 124.503 68.5451C124.566 68.3177 124.653 68.0281 124.454 67.9596C124.254 67.8911 120.156 67.8942 120.156 67.8942L122.171 65.6304Z" fill="#D3766A"/>
<path d="M122.351 65.5957C122.407 65.6206 125.627 65.8324 126.633 66.3306C127.639 66.8288 127.844 68.5633 127.663 68.9463C127.483 69.3294 125.973 71.5372 124.96 71.0607C123.948 70.5843 125.424 69.0335 125.487 68.8062C125.549 68.5789 125.636 68.2924 125.434 68.2208C125.231 68.1492 121.14 68.1554 121.14 68.1554L122.351 65.5957Z" fill="#D3766A"/>
<path d="M124.677 70.7688C124.654 70.5366 124.693 70.3024 124.789 70.09C124.872 69.8664 124.987 69.6564 125.132 69.4672C125.275 69.3123 125.404 69.1456 125.518 68.9689C125.606 68.7815 125.645 68.5746 125.63 68.3679C125.63 68.1873 125.45 68.1655 125.3 68.15C125.077 68.1375 124.854 68.1375 124.631 68.15L123.914 68.1749C123.667 68.1738 123.419 68.1883 123.173 68.2185C123.17 68.2199 123.167 68.2223 123.165 68.2254C123.163 68.2284 123.162 68.232 123.162 68.2356C123.162 68.2392 123.163 68.2428 123.165 68.2458C123.167 68.2489 123.17 68.2513 123.173 68.2527C123.381 68.2637 123.589 68.2637 123.796 68.2527C124.03 68.2527 124.266 68.2527 124.5 68.2527C124.733 68.2527 124.939 68.2527 125.16 68.2527C125.266 68.2414 125.373 68.2574 125.471 68.2994C125.54 68.3524 125.471 68.561 125.471 68.6295C125.429 68.832 125.327 69.0173 125.179 69.162C125.039 69.3173 124.916 69.4863 124.811 69.6665C124.71 69.835 124.64 70.0208 124.606 70.2145C124.594 70.399 124.605 70.5842 124.64 70.7657C124.64 70.7999 124.68 70.7937 124.677 70.7688Z" fill="#263238"/>
<path d="M122.818 65.5155C122.881 65.5155 126.079 65.1013 127.162 65.3909C128.246 65.6805 128.794 67.3371 128.691 67.7482C128.589 68.1592 127.545 70.6255 126.459 70.3546C125.372 70.0836 126.515 68.2775 126.527 68.044C126.54 67.8105 126.574 67.5084 126.362 67.4773C126.15 67.4461 122.14 68.2651 122.14 68.2651L122.818 65.5155Z" fill="#D3766A"/>
<path d="M126.122 70.1267C126.055 69.903 126.048 69.6659 126.1 69.4385C126.134 69.2005 126.206 68.9693 126.312 68.7534C126.419 68.5718 126.513 68.3824 126.592 68.1866C126.644 67.9823 126.644 67.7682 126.592 67.5639C126.545 67.3895 126.371 67.4019 126.221 67.4175C126 67.4441 125.781 67.4847 125.564 67.5389C125.331 67.5888 125.1 67.6479 124.867 67.7009C124.624 67.7505 124.385 67.815 124.151 67.8939C124.132 67.8939 124.135 67.9282 124.151 67.9251C124.36 67.8992 124.568 67.8618 124.773 67.813L125.468 67.6822C125.683 67.6448 125.898 67.595 126.115 67.5607C126.218 67.5354 126.325 67.5354 126.427 67.5607C126.505 67.5981 126.495 67.813 126.495 67.8721C126.493 68.0787 126.431 68.2802 126.315 68.4513C126.208 68.6304 126.12 68.8204 126.053 69.0181C125.988 69.2041 125.957 69.4002 125.96 69.5973C125.986 69.7799 126.034 69.9587 126.103 70.1298C126.091 70.164 126.131 70.1485 126.122 70.1267Z" fill="#263238"/>
<path d="M122.661 76.0793L124.163 76.8418L129.538 66.2511L128.036 65.4887L122.661 76.0793Z" fill="#263238"/>
<path d="M129.799 71.2306L126.804 70.1201L126.143 71.9012L129.139 73.0117L129.799 71.2306Z" fill="#263238"/>
<path d="M130.805 71.1995L128.857 70.4775L127.931 72.9769L129.878 73.6988L130.805 71.1995Z" fill="#263238"/>
<path d="M117.88 66.7362C117.88 66.7362 121.505 65.7211 122.352 65.5965C123.473 65.4284 125.232 65.9795 125.291 66.8732C125.291 67.1317 124.176 68.2154 124.095 68.4302C123.865 69.0063 123.905 70.2986 124.861 70.7252C125.817 71.1518 127.079 70.0588 128.016 70.3142C128.953 70.5695 127.633 71.8899 126.587 72.5189C125.526 73.1016 124.322 73.3715 123.114 73.2974C122.155 73.2195 119.116 73.1136 119.116 73.1136L117.88 66.7362Z" fill="#D3766A"/>
<path d="M126.343 70.5998C125.858 70.7057 125.288 70.8707 124.811 70.6683C124.335 70.4659 124.154 69.9957 124.117 69.4975C124.054 68.9936 124.185 68.4846 124.484 68.0744C124.786 67.7196 125.184 67.4591 125.63 67.3239C126.176 67.1614 126.742 67.0786 127.312 67.0779C127.337 67.0779 127.33 67.0374 127.312 67.0374C126.785 67.0374 125.176 66.9409 124.341 68.0059C124.039 68.4265 123.908 68.9466 123.977 69.4601C123.965 69.7017 124.014 69.9423 124.12 70.16C124.225 70.3776 124.384 70.5652 124.581 70.7057C125.116 71.0171 125.811 70.7866 126.371 70.6372C126.39 70.6185 126.368 70.5936 126.343 70.5998Z" fill="#263238"/>
<path d="M119.109 65.8326L118.545 74.0535C118.545 74.0535 111.567 73.767 110.063 72.7674C108.559 71.7679 104.751 65.6614 103.324 62.5972C101.898 59.5331 103.545 59.2217 105.532 60.8876C107.519 62.5536 112.433 66.5769 112.669 66.6329C112.906 66.689 119.109 65.8326 119.109 65.8326Z" fill="#455A64"/>
<path d="M117.086 70.8119C117.16 69.8403 117.241 68.8687 117.279 67.8941C117.3 67.3398 117.325 66.7886 117.344 66.2343C117.344 66.2125 117.307 66.2094 117.307 66.2343C117.191 67.2059 117.082 68.1806 117.011 69.1583C116.939 70.1361 116.868 71.1015 116.812 72.073C116.78 72.6273 116.765 73.1785 116.768 73.7328H116.787C116.93 72.7643 117.011 71.7896 117.086 70.8119Z" fill="#263238"/>
<path d="M118.59 73.2342L118.534 74.0532C118.534 74.0532 111.552 73.7667 110.051 72.7703C108.55 71.7738 104.739 65.6611 103.313 62.5969C102.27 60.358 102.871 59.5857 104.045 59.9874C107.694 63.2446 114.588 69.4414 118.59 73.2342Z" fill="#37474F"/>
<path d="M93.3477 75.679L109.674 75.9468L108.394 71.0579C108.394 71.0579 109.749 69.8123 109.076 67.3554C108.687 65.9167 106.878 63.2013 105.741 61.8343C102.967 58.4992 100.557 60.0064 99.7874 60.8628C96.8509 64.1386 93.3477 75.679 93.3477 75.679Z" fill="#455A64"/>
<path d="M100.485 60.2832L104.125 60.3673L104.272 60.4638L100.351 60.3735C100.395 60.3424 100.426 60.3112 100.485 60.2832ZM99.2146 61.5942L105.66 61.7405L105.58 61.644L99.2831 61.5008L99.2146 61.5942ZM98.4454 62.818L106.644 63.0079L106.576 62.9145L98.5015 62.7308C98.481 62.7587 98.4623 62.7878 98.4454 62.818ZM97.7946 64.0636L107.504 64.2878C107.482 64.2566 107.463 64.2224 107.442 64.1881L97.8382 63.9701C97.8226 63.9888 97.807 64.02 97.7946 64.0511V64.0636ZM97.2029 65.3091L108.264 65.5614L108.211 65.4711L97.2465 65.2188L97.2029 65.3091ZM96.6611 66.5547L108.883 66.835C108.883 66.8039 108.859 66.7727 108.846 66.7385L96.7016 66.4613L96.6611 66.5547ZM96.1504 67.7847L109.229 68.0961C109.229 68.0681 109.229 68.037 109.229 68.0058L96.2065 67.6945C96.1722 67.6882 96.1597 67.7194 96.1504 67.7474V67.7847ZM95.6615 69.0303L109.217 69.3417C109.217 69.3106 109.217 69.2795 109.217 69.2483L95.6864 68.9369L95.6615 69.0303ZM95.1975 70.2759L108.793 70.5873L108.843 70.497L95.2318 70.1856L95.1975 70.2759ZM94.7522 71.5215L108.578 71.8329L108.553 71.7395L94.7865 71.4281C94.7709 71.3907 94.7647 71.4219 94.7522 71.453V71.5215ZM94.3194 72.7671L108.905 73.1034L108.88 73.01L94.3536 72.5865C94.3445 72.6204 94.3331 72.6537 94.3194 72.6861V72.7671ZM93.9084 74.0127L109.235 74.3646L109.21 74.268L93.9519 73.9193L93.9084 74.0127ZM93.5098 75.2583L109.562 75.6257L109.537 75.5292L93.5378 75.0777C93.5253 75.0995 93.5191 75.1337 93.5098 75.1617V75.2583Z" fill="white"/>
<path d="M104.025 70.7714C104.723 70.7087 105.424 70.6972 106.124 70.7371C106.473 70.7621 106.815 70.8025 107.161 70.8493C107.332 70.8742 107.506 70.8928 107.678 70.9084C107.858 70.9317 108.04 70.9317 108.22 70.9084C108.238 70.9084 108.241 70.9302 108.22 70.9333C108.053 70.9737 107.883 71.0018 107.712 71.0174C107.546 71.0283 107.38 71.0283 107.214 71.0174C106.859 70.9956 106.507 70.9582 106.155 70.9302C105.445 70.8804 104.735 70.8306 104.022 70.8306C104.016 70.8282 104.011 70.824 104.007 70.8185C104.003 70.8129 104.002 70.8064 104.002 70.7998C104.002 70.7933 104.005 70.787 104.009 70.7819C104.013 70.7768 104.019 70.7731 104.025 70.7714Z" fill="#263238"/>
<path d="M102.437 71.6872C102.993 71.5263 103.558 71.3963 104.128 71.298C104.411 71.2481 104.698 71.217 104.987 71.1921L105.398 71.1641C105.551 71.1641 105.71 71.1641 105.856 71.1641C105.872 71.1641 105.878 71.1859 105.856 71.1859C105.716 71.2014 105.573 71.2388 105.433 71.2606L105.006 71.326L104.15 71.463C103.58 71.5471 103.01 71.6343 102.443 71.737C102.415 71.7401 102.409 71.6965 102.437 71.6872Z" fill="#263238"/>
<path d="M101.712 60.4428C101.796 60.7355 103.3 62.5821 104.648 62.4513C105.087 62.4077 104.959 60.0037 104.959 60.0037L104.991 59.8262L105.408 57.3288L102.394 55.5974L101.958 55.3701C101.958 55.3701 101.886 56.0676 101.802 56.9271V57.0517C101.802 57.1015 101.802 57.1482 101.786 57.1918C101.771 57.3226 101.758 57.4534 101.746 57.5873C101.733 57.7212 101.73 57.7834 101.724 57.8987C101.718 58.0139 101.724 58.1073 101.702 58.2101C101.655 58.9537 101.658 59.6996 101.712 60.4428Z" fill="#D3766A"/>
<path d="M101.814 56.924C102.101 57.6102 102.533 58.226 103.081 58.7287C103.629 59.2314 104.279 59.6091 104.988 59.8355L105.408 57.3288L102.394 55.5974L101.958 55.3701C101.958 55.3701 101.899 56.0583 101.814 56.924Z" fill="#263238"/>
<path d="M108.628 52.8006C109.817 57.1197 107.382 58.3186 106.448 58.5739C105.604 58.8075 102.696 59.4894 101.067 55.3167C99.4383 51.144 101.048 49.232 102.96 48.6092C104.872 47.9864 107.438 48.4846 108.628 52.8006Z" fill="#D3766A"/>
<path d="M107.815 52.225C107.709 52.225 107.61 52.225 107.504 52.225C107.397 52.2418 107.288 52.2244 107.192 52.1751C107.165 52.1534 107.146 52.1234 107.138 52.0896C107.129 52.0559 107.132 52.0203 107.146 51.9883C107.183 51.9283 107.235 51.8794 107.298 51.8465C107.36 51.8137 107.43 51.7981 107.501 51.8015C107.645 51.7878 107.789 51.8277 107.906 51.9136C107.935 51.9341 107.957 51.9632 107.969 51.9969C107.981 52.0307 107.982 52.0673 107.972 52.1016C107.962 52.1359 107.941 52.1663 107.913 52.1884C107.885 52.2105 107.851 52.2233 107.815 52.225Z" fill="#263238"/>
<path d="M104.786 52.8383C104.885 52.8009 104.969 52.7511 105.066 52.7044C105.17 52.6701 105.26 52.6022 105.321 52.5113C105.336 52.479 105.339 52.4427 105.331 52.4083C105.322 52.3739 105.302 52.3433 105.275 52.3214C105.213 52.2861 105.144 52.2676 105.074 52.2676C105.003 52.2676 104.934 52.2861 104.873 52.3214C104.736 52.3752 104.625 52.4787 104.561 52.611C104.545 52.6425 104.54 52.6782 104.545 52.7132C104.55 52.7481 104.567 52.7805 104.591 52.8056C104.616 52.8308 104.648 52.8475 104.683 52.8534C104.718 52.8593 104.754 52.854 104.786 52.8383Z" fill="#263238"/>
<path d="M105.791 53.8564C105.791 53.8564 105.769 53.8782 105.775 53.8907C105.865 54.1803 105.918 54.5135 105.682 54.7003C105.682 54.7003 105.682 54.7221 105.682 54.7159C105.999 54.582 105.921 54.118 105.791 53.8564Z" fill="#263238"/>
<path d="M105.443 53.623C104.96 53.7164 105.184 54.6755 105.633 54.5883C106.081 54.5011 105.848 53.542 105.443 53.623Z" fill="#263238"/>
<path d="M105.265 53.7161C105.196 53.7908 105.137 53.9061 105.037 53.9403C104.938 53.9746 104.81 53.8998 104.726 53.822C104.767 54.0088 104.882 54.1801 105.084 54.1614C105.287 54.1427 105.361 53.9497 105.364 53.7566C105.336 53.7317 105.296 53.6881 105.265 53.7161Z" fill="#263238"/>
<path d="M107.426 53.4082C107.426 53.4082 107.451 53.4082 107.454 53.4269C107.513 53.7383 107.628 54.0497 107.921 54.0995V54.1151C107.588 54.1431 107.432 53.7009 107.426 53.4082Z" fill="#263238"/>
<path d="M107.619 53.0342C108.089 52.891 108.344 53.8407 107.912 53.9684C107.479 54.0961 107.226 53.1556 107.619 53.0342Z" fill="#263238"/>
<path d="M107.837 53.0435C107.924 53.0747 108.023 53.1463 108.114 53.1276C108.204 53.1089 108.269 52.9844 108.31 52.8691C108.31 52.8691 108.31 52.8691 108.325 52.8691C108.365 52.9483 108.374 53.0389 108.353 53.1246C108.331 53.2102 108.279 53.2853 108.207 53.3362C108.055 53.411 107.896 53.2864 107.805 53.1151C107.787 53.0902 107.799 53.0342 107.837 53.0435Z" fill="#263238"/>
<path d="M106.342 56.3012C106.419 56.3764 106.519 56.4226 106.626 56.4319C106.738 56.4088 106.844 56.3621 106.937 56.2949C106.937 56.2949 106.959 56.2949 106.953 56.2949C106.922 56.3622 106.873 56.4197 106.811 56.4609C106.75 56.5021 106.678 56.5255 106.604 56.5285C106.54 56.5263 106.477 56.5041 106.426 56.4651C106.375 56.426 106.337 56.372 106.318 56.3105C106.296 56.3043 106.318 56.2949 106.342 56.3012Z" fill="#263238"/>
<path d="M107.302 54.9242C107.386 55.1279 107.46 55.3358 107.523 55.547C107.523 55.5688 107.482 55.5906 107.411 55.6124C107.24 55.6897 107.052 55.7184 106.866 55.6953C106.68 55.6723 106.505 55.5983 106.358 55.4816C106.339 55.466 106.358 55.438 106.383 55.4442C106.694 55.5594 107.033 55.5725 107.352 55.4816C107.352 55.4193 107.04 54.7591 107.068 54.7498C107.233 54.726 107.401 54.726 107.566 54.7498C107.236 53.8498 106.766 53.0122 106.452 52.1091C106.451 52.1028 106.452 52.0964 106.456 52.0909C106.459 52.0853 106.464 52.0809 106.469 52.0782C106.475 52.0754 106.482 52.0746 106.488 52.0756C106.494 52.0767 106.5 52.0797 106.505 52.0842C107.037 52.9722 107.479 53.911 107.825 54.8868C107.862 54.9896 107.395 54.9397 107.302 54.9242Z" fill="#263238"/>
<path d="M107.354 55.5318C107.283 55.7324 107.162 55.9114 107.002 56.0519C106.914 56.125 106.805 56.1695 106.691 56.1795C106.439 56.1795 106.361 55.9802 106.345 55.7841C106.333 55.6806 106.333 55.5761 106.345 55.4727C106.666 55.5999 107.02 55.6207 107.354 55.5318Z" fill="#263238"/>
<path d="M107.003 56.0518C106.914 56.1249 106.806 56.1695 106.691 56.1795C106.439 56.1795 106.361 55.9802 106.346 55.784C106.469 55.7495 106.601 55.7571 106.72 55.8055C106.839 55.854 106.938 55.9407 107.003 56.0518Z" fill="#FF9BBC"/>
<path d="M101.263 55.8177C101.516 55.6197 101.714 55.3598 101.837 55.063C101.961 54.7663 102.005 54.4428 101.967 54.1237C102.667 53.623 103.22 52.9447 103.571 52.1588C103.571 52.2553 103.487 52.956 103.437 53.311C106.124 52.1993 106.551 49.8856 106.551 49.8856C107.189 50.2641 107.734 50.7814 108.145 51.399C108.145 51.399 107.803 49.6801 106.675 48.7179C106.304 48.3767 105.849 48.1411 105.356 48.0354C104.863 47.9298 104.351 47.9579 103.873 48.1169C103.147 48.0966 102.428 48.272 101.793 48.6249C101.158 48.9777 100.63 49.4949 100.264 50.1223C98.8686 52.4764 101.263 55.8177 101.263 55.8177Z" fill="#263238"/>
<path d="M105.467 52.3986C105.069 52.7397 104.623 53.0199 104.144 53.2301C104.885 52.849 105.505 52.2688 105.934 51.5547C106.116 51.25 106.258 50.9236 106.358 50.5832C106.482 50.2147 106.532 49.8252 106.504 49.4372C106.504 49.4092 106.544 49.4061 106.548 49.4372C106.613 49.8175 106.613 50.2061 106.548 50.5863C106.472 50.9616 106.327 51.3195 106.121 51.6419C105.938 51.9278 105.714 52.1858 105.458 52.408L105.467 52.3986Z" fill="#263238"/>
<path d="M100.195 55.7718L100.002 55.7188C100.027 55.6285 100.251 54.8438 100.665 54.6819C101.079 54.52 103.698 54.2117 103.81 54.1992L103.832 54.3954C103.075 54.4857 101.03 54.7473 100.737 54.8656C100.444 54.9839 100.251 55.5476 100.195 55.7718Z" fill="#A6A6A6"/>
<path d="M106.551 53.9964L106.396 53.875C106.576 53.6445 107.018 53.2864 107.464 53.5885L107.351 53.7504C106.965 53.4795 106.57 53.9777 106.551 53.9964Z" fill="#A6A6A6"/>
<g opacity="0.9">
<path d="M105.672 55.7118C105.557 55.7524 105.436 55.7795 105.314 55.7928C105.039 55.8203 104.761 55.7697 104.512 55.6469C104.264 55.5241 104.055 55.334 103.909 55.0982C103.764 54.8624 103.687 54.5905 103.688 54.3134C103.69 54.0362 103.769 53.7651 103.917 53.5308C104.065 53.2965 104.276 53.1085 104.526 52.9883C104.775 52.868 105.054 52.8204 105.329 52.8507C105.605 52.881 105.866 52.9881 106.084 53.1598C106.301 53.3314 106.466 53.5608 106.56 53.8216C106.614 53.9694 106.644 54.1251 106.647 54.2825C106.655 54.5928 106.565 54.8977 106.39 55.1541C106.215 55.4105 105.964 55.6056 105.672 55.7118Z" fill="#37474F"/>
<g opacity="0.1">
<path d="M105.533 52.8848L103.78 54.8155C103.69 54.5617 103.671 54.288 103.727 54.0245L104.735 52.9097C104.994 52.8286 105.27 52.82 105.533 52.8848Z" fill="white"/>
<path d="M106.392 53.4893L104.474 55.6161C104.391 55.569 104.311 55.5148 104.237 55.4542L106.224 53.2744C106.287 53.3404 106.343 53.4124 106.392 53.4893Z" fill="white"/>
<path d="M106.585 53.9031L104.885 55.7715H104.819L106.566 53.8408L106.585 53.9031Z" fill="white"/>
</g>
</g>
<g opacity="0.9">
<path d="M108.725 55.0393C108.693 55.0421 108.66 55.0421 108.628 55.0393C108.065 55.0954 107.498 54.5691 107.336 53.8124C107.25 53.4541 107.28 53.0778 107.423 52.7381C107.477 52.5905 107.568 52.4591 107.687 52.3559C107.806 52.2528 107.949 52.1813 108.102 52.148C108.256 52.1148 108.416 52.1209 108.566 52.1658C108.717 52.2107 108.854 52.293 108.965 52.4049C109.231 52.6545 109.413 52.9811 109.485 53.3391C109.662 54.1581 109.316 54.9147 108.725 55.0393Z" fill="#37474F"/>
<g opacity="0.1">
<path d="M109.482 53.3449L108.058 54.9019C107.89 54.7995 107.744 54.6626 107.632 54.5002L109.232 52.7314C109.352 52.9192 109.436 53.1271 109.482 53.3449Z" fill="white"/>
<path d="M108.675 52.2239L107.317 53.7249C107.316 53.701 107.316 53.6771 107.317 53.6533L108.631 52.2021L108.675 52.2239Z" fill="white"/>
</g>
</g>
<path d="M101.36 56.8179C101.431 56.8268 101.504 56.8268 101.575 56.8179C101.646 56.8185 101.717 56.8069 101.784 56.7837C101.871 56.7597 101.952 56.7161 102.02 56.656C102.075 56.6102 102.124 56.5567 102.164 56.4972C102.221 56.4131 102.262 56.3192 102.285 56.22L101.824 55.0866C101.824 55.0866 100.61 53.8908 100.049 54.3485C99.4886 54.8063 100.585 56.6809 101.36 56.8179Z" fill="#D3766A"/>
<path d="M100.382 54.887C100.382 54.887 100.382 54.9056 100.382 54.9088C100.639 54.9819 100.879 55.1084 101.084 55.2801C101.29 55.4518 101.457 55.6648 101.574 55.9052C101.535 55.8592 101.486 55.8222 101.431 55.7969C101.376 55.7715 101.316 55.7584 101.255 55.7584C101.195 55.7584 101.135 55.7715 101.08 55.7969C101.025 55.8222 100.976 55.8592 100.936 55.9052C100.936 55.9052 100.936 55.9332 100.958 55.9301C101.043 55.8845 101.139 55.8664 101.235 55.8781C101.33 55.8898 101.419 55.9308 101.49 55.9955C101.605 56.1069 101.71 56.2289 101.802 56.3599C101.833 56.4003 101.911 56.3599 101.883 56.31C101.774 55.6468 101.095 54.8371 100.382 54.887Z" fill="#263238"/>
<path d="M99.3547 61.3236C96.8635 63.8148 90.6792 73.3871 92.4729 75.2337C94.2665 77.0803 105.147 74.8538 108.086 73.574C108.958 73.194 105.374 67.6014 104.35 67.7415C103.503 67.8598 99.1399 69.4293 99.0246 69.177C98.9094 68.9248 99.6474 66.8509 100.812 63.1484C102.17 58.8854 100.454 60.2212 99.3547 61.3236Z" fill="#D3766A"/>
<path d="M102.456 69.4234C103.611 68.2599 104.895 67.2319 106.283 66.3592C107.635 65.5714 110.764 64.1794 114.837 66.4589C115.806 67.0007 116.799 68.4549 114.899 68.1466C113.551 67.9255 112.763 67.3806 111.954 67.3962C111.954 67.3962 113 69.3953 112.421 70.342C111.915 71.171 111.351 71.9629 110.733 72.7117C110.571 72.6288 110.414 72.5362 110.263 72.4346C110.263 72.4346 109.64 73.2691 108.083 73.5774L102.456 69.4234Z" fill="#D3766A"/>
<path d="M107.693 65.8105C108.497 65.9631 110.185 66.3181 111.486 67.0935C112.922 67.953 115.45 69.9957 114.803 71.0482C114.329 71.8205 113.295 71.123 113.295 71.123C113.295 71.123 114.164 72.188 113.582 72.7921C113.056 73.3401 112.286 72.7547 112.286 72.7547C112.286 72.7547 112.701 73.4927 112.09 73.9224C111.355 74.4394 110.605 72.8139 109.409 72.6955C109.144 72.6675 107.693 65.8105 107.693 65.8105Z" fill="#D3766A"/>
<path d="M110.328 68.4574C111.562 69.0123 112.599 69.9302 113.298 71.0888C113.314 71.1199 113.298 71.1479 113.28 71.123C112.403 70.1224 111.409 69.2315 110.318 68.4699C110.318 68.4699 110.318 68.4543 110.328 68.4574Z" fill="#263238"/>
<path d="M109.5 69.9273C110.67 70.5922 111.638 71.5604 112.303 72.7298C112.303 72.761 112.303 72.789 112.284 72.7641C111.46 71.7189 110.519 70.7703 109.481 69.9366C109.481 69.9366 109.494 69.9241 109.5 69.9273Z" fill="#263238"/>
<path d="M111.947 67.3806C112.598 67.4025 113.24 67.5395 113.843 67.7854C114.172 67.8987 114.507 67.9923 114.846 68.0657C115.158 68.1311 115.612 68.2307 115.827 67.9193C115.873 67.8296 115.893 67.7291 115.886 67.6288C115.879 67.5284 115.844 67.4318 115.787 67.3494C115.626 67.1136 115.431 66.9036 115.207 66.7266C115.207 66.7266 115.207 66.7049 115.207 66.7111C115.423 66.8721 115.621 67.0547 115.799 67.256C115.917 67.395 115.991 67.5665 116.011 67.748C116.011 68.1373 115.612 68.3117 115.282 68.3023C115.083 68.2897 114.886 68.2584 114.694 68.2089C114.51 68.1653 114.326 68.1124 114.142 68.0563C113.769 67.938 113.404 67.801 113.031 67.6795C112.671 67.5689 112.305 67.4815 111.935 67.4179L111.947 67.3806Z" fill="#263238"/>
<path d="M114.009 69.2643C113.361 68.5974 112.67 67.9732 111.941 67.3959C111.941 67.3959 111.941 67.3741 111.941 67.3773C112.736 67.8577 113.469 68.4351 114.121 69.0962C114.474 69.4527 114.753 69.8762 114.94 70.3418C115.024 70.5277 115.033 70.7391 114.965 70.9313C114.896 71.1236 114.756 71.2817 114.573 71.3725C114.385 71.467 114.171 71.4955 113.965 71.4534C113.72 71.3874 113.49 71.273 113.29 71.1171C113.29 71.1171 113.29 71.0922 113.29 71.0985C113.454 71.2151 113.642 71.2926 113.841 71.325C114.04 71.3573 114.243 71.3438 114.436 71.2853C114.596 71.2183 114.724 71.0908 114.791 70.9303C114.843 70.7358 114.823 70.529 114.735 70.348C114.554 69.9494 114.309 69.5832 114.009 69.2643Z" fill="#263238"/>
<path d="M103.076 67.9781L106.131 75.0219C106.131 75.0219 93.1456 77.4757 92.118 75.1932C91.0904 72.9106 96.3873 64.2943 98.7321 61.8249C101.447 58.9507 101.746 59.9721 101.08 62.5785C100.382 65.3063 99.0808 69.2424 99.0808 69.2424L103.076 67.9781Z" fill="#455A64"/>
<path d="M95.0947 70.9555C95.708 70.5627 96.3491 70.2151 97.0129 69.9154C97.6696 69.6208 98.3472 69.3751 99.0401 69.1805C99.4325 69.0653 99.8311 68.9688 100.23 68.8691C100.23 68.8691 100.245 68.8847 100.23 68.8878C99.5343 69.0864 98.8512 69.3256 98.1838 69.604C97.5205 69.8718 96.8603 70.1552 96.2033 70.4479C95.8327 70.6161 95.4715 70.7998 95.1072 70.9773L95.0947 70.9555Z" fill="#263238"/>
<path d="M103.041 67.9564C102.976 67.972 99.2388 69.0463 99.1205 69.0961C99.1361 69.0432 100.105 66.1129 100.117 66.0849C100.185 65.9666 100.537 65.322 100.618 65.1507C100.528 65.3033 100.257 65.6708 100.22 65.7424C100.291 65.5493 100.597 64.5653 100.69 64.2539C100.69 64.2539 100.69 64.2539 100.674 64.2539C100.192 65.1507 98.778 69.4169 98.7842 69.4138C98.7904 69.4106 102.985 68.0312 103.06 68.0031C103.066 68.0007 103.071 67.9958 103.073 67.9897C103.076 67.9835 103.076 67.9766 103.074 67.9704C103.071 67.9642 103.066 67.9593 103.06 67.9567C103.054 67.954 103.047 67.9539 103.041 67.9564Z" fill="#263238"/>
<path d="M103.122 72.4876C102.789 71.6998 102.459 70.9119 102.091 70.1397C101.886 69.7006 101.68 69.2584 101.468 68.8193C101.468 68.8193 101.431 68.8193 101.437 68.8193C101.749 69.6227 102.06 70.4261 102.393 71.214C102.726 72.0018 103.069 72.7865 103.421 73.565C103.628 74.0114 103.841 74.4484 104.059 74.876H104.075C103.798 74.0695 103.461 73.2785 103.122 72.4876Z" fill="#263238"/>
<path d="M106.296 75.1374C106.171 74.9194 106.022 74.6049 105.891 74.3931C105.857 74.3371 105.813 74.3464 105.841 74.3931C105.931 74.5893 106.006 74.8104 106.096 75.0159L105.548 75.1031L104.926 75.2152C104.514 75.2837 104.1 75.3491 103.68 75.4114C102.85 75.5359 102.009 75.6397 101.158 75.7228C99.469 75.9138 97.7718 76.0177 96.0725 76.0342C95.5992 76.0342 95.1383 76.0342 94.6494 76.003C94.1806 75.9898 93.7128 75.9513 93.2481 75.8878C93.2481 75.8878 93.2326 75.9065 93.2481 75.9096C93.6472 76.008 94.0532 76.0757 94.4626 76.112C94.8923 76.1463 95.322 76.1712 95.7518 76.1805C96.6081 76.1992 97.4676 76.1805 98.3208 76.1245C100.018 76.0279 101.712 75.8567 103.393 75.62C103.867 75.5515 104.328 75.4799 104.807 75.402L105.517 75.2806C105.78 75.2554 106.041 75.2075 106.296 75.1374Z" fill="#263238"/>
<path d="M132.285 69.834C131.562 70.2086 130.904 70.6964 130.336 71.2789C129.56 72.1352 128.573 74.8039 128.573 74.8039C128.573 74.8039 137.464 75.71 137.439 75.0468C137.414 74.3835 132.285 69.834 132.285 69.834Z" fill="#263238"/>
<path d="M71.4282 71.84C71.4282 71.84 70.22 64.1797 69.7124 63.834C69.2048 63.4884 62.0925 63.4479 61.6161 63.7562C61.1397 64.0644 60.9061 67.4213 60.5013 67.4929C60.0965 67.5645 57.6707 67.8479 56.8891 68.1375C56.1075 68.4271 56.0732 71.0148 56.0732 71.0148L71.4282 71.84Z" fill="#00FEBE"/>
<path opacity="0.5" d="M71.4282 71.84C71.4282 71.84 70.22 64.1797 69.7124 63.834C69.2048 63.4884 62.0925 63.4479 61.6161 63.7562C61.1397 64.0644 60.9061 67.4213 60.5013 67.4929C60.0965 67.5645 57.6707 67.8479 56.8891 68.1375C56.1075 68.4271 56.0732 71.0148 56.0732 71.0148L71.4282 71.84Z" fill="white"/>
<path d="M184.571 108.31L146.123 108.566C146.123 108.566 148.178 84.7842 166.675 86.3817C185.172 87.9792 184.571 108.31 184.571 108.31Z" fill="#00FEBE"/>
<path opacity="0.5" d="M184.571 108.31L146.123 108.566C146.123 108.566 148.178 84.7842 166.675 86.3817C185.172 87.9792 184.571 108.31 184.571 108.31Z" fill="black"/>
<path d="M69.4915 108.285L31.1523 105.389C31.1523 105.389 35.1476 81.8541 53.4515 84.9649C71.7554 88.0758 69.4915 108.285 69.4915 108.285Z" fill="#00FEBE"/>
<path opacity="0.5" d="M69.4915 108.285L31.1523 105.389C31.1523 105.389 35.1476 81.8541 53.4515 84.9649C71.7554 88.0758 69.4915 108.285 69.4915 108.285Z" fill="black"/>
<path opacity="0.6" d="M154.609 72.7862L155.424 73.2533C155.424 73.2533 150.271 73.7297 149.134 73.6021C147.998 73.4744 127.828 60.9749 127.548 60.8535C127.268 60.732 114.143 55.7715 114.143 55.7715C114.143 55.7715 132.126 61.4981 133.287 61.9185C134.449 62.3388 154.609 72.7862 154.609 72.7862Z" fill="white"/>
<path d="M200.87 104.599C200.87 104.599 196.99 108.146 195.785 108.476C194.58 108.806 183.423 109.805 182.762 109.587C182.102 109.369 185.509 89.0912 166.442 87.9546C147.375 86.818 149.471 110.437 149.004 110.428C148.537 110.419 67.5393 109.805 67.175 109.472C66.8106 109.139 69.6225 87.721 51.1069 87.4875C33.379 87.2633 34.388 106.872 33.6873 106.894C32.9867 106.916 19.388 105.284 18.2451 104.972C17.1023 104.661 15.4426 101.357 15.3211 101.071C15.1997 100.784 15.5609 100.027 15.5609 100.027C15.5609 100.027 13.8046 94.4223 13.7143 92.1927C13.624 89.9631 17.8248 83.7694 17.8248 83.7694L20.7737 73.8452C20.7737 73.8452 19.3973 73.0231 19.2167 72.7397C19.0361 72.4563 18.8399 71.3882 18.8399 71.3882L47.258 69.0528C47.5827 68.8252 47.929 68.6302 48.2918 68.4705C48.6032 68.3895 50.4311 68.3366 50.4311 68.3366C50.4311 68.3366 53.4081 70.5911 54.6257 70.8838C55.8432 71.1765 136.548 75.1219 136.996 74.9787C137.445 74.8354 125.895 63.4103 124.715 62.3266C123.535 61.2429 113.48 58.4684 113.358 58.1726C113.237 57.8767 113.209 55.5257 113.526 55.5599C113.844 55.5942 126.533 60.2558 127.988 61.0654C129.442 61.8751 148.851 73.3314 149.424 73.5587C149.997 73.786 155.372 73.2909 155.425 73.2473C155.478 73.2037 154.609 72.8985 154.609 72.7864C154.609 72.6743 156.038 73.0044 156.347 73.0044C156.655 73.0044 179.82 76.4547 183.628 77.8092C187.436 79.1638 193.123 82.6546 195.676 85.1084C198.229 87.5622 200.581 91.299 201.007 91.5512C201.434 91.8034 202.461 91.8626 202.642 93.4912C202.823 95.1198 202.592 96.792 202.231 97.1408C201.87 97.4895 200.708 97.8539 200.59 97.9878C200.472 98.1217 200.316 102.036 200.375 102.179C200.434 102.322 200.904 102.435 200.954 102.78C201.004 103.126 201.107 104.209 200.87 104.599Z" fill="#00FEBE"/>
<path opacity="0.3" d="M152.055 95.6306C151.61 96.4836 151.226 97.3671 150.906 98.2743C136.893 97.8353 73.3405 95.8112 73.465 95.1946C73.5896 94.5781 140.867 95.4593 152.055 95.6306Z" fill="white"/>
<path d="M181.173 106.542C182.334 98.1976 176.51 90.4916 168.165 89.3306C159.821 88.1697 152.115 93.9935 150.954 102.338C149.793 110.683 155.616 118.389 163.961 119.55C172.306 120.711 180.012 114.887 181.173 106.542Z" fill="#263238"/>
<path d="M170.533 114.653C176.171 112.192 178.745 105.626 176.283 99.988C173.822 94.3504 167.256 91.7759 161.618 94.2377C155.98 96.6996 153.406 103.266 155.868 108.903C158.33 114.541 164.896 117.115 170.533 114.653Z" fill="#DBDBDB"/>
<path d="M173.335 111.71C177.345 107.7 177.345 101.197 173.335 97.1864C169.324 93.1757 162.821 93.1757 158.811 97.1864C154.8 101.197 154.8 107.7 158.811 111.71C162.821 115.721 169.324 115.721 173.335 111.71Z" fill="#A6A6A6"/>
<path d="M164.106 102.132L167.298 101.668C165.993 100.27 168.958 94.2909 168.958 94.2909L167.198 93.9795C166.361 96.0596 165.884 96.7042 164.966 96.8381C164.047 96.972 163.409 96.4893 162.004 94.7362L160.413 95.5427C160.413 95.5427 164.956 100.419 164.106 102.132Z" fill="#DBDBDB"/>
<path d="M167.594 101.824L169.023 104.717C169.957 103.045 176.55 104.016 176.55 104.016L176.307 102.241C174.071 102.089 173.311 101.833 172.9 100.996C172.489 100.158 172.75 99.4045 173.984 97.533L172.738 96.2656C172.738 96.2656 169.487 102.104 167.594 101.824Z" fill="#DBDBDB"/>
<path d="M168.967 105.044L166.656 107.298C168.525 107.663 169.649 114.239 169.649 114.239L171.262 113.461C170.717 111.281 170.723 110.487 171.389 109.839C172.056 109.192 172.853 109.201 175.017 109.799L175.833 108.211C175.833 108.211 169.284 106.931 168.967 105.044Z" fill="#DBDBDB"/>
<path d="M166.326 107.345L163.471 105.844C163.704 107.743 157.794 110.826 157.794 110.826L159.04 112.118C160.939 110.929 161.702 110.689 162.524 111.119C163.346 111.549 163.583 112.318 163.686 114.56L165.448 114.843C165.448 114.843 164.632 108.232 166.326 107.345Z" fill="#DBDBDB"/>
<path d="M163.328 105.545L163.87 102.366C162.139 103.173 157.368 98.5078 157.368 98.5078L156.524 100.083C158.243 101.525 158.704 102.176 158.548 103.092C158.393 104.007 157.739 104.468 155.637 105.271L155.911 107.037C155.911 107.037 161.958 104.206 163.328 105.545Z" fill="#DBDBDB"/>
<path d="M163.113 104.807C163.198 105.391 163.454 105.935 163.849 106.373C164.244 106.811 164.759 107.122 165.331 107.266C165.902 107.411 166.503 107.383 167.059 107.186C167.614 106.989 168.099 106.631 168.451 106.159C168.803 105.686 169.008 105.12 169.038 104.531C169.069 103.943 168.924 103.358 168.622 102.852C168.32 102.346 167.875 101.94 167.343 101.687C166.811 101.433 166.216 101.344 165.632 101.429C165.245 101.485 164.873 101.617 164.537 101.818C164.2 102.018 163.907 102.282 163.673 102.596C163.439 102.91 163.269 103.267 163.173 103.646C163.077 104.025 163.057 104.42 163.113 104.807Z" fill="#DBDBDB"/>
<path d="M58.661 117.409C65.8021 112.938 67.9668 103.524 63.4958 96.383C59.0249 89.2418 49.6114 87.0772 42.4702 91.5482C35.3291 96.0191 33.1645 105.433 37.6354 112.574C42.1064 119.715 51.5198 121.88 58.661 117.409Z" fill="#263238"/>
<path d="M59.0167 111.739C63.0217 107.07 62.4831 100.038 57.8136 96.0327C53.1442 92.0276 46.1122 92.5663 42.1072 97.2357C38.1022 101.905 38.6408 108.937 43.3102 112.942C47.9796 116.947 55.0116 116.409 59.0167 111.739Z" fill="#DBDBDB"/>
<path d="M60.419 107.373C62.0138 101.93 58.8941 96.2243 53.451 94.6296C48.0079 93.0348 42.3026 96.1545 40.7079 101.598C39.1131 107.041 42.2328 112.746 47.6759 114.341C53.119 115.935 58.8243 112.816 60.419 107.373Z" fill="#A6A6A6"/>
<path d="M48.5967 102.17L51.7885 101.706C50.4837 100.305 53.4482 94.329 53.4482 94.329L51.6857 94.0176C50.8481 96.0977 50.3716 96.7423 49.453 96.8762C48.5344 97.0101 47.896 96.5274 46.4947 94.7743L44.9004 95.5808C44.9004 95.5808 49.4468 100.457 48.5967 102.17Z" fill="#DBDBDB"/>
<path d="M52.084 101.858L53.5102 104.748C54.4444 103.076 61.0398 104.047 61.0398 104.047L60.7969 102.276C58.561 102.123 57.8012 101.868 57.3902 101.03C56.9791 100.192 57.2376 99.4387 58.4739 97.5641L57.2283 96.2998C57.2283 96.2998 53.9742 102.138 52.084 101.858Z" fill="#DBDBDB"/>
<path d="M53.4549 105.081L51.1475 107.332C53.0158 107.7 54.14 114.277 54.14 114.277L55.7499 113.498C55.205 111.318 55.2143 110.524 55.8776 109.873C56.5409 109.223 57.3443 109.251 59.5054 109.836L60.3212 108.245C60.3212 108.245 53.7757 106.968 53.4549 105.081Z" fill="#DBDBDB"/>
<path d="M50.8166 107.383L47.9611 105.882C48.1916 107.781 42.2812 110.864 42.2812 110.864L43.5268 112.156C45.4264 110.967 46.1893 110.727 47.0114 111.157C47.8335 111.587 48.0701 112.356 48.1698 114.582L49.9323 114.869C49.9323 114.869 49.1195 108.267 50.8166 107.383Z" fill="#DBDBDB"/>
<path d="M47.7997 105.595L48.3447 102.416C46.6102 103.222 41.8427 98.5576 41.8427 98.5576L40.9957 100.133C42.7146 101.575 43.1755 102.226 43.0229 103.141C42.8703 104.057 42.2101 104.518 40.1113 105.306L40.3854 107.071C40.3854 107.071 46.4451 104.244 47.7997 105.595Z" fill="#DBDBDB"/>
<path d="M47.6006 104.845C47.6855 105.428 47.9413 105.973 48.3359 106.411C48.7304 106.848 49.2458 107.159 49.817 107.304C50.3882 107.449 50.9895 107.421 51.545 107.225C52.1004 107.028 52.585 106.671 52.9376 106.198C53.2901 105.726 53.4947 105.16 53.5256 104.572C53.5564 103.983 53.4121 103.399 53.1108 102.892C52.8096 102.386 52.3649 101.98 51.8331 101.726C51.3013 101.472 50.7061 101.382 50.1229 101.466C49.341 101.581 48.6364 102.001 48.1636 102.634C47.6908 103.268 47.4884 104.063 47.6006 104.845Z" fill="#DBDBDB"/>
<path d="M20.6484 74.2901C19.571 74.6015 17.4784 77.5162 17.3756 78.086C17.2729 78.6559 17.1296 82.4051 17.5687 82.8971C18.0078 83.3891 19.5149 84.5475 20.6484 84.4292C21.7819 84.3108 28.9472 80.9166 29.3675 80.381C29.7879 79.8454 29.7599 77.0584 29.0561 76.2612C28.3524 75.4641 22.0217 73.9071 20.6484 74.2901Z" fill="white"/>
<path d="M29.3771 80.3971C28.9474 80.9203 21.7821 84.3114 20.658 84.4297C19.7954 84.52 18.7117 83.863 18.0547 83.3305C18.9546 83.7353 19.7611 83.8536 20.359 83.7042C20.9569 83.5547 27.8326 80.6182 28.4024 79.9176C28.9723 79.2169 28.6702 76.925 28.5239 76.5265C28.3775 76.1279 22.6602 74.3467 22.6602 74.3467C25.2386 74.5802 28.5768 75.7262 29.0626 76.2649C29.7663 77.0714 29.8068 79.8709 29.3771 80.3971Z" fill="#EBEBEB"/>
<path d="M181.093 81.8265C181.865 83.6232 188.912 87.6403 191.637 88.5091C193.353 89.0571 199.394 90.337 199.792 90.066C200.191 89.7951 197.855 85.2986 196.482 84.0841C195.109 82.8697 187.875 79.2045 185.558 78.971C183.242 78.7374 180.311 80.011 181.093 81.8265Z" fill="white"/>
<path d="M199.796 90.0718C199.394 90.3396 193.356 89.0566 191.637 88.5148C188.912 87.6429 181.866 83.629 181.09 81.8291C180.315 80.0292 183.242 78.7525 185.559 78.9829C185.739 79.0009 185.918 79.031 186.094 79.0732C183.837 79.5466 183.152 81.1565 184.316 82.3055C185.481 83.4546 189.33 86.3039 190.933 87.017C192.49 87.7052 198.342 89.5237 198.918 89.1968C199.035 89.0937 199.127 88.9659 199.189 88.8226C199.25 88.6794 199.279 88.5242 199.273 88.3684C199.702 89.2621 199.945 89.9721 199.796 90.0718Z" fill="#EBEBEB"/>
<g opacity="0.1">
<path d="M182.635 106.865C182.672 108.484 182.613 109.537 182.762 109.586C183.423 109.804 194.577 108.811 195.785 108.475C196.993 108.138 200.87 104.595 200.87 104.595C200.87 104.595 200.889 104.564 200.895 104.545C196.836 105.905 192.607 106.688 188.33 106.871C187.552 106.899 185.581 106.896 182.635 106.865Z" fill="black"/>
<path d="M67.0029 104.383C67.2365 107.26 67.0465 109.365 67.1586 109.471C67.5198 109.814 148.511 110.405 148.984 110.427C149.112 110.427 149.053 108.733 149.268 106.27C124.53 105.753 92.5935 105.012 67.0029 104.383Z" fill="black"/>
<path d="M15.3209 101.079C15.4423 101.366 17.0989 104.679 18.2449 104.981C19.3908 105.283 32.9646 106.918 33.6653 106.896C33.849 106.896 33.9175 105.542 34.2351 103.555C29.7423 103.428 25.2614 103.029 20.817 102.359C18.9277 101.942 17.1406 101.153 15.5606 100.036C15.5606 100.036 15.1994 100.796 15.3209 101.079Z" fill="black"/>
</g>
<g opacity="0.2">
<path d="M142.688 106.131C142.688 101.388 142.847 94.4907 142.938 89.6765C142.972 88.3063 143.006 86.9362 143.025 85.566C143.054 85.3307 143.032 85.0919 142.962 84.8654C141.885 82.8444 138.22 77.0244 136.996 74.9785C138.905 77.8247 140.792 80.6895 142.576 83.6198C142.813 84.0744 143.199 84.5353 143.302 85.0366C143.265 92.0742 142.99 99.1024 142.679 106.131H142.688Z" fill="black"/>
<path d="M84.6621 72.5244L83.675 76.4667C83.3293 78.0984 82.7408 79.7426 82.7003 81.4086C82.8747 87.2068 83.0428 94.8921 83.1051 100.715L83.1238 104.779L82.9525 100.731C82.7563 95.3218 82.557 87.842 82.4605 82.4455C82.4605 81.8476 82.3889 80.982 82.5384 80.3965C83.1176 77.7372 83.8867 75.1401 84.6621 72.5431V72.5244Z" fill="black"/>
<path d="M37.7223 93.8769C34.9478 92.457 32.2106 90.9654 29.5295 89.371C29.0579 89.0596 28.643 88.67 28.3026 88.2189C27.823 87.6646 27.3435 87.1072 26.8857 86.5342C25.9515 85.3945 25.0547 84.2454 24.1797 83.0684L25.6308 84.7188C26.7269 85.9425 28.1842 87.7611 29.352 88.9008C32.1203 90.5886 34.9571 92.158 37.7223 93.8832V93.8769Z" fill="black"/>
<path d="M180.865 80.6828C173.525 79.7486 166.077 78.749 158.775 77.5252C155.598 76.3295 152.528 74.9251 149.433 73.5674C150.89 74.1279 157.529 76.8215 158.852 77.2637C165.781 78.3629 173.971 79.5026 180.874 80.689L180.865 80.6828Z" fill="black"/>
<path d="M96.3773 82.0746C96.1811 82.7504 95.9196 83.588 95.2283 83.9088C94.2978 84.0121 93.3602 84.036 92.4257 83.9804C91.4947 83.9631 90.5667 83.8694 89.6511 83.7001C89.5421 83.6763 89.4371 83.6365 89.3397 83.5818C88.8602 83.1427 88.6796 82.5106 88.4834 81.9189C88.7481 82.439 89.0034 83.0493 89.4518 83.4199C89.6316 83.4782 89.8177 83.5148 90.0061 83.5289C91.6223 83.6628 93.2758 83.7126 94.8982 83.7219C95.0816 83.7435 95.2661 83.692 95.412 83.5787C95.8457 83.1569 96.1789 82.6429 96.3867 82.0746H96.3773Z" fill="black"/>
<path d="M96.4329 81.0158C96.274 80.4615 96.0872 79.7702 95.6232 79.4308C95.434 79.3777 95.24 79.3433 95.044 79.328C93.8017 79.2179 92.5535 79.1877 91.3073 79.2377C90.4634 79.2377 89.7005 79.3965 89.1088 80.0349C88.8033 80.3111 88.5446 80.635 88.3428 80.994C88.4984 80.6001 88.7266 80.2389 89.0154 79.929C89.2967 79.5986 89.6462 79.333 90.0399 79.1505C90.4521 79.0287 90.8778 78.9586 91.3073 78.9419C92.5661 78.8608 93.8299 78.9109 95.0783 79.0914C95.2977 79.1233 95.5129 79.1797 95.7198 79.2595C96.2429 79.6893 96.3426 80.3961 96.4329 81.0158Z" fill="black"/>
<path d="M96.1779 80.9506C97.464 81.2308 97.383 81.9844 96.097 82.1401C94.487 82.2989 92.8678 82.2771 91.2547 82.2833C90.2583 82.2117 89.1559 82.4079 88.1999 81.9719C87.7173 81.7353 87.5771 81.1997 88.1345 80.9319C89.1528 80.5364 90.2894 80.745 91.345 80.7014C92.9592 80.7043 94.5722 80.7885 96.1779 80.9537V80.9506ZM96.1779 80.9506C93.7895 80.689 91.3357 80.8291 88.9442 80.9973C88.5487 81.0315 87.6114 81.3087 88.3432 81.701C88.8663 81.9688 89.4642 81.9159 90.0527 81.9626C92.0519 82.0342 94.1009 82.2024 96.0907 82.0965C97.3643 81.9813 97.4546 81.2433 96.1779 80.9506Z" fill="black"/>
</g>
<path d="M200.593 97.9875C200.593 97.9875 193.331 98.6321 193.241 98.6103C193.151 98.5885 192.929 97.5889 192.322 97.5609C191.715 97.5328 189.607 99.3327 189.271 101.064C188.934 102.795 189.33 104.094 190.429 103.963C191.528 103.832 193.029 101.609 193.029 101.609C193.029 101.609 198.603 101.298 198.737 101.4C198.961 101.602 199.199 101.786 199.45 101.952C199.754 102.057 200.066 102.133 200.384 102.179L200.593 97.9875Z" fill="#263238"/>
<path d="M131.628 78.2204C131.136 77.4823 132.304 71.9924 132.843 71.6281C133.381 71.2638 139.584 72.1014 139.382 75.6202C139.179 79.139 132.394 79.3756 131.628 78.2204Z" fill="#00FEBE"/>
<path opacity="0.1" d="M131.628 78.2204C131.136 77.4823 132.304 71.9924 132.843 71.6281C133.381 71.2638 139.584 72.1014 139.382 75.6202C139.179 79.139 132.394 79.3756 131.628 78.2204Z" fill="black"/>
<g opacity="0.4">
<path d="M69.4137 96.431C67.7913 91.2338 63.9206 86.7559 58.8791 84.6508C53.0093 82.2936 45.8658 82.3558 40.4413 85.8248C37.0987 88.015 34.4942 91.1621 32.9678 94.8553C33.6256 92.9586 34.5799 91.1781 35.7953 89.5802C41.0672 82.4804 50.3624 80.8611 58.3778 83.8661C63.8272 85.8964 68.0311 90.8507 69.3981 96.4372L69.4137 96.431Z" fill="white"/>
<path d="M184.783 96.7737C183.16 91.5733 179.29 87.0954 174.248 84.9904C168.378 82.6331 161.235 82.6985 155.81 86.1675C152.467 88.3569 149.862 91.5043 148.337 95.198C149 93.297 149.961 91.5133 151.183 89.9136C156.455 82.8169 165.75 81.1945 173.766 84.1995C179.215 86.2298 183.419 91.1872 184.786 96.7737H184.783Z" fill="white"/>
<path d="M131.416 81.929C107.033 80.9948 82.405 79.6403 58.0693 77.8809C82.4517 78.8151 107.08 80.1727 131.416 81.929Z" fill="white"/>
</g>
</svg>
